<svg xmlns="http://www.w3.org/2000/svg" xmlns:xlink="http://www.w3.org/1999/xlink" width="85" height="85" viewBox="0 0 85 85">
  <defs>
    <clipPath id="clip-path">
      <rect id="Rectángulo_401266" data-name="Rectángulo 401266" width="85" height="85" transform="translate(180 404)" fill="#fff" stroke="#707070" stroke-width="1"/>
    </clipPath>
    <clipPath id="clip-path-2">
      <path id="path813" d="M0-85H85V0H0Z"/>
    </clipPath>
  </defs>
  <g id="Enmascarar_grupo_1098709" data-name="Enmascarar grupo 1098709" transform="translate(-180 -404)" clip-path="url(#clip-path)">
    <g id="g801" transform="translate(180 489)">
      <path id="path803" d="M28.807-11.213H44.5v-8.728h-15.7Z" fill="#6e61b6"/>
      <path id="path805" d="M28.807-11.213H34.44v-8.728H28.807Z" fill="#6354b1"/>
      <path id="path807" d="M28.807-11.213H44.5v-8.728h-15.7Z" fill="none" stroke="#000" stroke-linecap="round" stroke-linejoin="round" stroke-miterlimit="10" stroke-width="2.49"/>
      <g id="g809">
        <g id="g811" clip-path="url(#clip-path-2)">
          <g id="g817" transform="translate(71.173 -29.514)">
            <path id="path819" d="M0,0H-69.059l-.869.166V7.249a2.49,2.49,0,0,0,2.49,2.49H-1.6a2.49,2.49,0,0,0,2.49-2.49V.166Z" fill="#53469c"/>
          </g>
          <g id="g821" transform="translate(8.301 -22.266)">
            <path id="path823" d="M0,0V-7.083l.869-.166H-6.187l-.869.166V0a2.49,2.49,0,0,0,2.49,2.49H2.49A2.49,2.49,0,0,1,0,0" fill="#463a84"/>
          </g>
          <g id="g825" transform="translate(1.245 -29.348)">
            <path id="path827" d="M0,0V7.083a2.49,2.49,0,0,0,2.49,2.49H68.33a2.49,2.49,0,0,0,2.49-2.49V0l-.892-.166" fill="none" stroke="#000" stroke-linecap="round" stroke-linejoin="round" stroke-miterlimit="10" stroke-width="2.49"/>
          </g>
          <g id="g829" transform="translate(49.005 -11.379)">
            <path id="path831" d="M0,0H-24.7a3.9,3.9,0,0,0-3.9,3.9v2a.5.5,0,0,0,.5.5H3.4a.5.5,0,0,0,.5-.5v-2A3.9,3.9,0,0,0,0,0" fill="#53469c"/>
          </g>
          <g id="g833" transform="translate(28.77 -5.489)">
            <path id="path835" d="M0,0V-2a3.9,3.9,0,0,1,3.9-3.9h-8.36A3.9,3.9,0,0,0-8.36-2V0a.5.5,0,0,0,.5.5H.5A.5.5,0,0,1,0,0" fill="#463a84"/>
          </g>
          <g id="g837" transform="translate(49.005 -11.379)">
            <path id="path839" d="M0,0H-24.7a3.9,3.9,0,0,0-3.9,3.9v2a.5.5,0,0,0,.5.5H3.4a.5.5,0,0,0,.5-.5v-2A3.9,3.9,0,0,0,0,0Z" fill="none" stroke="#000" stroke-linecap="round" stroke-linejoin="round" stroke-miterlimit="10" stroke-width="2.49"/>
          </g>
          <g id="g841" transform="translate(72.065 -29.348)">
            <path id="path843" d="M0,0H-70.82V-37.037a2.49,2.49,0,0,1,2.49-2.49H0Z" fill="#eaf6ff"/>
          </g>
          <g id="g845" transform="translate(10.791 -68.875)">
            <path id="path847" d="M0,0H-7.056a2.49,2.49,0,0,0-2.49,2.49V39.527H-2.49V2.49A2.49,2.49,0,0,1,0,0" fill="#d8ecfe"/>
          </g>
          <g id="g849" transform="translate(27.061 -29.348)">
            <path id="path851" d="M0,0H45V-39.527h-68.33a2.49,2.49,0,0,0-2.49,2.49V0h20" fill="none" stroke="#000" stroke-linecap="round" stroke-linejoin="round" stroke-miterlimit="10" stroke-width="2.49"/>
          </g>
          <g id="g853" transform="translate(67.137 -43.465)">
            <path id="path855" d="M0,0A6.389,6.389,0,0,1-6.388,6.388,6.389,6.389,0,0,1-12.777,0,6.389,6.389,0,0,1-6.388-6.388,6.389,6.389,0,0,1,0,0" fill="#fed402"/>
          </g>
          <g id="g857" transform="translate(58.604 -43.465)">
            <path id="path859" d="M0,0A6.39,6.39,0,0,1,4.267-6.026a6.373,6.373,0,0,0-2.122-.362A6.389,6.389,0,0,0-4.243,0,6.389,6.389,0,0,0,2.145,6.388a6.373,6.373,0,0,0,2.122-.362A6.39,6.39,0,0,1,0,0" fill="#fac600"/>
          </g>
          <g id="g861" transform="translate(67.137 -43.465)">
            <path id="path863" d="M0,0A6.389,6.389,0,0,1-6.388,6.388,6.389,6.389,0,0,1-12.777,0,6.389,6.389,0,0,1-6.388-6.388,6.389,6.389,0,0,1,0,0Z" fill="none" stroke="#000" stroke-linecap="round" stroke-linejoin="round" stroke-miterlimit="10" stroke-width="2.49"/>
          </g>
          <g id="g865" transform="translate(74.99 -4.991)">
            <path id="path867" d="M0,0H0A8.791,8.791,0,0,1-8.765-8.765v-9.849A8.791,8.791,0,0,1,0-27.379a8.791,8.791,0,0,1,8.765,8.765v9.849A8.791,8.791,0,0,1,0,0" fill="#eaf6ff"/>
          </g>
          <g id="g869" transform="translate(71.786 -13.756)">
            <path id="path871" d="M0,0V-9.849a8.8,8.8,0,0,1,5.985-8.308A8.685,8.685,0,0,0,3.2-18.614h0A8.791,8.791,0,0,0-5.562-9.849V0A8.791,8.791,0,0,0,3.2,8.765h0a8.689,8.689,0,0,0,2.781-.458A8.8,8.8,0,0,1,0,0" fill="#d8ecfe"/>
          </g>
          <g id="g873" transform="translate(74.99 -4.991)">
            <path id="path875" d="M0,0H0A8.791,8.791,0,0,1-8.765-8.765v-9.849A8.791,8.791,0,0,1,0-27.379a8.791,8.791,0,0,1,8.765,8.765v9.849A8.791,8.791,0,0,1,0,0Z" fill="none" stroke="#000" stroke-linecap="round" stroke-linejoin="round" stroke-miterlimit="10" stroke-width="2.49"/>
          </g>
          <g id="g877" transform="translate(74.99 -32.37)">
            <path id="path879" d="M0,0V14.97" fill="none" stroke="#000" stroke-linecap="round" stroke-linejoin="round" stroke-miterlimit="10" stroke-width="2.49"/>
          </g>
          <g id="g881" transform="translate(74.99 -20.294)">
            <path id="path883" d="M0,0H0A2.462,2.462,0,0,1-2.462-2.462V-4.356A2.462,2.462,0,0,1,0-6.818,2.462,2.462,0,0,1,2.462-4.356v1.894A2.462,2.462,0,0,1,0,0" fill="#0ed290"/>
          </g>
          <g id="g885" transform="translate(74.99 -20.294)">
            <path id="path887" d="M0,0H0A2.462,2.462,0,0,1-2.462-2.462V-4.356A2.462,2.462,0,0,1,0-6.818,2.462,2.462,0,0,1,2.462-4.356v1.894A2.462,2.462,0,0,1,0,0Z" fill="none" stroke="#000" stroke-linecap="round" stroke-linejoin="round" stroke-miterlimit="10" stroke-width="2.49"/>
          </g>
          <g id="g889" transform="translate(47.878 -37.076)">
            <path id="path891" d="M0,0H-19.486a.5.5,0,0,1-.5-.5V-19.984a.5.5,0,0,1,.5-.5H0a.5.5,0,0,1,.5.5V-.5A.5.5,0,0,1,0,0" fill="#0ed290"/>
          </g>
          <g id="g893" transform="translate(33.535 -37.574)">
            <path id="path895" d="M0,0V-19.486a.5.5,0,0,1,.5-.5H-5.143a.5.5,0,0,0-.5.5V0a.5.5,0,0,0,.5.5H.5A.5.5,0,0,1,0,0" fill="#00c285"/>
          </g>
          <g id="g897" transform="translate(47.878 -37.076)">
            <path id="path899" d="M0,0H-19.486a.5.5,0,0,1-.5-.5V-19.984a.5.5,0,0,1,.5-.5H0a.5.5,0,0,1,.5.5V-.5A.5.5,0,0,1,0,0Z" fill="none" stroke="#000" stroke-linecap="round" stroke-linejoin="round" stroke-miterlimit="10" stroke-width="2.49"/>
          </g>
          <g id="g901" transform="translate(13.292 -57.558)">
            <path id="path903" d="M0,0H9.126" fill="none" stroke="#000" stroke-linecap="round" stroke-linejoin="round" stroke-miterlimit="10" stroke-width="2.49"/>
          </g>
          <g id="g905" transform="translate(13.292 -53.543)">
            <path id="path907" d="M0,0H9.126" fill="none" stroke="#000" stroke-linecap="round" stroke-linejoin="round" stroke-miterlimit="10" stroke-width="2.49"/>
          </g>
          <g id="g909" transform="translate(13.292 -49.527)">
            <path id="path911" d="M0,0H9.126" fill="none" stroke="#000" stroke-linecap="round" stroke-linejoin="round" stroke-miterlimit="10" stroke-width="2.49"/>
          </g>
          <g id="g913" transform="translate(13.292 -43.504)">
            <path id="path915" d="M0,0H9.126" fill="none" stroke="#000" stroke-linecap="round" stroke-linejoin="round" stroke-miterlimit="10" stroke-width="2.49"/>
          </g>
          <g id="g917" transform="translate(13.292 -39.488)">
            <path id="path919" d="M0,0H9.126" fill="none" stroke="#000" stroke-linecap="round" stroke-linejoin="round" stroke-miterlimit="10" stroke-width="2.49"/>
          </g>
          <g id="g921" transform="translate(13.292 -35.473)">
            <path id="path923" d="M0,0H4.746" fill="none" stroke="#000" stroke-linecap="round" stroke-linejoin="round" stroke-miterlimit="10" stroke-width="2.49"/>
          </g>
          <g id="g925" transform="translate(48.138 -62.275)">
            <path id="path927" d="M0,0-10.372,16.383a.5.5,0,0,0,.421.765H10.793a.5.5,0,0,0,.421-.765L.842,0A.5.5,0,0,0,0,0" fill="#fd4755"/>
          </g>
          <g id="g929" transform="translate(43.408 -45.893)">
            <path id="path931" d="M0,0,7.972-12.591l-2.4-3.791a.5.5,0,0,0-.842,0L-5.643,0a.5.5,0,0,0,.421.765H.421A.5.5,0,0,1,0,0" fill="#fb2b3a"/>
          </g>
          <g id="g933" transform="translate(48.138 -62.275)">
            <path id="path935" d="M0,0-10.372,16.383a.5.5,0,0,0,.421.765H10.793a.5.5,0,0,0,.421-.765L.842,0A.5.5,0,0,0,0,0Z" fill="none" stroke="#000" stroke-linecap="round" stroke-linejoin="round" stroke-miterlimit="10" stroke-width="2.49"/>
          </g>
          <g id="g937" transform="translate(1.245 -35.473)">
            <path id="path939" d="M0,0H5.558a.83.83,0,0,0,.83-.83v-20.16H0Z" fill="#6e61b6"/>
          </g>
          <g id="g941" transform="translate(1.245 -35.473)">
            <path id="path943" d="M0,0H5.558a.83.83,0,0,0,.83-.83v-20.16H0Z" fill="none" stroke="#000" stroke-linecap="round" stroke-linejoin="round" stroke-miterlimit="10" stroke-width="2.49"/>
          </g>
          <g id="g945" transform="translate(7.633 -56.463)">
            <path id="path947" d="M0,0H-6.388V-5.476H-.83a.83.83,0,0,1,.83.83Z" fill="#463a84"/>
          </g>
          <g id="g949" transform="translate(7.633 -56.463)">
            <path id="path951" d="M0,0H-6.388V-5.476H-.83a.83.83,0,0,1,.83.83Z" fill="none" stroke="#000" stroke-linecap="round" stroke-linejoin="round" stroke-miterlimit="10" stroke-width="2.49"/>
          </g>
          <g id="g953" transform="translate(59.214 -57.939)">
            <path id="path955" d="M0,0H23.711a.83.83,0,0,0,.83-.83V-13.674H-.83V-.83A.83.83,0,0,0,0,0" fill="#ffe5c2"/>
          </g>
          <g id="g957" transform="translate(63.945 -58.77)">
            <path id="path959" d="M0,0V-12.844H-5.562V0a.83.83,0,0,0,.83.83H.83A.83.83,0,0,1,0,0" fill="#fed2a4"/>
          </g>
          <g id="g961" transform="translate(80.518 -57.939)">
            <path id="path963" d="M0,0H2.407a.83.83,0,0,0,.83-.83V-13.674H-22.134V-.83A.83.83,0,0,0-21.3,0H-5.811" fill="none" stroke="#000" stroke-linecap="round" stroke-linejoin="round" stroke-miterlimit="10" stroke-width="2.49"/>
          </g>
          <g id="g965" transform="translate(63.378 -66.868)">
            <path id="path967" d="M0,0H15.383" fill="none" stroke="#000" stroke-linecap="round" stroke-linejoin="round" stroke-miterlimit="10" stroke-width="2.49"/>
          </g>
          <g id="g969" transform="translate(67.973 -62.92)">
            <path id="path971" d="M0,0H-4.595" fill="none" stroke="#000" stroke-linecap="round" stroke-linejoin="round" stroke-miterlimit="10" stroke-width="2.49"/>
          </g>
          <g id="g973" transform="translate(78.761 -62.92)">
            <path id="path975" d="M0,0H-6.193" fill="none" stroke="#000" stroke-linecap="round" stroke-linejoin="round" stroke-miterlimit="10" stroke-width="2.49"/>
          </g>
          <g id="g977" transform="translate(83.755 -71.614)">
            <path id="path979" d="M0,0H-25.371V-3.733a.83.83,0,0,1,.83-.83H-.83a.83.83,0,0,1,.83.83Z" fill="#6e61b6"/>
          </g>
          <g id="g981" transform="translate(64.775 -76.177)">
            <path id="path983" d="M0,0H-5.562a.83.83,0,0,0-.83.83V4.563H-.83V.83A.83.83,0,0,1,0,0" fill="#6354b1"/>
          </g>
          <g id="g985" transform="translate(83.755 -71.614)">
            <path id="path987" d="M0,0H-25.371V-3.733a.83.83,0,0,1,.83-.83H-.83a.83.83,0,0,1,.83.83Z" fill="none" stroke="#000" stroke-linecap="round" stroke-linejoin="round" stroke-miterlimit="10" stroke-width="2.49"/>
          </g>
          <g id="g989" transform="translate(34.374 -24.886)">
            <path id="path991" d="M0,0H4.563" fill="none" stroke="#000" stroke-linecap="round" stroke-linejoin="round" stroke-miterlimit="10" stroke-width="2.49"/>
          </g>
          <g id="g993" transform="translate(7.252 -79.631)">
            <path id="path995" d="M0,0-.166-.378H-4.347a1.66,1.66,0,0,0-1.66,1.66V4.35a1.66,1.66,0,0,0,1.66,1.66H-.166L0,5.62Z" fill="#fd4755"/>
          </g>
          <g id="g997" transform="translate(2.905 -76.367)">
            <path id="path999" d="M0,0A1.66,1.66,0,0,1-1.66-1.66V1.086A1.66,1.66,0,0,0,0,2.746H4.181l.166-.39V-.39L4.181,0Z" fill="#fb2b3a"/>
          </g>
          <g id="g1001" transform="translate(43.096 -77.271)">
            <path id="path1003" d="M0,0-6.258-2.738l-.166.335v5.67l.166.383L0,.913A.5.5,0,0,0,0,0" fill="#53469c"/>
          </g>
          <g id="g1005" transform="translate(43.096 -77.271)">
            <path id="path1007" d="M0,0-2.1-.917-6.258.9V3.651h0L0,.913A.5.5,0,0,0,0,0" fill="#463a84"/>
          </g>
          <g id="g1009" transform="translate(43.096 -77.271)">
            <path id="path1011" d="M0,0-6.258-2.738l-.166.335v5.67l.166.383L0,.913A.5.5,0,0,0,0,0Z" fill="none" stroke="#000" stroke-linecap="round" stroke-linejoin="round" stroke-miterlimit="10" stroke-width="2.49"/>
          </g>
          <path id="path1013" d="M7.086-73.621H36.838v-6.388H7.086Z" fill="#fed402"/>
          <g id="g1015" transform="translate(11.254 -76.367)">
            <path id="path1017" d="M0,0V-3.642H-4.168V2.746H25.584V0Z" fill="#fac600"/>
          </g>
          <g id="g1019" transform="translate(13.779 -80.009)">
            <path id="path1021" d="M0,0H-6.693V6.388H23.059V0H5.811" fill="none" stroke="#000" stroke-linecap="round" stroke-linejoin="round" stroke-miterlimit="10" stroke-width="2.49"/>
          </g>
          <g id="g1023" transform="translate(7.252 -79.631)">
            <path id="path1025" d="M0,0-.166-.378H-4.347a1.66,1.66,0,0,0-1.66,1.66V4.35a1.66,1.66,0,0,0,1.66,1.66H-.166L0,5.62Z" fill="none" stroke="#000" stroke-linecap="round" stroke-linejoin="round" stroke-miterlimit="10" stroke-width="2.49"/>
          </g>
        </g>
      </g>
    </g>
  </g>
</svg>
