<svg xmlns="http://www.w3.org/2000/svg" xmlns:xlink="http://www.w3.org/1999/xlink" width="178.162" height="133.933" viewBox="0 0 178.162 133.933">
  <defs>
    <clipPath id="clip-path">
      <rect id="Rectángulo_401476" data-name="Rectángulo 401476" width="156.667" height="118.055" fill="#afafaf"/>
    </clipPath>
    <clipPath id="clip-path-3">
      <rect id="Rectángulo_401474" data-name="Rectángulo 401474" width="99.395" height="68.974" fill="#afafaf"/>
    </clipPath>
    <clipPath id="clip-path-4">
      <rect id="Rectángulo_401476-2" data-name="Rectángulo 401476" width="156.667" height="118.055" fill="none"/>
    </clipPath>
    <clipPath id="clip-path-6">
      <rect id="Rectángulo_401474-2" data-name="Rectángulo 401474" width="99.395" height="68.974" fill="none"/>
    </clipPath>
  </defs>
  <g id="Grupo_1099830" data-name="Grupo 1099830" transform="translate(-566.504 -1970.535)">
    <path id="_12068" data-name="12068" d="M103.949,72.366C89.64,70.39,74.525,70.874,61.5,77.128,43.447,85.8,31.588,105.464,31.133,125.491s9.978,39.705,26.1,51.6S94.6,193.2,114.312,189.632c19.875-3.6,38.53-15.279,48.9-32.614,6.648-11.116,9.755-24.842,6.082-37.264-2.217-7.5-6.75-14.14-12.082-19.858A89.263,89.263,0,0,0,103.949,72.366Z" transform="translate(540.018 1913.606)" fill="#ffd947"/>
    <g id="Grupo_1099545" data-name="Grupo 1099545" transform="translate(515.64 2232.499) rotate(-90)">
      <path id="Trazado_873104" data-name="Trazado 873104" d="M149.557,395.548a1.582,1.582,0,1,0-.106-2.456A1.573,1.573,0,0,0,149.557,395.548Z" transform="translate(13.93 -213.31)" fill="#fff"/>
      <path id="Trazado_873105" data-name="Trazado 873105" d="M417.219,416a1.582,1.582,0,1,0-.105-2.456A1.573,1.573,0,0,0,417.219,416Z" transform="translate(-222.435 -227.035)" fill="#ffd947"/>
      <path id="Trazado_873106" data-name="Trazado 873106" d="M303.26,44.546a1.582,1.582,0,1,0-.106-2.456A1.573,1.573,0,0,0,303.26,44.546Z" transform="translate(-52.901 9.151)" fill="#7d6eb2"/>
      <path id="Trazado_873109" data-name="Trazado 873109" d="M339.452,404.413a3.448,3.448,0,1,0-1.687-4.918A3.468,3.468,0,0,0,339.452,404.413Z" transform="translate(-82.207 -231.255)" fill="#7d6eb2"/>
      <path id="Trazado_873110" data-name="Trazado 873110" d="M390.262,440.006a3.448,3.448,0,1,0-1.687-4.918A3.468,3.468,0,0,0,390.262,440.006Z" transform="translate(-181.42 -237.38)" fill="#ffd947"/>
      <path id="Trazado_873111" data-name="Trazado 873111" d="M176.115,56.142a3.448,3.448,0,1,0-1.687-4.918A3.468,3.468,0,0,0,176.115,56.142Z" transform="translate(-32.569 42.202)" fill="#ffd947"/>
      <path id="Trazado_873113" data-name="Trazado 873113" d="M321.56,66.974a3.448,3.448,0,1,0-1.687-4.918A3.468,3.468,0,0,0,321.56,66.974Z" transform="translate(-76.565 -0.895)" fill="#ffd947"/>
      <circle id="Elipse_11485" data-name="Elipse 11485" cx="1.689" cy="1.689" r="1.689" transform="translate(149.167 187.566)" fill="none" stroke="#26aab7" stroke-linecap="round" stroke-linejoin="round" stroke-width="1.5"/>
    </g>
    <g id="Grupo_1099824" data-name="Grupo 1099824">
      <g id="Grupo_1099823" data-name="Grupo 1099823" transform="translate(588 1981.414)" style="mix-blend-mode: multiply;isolation: isolate">
        <g id="Grupo_1099821" data-name="Grupo 1099821" clip-path="url(#clip-path)">
          <g id="Grupo_1099820" data-name="Grupo 1099820">
            <g id="Grupo_1099819" data-name="Grupo 1099819" clip-path="url(#clip-path)">
              <path id="Trazado_874006" data-name="Trazado 874006" d="M482.5,225.925c-4.585.941-9.46-3.937-10.889-10.9s1.13-13.364,5.715-14.306,9.46,3.937,10.889,10.9-1.13,13.364-5.715,14.306" transform="translate(-389.696 -165.902)" fill="#afafaf"/>
              <path id="Trazado_874007" data-name="Trazado 874007" d="M29.431,242.158c-.554.119-1.108.244-1.664.358l-6.22,1.277a18.631,18.631,0,0,0-14.353,22.1h0a18.632,18.632,0,0,0,21.9,14.653l6.22-1.277c.556-.114,1.113-.218,1.67-.327Z" transform="translate(-5.625 -200.264)" fill="#afafaf"/>
              <path id="Trazado_874008" data-name="Trazado 874008" d="M81.342,88.656,79.9,89.833a110.914,110.914,0,0,1-32.285,18.461,186.939,186.939,0,0,1-26.329,7.45l-6.305,1.295A18.758,18.758,0,0,0,.417,131.476l4.308-.885a1.738,1.738,0,1,1,.7,3.405L0,135.11a18.694,18.694,0,0,0,.112,2.356l4.68-.961a1.738,1.738,0,1,1,.7,3.405l-4.68.961a18.74,18.74,0,0,0,.826,2.21l2.492-.512a1.738,1.738,0,0,1,.7,3.405l-1.378.283a18.758,18.758,0,0,0,19.077,7.529l6.306-1.294a186.889,186.889,0,0,1,27.135-3.527,110.914,110.914,0,0,1,36.947,4.247l1.786.515Z" transform="translate(0 -73.318)" fill="#afafaf"/>
              <path id="Trazado_874009" data-name="Trazado 874009" d="M189.341,461.524l-.272,5.515a1.3,1.3,0,0,1-1.038,1.211l-.215.044-1.99-6.047Z" transform="translate(-153.677 -381.68)" fill="#afafaf"/>
              <path id="Trazado_874010" data-name="Trazado 874010" d="M40.751,267.831,33.1,230.585a1.776,1.776,0,0,1,1.383-2.1l21.792-4.474a1.776,1.776,0,0,1,2.1,1.382l7.647,37.245a1.776,1.776,0,0,1-1.382,2.1l-21.792,4.474a1.776,1.776,0,0,1-2.1-1.382" transform="translate(-27.347 -185.229)" fill="#afafaf"/>
              <path id="Trazado_874011" data-name="Trazado 874011" d="M476.949,137.626,463.828,73.72a3.427,3.427,0,1,1,6.715-1.379l13.121,63.907a3.427,3.427,0,0,1-6.715,1.379" transform="translate(-383.526 -57.561)" fill="#afafaf"/>
              <g id="Grupo_1099818" data-name="Grupo 1099818" transform="translate(0.813 45.718)" opacity="0.06" style="mix-blend-mode: multiply;isolation: isolate">
                <g id="Grupo_1099817" data-name="Grupo 1099817">
                  <g id="Grupo_1099816" data-name="Grupo 1099816" clip-path="url(#clip-path-3)">
                    <path id="Trazado_874012" data-name="Trazado 874012" d="M43.895,328.54a106.766,106.766,0,0,1-4.956-18.355l-.887-5.03.189-.039a1.3,1.3,0,0,0,1.038-1.211l.272-5.515,1.63-.335a1.775,1.775,0,0,0,1.384-2.081q8.6-1.292,17.291-1.781A110.921,110.921,0,0,1,96.8,298.441l.5.145.005.026a3.427,3.427,0,0,0,6.715-1.379L99.83,276.8c2.51-2.555,3.635-7.394,2.578-12.539L5.456,284.171c.118.574.264,1.136.43,1.686L4.7,286.1a18.679,18.679,0,0,0,.826,2.21l1.181-.243a18.789,18.789,0,0,0,1.8,3.18l-1.166.239a18.838,18.838,0,0,0,9.4,6.957l.555,2.7a1.776,1.776,0,0,0,2.1,1.382l1.02-.21,9.715,29.523a2.029,2.029,0,0,0,2.336,1.354l9.916-2.036a2.029,2.029,0,0,0,1.519-2.622" transform="translate(-4.7 -264.265)" fill="#afafaf"/>
                  </g>
                </g>
              </g>
              <path id="Trazado_874013" data-name="Trazado 874013" d="M106.53,500.643,95.5,467.757l16.45-3.448,2.08,11.312a150.845,150.845,0,0,0,6.27,21.717,2.029,2.029,0,0,1-1.519,2.622L108.865,502a2.029,2.029,0,0,1-2.336-1.353" transform="translate(-78.978 -383.983)" fill="#afafaf"/>
              <path id="Trazado_874014" data-name="Trazado 874014" d="M574.091,22.913l1.422-.729,15.706-8.059-7.032-3.5L601.381,0,580.008,10.5l6.515,2.506Z" transform="translate(-474.773)" fill="#afafaf"/>
              <path id="Trazado_874015" data-name="Trazado 874015" d="M624.535,157.194l2.208-.218,24.861-2.46-7.564-8.822,29.116-5.564-34.621,3.093,7.379,7.12Z" transform="translate(-516.49 -115.887)" fill="#afafaf"/>
              <path id="Trazado_874016" data-name="Trazado 874016" d="M614.752,347.275l1.192.948L629.3,358.85l-.081-7.314,16.9,11.421L627.5,347.832l.719,6.587Z" transform="translate(-508.399 -287.196)" fill="#afafaf"/>
            </g>
          </g>
        </g>
      </g>
      <g id="Grupo_1099822" data-name="Grupo 1099822" transform="translate(583 1976.141)">
        <g id="Grupo_1099821-2" data-name="Grupo 1099821" clip-path="url(#clip-path-4)">
          <g id="Grupo_1099820-2" data-name="Grupo 1099820">
            <g id="Grupo_1099819-2" data-name="Grupo 1099819" clip-path="url(#clip-path-4)">
              <path id="Trazado_874006-2" data-name="Trazado 874006" d="M482.5,225.925c-4.585.941-9.46-3.937-10.889-10.9s1.13-13.364,5.715-14.306,9.46,3.937,10.889,10.9-1.13,13.364-5.715,14.306" transform="translate(-389.696 -165.902)" fill="#62529b"/>
              <path id="Trazado_874007-2" data-name="Trazado 874007" d="M29.431,242.158c-.554.119-1.108.244-1.664.358l-6.22,1.277a18.631,18.631,0,0,0-14.353,22.1h0a18.632,18.632,0,0,0,21.9,14.653l6.22-1.277c.556-.114,1.113-.218,1.67-.327Z" transform="translate(-5.625 -200.264)" fill="gray"/>
              <path id="Trazado_874008-2" data-name="Trazado 874008" d="M81.342,88.656,79.9,89.833a110.914,110.914,0,0,1-32.285,18.461,186.939,186.939,0,0,1-26.329,7.45l-6.305,1.295A18.758,18.758,0,0,0,.417,131.476l4.308-.885a1.738,1.738,0,1,1,.7,3.405L0,135.11a18.694,18.694,0,0,0,.112,2.356l4.68-.961a1.738,1.738,0,1,1,.7,3.405l-4.68.961a18.74,18.74,0,0,0,.826,2.21l2.492-.512a1.738,1.738,0,0,1,.7,3.405l-1.378.283a18.758,18.758,0,0,0,19.077,7.529l6.306-1.294a186.889,186.889,0,0,1,27.135-3.527,110.914,110.914,0,0,1,36.947,4.247l1.786.515Z" transform="translate(0 -73.318)" fill="#e8e7e7"/>
              <path id="Trazado_874009-2" data-name="Trazado 874009" d="M189.341,461.524l-.272,5.515a1.3,1.3,0,0,1-1.038,1.211l-.215.044-1.99-6.047Z" transform="translate(-153.677 -381.68)" fill="#ba2026"/>
              <path id="Trazado_874010-2" data-name="Trazado 874010" d="M40.751,267.831,33.1,230.585a1.776,1.776,0,0,1,1.383-2.1l21.792-4.474a1.776,1.776,0,0,1,2.1,1.382l7.647,37.245a1.776,1.776,0,0,1-1.382,2.1l-21.792,4.474a1.776,1.776,0,0,1-2.1-1.382" transform="translate(-27.347 -185.229)" fill="#7d6eb2"/>
              <path id="Trazado_874011-2" data-name="Trazado 874011" d="M476.949,137.626,463.828,73.72a3.427,3.427,0,1,1,6.715-1.379l13.121,63.907a3.427,3.427,0,0,1-6.715,1.379" transform="translate(-383.526 -57.561)" fill="#7d6eb2"/>
              <g id="Grupo_1099818-2" data-name="Grupo 1099818" transform="translate(0.813 45.718)" opacity="0.06" style="mix-blend-mode: multiply;isolation: isolate">
                <g id="Grupo_1099817-2" data-name="Grupo 1099817">
                  <g id="Grupo_1099816-2" data-name="Grupo 1099816" clip-path="url(#clip-path-6)">
                    <path id="Trazado_874012-2" data-name="Trazado 874012" d="M43.895,328.54a106.766,106.766,0,0,1-4.956-18.355l-.887-5.03.189-.039a1.3,1.3,0,0,0,1.038-1.211l.272-5.515,1.63-.335a1.775,1.775,0,0,0,1.384-2.081q8.6-1.292,17.291-1.781A110.921,110.921,0,0,1,96.8,298.441l.5.145.005.026a3.427,3.427,0,0,0,6.715-1.379L99.83,276.8c2.51-2.555,3.635-7.394,2.578-12.539L5.456,284.171c.118.574.264,1.136.43,1.686L4.7,286.1a18.679,18.679,0,0,0,.826,2.21l1.181-.243a18.789,18.789,0,0,0,1.8,3.18l-1.166.239a18.838,18.838,0,0,0,9.4,6.957l.555,2.7a1.776,1.776,0,0,0,2.1,1.382l1.02-.21,9.715,29.523a2.029,2.029,0,0,0,2.336,1.354l9.916-2.036a2.029,2.029,0,0,0,1.519-2.622" transform="translate(-4.7 -264.265)" fill="#231f20"/>
                  </g>
                </g>
              </g>
              <path id="Trazado_874013-2" data-name="Trazado 874013" d="M106.53,500.643,95.5,467.757l16.45-3.448,2.08,11.312a150.845,150.845,0,0,0,6.27,21.717,2.029,2.029,0,0,1-1.519,2.622L108.865,502a2.029,2.029,0,0,1-2.336-1.353" transform="translate(-78.978 -383.983)" fill="#2f5974"/>
              <path id="Trazado_874014-2" data-name="Trazado 874014" d="M574.091,22.913l1.422-.729,15.706-8.059-7.032-3.5L601.381,0,580.008,10.5l6.515,2.506Z" transform="translate(-474.773)" fill="#f5b141"/>
              <path id="Trazado_874015-2" data-name="Trazado 874015" d="M624.535,157.194l2.208-.218,24.861-2.46-7.564-8.822,29.116-5.564-34.621,3.093,7.379,7.12Z" transform="translate(-516.49 -115.887)" fill="#f5b141"/>
              <path id="Trazado_874016-2" data-name="Trazado 874016" d="M614.752,347.275l1.192.948L629.3,358.85l-.081-7.314,16.9,11.421L627.5,347.832l.719,6.587Z" transform="translate(-508.399 -287.196)" fill="#f5b141"/>
            </g>
          </g>
        </g>
      </g>
    </g>
  </g>
</svg>
