<svg xmlns="http://www.w3.org/2000/svg" xmlns:xlink="http://www.w3.org/1999/xlink" width="151.991" height="138.325" viewBox="0 0 151.991 138.325">
  <defs>
    <clipPath id="clip-path">
      <rect id="Rectángulo_401471" data-name="Rectángulo 401471" width="120.5" height="133.325" fill="none"/>
    </clipPath>
    <clipPath id="clip-path-2">
      <rect id="Rectángulo_401470" data-name="Rectángulo 401470" width="120.5" height="133.326" fill="none"/>
    </clipPath>
    <clipPath id="clip-path-3">
      <rect id="Rectángulo_401468" data-name="Rectángulo 401468" width="117.21" height="127.608" fill="none"/>
    </clipPath>
    <clipPath id="clip-path-4">
      <rect id="Rectángulo_401469" data-name="Rectángulo 401469" width="102.005" height="47.848" fill="none"/>
    </clipPath>
  </defs>
  <g id="Grupo_1099832" data-name="Grupo 1099832" transform="translate(-1196.504 -1966.144)">
    <path id="_12068" data-name="12068" d="M103.949,72.366C89.64,70.39,74.525,70.874,61.5,77.128,43.447,85.8,31.588,105.464,31.133,125.491s9.978,39.705,26.1,51.6S94.6,193.2,114.312,189.632c19.875-3.6,38.53-15.279,48.9-32.614,6.648-11.116,9.755-24.842,6.082-37.264-2.217-7.5-6.75-14.14-12.082-19.858A89.263,89.263,0,0,0,103.949,72.366Z" transform="translate(1170.018 1913.606)" fill="#ffd947"/>
    <g id="Grupo_1099549" data-name="Grupo 1099549" transform="translate(1145.64 2232.499) rotate(-90)">
      <path id="Trazado_873104" data-name="Trazado 873104" d="M149.557,395.548a1.582,1.582,0,1,0-.106-2.456A1.573,1.573,0,0,0,149.557,395.548Z" transform="translate(13.93 -213.31)" fill="#fff"/>
      <path id="Trazado_873105" data-name="Trazado 873105" d="M417.219,416a1.582,1.582,0,1,0-.105-2.456A1.573,1.573,0,0,0,417.219,416Z" transform="translate(-222.435 -227.035)" fill="#ffd947"/>
      <path id="Trazado_873106" data-name="Trazado 873106" d="M303.26,44.546a1.582,1.582,0,1,0-.106-2.456A1.573,1.573,0,0,0,303.26,44.546Z" transform="translate(-52.901 9.151)" fill="#7d6eb2"/>
      <path id="Trazado_873109" data-name="Trazado 873109" d="M339.452,404.413a3.448,3.448,0,1,0-1.687-4.918A3.468,3.468,0,0,0,339.452,404.413Z" transform="translate(-82.207 -231.255)" fill="#7d6eb2"/>
      <path id="Trazado_873110" data-name="Trazado 873110" d="M390.262,440.006a3.448,3.448,0,1,0-1.687-4.918A3.468,3.468,0,0,0,390.262,440.006Z" transform="translate(-181.42 -237.38)" fill="#ffd947"/>
      <path id="Trazado_873111" data-name="Trazado 873111" d="M176.115,56.142a3.448,3.448,0,1,0-1.687-4.918A3.468,3.468,0,0,0,176.115,56.142Z" transform="translate(-32.569 42.202)" fill="#ffd947"/>
      <path id="Trazado_873113" data-name="Trazado 873113" d="M321.56,66.974a3.448,3.448,0,1,0-1.687-4.918A3.468,3.468,0,0,0,321.56,66.974Z" transform="translate(-76.565 -0.895)" fill="#ffd947"/>
      <circle id="Elipse_11485" data-name="Elipse 11485" cx="1.689" cy="1.689" r="1.689" transform="translate(149.167 187.566)" fill="none" stroke="#26aab7" stroke-linecap="round" stroke-linejoin="round" stroke-width="1.5"/>
    </g>
    <g id="Grupo_1099812" data-name="Grupo 1099812" transform="translate(1214 1966.144)">
      <g id="Grupo_1099811" data-name="Grupo 1099811" clip-path="url(#clip-path)">
        <g id="Grupo_1099810" data-name="Grupo 1099810" transform="translate(0 0)">
          <g id="Grupo_1099809" data-name="Grupo 1099809" clip-path="url(#clip-path-2)">
            <g id="Grupo_1099805" data-name="Grupo 1099805" transform="translate(0 5.717)" opacity="0.18" style="mix-blend-mode: multiply;isolation: isolate">
              <g id="Grupo_1099804" data-name="Grupo 1099804">
                <g id="Grupo_1099803" data-name="Grupo 1099803" clip-path="url(#clip-path-3)">
                  <path id="Trazado_873971" data-name="Trazado 873971" d="M117.208,192.594s0-.011,0-.015,0-.016,0-.022c0-.045,0-.094,0-.138s-.005-.1-.013-.143c0-.019,0-.038,0-.061s0-.025-.005-.038a.911.911,0,0,0-.014-.091c0-.031-.008-.063-.014-.094-.012-.068-.024-.134-.038-.2l-.037-.167h0l-.124-.554h0L105.216,138.5c-.014-.065-.033-.132-.05-.2a1.109,1.109,0,0,0-.041-.14,1.589,1.589,0,0,0-.056-.162c-.016-.045-.033-.09-.053-.134s-.035-.086-.055-.13-.05-.109-.079-.164a3.517,3.517,0,0,0-.186-.325s0-.006-.005-.009c-.044-.065-.087-.13-.133-.191a3.657,3.657,0,0,0-.563-.62q-.073-.066-.155-.131a3.4,3.4,0,0,0-.37-.261c-.041-.026-.083-.053-.127-.075s-.112-.066-.173-.094a.174.174,0,0,0-.029-.013l-.231-.107s0,0,0,0l-5.923-2.714-8.395-37.6a6.993,6.993,0,0,0-8.349-5.3L5.471,106.829a6.993,6.993,0,0,0-5.3,8.349l8.394,37.6-4.209,4.979-.164.2a.192.192,0,0,0-.021.024,3.891,3.891,0,0,0-.732,3.252l11.831,52.99.03.135h0l.037.167c.022.1.047.194.077.287.006.022.014.044.021.065l.015.049.009.028h0c0,.009.008.018.011.027.019.056.041.114.062.17.005.008.008.021.013.029s.02.043.029.063l.031.067.016.036.015.031c.029.059.059.118.09.177l.021.035.043.072c.015.026.03.054.046.079.039.06.079.122.117.178l0,.006c.028.039.059.076.088.114.013.017.024.035.036.052.037.05.08.1.121.148l.02.021.029.03c.026.029.051.057.079.085.011.011.024.02.036.032.049.05.1.1.149.145.011.01.02.021.031.031.051.047.1.09.159.132l.079.063c.039.03.078.06.116.086.016.011.033.02.049.031q.112.076.228.144l.074.043c.032.017.062.036.094.053a3.923,3.923,0,0,0,.389.178l.068.024c.033.012.066.025.1.036l.158.052c.035.01.072.016.108.025l.121.029c.04.009.078.019.118.026.064.012.128.021.192.03l.033.005c.024,0,.048.01.073.013l.1.009.049,0h.009c.083.008.164.009.245.01a.474.474,0,0,0,.065,0H19.2l.046,0c.05,0,.1,0,.15-.006h.011l.038,0,.043,0c.03,0,.06-.006.09-.009l.04,0,.031,0,.144-.022c.069-.012.137-.024.205-.039L113.943,196.5l.21-.047c.068-.015.135-.033.2-.052l.14-.041c.016,0,.027-.009.039-.012l.066-.024c.012,0,.024-.009.036-.011l.075-.027s.005,0,.012-.006l.091-.04a.687.687,0,0,0,.074-.03l.014-.006h0l.1-.047c.073-.036.146-.072.218-.113l.007,0,.051-.03.065-.038.037-.021c.012-.006.02-.014.031-.02s.032-.026.049-.038a3.893,3.893,0,0,0,.427-.326l.011-.008c.022-.018.043-.039.064-.06a.511.511,0,0,0,.059-.055c.024-.022.048-.047.071-.071.01-.009.02-.021.03-.033l.032-.034c.037-.039.073-.079.108-.117a.082.082,0,0,1,.015-.019c.023-.027.044-.056.066-.084l.061-.077.022-.028c0-.008.013-.016.018-.023.02-.027.04-.054.056-.081a.461.461,0,0,0,.047-.066l.035-.055.038-.061c.025-.04.05-.079.073-.12s.046-.083.068-.127c.013-.024.025-.049.038-.074.033-.066.064-.133.1-.2.01-.029.022-.058.034-.089s.014-.037.021-.056c.017-.046.035-.092.05-.138.013-.029.019-.059.029-.088s.019-.059.028-.091.018-.066.025-.093c.025-.09.043-.184.061-.276a.132.132,0,0,1,0-.027c0-.03.009-.06.015-.094s.01-.07.015-.107a.013.013,0,0,0,0-.01c0-.03.006-.06.008-.091s.006-.056.008-.084,0-.027,0-.041a.061.061,0,0,0,0-.023c0-.039,0-.082,0-.124a.49.49,0,0,0,0-.068.131.131,0,0,0,0-.039c0-.014,0-.029,0-.043" transform="translate(0 -89.965)" fill="#306c9e"/>
                </g>
              </g>
            </g>
            <path id="Trazado_873972" data-name="Trazado 873972" d="M206.257,718.747l11.9,53.293c.014.065.026.13.038.2.007.031.011.062.014.094s.01.059.014.091c0,.012,0,.025.005.038s0,.042,0,.061c.007.047.008.1.012.143s0,.093,0,.138a.5.5,0,0,1,0,.068.142.142,0,0,1,0,.051.5.5,0,0,1,0,.068c0,.042,0,.085,0,.124a.057.057,0,0,1,0,.023c-.006.073-.01.145-.02.215a.012.012,0,0,1,0,.01c0,.037-.009.073-.015.107s-.012.064-.015.094a.13.13,0,0,0,0,.027c-.018.092-.036.186-.062.276-.007.027-.015.062-.025.093s-.019.059-.028.091-.016.059-.029.087c-.019.059-.041.119-.064.176-.014.039-.029.071-.041.106-.037.08-.072.158-.113.236q-.044.088-.089.166c-.03.055-.063.108-.1.161-.014.026-.031.049-.048.076a.475.475,0,0,1-.047.066c-.017.026-.037.054-.056.081,0,.007-.013.016-.017.023-.047.065-.1.129-.149.189a.085.085,0,0,0-.015.02c-.042.045-.083.093-.128.139-.016.017-.028.032-.042.045s-.047.049-.072.071a.508.508,0,0,1-.059.055.877.877,0,0,1-.064.06,3.535,3.535,0,0,1-.488.371c-.012.006-.02.014-.031.02l-.037.021c-.04.025-.08.05-.123.073-.072.042-.145.078-.218.113l-.114.055a.668.668,0,0,1-.074.029l-.092.04c-.006,0-.009,0-.012.006l-.075.027c-.012,0-.024.009-.036.011l-.066.024c-.012,0-.024.009-.039.012l-.14.041c-.067.018-.134.037-.2.052l-94.153,21.022c-.068.015-.136.027-.205.039l-.144.022a1.4,1.4,0,0,1-.162.017.842.842,0,0,1-.092.008c-.076.007-.154.008-.228.009a.468.468,0,0,1-.065,0c-.081,0-.163,0-.245-.01-.05-.005-.1-.008-.142-.014a4.242,4.242,0,0,1-.658-.129l-.158-.052c-.059-.019-.119-.041-.176-.064a3.943,3.943,0,0,1-.977-.557q-.1-.079-.2-.169a3.737,3.737,0,0,1-.593-.665c-.038-.056-.078-.119-.118-.178s-.073-.123-.11-.186-.067-.128-.1-.192-.056-.12-.083-.182c-.005-.008-.008-.021-.013-.029-.023-.06-.047-.122-.067-.183a.024.024,0,0,1-.007-.015c-.017-.048-.031-.094-.045-.142-.031-.094-.055-.189-.077-.287l-11.9-53.293a3.892,3.892,0,0,1,.732-3.252.187.187,0,0,1,.021-.024l.164-.2a3.876,3.876,0,0,1,2.045-1.192l94.153-21.022a2.709,2.709,0,0,1,.275-.048.135.135,0,0,1,.05-.008c.088-.013.18-.024.266-.03l.061,0c.077,0,.154-.005.23,0a.358.358,0,0,1,.058,0c.094,0,.186.007.279.015s.176.019.26.033a3.166,3.166,0,0,1,.358.079,1.9,1.9,0,0,1,.194.054,2.556,2.556,0,0,1,.325.122s0,0,0,0l.231.107a.177.177,0,0,1,.029.013c.061.028.117.061.173.094s.086.049.127.075a3.416,3.416,0,0,1,.37.261q.082.064.155.13a3.663,3.663,0,0,1,.563.62c.046.061.09.126.133.191,0,0,0,.005.005.009a3.615,3.615,0,0,1,.186.325c.029.055.053.108.079.164s.039.085.055.13.036.089.053.134a1.554,1.554,0,0,1,.056.162,1.125,1.125,0,0,1,.041.14c.018.064.036.131.05.2" transform="translate(-97.751 -670.212)" fill="#f9c067"/>
            <path id="Trazado_873973" data-name="Trazado 873973" d="M206.212,345.98,104.891,368.6a3.906,3.906,0,0,1,.795-1.9.186.186,0,0,1,.021-.024l.164-.2,38.986-46.114a3.953,3.953,0,0,1,4.671-1.043l54.895,25.153s0,0,0,0l.231.107a.177.177,0,0,1,.029.013c.061.029.117.061.173.094s.085.049.127.075a3.423,3.423,0,0,1,.369.261q.082.064.155.131a3.664,3.664,0,0,1,.563.62c.046.061.09.126.133.191,0,0,0,.005.005.009" transform="translate(-98.226 -298.697)" fill="#dd9b31"/>
            <path id="Trazado_873974" data-name="Trazado 873974" d="M158.271,85.7l-88.42,19.742L51.939,25.209a6.993,6.993,0,0,1,5.3-8.349L132.01.166a6.993,6.993,0,0,1,8.349,5.3Z" transform="translate(-48.48 0.004)" fill="#f6f6f6"/>
            <path id="Trazado_873975" data-name="Trazado 873975" d="M350.663,423.608l-64.97,14.506a1.7,1.7,0,0,1-2.024-1.285l-.157-.7A1.7,1.7,0,0,1,284.8,434.1l64.97-14.506a1.7,1.7,0,0,1,2.024,1.285l.157.7a1.7,1.7,0,0,1-1.285,2.024" transform="translate(-265.457 -392.893)" fill="#e4ecf9"/>
            <path id="Trazado_873976" data-name="Trazado 873976" d="M380.789,558.538l-64.97,14.506a1.7,1.7,0,0,1-2.024-1.285l-.157-.7a1.7,1.7,0,0,1,1.285-2.024l64.97-14.506a1.7,1.7,0,0,1,2.024,1.285l.157.7a1.7,1.7,0,0,1-1.285,2.024" transform="translate(-293.668 -519.249)" fill="#e4ecf9"/>
            <path id="Trazado_873977" data-name="Trazado 873977" d="M410.915,693.468l-64.97,14.506a1.7,1.7,0,0,1-2.025-1.285l-.157-.7a1.7,1.7,0,0,1,1.285-2.024l64.97-14.506a1.7,1.7,0,0,1,2.024,1.285l.157.7a1.7,1.7,0,0,1-1.285,2.024" transform="translate(-321.88 -645.605)" fill="#e4ecf9"/>
            <path id="Trazado_873978" data-name="Trazado 873978" d="M441.041,828.4,376.07,842.9a1.7,1.7,0,0,1-2.024-1.285l-.157-.7a1.7,1.7,0,0,1,1.285-2.024l64.97-14.506a1.7,1.7,0,0,1,2.024,1.285l.157.7a1.7,1.7,0,0,1-1.285,2.024" transform="translate(-350.092 -771.96)" fill="#e4ecf9"/>
            <path id="Trazado_873979" data-name="Trazado 873979" d="M471.167,963.327,406.2,977.833a1.7,1.7,0,0,1-2.025-1.285l-.157-.7a1.7,1.7,0,0,1,1.285-2.024l64.97-14.506a1.7,1.7,0,0,1,2.024,1.285l.157.7a1.7,1.7,0,0,1-1.285,2.024" transform="translate(-378.303 -898.316)" fill="#e4ecf9"/>
            <path id="Trazado_873980" data-name="Trazado 873980" d="M259.7,309l-28.335,6.326a1.7,1.7,0,0,1-2.024-1.285l-.157-.7a1.7,1.7,0,0,1,1.285-2.024l28.335-6.326a1.7,1.7,0,0,1,2.024,1.285l.157.7A1.7,1.7,0,0,1,259.7,309" transform="translate(-214.584 -285.572)" fill="#52d1bd"/>
            <path id="Trazado_873981" data-name="Trazado 873981" d="M161.637,1068.253v0a2.555,2.555,0,0,1-.428.549l-39.959,38.941-.21.047a3.817,3.817,0,0,1-1.142.083l-.155-.014a3.871,3.871,0,0,1-1.8-.689c-.05-.034-.1-.072-.152-.112a3.626,3.626,0,0,1-.418-.377c-.046-.045-.085-.091-.128-.137s-.083-.1-.121-.148a3.887,3.887,0,0,1-.745-1.568l-11.9-53.292a3.893,3.893,0,0,1,.732-3.252.171.171,0,0,1,.021-.024l.164-.2a3.877,3.877,0,0,1,2.045-1.192,3.145,3.145,0,0,1,1.714.1l3.786,1.31,42.678,14.77,1.605.556,3.063,1.06a2.56,2.56,0,0,1,.621.315v0a2.5,2.5,0,0,1,.729,3.266" transform="translate(-97.75 -980.28)" fill="#f4b545"/>
            <path id="Trazado_873982" data-name="Trazado 873982" d="M1034.455,718.747l11.9,53.293c.015.065.026.13.038.2a.929.929,0,0,1,.015.094.909.909,0,0,1,.014.091c0,.012,0,.025.005.038s0,.042,0,.061c.007.047.008.1.012.143s0,.093,0,.138c0,.006,0,.016,0,.022a.339.339,0,0,1,0,.046.142.142,0,0,1,0,.051.491.491,0,0,1,0,.068c0,.042,0,.081,0,.124a.061.061,0,0,1,0,.023c0,.072-.01.145-.02.215a.013.013,0,0,1,0,.01c0,.037-.007.07-.015.107s-.009.06-.015.094a.19.19,0,0,0,0,.027c-.018.092-.036.186-.062.276-.007.027-.015.062-.025.093s-.019.059-.028.091-.016.059-.029.087c-.019.059-.042.119-.064.176-.014.039-.029.071-.041.106-.036.083-.075.159-.113.236q-.044.088-.089.166c-.03.055-.063.108-.1.161-.014.026-.031.049-.048.076a.489.489,0,0,1-.047.066c-.017.026-.037.054-.057.081,0,.007-.013.016-.017.023-.047.065-.1.129-.149.189a.086.086,0,0,0-.015.02c-.042.045-.083.093-.128.139-.016.017-.028.032-.042.045s-.047.049-.072.071a.5.5,0,0,1-.059.055.86.86,0,0,1-.065.06,3.535,3.535,0,0,1-.487.371c-.011.006-.023.015-.031.02l-.037.021c-.04.025-.08.05-.123.073-.072.042-.145.078-.218.113l-.114.055a.682.682,0,0,1-.074.029l-.092.04-.009,0c-.027.009-.054.022-.078.03s-.024.009-.036.011l-.066.024c-.012,0-.024.009-.039.012l-.14.041c-.067.018-.134.037-.2.052l-.21.047L990.454,758.5a2.461,2.461,0,0,1-.618-.316v0a2.492,2.492,0,0,1-.729-3.266v0a2.465,2.465,0,0,1,.425-.549l2.318-2.261,1.216-1.186,32.346-31.521,2.934-2.859a2.829,2.829,0,0,1,1.358-.735l.088-.02a2.708,2.708,0,0,1,.275-.048.136.136,0,0,1,.05-.008c.088-.013.18-.024.266-.03l.061,0c.077,0,.154-.005.229,0a.358.358,0,0,1,.058,0c.094,0,.186.007.279.015s.176.019.26.033a3.168,3.168,0,0,1,.358.079,1.9,1.9,0,0,1,.194.054,2.549,2.549,0,0,1,.325.122s0,0,0,0l.231.107a.19.19,0,0,1,.029.013c.061.028.117.061.173.094s.086.049.127.075a3.409,3.409,0,0,1,.37.261q.082.064.156.13a3.669,3.669,0,0,1,.563.62c.046.061.09.126.133.191,0,0,0,.005.005.009a3.609,3.609,0,0,1,.186.325c.028.055.053.108.079.164s.039.085.055.13.036.089.053.134a1.6,1.6,0,0,1,.056.162,1.16,1.16,0,0,1,.041.14c.018.064.036.131.05.2" transform="translate(-925.948 -670.212)" fill="#f4b545"/>
            <g id="Grupo_1099808" data-name="Grupo 1099808" transform="translate(18.465 79.756)" opacity="0.25" style="mix-blend-mode: multiply;isolation: isolate">
              <g id="Grupo_1099807" data-name="Grupo 1099807">
                <g id="Grupo_1099806" data-name="Grupo 1099806" clip-path="url(#clip-path-4)">
                  <path id="Trazado_873983" data-name="Trazado 873983" d="M392.366,1276.448l.124.554a4,4,0,0,1-2.924,4.831l-94.153,21.021a4,4,0,0,1-4.7-3.129l-.124-.554L331.9,1256.5a4.56,4.56,0,0,1,4.921-1.1Z" transform="translate(-290.588 -1255.098)" fill="#8e5f13"/>
                </g>
              </g>
            </g>
            <path id="Trazado_873984" data-name="Trazado 873984" d="M393.035,1299.549l.119.531a3.907,3.907,0,0,1-2.962,4.664l-94.153,21.021a3.907,3.907,0,0,1-4.664-2.962l-.118-.531,41.612-41.336a4.728,4.728,0,0,1,4.921-1.1Z" transform="translate(-272.749 -1198.253)" fill="#f9c067"/>
          </g>
        </g>
      </g>
    </g>
  </g>
</svg>
