<svg xmlns="http://www.w3.org/2000/svg" xmlns:xlink="http://www.w3.org/1999/xlink" width="78.501" height="70.127" viewBox="0 0 78.501 70.127">
  <defs>
    <clipPath id="clip-path">
      <rect id="Rectángulo_401461" data-name="Rectángulo 401461" width="55" height="55" transform="translate(265 858)" fill="#fff" stroke="#707070" stroke-width="1"/>
    </clipPath>
  </defs>
  <g id="Grupo_1099753" data-name="Grupo 1099753" transform="translate(-255 -858)">
    <path id="_12068" data-name="12068" d="M72.033,71.913c-8.038-1.11-16.53-.839-23.844,2.675C38.045,79.46,31.382,90.507,31.127,101.757s5.606,22.305,14.66,28.988,21,9.051,32.068,7.045c11.165-2.023,21.645-8.583,27.469-18.322,3.735-6.245,5.48-13.956,3.417-20.934a28.6,28.6,0,0,0-6.787-11.156A50.145,50.145,0,0,0,72.033,71.913Z" transform="translate(223.881 789.646)" fill="#26aab7"/>
    <g id="Enmascarar_grupo_1098712" data-name="Enmascarar grupo 1098712" clip-path="url(#clip-path)">
      <g id="diseno" transform="translate(264.144 857.145)">
        <path id="Trazado_873854" data-name="Trazado 873854" d="M54.97,4.124V52.588a2.28,2.28,0,0,1-2.28,2.28H4.023a2.28,2.28,0,0,1-2.28-2.28V4.124a2.28,2.28,0,0,1,2.28-2.28H52.689A2.28,2.28,0,0,1,54.97,4.124Z" fill="#4bdbc3"/>
        <path id="Trazado_873855" data-name="Trazado 873855" d="M52.689,54.87H4.023a2.281,2.281,0,0,1-2.28-2.28V4.123a2.281,2.281,0,0,1,2.28-2.28H15.738l5.389,6.695a2.375,2.375,0,0,0,1.85.886H54.97V52.589a2.281,2.281,0,0,1-2.28,2.281Z" fill="#ffe2e2"/>
        <path id="Trazado_873856" data-name="Trazado 873856" d="M7.444,54.869H4.023a2.28,2.28,0,0,1-2.28-2.28V4.124a2.28,2.28,0,0,1,2.28-2.28H7.444a2.28,2.28,0,0,0-2.28,2.28V52.588A2.28,2.28,0,0,0,7.444,54.869Z" fill="#ffefee"/>
        <path id="Trazado_873857" data-name="Trazado 873857" d="M51.549,9.424V52.588a2.28,2.28,0,0,1-2.28,2.28h3.421a2.28,2.28,0,0,0,2.28-2.28V9.424Z" fill="#ffcfcf"/>
        <path id="Trazado_873858" data-name="Trazado 873858" d="M54.97,4.124v5.3H51.549V1.843h1.14A2.28,2.28,0,0,1,54.97,4.124Z" fill="#44c7b6"/>
        <path id="Trazado_873859" data-name="Trazado 873859" d="M49.619,36.051v13H28.757v-13Z" fill="#ffd30f"/>
        <path id="Trazado_873860" data-name="Trazado 873860" d="M7.093,15.189H22.384v15.6H7.093Z" fill="#5fcdff"/>
        <circle id="Elipse_11602" data-name="Elipse 11602" cx="7.832" cy="7.832" r="7.832" transform="translate(7.443 34.721)" fill="#5fcdff"/>
        <path id="Trazado_873861" data-name="Trazado 873861" d="M19.28,42.553l-5.693-3.287v6.573l5.693-3.287-5.693-3.287v6.573Z" fill="#ff4975"/>
        <g id="Grupo_1099770" data-name="Grupo 1099770">
          <path id="Trazado_873862" data-name="Trazado 873862" d="M52.689.956H4.023A3.17,3.17,0,0,0,.856,4.122V52.589a3.17,3.17,0,0,0,3.167,3.167H52.689a3.17,3.17,0,0,0,3.167-3.167V4.122A3.17,3.17,0,0,0,52.689.956Zm1.394,3.167V8.537H22.978a1.482,1.482,0,0,1-1.16-.555L17.589,2.728h35.1A1.4,1.4,0,0,1,54.084,4.123Zm0,48.467a1.4,1.4,0,0,1-1.394,1.394H4.023a1.4,1.4,0,0,1-1.394-1.394V4.123A1.4,1.4,0,0,1,4.023,2.728H15.314l5.123,6.364a3.246,3.246,0,0,0,2.541,1.216H54.084v42.28Z"/>
          <path id="Trazado_873863" data-name="Trazado 873863" d="M6.977,6.835h6.458a.886.886,0,0,0,0-1.772H6.977a.886.886,0,0,0,0,1.772Z"/>
          <circle id="Elipse_11603" data-name="Elipse 11603" cx="1.486" cy="1.486" r="1.486" transform="translate(43.537 4.213)"/>
          <circle id="Elipse_11604" data-name="Elipse 11604" cx="1.486" cy="1.486" r="1.486" transform="matrix(0.383, -0.924, 0.924, 0.383, 48.537, 6.498)"/>
          <path id="Trazado_873864" data-name="Trazado 873864" d="M7.093,14.3a.886.886,0,0,0-.886.886v15.6a.886.886,0,0,0,.886.886h15.29a.886.886,0,0,0,.886-.886v-15.6a.886.886,0,0,0-.886-.886Zm14.4,15.6H7.979V16.075H21.5Zm7.26,20.034H49.619a.886.886,0,0,0,.886-.886v-13a.886.886,0,0,0-.886-.886H28.757a.886.886,0,0,0-.886.886v13a.886.886,0,0,0,.886.886Zm.886-13H48.733V48.169H29.644Zm-.886-20.861H49.268a.886.886,0,0,0,0-1.772H28.757a.886.886,0,0,0,0,1.772Zm0,5.215H49.268a.886.886,0,0,0,0-1.772H28.757a.886.886,0,0,0,0,1.772Zm0,5.215H49.268a.886.886,0,0,0,0-1.772H28.757a.886.886,0,0,0,0,1.772Zm0,5.216h7.754a.886.886,0,0,0,0-1.772H28.757a.886.886,0,0,0,0,1.772Zm11.077-1.772a.886.886,0,0,0,0,1.772h.947a.886.886,0,0,0,0-1.772ZM15.275,33.835a8.718,8.718,0,1,0,8.718,8.718,8.728,8.728,0,0,0-8.718-8.718Zm0,15.664a6.946,6.946,0,1,1,6.946-6.946A6.954,6.954,0,0,1,15.275,49.5Z"/>
          <path id="Trazado_873865" data-name="Trazado 873865" d="M19.723,41.785,14.03,38.5a.887.887,0,0,0-1.329.767v6.573a.887.887,0,0,0,1.329.767l5.693-3.287a.887.887,0,0,0,0-1.535ZM14.473,44.3V40.8l3.034,1.752Z"/>
        </g>
      </g>
    </g>
  </g>
</svg>
