<svg xmlns="http://www.w3.org/2000/svg" xmlns:xlink="http://www.w3.org/1999/xlink" width="78.501" height="70.127" viewBox="0 0 78.501 70.127">
  <defs>
    <clipPath id="clip-path">
      <rect id="Rect치ngulo_401461" data-name="Rect치ngulo 401461" width="55" height="55" transform="translate(265 858)" fill="#fff" stroke="#707070" stroke-width="1"/>
    </clipPath>
  </defs>
  <g id="Grupo_1099755" data-name="Grupo 1099755" transform="translate(-255 -858)">
    <path id="_12068" data-name="12068" d="M72.033,71.913c-8.038-1.11-16.53-.839-23.844,2.675C38.045,79.46,31.382,90.507,31.127,101.757s5.606,22.305,14.66,28.988,21,9.051,32.068,7.045c11.165-2.023,21.645-8.583,27.469-18.322,3.735-6.245,5.48-13.956,3.417-20.934a28.6,28.6,0,0,0-6.787-11.156A50.145,50.145,0,0,0,72.033,71.913Z" transform="translate(223.881 789.646)" fill="#26aab7"/>
    <g id="Enmascarar_grupo_1098717" data-name="Enmascarar grupo 1098717" clip-path="url(#clip-path)">
      <g id="correo-electronico" transform="translate(265 858)">
        <path id="Trazado_873985" data-name="Trazado 873985" d="M8.164,17.51,1.074,23.2V49.521a4.4,4.4,0,0,0,4.4,4.4H49.521a4.4,4.4,0,0,0,4.4-4.4V23.2l-7.09-5.521" fill="#72d8ff"/>
        <rect id="Rect치ngulo_401472" data-name="Rect치ngulo 401472" width="37.813" height="40.934" transform="translate(8.594 1.074)" fill="#edf2fa"/>
        <path id="Trazado_873986" data-name="Trazado 873986" d="M34.7,42.5H19.715L1.074,23.2V49.521a4.4,4.4,0,0,0,4.4,4.4H49.521a4.4,4.4,0,0,0,4.4-4.4V23.2Z" fill="#feda9b"/>
        <path id="Trazado_873987" data-name="Trazado 873987" d="M4.732,53.174,20.307,39.025a10.7,10.7,0,0,1,14.386,0L50.268,53.174Z" fill="#ffb954"/>
        <g id="Grupo_1099813" data-name="Grupo 1099813">
          <path id="Trazado_873988" data-name="Trazado 873988" d="M38.426,13.975a3.492,3.492,0,0,0-4.938-4.938Z" fill="#ff5d5d"/>
          <path id="Trazado_873989" data-name="Trazado 873989" d="M27.042,27.1,23,31.148a4.723,4.723,0,0,1-6.679,0h0a4.723,4.723,0,0,1,0-6.679l4.044-4.044Z" fill="#ff5d5d"/>
        </g>
        <path id="Trazado_873990" data-name="Trazado 873990" d="M27.043,27.106l4.733,4.733L28.9,34.713l-4.734-4.734Z" fill="#6a80ff"/>
        <path id="Trazado_873991" data-name="Trazado 873991" d="M27.043,27.106l-6.68-6.681L27.683,3.232,44.23,19.779Z" fill="#4dbaf6"/>
        <path id="Trazado_873992" data-name="Trazado 873992" d="M39.819,21.659l4.411-1.88L27.683,3.232,25.8,7.645Z" fill="#fff"/>
        <path id="Trazado_873993" data-name="Trazado 873993" d="M20.51,6.33a1.074,1.074,0,1,0,.759-.315A1.082,1.082,0,0,0,20.51,6.33Z"/>
        <path id="Trazado_873994" data-name="Trazado 873994" d="M12.985,8.164H17.3a1.074,1.074,0,0,0,0-2.148H12.985a1.074,1.074,0,0,0,0,2.148Z"/>
        <path id="Trazado_873995" data-name="Trazado 873995" d="M12.985,14.18h5.177a1.074,1.074,0,0,0,0-2.148H12.985a1.074,1.074,0,0,0,0,2.148Z"/>
        <path id="Trazado_873996" data-name="Trazado 873996" d="M54.585,22.356h0L47.5,16.834l-.015-.011v-1.14a1.074,1.074,0,0,0-2.148,0V30.257c0,.007,0,.013,0,.019l-8.889,8.889-1.029-.935a11.745,11.745,0,0,0-5.669-2.843L32.535,32.6a1.074,1.074,0,0,0,0-1.519l-3.608-3.608,15.725-6.7a1.074,1.074,0,0,0,.338-1.748l-5.135-5.135a4.567,4.567,0,0,0-6.277-6.277L28.443,2.472a1.074,1.074,0,0,0-1.748.339l-7.239,17-3.9,3.9a5.8,5.8,0,1,0,8.2,8.2l.41-.41,3.68,3.68c-.115,0-.231-.006-.347-.006a11.748,11.748,0,0,0-7.915,3.059l-1.029.935L9.667,30.276c0-.007,0-.013,0-.02V2.148H21.7A1.074,1.074,0,0,0,21.7,0H8.594A1.074,1.074,0,0,0,7.52,1.074V16.652l-.028.02L.4,22.366h0A1.072,1.072,0,0,0,0,23.2V49.521A5.485,5.485,0,0,0,5.479,55H49.521A5.485,5.485,0,0,0,55,49.521V23.2A1.071,1.071,0,0,0,54.585,22.356ZM26.17,9.529,37.936,21.295,27.29,25.833l-5.654-5.654Zm9.787-.441a2.414,2.414,0,0,1,2.29,3.188L35.186,9.215A2.418,2.418,0,0,1,35.957,9.088ZM28.049,5.116l4.678,4.678v0h0l4.937,4.937h0l4.68,4.68-2.281.972L27.077,7.4Zm-8.39,26.341a3.648,3.648,0,0,1-2.58-6.228l3.284-3.284,5.159,5.16-3.284,3.284A3.624,3.624,0,0,1,19.659,31.457Zm7.383-2.833,3.215,3.215L28.9,33.194l-3.215-3.215ZM47.48,19.545,52.306,23.3,47.48,28.129ZM21.029,39.82a9.586,9.586,0,0,1,12.941,0L48.315,52.852H6.685l3.547-3.223h7.885a1.074,1.074,0,0,0,0-2.148H12.6ZM7.52,19.405v8.724L2.681,23.291ZM2.148,49.521V25.8L16.964,40.612,4.01,52.379a1.1,1.1,0,0,0-.085.087A3.333,3.333,0,0,1,2.148,49.521Zm48.926,2.944a1.08,1.08,0,0,0-.085-.087L38.037,40.612,52.852,25.8V49.521A3.333,3.333,0,0,1,51.075,52.466Z"/>
        <path id="Trazado_873997" data-name="Trazado 873997" d="M42.109,6.53a1.071,1.071,0,0,0,.76-.315l4.339-4.339A1.074,1.074,0,1,0,45.689.357L41.35,4.7a1.074,1.074,0,0,0,.76,1.834Z"/>
        <path id="Trazado_873998" data-name="Trazado 873998" d="M38.072,4.306a1.074,1.074,0,0,0,1.074-1.074V1.074a1.074,1.074,0,0,0-2.148,0V3.232A1.074,1.074,0,0,0,38.072,4.306Z"/>
        <path id="Trazado_873999" data-name="Trazado 873999" d="M46.48,8.327H44.25a1.074,1.074,0,1,0,0,2.148h2.23a1.074,1.074,0,0,0,0-2.148Z"/>
        <path id="Trazado_874000" data-name="Trazado 874000" d="M22.522,49.629a1.073,1.073,0,1,0-.761-.315A1.084,1.084,0,0,0,22.522,49.629Z"/>
      </g>
    </g>
  </g>
</svg>
