<svg xmlns="http://www.w3.org/2000/svg" xmlns:xlink="http://www.w3.org/1999/xlink" width="78.501" height="74.687" viewBox="0 0 78.501 74.687">
  <defs>
    <clipPath id="clip-path">
      <rect id="Rectángulo_401465" data-name="Rectángulo 401465" width="63" height="64" transform="translate(248.013 6626.875)" fill="#fff" stroke="#707070" stroke-width="1"/>
    </clipPath>
  </defs>
  <g id="Grupo_1099515" data-name="Grupo 1099515" transform="translate(-240.263 -6626.875)">
    <path id="_12068" data-name="12068" d="M72.033,71.913c-8.038-1.11-16.53-.839-23.844,2.675C38.045,79.46,31.382,90.507,31.127,101.757s5.606,22.305,14.66,28.988,21,9.051,32.068,7.045c11.165-2.023,21.645-8.583,27.469-18.322,3.735-6.245,5.48-13.956,3.417-20.934a28.6,28.6,0,0,0-6.787-11.156A50.145,50.145,0,0,0,72.033,71.913Z" transform="translate(209.144 6563.081)" fill="#26aab7"/>
    <g id="Enmascarar_grupo_1098714" data-name="Enmascarar grupo 1098714" clip-path="url(#clip-path)">
      <g id="nicho-de-mercado_1_" data-name="nicho-de-mercado (1)" transform="translate(247.515 6626.875)">
        <g id="Grupo_1099777" data-name="Grupo 1099777">
          <g id="Grupo_1099775" data-name="Grupo 1099775">
            <g id="Grupo_1099774" data-name="Grupo 1099774">
              <path id="Trazado_873886" data-name="Trazado 873886" d="M44.862,40.349H36.1l-2.178.632a19.468,19.468,0,0,0-14.046,18.7v3.384H59.139a1.947,1.947,0,0,0,1.947-1.947V59.679a19.468,19.468,0,0,0-14.046-18.7Z" fill="#80d261"/>
              <path id="Trazado_873887" data-name="Trazado 873887" d="M47.039,40.981l-2.178-.632H40.644l2.178.632a19.468,19.468,0,0,1,14.046,18.7v1.437a1.947,1.947,0,0,1-1.947,1.947h4.218a1.947,1.947,0,0,0,1.947-1.947V59.679A19.468,19.468,0,0,0,47.039,40.981Z" fill="#68ca44"/>
              <path id="Trazado_873888" data-name="Trazado 873888" d="M40.481,44.718h0a4.38,4.38,0,0,1-4.38-4.38V35.98h8.761v4.358A4.38,4.38,0,0,1,40.481,44.718Z" fill="#f6a96c"/>
              <path id="Trazado_873889" data-name="Trazado 873889" d="M30.747,15.236V27.869a9.734,9.734,0,0,0,19.468,0V15.236Z" fill="#fed2a4"/>
              <path id="Trazado_873890" data-name="Trazado 873890" d="M46,15.236V27.869a9.736,9.736,0,0,1-7.625,9.5,9.732,9.732,0,0,0,11.843-9.5V15.236Z" fill="#ffbd86"/>
              <path id="Trazado_873891" data-name="Trazado 873891" d="M27.827,13.006v9.319l2.92-2.568h5.9a14.034,14.034,0,0,0,7.14-1.952L46,16.5l4.218,3.26,2.92,2.257V11.8a8.344,8.344,0,0,0-6.495-8.137L46,3.518h0A8.505,8.505,0,0,0,39.9.938h0A12.068,12.068,0,0,0,27.827,13.006Z" fill="#7a6d79"/>
              <path id="Trazado_873892" data-name="Trazado 873892" d="M46.726,3.685A8.333,8.333,0,0,1,48.917,9.32v9.434l1.3,1,2.92,2.257V11.8A8.343,8.343,0,0,0,46.726,3.685Z" fill="#685e68"/>
              <path id="Trazado_873893" data-name="Trazado 873893" d="M29.449,27.544h1.3V19.757h-1.3a3.894,3.894,0,0,0-3.894,3.894h0A3.894,3.894,0,0,0,29.449,27.544Z" fill="#f6a96c"/>
              <path id="Trazado_873894" data-name="Trazado 873894" d="M51.513,27.544h-1.3V19.757h1.3a3.894,3.894,0,0,1,3.894,3.894h0A3.894,3.894,0,0,1,51.513,27.544Z" fill="#f6a96c"/>
            </g>
          </g>
          <g id="Grupo_1099776" data-name="Grupo 1099776">
            <circle id="Elipse_11605" data-name="Elipse 11605" cx="14.521" cy="14.521" r="14.521" transform="translate(4.456 34.02)" fill="#f07281"/>
            <path id="Trazado_873895" data-name="Trazado 873895" d="M27.462,36.764A14.513,14.513,0,0,1,7.742,57.73a14.516,14.516,0,1,0,19.72-20.966Z" fill="#eb5569"/>
            <circle id="Elipse_11606" data-name="Elipse 11606" cx="9.681" cy="9.681" r="9.681" transform="translate(9.296 38.861)" fill="#d8ecfe"/>
            <circle id="Elipse_11607" data-name="Elipse 11607" cx="4.84" cy="4.84" r="4.84" transform="translate(14.137 43.701)" fill="#f07281"/>
            <path id="Trazado_873896" data-name="Trazado 873896" d="M6,35.578,9.82,39.4,11.2,36.808a1.515,1.515,0,0,0-.266-1.785L8.631,32.717a.758.758,0,0,0-1.2.179Z" fill="#ffc344"/>
            <path id="Trazado_873897" data-name="Trazado 873897" d="M6,35.578,9.82,39.4,7.227,40.784a1.515,1.515,0,0,1-1.785-.265L3.136,38.212a.758.758,0,0,1,.179-1.2Z" fill="#ffd15b"/>
          </g>
        </g>
        <g id="Grupo_1099778" data-name="Grupo 1099778">
          <path id="Trazado_873898" data-name="Trazado 873898" d="M44.862,36.564v3.774a4.38,4.38,0,1,1-8.761,0V36.564" fill="none" stroke="#000" stroke-linecap="round" stroke-linejoin="round" stroke-miterlimit="10" stroke-width="1.875"/>
          <path id="Trazado_873899" data-name="Trazado 873899" d="M27.827,19.756v-6.75A12.069,12.069,0,0,1,39.895.938,8.5,8.5,0,0,1,46,3.518l.644.146a8.343,8.343,0,0,1,6.493,7.971" fill="none" stroke="#000" stroke-linecap="round" stroke-linejoin="round" stroke-miterlimit="10" stroke-width="1.875"/>
          <line id="Línea_1563" data-name="Línea 1563" y1="3.746" transform="translate(53.136 16.01)" fill="none" stroke="#000" stroke-linecap="round" stroke-linejoin="round" stroke-miterlimit="10" stroke-width="1.875"/>
          <path id="Trazado_873900" data-name="Trazado 873900" d="M30.747,19.757h5.9a14.034,14.034,0,0,0,7.14-1.952L46,16.5l4.218,3.26" fill="none" stroke="#000" stroke-linecap="round" stroke-linejoin="round" stroke-miterlimit="10" stroke-width="1.875"/>
          <path id="Trazado_873901" data-name="Trazado 873901" d="M30.747,27.544h-1.3a3.894,3.894,0,0,1-3.894-3.894h0a3.894,3.894,0,0,1,3.894-3.894h1.3" fill="none" stroke="#000" stroke-linecap="round" stroke-linejoin="round" stroke-miterlimit="10" stroke-width="1.875"/>
          <path id="Trazado_873902" data-name="Trazado 873902" d="M50.215,27.544h1.3a3.894,3.894,0,0,0,3.894-3.894h0a3.894,3.894,0,0,0-3.894-3.894h-1.3" fill="none" stroke="#000" stroke-linecap="round" stroke-linejoin="round" stroke-miterlimit="10" stroke-width="1.875"/>
          <path id="Trazado_873903" data-name="Trazado 873903" d="M30.747,19.757v8.112a9.734,9.734,0,0,0,19.468,0V19.757" fill="none" stroke="#000" stroke-linecap="round" stroke-linejoin="round" stroke-miterlimit="10" stroke-width="1.875"/>
          <path id="Trazado_873904" data-name="Trazado 873904" d="M56.476,47.1a19.442,19.442,0,0,1,4.61,12.577v1.436a1.947,1.947,0,0,1-1.947,1.947H18.977" fill="none" stroke="#000" stroke-linecap="round" stroke-linejoin="round" stroke-miterlimit="10" stroke-width="1.875"/>
          <path id="Trazado_873905" data-name="Trazado 873905" d="M44.861,40.349l2.179.632A19.4,19.4,0,0,1,53.3,44.1" fill="none" stroke="#000" stroke-linecap="round" stroke-linejoin="round" stroke-miterlimit="10" stroke-width="1.875"/>
          <path id="Trazado_873906" data-name="Trazado 873906" d="M31.8,41.733a19.282,19.282,0,0,1,2.124-.751l2.177-.633" fill="none" stroke="#000" stroke-linecap="round" stroke-linejoin="round" stroke-miterlimit="10" stroke-width="1.875"/>
          <path id="Trazado_873907" data-name="Trazado 873907" d="M5,52.5A14.525,14.525,0,0,1,6.595,40.96" fill="none" stroke="#000" stroke-linecap="round" stroke-linejoin="round" stroke-miterlimit="10" stroke-width="1.875"/>
          <path id="Trazado_873908" data-name="Trazado 873908" d="M11.379,36.173a14.52,14.52,0,1,1-4.56,20.3" fill="none" stroke="#000" stroke-linecap="round" stroke-linejoin="round" stroke-miterlimit="10" stroke-width="1.875"/>
          <circle id="Elipse_11608" data-name="Elipse 11608" cx="9.681" cy="9.681" r="9.681" transform="translate(9.296 38.861)" fill="none" stroke="#000" stroke-linecap="round" stroke-linejoin="round" stroke-miterlimit="10" stroke-width="1.875"/>
          <circle id="Elipse_11609" data-name="Elipse 11609" cx="4.84" cy="4.84" r="4.84" transform="translate(14.137 43.701)" fill="none" stroke="#000" stroke-linecap="round" stroke-linejoin="round" stroke-miterlimit="10" stroke-width="1.875"/>
          <line id="Línea_1564" data-name="Línea 1564" x1="14.728" y1="14.728" transform="translate(4.232 33.813)" fill="none" stroke="#000" stroke-linecap="round" stroke-linejoin="round" stroke-miterlimit="10" stroke-width="1.875"/>
          <path id="Trazado_873909" data-name="Trazado 873909" d="M6,35.578,9.82,39.4,11.2,36.808a1.515,1.515,0,0,0-.266-1.785L8.631,32.717a.758.758,0,0,0-1.2.179Z" fill="none" stroke="#000" stroke-linecap="round" stroke-linejoin="round" stroke-miterlimit="10" stroke-width="1.875"/>
          <path id="Trazado_873910" data-name="Trazado 873910" d="M6,35.578,9.82,39.4,7.227,40.784a1.515,1.515,0,0,1-1.785-.265L3.136,38.212a.758.758,0,0,1,.179-1.2Z" fill="none" stroke="#000" stroke-linecap="round" stroke-linejoin="round" stroke-miterlimit="10" stroke-width="1.875"/>
        </g>
      </g>
    </g>
  </g>
</svg>
