<svg xmlns="http://www.w3.org/2000/svg" xmlns:xlink="http://www.w3.org/1999/xlink" width="67" height="67" viewBox="0 0 67 67">
  <defs>
    <clipPath id="clip-path">
      <rect id="Rectángulo_401860" data-name="Rectángulo 401860" width="67" height="67" transform="translate(218 3772)" fill="#ffd947" stroke="#707070" stroke-width="1"/>
    </clipPath>
  </defs>
  <g id="Enmascarar_grupo_1100090" data-name="Enmascarar grupo 1100090" transform="translate(-218 -3772)" clip-path="url(#clip-path)">
    <g id="Outline" transform="translate(215.767 3769.767)">
      <path id="Trazado_876160" data-name="Trazado 876160" d="M50.717,24.1a1.117,1.117,0,1,0-1.763,1.37,16.58,16.58,0,0,1,3.53,10.259,16.75,16.75,0,1,1-16.75-16.75,16.58,16.58,0,0,1,10.259,3.53,1.117,1.117,0,1,0,1.37-1.763A19.026,19.026,0,1,0,50.717,24.1Z" fill="#ffd947"/>
      <path id="Trazado_876161" data-name="Trazado 876161" d="M35.733,41.317A2.233,2.233,0,0,1,33.5,39.083a1.117,1.117,0,0,0-2.233,0,4.467,4.467,0,0,0,3.35,4.308v1.275a1.117,1.117,0,1,0,2.233,0V43.391a4.458,4.458,0,0,0-1.117-8.775,2.233,2.233,0,1,1,2.233-2.233,1.117,1.117,0,0,0,2.233,0,4.467,4.467,0,0,0-3.35-4.308V26.8a1.117,1.117,0,0,0-2.233,0v1.275a4.458,4.458,0,0,0,1.117,8.775,2.233,2.233,0,0,1,0,4.467Z" fill="#ffd947"/>
      <path id="Trazado_876162" data-name="Trazado 876162" d="M27.068,46a1.117,1.117,0,0,0,.262,1.557,14.546,14.546,0,1,0-3.42-3.42,1.117,1.117,0,1,0,1.819-1.3,12.312,12.312,0,1,1,2.9,2.9A1.117,1.117,0,0,0,27.068,46Z" fill="#ffd947"/>
      <path id="Trazado_876163" data-name="Trazado 876163" d="M25.683,58.067H17.867V45.783a1.117,1.117,0,0,0-1.117-1.117H8.933V39.083a1.117,1.117,0,0,0-2.233,0V40.2H3.35a1.117,1.117,0,0,0-1.117,1.117v26.8a1.117,1.117,0,1,0,2.233,0V60.3H15.633V67H13.4V63.65a1.117,1.117,0,0,0-1.117-1.117H7.817A1.117,1.117,0,0,0,6.7,63.65v4.467a1.117,1.117,0,0,0,1.117,1.117H25.683A1.117,1.117,0,0,0,26.8,68.117V59.183A1.117,1.117,0,0,0,25.683,58.067ZM4.467,42.433H6.7v2.233H4.467Zm0,13.4h7.817a1.117,1.117,0,0,0,0-2.233H4.467V46.9H15.633v2.233H7.817a1.117,1.117,0,1,0,0,2.233h7.817v6.7H4.467Zm4.467,8.933h2.233V67H8.933ZM17.867,67V60.3h6.7v2.233H22.333a1.117,1.117,0,0,0,0,2.233h2.233V67Z" fill="#ffd947"/>
      <path id="Trazado_876164" data-name="Trazado 876164" d="M59.183,22.333A10.039,10.039,0,0,0,67.835,7.185,1.117,1.117,0,1,0,65.911,8.32a7.756,7.756,0,0,1-.439,8.585,5.6,5.6,0,0,0-2.816-2.965,4.467,4.467,0,1,0-6.946,0,5.6,5.6,0,0,0-2.816,2.965A7.8,7.8,0,0,1,63.146,5.555a1.117,1.117,0,1,0,1.136-1.924,10.05,10.05,0,1,0-5.1,18.7Zm0-13.4a2.233,2.233,0,1,1-2.233,2.233A2.233,2.233,0,0,1,59.183,8.933Zm-1.117,6.7H60.3a3.343,3.343,0,0,1,3.322,3.076,7.781,7.781,0,0,1-8.877,0,3.343,3.343,0,0,1,3.322-3.076Z" fill="#ffd947"/>
      <path id="Trazado_876165" data-name="Trazado 876165" d="M5.867,14.433,7.391,19a3.238,3.238,0,1,0,6.142-2.047l-.5-1.5L20.9,17.82a1.117,1.117,0,0,0,1.434-1.07V13.4a1.117,1.117,0,1,0-2.233,0v1.849l-8.933-2.68V7.531L20.1,4.851V8.933a1.117,1.117,0,1,0,2.233,0V3.35A1.117,1.117,0,0,0,20.9,2.28l-11.01,3.3H6.7a4.467,4.467,0,0,0-.833,8.85Zm5.544,3.232a.993.993,0,0,1-.137.9A1.04,1.04,0,0,1,9.51,18.3L8.25,14.517H9.886l.528.159ZM6.7,7.817H8.933v4.467H6.7a2.233,2.233,0,1,1,0-4.467Z" fill="#ffd947"/>
      <path id="Trazado_876166" data-name="Trazado 876166" d="M68.117,51.367H52.483a1.117,1.117,0,0,0-1.117,1.117V68.117a1.117,1.117,0,0,0,1.117,1.117H68.117a1.117,1.117,0,0,0,1.117-1.117V60.3A1.117,1.117,0,1,0,67,60.3V67H53.6V53.6h3.35v3.35a1.117,1.117,0,0,0,1.117,1.117h4.467A1.117,1.117,0,0,0,63.65,56.95V53.6H67v2.233a1.117,1.117,0,1,0,2.233,0v-3.35A1.117,1.117,0,0,0,68.117,51.367Zm-6.7,4.467H59.183V53.6h2.233Z" fill="#ffd947"/>
      <path id="Trazado_876167" data-name="Trazado 876167" d="M62.811,49.036a1.117,1.117,0,0,0,1.475-.558,31.253,31.253,0,0,0,.592-24.051,1.117,1.117,0,1,0-2.082.809,29.022,29.022,0,0,1-.558,22.325,1.117,1.117,0,0,0,.573,1.475Z" fill="#ffd947"/>
      <path id="Trazado_876168" data-name="Trazado 876168" d="M47.561,62.247a28.869,28.869,0,0,1-17.206,2.01,1.117,1.117,0,0,0-.411,2.2A31.519,31.519,0,0,0,35.733,67a31.043,31.043,0,0,0,12.739-2.713,1.117,1.117,0,0,0-.911-2.039Z" fill="#ffd947"/>
      <path id="Trazado_876169" data-name="Trazado 876169" d="M6.905,23.61A31.08,31.08,0,0,0,4.467,35.733a1.117,1.117,0,1,0,2.233,0A28.859,28.859,0,0,1,8.963,24.476a1.117,1.117,0,1,0-2.058-.867Z" fill="#ffd947"/>
      <path id="Trazado_876170" data-name="Trazado 876170" d="M26.055,8.358a29.17,29.17,0,0,1,20.175.307,1.117,1.117,0,0,0,.81-2.077,31.406,31.406,0,0,0-21.728-.335,1.117,1.117,0,1,0,.744,2.1Z" fill="#ffd947"/>
    </g>
  </g>
</svg>
