<svg xmlns="http://www.w3.org/2000/svg" xmlns:xlink="http://www.w3.org/1999/xlink" width="121.582" height="104" viewBox="0 0 121.582 104">
  <defs>
    <clipPath id="clip-path">
      <rect id="Rectángulo_401846" data-name="Rectángulo 401846" width="93" height="93" transform="translate(726 3062)" fill="#fff" stroke="#707070" stroke-width="1"/>
    </clipPath>
    <clipPath id="clip-path-2">
      <path id="path1548" d="M0-93H93V0H0Z"/>
    </clipPath>
  </defs>
  <g id="Grupo_1100785" data-name="Grupo 1100785" transform="translate(-712 -3685)">
    <g id="Grupo_1100784" data-name="Grupo 1100784">
      <g id="Grupo_1100783" data-name="Grupo 1100783">
        <path id="_12068" data-name="12068" d="M94.486,72.232c-12.45-1.719-25.6-1.3-36.93,4.143-15.711,7.546-26.029,24.655-26.425,42.08s8.682,34.547,22.705,44.9S86.354,177.37,103.5,174.263c17.293-3.134,33.524-13.294,42.545-28.377,5.784-9.672,8.488-21.615,5.292-32.422-1.929-6.523-5.873-12.3-10.512-17.278A77.665,77.665,0,0,0,94.486,72.232Z" transform="translate(680.881 3613.668)" fill="#7d6eb2"/>
        <g id="Enmascarar_grupo_1100084" data-name="Enmascarar grupo 1100084" transform="translate(0 623)" clip-path="url(#clip-path)">
          <g id="g1542" transform="translate(726 3155)">
            <g id="g1544">
              <g id="g1546" clip-path="url(#clip-path-2)">
                <g id="g1552" transform="translate(55.408 -55.603)">
                  <path id="path1554" d="M0,0A2.886,2.886,0,0,0,2.463-3.254l-1.1-7.907,5.483-5.783a2.876,2.876,0,0,0,.874-1.615A2.89,2.89,0,0,0,5.365-21.9l-7.858-1.392L-6.38-30.444a2.87,2.87,0,0,0-1.175-1.164,2.881,2.881,0,0,0-3.9,1.186L-15.2-23.379l-7.916,1.471a2.872,2.872,0,0,0-1.568.773,2.885,2.885,0,0,0-.079,4.079l5.542,5.749L-20.257-3.44a2.878,2.878,0,0,0,.233,1.847A2.891,2.891,0,0,0-16.161-.26l7.171-3.491,7.351,3.5A2.88,2.88,0,0,0,0,0" fill="#ffc144" fill-rule="evenodd"/>
                </g>
                <g id="g1556" transform="translate(55.582 -45.411)">
                  <path id="path1558" d="M0,0H-18.164A3.644,3.644,0,0,0-21.8,3.633V43.594H3.633V3.633A3.644,3.644,0,0,0,0,0" fill="#b278d3" fill-rule="evenodd"/>
                </g>
                <g id="g1560" transform="translate(33.785 -1.816)">
                  <path id="path1562" d="M0,0V-36.328H-21.8A3.644,3.644,0,0,0-25.43-32.7V0Z" fill="#d1aee5" fill-rule="evenodd"/>
                </g>
                <g id="g1564" transform="translate(59.215 -30.879)">
                  <path id="path1566" d="M0,0V29.063H25.43V3.633A3.643,3.643,0,0,0,21.8,0Z" fill="#d1aee5" fill-rule="evenodd"/>
                </g>
                <g id="g1568" transform="translate(33.785 -8.174)">
                  <path id="path1570" d="M0,0V4.542m25.43,0V-33.6A3.643,3.643,0,0,0,21.8-37.236H3.633A3.644,3.644,0,0,0,0-33.6v17.256M-1.816-29.97H-21.8a3.644,3.644,0,0,0-3.633,3.633v32.7H50.859v-25.43A3.643,3.643,0,0,0,47.227-22.7H27.246" fill="none" stroke="#000" stroke-linecap="round" stroke-linejoin="round" stroke-miterlimit="2.613" stroke-width="3.633"/>
                </g>
                <g id="g1572" transform="translate(68.297 -22.344)">
                  <path id="path1574" d="M0,0A3.612,3.612,0,0,1,6.362,2.364,3.63,3.63,0,0,1,5.276,4.958a4.545,4.545,0,0,1-2.531,8.3A4.487,4.487,0,0,1,0,12.328" fill="none" stroke="#000" stroke-linecap="round" stroke-linejoin="round" stroke-miterlimit="2.613" stroke-width="3.633"/>
                </g>
                <g id="g1576" transform="translate(17.753 -28.839)">
                  <path id="path1578" d="M0,0C1.963-3.7,7-1.982,6.949,2.086,6.886,7.5-.316,8.331-.316,12.492H6.949" fill="none" stroke="#000" stroke-linecap="round" stroke-linejoin="round" stroke-miterlimit="2.613" stroke-width="3.633"/>
                </g>
                <g id="g1580" transform="translate(46.5 -23.971)">
                  <path id="path1582" d="M0,0V-14.174l-2.014,1.163" fill="none" stroke="#000" stroke-linecap="round" stroke-linejoin="round" stroke-miterlimit="2.613" stroke-width="3.633"/>
                </g>
                <g id="g1584" transform="translate(44.486 -23.614)">
                  <path id="path1586" d="M0,0H4.028" fill="none" stroke="#000" stroke-linecap="round" stroke-linejoin="round" stroke-miterlimit="2.613" stroke-width="3.633"/>
                </g>
                <g id="g1588" transform="translate(49.027 -86.047)">
                  <path id="path1590" d="M0,0,3.887,7.149l7.858,1.392A2.89,2.89,0,0,1,13.221,13.5L7.738,19.283l1.1,7.907a2.893,2.893,0,0,1-4.1,3.005l-7.351-3.5L-9.78,30.184a2.89,2.89,0,0,1-3.864-1.333A2.878,2.878,0,0,1-13.877,27l1.032-7.868-5.542-5.748a2.885,2.885,0,0,1,.079-4.079,2.872,2.872,0,0,1,1.568-.773l7.916-1.471L-5.072.022a2.881,2.881,0,0,1,3.9-1.186A2.871,2.871,0,0,1,0,0Z" fill="none" stroke="#000" stroke-linecap="round" stroke-linejoin="round" stroke-miterlimit="2.613" stroke-width="3.633"/>
                </g>
                <g id="g1592" transform="translate(18.981 -91.184)">
                  <path id="path1594" d="M0,0,7.17,4.14" fill="none" stroke="#000" stroke-linecap="round" stroke-linejoin="round" stroke-miterlimit="2.613" stroke-width="3.633"/>
                </g>
                <g id="g1596" transform="translate(12.834 -69.651)">
                  <path id="path1598" d="M0,0,8.193-1.192" fill="none" stroke="#000" stroke-linecap="round" stroke-linejoin="round" stroke-miterlimit="2.613" stroke-width="3.633"/>
                </g>
                <g id="g1600" transform="translate(20.742 -49.643)">
                  <path id="path1602" d="M0,0,5.854-5.854" fill="none" stroke="#000" stroke-linecap="round" stroke-linejoin="round" stroke-miterlimit="2.613" stroke-width="3.633"/>
                </g>
                <g id="g1604" transform="translate(74.018 -91.184)">
                  <path id="path1606" d="M0,0-7.17,4.14" fill="none" stroke="#000" stroke-linecap="round" stroke-linejoin="round" stroke-miterlimit="2.613" stroke-width="3.633"/>
                </g>
                <g id="g1608" transform="translate(80.166 -69.651)">
                  <path id="path1610" d="M0,0-8.193-1.192" fill="none" stroke="#000" stroke-linecap="round" stroke-linejoin="round" stroke-miterlimit="2.613" stroke-width="3.633"/>
                </g>
                <g id="g1612" transform="translate(72.258 -49.643)">
                  <path id="path1614" d="M0,0-5.854-5.854" fill="none" stroke="#000" stroke-linecap="round" stroke-linejoin="round" stroke-miterlimit="2.613" stroke-width="3.633"/>
                </g>
                <g id="g1616" transform="translate(33.785 -16.349)">
                  <path id="path1618" d="M0,0H0" fill="none" stroke="#000" stroke-linecap="round" stroke-linejoin="round" stroke-miterlimit="2.613" stroke-width="3.633"/>
                </g>
              </g>
            </g>
          </g>
        </g>
      </g>
    </g>
  </g>
</svg>
