<svg xmlns="http://www.w3.org/2000/svg" xmlns:xlink="http://www.w3.org/1999/xlink" width="121.582" height="104" viewBox="0 0 121.582 104">
  <defs>
    <clipPath id="clip-path">
      <rect id="Rectángulo_401853" data-name="Rectángulo 401853" width="93" height="93" transform="translate(-460 -8638)" fill="#fff" stroke="#707070" stroke-width="1"/>
    </clipPath>
  </defs>
  <g id="Grupo_1100797" data-name="Grupo 1100797" transform="translate(474 8032)">
    <g id="Grupo_1100796" data-name="Grupo 1100796">
      <path id="_12068" data-name="12068" d="M94.486,72.232c-12.45-1.719-25.6-1.3-36.93,4.143-15.711,7.546-26.029,24.655-26.425,42.08s8.682,34.547,22.705,44.9S86.354,177.37,103.5,174.263c17.293-3.134,33.524-13.294,42.545-28.377,5.784-9.672,8.488-21.615,5.292-32.422-1.929-6.523-5.873-12.3-10.512-17.278A77.665,77.665,0,0,0,94.486,72.232Z" transform="translate(-505.119 -8103.332)" fill="#7d6eb2"/>
      <g id="Enmascarar_grupo_1100089" data-name="Enmascarar grupo 1100089" transform="translate(0 606)" clip-path="url(#clip-path)">
        <g id="interaccion-social-mientras-se-conduce" transform="translate(-460 -8638)">
          <g id="Grupo_1100752" data-name="Grupo 1100752">
            <path id="Trazado_876141" data-name="Trazado 876141" d="M19.639,76.929h4.748a2.866,2.866,0,0,1,2.857,2.857v8.9a2.866,2.866,0,0,1-2.857,2.857H19.639a2.866,2.866,0,0,1-2.857-2.857v-8.9a2.865,2.865,0,0,1,2.857-2.857Z" fill="#231915" fill-rule="evenodd"/>
            <path id="Trazado_876142" data-name="Trazado 876142" d="M64.2,76.929h4.753a2.866,2.866,0,0,1,2.857,2.857v8.9a2.866,2.866,0,0,1-2.857,2.857H64.2a2.866,2.866,0,0,1-2.857-2.857v-8.9A2.866,2.866,0,0,1,64.2,76.929Z" fill="#231915" fill-rule="evenodd"/>
            <path id="Trazado_876143" data-name="Trazado 876143" d="M67.475,50.4h9.941a1.04,1.04,0,0,1,1.043,1.037v2.439a3.491,3.491,0,0,1-3.477,3.482H67.475Z" fill="#aae6fa" fill-rule="evenodd"/>
            <path id="Trazado_876144" data-name="Trazado 876144" d="M21.11,50.4H11.169a1.04,1.04,0,0,0-1.043,1.037v2.439a3.492,3.492,0,0,0,3.482,3.482h7.5Z" fill="#aae6fa" fill-rule="evenodd"/>
            <path id="Trazado_876145" data-name="Trazado 876145" d="M17.562,60.509a11.745,11.745,0,0,0-7.382,10.873v8.584A3.124,3.124,0,0,0,13.3,83.083H76.131a2.283,2.283,0,0,0,2.274-2.274V71.383a11.75,11.75,0,0,0-7.387-10.873L68.39,42.38a8.548,8.548,0,0,0-8.5-7.367H28.7a8.558,8.558,0,0,0-8.51,7.367Z" fill="#ff4646" fill-rule="evenodd"/>
            <path id="Trazado_876146" data-name="Trazado 876146" d="M65.455,58.329,63.25,43.122a3.356,3.356,0,0,0-3.362-2.913H28.7a3.361,3.361,0,0,0-3.368,2.913l-2.2,15.207a1.9,1.9,0,0,0,1.885,2.178H63.568a1.9,1.9,0,0,0,1.887-2.178Z" fill="#aae6fa" fill-rule="evenodd"/>
            <path id="Trazado_876147" data-name="Trazado 876147" d="M22.167,76.455a5.073,5.073,0,1,0-5.073-5.071,5.084,5.084,0,0,0,5.073,5.071Z" fill="#ffd400" fill-rule="evenodd"/>
            <path id="Trazado_876148" data-name="Trazado 876148" d="M66.417,76.455a5.073,5.073,0,1,0-5.073-5.073A5.084,5.084,0,0,0,66.417,76.455Z" fill="#ffd400" fill-rule="evenodd"/>
            <path id="Trazado_876149" data-name="Trazado 876149" d="M32.586,1.455H4.141A1.858,1.858,0,0,0,2.287,3.309V21.281a1.858,1.858,0,0,0,1.855,1.855h11.83a1.229,1.229,0,0,1,.968.449l5.622,6.668a1.262,1.262,0,0,0,2.225-.814V24.4a1.267,1.267,0,0,1,1.262-1.262h6.539a1.861,1.861,0,0,0,1.855-1.855V3.311a1.863,1.863,0,0,0-1.856-1.856Z" fill="#f1f1f1" fill-rule="evenodd"/>
            <path id="Trazado_876150" data-name="Trazado 876150" d="M60.407,1.455h28.45a1.861,1.861,0,0,1,1.855,1.855V21.281a1.86,1.86,0,0,1-1.855,1.855H77.021a1.236,1.236,0,0,0-.968.449l-5.616,6.668a1.266,1.266,0,0,1-2.23-.814V24.4a1.267,1.267,0,0,0-1.262-1.262H60.405a1.858,1.858,0,0,1-1.851-1.855V3.311a1.861,1.861,0,0,1,1.853-1.856Z" fill="#f1f1f1" fill-rule="evenodd"/>
            <path id="Trazado_876151" data-name="Trazado 876151" d="M73.425,6.9,74.633,8.11,75.841,6.9a4.022,4.022,0,1,1,5.691,5.685L75.7,18.418a1.511,1.511,0,0,1-2.134,0l-5.831-5.831A4.021,4.021,0,0,1,73.425,6.9Z" fill="#ff4646" fill-rule="evenodd"/>
            <path id="Trazado_876152" data-name="Trazado 876152" d="M14.68,11.416l1.776-.489a2.3,2.3,0,0,0,1.56-2.514c0-1.168-.314-3.117,1.426-3.151,2.04-.049,2.683,2.6,2.683,4.054A1.084,1.084,0,0,0,23.208,10.4h1.446c1.706,0,1.66,1.382,1.785,2.913.189,2.389-.289,5.4-2.559,5.411-1.5.005-4.12,0-5.622,0a4.632,4.632,0,0,1-1.726-.314l-1.853-.7H11.857V11.416Z" fill="#fbbd80" fill-rule="evenodd"/>
            <path id="Trazado_876153" data-name="Trazado 876153" d="M10.96,9.79H13.9a.713.713,0,0,1,.708.714v8.119a.712.712,0,0,1-.708.708H10.96a.713.713,0,0,1-.714-.708V10.5A.714.714,0,0,1,10.96,9.79Z" fill="#0593fc" fill-rule="evenodd"/>
            <path id="Trazado_876154" data-name="Trazado 876154" d="M31.354,40.209H28.7a3.361,3.361,0,0,0-3.368,2.913l-2.2,15.207a1.9,1.9,0,0,0,1.885,2.178h2.648a1.9,1.9,0,0,1-1.885-2.178l2.205-15.207A3.359,3.359,0,0,1,31.354,40.209Z" fill="#99cfe1" fill-rule="evenodd"/>
            <path id="Trazado_876155" data-name="Trazado 876155" d="M22.167,66.31a4.666,4.666,0,0,1,.8.065,5.072,5.072,0,0,0,0,10.015,5.281,5.281,0,0,1-.8.065,5.073,5.073,0,1,1,0-10.146Z" fill="#e6bf00" fill-rule="evenodd"/>
            <path id="Trazado_876156" data-name="Trazado 876156" d="M66.417,66.31a4.666,4.666,0,0,1,.8.065,5.071,5.071,0,0,0,0,10.015,5.281,5.281,0,0,1-.8.065,5.073,5.073,0,0,1,0-10.146Z" fill="#e6bf00" fill-rule="evenodd"/>
            <g id="Grupo_1100751" data-name="Grupo 1100751">
              <path id="Trazado_876157" data-name="Trazado 876157" d="M5.918,1.455H4.141A1.858,1.858,0,0,0,2.287,3.309V21.281a1.858,1.858,0,0,0,1.855,1.855H5.918a1.861,1.861,0,0,1-1.855-1.855V3.311A1.859,1.859,0,0,1,5.918,1.455ZM15.971,23.137a1.229,1.229,0,0,1,.968.449l5.622,6.668a1.279,1.279,0,0,0,1.856.084c-.025-.029-.054-.054-.08-.085l-5.616-6.668a1.231,1.231,0,0,0-.968-.449H15.971Z" fill="#d9d9d9" fill-rule="evenodd"/>
              <path id="Trazado_876158" data-name="Trazado 876158" d="M60.407,1.455h1.78a1.861,1.861,0,0,0-1.855,1.855V21.281a1.86,1.86,0,0,0,1.855,1.855h-1.78a1.858,1.858,0,0,1-1.851-1.855V3.311a1.859,1.859,0,0,1,1.851-1.856Zm9.95,28.884a1.264,1.264,0,0,1-2.151-.9V24.4a1.267,1.267,0,0,0-1.262-1.262h1.776A1.267,1.267,0,0,1,69.987,24.4v5.042a1.254,1.254,0,0,0,.371.9Z" fill="#d9d9d9" fill-rule="evenodd"/>
            </g>
          </g>
          <path id="Trazado_876159" data-name="Trazado 876159" d="M77.419,48.949H70.811l-.983-6.779a9.976,9.976,0,0,0-9.943-8.606H28.7a9.979,9.979,0,0,0-9.943,8.606l-.981,6.779H11.165a2.5,2.5,0,0,0-2.492,2.492v2.441a4.939,4.939,0,0,0,4.933,4.933h2.737l-.1.69A13.3,13.3,0,0,0,8.726,71.385v8.588A4.574,4.574,0,0,0,13.3,84.539h2.029v4.15A4.315,4.315,0,0,0,19.637,93h4.752a4.315,4.315,0,0,0,4.31-4.31v-4.15H59.889v4.15A4.315,4.315,0,0,0,64.2,93h4.752a4.315,4.315,0,0,0,4.31-4.31v-4.15h2.874a3.731,3.731,0,0,0,3.727-3.727V71.383A13.108,13.108,0,0,0,72.342,59.5l-.1-.688H74.98a4.939,4.939,0,0,0,4.933-4.933V51.44A2.5,2.5,0,0,0,77.419,48.949ZM13.606,55.912a2.031,2.031,0,0,1-2.029-2.029V51.854h5.774l-.589,4.058ZM25.792,88.688a1.424,1.424,0,0,1-1.406,1.406H19.635a1.425,1.425,0,0,1-1.406-1.406v-4.15h7.563Zm44.563,0a1.424,1.424,0,0,1-1.406,1.406H64.2a1.425,1.425,0,0,1-1.406-1.406v-4.15h7.563Zm6.6-17.3V80.81a.836.836,0,0,1-.825.825H13.3a1.668,1.668,0,0,1-1.667-1.664V71.383a10.365,10.365,0,0,1,6.477-9.527,1.451,1.451,0,0,0,.9-1.139l2.626-18.129A7.094,7.094,0,0,1,28.7,36.469H59.891a7.1,7.1,0,0,1,7.069,6.119l2.626,18.129a1.457,1.457,0,0,0,.9,1.141A10.36,10.36,0,0,1,76.956,71.383Zm.053-17.5a2.031,2.031,0,0,1-2.029,2.029H71.821l-.589-4.058h5.774v2.029ZM25.015,61.96H63.569a3.318,3.318,0,0,0,2.537-1.153.091.091,0,0,1,.013-.015,3.345,3.345,0,0,0,.772-2.67l-2.2-15.21a4.817,4.817,0,0,0-4.8-4.152H28.7a4.817,4.817,0,0,0-4.8,4.152l-2.2,15.208a3.321,3.321,0,0,0,.783,2.677,3.286,3.286,0,0,0,2.537,1.162Zm-.447-3.42,2.2-15.208A1.909,1.909,0,0,1,28.7,41.666H59.888a1.909,1.909,0,0,1,1.925,1.666l2.2,15.21a.418.418,0,0,1-.107.369.4.4,0,0,1-.34.147H25.015a.386.386,0,0,1-.334-.147.415.415,0,0,1-.113-.371Zm-2.4,6.319a6.524,6.524,0,1,0,6.524,6.524,6.531,6.531,0,0,0-6.524-6.524Zm0,10.144a3.62,3.62,0,1,1,3.62-3.62A3.624,3.624,0,0,1,22.169,75Zm37.724-3.62a6.526,6.526,0,1,0,6.524-6.524A6.532,6.532,0,0,0,59.893,71.383Zm10.148,0a3.623,3.623,0,1,1-3.625-3.62A3.626,3.626,0,0,1,70.041,71.383Zm-19.4-20.69a1.451,1.451,0,0,1,0,2.052l-3.965,3.965a1.451,1.451,0,0,1-2.052-2.052l3.965-3.965A1.451,1.451,0,0,1,50.644,50.693Zm-12.1,3.373L48,44.608a1.451,1.451,0,0,1,2.052,2.052l-9.458,9.458a1.451,1.451,0,0,1-2.052-2.052Zm-.592-4.032a1.451,1.451,0,0,1,0-2.052l3.965-3.965a1.451,1.451,0,0,1,2.052,2.052L40,50.034a1.451,1.451,0,0,1-2.052,0ZM55.815,68.88a1.451,1.451,0,0,1-1.451,1.451H34.222a1.451,1.451,0,1,1,0-2.9H54.364A1.452,1.452,0,0,1,55.815,68.88Zm-4.6,5a1.451,1.451,0,0,1-1.451,1.451H38.825a1.451,1.451,0,0,1,0-2.9H49.761A1.452,1.452,0,0,1,51.213,73.885Zm-29.767-42.7a2.67,2.67,0,0,0,2.062.972,2.73,2.73,0,0,0,.945-.169,2.686,2.686,0,0,0,1.785-2.548V24.586h6.348a3.31,3.31,0,0,0,3.306-3.306V3.306A3.308,3.308,0,0,0,32.586,0H4.138A3.31,3.31,0,0,0,.832,3.306V21.281a3.308,3.308,0,0,0,3.306,3.306H15.884ZM3.736,21.281V3.306a.406.406,0,0,1,.4-.4H32.584a.406.406,0,0,1,.4.4V21.281a.406.406,0,0,1-.4.4H26.05A2.722,2.722,0,0,0,23.331,24.4v4.517l-5.284-6.272a2.672,2.672,0,0,0-2.074-.964H4.138a.406.406,0,0,1-.4-.4ZM88.855,0H60.409A3.31,3.31,0,0,0,57.1,3.306V21.281a3.308,3.308,0,0,0,3.306,3.306h6.348v4.855a2.686,2.686,0,0,0,1.785,2.548,2.743,2.743,0,0,0,.941.167,2.706,2.706,0,0,0,2.067-.968l5.56-6.6H88.857a3.312,3.312,0,0,0,3.311-3.306V3.306A3.316,3.316,0,0,0,88.855,0Zm.407,21.281a.41.41,0,0,1-.407.4H77.023a2.674,2.674,0,0,0-2.078.964l-5.284,6.277V24.4a2.72,2.72,0,0,0-2.714-2.719H60.409a.406.406,0,0,1-.4-.4V3.306a.406.406,0,0,1,.4-.4H88.855a.41.41,0,0,1,.407.4ZM74.818,5.872l-.183.183-.183-.183,0,0a5.475,5.475,0,0,0-7.741,7.745l5.832,5.827a2.964,2.964,0,0,0,4.185,0l5.829-5.829a5.472,5.472,0,1,0-7.736-7.741ZM80.5,11.563l-5.829,5.829a.058.058,0,0,1-.078,0l-5.831-5.827A2.571,2.571,0,0,1,72.4,7.928l1.208,1.208a1.451,1.451,0,0,0,2.052,0l1.21-1.21A2.569,2.569,0,0,1,80.5,11.563Zm-64.476,8.2a6.158,6.158,0,0,0,2.234.407h1.646l2.185,0c.668,0,1.3,0,1.8,0A3.482,3.482,0,0,0,26.5,19.032c1.482-1.613,1.5-4.348,1.386-5.832-.009-.111-.016-.222-.024-.329a6.237,6.237,0,0,0-.469-2.345,2.811,2.811,0,0,0-2.737-1.575H23.567a6.492,6.492,0,0,0-1.617-4.136A3.433,3.433,0,0,0,19.41,3.807a2.761,2.761,0,0,0-2.016.839,4.445,4.445,0,0,0-.841,3.342c.005.151.009.294.009.427,0,.979-.329,1.068-.487,1.112l-.216.06A2.163,2.163,0,0,0,13.9,8.337H10.955A2.166,2.166,0,0,0,8.791,10.5V18.62a2.166,2.166,0,0,0,2.163,2.163H13.9a2.16,2.16,0,0,0,1.884-1.106Zm.816-7.442c1.667-.456,2.625-1.882,2.625-3.912,0-.16-.005-.334-.011-.514a6.15,6.15,0,0,1,.04-1.19.546.546,0,0,1,.427.182,3.926,3.926,0,0,1,.754,2.425,2.54,2.54,0,0,0,2.534,2.539h1.448a1.087,1.087,0,0,1,.156.009,6.38,6.38,0,0,1,.153,1.21c.007.116.016.232.025.354a5.587,5.587,0,0,1-.628,3.64.588.588,0,0,1-.481.205c-1.034,0-2.6,0-3.969,0l-1.649,0a3.234,3.234,0,0,1-1.213-.222l-.986-.371V12.54Zm-3.684,5.551H11.7V11.24h1.462Z"/>
        </g>
      </g>
    </g>
  </g>
</svg>
