<svg xmlns="http://www.w3.org/2000/svg" xmlns:xlink="http://www.w3.org/1999/xlink" width="295.088" height="271.309" viewBox="0 0 295.088 271.309">
  <defs>
    <clipPath id="clip-path">
      <path id="Trazado_876085" data-name="Trazado 876085" d="M254.206,301.954c-6.077,3.323-12.789-2.347-19.578,0a127.925,127.925,0,0,1-40.645,7c-.219.006-.444.012-.664.006s-.421.006-.634.006A128.069,128.069,0,0,1,91.372,259.429c-4.82-6.166-20.127,3.557-23.916-3.771-3.8-7.348,4.018-31.816,1.611-40.351a129.222,129.222,0,0,1,1.5-74.347c2.053-6.378-7.551-20.809-4.361-27.052,2.736-5.356,18.208-2.55,21.913-7.769,1.9-2.672,4.09-5.5,6.4-8.238q3.619-4.287,7.589-8.241,1.672-1.672,3.415-3.272,3.263-3.023,6.734-5.822c.136-.107.273-.219.415-.332s.279-.226.421-.332l.178-.142c1.835-1.447,3.711-2.845,5.823-4.332,2.617-12.021-9.133-22.521,18.367-33.021,31.75-6.5,33.3,11.369,42.786,10.439,3.921-.385,8.157-.595,12.442-.595A128.391,128.391,0,0,1,240.617,61.5c11.288,4.515,8.464-22.212,18.089-14.593.089.071,44.661-9.315,44.75-9.25.053.047,50.452,6.208,50.5,6.25.142.113-2.443,71.583,0,74.5,15.994,19.1-8.5,144.5-6,181.25" transform="translate(345.794 6498.091)" fill="#7d6eb2"/>
    </clipPath>
  </defs>
  <g id="Grupo_1100758" data-name="Grupo 1100758" transform="translate(-410.121 -6535.75)">
    <g id="Grupo_1100757" data-name="Grupo 1100757">
      <g id="Grupo_1100756" data-name="Grupo 1100756">
        <path id="Trazado_874478" data-name="Trazado 874478" d="M321.041,180.61A128.219,128.219,0,0,1,193.982,308.955c-.219.006-.444.012-.664.006s-.421.006-.634.006A128.367,128.367,0,0,1,94.514,97.9q3.619-4.287,7.589-8.241,1.672-1.672,3.415-3.272,3.263-3.023,6.734-5.822c.136-.107.273-.219.415-.332s.279-.226.421-.332l.178-.142a128.384,128.384,0,0,1,159.007.142c.089.071.178.142.267.208.053.047.107.083.154.124.142.113.278.225.415.332q3.61,2.908,7.008,6.071c1.132,1.055,2.241,2.122,3.332,3.213q4.028,4.028,7.7,8.412a127.807,127.807,0,0,1,29.891,82.346" transform="translate(345.794 6498.091)" fill="#7d6eb2"/>
        <g id="Enmascarar_grupo_1100082" data-name="Enmascarar grupo 1100082" clip-path="url(#clip-path)">
          <g id="Grupo_1100738" data-name="Grupo 1100738" transform="translate(390 6542.814)">
            <g id="Grupo_1100742" data-name="Grupo 1100742">
              <path id="Trazado_875842" data-name="Trazado 875842" d="M406.848,82.529a45.629,45.629,0,1,0-45.629,45.609,45.619,45.619,0,0,0,45.629-45.609" transform="translate(-119.686 -14.002)" fill="#f15a28"/>
              <path id="Trazado_875843" data-name="Trazado 875843" d="M402.22,89.794a33.733,33.733,0,1,0-33.733,33.719A33.726,33.726,0,0,0,402.22,89.794" transform="translate(-126.953 -21.266)" fill="#fff"/>
              <path id="Trazado_875844" data-name="Trazado 875844" d="M398.49,95.649a24.146,24.146,0,1,0-24.146,24.136A24.141,24.141,0,0,0,398.49,95.649" transform="translate(-132.81 -27.121)" fill="#f15a28"/>
              <path id="Trazado_875845" data-name="Trazado 875845" d="M394.95,101.205a15.047,15.047,0,1,0-15.047,15.04,15.043,15.043,0,0,0,15.047-15.04" transform="translate(-138.369 -32.677)" fill="#fff"/>
              <path id="Trazado_875846" data-name="Trazado 875846" d="M392.014,105.813a7.5,7.5,0,1,0-7.5,7.5,7.5,7.5,0,0,0,7.5-7.5" transform="translate(-142.979 -37.285)" fill="#f15a28"/>
              <path id="Trazado_875847" data-name="Trazado 875847" d="M450.787,41.791l7.311.184,9.838-9.6-10.581.891Z" transform="translate(-170.958 -12.277)" fill="#7d86ba"/>
              <path id="Trazado_875848" data-name="Trazado 875848" d="M449.867,36.158,448.1,29.065l7.239-11.685L456.767,27.9Z" transform="translate(-169.938 -6.591)" fill="#7d86ba"/>
              <path id="Trazado_875849" data-name="Trazado 875849" d="M400.259,73.349a.954.954,0,0,1,.255-.646l36.929-39.716a.955.955,0,0,1,1.4,1.3L401.914,74a.955.955,0,0,1-1.655-.654" transform="translate(-151.795 -12.394)" fill="#52576b"/>
              <path id="Trazado_875850" data-name="Trazado 875850" d="M390.027,102.747l13.443-7.526L397.962,94.1l-2.342-5.046Z" transform="translate(-147.915 -33.772)" fill="#fcb033"/>
              <path id="Trazado_875851" data-name="Trazado 875851" d="M302.315,100.7a2.448,2.448,0,0,0,.313-2.793,56.078,56.078,0,0,1,71.366-78.451l3.4-3.859a60.99,60.99,0,0,0-79.085,84.659,2.461,2.461,0,0,0,4,.445" transform="translate(-110.298 -3.793)" fill="#34b7bf"/>
              <path id="Trazado_875852" data-name="Trazado 875852" d="M422.933,59.759a2.447,2.447,0,0,0-.313,2.793A56.078,56.078,0,0,1,351.254,141l-3.405,3.86A60.991,60.991,0,0,0,426.935,60.2a2.46,2.46,0,0,0-4-.446" transform="translate(-131.919 -22.348)" fill="#34b7bf"/>
              <path id="Trazado_875853" data-name="Trazado 875853" d="M422.559,18.054a1.962,1.962,0,0,1-1.349.661l-14.461.922a1.964,1.964,0,1,1-.25-3.921l11.616-.741-4.471-9.809a1.965,1.965,0,0,1,3.577-1.628l5.652,12.4a1.968,1.968,0,0,1-.1,1.824,2,2,0,0,1-.212.289" transform="translate(-153.464 -0.905)" fill="#34b7bf"/>
              <path id="Trazado_875854" data-name="Trazado 875854" d="M344.3,187.613a1.964,1.964,0,0,1,1.349-.661l14.461-.922a1.964,1.964,0,1,1,.25,3.921l-11.616.741,4.471,9.809a1.965,1.965,0,0,1-3.577,1.629l-5.653-12.4a1.964,1.964,0,0,1,.315-2.114" transform="translate(-130.389 -70.549)" fill="#34b7bf"/>
              <path id="Trazado_875855" data-name="Trazado 875855" d="M278.989,270.189a61.816,61.816,0,0,1-13.966-1.526c-15.368-3.562-26.868-14.353-34.183-32.074-5.083-12.311-7.548-26.388-9.722-38.808-.837-4.78-1.628-9.294-2.486-13.241l37.052-8.057c1.022,4.7,1.878,9.586,2.783,14.757,2.525,14.416,6.751,38.545,15.119,40.485,13.127,3.044,34.818-6.63,43.267-11.791l19.766,32.359c-3.421,2.09-30.216,17.9-57.63,17.9" transform="translate(-82.915 -66.93)" fill="#f0b48f"/>
              <path id="Trazado_875856" data-name="Trazado 875856" d="M84.956,263.824l-26.08-86.952c-9.033,22.963-17.5,58.2-15.847,80.329,12.556-.922,26.29,4.872,32.658,15.527a49.885,49.885,0,0,0,9.27-8.9" transform="translate(-16.24 -67.077)" fill="#f0b48f"/>
              <path id="Trazado_875857" data-name="Trazado 875857" d="M89.032,300.9c14.878-23.369,37.831-23.369,37.831-23.369l60.785,22.944c4.073,10.177,9.312,39.465,9.37,67.686-6.388-.661-12.763.549-19.183.739a2.762,2.762,0,0,0-.379,0c-9.323-.612-18.235.1-27.657-.179-8.7-.261-17.371-1.262-26.015-.4-5.975-.279-11.952-.532-17.935-.581-8.859-.073-17.718.179-26.578.294.468-27.38,2.761-56.139,9.76-67.132" transform="translate(-30.063 -105.252)" fill="#7d86ba"/>
              <path id="Trazado_875858" data-name="Trazado 875858" d="M169.286,380.6h-.542c.061-22.242-.017-44.714-.232-66.793l.542,0c.215,22.08.294,44.555.232,66.8" transform="translate(-63.907 -119.008)" fill="#313440"/>
              <path id="Trazado_875859" data-name="Trazado 875859" d="M156.012,405.267l-.061-.016-19.978-5.1.133-.525,19.917,5.083,23.741-5.086.114.53Z" transform="translate(-51.567 -151.555)" fill="#313440"/>
              <path id="Trazado_875860" data-name="Trazado 875860" d="M169.026,358.014l-.4-.365,8.856-9.7.424-45.785.542,0-.426,45.992Z" transform="translate(-63.95 -114.595)" fill="#313440"/>
              <path id="Trazado_875861" data-name="Trazado 875861" d="M188.613,410.919l-20.4-2.549.066-.538,20.4,2.549Z" transform="translate(-63.793 -154.668)" fill="#313440"/>
              <path id="Trazado_875862" data-name="Trazado 875862" d="M248.029,350.313c-27.161,0-27.476-31.4-27.476-31.713h.542a44.461,44.461,0,0,0,3.385,15.628c4.468,10.313,12.39,15.543,23.549,15.543Z" transform="translate(-83.643 -120.827)" fill="#313440"/>
              <path id="Trazado_875863" data-name="Trazado 875863" d="M83.363,348.485l-.058-.538a32.479,32.479,0,0,0,13.5-5.383c6.043-4.225,13.064-12.643,12.194-28.749l.541-.029c.885,16.366-6.278,24.931-12.443,29.235a33.036,33.036,0,0,1-13.728,5.465" transform="translate(-31.593 -119.001)" fill="#313440"/>
              <path id="Trazado_875864" data-name="Trazado 875864" d="M90.769,231.385s-17.911-5.6-23.206-12.766,26.789-.156,26.789-.156Z" transform="translate(-25.399 -81.687)" fill="#313440"/>
              <path id="Trazado_875865" data-name="Trazado 875865" d="M113.783,114.722c-11.214,1.4-36.591,8.548-43.444,13.686s-10.28,19.3-17.132,27.555-10.124,11.987-10.124,11.987,13.862,20.394,35.822,19.46,80.366-1.868,80.366-1.868l4.672-12.611,1.585,18.6S197.887,186.277,199,171.3c0,0-16.055-45.168-27.736-48.438s-35.09-8.229-35.09-8.229Z" transform="translate(-16.339 -43.473)" fill="#aee6e6"/>
              <path id="Trazado_875866" data-name="Trazado 875866" d="M153.4,312.061s-56.2,7.329-65.427,9.313c.791-2.847,1.713-5.684,2.816-8.691,0,0,4.327-5.25,8.272-9.8a11.025,11.025,0,0,1,2.008-.471c1.246,0,14.64-.312,14.64-.312Z" transform="translate(-33.364 -114.568)" fill="#313440"/>
              <path id="Trazado_875867" data-name="Trazado 875867" d="M105.033,186.931a.341.341,0,0,0,.341-.341c0-.948-2.317-10.027-2.581-11.059a.349.349,0,0,0-.414-.246.342.342,0,0,0-.246.414c1.03,4.019,2.559,10.238,2.559,10.891a.341.341,0,0,0,.341.341" transform="translate(-38.729 -66.473)" fill="#313440"/>
              <path id="Trazado_875868" data-name="Trazado 875868" d="M103.384,184.4a.341.341,0,0,0,.241-.582l-2.8-2.8a.341.341,0,1,0-.483.483l2.8,2.8a.342.342,0,0,0,.241.1" transform="translate(-38.016 -68.611)" fill="#313440"/>
              <path id="Trazado_875869" data-name="Trazado 875869" d="M238.7,189.876a.341.341,0,0,0,.341-.341c0-2.387,4.512-6.478,4.559-6.52a.34.34,0,1,0-.456-.5c-.195.175-4.785,4.336-4.785,7.024a.342.342,0,0,0,.342.341" transform="translate(-90.396 -69.182)" fill="#313440"/>
              <path id="Trazado_875870" data-name="Trazado 875870" d="M246.827,227.212a.346.346,0,0,0,.156.07c8.525,1.433,20.479-9.629,20.984-10.1a.34.34,0,0,0,.014-.48.334.334,0,0,0-.48-.015c-.123.112-12.21,11.3-20.4,9.925a.341.341,0,0,0-.271.6" transform="translate(-93.559 -82.141)" fill="#313440"/>
              <path id="Trazado_875871" data-name="Trazado 875871" d="M80.2,215.756a.341.341,0,0,0,.062-.675c-15.752-2.967-22.579-17.641-22.646-17.787a.345.345,0,0,0-.45-.171.339.339,0,0,0-.17.449c.068.153,7.034,15.143,23.142,18.176a.3.3,0,0,0,.062.007" transform="translate(-21.602 -74.747)" fill="#313440"/>
              <path id="Trazado_875872" data-name="Trazado 875872" d="M168.213,133.406c10.339,0,17.654-9.39,17.736-9.5a.34.34,0,1,0-.54-.412c-.089.117-9.128,11.694-21.14,8.75a.34.34,0,0,0-.164.66,17.261,17.261,0,0,0,4.108.5" transform="translate(-62.138 -46.785)" fill="#313440"/>
              <path id="Trazado_875873" data-name="Trazado 875873" d="M124.052,152.085c.024,0,.048,0,.073,0a.569.569,0,0,0,.49-.636c-1.478-11.444-2.506-29.866,1.03-30.584a.568.568,0,0,0,.443-.669.59.59,0,0,0-.669-.443c-5.6,1.137-2.589,26.724-1.93,31.842a.57.57,0,0,0,.564.494" transform="translate(-46.301 -45.411)" fill="#ffd947"/>
              <path id="Trazado_875874" data-name="Trazado 875874" d="M223.025,153.572a.567.567,0,0,0,.567-.538c.387-7.569,1.363-32.362-2.409-33.646a.558.558,0,0,0-.72.352.566.566,0,0,0,.353.719c2.038.7,2.435,17.078,1.641,32.517a.57.57,0,0,0,.539.6Z" transform="translate(-83.598 -45.264)" fill="#ffd947"/>
              <path id="Trazado_875875" data-name="Trazado 875875" d="M178.514,205.225s6.542-12.455,2.181-20.55a73.965,73.965,0,0,0-11.214-14.945s-25.543,23.352-31.773,23.041-29.9-24.6-29.9-24.6S94.722,180.628,92.23,189.034s3.115,18.837,3.115,18.837-3.582,19.149-5.451,27.867-10.435,29.58-10.435,29.58-.623,2.179,9.033-.312,12.148-5.916,27.1-5.916,42.675,11.832,77.562,1.246c0,0-15.575-49.507-14.641-55.111" transform="translate(-30.131 -63.778)" fill="#ffd947"/>
              <path id="Trazado_875876" data-name="Trazado 875876" d="M197.945,310.876a55.736,55.736,0,0,0,8.54-.609.341.341,0,1,0-.106-.674c-17.7,2.759-40.726-4.811-40.956-4.892a.341.341,0,1,0-.217.647c.2.064,16.813,5.527,32.739,5.527" transform="translate(-62.565 -115.55)" fill="#313440"/>
              <path id="Trazado_875877" data-name="Trazado 875877" d="M157.565,217.589a67.987,67.987,0,0,0,20.446-2.9.339.339,0,0,0,.219-.427.331.331,0,0,0-.427-.219c-20.218,6.43-43.028.061-43.256-.006a.341.341,0,0,0-.186.656,94.959,94.959,0,0,0,23.2,2.9" transform="translate(-50.862 -81.166)" fill="#313440"/>
              <path id="Trazado_875878" data-name="Trazado 875878" d="M152.017,226.6a.344.344,0,0,0,.066-.007c6.113-1.218,21.868-.312,22.03-.308a.042.042,0,0,0,.013,0,.34.34,0,0,0,.027-.68c-.656-.04-16.006-.919-22.2.317a.341.341,0,0,0,.066.675" transform="translate(-57.522 -85.43)" fill="#313440"/>
              <path id="Trazado_875879" data-name="Trazado 875879" d="M43.155,299.59c.7,9.433,3.243,16.487,8.361,19.192,9.073,4.794,35.713,3.4,36.566-26.668-6.368-10.655-32.371,6.555-44.927,7.476" transform="translate(-16.366 -109.467)" fill="#f0b48f"/>
              <path id="Trazado_875880" data-name="Trazado 875880" d="M98.257,63.48c-6.821-.388-13.659-3.757-20.284,5.368s1.376,17.458-3.563,23.308-11.372-1.214-20.584,2.671-15.362,21.812,1.441,28.96,41-9.744,44.932-18,5.062-9.259.9-16.051-7.279-6.065-6.177-12.32,7.2-7.992,7.2-7.992Z" transform="translate(-16.957 -23.723)" fill="#b04526"/>
              <path id="Trazado_875881" data-name="Trazado 875881" d="M47.507,118.468a.657.657,0,0,0,.466-1.12c-6.729-6.754-5.438-13.916-4.07-17.585,2-5.366,6.538-9.637,10.55-9.932a55.524,55.524,0,0,1,6.756.02c3.418.16,6.114.282,7.592-1.084a3.78,3.78,0,0,0,1.106-2.812c.142-4.767,1.487-13.408,4.6-17.671,3.086-4.222,7.743-7.646,20.824-4.144a.658.658,0,0,0,.34-1.271c-13.841-3.706-18.864.038-22.226,4.639C69.9,72.364,68.72,81.672,68.592,85.916a2.542,2.542,0,0,1-.684,1.885c-1.074,1-3.53.881-6.638.737a56.571,56.571,0,0,0-6.913-.019c-4.492.332-9.516,4.969-11.685,10.785-2.516,6.743-.923,13.658,4.369,18.97a.653.653,0,0,0,.466.194" transform="translate(-15.74 -23.272)" fill="#b04526"/>
              <path id="Trazado_875882" data-name="Trazado 875882" d="M216.184,88.868a.657.657,0,0,0,.318-1.232c-1.194-.661-4.173-2.812-3.617-4.8.168-.6.36-1.176.546-1.735.742-2.23,1.443-4.337.186-6.569a10.065,10.065,0,0,0-1.784-2.281,7.4,7.4,0,0,1-2.1-3.427.658.658,0,1,0-1.25.408,8.7,8.7,0,0,0,2.409,3.938,8.8,8.8,0,0,1,1.577,2.007c.971,1.726.415,3.4-.288,5.51-.192.577-.39,1.174-.564,1.8-.949,3.39,4.035,6.184,4.247,6.3a.645.645,0,0,0,.317.082" transform="translate(-79.054 -25.93)" fill="#b04526"/>
              <path id="Trazado_875883" data-name="Trazado 875883" d="M146.082,94.245a.657.657,0,0,0,.093-1.308.755.755,0,0,1-.649-.459c-.628-1.356.6-5.1,2.867-8.717,1.719-2.749,1.172-3.959.137-5.707a11.561,11.561,0,0,1-1.633-4.088.657.657,0,0,0-1.291.246,12.713,12.713,0,0,0,1.793,4.512c.867,1.463,1.263,2.13-.12,4.338-1.615,2.581-4.052,7.583-2.945,9.968a2.063,2.063,0,0,0,1.654,1.208.811.811,0,0,0,.094.006" transform="translate(-54.632 -27.849)" fill="#b04526"/>
              <path id="Trazado_875884" data-name="Trazado 875884" d="M145.721,2.5s-5.638-.58-9.6,2.14-12.259,17.819-9.061,30.865,15.567,14.68,18.3,20.487l31.993-21.2s3.184-13.932,1.013-21.02S159.978-5.2,145.721,2.5" transform="translate(-47.914 0)" fill="#b04526"/>
              <path id="Trazado_875885" data-name="Trazado 875885" d="M201.705,54.2s5.208-5.5,9.689-3.978,5.244,11.113.487,13.061-10.567-1.7-10.567-1.7Z" transform="translate(-76.347 -18.945)" fill="#dda583"/>
              <path id="Trazado_875886" data-name="Trazado 875886" d="M213.142,63.032a.217.217,0,0,0,.058-.016,4.671,4.671,0,0,0,.279-7.805c-1.088-.574-2.551-.461-5.046.392a.2.2,0,0,0,.127.371c2.351-.8,3.767-.928,4.737-.417a3.792,3.792,0,0,1,1.667,2.566,3.721,3.721,0,0,1-1.925,4.538.2.2,0,0,0,.1.372" transform="translate(-78.996 -20.803)" fill="#313440"/>
              <path id="Trazado_875887" data-name="Trazado 875887" d="M179.64,96.18c-.4-3.908-.693-8.2-.693-8.2L159.8,82.248c3.4,7.9,11.4,11.131,19.836,13.932" transform="translate(-60.605 -31.192)" fill="#313440"/>
              <path id="Trazado_875888" data-name="Trazado 875888" d="M178.949,101.654a42.015,42.015,0,0,1-.894-5.948c-8.435-2.8-16.44-6.037-19.835-13.933L155.625,81s2.787,18.353.546,21.054,25.039,6.533,22.778-.4" transform="translate(-59.02 -30.718)" fill="#f0b48f"/>
              <path id="Trazado_875889" data-name="Trazado 875889" d="M182.162,18.4c1.451,3.6.109,9.133,1.458,16.648s2,22.644-8.665,25.686a30.144,30.144,0,0,1-20.088-1.412c-3.1-1.428-6.844-7.2-8.383-12.445l-6.635-16.462A20.327,20.327,0,0,1,154.062,4.94q.383-.1.778-.185C176.583-.041,182.162,18.4,182.162,18.4" transform="translate(-52.719 -1.501)" fill="#f0b48f"/>
              <path id="Trazado_875890" data-name="Trazado 875890" d="M168.473,49.845a.782.782,0,0,0,.515-.221,5.657,5.657,0,0,1,4.6-1.13.783.783,0,0,0,.214-1.551,7.185,7.185,0,0,0-5.912,1.562.783.783,0,0,0,.581,1.34" transform="translate(-63.584 -17.771)" fill="#313440"/>
              <path id="Trazado_875891" data-name="Trazado 875891" d="M196.525,46.739a.784.784,0,0,0,.559-.04,5.66,5.66,0,0,1,4.719.445.783.783,0,0,0,.711-1.394,7.185,7.185,0,0,0-6.1-.467.783.783,0,0,0,.109,1.456" transform="translate(-74.32 -17)" fill="#313440"/>
              <path id="Trazado_875892" data-name="Trazado 875892" d="M145.179,39.529s8.533-7.144,17.147-23.8c0,0,12.105,8.769,14.925,9.959s4.32,6,4.32,6a35.13,35.13,0,0,0,.323-14.195C180.1,8.4,164.377-.614,149.808,5.091s-15.545,22.717-15.545,22.717l4.489,12.159Z" transform="translate(-50.918 -1.254)" fill="#b04526"/>
              <path id="Trazado_875893" data-name="Trazado 875893" d="M171.061,15.964a.3.3,0,0,1-.273-.172c-.036-.071-3.474-7.052-13.33-12.108a.3.3,0,0,1-.133-.406.308.308,0,0,1,.406-.132c10.053,5.157,13.567,12.311,13.6,12.382a.3.3,0,0,1-.14.4.315.315,0,0,1-.13.032" transform="translate(-59.651 -1.182)" fill="#fff"/>
              <path id="Trazado_875894" data-name="Trazado 875894" d="M189.421,64.172a.186.186,0,0,1-.089-.344,3.9,3.9,0,0,0,1.621-3.03,2.991,2.991,0,0,0-.859-1.982,13.9,13.9,0,0,1-1.276-2.007.186.186,0,0,1,.33-.169,13.584,13.584,0,0,0,1.245,1.957,3.307,3.307,0,0,1,.931,2.217,4.234,4.234,0,0,1-1.8,3.332.193.193,0,0,1-.1.027" transform="translate(-71.6 -21.442)" fill="#313440"/>
              <path id="Trazado_875895" data-name="Trazado 875895" d="M170.934,56.78c-3.358,0-6.09-3.523-6.09-7.853s2.733-7.853,6.09-7.853,6.09,3.523,6.09,7.853-2.732,7.853-6.09,7.853m0-15.163c-3.06,0-5.548,3.279-5.548,7.311s2.489,7.311,5.548,7.311,5.548-3.279,5.548-7.311-2.489-7.311-5.548-7.311" transform="translate(-62.516 -15.577)" fill="#313440"/>
              <path id="Trazado_875896" data-name="Trazado 875896" d="M198.18,56.78c-3.358,0-6.09-3.523-6.09-7.853s2.733-7.853,6.09-7.853,6.091,3.523,6.091,7.853-2.733,7.853-6.091,7.853m0-15.163c-3.06,0-5.548,3.279-5.548,7.311s2.489,7.311,5.548,7.311,5.548-3.279,5.548-7.311-2.489-7.311-5.548-7.311" transform="translate(-72.849 -15.577)" fill="#313440"/>
              <path id="Trazado_875897" data-name="Trazado 875897" d="M189.157,54.358a.272.272,0,0,1-.243-.15c-.009-.017-.886-1.751-2.225-1.853-.859-.086-1.762.554-2.673,1.845a.271.271,0,1,1-.443-.313c1.029-1.458,2.082-2.163,3.159-2.072,1.646.127,2.626,2.069,2.667,2.152a.271.271,0,0,1-.243.391" transform="translate(-69.6 -19.647)" fill="#313440"/>
              <rect id="Rectángulo_401964" data-name="Rectángulo 401964" width="12.467" height="0.542" transform="translate(90.177 34.517)" fill="#313440"/>
              <path id="Trazado_875898" data-name="Trazado 875898" d="M149.821,57.8s-5.471-5.651-10.1-4.018-5.314,11.6-.354,13.565,10.95-1.889,10.95-1.889Z" transform="translate(-51.551 -20.285)" fill="#f0b48f"/>
              <path id="Trazado_875899" data-name="Trazado 875899" d="M142.2,67.072a.212.212,0,0,1-.06-.016,4.85,4.85,0,0,1-.381-8.1c1.124-.609,2.643-.508,5.244.348a.2.2,0,0,1-.127.386c-2.45-.807-3.922-.919-4.923-.377a3.933,3.933,0,0,0-1.7,2.683,3.861,3.861,0,0,0,2.05,4.688.2.2,0,0,1-.1.388" transform="translate(-52.972 -22.211)" fill="#313440"/>
              <path id="Trazado_875900" data-name="Trazado 875900" d="M175.521,72.922c1.122-1.682,4.211,1.024,7.524,1.323s4.051-1.012,5.163.18-1.225,6-7.325,4.867-6.386-4.837-5.363-6.37" transform="translate(-66.393 -27.448)" fill="#fff"/>
              <path id="Trazado_875901" data-name="Trazado 875901" d="M175.048,53.944c0-1.047.4-1.9.9-1.9s.9.849.9,1.9-.4,1.9-.9,1.9-.9-.849-.9-1.9" transform="translate(-66.386 -19.739)" fill="#313440"/>
              <path id="Trazado_875902" data-name="Trazado 875902" d="M202.017,52.926c0-1.047.4-1.9.9-1.9s.9.849.9,1.9-.4,1.9-.9,1.9-.9-.849-.9-1.9" transform="translate(-76.614 -19.353)" fill="#313440"/>
              <rect id="Rectángulo_401965" data-name="Rectángulo 401965" width="92.109" height="3.226" transform="translate(45.408 180.679)" fill="#298c91"/>
              <path id="Trazado_875903" data-name="Trazado 875903" d="M72.477,194.758h90.538a2.641,2.641,0,0,1,2.641,2.641v55.142a2.641,2.641,0,0,1-2.641,2.641H72.477a2.641,2.641,0,0,1-2.641-2.641V197.4a2.641,2.641,0,0,1,2.641-2.641" transform="translate(-26.485 -73.861)" fill="#34b7bf"/>
              <path id="Trazado_875904" data-name="Trazado 875904" d="M199.537,224.855a.271.271,0,0,1-.271-.271V196.863a2.05,2.05,0,0,0-2.048-2.048H159.2a.271.271,0,1,1,0-.542h38.02a2.594,2.594,0,0,1,2.59,2.59v27.721a.271.271,0,0,1-.271.271" transform="translate(-60.272 -73.677)" fill="#231714"/>
              <path id="Trazado_875905" data-name="Trazado 875905" d="M70.168,210.463a.271.271,0,0,1-.271-.271V196.012a1.416,1.416,0,0,1,1.414-1.414H82.674a.271.271,0,0,1,0,.542H71.311a.872.872,0,0,0-.872.872v14.179a.271.271,0,0,1-.271.271" transform="translate(-26.508 -73.8)" fill="#231714"/>
              <path id="Trazado_875906" data-name="Trazado 875906" d="M146.174,243.625c-1.053.73-2.765.042-3.89-.381a30.223,30.223,0,0,1-7.085-3.812,8.236,8.236,0,0,1-2.429-2.438,3.708,3.708,0,0,1,1.273-5,4.429,4.429,0,0,1,5.715.207,28.105,28.105,0,0,1,6.213,6.69c.683,1.032,1.413,2.993.7,4.184a1.725,1.725,0,0,1-.5.546" transform="translate(-50.161 -87.624)" fill="#fff"/>
              <path id="Trazado_875907" data-name="Trazado 875907" d="M150.873,231.437c.6-.3,1.436.2,1.985.5a15.8,15.8,0,0,1,3.371,2.532,4.311,4.311,0,0,1,1.067,1.454,1.943,1.943,0,0,1-1.052,2.489,2.321,2.321,0,0,1-2.945-.556,14.734,14.734,0,0,1-2.693-3.955,2.384,2.384,0,0,1-.035-2.223.9.9,0,0,1,.3-.244" transform="translate(-57.002 -87.736)" fill="#fff"/>
              <path id="Trazado_875908" data-name="Trazado 875908" d="M169.386,291.818H99.2a.271.271,0,1,1,0-.542h70.191a.271.271,0,1,1,0,.542" transform="translate(-37.516 -110.464)" fill="#231714"/>
              <path id="Trazado_875909" data-name="Trazado 875909" d="M82.371,287.71l.877-13.868c.158-2.477,2.558-4.386,5.363-4.272a4.873,4.873,0,0,1,4.662,3.472,5.344,5.344,0,0,1,9.331-.909,5.312,5.312,0,0,1,4.628-2.222,4.862,4.862,0,0,1,4.684,3.55,4.755,4.755,0,0,1,4.175-2.029,4.2,4.2,0,0,1,4.3,4.2l-.786,12.434a3.665,3.665,0,0,1-.489,1.6,4.74,4.74,0,0,1-4.319,2.227,4.519,4.519,0,0,1-3.887-2.338,4.208,4.208,0,0,1-.3.7,5.288,5.288,0,0,1-4.819,2.484,5.1,5.1,0,0,1-4.193-2.344,5.3,5.3,0,0,1-4.62,2.235,4.873,4.873,0,0,1-4.661-3.469,4.25,4.25,0,0,1-.328.753,5.287,5.287,0,0,1-4.818,2.483c-2.8-.114-4.951-2.211-4.8-4.685" transform="translate(-31.236 -102.231)" fill="#dda583"/>
              <path id="Trazado_875910" data-name="Trazado 875910" d="M99.422,275.017a.2.2,0,0,0-.385.037l-.959,16.117a.182.182,0,0,0,.185.181.191.191,0,0,0,.206-.166l.959-16.117a.143.143,0,0,0-.006-.052" transform="translate(-37.195 -104.249)" fill="#1f1312"/>
              <path id="Trazado_875911" data-name="Trazado 875911" d="M114.41,273.551a.189.189,0,0,0-.171-.128.193.193,0,0,0-.215.158l-1.032,9.863a.178.178,0,0,0,.177.186.193.193,0,0,0,.214-.158l1.033-9.863a.163.163,0,0,0-.006-.058" transform="translate(-42.851 -103.694)" fill="#1f1312"/>
              <path id="Trazado_875912" data-name="Trazado 875912" d="M129.02,282.082a.189.189,0,0,0-.17-.128.192.192,0,0,0-.215.156l-1.31,11.17a.173.173,0,0,0,.174.188.192.192,0,0,0,.215-.156l1.31-11.17a.14.14,0,0,0,0-.06" transform="translate(-48.286 -106.929)" fill="#1f1312"/>
              <path id="Trazado_875913" data-name="Trazado 875913" d="M129.877,275.691a.186.186,0,0,0-.16-.127.2.2,0,0,0-.224.146l-.269,1.561a.175.175,0,0,0,.165.2.2.2,0,0,0,.224-.147l.269-1.561a.15.15,0,0,0,0-.069" transform="translate(-49.006 -104.505)" fill="#1f1312"/>
              <path id="Trazado_875914" data-name="Trazado 875914" d="M92.072,278.114a.165.165,0,0,0,.018-.05l.739-3.589a.16.16,0,0,0-.046-.149,5.835,5.835,0,0,0-4.065-1.5.2.2,0,0,0-.2.183.19.19,0,0,0,.205.176A5.556,5.556,0,0,1,92.41,274.5l-.7,3.421a6.235,6.235,0,0,1-5.687-.255l.562-2.985a.179.179,0,0,0-.166-.2.2.2,0,0,0-.234.149l-.584,3.1a.168.168,0,0,0,.081.175c.033.02,3.266,1.983,6.321.282a.2.2,0,0,0,.073-.071" transform="translate(-32.461 -103.465)" fill="#1f1312"/>
              <path id="Trazado_875915" data-name="Trazado 875915" d="M107.835,277.014a.168.168,0,0,0,.014-.051l.426-3.626a.163.163,0,0,0-.059-.145,5.955,5.955,0,0,0-4.186-1.225.181.181,0,1,0,.037.358,5.668,5.668,0,0,1,3.793,1.068l-.407,3.456c-2.384,1.5-5.121.391-5.7.128l.3-3.011a.184.184,0,0,0-.184-.192.2.2,0,0,0-.22.164l-.314,3.127a.171.171,0,0,0,.1.169c.035.017,3.431,1.755,6.331-.144a.191.191,0,0,0,.067-.076" transform="translate(-38.432 -103.133)" fill="#1f1312"/>
              <path id="Trazado_875916" data-name="Trazado 875916" d="M122.86,278.135a.163.163,0,0,0,.014-.051l.426-3.626a.163.163,0,0,0-.059-.145,5.955,5.955,0,0,0-4.186-1.225.181.181,0,1,0,.037.358,5.669,5.669,0,0,1,3.793,1.068l-.407,3.456c-2.384,1.5-5.121.391-5.7.128l.3-3.011a.184.184,0,0,0-.184-.192.2.2,0,0,0-.22.164l-.314,3.127a.171.171,0,0,0,.1.169c.035.017,3.431,1.755,6.331-.144a.191.191,0,0,0,.067-.076" transform="translate(-44.13 -103.558)" fill="#1f1312"/>
              <path id="Trazado_875917" data-name="Trazado 875917" d="M137.7,280.581a.153.153,0,0,0,.013-.048l.4-3.435a.152.152,0,0,0-.055-.137,5.638,5.638,0,0,0-3.965-1.16.171.171,0,1,0,.035.338,5.369,5.369,0,0,1,3.593,1.012l-.385,3.274a5.932,5.932,0,0,1-5.4.121l.287-2.852a.174.174,0,0,0-.174-.182.189.189,0,0,0-.209.155l-.3,2.962a.162.162,0,0,0,.091.16c.033.016,3.25,1.663,6-.136a.187.187,0,0,0,.064-.072" transform="translate(-49.888 -104.588)" fill="#1f1312"/>
              <path id="Trazado_875918" data-name="Trazado 875918" d="M350.536,253.282s15.137-15.014,28.131-14.776c7.616.14,18.813,6.256,18.813,6.256s.768,29.5-5.479,32.039-33.792.514-33.792.514Z" transform="translate(-132.938 -90.451)" fill="#f0b48f"/>
              <path id="Trazado_875919" data-name="Trazado 875919" d="M368.852,240.761a4.564,4.564,0,0,1,2.283-4.422c9.8-5.584,21.462-13,23.209-15.246a4.566,4.566,0,0,1,7.208,5.607c-3.661,4.7-20.746,14.637-25.894,17.569a4.569,4.569,0,0,1-6.806-3.507" transform="translate(-139.876 -83.18)" fill="#f0b48f"/>
              <path id="Trazado_875920" data-name="Trazado 875920" d="M391.673,254.9A4.567,4.567,0,0,1,395,248.4c.182-.03,18.23-3.177,26.722-5.458l8.792-2.363a4.564,4.564,0,1,1,2.37,8.815l-8.792,2.362c-8.889,2.388-26.77,5.506-27.526,5.638a4.57,4.57,0,0,1-4.89-2.5" transform="translate(-148.365 -91.178)" fill="#f0b48f"/>
              <path id="Trazado_875921" data-name="Trazado 875921" d="M399.9,267.525a4.567,4.567,0,0,1,3.61-6.53c11.1-1.222,30.349-3.8,34.735-5.5a4.564,4.564,0,1,1,3.31,8.507c-6.941,2.7-33.986,5.73-37.047,6.068a4.569,4.569,0,0,1-4.609-2.544" transform="translate(-151.486 -96.776)" fill="#f0b48f"/>
              <path id="Trazado_875922" data-name="Trazado 875922" d="M406.345,281.093a4.566,4.566,0,0,1,4.055-6.555c.211,0,21.119-.27,28.714-1.775a4.564,4.564,0,1,1,1.777,8.954c-8.419,1.668-29.488,1.937-30.381,1.949a4.569,4.569,0,0,1-4.165-2.574" transform="translate(-153.931 -103.41)" fill="#f0b48f"/>
              <path id="Trazado_875923" data-name="Trazado 875923" d="M404.311,292.07a4.564,4.564,0,0,1,4.742-6.508c.178.024,17.771,2.478,24.347,2.718a4.564,4.564,0,1,1-.333,9.122c-7.042-.257-24.538-2.7-25.279-2.8a4.56,4.56,0,0,1-3.477-2.531" transform="translate(-153.159 -108.28)" fill="#f0b48f"/>
              <path id="Trazado_875924" data-name="Trazado 875924" d="M374.3,268.291a.282.282,0,0,1,0-.056.38.38,0,0,1,.4-.361c15.023.711,17.091-12.708,17.171-13.28a.381.381,0,0,1,.754.1c-.021.147-2.237,14.68-17.963,13.935a.38.38,0,0,1-.359-.342" transform="translate(-141.951 -96.429)" fill="#313440"/>
              <path id="Trazado_875925" data-name="Trazado 875925" d="M418.954,279.5a.393.393,0,0,1-.013-.112c.007-.182.669-18.151.289-24.648a.381.381,0,1,1,.761-.043c.381,6.532-.282,24.539-.289,24.719a.381.381,0,0,1-.748.084" transform="translate(-158.88 -96.456)" fill="#313440"/>
              <path id="Trazado_875926" data-name="Trazado 875926" d="M419.245,286.8a.318.318,0,0,1-.032-.173.307.307,0,0,1,.338-.268l13.732,1.6a.3.3,0,1,1-.07.606l-13.732-1.6a.307.307,0,0,1-.236-.165" transform="translate(-158.983 -108.598)" fill="#313440"/>
              <path id="Trazado_875927" data-name="Trazado 875927" d="M420.376,273.75a.3.3,0,0,1,.278-.443l13.215.29a.3.3,0,0,1,.3.312.307.307,0,0,1-.312.3l-13.214-.29a.3.3,0,0,1-.264-.167" transform="translate(-159.411 -103.65)" fill="#313440"/>
              <path id="Trazado_875928" data-name="Trazado 875928" d="M420.181,261.122a.281.281,0,0,1-.032-.13.3.3,0,0,1,.295-.31l8.833-.22a.3.3,0,0,1,.31.3.3.3,0,0,1-.3.31l-8.833.22a.3.3,0,0,1-.279-.164" transform="translate(-159.338 -98.778)" fill="#313440"/>
              <rect id="Rectángulo_401966" data-name="Rectángulo 401966" width="18.087" height="18.403" transform="translate(220.406 235.408)" fill="#34b7bf"/>
              <path id="Trazado_875945" data-name="Trazado 875945" d="M432.737,387.367H393.186a1.86,1.86,0,1,1,0-3.72h39.552a1.86,1.86,0,1,1,0,3.72" transform="translate(-148.408 -145.495)" fill="#12263f"/>
              <path id="Trazado_875946" data-name="Trazado 875946" d="M417.174,402.184H393.186a1.86,1.86,0,0,1,0-3.72h23.989a1.86,1.86,0,0,1,0,3.72" transform="translate(-148.408 -151.115)" fill="#12263f"/>
              <rect id="Rectángulo_401967" data-name="Rectángulo 401967" width="18.087" height="18.403" transform="translate(220.419 204.618)" fill="#34b7bf"/>
              <path id="Trazado_875947" data-name="Trazado 875947" d="M364.159,346.743a1.068,1.068,0,0,1-.762-.322l-4.311-4.386a1.109,1.109,0,0,1,0-1.551,1.064,1.064,0,0,1,1.524,0l3.488,3.549,7.326-8.695a1.062,1.062,0,0,1,1.519-.119,1.107,1.107,0,0,1,.117,1.545l-8.083,9.6a1.066,1.066,0,0,1-.777.382h-.041" transform="translate(-136.061 -127.029)" fill="#fff"/>
              <path id="Trazado_875948" data-name="Trazado 875948" d="M432.746,337.765H393.208a1.86,1.86,0,1,1,0-3.72h39.537a1.86,1.86,0,1,1,0,3.72" transform="translate(-148.416 -126.684)" fill="#12263f"/>
              <path id="Trazado_875949" data-name="Trazado 875949" d="M417.183,352.583H393.209a1.86,1.86,0,1,1,0-3.72h23.974a1.86,1.86,0,1,1,0,3.72" transform="translate(-148.416 -132.304)" fill="#12263f"/>
              <path id="Trazado_875950" data-name="Trazado 875950" d="M364.159,397.152a1.068,1.068,0,0,1-.762-.322l-4.311-4.386a1.109,1.109,0,0,1,0-1.551,1.064,1.064,0,0,1,1.524,0l3.488,3.549,7.326-8.695a1.062,1.062,0,0,1,1.519-.119,1.107,1.107,0,0,1,.117,1.545l-8.083,9.6a1.066,1.066,0,0,1-.777.382h-.041" transform="translate(-136.061 -146.147)" fill="#fff"/>
              <path id="Trazado_875951" data-name="Trazado 875951" d="M27.512,60.291,24.084,43.129a7.053,7.053,0,0,0-5.454-5.52l-.081-.022L7.759,34,18.82,29.977a7.082,7.082,0,0,0,5.319-5.407L27.845,7.155l4.059,17.6a7.018,7.018,0,0,0,5.206,5.271l11.845,3.8L37.2,37.786a7.085,7.085,0,0,0-5.476,5.249ZM18.986,36.141a8.56,8.56,0,0,1,6.579,6.692l2.094,10.483,2.594-10.639a8.6,8.6,0,0,1,6.6-6.362l7.276-2.456L36.7,31.475a8.494,8.494,0,0,1-6.268-6.383L27.9,14.131,25.616,24.884a8.6,8.6,0,0,1-6.411,6.555l-6.854,2.5Z" transform="translate(-2.943 -2.713)" fill="#34b7bf"/>
              <path id="Trazado_875952" data-name="Trazado 875952" d="M476.524,197.877l7.481-2.526-7.573-2.43a6.156,6.156,0,0,1-4.542-4.6l-2.6-11.252-2.361,11.1a6.159,6.159,0,0,1-4.64,4.717l-7.041,2.566,6.882,2.286a6.157,6.157,0,0,1,4.757,4.815l2.176,10.892,2.68-10.991a6.157,6.157,0,0,1,4.777-4.579" transform="translate(-172.652 -67.153)" fill="#ffd947"/>
              <path id="Trazado_875953" data-name="Trazado 875953" d="M304.3,365.814l8.149-2.751-8.249-2.648a6.707,6.707,0,0,1-4.948-5.008l-2.827-12.257-2.572,12.09a6.708,6.708,0,0,1-5.054,5.139l-7.669,2.8,7.5,2.49a6.707,6.707,0,0,1,5.183,5.245l2.37,11.865L299.1,370.8a6.705,6.705,0,0,1,5.2-4.987" transform="translate(-106.617 -130.137)" fill="#e2e2ec"/>
              <path id="Trazado_875954" data-name="Trazado 875954" d="M248.388,424.7h-41.9a.759.759,0,1,1,0-1.518h41.9a.759.759,0,1,1,0,1.518" transform="translate(-78.021 -160.49)" fill="#545e7d"/>
              <path id="Trazado_875955" data-name="Trazado 875955" d="M121.877,424.734h0L.759,424.7a.759.759,0,1,1,0-1.518l121.118.032a.759.759,0,1,1,0,1.518" transform="translate(0 -160.49)" fill="#545e7d"/>
            </g>
          </g>
        </g>
      </g>
    </g>
  </g>
</svg>
