<svg xmlns="http://www.w3.org/2000/svg" width="91.927" height="91.927" viewBox="0 0 91.927 91.927">
  <g id="Grupo_57594" data-name="Grupo 57594" transform="translate(-312.072 -10472.609)">
    <g id="Grupo_57590" data-name="Grupo 57590" transform="translate(95.072 9731.275)">
      <g id="Grupo_42274" data-name="Grupo 42274" transform="translate(142 768.333)">
        <g id="Grupo_18423" data-name="Grupo 18423" transform="translate(75 -27)">
          <g id="Grupo_18421" data-name="Grupo 18421">
            <g id="Grupo_18420" data-name="Grupo 18420">
              <g id="Grupo_18419" data-name="Grupo 18419">
                <path id="Trazado_40936" data-name="Trazado 40936" d="M286.55,2191.684a45.964,45.964,0,1,1-45.963-45.962A45.963,45.963,0,0,1,286.55,2191.684Z" transform="translate(-194.623 -2145.721)" fill="#aee6e6"/>
              </g>
            </g>
          </g>
          <path id="Trazado_40937" data-name="Trazado 40937" d="M286.23,2191.334a45.963,45.963,0,1,0-45.963,45.965A45.782,45.782,0,0,0,286.23,2191.334Z" transform="translate(-194.303 -2145.372)" fill="#aee6e6"/>
          <path id="Trazado_40938" data-name="Trazado 40938" d="M272.56,2188.562a35.084,35.084,0,1,0-35.084,35.084A34.953,34.953,0,0,0,272.56,2188.562Z" transform="translate(-191.373 -2142.446)" fill="#aee6e6" stroke="#31aebb" stroke-miterlimit="10" stroke-width="4"/>
          <g id="Grupo_18422" data-name="Grupo 18422" transform="translate(8.143 25.805)">
            <path id="Trazado_40939" data-name="Trazado 40939" d="M279.682,2164.488a45.969,45.969,0,0,1-79.137,45.773,45.823,45.823,0,0,0,79.137-45.773Z" transform="translate(-200.545 -2164.488)" fill="#aee6e6"/>
          </g>
        </g>
      </g>
    </g>
    <g id="_007-speech_bubble" data-name="007-speech bubble" transform="translate(334.69 10455.922)">
      <path id="Trazado_130947" data-name="Trazado 130947" d="M165.086,52.527H153.152v-5.7a3.55,3.55,0,0,0-3.546-3.546H133.5a.709.709,0,0,0,0,1.418h16.107a2.131,2.131,0,0,1,2.129,2.129V56.894a.709.709,0,1,0,1.418,0v-2.95h11.934a2.131,2.131,0,0,1,2.129,2.129V75.611a2.131,2.131,0,0,1-2.129,2.129h-2.365a.709.709,0,0,0-.709.709v2.969l-5.04-3.548a.708.708,0,0,0-.408-.129h-7.9a.709.709,0,1,0,0,1.418h7.672l5.973,4.205a.709.709,0,0,0,1.117-.58V79.157h1.656a3.55,3.55,0,0,0,3.546-3.546V56.073a3.55,3.55,0,0,0-3.546-3.546Z" transform="translate(-120.239 0)" fill="#26aab7"/>
      <path id="Trazado_130948" data-name="Trazado 130948" d="M61.139,106.848h0a2.187,2.187,0,0,0,2.185-2.185v-4.379h.56l5.725,2.862a2.13,2.13,0,0,0,2.014,1.445h0a2.129,2.129,0,0,0,2.127-2.127V90.533a2.127,2.127,0,0,0-4.143-.681l-5.725,2.862H59.744a3.786,3.786,0,0,0-.789,7.488v4.462A2.187,2.187,0,0,0,61.139,106.848Zm.769-2.185a.768.768,0,0,1-.767.767h0a.768.768,0,0,1-.767-.767v-4.379h1.536v4.379Zm9.718-14.84a.71.71,0,0,1,.709.709v11.933a.71.71,0,0,1-.709.709h0a.71.71,0,0,1-.709-.709V90.533A.71.71,0,0,1,71.626,89.824ZM69.5,101.506l-4.736-2.368V93.86L69.5,91.492ZM57.378,96.5a2.368,2.368,0,0,1,2.366-2.366h3.6v4.736h-3.6A2.369,2.369,0,0,1,57.378,96.5Z" transform="translate(-50.671 -40.861)" fill="#26aab7"/>
      <path id="Trazado_130949" data-name="Trazado 130949" d="M260.807,105.179a.709.709,0,0,0-1,0l-2.3,2.3a.709.709,0,1,0,1,1l2.3-2.3A.709.709,0,0,0,260.807,105.179Z" transform="translate(-232.98 -55.86)" fill="#26aab7"/>
      <path id="Trazado_130950" data-name="Trazado 130950" d="M257.506,205.554l2.3,2.3a.709.709,0,1,0,1-1l-2.3-2.3a.709.709,0,1,0-1,1Z" transform="translate(-232.979 -145.841)" fill="#26aab7"/>
      <path id="Trazado_130951" data-name="Trazado 130951" d="M258.008,166.53a.709.709,0,0,0,0,1.418h2.3a.709.709,0,1,0,0-1.418Z" transform="translate(-232.98 -111.601)" fill="#26aab7"/>
      <path id="Trazado_130952" data-name="Trazado 130952" d="M413.083,254.264a2.317,2.317,0,1,0-2.317,2.317A2.319,2.319,0,0,0,413.083,254.264Zm-3.216,0a.9.9,0,1,1,.9.9A.9.9,0,0,1,409.867,254.264Z" transform="translate(-369.843 -188.944)" fill="#26aab7"/>
      <path id="Trazado_130953" data-name="Trazado 130953" d="M25.34,77.74H19.027A2.131,2.131,0,0,1,16.9,75.611v-5.7H29.367a3.59,3.59,0,0,0,2.94-1.563,3.548,3.548,0,0,0,.456-.964,2.316,2.316,0,1,0,.144-4.2c0-.853.005-1.9.007-3.2a.709.709,0,0,0-.708-.71h0a.709.709,0,0,0-.709.708c0,2.512-.016,6.32-.03,6.737a2.089,2.089,0,0,1-.334.834,2.156,2.156,0,0,1-1.765.939h-17.3a.709.709,0,0,0-.408.129L6.62,72.17V69.2a.709.709,0,0,0-.709-.709H3.546a2.131,2.131,0,0,1-2.129-2.129V46.826A2.131,2.131,0,0,1,3.546,44.7H10.17a.709.709,0,0,0,0-1.418H3.546A3.55,3.55,0,0,0,0,46.826V66.364a3.55,3.55,0,0,0,3.546,3.546H5.2v3.626a.709.709,0,0,0,1.117.58l5.972-4.205H15.48v5.7a3.55,3.55,0,0,0,3.546,3.546H25.34a.709.709,0,1,0,0-1.418Zm8.472-13.319a.9.9,0,1,1-.9.9A.9.9,0,0,1,33.812,64.421Z" transform="translate(0 0)" fill="#26aab7"/>
    </g>
  </g>
</svg>
