<svg id="Grupo_1100732" data-name="Grupo 1100732" xmlns="http://www.w3.org/2000/svg" xmlns:xlink="http://www.w3.org/1999/xlink" width="190" height="170.165" viewBox="0 0 190 170.165">
  <defs>
    <clipPath id="clip-path">
      <rect id="Rect치ngulo_401914" data-name="Rect치ngulo 401914" width="190" height="170.165" fill="none"/>
    </clipPath>
  </defs>
  <g id="Grupo_1100731" data-name="Grupo 1100731" clip-path="url(#clip-path)">
    <path id="Trazado_875386" data-name="Trazado 875386" d="M225.589,95.992c-1.9,111.481-167.729,111.463-169.616,0,1.9-111.477,167.729-111.459,169.616,0" transform="translate(-42.61 -9.43)" fill="#c9f2f1"/>
    <path id="Trazado_875387" data-name="Trazado 875387" d="M12.26,643.258H.776a.776.776,0,0,1,0-1.552H12.26a.776.776,0,0,1,0,1.552" transform="translate(0 -488.504)" fill="#2e0f07"/>
    <path id="Trazado_875388" data-name="Trazado 875388" d="M311.617,643.258H300.133a.776.776,0,0,1,0-1.552h11.484a.776.776,0,0,1,0,1.552" transform="translate(-227.888 -488.504)" fill="#2e0f07"/>
    <path id="Trazado_875389" data-name="Trazado 875389" d="M126.27,643.258H80.332a.776.776,0,0,1,0-1.552H126.27a.776.776,0,0,1,0,1.552" transform="translate(-60.563 -488.504)" fill="#2e0f07"/>
    <path id="Trazado_875390" data-name="Trazado 875390" d="M427.979,642.451c-.789-.756-111.806,1.459-111.646-.774-.18-2.236,110.877-.022,111.647-.779a.777.777,0,0,1,0,1.553" transform="translate(-240.811 -487.697)" fill="#2e0f07"/>
    <path id="Trazado_875391" data-name="Trazado 875391" d="M216.274,179.88V53.769a8.262,8.262,0,0,1,8.262-8.262h79.471a8.262,8.262,0,0,1,8.262,8.262V179.88a8.262,8.262,0,0,1-8.262,8.262H224.536a8.262,8.262,0,0,1-8.262-8.262" transform="translate(-164.64 -34.643)" fill="#dee2e6"/>
    <path id="Trazado_875392" data-name="Trazado 875392" d="M301.533,186.444H222.063a9.048,9.048,0,0,1-9.038-9.038V51.295a9.048,9.048,0,0,1,9.038-9.038h79.471a9.048,9.048,0,0,1,9.038,9.038V177.406a9.048,9.048,0,0,1-9.038,9.038M222.063,43.809a7.494,7.494,0,0,0-7.486,7.486V177.406a7.494,7.494,0,0,0,7.486,7.486h79.471a7.494,7.494,0,0,0,7.486-7.486V51.295a7.494,7.494,0,0,0-7.486-7.486Z" transform="translate(-162.167 -32.169)" fill="#2e0f07"/>
    <path id="Trazado_875393" data-name="Trazado 875393" d="M240.043,188.488V73.209a6.256,6.256,0,0,1,6.256-6.256h72.133a6.256,6.256,0,0,1,6.256,6.256V188.488a6.256,6.256,0,0,1-6.256,6.256H246.3a6.256,6.256,0,0,1-6.256-6.256" transform="translate(-182.735 -50.969)" fill="#a6def5"/>
    <path id="Trazado_875394" data-name="Trazado 875394" d="M240.043,191.951V83.483a5.929,5.929,0,0,1,5.929-5.929h68.881a5.929,5.929,0,0,1,5.929,5.929V191.951a5.929,5.929,0,0,1-5.929,5.929H245.972a5.929,5.929,0,0,1-5.929-5.929" transform="translate(-182.735 -59.039)" fill="#e1f4fb"/>
    <path id="Trazado_875395" data-name="Trazado 875395" d="M315.378,192.648H243.246a7.222,7.222,0,0,1-7.214-7.214V70.156a7.222,7.222,0,0,1,7.214-7.214h72.133a7.222,7.222,0,0,1,7.214,7.214V185.434a7.222,7.222,0,0,1-7.214,7.214M243.246,64.858a5.3,5.3,0,0,0-5.3,5.3V185.434a5.3,5.3,0,0,0,5.3,5.3h72.133a5.3,5.3,0,0,0,5.3-5.3V70.156a5.3,5.3,0,0,0-5.3-5.3Z" transform="translate(-179.681 -47.915)" fill="#2e0f07"/>
    <path id="Trazado_875396" data-name="Trazado 875396" d="M379.834,617.456a1.763,1.763,0,0,1,1.763-1.763h14.372a1.763,1.763,0,1,1,0,3.525H381.6a1.763,1.763,0,0,1-1.763-1.763" transform="translate(-289.152 -468.702)" fill="#bdc6ce"/>
    <path id="Trazado_875397" data-name="Trazado 875397" d="M393.612,617.52H379.24a2.539,2.539,0,0,1,0-5.077h14.372a2.539,2.539,0,1,1,0,5.077m-14.372-3.525a.987.987,0,0,0,0,1.973h14.372a.987.987,0,0,0,0-1.973Z" transform="translate(-286.796 -466.227)" fill="#2e0f07"/>
    <path id="Trazado_875398" data-name="Trazado 875398" d="M558.253,417.263c-.622,18.62-28.326,18.164-28.338-.463.622-18.619,28.326-18.164,28.338.463" transform="translate(-403.402 -306.834)" fill="#78cdef"/>
    <rect id="Rect치ngulo_401913" data-name="Rect치ngulo 401913" width="5.705" height="16.957" transform="matrix(0.719, -0.695, 0.695, 0.719, 148.175, 120.825)" fill="#d5e2f0"/>
    <path id="Trazado_875399" data-name="Trazado 875399" d="M629.978,503.924a.773.773,0,0,1-.558-.236L617.627,491.5a.78.78,0,0,1,.018-1.1l4.1-3.968a.776.776,0,0,1,1.1.018l11.793,12.185a.777.777,0,0,1,.218.552c.346.3-4.207,4.264-4.336,4.513a.774.774,0,0,1-.54.218m-10.7-12.943L630,502.051l2.984-2.889-10.714-11.07Z" transform="translate(-470.009 -370.139)" fill="#2e0f07"/>
    <path id="Trazado_875400" data-name="Trazado 875400" d="M673.4,544.111h0a4.675,4.675,0,0,0,.108-6.611l-15.155-15.658-6.719,6.5L666.793,544a4.675,4.675,0,0,0,6.611.108" transform="translate(-496.065 -397.257)" fill="#617588"/>
    <path id="Trazado_875401" data-name="Trazado 875401" d="M653.8,540.309l14.714,15.2a4.675,4.675,0,0,0,6.157.493,4.676,4.676,0,0,1-7.88,2.057L651.638,542.4Z" transform="translate(-496.065 -411.315)" fill="#243f5a"/>
    <path id="Trazado_875402" data-name="Trazado 875402" d="M667.685,543.726a5.435,5.435,0,0,1-3.918-1.658l-15.155-15.658a.781.781,0,0,1,.018-1.1l6.719-6.5a.776.776,0,0,1,1.1.018L671.6,534.486a5.416,5.416,0,0,1,1.533,3.88,5.489,5.489,0,0,1-5.45,5.359m-17.418-17.837,14.615,15.1a3.9,3.9,0,0,0,5.6-5.424l-14.615-15.1Z" transform="translate(-493.597 -394.783)" fill="#2e0f07"/>
    <path id="Trazado_875403" data-name="Trazado 875403" d="M536.312,421.064c-23.9-.819-23.313-36.342.595-36.377,23.9.819,23.312,36.342-.595,36.377m.5-30.359c-16,.026-16.385,23.8-.4,24.341,16-.026,16.384-23.8.4-24.341" transform="translate(-394.85 -292.846)" fill="#78889a"/>
    <path id="Trazado_875404" data-name="Trazado 875404" d="M547.918,429.983c-1.525,19.693-30.692,12.646-23.105-5.542a19.864,19.864,0,0,1-4.417-4.406c-7.695,11.39,1.167,28.107,15.055,27.938a18.24,18.24,0,0,0,18.4-19.991,35.507,35.507,0,0,1-5.94,1.3c.01.234.013.469.01.706" transform="translate(-393.988 -319.754)" fill="#556980"/>
    <path id="Trazado_875405" data-name="Trazado 875405" d="M534.18,419.361c-24.939-.444-24.917-37.493-.008-37.934,24.938.444,24.916,37.493.008,37.934m-.009-36.382c-22.874.408-22.886,34.426.009,34.83,22.873-.407,22.885-34.426-.009-34.83m.009,30.363c-17.159-.322-16.942-25.849.207-25.894,16.972.787,16.759,25.386-.207,25.894M534.173,389a11.409,11.409,0,0,0-11.392,11.21c-.461,9.878,12.445,15.448,19.317,8.37,7.374-6.786,2.076-19.822-7.925-19.58" transform="translate(-392.416 -290.365)" fill="#2e0f07"/>
    <path id="Trazado_875406" data-name="Trazado 875406" d="M561.528,459.938c-3.456-1.862-6.129-4.158-6.6-8.31-.171-1.513-2.456-1.664-2.447-.04.026,4.715,3.5,9.911,8.414,10.533,1.17.148,1.615-1.653.63-2.184" transform="translate(-420.583 -342.895)" fill="#eaf7fd"/>
    <path id="Trazado_875407" data-name="Trazado 875407" d="M600.523,425.023c2.469,1.33,4.379,2.971,4.714,5.938.122,1.081,1.755,1.189,1.749.029-.019-3.369-2.5-7.082-6.012-7.526-.836-.106-1.154,1.181-.45,1.56" transform="translate(-456.858 -322.36)" fill="#eaf7fd"/>
    <path id="Trazado_875408" data-name="Trazado 875408" d="M55.338,236.872c5.365-2.5,3.478-11.026-2.544-10.925-6.021-.1-7.909,8.423-2.543,10.925a11.078,11.078,0,0,0-8.53,10.78c0,6.116,22.148,6.116,22.148,0a11.078,11.078,0,0,0-8.53-10.78" transform="translate(-31.76 -172.004)" fill="#d9e4f1"/>
    <path id="Trazado_875409" data-name="Trazado 875409" d="M72.481,242.2c-.007,1.925-1.723,1.925-1.73,0s1.723-1.925,1.73,0" transform="translate(-53.86 -183.276)" fill="#fff"/>
    <path id="Trazado_875410" data-name="Trazado 875410" d="M55.732,289.014c-1.859,2.295-3.6.891-1.753-1.413s3.6-.891,1.753,1.413" transform="translate(-40.492 -218.048)" fill="#fff"/>
    <path id="Trazado_875411" data-name="Trazado 875411" d="M62.595,277.69c2.44,8.731-9.307,10.955-15.793,11.587,4.63,3.758,20.935,3.013,20.935-2.235a11.065,11.065,0,0,0-5.142-9.352" transform="translate(-35.628 -211.394)" fill="#a4c0df"/>
    <path id="Trazado_875412" data-name="Trazado 875412" d="M50.319,250.533c-5.9,0-11.85-1.658-11.85-5.363A11.912,11.912,0,0,1,46,234.133c-4.5-3.691-1.56-11.64,4.317-11.444,5.876-.2,8.815,7.753,4.317,11.444a11.911,11.911,0,0,1,7.533,11.037c0,3.7-5.951,5.363-11.85,5.363m0-26.292c-5.176-.075-6.883,7.245-2.2,9.453a.781.781,0,0,1-.166,1.451,10.346,10.346,0,0,0-7.932,10.025c0,2.173,4.427,3.811,10.3,3.811s10.3-1.638,10.3-3.811a10.345,10.345,0,0,0-7.932-10.025.781.781,0,0,1-.165-1.451c4.681-2.2,2.976-9.533-2.2-9.453" transform="translate(-29.284 -169.522)" fill="#2e0f07"/>
    <path id="Trazado_875413" data-name="Trazado 875413" d="M55.338,476.654c5.365-2.5,3.478-11.026-2.544-10.925-6.021-.1-7.909,8.423-2.543,10.925a11.078,11.078,0,0,0-8.53,10.78c0,6.116,22.148,6.116,22.148,0a11.078,11.078,0,0,0-8.53-10.78" transform="translate(-31.76 -354.54)" fill="#d9e4f1"/>
    <path id="Trazado_875414" data-name="Trazado 875414" d="M72.481,481.979c-.007,1.925-1.723,1.925-1.73,0s1.723-1.925,1.73,0" transform="translate(-53.86 -365.812)" fill="#fff"/>
    <path id="Trazado_875415" data-name="Trazado 875415" d="M55.732,528.8c-1.859,2.295-3.6.891-1.753-1.413s3.6-.891,1.753,1.413" transform="translate(-40.492 -400.584)" fill="#fff"/>
    <path id="Trazado_875416" data-name="Trazado 875416" d="M62.595,517.472c2.44,8.731-9.307,10.955-15.793,11.587,4.63,3.757,20.935,3.012,20.935-2.235a11.065,11.065,0,0,0-5.142-9.352" transform="translate(-35.628 -393.93)" fill="#a4c0df"/>
    <path id="Trazado_875417" data-name="Trazado 875417" d="M50.319,490.315c-5.9,0-11.85-1.658-11.85-5.363A11.912,11.912,0,0,1,46,473.915c-4.5-3.691-1.56-11.64,4.317-11.444,5.876-.2,8.815,7.753,4.317,11.444a11.912,11.912,0,0,1,7.533,11.037c0,3.7-5.951,5.363-11.85,5.363m0-26.292c-5.176-.075-6.883,7.245-2.2,9.453a.781.781,0,0,1-.166,1.451,10.346,10.346,0,0,0-7.932,10.025c0,2.173,4.427,3.811,10.3,3.811s10.3-1.638,10.3-3.811a10.345,10.345,0,0,0-7.932-10.025.781.781,0,0,1-.165-1.451c4.681-2.2,2.976-9.533-2.2-9.453" transform="translate(-29.284 -352.058)" fill="#2e0f07"/>
    <path id="Trazado_875418" data-name="Trazado 875418" d="M713.437,287.695c5.365-2.5,3.478-11.026-2.544-10.925-6.021-.1-7.909,8.423-2.543,10.925a11.078,11.078,0,0,0-8.53,10.78c0,6.116,22.148,6.116,22.148,0a11.078,11.078,0,0,0-8.53-10.78" transform="translate(-532.744 -210.693)" fill="#d9e4f1"/>
    <path id="Trazado_875419" data-name="Trazado 875419" d="M730.579,293.02c-.007,1.925-1.723,1.925-1.73,0s1.723-1.925,1.73,0" transform="translate(-554.843 -221.965)" fill="#fff"/>
    <path id="Trazado_875420" data-name="Trazado 875420" d="M713.83,339.838c-1.859,2.295-3.6.891-1.753-1.413s3.6-.891,1.753,1.413" transform="translate(-541.475 -256.738)" fill="#fff"/>
    <path id="Trazado_875421" data-name="Trazado 875421" d="M720.693,328.513c2.44,8.731-9.307,10.955-15.793,11.587,4.63,3.757,20.935,3.012,20.935-2.235a11.065,11.065,0,0,0-5.142-9.352" transform="translate(-536.611 -250.083)" fill="#a4c0df"/>
    <path id="Trazado_875422" data-name="Trazado 875422" d="M708.417,301.356c-5.9,0-11.85-1.658-11.85-5.363a11.912,11.912,0,0,1,7.533-11.037c-4.5-3.691-1.56-11.64,4.317-11.444,5.876-.2,8.815,7.753,4.317,11.444a11.911,11.911,0,0,1,7.533,11.037c0,3.7-5.951,5.363-11.85,5.363m0-26.292c-5.176-.075-6.883,7.245-2.2,9.453a.781.781,0,0,1-.166,1.451,10.345,10.345,0,0,0-7.932,10.025c0,2.173,4.427,3.811,10.3,3.811s10.3-1.638,10.3-3.811a10.345,10.345,0,0,0-7.932-10.025.781.781,0,0,1-.166-1.451c4.682-2.2,2.976-9.533-2.2-9.453" transform="translate(-530.267 -208.211)" fill="#2e0f07"/>
    <path id="Trazado_875423" data-name="Trazado 875423" d="M379.053,432.895c-7.71,9.074-23.956,9.072-31.665,0l5.5-5.5c4.944,6.092,15.718,6.092,20.662,0Z" transform="translate(-264.452 -325.357)" fill="#71e0b8"/>
    <path id="Trazado_875424" data-name="Trazado 875424" d="M360.747,438.116a22.326,22.326,0,0,1-16.4-7.161.776.776,0,0,1,.02-1.076l5.5-5.5a.781.781,0,0,1,1.129.033,13.038,13.038,0,0,0,19.5,0,.781.781,0,0,1,1.129-.033l5.5,5.5a.776.776,0,0,1,.02,1.076,22.325,22.325,0,0,1-16.4,7.161M346,430.438c7.747,8.093,21.745,8.093,29.492,0l-4.4-4.4a14.682,14.682,0,0,1-20.7,0Z" transform="translate(-261.978 -322.889)" fill="#2e0f07"/>
    <path id="Trazado_875425" data-name="Trazado 875425" d="M435.3,320.136a21.51,21.51,0,0,1-5.755,14.674l-5.5-5.5c7.9-8.31,1.315-23.388-10.33-22.99v-7.771A21.588,21.588,0,0,1,435.3,320.136" transform="translate(-314.939 -227.272)" fill="#fce366"/>
    <path id="Trazado_875426" data-name="Trazado 875426" d="M427.066,333.055c-.274.387-5.821-5.634-6.051-5.729a.776.776,0,0,1-.031-1.065,13.04,13.04,0,0,0-9.751-21.7.776.776,0,0,1-.776-.776v-7.771a.776.776,0,0,1,.776-.776c19.1-.8,30.158,25.162,15.832,37.814m-4.449-6.322,4.417,4.417c11.391-12.52,1.9-34.238-15.024-34.343v6.225c11.53.255,18.094,14.9,10.608,23.7" transform="translate(-312.465 -224.741)" fill="#2e0f07"/>
    <path id="Trazado_875427" data-name="Trazado 875427" d="M345.063,298.509v7.771c-11.648-.4-18.232,14.682-10.332,22.99l-5.5,5.5c-12.768-12.857-2.58-36.9,15.833-36.262" transform="translate(-246.294 -227.233)" fill="#ff7271"/>
    <path id="Trazado_875428" data-name="Trazado 875428" d="M326.585,333.057c-14.326-12.655-3.269-38.614,15.834-37.814a.775.775,0,0,1,.775.775v7.771a.776.776,0,0,1-.776.776,13.04,13.04,0,0,0-9.752,21.7.776.776,0,0,1-.031,1.064c-.243.089-5.751,6.1-6.05,5.729m15.057-36.248c-16.925.105-26.415,21.824-15.025,34.343l4.416-4.416c-7.488-8.8-.92-23.447,10.609-23.7Z" transform="translate(-243.649 -224.743)" fill="#2e0f07"/>
    <path id="Trazado_875429" data-name="Trazado 875429" d="M153.893,531.1c-.081,4.718-7.1,4.718-7.179,0,.081-4.718,7.1-4.717,7.179,0" transform="translate(-111.687 -401.613)" fill="#b4efd9"/>
    <path id="Trazado_875430" data-name="Trazado 875430" d="M148.03,532.832c-5.737-.1-5.736-8.629,0-8.731,5.737.1,5.736,8.629,0,8.731m0-7.179a2.814,2.814,0,0,0,0,5.627,2.814,2.814,0,0,0,0-5.627" transform="translate(-109.414 -398.976)" fill="#2e0f07"/>
    <path id="Trazado_875431" data-name="Trazado 875431" d="M168.275,293.16c-.08,4.718-7.1,4.718-7.179,0,.081-4.718,7.1-4.717,7.179,0" transform="translate(-122.636 -220.477)" fill="#ffb4b3"/>
    <path id="Trazado_875432" data-name="Trazado 875432" d="M162.412,294.889c-5.737-.1-5.736-8.629,0-8.731,5.737.1,5.736,8.629,0,8.731m0-7.179a2.814,2.814,0,0,0,0,5.627,2.814,2.814,0,0,0,0-5.627" transform="translate(-120.362 -217.84)" fill="#2e0f07"/>
    <path id="Trazado_875433" data-name="Trazado 875433" d="M661.158,325.844c-.081,4.718-7.1,4.718-7.179,0,.081-4.718,7.1-4.717,7.179,0" transform="translate(-497.847 -245.358)" fill="#fdf0ad"/>
    <path id="Trazado_875434" data-name="Trazado 875434" d="M655.295,327.573c-5.737-.1-5.736-8.629,0-8.731,5.737.1,5.736,8.629,0,8.731m0-7.179a2.814,2.814,0,0,0,0,5.627,2.814,2.814,0,0,0,0-5.627" transform="translate(-495.574 -242.721)" fill="#2e0f07"/>
    <path id="Trazado_875435" data-name="Trazado 875435" d="M223.182,321.472a.774.774,0,0,1-.641-.338l-12.566-18.389H188.691a.776.776,0,1,1,0-1.552h21.693a.776.776,0,0,1,.641.338l12.8,18.728a.781.781,0,0,1-.64,1.214" transform="translate(-143.052 -229.286)" fill="#2e0f07"/>
    <path id="Trazado_875436" data-name="Trazado 875436" d="M203.182,474.318H174.31a.776.776,0,0,1,0-1.552H202.8l16.31-20.926a.776.776,0,1,1,1.224.954l-16.543,21.225a.776.776,0,0,1-.612.3" transform="translate(-132.104 -343.74)" fill="#2e0f07"/>
    <path id="Trazado_875437" data-name="Trazado 875437" d="M482.2,348.032a.782.782,0,0,1-.532-1.341l10.612-9.988a.776.776,0,0,1,.532-.211H522a.776.776,0,0,1,0,1.552H493.124l-10.388,9.777a.773.773,0,0,1-.532.211" transform="translate(-366.492 -256.157)" fill="#2e0f07"/>
    <path id="Trazado_875438" data-name="Trazado 875438" d="M504.454,17.382l-11.6,4.562a2.16,2.16,0,0,0-.7,3.259l1.193,1.509-20.58,21.028-8.6-14.082c-.6-.582-1.367-.4-1.866.426L454.733,46.6c-.617.968-.521,3.551.814,4,.548.922,7.649-11.415,7.968-11.529l8.31,14.462a1.525,1.525,0,0,0,2.291.277l23.447-21.762,1.744,2.206a1.846,1.846,0,0,0,3.3-.454l4.549-13.646a2.117,2.117,0,0,0-2.7-2.771" transform="translate(-345.891 -13.118)" fill="#acd350"/>
    <path id="Trazado_875439" data-name="Trazado 875439" d="M636.671,30.147c.065,2.434-3.612,3.5-3.773.611-.071-2.414,3.609-3.52,3.773-.611" transform="translate(-481.798 -21.624)" fill="#e2efc2"/>
    <path id="Trazado_875440" data-name="Trazado 875440" d="M472.372,102.58c-2.584,4.011-2.569,2.98-.292-.564,2.7-4.237,2.727-3.187.292.564" transform="translate(-358.097 -75.572)" fill="#e2efc2"/>
    <path id="Trazado_875441" data-name="Trazado 875441" d="M565.013,84.772c-14.635,13.907,3.947-6.151,5.821-6.418.159.232-2.546,3.2-5.821,6.418" transform="translate(-425.876 -59.648)" fill="#e2efc2"/>
    <path id="Trazado_875442" data-name="Trazado 875442" d="M454.618,131.765a3.9,3.9,0,0,0,.059,2.921c.394.876,1.13,1.252,1.7.409l4.037-6.266c-1.889,1.858-3.75,2.882-5.8,2.937" transform="translate(-345.887 -98.071)" fill="#87bf02"/>
    <path id="Trazado_875443" data-name="Trazado 875443" d="M639.6,61.62a24.618,24.618,0,0,1-2.273,1.4l1.248,1.578q.395-.432.785-.88-.39.448-.785.88a1.848,1.848,0,0,0,3.314-.437l2.349-7.046A22.975,22.975,0,0,1,639.6,61.62" transform="translate(-485.168 -43.479)" fill="#87bf02"/>
    <path id="Trazado_875444" data-name="Trazado 875444" d="M518.394,143.6c.9,1.131,2.353,5.913,4.463,4.056l7.7-7.145a66.1,66.1,0,0,0-5.8,3.187c-2.612,1.205-3.362,1.729-6.357-.1" transform="translate(-394.632 -106.967)" fill="#87bf02"/>
    <path id="Trazado_875445" data-name="Trazado 875445" d="M470.663,52.482a2.549,2.549,0,0,1-1.99-1.069L461,38.055l-6.442,10c-.868,1.351-2.474.929-3.06-.508a4.515,4.515,0,0,1,.094-3.857l7.568-12.513a1.9,1.9,0,0,1,3.07-.581c.221.148,8.029,13.206,8.2,13.384l19.405-19.828c-.872-.983-1.738-2.222-1.285-3.629a2.623,2.623,0,0,1,1.543-1.807l11.6-4.562a2.908,2.908,0,0,1,3.723,3.739l-4.549,13.646a2.635,2.635,0,0,1-4.647.689L495,30.681,472.165,51.872a2.205,2.205,0,0,1-1.5.61m-.687-1.916c.358.368.756.515,1.133.169.577-.21,23.269-22.228,24.032-21.967,1.2.245,2.03,3.285,3.464,3.011.912.714,4.995-14.092,5.338-14.377.322-1.159-.405-2.178-1.684-1.8-.025.01-11.607,4.564-11.625,4.572a1.421,1.421,0,0,0-.353,2.046c.562.787,1.891,1.957,1.132,2.538-.422.431-20.574,21.023-20.592,21.04-.359.453-1.193.044-1.2-.161-.176-.281-8.529-13.986-8.545-13.986-.21-.244-.574.288-.592.335-.154.271-7.577,12.516-7.578,12.53a2.837,2.837,0,0,0,.275,2.792c11.112-16.588,5.328-14.641,16.8,3.26m32-35.69h0Z" transform="translate(-343.412 -10.611)" fill="#2e0f07"/>
    <path id="Trazado_875446" data-name="Trazado 875446" d="M375.5,175.828h-5.849V151.649a.955.955,0,0,1,.954-.954h3.94a.954.954,0,0,1,.954.954Z" transform="translate(-281.398 -114.718)" fill="#c59ef8"/>
    <path id="Trazado_875447" data-name="Trazado 875447" d="M375.546,165.483c.011,1.512-.921,1.512-.91,0-.011-1.512.921-1.512.91,0" transform="translate(-285.195 -125.112)" fill="#dbc2fb"/>
    <path id="Trazado_875448" data-name="Trazado 875448" d="M370.445,152.332a.954.954,0,0,1,.954-.954c.218.01,3.818-.019,4.06.008a.954.954,0,0,0-.917-.691H370.6a.955.955,0,0,0-.954.954v24.179h.8Z" transform="translate(-281.398 -114.718)" fill="#dbc2fb"/>
    <path id="Trazado_875449" data-name="Trazado 875449" d="M373.024,174.13h-5.849a.776.776,0,0,1-.776-.776V149.175a1.732,1.732,0,0,1,1.73-1.73h3.94a1.732,1.732,0,0,1,1.73,1.73v24.179a.776.776,0,0,1-.776.776m-5.073-1.552h4.3c-.173-.188.333-23.615-.178-23.581h-3.94c-.511-.043-.007,23.406-.179,23.581" transform="translate(-278.924 -112.244)" fill="#2e0f07"/>
    <path id="Trazado_875450" data-name="Trazado 875450" d="M417.179,159.706H411.33V130.471a.954.954,0,0,1,.954-.954h3.94a.954.954,0,0,1,.954.954Z" transform="translate(-313.128 -98.596)" fill="#abd24e"/>
    <path id="Trazado_875451" data-name="Trazado 875451" d="M417.228,144.3c.011,1.512-.921,1.512-.91,0-.011-1.512.921-1.512.91,0" transform="translate(-316.925 -108.99)" fill="#cae390"/>
    <path id="Trazado_875452" data-name="Trazado 875452" d="M412.126,131.154a.955.955,0,0,1,.955-.954c.217.011,3.818-.018,4.06.009a.954.954,0,0,0-.917-.691h-3.94a.954.954,0,0,0-.954.954v29.235h.8Z" transform="translate(-313.128 -98.596)" fill="#cae390"/>
    <path id="Trazado_875453" data-name="Trazado 875453" d="M414.705,158.009h-5.848a.776.776,0,0,1-.776-.776V128a1.732,1.732,0,0,1,1.73-1.73h3.94a1.732,1.732,0,0,1,1.73,1.73v29.235a.776.776,0,0,1-.776.776m-5.073-1.552h4.3c-.177-.2.339-28.659-.178-28.637h-3.94c-.516-.042,0,28.461-.178,28.637" transform="translate(-310.655 -96.123)" fill="#2e0f07"/>
    <path id="Trazado_875454" data-name="Trazado 875454" d="M455.764,147.982h-5.849V115.07a.954.954,0,0,1,.954-.954h3.94a.954.954,0,0,1,.954.954Z" transform="translate(-342.502 -86.872)" fill="#fcde4d"/>
    <path id="Trazado_875455" data-name="Trazado 875455" d="M455.813,128.9c.011,1.512-.921,1.512-.91,0-.011-1.512.921-1.512.91,0" transform="translate(-346.298 -97.265)" fill="#fdefa6"/>
    <path id="Trazado_875456" data-name="Trazado 875456" d="M450.711,115.753a.954.954,0,0,1,.954-.954c.217.011,3.818-.018,4.06.009a.954.954,0,0,0-.917-.691h-3.94a.954.954,0,0,0-.954.954v32.912h.8Z" transform="translate(-342.502 -86.872)" fill="#fdefa6"/>
    <path id="Trazado_875457" data-name="Trazado 875457" d="M453.29,146.284h-5.849a.776.776,0,0,1-.776-.776V112.6a1.732,1.732,0,0,1,1.73-1.73h3.94a1.732,1.732,0,0,1,1.73,1.73v32.912a.776.776,0,0,1-.776.776m-5.073-1.552h4.3c-.175-.179.338-32.352-.178-32.314H448.4c-.516-.038,0,32.135-.179,32.314" transform="translate(-340.028 -84.398)" fill="#2e0f07"/>
    <path id="Trazado_875458" data-name="Trazado 875458" d="M378.881,256.477H341.267a.776.776,0,0,1,0-1.552h37.614a.776.776,0,0,1,0,1.552" transform="translate(-259.202 -194.064)" fill="#2e0f07"/>
    <path id="Trazado_875459" data-name="Trazado 875459" d="M603.52,394.249c-.3,1.554-7.68-.246-7.233-1.764.3-1.554,7.68.246,7.233,1.764" transform="translate(-453.914 -298.328)" fill="#eaf7fd"/>
    <path id="Trazado_875460" data-name="Trazado 875460" d="M162.137,99.084,159.665,93.8l-5.542,1.835,10.216-23.71,8.015,3.454Z" transform="translate(-117.327 -54.751)" fill="#ff7271"/>
    <path id="Trazado_875461" data-name="Trazado 875461" d="M159.648,97.413a.776.776,0,0,1-.7-.447l-2.18-4.664-4.887,1.618a.781.781,0,0,1-.957-1.044l10.217-23.71a.777.777,0,0,1,.426-.414c-.065-.52,8.461,3.493,8.608,3.462a.776.776,0,0,1,.406,1.02L160.36,96.944a.776.776,0,0,1-.713.469m-2.472-6.841a.776.776,0,0,1,.7.447l1.741,3.724,9.226-21.41-6.589-2.839L153.03,91.9l3.9-1.292a.772.772,0,0,1,.244-.039" transform="translate(-114.838 -52.303)" fill="#2e0f07"/>
    <path id="Trazado_875462" data-name="Trazado 875462" d="M225.77,99.084l2.472-5.289,5.542,1.835-10.216-23.71-8.015,3.454Z" transform="translate(-164.092 -54.751)" fill="#ff7271"/>
    <path id="Trazado_875463" data-name="Trazado 875463" d="M223.295,97.443a.777.777,0,0,1-.713-.469L212.365,73.264a.776.776,0,0,1,.406-1.02c.15-.042,8.649-3.915,8.608-3.462a.779.779,0,0,1,.426.414l10.216,23.709a.782.782,0,0,1-.957,1.044l-4.887-1.619L224,97a.775.775,0,0,1-.7.447m-9.2-24.08,9.226,21.41c2.538-5.257,1.041-4.593,6.589-2.839l-9.226-21.41Z" transform="translate(-161.617 -52.333)" fill="#2e0f07"/>
    <path id="Trazado_875464" data-name="Trazado 875464" d="M187.777,18.568c0,1.608-2.584,2.788-3.055,4.24-.488,1.5.891,3.974-.02,5.226s-3.7.711-4.967,1.631-1.58,3.732-3.084,4.221c-1.451.471-3.369-1.6-4.977-1.6s-3.526,2.074-4.977,1.6c-1.5-.488-1.832-3.31-3.084-4.221s-4.046-.367-4.967-1.631.469-3.722-.02-5.226c-.471-1.451-3.055-2.631-3.055-4.24s2.584-2.789,3.055-4.24c.488-1.5-.891-3.974.02-5.226s3.7-.711,4.967-1.631,1.58-3.733,3.084-4.221c1.451-.471,3.369,1.6,4.977,1.6s3.526-2.074,4.977-1.6c1.5.488,1.832,3.31,3.084,4.221s4.046.367,4.967,1.631-.469,3.722.02,5.226c.471,1.451,3.055,2.631,3.055,4.24" transform="translate(-118.431 -2.421)" fill="#fbdb38"/>
    <path id="Trazado_875465" data-name="Trazado 875465" d="M181.789,8.08c-3.544.019-2.845-3.674-5.137-4.832-1.451-.471-3.369,1.6-4.977,1.6s-3.526-2.074-4.977-1.6c-1.5.488-1.832,3.31-3.084,4.221s-4.046.367-4.966,1.631.468,3.722-.02,5.226c-.471,1.451-3.055,2.631-3.055,4.24.881,3.478,4.229,2.215,2.827,7.437,10.737-1.938,19.853-6.778,23.39-17.923" transform="translate(-118.431 -2.42)" fill="#f8f088"/>
    <path id="Trazado_875466" data-name="Trazado 875466" d="M164.793,32.313c-2.353.054-2.714-3.215-4-4.441a4.907,4.907,0,0,0-1.955-.5c-1.162-.155-2.479-.332-3.182-1.3-1.14-1.484.215-3.884-.13-5.443a4.8,4.8,0,0,0-1.251-1.5c-2.4-1.993-2.421-3.956,0-5.958,1.349-1.108,1.535-1.861,1.129-3.54-.745-2.981.361-4.495,3.435-4.7a2.846,2.846,0,0,0,3.018-2.188c1.136-2.8,2.862-3.514,5.513-1.84,2.8,2.192,4.409-1.513,7.158-.808,1.809.529,2.123,3.257,3.3,4.332,1.378.8,4.076.254,5.137,1.8,1.14,1.484-.215,3.884.13,5.443.669,1.448,3.154,2.583,3.093,4.479-.15,2.9-4.17,3.213-2.971,6.519.745,2.982-.361,4.495-3.435,4.7a4.9,4.9,0,0,0-1.955.5c-1.181,1.073-1.491,3.8-3.3,4.331-1.725.632-3.625-1.426-5.216-1.565-1.368.1-3.045,1.736-4.515,1.675m4.515-3.227c1.508-.122,3.4,1.8,4.737,1.641,1.207-.625,1.589-3.319,2.867-4.11,1.145-.975,3.826-.518,4.8-1.46.583-1.218-.667-3.616-.091-5.01.361-1.457,2.817-2.646,3.017-4-.2-1.355-2.656-2.541-3.017-4-.575-1.391.676-3.8.091-5.009-.974-.941-3.649-.484-4.8-1.461-1.276-.79-1.661-3.489-2.867-4.11-1.337-.154-3.227,1.763-4.737,1.641-1.508.122-3.4-1.8-4.738-1.641-1.207.625-1.589,3.319-2.867,4.11-1.145.975-3.826.518-4.8,1.46-.583,1.218.667,3.616.091,5.01-.361,1.457-2.817,2.646-3.017,4,.2,1.355,2.657,2.541,3.017,4,.575,1.392-.676,3.8-.091,5.009.974.941,3.649.484,4.8,1.46,1.277.79,1.66,3.489,2.867,4.11,1.336.154,3.228-1.763,4.738-1.641" transform="translate(-116.064 0)" fill="#2e0f07"/>
    <path id="Trazado_875467" data-name="Trazado 875467" d="M193.591,53.96c-1.465.3-5.348-4.684-6.373-5.422a2.3,2.3,0,0,1,3.246-3.246l3.127,3.127,7.614-7.614a2.3,2.3,0,0,1,3.246,3.246c-.975.616-9.576,10.521-10.859,9.909" transform="translate(-141.998 -30.552)" fill="#4ed9a7"/>
    <path id="Trazado_875468" data-name="Trazado 875468" d="M191.161,52.288c-1.954.3-5.585-4.636-6.922-5.65a3.052,3.052,0,0,1-.9-2.172A3.086,3.086,0,0,1,186.41,41.4c1.772-.2,3.588,2.5,4.75,3.478l7.065-7.065a3.09,3.09,0,0,1,5.243,2.172,3.05,3.05,0,0,1-.9,2.171l-9.237,9.237a3.051,3.051,0,0,1-2.172.9m-4.75-9.341a1.529,1.529,0,0,0-1.074,2.593l4.75,4.75a1.526,1.526,0,0,0,2.148,0l9.237-9.237a1.519,1.519,0,0,0-2.149-2.148l-7.613,7.613a.776.776,0,0,1-1.1,0l-3.128-3.127a1.509,1.509,0,0,0-1.074-.445" transform="translate(-139.568 -28.103)" fill="#2e0f07"/>
    <path id="Trazado_875469" data-name="Trazado 875469" d="M181.15,34.28c-2.25,2.641-4.316.917-2.121-1.769,2.25-2.641,4.316-.917,2.121,1.769" transform="translate(-135.575 -23.748)" fill="#fff"/>
  </g>
</svg>
