<svg xmlns="http://www.w3.org/2000/svg" width="91.927" height="91.928" viewBox="0 0 91.927 91.928">
  <g id="Grupo_1100760" data-name="Grupo 1100760" transform="translate(-1230 -8269.072)">
    <g id="Grupo_1100759" data-name="Grupo 1100759">
      <g id="Grupo_1100758" data-name="Grupo 1100758">
        <g id="Grupo_1100757" data-name="Grupo 1100757">
          <g id="Grupo_1100756" data-name="Grupo 1100756">
            <g id="Grupo_54396" data-name="Grupo 54396" transform="translate(1013 7527.739)">
              <g id="Grupo_42274" data-name="Grupo 42274" transform="translate(142 768.333)">
                <g id="Grupo_18423" data-name="Grupo 18423" transform="translate(75 -27)">
                  <g id="Grupo_18421" data-name="Grupo 18421">
                    <g id="Grupo_18420" data-name="Grupo 18420">
                      <g id="Grupo_18419" data-name="Grupo 18419">
                        <path id="Trazado_40936" data-name="Trazado 40936" d="M286.55,2191.684a45.964,45.964,0,1,1-45.963-45.962A45.963,45.963,0,0,1,286.55,2191.684Z" transform="translate(-194.623 -2145.721)" fill="#aee6e6"/>
                      </g>
                    </g>
                  </g>
                  <path id="Trazado_40937" data-name="Trazado 40937" d="M286.23,2191.334a45.963,45.963,0,1,0-45.963,45.965A45.782,45.782,0,0,0,286.23,2191.334Z" transform="translate(-194.303 -2145.372)" fill="#aee6e6"/>
                  <path id="Trazado_40938" data-name="Trazado 40938" d="M272.56,2188.562a35.084,35.084,0,1,0-35.084,35.084A34.953,34.953,0,0,0,272.56,2188.562Z" transform="translate(-191.373 -2142.446)" fill="#aee6e6" stroke="#31aebb" stroke-miterlimit="10" stroke-width="4"/>
                  <g id="Grupo_18422" data-name="Grupo 18422" transform="translate(8.143 25.805)">
                    <path id="Trazado_40939" data-name="Trazado 40939" d="M279.682,2164.488a45.969,45.969,0,0,1-79.137,45.773,45.823,45.823,0,0,0,79.137-45.773Z" transform="translate(-200.545 -2164.488)" fill="#aee6e6"/>
                  </g>
                </g>
              </g>
            </g>
            <g id="_012-bar_graph" data-name="012-bar graph" transform="translate(1254.768 8283.119)">
              <path id="Trazado_130945" data-name="Trazado 130945" d="M41.771,182.352H39.324V155.464a.621.621,0,0,0-.621-.621H36.648a.621.621,0,1,0,0,1.242h1.433v26.267h-5.76V156.085h1.621a.621.621,0,1,0,0-1.242H31.7a.621.621,0,0,0-.621.621v3.724H24.7a.621.621,0,0,0-.621.621v4.048H17.695a.621.621,0,0,0-.621.621v4.048H10.692a.621.621,0,0,0-.621.621v3.293H3.689a.621.621,0,0,0-.621.621v3.718a.621.621,0,1,0,1.242,0v-3.1h5.76v8.67H4.31v-2.866a.621.621,0,0,0-1.242,0v2.867H.621a.621.621,0,1,0,0,1.242h41.15a.621.621,0,1,0,0-1.242ZM11.313,169.767h5.761v12.584H11.313Zm7-.621V165.1h5.761v17.253H18.316Zm7,13.205V160.43h5.761v21.921Z" transform="translate(0 -132.928)" fill="#26aab7"/>
              <path id="Trazado_130946" data-name="Trazado 130946" d="M30.938,36.768a1.847,1.847,0,0,0,1.076-.343L59.982,16.6a1.863,1.863,0,0,0,3.7.394l.715-4.19a1.863,1.863,0,0,0-1.524-2.149l-4.19-.715a1.863,1.863,0,0,0-.852,3.62l-10.5,7.445a.621.621,0,1,0,.718,1.013l11.71-8.3A.621.621,0,0,0,59.5,12.6l-1.234-.21a.623.623,0,0,1-.508-.717.621.621,0,0,1,.716-.508l4.191.715a.621.621,0,0,1,.508.716l-.715,4.191a.618.618,0,0,1-.611.516.605.605,0,0,1-.105-.009.621.621,0,0,1-.508-.716l.21-1.235a.621.621,0,0,0-.971-.611L31.295,35.413a.621.621,0,0,1-.865-.148.622.622,0,0,1,.148-.867l14.757-10.46a.621.621,0,1,0-.718-1.013L29.86,33.385a1.863,1.863,0,0,0,1.078,3.383Z" transform="translate(-26.666 0)" fill="#26aab7"/>
            </g>
          </g>
        </g>
      </g>
    </g>
  </g>
</svg>
