<svg xmlns="http://www.w3.org/2000/svg" xmlns:xlink="http://www.w3.org/1999/xlink" width="295" height="237.341" viewBox="0 0 295 237.341">
  <defs>
    <clipPath id="clip-path">
      <rect id="Rectángulo_401890" data-name="Rectángulo 401890" width="278" height="237.341" fill="none"/>
    </clipPath>
    <clipPath id="clip-path-4">
      <path id="Trazado_875136" data-name="Trazado 875136" d="M218.147,76.686a66.614,66.614,0,0,0,19.137,46.8l18.19-19.671a39.546,39.546,0,1,1,56.714.857l19.9,19.433a66.84,66.84,0,1,0-113.942-47.42" transform="translate(-218.147 -9.844)" fill="none"/>
    </clipPath>
    <clipPath id="clip-path-5">
      <rect id="Rectángulo_401879" data-name="Rectángulo 401879" width="50.531" height="54.893" fill="none"/>
    </clipPath>
    <clipPath id="clip-path-6">
      <rect id="Rectángulo_401880" data-name="Rectángulo 401880" width="45.737" height="49.175" fill="none"/>
    </clipPath>
    <clipPath id="clip-path-7">
      <rect id="Rectángulo_401881" data-name="Rectángulo 401881" width="49.104" height="45.623" fill="none"/>
    </clipPath>
    <clipPath id="clip-path-8">
      <rect id="Rectángulo_401882" data-name="Rectángulo 401882" width="52.216" height="46.895" fill="none"/>
    </clipPath>
    <clipPath id="clip-path-9">
      <rect id="Rectángulo_401883" data-name="Rectángulo 401883" width="39.989" height="46.316" fill="none"/>
    </clipPath>
    <clipPath id="clip-path-11">
      <rect id="Rectángulo_401884" data-name="Rectángulo 401884" width="6.801" height="7.657" fill="none"/>
    </clipPath>
    <clipPath id="clip-path-12">
      <rect id="Rectángulo_401885" data-name="Rectángulo 401885" width="3.473" height="2.527" fill="none"/>
    </clipPath>
    <clipPath id="clip-path-13">
      <rect id="Rectángulo_401886" data-name="Rectángulo 401886" width="16.085" height="1.552" fill="none"/>
    </clipPath>
    <clipPath id="clip-path-14">
      <rect id="Rectángulo_401887" data-name="Rectángulo 401887" width="10.954" height="4.259" fill="none"/>
    </clipPath>
    <clipPath id="clip-path-15">
      <rect id="Rectángulo_401888" data-name="Rectángulo 401888" width="30.111" height="16.364" fill="none"/>
    </clipPath>
  </defs>
  <g id="Grupo_1100694" data-name="Grupo 1100694" transform="translate(-1125 -805.66)">
    <path id="Rectángulo_401733" data-name="Rectángulo 401733" d="M41,0H295a0,0,0,0,1,0,0V133a0,0,0,0,1,0,0H0a0,0,0,0,1,0,0V41A41,41,0,0,1,41,0Z" transform="translate(1125 895)" fill="#7d6eb2" opacity="0.3"/>
    <g id="Grupo_1100693" data-name="Grupo 1100693" transform="translate(1142 805.66)">
      <g id="Grupo_1100692" data-name="Grupo 1100692" clip-path="url(#clip-path)">
        <rect id="Rectángulo_401872" data-name="Rectángulo 401872" width="211.06" height="138.926" transform="translate(0.146 14.69)" fill="#ebebeb"/>
        <g id="Grupo_1100655" data-name="Grupo 1100655">
          <g id="Grupo_1100654" data-name="Grupo 1100654" clip-path="url(#clip-path)">
            <path id="Trazado_875111" data-name="Trazado 875111" d="M211.205,165c0-.949-.045-54.184-.116-138.926l.116.116L.163,26.22H.146l.146-.146C.288,75.495.284,122.52.28,165l-.134-.134,211.06.134-211.06.134H.012V165C.008,122.52,0,75.495,0,26.074v-.146H.163l211.043.03h.116v.116c-.071,84.742-.116,137.978-.116,138.926" transform="translate(0 -11.384)" fill="#263238"/>
            <path id="Trazado_875112" data-name="Trazado 875112" d="M211.32,48.111c0,.081-47.251.146-105.524.146C47.5,48.257.26,48.192.26,48.111S47.5,47.965,105.8,47.965c58.274,0,105.524.065,105.524.146" transform="translate(-0.114 -21.06)" fill="#263238"/>
            <rect id="Rectángulo_401873" data-name="Rectángulo 401873" width="176.937" height="24.215" transform="translate(19.811 47.604)" fill="#e0e0e0"/>
            <rect id="Rectángulo_401874" data-name="Rectángulo 401874" width="39.281" height="39.282" transform="translate(16.785 114.168)" fill="#e0e0e0"/>
            <rect id="Rectángulo_401875" data-name="Rectángulo 401875" width="39.281" height="39.282" transform="translate(63.22 114.168)" fill="#e0e0e0"/>
            <rect id="Rectángulo_401876" data-name="Rectángulo 401876" width="39.281" height="39.282" transform="translate(108.269 114.168)" fill="#e0e0e0"/>
            <path id="Trazado_875113" data-name="Trazado 875113" d="M116.736,163.7H74.156a6.489,6.489,0,0,1,0-12.978h42.581a6.489,6.489,0,0,1,0,12.978" transform="translate(-29.711 -66.177)" fill="#26aab7"/>
            <path id="Trazado_875114" data-name="Trazado 875114" d="M166.4,163.585s.2-.02.58-.044c.191-.015.426-.065.707-.107a7.293,7.293,0,0,0,.945-.283,6.447,6.447,0,0,0,4.067-4.745,6.507,6.507,0,0,0-.753-4.534,6.412,6.412,0,0,0-4.439-3.082,22.493,22.493,0,0,0-3.123-.1l-3.346.006-7.276.01-79.71.043a6.34,6.34,0,0,0-.422,12.667c.905.043,1.842.012,2.755.022l21.164.008,35.835.031,24.159.047,6.568.027,1.708.015c.385.005.582.015.582.015s-.2.01-.582.015l-1.708.015-6.568.027-24.159.047-35.835.031-21.164.008c-.922-.01-1.83.022-2.773-.021a6.644,6.644,0,0,1-2.719-.775,6.636,6.636,0,0,1,3.16-12.471l79.71.043,7.276.011,3.346.005a22.354,22.354,0,0,1,3.151.111,6.558,6.558,0,0,1,5.275,7.8,6.5,6.5,0,0,1-4.157,4.778,7.021,7.021,0,0,1-.957.27c-.283.038-.52.083-.712.093-.386.015-.583.015-.583.015" transform="translate(-29.599 -66.063)" fill="#263238"/>
            <path id="Trazado_875115" data-name="Trazado 875115" d="M142.076,181.943h.485l-.6,2.97h1.841l-.082.421H141.4Z" transform="translate(-62.084 -79.886)" fill="#263238"/>
            <path id="Trazado_875116" data-name="Trazado 875116" d="M146.342,184.88a1.463,1.463,0,0,1,1.507-1.512,1.081,1.081,0,0,1,1.2,1.1,1.459,1.459,0,0,1-1.5,1.516,1.091,1.091,0,0,1-1.206-1.109m2.238-.383a.678.678,0,0,0-.766-.722,1.011,1.011,0,0,0-1,1.085.68.68,0,0,0,.765.722,1.009,1.009,0,0,0,1-1.085" transform="translate(-64.255 -80.512)" fill="#263238"/>
            <path id="Trazado_875117" data-name="Trazado 875117" d="M154.752,183.392l-.509,2.567H153.8l.063-.315a1.279,1.279,0,0,1-.906.344,1.059,1.059,0,0,1-1.134-1.109,1.436,1.436,0,0,1,1.453-1.512.976.976,0,0,1,.926.461l.087-.436Zm-.693,1.1a.678.678,0,0,0-.766-.722,1.011,1.011,0,0,0-1,1.085.68.68,0,0,0,.765.722,1.008,1.008,0,0,0,1-1.085" transform="translate(-66.66 -80.512)" fill="#263238"/>
            <path id="Trazado_875118" data-name="Trazado 875118" d="M160.845,181.58l-.717,3.594h-.445l.063-.315a1.279,1.279,0,0,1-.906.344,1.059,1.059,0,0,1-1.134-1.109,1.436,1.436,0,0,1,1.453-1.512.978.978,0,0,1,.931.465l.291-1.468Zm-.9,2.132a.678.678,0,0,0-.766-.722,1.011,1.011,0,0,0-1,1.085.68.68,0,0,0,.765.722,1.009,1.009,0,0,0,1-1.085" transform="translate(-69.244 -79.727)" fill="#263238"/>
            <path id="Trazado_875119" data-name="Trazado 875119" d="M164.109,182.551h.465l-.509,2.567H163.6Zm.077-.775a.321.321,0,0,1,.334-.325.283.283,0,0,1,.3.271.322.322,0,0,1-.339.334.281.281,0,0,1-.291-.281" transform="translate(-71.832 -79.67)" fill="#263238"/>
            <path id="Trazado_875120" data-name="Trazado 875120" d="M168.758,184.221a1.668,1.668,0,0,1-.029.3l-.286,1.439h-.465l.286-1.439a1.189,1.189,0,0,0,.025-.213c0-.334-.194-.523-.6-.523a.906.906,0,0,0-.95.819l-.271,1.356h-.465l.508-2.568h.446l-.063.329a1.261,1.261,0,0,1,.93-.353.815.815,0,0,1,.93.853" transform="translate(-72.889 -80.512)" fill="#263238"/>
            <path id="Trazado_875121" data-name="Trazado 875121" d="M174.73,183.393l-.441,2.218a1.408,1.408,0,0,1-1.535,1.318,1.8,1.8,0,0,1-1.172-.363l.256-.358a1.428,1.428,0,0,0,.95.31.918.918,0,0,0,1.022-.833l.039-.184a1.307,1.307,0,0,1-.93.353,1.03,1.03,0,0,1-1.143-1.046,1.409,1.409,0,0,1,1.463-1.438,1.006,1.006,0,0,1,.959.494l.092-.47Zm-.712,1.046c0-.412-.281-.664-.766-.664a.971.971,0,0,0-1.007,1c0,.417.285.669.765.669a.972.972,0,0,0,1.008-1.008" transform="translate(-75.337 -80.512)" fill="#263238"/>
            <path id="Trazado_875122" data-name="Trazado 875122" d="M179.9,187.211a.342.342,0,0,1,.344-.354.3.3,0,0,1,.305.315.339.339,0,0,1-.339.349.306.306,0,0,1-.31-.31" transform="translate(-78.989 -82.044)" fill="#263238"/>
            <path id="Trazado_875123" data-name="Trazado 875123" d="M181.858,187.211a.342.342,0,0,1,.344-.354.3.3,0,0,1,.305.315.339.339,0,0,1-.339.349.306.306,0,0,1-.31-.31" transform="translate(-79.849 -82.044)" fill="#263238"/>
            <path id="Trazado_875124" data-name="Trazado 875124" d="M183.816,187.211a.342.342,0,0,1,.344-.354.3.3,0,0,1,.305.315.339.339,0,0,1-.339.349.306.306,0,0,1-.31-.31" transform="translate(-80.709 -82.044)" fill="#263238"/>
            <path id="Trazado_875125" data-name="Trazado 875125" d="M12.212,37.062a1.547,1.547,0,1,1-1.547-1.546,1.547,1.547,0,0,1,1.547,1.546" transform="translate(-4.003 -15.594)" fill="#263238"/>
            <path id="Trazado_875126" data-name="Trazado 875126" d="M23.933,37.062a1.547,1.547,0,1,1-1.547-1.546,1.547,1.547,0,0,1,1.547,1.546" transform="translate(-9.15 -15.594)" fill="#263238"/>
            <path id="Trazado_875127" data-name="Trazado 875127" d="M35.654,37.062a1.547,1.547,0,1,1-1.547-1.546,1.547,1.547,0,0,1,1.547,1.546" transform="translate(-14.296 -15.594)" fill="#263238"/>
          </g>
        </g>
        <g id="Grupo_1100657" data-name="Grupo 1100657">
          <g id="Grupo_1100656" data-name="Grupo 1100656" clip-path="url(#clip-path)">
            <path id="Trazado_875128" data-name="Trazado 875128" d="M353.313,73.872A73.664,73.664,0,1,1,279.65.209a73.663,73.663,0,0,1,73.663,73.663" transform="translate(-90.443 -0.092)" fill="#f5f5f5"/>
            <path id="Trazado_875129" data-name="Trazado 875129" d="M353.2,73.78s-.02-.4-.045-1.194q-.018-.594-.044-1.471c-.014-.585-.03-1.264-.1-2.032s-.129-1.627-.2-2.575c-.1-.946-.248-1.975-.387-3.092a77.5,77.5,0,0,0-1.5-7.627,73.07,73.07,0,0,0-3.018-9.249,71.054,71.054,0,0,0-5.123-10.371,74.47,74.47,0,0,0-18.694-20.914A73.392,73.392,0,0,0,293.112,1.51a74.73,74.73,0,0,0-28.819.33,72.6,72.6,0,0,0-19.4,7.081,77.561,77.561,0,0,0-9.059,5.737,80.624,80.624,0,0,0-8.3,7.146,79.338,79.338,0,0,0-7.263,8.477,72.485,72.485,0,0,0-6,9.65c-.422.857-.9,1.69-1.281,2.571L211.81,45.13c-.71,1.79-1.443,3.581-2.029,5.433a71.555,71.555,0,0,0-2.8,11.374,79.354,79.354,0,0,0-.963,11.832,79.414,79.414,0,0,0,.959,11.837,71.719,71.719,0,0,0,2.8,11.378l.466,1.378.233.688.266.675q.533,1.35,1.063,2.694l1.188,2.629c.379.882.858,1.714,1.281,2.571a72.412,72.412,0,0,0,6,9.654,79.251,79.251,0,0,0,7.265,8.48,80.525,80.525,0,0,0,8.3,7.148,73.683,73.683,0,0,0,18.63,10.016,78.506,78.506,0,0,0,9.834,2.8,74.748,74.748,0,0,0,28.823.329,73.377,73.377,0,0,0,30.97-13.747,74.459,74.459,0,0,0,18.692-20.915,71.068,71.068,0,0,0,5.122-10.37,73.143,73.143,0,0,0,3.017-9.249c.7-2.841,1.182-5.4,1.5-7.626.138-1.117.291-2.147.386-3.092q.112-1.421.2-2.575c.075-.767.09-1.446.1-2.031s.033-1.075.044-1.47c.025-.79.045-1.194.045-1.194s0,.4-.015,1.194q-.013.595-.03,1.472c-.009.586-.02,1.265-.09,2.033s-.12,1.629-.189,2.578c-.092.947-.24,1.978-.374,3.1a77.038,77.038,0,0,1-1.472,7.642,72.7,72.7,0,0,1-3,9.272,70.99,70.99,0,0,1-5.111,10.4,74.521,74.521,0,0,1-18.707,21,73.552,73.552,0,0,1-31.051,13.821,74.947,74.947,0,0,1-28.921-.31,78.721,78.721,0,0,1-9.871-2.808,73.938,73.938,0,0,1-18.7-10.045,80.87,80.87,0,0,1-8.333-7.173,79.566,79.566,0,0,1-7.295-8.51,72.689,72.689,0,0,1-6.021-9.689c-.425-.86-.9-1.7-1.286-2.582l-1.194-2.639-1.067-2.7-.267-.678-.234-.69-.468-1.384a72.029,72.029,0,0,1-2.811-11.423,79.813,79.813,0,0,1-.963-11.883,79.673,79.673,0,0,1,.966-11.879,71.847,71.847,0,0,1,2.813-11.419c.588-1.859,1.324-3.657,2.037-5.454l1.193-2.638c.381-.885.862-1.721,1.286-2.581a72.651,72.651,0,0,1,6.02-9.686,79.472,79.472,0,0,1,7.294-8.508,80.773,80.773,0,0,1,8.331-7.17,73.91,73.91,0,0,1,18.7-10.043,78.7,78.7,0,0,1,9.87-2.808,74.973,74.973,0,0,1,28.919-.31A73.558,73.558,0,0,1,324.208,15.09a74.53,74.53,0,0,1,18.709,20.995,71.1,71.1,0,0,1,5.112,10.4,72.8,72.8,0,0,1,3,9.273A77.088,77.088,0,0,1,352.5,63.4c.134,1.12.282,2.151.373,3.1q.1,1.423.189,2.579c.07.768.081,1.448.09,2.033s.022,1.076.03,1.472c.015.79.015,1.195.015,1.195" transform="translate(-90.329 0)" fill="#263238"/>
          </g>
        </g>
        <g id="Grupo_1100674" data-name="Grupo 1100674" transform="translate(122.365 5.522)">
          <g id="Grupo_1100673" data-name="Grupo 1100673" clip-path="url(#clip-path-4)">
            <path id="Trazado_875130" data-name="Trazado 875130" d="M255.475,103.817a39.546,39.546,0,1,1,56.713.857l19.9,19.433a66.847,66.847,0,1,0-94.806-.618Z" transform="translate(-218.147 -9.844)" fill="#26aab7"/>
            <g id="Grupo_1100660" data-name="Grupo 1100660" transform="translate(87.24 66.498)" opacity="0.8">
              <g id="Grupo_1100659" data-name="Grupo 1100659" transform="translate(0 0)">
                <g id="Grupo_1100658" data-name="Grupo 1100658" clip-path="url(#clip-path-5)">
                  <path id="Trazado_875131" data-name="Trazado 875131" d="M388.258,128.4h35.949s-3.635,29.264-4.362,29.81-21.993,25.084-21.993,25.084L373.677,154.57Z" transform="translate(-373.676 -128.395)"/>
                </g>
              </g>
            </g>
            <g id="Grupo_1100663" data-name="Grupo 1100663" transform="translate(92.123 17.323)" opacity="0.7">
              <g id="Grupo_1100662" data-name="Grupo 1100662">
                <g id="Grupo_1100661" data-name="Grupo 1100661" clip-path="url(#clip-path-6)">
                  <path id="Trazado_875132" data-name="Trazado 875132" d="M382.381,65.7l25.442-24.969,17.908,26.72L428.118,89.9l-35.606,0-6.485-14.276Z" transform="translate(-382.381 -40.727)"/>
                </g>
              </g>
            </g>
            <g id="Grupo_1100666" data-name="Grupo 1100666" transform="translate(68.215 -2.754)" opacity="0.5">
              <g id="Grupo_1100665" data-name="Grupo 1100665">
                <g id="Grupo_1100664" data-name="Grupo 1100664" clip-path="url(#clip-path-7)">
                  <path id="Trazado_875133" data-name="Trazado 875133" d="M339.953,40.924c-.436-.727,0-35.99,0-35.99l21.921,2.755L388.863,25.11,362.933,50.557l-16.327-2.363Z" transform="translate(-339.759 -4.934)"/>
                </g>
              </g>
            </g>
            <g id="Grupo_1100669" data-name="Grupo 1100669" transform="translate(16.194 -2.754)" opacity="0.3">
              <g id="Grupo_1100668" data-name="Grupo 1100668">
                <g id="Grupo_1100667" data-name="Grupo 1100667" clip-path="url(#clip-path-8)">
                  <path id="Trazado_875134" data-name="Trazado 875134" d="M247.017,26.382c.545.182,24.175,25.448,24.175,25.448l21.085-8.362,6.761-8.434.194-30.1L274.1,7.688Z" transform="translate(-247.017 -4.934)"/>
                </g>
              </g>
            </g>
            <g id="Grupo_1100672" data-name="Grupo 1100672" transform="translate(-2.37 20.344)" opacity="0.1">
              <g id="Grupo_1100671" data-name="Grupo 1100671">
                <g id="Grupo_1100670" data-name="Grupo 1100670" clip-path="url(#clip-path-9)">
                  <path id="Trazado_875135" data-name="Trazado 875135" d="M213.921,92.267c.545.363,39.989,0,39.989,0l-.7-25.959-19.039-20.2L221.192,61.548Z" transform="translate(-213.921 -46.112)"/>
                </g>
              </g>
            </g>
          </g>
        </g>
        <g id="Grupo_1100691" data-name="Grupo 1100691">
          <g id="Grupo_1100690" data-name="Grupo 1100690" clip-path="url(#clip-path)">
            <path id="Trazado_875137" data-name="Trazado 875137" d="M341.982,119.519a15.348,15.348,0,1,1-15.349-15.349,15.349,15.349,0,0,1,15.349,15.349" transform="translate(-136.677 -45.738)" fill="#e0e0e0"/>
            <path id="Trazado_875138" data-name="Trazado 875138" d="M330.45,123.826h0a4.357,4.357,0,0,0,5.373,2.97l53.375-15.15-55.085,6.631a4.358,4.358,0,0,0-3.662,5.548" transform="translate(-145.014 -49.021)" fill="#455a64"/>
            <path id="Trazado_875139" data-name="Trazado 875139" d="M308.182,190.713l-2.936,14.895h-3.894l1.532-7.851-4.958,6.383h-1.851l-2.7-6.383-1.575,7.851h-3.872l2.979-14.895h3.426l3.49,8.618,6.766-8.618Z" transform="translate(-126.42 -83.737)" fill="#263238"/>
            <path id="Trazado_875140" data-name="Trazado 875140" d="M338.559,196.557l-2.3,11.532h-3.83l.234-1.085a4.737,4.737,0,0,1-3.341,1.277,4.917,4.917,0,0,1-4.873-5.256,6.378,6.378,0,0,1,6.255-6.66,3.937,3.937,0,0,1,3.532,1.575l.277-1.383Zm-5.085,5.255a2.04,2.04,0,0,0-2.192-2.213c-1.6,0-2.745,1.3-2.745,3.234a2.024,2.024,0,0,0,2.192,2.192c1.617,0,2.745-1.3,2.745-3.213" transform="translate(-142.458 -86.218)" fill="#263238"/>
            <path id="Trazado_875141" data-name="Trazado 875141" d="M357.7,202.516l3.128,5.724h-4.3l-1.575-3.022-2.787,3.022H347.59l5.767-5.916-3.043-5.617h4.234l1.532,2.936,2.745-2.936h4.446Z" transform="translate(-152.617 -86.368)" fill="#263238"/>
            <path id="Trazado_875142" data-name="Trazado 875142" d="M373.08,211.648a2.51,2.51,0,0,1,2.6-2.575,2.128,2.128,0,0,1,2.277,2.213,2.517,2.517,0,0,1-2.575,2.575,2.181,2.181,0,0,1-2.3-2.213" transform="translate(-163.809 -91.798)" fill="#263238"/>
            <path id="Trazado_875143" data-name="Trazado 875143" d="M323.648,230.668h4.65l-.225,1.156H321.39l.186-.9,4.53-3.626c1.248-1.01,1.621-1.621,1.621-2.378,0-.81-.572-1.342-1.82-1.342a3.309,3.309,0,0,0-2.4,1.036l-.89-.77a4.668,4.668,0,0,1,3.48-1.421c1.887,0,2.963.956,2.963,2.324,0,1.076-.465,2.006-2.059,3.268Z" transform="translate(-141.114 -97.658)" fill="#263238"/>
            <path id="Trazado_875144" data-name="Trazado 875144" d="M338.708,223.764l-.77,2.551h.9c2.378,0,3.454.983,3.454,2.484,0,1.926-1.581,3.215-3.959,3.215a4.361,4.361,0,0,1-3.254-1.169l.7-1.023a3.5,3.5,0,0,0,2.644,1.01c1.607,0,2.537-.7,2.537-1.887,0-.916-.664-1.474-2.364-1.474h-2.258l1.448-4.862h5.247l-.227,1.156Z" transform="translate(-147.125 -97.741)" fill="#263238"/>
            <path id="Trazado_875145" data-name="Trazado 875145" d="M350.265,228.516c0-3.228,1.82-6.1,4.7-6.1,1.953,0,3.135,1.262,3.135,3.414,0,3.228-1.833,6.1-4.689,6.1-1.966,0-3.148-1.262-3.148-3.414m6.509-2.657c0-1.475-.717-2.258-1.913-2.258-2.1,0-3.267,2.723-3.267,4.888,0,1.474.717,2.258,1.926,2.258,2.086,0,3.254-2.723,3.254-4.888" transform="translate(-153.792 -97.658)" fill="#263238"/>
            <path id="Trazado_875146" data-name="Trazado 875146" d="M480.53,397.162l2.383,3.852L488.987,394l-3.2-3.389Z" transform="translate(-210.988 -171.506)" fill="#7d6eb2"/>
            <path id="Trazado_875147" data-name="Trazado 875147" d="M489.786,395.37a5.761,5.761,0,0,1-.817,1.081c-.537.64-1.308,1.5-2.176,2.43l-2.24,2.368a6.627,6.627,0,0,1-.974.94,5.844,5.844,0,0,1,.82-1.079c.539-.639,1.31-1.5,2.179-2.429l2.236-2.369a6.692,6.692,0,0,1,.972-.942" transform="translate(-212.326 -173.595)" fill="#263238"/>
            <path id="Trazado_875148" data-name="Trazado 875148" d="M484.683,396.016a13.037,13.037,0,0,1,2.773,2.748,13.04,13.04,0,0,1-2.773-2.748" transform="translate(-212.809 -173.878)" fill="#263238"/>
            <g id="Grupo_1100677" data-name="Grupo 1100677" transform="translate(271.199 221.851)" opacity="0.6">
              <g id="Grupo_1100676" data-name="Grupo 1100676">
                <g id="Grupo_1100675" data-name="Grupo 1100675" clip-path="url(#clip-path-11)">
                  <path id="Trazado_875149" data-name="Trazado 875149" d="M484.211,403.165l6.074-7.016-.605-.641-6.2,6.806.648.782" transform="translate(-483.483 -395.508)" fill="#fff"/>
                </g>
              </g>
            </g>
            <path id="Trazado_875150" data-name="Trazado 875150" d="M390.1,417.939l.015-.946,9.586.074-.017,3.121-.592.032c-2.634.121-13.4.441-15.16-.064-1.957-.565,6.167-2.216,6.167-2.216" transform="translate(-168.442 -183.09)" fill="#7d6eb2"/>
            <g id="Grupo_1100680" data-name="Grupo 1100680" transform="translate(227.786 234.481)" opacity="0.6">
              <g id="Grupo_1100679" data-name="Grupo 1100679">
                <g id="Grupo_1100678" data-name="Grupo 1100678" clip-path="url(#clip-path-12)">
                  <path id="Trazado_875151" data-name="Trazado 875151" d="M406.088,420.551a3.063,3.063,0,0,1,1.236-1.885,3.4,3.4,0,0,1,2.237-.632l-.022,2.48Z" transform="translate(-406.088 -418.023)" fill="#fff"/>
                </g>
              </g>
            </g>
            <g id="Grupo_1100683" data-name="Grupo 1100683" transform="translate(215.16 235.787)" opacity="0.6">
              <g id="Grupo_1100682" data-name="Grupo 1100682">
                <g id="Grupo_1100681" data-name="Grupo 1100681" clip-path="url(#clip-path-13)">
                  <path id="Trazado_875152" data-name="Trazado 875152" d="M386.109,420.352s-2.85.746-2.5,1.183,11.245.494,16.055.127l-.013-.2-12.71.035s-.278-1.122-.833-1.147" transform="translate(-383.579 -420.352)" fill="#fff"/>
                </g>
              </g>
            </g>
            <path id="Trazado_875153" data-name="Trazado 875153" d="M399.822,422.266a.92.92,0,0,1-.164.016l-.471.024-1.735.061c-1.466.041-3.491.073-5.728.064s-4.262-.061-5.727-.116l-1.734-.076-.471-.028a.915.915,0,0,1-.164-.017,1.027,1.027,0,0,1,.165,0l.472.008,1.735.042c1.465.035,3.488.073,5.725.084s4.26-.011,5.725-.033l1.736-.026.472,0a.939.939,0,0,1,.165.006" transform="translate(-168.441 -185.372)" fill="#263238"/>
            <path id="Trazado_875154" data-name="Trazado 875154" d="M388.868,421.552a3.461,3.461,0,0,0-.317-.771,3.715,3.715,0,0,0-.586-.62,1.263,1.263,0,0,1,.685.564,1.122,1.122,0,0,1,.218.827" transform="translate(-170.345 -184.48)" fill="#263238"/>
            <path id="Trazado_875155" data-name="Trazado 875155" d="M394.224,419.72c-.027.016-.16-.137-.3-.342s-.227-.384-.2-.4.16.137.3.342.227.383.2.4" transform="translate(-172.873 -183.962)" fill="#263238"/>
            <path id="Trazado_875156" data-name="Trazado 875156" d="M395.537,419.237c-.021.022-.171-.072-.334-.21s-.278-.268-.256-.29.171.072.334.21.278.268.256.29" transform="translate(-173.409 -183.854)" fill="#263238"/>
            <path id="Trazado_875157" data-name="Trazado 875157" d="M396.1,418.1a2.344,2.344,0,1,1-.5-.051,1.206,1.206,0,0,1,.5.051" transform="translate(-173.481 -183.555)" fill="#263238"/>
            <path id="Trazado_875158" data-name="Trazado 875158" d="M396.309,417.084a1.021,1.021,0,0,1-.557.148,1.033,1.033,0,0,1-.573-.074,44,44,0,0,0,1.13-.073" transform="translate(-173.512 -183.126)" fill="#263238"/>
            <path id="Trazado_875159" data-name="Trazado 875159" d="M392.648,418.289a1.91,1.91,0,0,1-.613-.007,3.849,3.849,0,0,1-.652-.137,1.888,1.888,0,0,1-.372-.145.313.313,0,0,1-.15-.178.217.217,0,0,1,.095-.227,1.174,1.174,0,0,1,1.388.313.983.983,0,0,1,.2.381c.024.1.021.153.014.154a1.554,1.554,0,0,0-.274-.488,1.111,1.111,0,0,0-.521-.319,1.018,1.018,0,0,0-.731.043c-.1.067-.061.173.047.234a1.906,1.906,0,0,0,.344.139,4.525,4.525,0,0,0,.63.156c.367.062.6.064.6.082" transform="translate(-171.614 -183.306)" fill="#263238"/>
            <path id="Trazado_875160" data-name="Trazado 875160" d="M393.711,418.106a.53.53,0,0,1-.067-.4.9.9,0,0,1,.172-.416.624.624,0,0,1,.513-.288.226.226,0,0,1,.186.264.6.6,0,0,1-.107.254,1.762,1.762,0,0,1-.293.344.9.9,0,0,1-.353.229c-.011-.014.123-.1.294-.282a2.014,2.014,0,0,0,.26-.34c.085-.12.145-.336-.008-.363a.556.556,0,0,0-.406.24.909.909,0,0,0-.177.37,1.921,1.921,0,0,0-.013.384" transform="translate(-172.836 -183.095)" fill="#263238"/>
            <path id="Trazado_875161" data-name="Trazado 875161" d="M409.518,417.948c0,.02-.273-.026-.705.02a3.218,3.218,0,0,0-1.543.581,2.891,2.891,0,0,0-.973,1.258c-.149.38-.165.635-.187.632a.491.491,0,0,1,0-.179,2.2,2.2,0,0,1,.108-.478,2.757,2.757,0,0,1,.979-1.318,3.1,3.1,0,0,1,1.608-.573,2.673,2.673,0,0,1,.524.015.571.571,0,0,1,.187.041" transform="translate(-178.309 -183.482)" fill="#263238"/>
            <path id="Trazado_875162" data-name="Trazado 875162" d="M401.778,420.966a8.433,8.433,0,0,1-2.789.01c0-.031.626.008,1.394,0s1.391-.045,1.394-.014" transform="translate(-175.185 -184.83)" fill="#263238"/>
            <path id="Trazado_875163" data-name="Trazado 875163" d="M407.079,420.985c.022.022-.053.122-.118.255s-.1.25-.134.248-.048-.14.029-.293.2-.232.223-.21" transform="translate(-178.615 -184.842)" fill="#263238"/>
            <path id="Trazado_875164" data-name="Trazado 875164" d="M408.28,419.538c.022.021-.04.113-.14.205s-.2.151-.221.13.04-.113.14-.205.2-.15.221-.13" transform="translate(-179.104 -184.206)" fill="#263238"/>
            <path id="Trazado_875165" data-name="Trazado 875165" d="M409.943,418.846c-.007.03-.134.028-.274.073s-.242.114-.267.094.056-.142.231-.2.32,0,.31.029" transform="translate(-179.755 -183.881)" fill="#263238"/>
            <path id="Trazado_875166" data-name="Trazado 875166" d="M411.427,418.563c.011.027-.044.073-.123.1s-.153.029-.164,0,.044-.073.123-.1.153-.028.164,0" transform="translate(-180.519 -183.77)" fill="#263238"/>
            <path id="Trazado_875167" data-name="Trazado 875167" d="M369.723,161.742l-14.807-15L356.8,127.2l.339-.388c.183-.214.392-.448.637-.7a3.684,3.684,0,0,1,.98-.729,5.642,5.642,0,0,1,1.416-.561c.463-.066.616-.651.246-.847a3.952,3.952,0,0,0-2.927.762c-1.277.807-.5-1.412-.235-2.225s.978-3.364.791-3.638c-.273-.4-.766-.177-1.015.641s-1.167,3.221-1.593,3.071,1-4.27,1-4.27.448-.836-.038-1.026c-.876-.343-2.06,4.141-2.163,4.57-.071.3-.54.151-.446-.165s1.513-4.081.625-4.439c-.682-.275-1.01,3.68-1.738,4.307s.557-2.981-.105-3.217c-.247-.088-.444-.119-.882,2.052a42.974,42.974,0,0,0-.845,4.529h0l-4.655,23.342,14.571,19.291Z" transform="translate(-152 -51.478)" fill="#ffbe9d"/>
            <path id="Trazado_875168" data-name="Trazado 875168" d="M396.232,119.409c-.61.351,1.3,3.671.472,3.184s-1.86-4.32-2.482-3.927c-.809.512,1.257,3.952,1.41,4.256s-.286.524-.409.243c-.177-.4-2.146-4.6-2.946-4.109-.444.275.146,1.016.146,1.016s2.135,3.8,1.75,4.022-1.721-1.967-2.117-2.736-.916-.892-1.113-.449c-.135.3,1.02,2.686,1.429,3.437s1.569,2.8.167,2.231a3.95,3.95,0,0,0-3.016-.225c-.329.259-.073.807.394.789a5.672,5.672,0,0,1,1.494.3,3.687,3.687,0,0,1,1.094.541c.287.209.534.4.753.579l.4.321,8,19.719-7.267,16.914,11.263,4.193,5.063-22.367-11.605-21.767,0,0a43.016,43.016,0,0,0-1.643-4.305c-.819-2.057-1.007-1.991-1.235-1.861" transform="translate(-170.963 -52.091)" fill="#ffbe9d"/>
            <path id="Trazado_875169" data-name="Trazado 875169" d="M416.871,304.185l-7.317-37.638-10.331.888v-.086l-18.872,1.708s-.884,43.227-1.2,43.227l5.169,39.4v.007l14.9-.68-5.759-39.225,2.125-31.477.425-.577,8.622,32.181,29.353,33.221,9.563-9.248Z" transform="translate(-166.477 -117.033)" fill="#455a64"/>
            <path id="Trazado_875170" data-name="Trazado 875170" d="M405.375,312.9a1.319,1.319,0,0,1-.008-.322c.009-.243.02-.547.034-.92.044-.839.1-1.983.177-3.381.18-2.888.425-6.811.694-11.145.274-3.934.525-7.528.716-10.275l0-.036.022-.026,2.586-3.072.718-.828a1.729,1.729,0,0,1,.268-.275,1.752,1.752,0,0,1-.218.316l-.673.865-2.511,3.134.025-.062-.645,10.28c-.3,4.332-.578,8.252-.78,11.139-.112,1.395-.2,2.537-.27,3.374-.035.371-.065.675-.088.917a1.353,1.353,0,0,1-.05.318" transform="translate(-177.984 -124.09)" fill="#263238"/>
            <path id="Trazado_875171" data-name="Trazado 875171" d="M414.82,267.976a44.482,44.482,0,0,1,0,7.2,44.5,44.5,0,0,1,0-7.2" transform="translate(-182.072 -117.661)" fill="#263238"/>
            <path id="Trazado_875172" data-name="Trazado 875172" d="M392.156,273.188a2.6,2.6,0,0,1,.466-.076l1.377-.165c1.193-.138,2.915-.33,4.982-.54l.14-.014v.142c.005,1.769.011,3.809.017,5.976v.091l-.081.04-.107.053-3.6,1.771-.068.033-.064-.038-3.119-1.849-.059-.035v-.067c.025-1.6.045-2.927.061-3.911.012-.426.022-.777.03-1.058a1.634,1.634,0,0,1,.027-.354,2.646,2.646,0,0,1,.027.4c.008.288.018.647.03,1.083.015.966.036,2.272.061,3.841l-.058-.1,3.14,1.812-.132,0,3.6-1.784.107-.053-.081.131c.006-2.167.012-4.206.017-5.976l.141.128c-2.015.18-3.711.315-4.915.406l-1.41.1a3.791,3.791,0,0,1-.522.019" transform="translate(-172.133 -119.6)" fill="#263238"/>
            <path id="Trazado_875173" data-name="Trazado 875173" d="M418.058,270.633a2.606,2.606,0,0,1,.466-.076l1.376-.165c1.193-.138,2.915-.33,4.982-.54l.14-.014v.142c.005,1.769.011,3.809.017,5.976v.091l-.081.04-.107.053-3.6,1.771-.068.033-.064-.038L418,276.058l-.059-.035v-.067c.025-1.6.045-2.927.061-3.91.012-.427.022-.777.03-1.059a1.682,1.682,0,0,1,.027-.354,2.644,2.644,0,0,1,.027.4c.008.288.019.647.03,1.083.015.966.036,2.272.061,3.841l-.058-.1,3.14,1.812-.131,0,3.6-1.784.107-.053-.081.131c.006-2.167.012-4.206.017-5.976l.141.128c-2.015.18-3.711.315-4.915.406l-1.41.1a3.794,3.794,0,0,1-.522.018" transform="translate(-183.506 -118.478)" fill="#263238"/>
            <path id="Trazado_875174" data-name="Trazado 875174" d="M399.219,275.231a41.752,41.752,0,0,1-6.97.322,41.76,41.76,0,0,1,6.97-.322" transform="translate(-172.226 -120.822)" fill="#263238"/>
            <path id="Trazado_875175" data-name="Trazado 875175" d="M424.987,272.884a40.273,40.273,0,0,1-6.837.519,40.264,40.264,0,0,1,6.837-.519" transform="translate(-183.598 -119.799)" fill="#263238"/>
            <path id="Trazado_875176" data-name="Trazado 875176" d="M397.259,346.586a39.948,39.948,0,0,1-6.777.83,39.958,39.958,0,0,1,6.777-.83" transform="translate(-171.45 -152.165)" fill="#263238"/>
            <path id="Trazado_875177" data-name="Trazado 875177" d="M439.433,335.086c.029.084-1.612.658-3.468,1.7s-3.212,2.128-3.268,2.059a3.777,3.777,0,0,1,.834-.782,17.252,17.252,0,0,1,4.8-2.679,3.769,3.769,0,0,1,1.1-.3" transform="translate(-189.984 -147.124)" fill="#263238"/>
            <path id="Trazado_875178" data-name="Trazado 875178" d="M340.481,87.469a1.47,1.47,0,0,1-.111-.207l-.3-.619c-.134-.27-.28-.614-.485-1.005l-.73-1.337c-.281-.5-.636-1.029-1-1.622-.389-.578-.828-1.195-1.312-1.847a35.559,35.559,0,0,0-3.708-4.084,32.509,32.509,0,0,0-12.307-7.165,29.7,29.7,0,0,0-8.335-1.351,32.353,32.353,0,0,0-17.355,4.621,29.7,29.7,0,0,0-6.56,5.319,32.517,32.517,0,0,0-7.114,12.338,35.583,35.583,0,0,0-1.186,5.387c-.095.807-.169,1.56-.219,2.255-.02.7-.063,1.332-.059,1.9s.022,1.079.031,1.522.061.812.08,1.113.037.517.049.685a1.363,1.363,0,0,1,.007.234,1.419,1.419,0,0,1-.036-.231c-.019-.168-.045-.394-.077-.683s-.081-.673-.108-1.113-.037-.955-.059-1.527.022-1.213.035-1.913c.041-.7.108-1.456.2-2.268a35,35,0,0,1,1.15-5.426,32.484,32.484,0,0,1,7.114-12.46,29.837,29.837,0,0,1,6.61-5.381A32.484,32.484,0,0,1,312.2,67.945a29.843,29.843,0,0,1,8.408,1.38A32.485,32.485,0,0,1,332.979,76.6a34.987,34.987,0,0,1,3.7,4.136c.481.66.915,1.285,1.3,1.87.358.6.707,1.138.982,1.642l.708,1.354c.2.4.335.744.461,1.02l.272.632a1.362,1.362,0,0,1,.084.219" transform="translate(-122.759 -29.83)" fill="#263238"/>
            <path id="Trazado_875179" data-name="Trazado 875179" d="M347.937,90.1a2.292,2.292,0,0,1-.263-.337c-.171-.221-.389-.57-.72-.984a28.291,28.291,0,0,0-8.246-7.337,26.774,26.774,0,0,0-15.557-3.674,28.308,28.308,0,0,0-10.658,2.874c-.481.222-.832.436-1.083.558a2.3,2.3,0,0,1-.386.183,2.394,2.394,0,0,1,.356-.234c.243-.139.586-.37,1.061-.609a25.461,25.461,0,0,1,4.142-1.757,27.123,27.123,0,0,1,27.543,6.5,25.382,25.382,0,0,1,2.918,3.424c.318.426.522.786.677,1.019a2.338,2.338,0,0,1,.214.369" transform="translate(-136.562 -33.996)" fill="#263238"/>
            <path id="Trazado_875180" data-name="Trazado 875180" d="M399.839,196.445,397.234,210c5.434,7.562,5.929,14.048,5.929,14.048l-29.2,2.51c.545-4.579,3.368-14.493,3.368-14.493l-4.239-14.474-8.5-11.062,8.431-7.6c-.162.427,7.9,5.1,7.9,5.1l11.585.1a9.75,9.75,0,0,1,1.665.331l5.66-14.672a21,21,0,0,1,2.911,14.34c-1.044,5.625-.846,6.94-2.911,12.319" transform="translate(-160.083 -74.548)" fill="#7d6eb2"/>
            <path id="Trazado_875181" data-name="Trazado 875181" d="M384.95,198.949a2.317,2.317,0,0,1,.427.51,8.221,8.221,0,0,1,.875,1.592,7.758,7.758,0,0,1,.586,2.637,6.691,6.691,0,0,1-.692,3.236,5.768,5.768,0,0,1-2.241,2.434,5.336,5.336,0,0,1-2.612.7,4.627,4.627,0,0,1-1.789-.345,3.045,3.045,0,0,1-.44-.227c-.1-.059-.144-.095-.139-.1a5.815,5.815,0,0,0,2.365.469,5.305,5.305,0,0,0,2.48-.729,5.624,5.624,0,0,0,2.116-2.332,6.591,6.591,0,0,0,.684-3.1,7.975,7.975,0,0,0-.508-2.57,16.035,16.035,0,0,0-1.111-2.177" transform="translate(-166.375 -87.353)" fill="#263238"/>
            <path id="Trazado_875182" data-name="Trazado 875182" d="M425.017,208.788c-.047-.022.2-.551.45-1.452a10.549,10.549,0,0,0-.568-7.109c-.386-.85-.718-1.333-.675-1.363.017-.011.112.1.272.313a6.617,6.617,0,0,1,.59.959,9.563,9.563,0,0,1,.58,7.259,6.581,6.581,0,0,1-.43,1.041c-.124.236-.2.361-.219.352" transform="translate(-186.264 -87.316)" fill="#263238"/>
            <g id="Grupo_1100686" data-name="Grupo 1100686" transform="translate(224.045 133.307)" opacity="0.3">
              <g id="Grupo_1100685" data-name="Grupo 1100685">
                <g id="Grupo_1100684" data-name="Grupo 1100684" clip-path="url(#clip-path-14)">
                  <path id="Trazado_875183" data-name="Trazado 875183" d="M410.216,238.99a1.171,1.171,0,0,0-1.166-.157,5.574,5.574,0,0,1-5.493-.757c-1.153-.481-2.624-.695-3.538.157a2.01,2.01,0,0,0-.293,2.5,1.959,1.959,0,0,0,1.217.8c2.919.823,5.427.217,8.284-.927a2.2,2.2,0,0,0,.936-.59.823.823,0,0,0,.053-1.027" transform="translate(-399.419 -237.654)"/>
                </g>
              </g>
            </g>
            <g id="Grupo_1100689" data-name="Grupo 1100689" transform="translate(211.582 102.287)" opacity="0.3">
              <g id="Grupo_1100688" data-name="Grupo 1100688">
                <g id="Grupo_1100687" data-name="Grupo 1100687" clip-path="url(#clip-path-15)">
                  <path id="Trazado_875184" data-name="Trazado 875184" d="M379.028,184.34a7.905,7.905,0,0,0-1.8,5.457,4.974,4.974,0,0,0,3.41,4.352c1.3.345,2.721.036,3.995.466,2.351.794,3.6,3.869,6.07,4.09,2.238.2,3.864-2.058,5.95-2.892a16.107,16.107,0,0,1,3.417-.658,9.2,9.2,0,0,0,6.092-3.5,5.9,5.9,0,0,0,.167-6.745c-1.541-2.055-4.4-2.557-6.968-2.558a29.264,29.264,0,0,0-11.337,2.288,7.256,7.256,0,0,0-2.159,1.262,2.931,2.931,0,0,0-1.022,2.21" transform="translate(-377.2 -182.354)"/>
                </g>
              </g>
            </g>
            <path id="Trazado_875185" data-name="Trazado 875185" d="M412.791,168.406a2.916,2.916,0,0,0-1.816-2.321c-1.127-.429-2.446-.121-3.548-.611-1.373-.61-1.953-2.222-2.3-3.685s-.679-3.077-1.861-4.005a27.824,27.824,0,0,0-2.783-1.376c-1.307-.807-2.017-2.274-2.91-3.523a6.791,6.791,0,0,0-1.195-1.3c-.018-.023-.034-.049-.053-.072-1.9-2.29-6.964-2.589-9.154-.576l.084-.073c-4.083.306-6.673,6.9-6.716,11.081-.026,2.6.813,5.323-.172,7.73-.573,1.4-1.717,2.531-2.155,3.98a4.423,4.423,0,0,0,7.774,3.932,2.552,2.552,0,0,0,1.808,2.354,7.48,7.48,0,0,0,3.154.192c2.266-.186,4.879-.577,6.042-2.531a4.078,4.078,0,0,0,3.714,1.544,11.357,11.357,0,0,0,3.993-.815,1.642,1.642,0,0,1-.148-.231,3.648,3.648,0,0,0,.6-.29,2.743,2.743,0,0,0,1.241-3.244l1.221,1.416a4.871,4.871,0,0,0,2.043-6.172,5.867,5.867,0,0,1,1.926,1.282,2.914,2.914,0,0,0,1.2-2.689" transform="translate(-165.987 -65.684)" fill="#263238"/>
            <path id="Trazado_875186" data-name="Trazado 875186" d="M419.8,170.485a1.982,1.982,0,0,0-.264-1.322,2.686,2.686,0,0,0-1.181-1.047,6.558,6.558,0,0,0-2.082-.484,8.416,8.416,0,0,1-2.606-.55,3.13,3.13,0,0,1-1.187-.939,4.607,4.607,0,0,1-.722-1.423c-.351-1.032-.426-2.17-.771-3.254a4.848,4.848,0,0,0-.759-1.531,2.505,2.505,0,0,0-1.412-.929c-.574-.142-1.189-.131-1.8-.251a2.942,2.942,0,0,1-1.6-.873,8.149,8.149,0,0,1-1.564-2.994,6.617,6.617,0,0,0-1.512-2.533,6,6,0,0,0-5.849-1.61,11.364,11.364,0,0,0-1.311.47,1.523,1.523,0,0,1,.31-.19,5.437,5.437,0,0,1,.97-.389,6.079,6.079,0,0,1,3.806.112,6.224,6.224,0,0,1,2.245,1.438,6.827,6.827,0,0,1,1.592,2.608,7.992,7.992,0,0,0,1.516,2.889,2.654,2.654,0,0,0,1.456.788c.569.113,1.186.1,1.812.252a2.8,2.8,0,0,1,1.571,1.034,5.1,5.1,0,0,1,.8,1.624c.353,1.133.421,2.262.754,3.257a3.408,3.408,0,0,0,1.756,2.225,8.374,8.374,0,0,0,2.528.564,6.568,6.568,0,0,1,2.129.542,2.769,2.769,0,0,1,1.209,1.138,1.923,1.923,0,0,1,.245,1.02,1.062,1.062,0,0,1-.08.357" transform="translate(-173.51 -66.029)" fill="#455a64"/>
            <path id="Trazado_875187" data-name="Trazado 875187" d="M412.86,179.383c-.007-.017.119-.048.31-.182a1.573,1.573,0,0,0,.567-.82,2.166,2.166,0,0,0-.1-1.557,3.764,3.764,0,0,0-1.483-1.494c-.675-.428-1.507-.749-2.327-1.268a4.371,4.371,0,0,1-1.134-1,4.167,4.167,0,0,1-.7-1.446,22.99,22.99,0,0,1-.43-3.346,4.169,4.169,0,0,0-1.487-3.039c-.967-.684-2.267-.89-3.135-1.795a5.785,5.785,0,0,1-1.363-3.106c-.178-1.065-.25-2.08-.49-2.988a6.845,6.845,0,0,0-1.125-2.332,7.4,7.4,0,0,0-2.94-2.326c-.831-.346-1.334-.415-1.327-.447a1.726,1.726,0,0,1,.362.048,6.321,6.321,0,0,1,1.007.293,7.28,7.28,0,0,1,3.063,2.307,6.983,6.983,0,0,1,1.194,2.394c.257.935.338,1.96.521,3a5.554,5.554,0,0,0,1.3,2.952c.781.827,2.043,1.026,3.1,1.758a3.373,3.373,0,0,1,1.162,1.483,6.64,6.64,0,0,1,.439,1.756,23.506,23.506,0,0,0,.406,3.311,3.927,3.927,0,0,0,.641,1.361,4.174,4.174,0,0,0,1.062.95c.785.51,1.618.846,2.306,1.3a3.893,3.893,0,0,1,1.52,1.6,2.264,2.264,0,0,1,.058,1.663,1.575,1.575,0,0,1-.642.832.883.883,0,0,1-.343.133" transform="translate(-173.741 -66.844)" fill="#455a64"/>
            <path id="Trazado_875188" data-name="Trazado 875188" d="M398.968,180.816a1.9,1.9,0,0,0,.37-1.1,3.219,3.219,0,0,0-.288-1.336c-.212-.5-.557-1.019-.853-1.656a3.314,3.314,0,0,1-.237-2.273,12.134,12.134,0,0,1,1.033-2.4,5.634,5.634,0,0,0,.732-2.67,4.664,4.664,0,0,0-.978-2.767c-.616-.831-1.383-1.533-1.985-2.348a5.346,5.346,0,0,1-.726-1.31,5.121,5.121,0,0,1-.286-1.407,11.262,11.262,0,0,1,.2-2.609c.136-.8.272-1.543.32-2.225a5.187,5.187,0,0,0-.6-3.113,4.512,4.512,0,0,0-.76-.907.959.959,0,0,1,.26.174,2.891,2.891,0,0,1,.6.672,5.152,5.152,0,0,1,.707,3.187c-.036.7-.162,1.45-.287,2.25a11.239,11.239,0,0,0-.173,2.551,4.878,4.878,0,0,0,.279,1.331,5.1,5.1,0,0,0,.694,1.236c.582.785,1.348,1.483,1.99,2.346a4.927,4.927,0,0,1,1.029,2.936,5.856,5.856,0,0,1-.777,2.793,12.254,12.254,0,0,0-1.038,2.34,3.105,3.105,0,0,0,.19,2.131c.273.621.609,1.157.814,1.677a3.237,3.237,0,0,1,.251,1.4,1.733,1.733,0,0,1-.272.859.845.845,0,0,1-.212.232" transform="translate(-173.397 -67.046)" fill="#455a64"/>
            <path id="Trazado_875189" data-name="Trazado 875189" d="M384.439,180.308a.7.7,0,0,1-.164-.271,1.388,1.388,0,0,1,.012-.908,2.45,2.45,0,0,1,.853-1.156,11.541,11.541,0,0,0,1.435-1.184,3.882,3.882,0,0,0,.923-1.979,4.606,4.606,0,0,0-.4-2.485,5.766,5.766,0,0,1-.59-2.862,10.092,10.092,0,0,1,1.064-2.948,6.143,6.143,0,0,0,.753-2.907,12.6,12.6,0,0,0-.606-2.786,8.515,8.515,0,0,1-.136-4.89,5.509,5.509,0,0,1,1.829-2.745,4.268,4.268,0,0,1,.765-.482,1.116,1.116,0,0,1,.294-.113,8.571,8.571,0,0,0-.987.683,5.56,5.56,0,0,0-1.7,2.715,8.426,8.426,0,0,0,.2,4.758,12.592,12.592,0,0,1,.633,2.846,6.383,6.383,0,0,1-.774,3.042,9.977,9.977,0,0,0-1.044,2.859,5.549,5.549,0,0,0,.558,2.734,7.306,7.306,0,0,1,.383,1.313,3.9,3.9,0,0,1,0,1.3,4.061,4.061,0,0,1-1.009,2.079,10.985,10.985,0,0,1-1.486,1.173,2.374,2.374,0,0,0-.848,1.066,1.39,1.39,0,0,0-.064.853c.054.192.121.282.108.289" transform="translate(-168.694 -66.998)" fill="#455a64"/>
          </g>
        </g>
      </g>
    </g>
  </g>
</svg>
