<svg xmlns="http://www.w3.org/2000/svg" xmlns:xlink="http://www.w3.org/1999/xlink" width="121.582" height="125.001" viewBox="0 0 121.582 125.001">
  <defs>
    <clipPath id="clip-path">
      <rect id="Rectángulo_401896" data-name="Rectángulo 401896" width="115" height="115" transform="translate(-6582 -9980)" fill="#fff" stroke="#707070" stroke-width="1"/>
    </clipPath>
  </defs>
  <g id="Grupo_1100768" data-name="Grupo 1100768" transform="translate(6585 9980)">
    <g id="Grupo_1100767" data-name="Grupo 1100767">
      <g id="Grupo_1100766" data-name="Grupo 1100766">
        <path id="_12068" data-name="12068" d="M94.486,72.232c-12.45-1.719-25.6-1.3-36.93,4.143-15.711,7.546-26.029,24.655-26.425,42.08s8.682,34.547,22.705,44.9S86.354,177.37,103.5,174.263c17.293-3.134,33.524-13.294,42.545-28.377,5.784-9.672,8.488-21.615,5.292-32.422-1.929-6.523-5.873-12.3-10.512-17.278A77.665,77.665,0,0,0,94.486,72.232Z" transform="translate(-6616.119 -10030.332)" fill="#7d6eb2"/>
        <g id="Enmascarar_grupo_1100078" data-name="Enmascarar grupo 1100078" clip-path="url(#clip-path)">
          <g id="dato-de-registro" transform="translate(-6582 -9980)">
            <g id="Grupo_1100711" data-name="Grupo 1100711">
              <path id="Trazado_875298" data-name="Trazado 875298" d="M63.955,50.735H84.818V43.2H63.955a2.024,2.024,0,0,1-2.021-2.021V21.761H5.907v89.309a2.246,2.246,0,0,0,2.246,2.246H82.572a2.246,2.246,0,0,0,2.246-2.246V92.024H63.955A2.024,2.024,0,0,1,61.934,90V52.757A2.024,2.024,0,0,1,63.955,50.735Z" fill="#dff6fd"/>
              <g id="Grupo_1100703" data-name="Grupo 1100703">
                <path id="Trazado_875299" data-name="Trazado 875299" d="M77.788,111.069a2.246,2.246,0,0,1-2.246,2.246h7.03a2.246,2.246,0,0,0,2.246-2.246V92.024h-7.03Z" fill="#c8effe"/>
                <rect id="Rectángulo_401906" data-name="Rectángulo 401906" width="7.03" height="7.537" transform="translate(77.788 43.198)" fill="#c8effe"/>
              </g>
              <line id="Línea_1641" data-name="Línea 1641" y1="7.088" transform="translate(84.818 43.422)" fill="none" stroke="#000" stroke-linecap="round" stroke-linejoin="round" stroke-miterlimit="10" stroke-width="3.369"/>
              <path id="Trazado_875300" data-name="Trazado 875300" d="M61.709,21.985H5.907v89.084a2.246,2.246,0,0,0,2.246,2.246H82.572a2.246,2.246,0,0,0,2.246-2.246V92.248" fill="none" stroke="#000" stroke-linecap="round" stroke-linejoin="round" stroke-miterlimit="10" stroke-width="3.369"/>
              <path id="Trazado_875301" data-name="Trazado 875301" d="M61.934,9.351H8.153A2.246,2.246,0,0,0,5.907,11.6V21.985H61.934Z" fill="#0ed290"/>
              <rect id="Rectángulo_401907" data-name="Rectángulo 401907" width="7.03" height="12.634" transform="translate(54.904 9.351)" fill="#00c285"/>
              <path id="Trazado_875302" data-name="Trazado 875302" d="M8.153,9.351A2.246,2.246,0,0,0,5.907,11.6V21.985H18.193V9.351Z" fill="#05e39c"/>
              <path id="Trazado_875303" data-name="Trazado 875303" d="M22.8,9.351H8.153A2.246,2.246,0,0,0,5.907,11.6V21.985h55.8V9.351H30.659" fill="none" stroke="#000" stroke-linecap="round" stroke-linejoin="round" stroke-miterlimit="10" stroke-width="3.369"/>
              <path id="Trazado_875304" data-name="Trazado 875304" d="M8.153,9.351A2.246,2.246,0,0,0,5.907,11.6V21.985H18.193V9.351Z" fill="none" stroke="#000" stroke-linecap="round" stroke-linejoin="round" stroke-miterlimit="10" stroke-width="3.369"/>
              <g id="Grupo_1100707" data-name="Grupo 1100707">
                <path id="Trazado_875305" data-name="Trazado 875305" d="M61.934,52.757a2.024,2.024,0,0,1,2.021-2.021h10.68V43.2H63.955a2.024,2.024,0,0,1-2.021-2.021V31.987H16.09V61.856H61.934Z" fill="#fff"/>
                <g id="Grupo_1100706" data-name="Grupo 1100706">
                  <g id="Grupo_1100704" data-name="Grupo 1100704">
                    <path id="Trazado_875306" data-name="Trazado 875306" d="M61.934,52.757a2,2,0,0,1,.193-.857H16.09v9.956H61.934Z" fill="none" stroke="#000" stroke-linecap="round" stroke-linejoin="round" stroke-miterlimit="10" stroke-width="3.369"/>
                    <path id="Trazado_875307" data-name="Trazado 875307" d="M63.955,50.735h10.68V43.2H63.955a2.024,2.024,0,0,1-1.869-1.254h-46V51.9H62.127A2.022,2.022,0,0,1,63.955,50.735Z" fill="none" stroke="#000" stroke-linecap="round" stroke-linejoin="round" stroke-miterlimit="10" stroke-width="3.369"/>
                    <path id="Trazado_875308" data-name="Trazado 875308" d="M61.934,41.176V31.987H16.09v9.956h46A2.006,2.006,0,0,1,61.934,41.176Z" fill="none" stroke="#000" stroke-linecap="round" stroke-linejoin="round" stroke-miterlimit="10" stroke-width="3.369"/>
                  </g>
                  <g id="Grupo_1100705" data-name="Grupo 1100705">
                    <path id="Trazado_875309" data-name="Trazado 875309" d="M61.709,60.549V52.757a2.237,2.237,0,0,1,.17-.857H34.084v9.956H61.709Z" fill="none" stroke="#000" stroke-linecap="round" stroke-linejoin="round" stroke-miterlimit="10" stroke-width="3.369"/>
                    <path id="Trazado_875310" data-name="Trazado 875310" d="M63.955,50.511h10.68V43.422H63.955a2.245,2.245,0,0,1-2.109-1.479H34.084V51.9H61.879A2.246,2.246,0,0,1,63.955,50.511Z" fill="none" stroke="#000" stroke-linecap="round" stroke-linejoin="round" stroke-miterlimit="10" stroke-width="3.369"/>
                    <line id="Línea_1642" data-name="Línea 1642" y1="9.956" transform="translate(34.084 31.988)" fill="none" stroke="#000" stroke-linecap="round" stroke-linejoin="round" stroke-miterlimit="10" stroke-width="3.369"/>
                  </g>
                </g>
              </g>
              <g id="Grupo_1100710" data-name="Grupo 1100710">
                <path id="Trazado_875311" data-name="Trazado 875311" d="M63.955,92.024A2.024,2.024,0,0,1,61.934,90V71.208H16.09v29.869H74.635V92.024H63.955Z" fill="#fff"/>
                <rect id="Rectángulo_401908" data-name="Rectángulo 401908" width="45.843" height="9.956" transform="translate(16.09 71.208)" fill="#fd8087"/>
                <path id="Trazado_875312" data-name="Trazado 875312" d="M63.955,92.024A2.024,2.024,0,0,1,61.934,90V71.208H16.09v29.869H74.635V92.024H63.955Z" fill="none" stroke="#000" stroke-linecap="round" stroke-linejoin="round" stroke-miterlimit="10" stroke-width="3.369"/>
                <g id="Grupo_1100709" data-name="Grupo 1100709">
                  <line id="Línea_1643" data-name="Línea 1643" x1="8.142" transform="translate(54.131 91.12)" fill="none" stroke="#000" stroke-linecap="round" stroke-linejoin="round" stroke-miterlimit="10" stroke-width="3.369"/>
                  <path id="Trazado_875313" data-name="Trazado 875313" d="M46.27,91.12H16.09v9.956H74.635V92.024" fill="none" stroke="#000" stroke-linecap="round" stroke-linejoin="round" stroke-miterlimit="10" stroke-width="3.369"/>
                  <g id="Grupo_1100708" data-name="Grupo 1100708">
                    <line id="Línea_1644" data-name="Línea 1644" y2="9.956" transform="translate(34.084 91.12)" fill="none" stroke="#000" stroke-linecap="round" stroke-linejoin="round" stroke-miterlimit="10" stroke-width="3.369"/>
                    <line id="Línea_1645" data-name="Línea 1645" y2="9.956" transform="translate(34.084 81.164)" fill="none" stroke="#000" stroke-linecap="round" stroke-linejoin="round" stroke-miterlimit="10" stroke-width="3.369"/>
                    <rect id="Rectángulo_401909" data-name="Rectángulo 401909" width="45.619" height="9.956" transform="translate(16.09 71.208)" fill="none" stroke="#000" stroke-linecap="round" stroke-linejoin="round" stroke-miterlimit="10" stroke-width="3.369"/>
                  </g>
                </g>
              </g>
            </g>
            <g id="Grupo_1100713" data-name="Grupo 1100713">
              <path id="Trazado_875314" data-name="Trazado 875314" d="M61.709,11.5V41.176a2.246,2.246,0,0,0,2.246,2.246h42.891a2.246,2.246,0,0,0,2.246-2.246V11.5Z" fill="#f9f3f1"/>
              <path id="Trazado_875315" data-name="Trazado 875315" d="M101.973,11.5V41.176a2.246,2.246,0,0,1-2.246,2.246h7.12a2.246,2.246,0,0,0,2.246-2.246V11.5Z" fill="#f3eae6"/>
              <path id="Trazado_875316" data-name="Trazado 875316" d="M99.5,43.422h7.345a2.246,2.246,0,0,0,2.246-2.246V11.723H61.709V41.176a2.246,2.246,0,0,0,2.246,2.246H91.641" fill="none" stroke="#000" stroke-linecap="round" stroke-linejoin="round" stroke-miterlimit="10" stroke-width="3.369"/>
              <path id="Trazado_875317" data-name="Trazado 875317" d="M109.093,11.723H61.709V3.931a2.246,2.246,0,0,1,2.246-2.246h42.891a2.246,2.246,0,0,1,2.246,2.246Z" fill="#26a6fe"/>
              <path id="Trazado_875318" data-name="Trazado 875318" d="M106.847,1.685h-7.12a2.246,2.246,0,0,1,2.246,2.246v7.792h7.12V3.931A2.246,2.246,0,0,0,106.847,1.685Z" fill="#0593fc"/>
              <path id="Trazado_875319" data-name="Trazado 875319" d="M109.093,11.723H61.709V3.931a2.246,2.246,0,0,1,2.246-2.246h42.891a2.246,2.246,0,0,1,2.246,2.246Z" fill="none" stroke="#000" stroke-linecap="round" stroke-linejoin="round" stroke-miterlimit="10" stroke-width="3.369"/>
              <line id="Línea_1646" data-name="Línea 1646" x2="33.75" transform="translate(68.693 35.029)" fill="none" stroke="#000" stroke-linecap="round" stroke-linejoin="round" stroke-miterlimit="10" stroke-width="3.369"/>
              <g id="Grupo_1100712" data-name="Grupo 1100712">
                <line id="Línea_1647" data-name="Línea 1647" y2="11.414" transform="translate(73.1 23.615)" fill="none" stroke="#000" stroke-linecap="round" stroke-linejoin="round" stroke-miterlimit="10" stroke-width="3.369"/>
                <line id="Línea_1648" data-name="Línea 1648" y2="9.085" transform="translate(81.412 25.944)" fill="none" stroke="#000" stroke-linecap="round" stroke-linejoin="round" stroke-miterlimit="10" stroke-width="3.369"/>
                <line id="Línea_1649" data-name="Línea 1649" y2="16.073" transform="translate(89.724 18.956)" fill="none" stroke="#000" stroke-linecap="round" stroke-linejoin="round" stroke-miterlimit="10" stroke-width="3.369"/>
                <line id="Línea_1650" data-name="Línea 1650" y2="6.756" transform="translate(98.037 28.273)" fill="none" stroke="#000" stroke-linecap="round" stroke-linejoin="round" stroke-miterlimit="10" stroke-width="3.369"/>
              </g>
            </g>
            <g id="Grupo_1100714" data-name="Grupo 1100714">
              <path id="Trazado_875320" data-name="Trazado 875320" d="M61.709,60.323V90a2.246,2.246,0,0,0,2.246,2.246h42.891A2.246,2.246,0,0,0,109.093,90V60.323Z" fill="#f9f3f1"/>
              <path id="Trazado_875321" data-name="Trazado 875321" d="M101.973,60.323V90a2.246,2.246,0,0,1-2.246,2.246h7.12A2.246,2.246,0,0,0,109.093,90V60.323Z" fill="#f3eae6"/>
              <path id="Trazado_875322" data-name="Trazado 875322" d="M61.709,90a2.246,2.246,0,0,0,2.246,2.246h42.891A2.246,2.246,0,0,0,109.093,90V60.549H61.709Z" fill="none" stroke="#000" stroke-linecap="round" stroke-linejoin="round" stroke-miterlimit="10" stroke-width="3.369"/>
              <path id="Trazado_875323" data-name="Trazado 875323" d="M109.093,60.549H61.709V52.757a2.246,2.246,0,0,1,2.246-2.246h42.891a2.246,2.246,0,0,1,2.246,2.246Z" fill="#26a6fe"/>
              <path id="Trazado_875324" data-name="Trazado 875324" d="M106.847,50.511h-7.12a2.246,2.246,0,0,1,2.246,2.246v7.792h7.12V52.757A2.246,2.246,0,0,0,106.847,50.511Z" fill="#0593fc"/>
              <path id="Trazado_875325" data-name="Trazado 875325" d="M109.093,60.549H61.709V52.757a2.246,2.246,0,0,1,2.246-2.246h42.891a2.246,2.246,0,0,1,2.246,2.246Z" fill="none" stroke="#000" stroke-linecap="round" stroke-linejoin="round" stroke-miterlimit="10" stroke-width="3.369"/>
              <line id="Línea_1651" data-name="Línea 1651" x2="30.952" transform="translate(70.092 68.485)" fill="none" stroke="#000" stroke-linecap="round" stroke-linejoin="round" stroke-miterlimit="10" stroke-width="3.369"/>
              <line id="Línea_1652" data-name="Línea 1652" x2="7.076" transform="translate(70.092 75.728)" fill="none" stroke="#000" stroke-linecap="round" stroke-linejoin="round" stroke-miterlimit="10" stroke-width="3.369"/>
              <line id="Línea_1653" data-name="Línea 1653" x2="17.975" transform="translate(83.07 75.728)" fill="none" stroke="#000" stroke-linecap="round" stroke-linejoin="round" stroke-miterlimit="10" stroke-width="3.369"/>
              <line id="Línea_1654" data-name="Línea 1654" x2="2.951" transform="translate(98.093 82.972)" fill="none" stroke="#000" stroke-linecap="round" stroke-linejoin="round" stroke-miterlimit="10" stroke-width="3.369"/>
              <line id="Línea_1655" data-name="Línea 1655" x2="22.099" transform="translate(70.092 82.972)" fill="none" stroke="#000" stroke-linecap="round" stroke-linejoin="round" stroke-miterlimit="10" stroke-width="3.369"/>
            </g>
          </g>
        </g>
      </g>
    </g>
  </g>
</svg>
