<svg xmlns="http://www.w3.org/2000/svg" width="85" height="85" viewBox="0 0 85 85">
  <g id="Grupo_56960" data-name="Grupo 56960" transform="translate(-1741.53 -2011.563)">
    <circle id="Elipse_4366" data-name="Elipse 4366" cx="42.5" cy="42.5" r="42.5" transform="translate(1741.53 2011.562)" fill="#7d6eb2"/>
    <g id="Grupo_56959" data-name="Grupo 56959" transform="translate(1757.69 2027.63)">
      <path id="Trazado_130362" data-name="Trazado 130362" d="M1899.828,2311.953a8.737,8.737,0,0,0-2.912-1.928,6.055,6.055,0,1,0-6.534,0,8.769,8.769,0,0,0-5.327,6.5,10.4,10.4,0,0,0-5.276-4.351,7.106,7.106,0,1,0-7.13,0,10.389,10.389,0,0,0-5.278,4.355,8.753,8.753,0,0,0-5.325-6.51,6.055,6.055,0,1,0-6.534,0,8.753,8.753,0,0,0-5.478,8.106v.77a.8.8,0,0,0,.341.654,14.71,14.71,0,0,0,15.626.739,10.375,10.375,0,0,0-.121,1.58v.924a.8.8,0,0,0,.341.654,17.368,17.368,0,0,0,9.991,3.134,17.551,17.551,0,0,0,4.187-.5.8.8,0,0,0-.381-1.549,15.95,15.95,0,0,1-3.806.458,15.784,15.784,0,0,1-8.737-2.614v-.5a8.737,8.737,0,1,1,17.474,0v.5a15.6,15.6,0,0,1-1.622.937.8.8,0,1,0,.712,1.427,17.244,17.244,0,0,0,2.164-1.287.8.8,0,0,0,.341-.654v-.924a10.486,10.486,0,0,0-.12-1.579,14.711,14.711,0,0,0,15.625-.739.8.8,0,0,0,.341-.654v-.77a8.686,8.686,0,0,0-2.56-6.182Zm-45.513-7.02a4.46,4.46,0,1,1,4.46,4.46A4.465,4.465,0,0,1,1854.315,2304.933Zm11.608,13.548a13.119,13.119,0,0,1-14.3,0v-.346a7.148,7.148,0,0,1,14.3,0Zm4.776-12.447a5.512,5.512,0,1,1,5.511,5.512A5.518,5.518,0,0,1,1870.7,2306.034Zm18.487-1.1a4.46,4.46,0,1,1,4.46,4.46A4.465,4.465,0,0,1,1889.186,2304.933Zm11.608,13.548a13.119,13.119,0,0,1-14.3,0v-.346a7.148,7.148,0,0,1,14.3,0v.346Z" transform="translate(-1850.033 -2272.155)" fill="#ffd947"/>
      <path id="Trazado_130363" data-name="Trazado 130363" d="M1976.7,2193.066a.8.8,0,0,0,.8.8h3.484l2.438,2.722a.8.8,0,0,0,1.188,0l2.438-2.722h9.859l4.089,2.845a.8.8,0,0,0,1.253-.655v-2.19h3.4a.8.8,0,0,0,.8-.8V2183.4a.8.8,0,1,0-1.594,0v8.865h-3.4a.8.8,0,0,0-.8.8v1.461l-3.042-2.116a.8.8,0,0,0-.455-.143h-10.466a.8.8,0,0,0-.594.265l-2.082,2.324-2.082-2.324a.8.8,0,0,0-.594-.265h-3.84a.8.8,0,0,0-.8.8Z" transform="translate(-1957.832 -2173.2)" fill="#ffd947"/>
      <path id="Trazado_130364" data-name="Trazado 130364" d="M1875.987,2140.111h3.4v2.19a.8.8,0,0,0,1.253.655l4.089-2.845h2.9a.8.8,0,1,0,0-1.594h-3.151a.8.8,0,0,0-.455.143l-3.042,2.116v-1.461a.8.8,0,0,0-.8-.8h-3.4v-17.474h41.673v5.134a.8.8,0,1,0,1.595,0v-5.931a.8.8,0,0,0-.8-.8h-43.267a.8.8,0,0,0-.8.8v19.068a.8.8,0,0,0,.8.8Z" transform="translate(-1871.443 -2119.448)" fill="#ffd947"/>
      <path id="Trazado_130365" data-name="Trazado 130365" d="M1996.824,2166.545a.8.8,0,0,0,.357-.084l7.274-3.637a.8.8,0,0,0,0-1.426l-7.274-3.637a.8.8,0,0,0-1.154.713v7.274a.8.8,0,0,0,.8.8Zm.8-6.781,4.694,2.347-4.694,2.347Z" transform="translate(-1974.284 -2151.983)" fill="#ffd947"/>
    </g>
  </g>
</svg>
