<svg xmlns="http://www.w3.org/2000/svg" width="85" height="85" viewBox="0 0 85 85">
  <g id="Grupo_1100562" data-name="Grupo 1100562" transform="translate(-895 -3211.299)">
    <circle id="Elipse_4375" data-name="Elipse 4375" cx="42.5" cy="42.5" r="42.5" transform="translate(895 3211.299)" fill="#7d6eb2"/>
    <g id="Grupo_56974" data-name="Grupo 56974" transform="translate(911.328 3221.215)">
      <path id="Trazado_130401" data-name="Trazado 130401" d="M856.209,4793.519a19.209,19.209,0,0,0-17.054,9.953.955.955,0,0,0,1.671.925,17.276,17.276,0,1,1,26.184,21.6c-.218.181-.437.377-.651.582a12,12,0,0,0-3.713,8.611v1.417h-3.309v-5.178a.955.955,0,1,0-1.909,0v5.178h-3.118v-11.625h3.118v2.286a.955.955,0,0,0,1.909,0v-3.241a.955.955,0,0,0-.955-.954h-1.464V4820.9a3.538,3.538,0,0,0,3.433-3.532v-1.316a2.807,2.807,0,0,0-1.945-2.676l-4.3-1.4a.9.9,0,0,1-.625-.86v-1.885a1.321,1.321,0,0,1,1.319-1.32h2.318a1.321,1.321,0,0,1,1.319,1.32.955.955,0,0,0,1.909,0,3.233,3.233,0,0,0-3.228-3.229h-.2v-2.1a.955.955,0,0,0-1.909,0v2.1h-.2a3.233,3.233,0,0,0-3.228,3.229v1.885a2.808,2.808,0,0,0,1.945,2.676l4.3,1.4a.9.9,0,0,1,.625.86v1.316a1.627,1.627,0,0,1-1.625,1.625H855.11a1.627,1.627,0,0,1-1.625-1.625.955.955,0,0,0-1.909,0,3.538,3.538,0,0,0,3.433,3.532v2.174h-1.655a.955.955,0,0,0-.955.954v12.58h-3.118v-1.418a11.864,11.864,0,0,0-4.326-9.162,17.273,17.273,0,0,1-5.71-17.693.955.955,0,0,0-1.847-.486,19.184,19.184,0,0,0,6.339,19.65,9.957,9.957,0,0,1,3.634,7.69v7.909a15.474,15.474,0,0,0,.3,2.263,8.59,8.59,0,0,0,16.574,0,15.461,15.461,0,0,0,.3-2.262v-7.908a10.084,10.084,0,0,1,3.125-7.233c.181-.174.365-.338.549-.491a19.191,19.191,0,0,0-12.02-33.949Zm-6.929,45.023h13.365v1.736H849.281Zm6.682,11.242a6.69,6.69,0,0,1-6.016-3.775h2.119a.955.955,0,1,0,0-1.909h-2.71a6.7,6.7,0,0,1-.075-1v-.914h13.365v.914a6.727,6.727,0,0,1-.075,1h-6.344a.955.955,0,1,0,0,1.909h5.752a6.69,6.69,0,0,1-6.016,3.775Z" transform="translate(-829.791 -4786.523)" fill="#ffd947"/>
      <path id="Trazado_130402" data-name="Trazado 130402" d="M960.018,4751.85a.954.954,0,0,0,.955-.955v-3.326a.955.955,0,0,0-1.909,0v3.326A.954.954,0,0,0,960.018,4751.85Z" transform="translate(-933.846 -4746.615)" fill="#ffd947"/>
      <path id="Trazado_130403" data-name="Trazado 130403" d="M842.118,4800.128a.955.955,0,0,0,1.35-1.351l-2.352-2.351a.954.954,0,0,0-1.35,1.35Z" transform="translate(-832.101 -4788.761)" fill="#ffd947"/>
      <path id="Trazado_130404" data-name="Trazado 130404" d="M1064.5,5019.807a.955.955,0,1,0-1.35,1.351l2.352,2.352a.955.955,0,0,0,1.35-1.351Z" transform="translate(-1022.172 -4978.831)" fill="#ffd947"/>
      <path id="Trazado_130405" data-name="Trazado 130405" d="M794.237,4915.723h-3.326a.955.955,0,0,0,0,1.909h3.326a.955.955,0,1,0,0-1.909Z" transform="translate(-789.957 -4890.505)" fill="#ffd947"/>
      <path id="Trazado_130406" data-name="Trazado 130406" d="M1110.147,4915.723h-3.326a.955.955,0,1,0,0,1.909h3.326a.955.955,0,1,0,0-1.909Z" transform="translate(-1058.758 -4890.505)" fill="#ffd947"/>
      <path id="Trazado_130407" data-name="Trazado 130407" d="M842.118,5019.807l-2.352,2.352a.955.955,0,0,0,1.35,1.351l2.352-2.352a.955.955,0,0,0-1.35-1.351Z" transform="translate(-832.101 -4978.831)" fill="#ffd947"/>
      <path id="Trazado_130408" data-name="Trazado 130408" d="M1063.824,4800.407a.952.952,0,0,0,.675-.28l2.352-2.351a.955.955,0,0,0-1.35-1.351l-2.352,2.352a.955.955,0,0,0,.675,1.63Z" transform="translate(-1022.172 -4788.76)" fill="#ffd947"/>
    </g>
  </g>
</svg>
