<svg xmlns="http://www.w3.org/2000/svg" width="85" height="85" viewBox="0 0 85 85">
  <g id="Grupo_1100560" data-name="Grupo 1100560" transform="translate(-566 -3219.537)">
    <circle id="Elipse_4370" data-name="Elipse 4370" cx="42.5" cy="42.5" r="42.5" transform="translate(566 3219.537)" fill="#7d6eb2"/>
    <g id="Grupo_56963" data-name="Grupo 56963" transform="translate(579.944 3237.72)">
      <path id="Trazado_130382" data-name="Trazado 130382" d="M1297.337,3266.7l-9.139-3.807a4.128,4.128,0,0,0-3.155,0l-4.388,1.828a.769.769,0,1,0,.592,1.42l4.388-1.828a2.579,2.579,0,0,1,1.972,0l9.138,3.807a2.321,2.321,0,0,1,1.463,2.124v32.9a2.39,2.39,0,0,1-2.449,2.32h-1.247a.769.769,0,1,0,0,1.539h1.247a3.929,3.929,0,0,0,3.988-3.859v-32.9A3.855,3.855,0,0,0,1297.337,3266.7Z" transform="translate(-1247.232 -3262.578)" fill="#ffd947"/>
      <path id="Trazado_130383" data-name="Trazado 130383" d="M1102.833,3325.342h-12.926a3.3,3.3,0,0,0,.045-4.314,3.324,3.324,0,0,0,.84-.611,3.305,3.305,0,0,0,.131-4.537,3.322,3.322,0,0,0,.713-.542,3.306,3.306,0,0,0,.136-4.532,3.349,3.349,0,0,0,.725-.549,3.31,3.31,0,0,0-2.341-5.649h-3.449v-14.485a2.321,2.321,0,0,1,1.463-2.124l1.4-.583a.769.769,0,0,0-.591-1.42l-1.4.583a3.854,3.854,0,0,0-2.409,3.544v14.485h-3.214a17.952,17.952,0,0,0-.27-11.009,2.967,2.967,0,0,0-1.092-1.537,3.015,3.015,0,0,0-4.8,2.584c.24,4.625-1.893,6.218-4.846,8.421a35.525,35.525,0,0,0-3.079,2.492v-1.008a.77.77,0,0,0-.769-.77h-7.426a.769.769,0,0,0-.769.77v21.817a.769.769,0,0,0,.769.769h7.426a.769.769,0,0,0,.769-.769v-1.936a6.382,6.382,0,0,1,3.565,1.225,3.913,3.913,0,0,0,2.363.809h13.567a4.092,4.092,0,0,0,1.792.414h13.677a.769.769,0,0,0,0-1.539Zm-30.462-.9a8.16,8.16,0,0,0-4.5-1.55V3313.9a.769.769,0,0,0-1.538,0V3325.6h-5.887v-20.278h5.887v5.232a.769.769,0,0,0,1.538,0v-2.808a26.339,26.339,0,0,1,4-3.444c2.955-2.205,5.746-4.288,5.463-9.734a1.475,1.475,0,0,1,1.473-1.551,1.473,1.473,0,0,1,.877.287,1.443,1.443,0,0,1,.531.746c1.272,4.173,1.252,7.684-.063,11.049a.769.769,0,0,0,.717,1.049h9.29a1.771,1.771,0,1,1,0,3.542H1087a.769.769,0,1,0,0,1.539h2.3a1.771,1.771,0,0,1,0,3.542H1087a.769.769,0,1,0,0,1.539h1.455a1.771,1.771,0,0,1,0,3.542h-2.3a.769.769,0,1,0,0,1.539h1.27a1.772,1.772,0,0,1,1.253,3.023,1.876,1.876,0,0,1-1.175.517h-13.7a2.366,2.366,0,0,1-1.427-.492Z" transform="translate(-1058.906 -3282.459)" fill="#ffd947"/>
      <path id="Trazado_130384" data-name="Trazado 130384" d="M1308.555,3299.588a2.932,2.932,0,1,0-2.932,2.932A2.935,2.935,0,0,0,1308.555,3299.588Zm-4.325,0a1.393,1.393,0,1,1,1.393,1.393A1.395,1.395,0,0,1,1304.231,3299.588Z" transform="translate(-1266.39 -3291.582)" fill="#ffd947"/>
      <path id="Trazado_130385" data-name="Trazado 130385" d="M1301.4,3418.448h-1.38a1.32,1.32,0,0,1-1.318-1.318.769.769,0,1,0-1.538,0,2.859,2.859,0,0,0,2.777,2.854v1.7a.769.769,0,0,0,1.539,0v-1.7a2.859,2.859,0,0,0,2.777-2.854v-1.065a2.268,2.268,0,0,0-1.571-2.162l-3.475-1.129a.734.734,0,0,1-.508-.7v-1.525a1.072,1.072,0,0,1,1.07-1.07h1.875a1.071,1.071,0,0,1,1.07,1.07.769.769,0,0,0,1.539,0,2.612,2.612,0,0,0-2.609-2.609h-.168v-1.7a.769.769,0,1,0-1.539,0v1.7h-.168a2.612,2.612,0,0,0-2.609,2.609v1.525a2.268,2.268,0,0,0,1.571,2.162l3.475,1.129a.733.733,0,0,1,.508.7v1.065a1.319,1.319,0,0,1-1.318,1.318Z" transform="translate(-1261.681 -3384.193)" fill="#ffd947"/>
    </g>
  </g>
</svg>
