<svg xmlns="http://www.w3.org/2000/svg" xmlns:xlink="http://www.w3.org/1999/xlink" width="267.243" height="373.102" viewBox="0 0 267.243 373.102">
  <defs>
    <linearGradient id="linear-gradient" x1="0.5" x2="0.5" y2="1" gradientUnits="objectBoundingBox">
      <stop offset="0" stop-color="#fff"/>
      <stop offset="1" stop-color="#d3d3d3"/>
    </linearGradient>
    <linearGradient id="linear-gradient-3" y1="0.5" x2="1" y2="0.5" gradientUnits="objectBoundingBox">
      <stop offset="0" stop-color="#ff928e"/>
      <stop offset="1" stop-color="#feb3b1"/>
    </linearGradient>
    <linearGradient id="linear-gradient-6" x1="294.087" y1="1.605" x2="296.088" y2="4.278" xlink:href="#linear-gradient-3"/>
    <linearGradient id="linear-gradient-7" x1="0.439" y1="-3.503" x2="0.505" y2="0.689" xlink:href="#linear-gradient-3"/>
    <linearGradient id="linear-gradient-8" x1="0.511" y1="0.146" x2="0.456" y2="1.705" xlink:href="#linear-gradient-3"/>
    <linearGradient id="linear-gradient-9" x1="-47.545" y1="17.427" x2="-48.867" y2="15.942" xlink:href="#linear-gradient-3"/>
    <linearGradient id="linear-gradient-10" x1="-155.484" y1="82.575" x2="-159.791" y2="75.375" xlink:href="#linear-gradient-3"/>
    <linearGradient id="linear-gradient-11" x1="1.66" y1="1.186" x2="0.085" y2="0.256" xlink:href="#linear-gradient-3"/>
    <linearGradient id="linear-gradient-12" x1="0.892" y1="0.928" x2="-0.916" y2="-1.638" xlink:href="#linear-gradient-3"/>
  </defs>
  <g id="Grupo_47027" data-name="Grupo 47027" transform="translate(-1298.469 -210.368)">
    <g id="Grupo_47019" data-name="Grupo 47019" transform="translate(1373.469 244.227)">
      <path id="Trazado_97725" data-name="Trazado 97725" d="M1960.44,550.867l-7.074,12.253h60l-7.075-12.253a12.324,12.324,0,0,0-10.929-6.31h-23.992A12.325,12.325,0,0,0,1960.44,550.867Z" transform="translate(-1887.244 -544.557)" fill-rule="evenodd" fill="url(#linear-gradient)"/>
      <rect id="Rectángulo_28316" data-name="Rectángulo 28316" width="191.085" height="268.62" rx="8" transform="translate(0.579 13.974)" fill="#00223d"/>
      <rect id="Rectángulo_28317" data-name="Rectángulo 28317" width="159.536" height="237.071" transform="translate(16.353 29.748)" fill="#fdfdfd"/>
      <path id="Trazado_97726" data-name="Trazado 97726" d="M1985.055,603.175v15.889a11.039,11.039,0,0,1-11.007,11.007h-55.783a11.039,11.039,0,0,1-11.007-11.007V603.175a3.161,3.161,0,0,1,3.156-3.155H1981.9A3.161,3.161,0,0,1,1985.055,603.175Z" transform="translate(-1850.036 -589.316)" fill-rule="evenodd" fill="url(#linear-gradient)"/>
      <path id="Trazado_97727" data-name="Trazado 97727" d="M1967.308,634.666a2.137,2.137,0,1,1,0-4.274h51.168a2.137,2.137,0,0,1,0,4.274Z" transform="translate(-1896.77 -613.826)" fill="#dbdada" fill-rule="evenodd"/>
      <path id="Trazado_97728" data-name="Trazado 97728" d="M1967.308,687a2.137,2.137,0,1,1,0-4.274h51.168a2.137,2.137,0,0,1,0,4.274Z" transform="translate(-1896.77 -656.06)" fill="#dbdada" fill-rule="evenodd"/>
      <g id="Grupo_47018" data-name="Grupo 47018" transform="translate(47.158 63.27)">
        <g id="Grupo_47014" data-name="Grupo 47014" transform="translate(0 148.191)">
          <path id="Trazado_97729" data-name="Trazado 97729" d="M1857.111,1640.216h93.915a2.007,2.007,0,0,1,0,4.013h-93.915a2.007,2.007,0,0,1,0-4.013Z" transform="translate(-1855.105 -1640.216)" fill="#dbdada" fill-rule="evenodd"/>
          <path id="Trazado_97730" data-name="Trazado 97730" d="M1857.111,1689.286h93.915a2.007,2.007,0,0,1,0,4.013h-93.915a2.007,2.007,0,0,1,0-4.013Z" transform="translate(-1855.105 -1679.816)" fill="#dbdada" fill-rule="evenodd"/>
          <path id="Trazado_97731" data-name="Trazado 97731" d="M1857.111,1738.353h56.57a2.007,2.007,0,0,1,0,4.013h-56.57a2.007,2.007,0,0,1,0-4.013Z" transform="translate(-1855.105 -1719.412)" fill="#dbdada" fill-rule="evenodd"/>
        </g>
        <g id="Grupo_47015" data-name="Grupo 47015" transform="translate(0 90.15)">
          <path id="Trazado_97732" data-name="Trazado 97732" d="M1860.361,1350.621l1.836-1.836a.613.613,0,0,1,.865,0l3.06,3.06,5.509-5.508a.611.611,0,0,1,.865,0l1.836,1.836a.613.613,0,0,1,0,.865l-7.777,7.777a.613.613,0,0,1-.866,0l-5.329-5.329a.613.613,0,0,1,0-.866Zm-2.807-11.139a2.455,2.455,0,0,0-2.449,2.448v19.585a2.455,2.455,0,0,0,2.449,2.448h19.585a2.455,2.455,0,0,0,2.448-2.448V1341.93a2.455,2.455,0,0,0-2.448-2.448Z" transform="translate(-1855.106 -1339.482)" fill="#26aab7" fill-rule="evenodd"/>
          <rect id="Rectángulo_28318" data-name="Rectángulo 28318" width="63.652" height="6.455" rx="3.227" transform="translate(34.274)" fill="#dbdada"/>
          <path id="Trazado_97733" data-name="Trazado 97733" d="M2034.7,1398.833h59.639a2.007,2.007,0,1,1,0,4.013H2034.7a2.007,2.007,0,0,1,0-4.013Z" transform="translate(-1998.42 -1387.378)" fill="#dbdada" fill-rule="evenodd"/>
          <path id="Trazado_97734" data-name="Trazado 97734" d="M2034.7,1445.535h43.363a2.006,2.006,0,0,1,0,4.013H2034.7a2.006,2.006,0,1,1,0-4.013Z" transform="translate(-1998.42 -1425.067)" fill="#dbdada" fill-rule="evenodd"/>
        </g>
        <g id="Grupo_47016" data-name="Grupo 47016" transform="translate(0 45.075)">
          <path id="Trazado_97735" data-name="Trazado 97735" d="M1860.361,1117.071l1.836-1.836a.612.612,0,0,1,.865,0l3.06,3.06,5.509-5.508a.612.612,0,0,1,.865,0l1.836,1.836a.612.612,0,0,1,0,.865l-7.777,7.777a.612.612,0,0,1-.866,0l-5.329-5.329a.612.612,0,0,1,0-.865Zm-2.807-11.139a2.455,2.455,0,0,0-2.449,2.448v19.585a2.456,2.456,0,0,0,2.449,2.448h19.585a2.455,2.455,0,0,0,2.448-2.448V1108.38a2.455,2.455,0,0,0-2.448-2.448Z" transform="translate(-1855.106 -1105.932)" fill="#26aab7" fill-rule="evenodd"/>
          <rect id="Rectángulo_28319" data-name="Rectángulo 28319" width="63.652" height="6.455" rx="3.227" transform="translate(34.274)" fill="#dbdada"/>
          <path id="Trazado_97736" data-name="Trazado 97736" d="M2034.7,1165.284h59.639a2.006,2.006,0,1,1,0,4.013H2034.7a2.006,2.006,0,1,1,0-4.013Z" transform="translate(-1998.42 -1153.829)" fill="#dbdada" fill-rule="evenodd"/>
          <path id="Trazado_97737" data-name="Trazado 97737" d="M2034.7,1211.985h43.363a2.007,2.007,0,0,1,0,4.013H2034.7a2.007,2.007,0,0,1,0-4.013Z" transform="translate(-1998.42 -1191.517)" fill="#dbdada" fill-rule="evenodd"/>
        </g>
        <g id="Grupo_47017" data-name="Grupo 47017" transform="translate(0)">
          <path id="Trazado_97738" data-name="Trazado 97738" d="M1860.361,883.522l1.836-1.836a.612.612,0,0,1,.865,0l3.06,3.06,5.509-5.508a.612.612,0,0,1,.865,0l1.836,1.836a.613.613,0,0,1,0,.865l-7.777,7.777a.612.612,0,0,1-.866,0l-5.329-5.329a.612.612,0,0,1,0-.865Zm-2.807-11.139a2.455,2.455,0,0,0-2.449,2.448v19.585a2.455,2.455,0,0,0,2.449,2.448h19.585a2.455,2.455,0,0,0,2.448-2.448V874.831a2.455,2.455,0,0,0-2.448-2.448Z" transform="translate(-1855.106 -872.383)" fill="#26aab7" fill-rule="evenodd"/>
          <rect id="Rectángulo_28320" data-name="Rectángulo 28320" width="63.652" height="6.455" rx="3.227" transform="translate(34.274)" fill="#dbdada"/>
          <path id="Trazado_97739" data-name="Trazado 97739" d="M2034.7,931.734h59.639a2.007,2.007,0,1,1,0,4.013H2034.7a2.007,2.007,0,1,1,0-4.013Z" transform="translate(-1998.42 -920.279)" fill="#dbdada" fill-rule="evenodd"/>
          <path id="Trazado_97740" data-name="Trazado 97740" d="M2034.7,978.436h43.363a2.007,2.007,0,0,1,0,4.013H2034.7a2.007,2.007,0,0,1,0-4.013Z" transform="translate(-1998.42 -957.968)" fill="#dbdada" fill-rule="evenodd"/>
        </g>
      </g>
      <path id="Trazado_97741" data-name="Trazado 97741" d="M1876.327,1925.2H1731.7a.579.579,0,1,1,0-1.158h144.626a.579.579,0,1,1,0,1.158Z" transform="translate(-1707.893 -1657.807)" fill="#8673c6"/>
      <path id="Trazado_97742" data-name="Trazado 97742" d="M1798.724,880.034a.579.579,0,0,1-.409-.988,11.958,11.958,0,0,0,3.533-8.507V799.432a.579.579,0,0,1,1.158,0v71.107a13.105,13.105,0,0,1-3.873,9.325A.577.577,0,0,1,1798.724,880.034Zm-183.678,0a.577.577,0,0,1-.409-.17,13.108,13.108,0,0,1-3.873-9.325V799.432a.579.579,0,0,1,1.158,0v71.107a11.956,11.956,0,0,0,3.534,8.507.579.579,0,0,1-.41.988Zm187.381-88.087a.579.579,0,0,1-.579-.579v-7.085a.579.579,0,0,1,1.158,0v7.085A.579.579,0,0,1,1802.426,791.947Zm-191.084,0a.579.579,0,0,1-.579-.579v-7.085a.579.579,0,1,1,1.158,0v7.085A.579.579,0,0,1,1611.342,791.947Zm191.084-77.954a.579.579,0,0,1-.579-.579V706.33a.579.579,0,0,1,1.158,0v7.085A.579.579,0,0,1,1802.426,713.993Zm-191.084,0a.579.579,0,0,1-.579-.579V706.33a.579.579,0,0,1,1.158,0v7.085A.579.579,0,0,1,1611.342,713.993Zm191.084-15.149a.579.579,0,0,1-.579-.579V627.158a12.054,12.054,0,0,0-12.04-12.04H1760.5a.579.579,0,0,1,0-1.158h29.309a13.214,13.214,0,0,1,13.2,13.2v71.107A.579.579,0,0,1,1802.426,698.844Zm-191.084,0a.579.579,0,0,1-.579-.579V627.158a13.213,13.213,0,0,1,13.2-13.2h29.308a.579.579,0,0,1,0,1.158h-29.308a12.054,12.054,0,0,0-12.041,12.04v71.107A.579.579,0,0,1,1611.342,698.844Z" transform="translate(-1610.763 -600.565)" fill="#8673c6"/>
    </g>
    <g id="Grupo_47021" data-name="Grupo 47021" transform="translate(1333.786 251.126)">
      <g id="Grupo_47020" data-name="Grupo 47020" transform="translate(4.504 4.521)">
        <path id="Trazado_97743" data-name="Trazado 97743" d="M1399.19,213.973a34.6,34.6,0,0,1-45.2,52.178l-12.26,5.28,5.28-12.26a34.6,34.6,0,0,1,52.178-45.2Z" transform="translate(-1339.541 -203.275)" fill="#fdfdfd" fill-rule="evenodd"/>
        <path id="Trazado_97744" data-name="Trazado 97744" d="M1372.306,271.271a35.146,35.146,0,0,1-20.813-6.808l-11.953,5.148a.579.579,0,0,1-.76-.761l5.147-11.953a35.187,35.187,0,1,1,30.741,14.3Q1373.485,271.27,1372.306,271.271Zm-20.735-8.051a.58.58,0,0,1,.348.116,34.025,34.025,0,1,0-3.677-51.305,34.167,34.167,0,0,0-3.187,44.441.578.578,0,0,1,.068.577l-4.7,10.923,10.923-4.7A.578.578,0,0,1,1351.571,263.22Z" transform="translate(-1337.12 -200.923)" fill="#00223d"/>
      </g>
      <circle id="Elipse_3890" data-name="Elipse 3890" cx="29.411" cy="29.411" r="29.411" transform="translate(10.273 10.276)" fill="#00223d"/>
      <path id="Trazado_97745" data-name="Trazado 97745" d="M1353.453,256.873a39.55,39.55,0,0,1-21.549-6.365.579.579,0,0,1,.631-.972,38.542,38.542,0,0,0,41.794.045.579.579,0,0,1,.627.973A39.679,39.679,0,0,1,1353.453,256.873Zm28.211-12.012a.579.579,0,0,1-.417-.981,38.429,38.429,0,0,0,4.841-47.217.579.579,0,1,1,.98-.617,39.869,39.869,0,0,1,5.9,24.976,39.257,39.257,0,0,1-10.887,23.661A.577.577,0,0,1,1381.665,244.862Zm-61.032-5.848a.578.578,0,0,1-.486-.264,39.723,39.723,0,0,1-6.148-25.68.579.579,0,1,1,1.152.12,38.561,38.561,0,0,0,5.968,24.93.579.579,0,0,1-.485.894Zm-4.036-34.279a.579.579,0,0,1-.546-.772,39.691,39.691,0,0,1,48.561-24.873.579.579,0,0,1-.324,1.111,38.535,38.535,0,0,0-47.145,24.146A.579.579,0,0,1,1316.6,204.734Zm64.317-14.828a.577.577,0,0,1-.406-.167,38.6,38.6,0,0,0-8.016-6.066.579.579,0,1,1,.572-1.007,39.766,39.766,0,0,1,8.257,6.248.579.579,0,0,1-.407.991Z" transform="translate(-1313.784 -177.498)" fill="#00223d"/>
    </g>
    <circle id="Elipse_3891" data-name="Elipse 3891" cx="6.658" cy="6.658" r="6.658" transform="translate(1413.153 230.911)" fill="#eff4ef"/>
    <path id="Trazado_97751" data-name="Trazado 97751" d="M2584.329,1001.549a1.205,1.205,0,1,0,1.647-.441A1.206,1.206,0,0,0,2584.329,1001.549Z" transform="translate(-1022.832 -668.636)" fill="#00223d" fill-rule="evenodd"/>
    <path id="Trazado_97752" data-name="Trazado 97752" d="M2563.257,1080.2a1.205,1.205,0,1,0,1.2-1.205A1.2,1.2,0,0,0,2563.257,1080.2Z" transform="translate(-1005.958 -731.618)" fill="#00223d" fill-rule="evenodd"/>
    <path id="Trazado_97753" data-name="Trazado 97753" d="M2584.329,1158.84a1.205,1.205,0,1,0,.442-1.646A1.205,1.205,0,0,0,2584.329,1158.84Z" transform="translate(-1022.832 -794.598)" fill="#00223d" fill-rule="evenodd"/>
    <path id="Trazado_97762" data-name="Trazado 97762" d="M1904.133,295.947a7.3,7.3,0,1,0,7.3,7.3,7.3,7.3,0,0,0-7.3-7.3Zm-1.976-9.3h3.953a.812.812,0,0,1,.742.459l1.307,2.615a14.044,14.044,0,0,1,2.689,1.114l2.772-.924a.813.813,0,0,1,.849.2l1.4,1.4,1.4,1.4a.812.812,0,0,1,.2.849l-.924,2.773a13.97,13.97,0,0,1,1.114,2.689l2.615,1.307a.812.812,0,0,1,.459.742v3.953a.813.813,0,0,1-.459.742l-2.615,1.307a13.971,13.971,0,0,1-1.114,2.689l.924,2.773a.812.812,0,0,1-.2.849l-1.4,1.4-1.4,1.4a.813.813,0,0,1-.849.2l-2.772-.924a14.033,14.033,0,0,1-2.689,1.114l-1.307,2.614a.813.813,0,0,1-.742.459h-3.953a.813.813,0,0,1-.742-.459l-1.307-2.615a14.028,14.028,0,0,1-2.689-1.114l-2.773.924a.813.813,0,0,1-.849-.2l-1.4-1.4-1.4-1.4a.814.814,0,0,1-.2-.849l.925-2.773a14.029,14.029,0,0,1-1.114-2.689L1888,305.965a.812.812,0,0,1-.459-.742V301.27a.812.812,0,0,1,.459-.742l2.614-1.307a14.029,14.029,0,0,1,1.114-2.689l-.925-2.773a.814.814,0,0,1,.2-.849l1.4-1.4,1.4-1.4a.812.812,0,0,1,.849-.2l2.773.924a14.032,14.032,0,0,1,2.689-1.114l1.307-2.615A.813.813,0,0,1,1902.157,286.651Z" transform="translate(-588.569 35.838)" fill="#eff4ef" stroke="#00223d" stroke-width="1" fill-rule="evenodd"/>
    <path id="Trazado_97777" data-name="Trazado 97777" d="M1438.387,282.747a19.36,19.36,0,1,0,18.24,12.828l-2.919,2.919a15.75,15.75,0,1,1-5.239-8.461l2.578-2.577a19.3,19.3,0,0,0-12.66-4.709ZM1428.2,300.2a2.422,2.422,0,0,1,3.425-3.424l6.765,6.764,15.24-15.241a2.422,2.422,0,0,1,3.425,3.425L1440.1,308.678a2.422,2.422,0,0,1-3.425,0Z" transform="translate(-64.917 -11.308)" fill="#fff" fill-rule="evenodd"/>
    <path id="Trazado_97778" data-name="Trazado 97778" d="M2223.242,240.23a.578.578,0,0,1-.409-.169l-2.388-2.388a.579.579,0,0,1,.818-.819l2.389,2.388a.579.579,0,0,1-.41.988Zm-9.553,0a.579.579,0,0,1-.41-.988l2.389-2.388a.579.579,0,1,1,.818.819l-2.389,2.388A.575.575,0,0,1,2213.689,240.23Zm2.388-7.165a.576.576,0,0,1-.409-.17l-2.389-2.389a.579.579,0,1,1,.819-.819l2.389,2.389a.579.579,0,0,1-.409.988Zm4.777,0a.579.579,0,0,1-.409-.988l2.388-2.388a.579.579,0,1,1,.819.819l-2.389,2.388A.576.576,0,0,1,2220.854,233.065Z" transform="translate(-739.626 -19.15)" fill="#eff4ef"/>
    <g id="Grupo_47028" data-name="Grupo 47028" transform="translate(1310.945 376.679)">
      <path id="Trazado_96247" data-name="Trazado 96247" d="M945.411,1485.612s-.718,4.064-1.07,8.087a2.771,2.771,0,0,0,2.651,3c5.357.224,16.816.657,20.928.474a.9.9,0,0,0,.794-1.236h0a2.016,2.016,0,0,0-1.033-1.087l-18.928-8.7Z" transform="translate(-899.679 -1290.851)" fill="#12263f"/>
      <path id="Trazado_96248" data-name="Trazado 96248" d="M946.042,1475.453l.577,4.861s3.316,1.544,5.58-.195l-1.373-5.416Z" transform="translate(-900.898 -1283.081)" fill="url(#linear-gradient-3)"/>
      <path id="Trazado_96249" data-name="Trazado 96249" d="M910.327,1159.647c-.249,1.269-1.337,63.344,5.3,91.163a.944.944,0,0,1-.554,1.1,16.438,16.438,0,0,1-5.4,1.1,1.627,1.627,0,0,1-1.613-1.167c-1.9-6.454-10.985-38.792-12.171-69.683-1.325-34.517,0-1.175,0-1.175l.777-21.337Z" transform="translate(-864.75 -1058.659)" fill="#5b7393"/>
      <path id="Trazado_96250" data-name="Trazado 96250" d="M866.746,1492.981s-1.143,2.051-2.249,7.5a1.691,1.691,0,0,0,1.488,2.025c1.769.174,4.492.4,6.673.382a1.686,1.686,0,0,0,1.669-1.88,14.222,14.222,0,0,0-3.32-7.8Z" transform="translate(-842.788 -1296.1)" fill="#12263f"/>
      <path id="Trazado_96251" data-name="Trazado 96251" d="M868.912,1470.542l1.347,7.351s1.332.991,3.968.273l-.643-7.909Z" transform="translate(-845.957 -1279.913)" fill="url(#linear-gradient-3)"/>
      <path id="Trazado_96252" data-name="Trazado 96252" d="M851.085,1157.767c-5.427,32.752,1.177,80.948,3.4,90.381a1.47,1.47,0,0,0,1.188,1.117,9.874,9.874,0,0,0,4.245-.169,1.348,1.348,0,0,0,.969-1.242c.3-7.626-.239-54.445,4.818-72.948a4.2,4.2,0,0,1,1.621-2.319l9.815-6.977.753-11.278Z" transform="translate(-831.77 -1054.875)" fill="#5b7393"/>
      <g id="Grupo_46179" data-name="Grupo 46179" transform="translate(17.288 15.648)">
        <path id="Trazado_96253" data-name="Trazado 96253" d="M885.82,943.976c-16.263-.269-34.208,4.27-34.208,4.27-4.848,28.287-.848,60.913-.848,60.913,12.59,3.3,26.793-2.019,26.793-2.019,2.093-11.823,11.856-45.1,11.856-45.1a53.575,53.575,0,0,0,19.883-6.31c-4.112-4.766-6.05-10.831-6.892-14.416A54.571,54.571,0,0,1,885.82,943.976Z" transform="translate(-849.213 -918.788)" fill="#12263f"/>
        <path id="Trazado_96254" data-name="Trazado 96254" d="M1065.563,864.238a3.112,3.112,0,0,0-3.62-1.017c-2.393,10.11-14.942,18.307-27.834,22.313.843,3.585,2.781,9.65,6.892,14.416C1062.4,887.92,1065.563,864.238,1065.563,864.238Z" transform="translate(-980.918 -863.005)" fill="url(#linear-gradient-3)"/>
      </g>
      <g id="Grupo_46180" data-name="Grupo 46180" transform="translate(98.313)">
        <path id="Trazado_96255" data-name="Trazado 96255" d="M1134.1,825.982c.167.532-1.769,1.341-2.908-.833-.04-1.042-.673-5.5-.051-6.353,3.315-4.519,9.743-10.185,9.743-10.185a1.53,1.53,0,0,1,.191,2.125l-3.118,3.249a15.106,15.106,0,0,1,1.82,3.6,4.369,4.369,0,0,1-.436,3.216c-.547.986-1.294,2.268-2,3.271A4.313,4.313,0,0,1,1134.1,825.982Z" transform="translate(-1130.864 -808.611)" fill="url(#linear-gradient-6)"/>
        <path id="Trazado_96256" data-name="Trazado 96256" d="M1141.518,834.614l-2.841,2.409-.892,2.4,2.533,2.81s.852-4.758,1.485-5.788S1142.108,834.915,1141.518,834.614Z" transform="translate(-1135.794 -827.133)" fill="url(#linear-gradient-7)"/>
      </g>
      <path id="Trazado_96257" data-name="Trazado 96257" d="M819.99,981.149,813.752,965.4s-15.191,10.322-17.689,23.408a34.562,34.562,0,0,1,12.794,3.587C811.165,987.205,819.99,981.149,819.99,981.149Z" transform="translate(-794.065 -920.295)" fill="#12263f"/>
      <path id="Trazado_96258" data-name="Trazado 96258" d="M906.31,904.663l-5.175,14.965a.54.54,0,0,0,.246.649c1.41.78,6.492,3.034,12.617-.849a2.54,2.54,0,0,0,1.169-1.814l1.676-12.952Z" transform="translate(-868.889 -877.03)" fill="url(#linear-gradient-8)"/>
      <g id="Grupo_46181" data-name="Grupo 46181" transform="translate(27.6 5.997)">
        <path id="Trazado_96259" data-name="Trazado 96259" d="M925.494,856.492s5.682,10.7,4.954,15.017-7.771,4.01-13.92.5l-4.3-11.55Z" transform="translate(-904.413 -848.714)" fill="url(#linear-gradient-9)"/>
        <path id="Trazado_96260" data-name="Trazado 96260" d="M897.444,847.081a.441.441,0,0,0,.192-.645,11.507,11.507,0,0,1-1.581-3.357s-1.022-.654,2.6-1.521,9.022-2.212,10.157-5.295c1.107-3.005-1.8-10.563-6.441-4.541a.441.441,0,0,1-.7,0c-.761-.99-2.76-3.044-5.536-1.8-2.6,1.166-2.89,3.069-2.855,4.029a.438.438,0,0,1-.519.449,5.084,5.084,0,0,0-5.936,2.768c-1.212,2.663-.424,4.171.293,4.908a.439.439,0,0,1-.188.73,2.646,2.646,0,0,0-1.866,3.019c.155,2.8,3.28,2.55,4.17,2.422a.441.441,0,0,1,.391.138c.763.844,4.2,4.43,7.922,4.862a.444.444,0,0,0,.467-.588l-1.61-4.681a.443.443,0,0,1,.24-.549Z" transform="translate(-885.058 -829.457)" fill="#00223d"/>
        <path id="Trazado_96261" data-name="Trazado 96261" d="M919.574,889.625s-4.046-2.776-4.342-.438,3.643,3.386,5.594,2.515Z" transform="translate(-906.54 -871.337)" fill="url(#linear-gradient-10)"/>
      </g>
      <path id="Trazado_96272" data-name="Trazado 96272" d="M791.222,1045.348s-10.383,23.649,15,27.11l3.461-2.884s-12.69-6.922-5.768-20.766C803.912,1048.808,796.413,1042.463,791.222,1045.348Z" transform="translate(-789.12 -976.707)" fill="url(#linear-gradient-11)"/>
      <path id="Trazado_96273" data-name="Trazado 96273" d="M852.019,1131.42h9.229s5.768,7.5,5.191,9.229-6.278.355-6.278.355l-2.951-4.969s-8.652.577-8.652-1.73S852.019,1131.42,852.019,1131.42Z" transform="translate(-831.459 -1038.554)" fill="url(#linear-gradient-12)"/>
    </g>
  </g>
</svg>
