<svg xmlns="http://www.w3.org/2000/svg" width="188.734" height="143.579" viewBox="0 0 188.734 143.579">
  <g id="Grupo_58548" data-name="Grupo 58548" transform="translate(-14.1 -2.603)">
    <g id="Grupo_58580" data-name="Grupo 58580" transform="translate(14.1 2.603)">
      <g id="Grupo_58548-2" data-name="Grupo 58548" transform="translate(15.306 7.631)">
        <path id="Trazado_131831" data-name="Trazado 131831" d="M84.808,17.147l-41.535,64.2,83.071-.684Z" transform="translate(-43.272 -17.147)" fill="#4b0263" opacity="0.09"/>
        <circle id="Elipse_4195" data-name="Elipse 4195" cx="27.725" cy="27.725" r="27.725" transform="translate(17.318 61.041)" fill="#ffd96e" opacity="0.45"/>
        <rect id="Rectángulo_31309" data-name="Rectángulo 31309" width="76.833" height="71.538" transform="translate(71.087 26.57)" fill="#ffd96e" opacity="0.45"/>
      </g>
      <rect id="Rectángulo_31310" data-name="Rectángulo 31310" width="64.356" height="59.92" transform="translate(116.9 18.938)" fill="none" stroke="#02a2cb" stroke-miterlimit="10" stroke-width="1"/>
      <g id="Grupo_58549" data-name="Grupo 58549" transform="translate(16.986 106.502)">
        <rect id="Rectángulo_31311" data-name="Rectángulo 31311" width="11.897" height="11.897" transform="translate(0)" fill="#1b1a1b"/>
        <rect id="Rectángulo_31312" data-name="Rectángulo 31312" width="11.897" height="11.897" transform="translate(11.897)" fill="#febb09"/>
        <rect id="Rectángulo_31313" data-name="Rectángulo 31313" width="11.897" height="11.897" transform="translate(23.795)" fill="#ff0b00"/>
        <rect id="Rectángulo_31314" data-name="Rectángulo 31314" width="11.897" height="11.897" transform="translate(35.692)" fill="#02a2cb"/>
      </g>
      <g id="Grupo_58551" data-name="Grupo 58551" transform="translate(119.09 96.397)">
        <path id="Trazado_131832" data-name="Trazado 131832" d="M266.913,202.413A10.314,10.314,0,1,1,256.6,192.1,10.314,10.314,0,0,1,266.913,202.413Z" transform="translate(-243.552 -189.07)" fill="none" stroke="#febb09" stroke-miterlimit="10" stroke-width="1"/>
        <g id="Grupo_58550" data-name="Grupo 58550">
          <line id="Línea_1611" data-name="Línea 1611" y2="26.685" transform="translate(13.342)" fill="none" stroke="#010305" stroke-miterlimit="10" stroke-width="3"/>
          <line id="Línea_1612" data-name="Línea 1612" x1="26.685" transform="translate(0 13.342)" fill="none" stroke="#010305" stroke-miterlimit="10" stroke-width="3"/>
        </g>
      </g>
      <g id="Grupo_58558" data-name="Grupo 58558" transform="translate(0 73.267)">
        <g id="Grupo_58552" data-name="Grupo 58552" transform="translate(1.878 2.071)">
          <path id="Trazado_131833" data-name="Trazado 131833" d="M24.626,160.083a6.946,6.946,0,1,1,6.946-6.946A6.954,6.954,0,0,1,24.626,160.083Zm0-13.547a6.6,6.6,0,1,0,6.6,6.6A6.609,6.609,0,0,0,24.626,146.536Z" transform="translate(-17.68 -146.191)" fill="#ff0b00"/>
        </g>
        <g id="Grupo_58557" data-name="Grupo 58557">
          <g id="Grupo_58554" data-name="Grupo 58554" transform="translate(8.752)">
            <g id="Grupo_58553" data-name="Grupo 58553">
              <path id="Trazado_131834" data-name="Trazado 131834" d="M30.783,142.5V159.31c0,.228-.005.456,0,.685v.029a.264.264,0,0,0,.527,0V143.212c0-.228,0-.456,0-.684,0-.01,0-.02,0-.029a.264.264,0,0,0-.527,0Z" transform="translate(-30.781 -142.243)" fill="#010305"/>
            </g>
          </g>
          <g id="Grupo_58556" data-name="Grupo 58556" transform="translate(0 8.751)">
            <g id="Grupo_58555" data-name="Grupo 58555">
              <path id="Trazado_131835" data-name="Trazado 131835" d="M31.881,158.925H15.069c-.228,0-.456-.005-.685,0h-.029a.264.264,0,0,0,0,.527H31.167c.228,0,.456.005.684,0h.029a.264.264,0,0,0,0-.527Z" transform="translate(-14.1 -158.923)" fill="#010305"/>
            </g>
          </g>
        </g>
      </g>
      <path id="Trazado_131836" data-name="Trazado 131836" d="M251.574,20.626h16.473a2.293,2.293,0,0,1,2.257,1.887l1.214,6.753a7.939,7.939,0,0,0,7.813,6.534h0l-.713-15.862a5.486,5.486,0,0,0-5.481-5.239H219.193a5.793,5.793,0,0,0-5.787,5.533l-.7,15.568h0a7.94,7.94,0,0,0,7.815-6.535l1.274-7.086a1.887,1.887,0,0,1,1.857-1.553h16.81c.21,10.265.223,20.584.223,30.823v5.928c0,10.365-.013,20.634-.218,30.7l-7.515.8a5.278,5.278,0,0,0-4.715,5.247H263.8a5.277,5.277,0,0,0-4.715-5.247l-7.512-.8c-.207-10.225-.22-20.5-.22-30.7V51.449C251.353,41.041,251.366,30.73,251.574,20.626Z" transform="translate(-108.501 -8.352)" fill="#415165"/>
      <g id="Grupo_58559" data-name="Grupo 58559" transform="translate(17.362 17.286)">
        <path id="Trazado_131837" data-name="Trazado 131837" d="M96.379,184.158H69.21a.362.362,0,0,1-.357-.417l1.573-10.215a.362.362,0,0,1,.358-.307H93.849a.362.362,0,0,1,.354.29l2.176,10.649Z" transform="translate(-57.485 -100.986)" fill="none" stroke="#5e5385" stroke-miterlimit="10" stroke-width="2"/>
        <path id="Trazado_131838" data-name="Trazado 131838" d="M96.443,71.831,74.753,35.96a.648.648,0,0,0-1.2.335V68.288a3.209,3.209,0,1,1-1.689-.02V36.2a.648.648,0,0,0-1.193-.351L47.294,72.116a.648.648,0,0,0-.055.6l12.779,31.158a.648.648,0,0,0,.6.4H83.391a.647.647,0,0,0,.6-.409l12.5-31.459A.647.647,0,0,0,96.443,71.831Z" transform="translate(-47.191 -35.549)" fill="none" stroke="#5e5385" stroke-miterlimit="10" stroke-width="2"/>
      </g>
      <g id="Grupo_58560" data-name="Grupo 58560" transform="translate(4.945)">
        <path id="Trazado_131839" data-name="Trazado 131839" d="M29.192,19.734s31.159-31.158,70.107,0" transform="translate(-26.219 -4.163)" fill="none" stroke="#5e5385" stroke-miterlimit="10" stroke-width="1"/>
        <path id="Trazado_131840" data-name="Trazado 131840" d="M27.6,31.954a2.036,2.036,0,1,1-2.036-2.036A2.036,2.036,0,0,1,27.6,31.954Z" transform="translate(-23.526 -15.586)" fill="#5e5385"/>
        <circle id="Elipse_4196" data-name="Elipse 4196" cx="2.036" cy="2.036" r="2.036" transform="translate(71.044 14.332)" fill="#5e5385"/>
        <rect id="Rectángulo_31315" data-name="Rectángulo 31315" width="3.445" height="3.445" transform="translate(36.304)" fill="#5e5385"/>
      </g>
      <g id="Grupo_58565" data-name="Grupo 58565" transform="translate(17.269 132.066)">
        <g id="Grupo_58561" data-name="Grupo 58561" transform="translate(1.069 1.516)">
          <path id="Trazado_131841" data-name="Trazado 131841" d="M49.46,257.2c12.464,9.971,23.6,9.453,30.74,7.261a33.6,33.6,0,0,0,12.684-7.237l.464.464a34.291,34.291,0,0,1-12.929,7.392c-7.3,2.247-18.671,2.792-31.37-7.367Z" transform="translate(-49.05 -257.198)" fill="#02a2cb"/>
        </g>
        <g id="Grupo_58562" data-name="Grupo 58562" transform="translate(44.448)">
          <path id="Trazado_131842" data-name="Trazado 131842" d="M131.726,255.582A1.274,1.274,0,1,1,133,256.855,1.274,1.274,0,0,1,131.726,255.582Z" transform="translate(-131.726 -254.308)" fill="#02a2cb"/>
        </g>
        <g id="Grupo_58563" data-name="Grupo 58563">
          <path id="Trazado_131843" data-name="Trazado 131843" d="M47.013,255.582a1.274,1.274,0,1,1,1.274,1.273A1.274,1.274,0,0,1,47.013,255.582Z" transform="translate(-47.013 -254.308)" fill="#02a2cb"/>
        </g>
        <g id="Grupo_58564" data-name="Grupo 58564" transform="translate(22.127 9.359)">
          <rect id="Rectángulo_31316" data-name="Rectángulo 31316" width="2.155" height="2.155" transform="translate(2.155 2.155) rotate(180)" fill="#02a2cb"/>
        </g>
      </g>
      <g id="Grupo_58570" data-name="Grupo 58570" transform="translate(157.174 44.35)">
        <g id="Grupo_58566" data-name="Grupo 58566" transform="translate(1.093 0.517)">
          <path id="Trazado_131844" data-name="Trazado 131844" d="M345.217,94.312c-8.37-6.7-15.846-6.348-20.644-4.876a22.578,22.578,0,0,0-8.518,4.86l-.312-.312a23.018,23.018,0,0,1,8.682-4.964c4.9-1.509,12.538-1.875,21.067,4.948Z" transform="translate(-315.744 -88.114)" fill="#02a2cb"/>
        </g>
        <g id="Grupo_58567" data-name="Grupo 58567" transform="translate(0 6.021)">
          <circle id="Elipse_4197" data-name="Elipse 4197" cx="0.855" cy="0.855" r="0.855" fill="#02a2cb"/>
        </g>
        <g id="Grupo_58568" data-name="Grupo 58568" transform="translate(29.849 6.021)">
          <circle id="Elipse_4198" data-name="Elipse 4198" cx="0.855" cy="0.855" r="0.855" fill="#02a2cb"/>
        </g>
        <g id="Grupo_58569" data-name="Grupo 58569" transform="translate(15.253)">
          <rect id="Rectángulo_31317" data-name="Rectángulo 31317" width="1.447" height="1.447" fill="#02a2cb"/>
        </g>
      </g>
      <g id="Grupo_58578" data-name="Grupo 58578" transform="translate(72.778 18.881)">
        <g id="Grupo_58572" data-name="Grupo 58572" transform="translate(0 11.232)">
          <g id="Grupo_58571" data-name="Grupo 58571">
            <path id="Trazado_131845" data-name="Trazado 131845" d="M170.35,97.939,163.2,99.4a.1.1,0,0,1-.116-.09l-.135-2.771a.1.1,0,0,1,.077-.1L169.1,95.2a.1.1,0,0,1,.109.057l1.145,2.684Z" transform="translate(-157.63 -76.727)" fill="#5e5385"/>
            <path id="Trazado_131846" data-name="Trazado 131846" d="M165.73,68.319,158.1,60.052a.174.174,0,0,0-.3.153l1.721,8.413a.862.862,0,1,1-.445.086l-1.725-8.434a.174.174,0,0,0-.333-.028l-4.2,10.8a.174.174,0,0,0,.018.16l5.036,7.507a.175.175,0,0,0,.179.073l5.989-1.225a.174.174,0,0,0,.136-.14l1.595-8.945A.175.175,0,0,0,165.73,68.319Z" transform="translate(-152.808 -59.995)" fill="#5e5385"/>
          </g>
          <rect id="Rectángulo_31318" data-name="Rectángulo 31318" width="7.389" height="36.774" transform="translate(5.459 22.583) rotate(-11.56)" fill="#26aab7"/>
        </g>
        <g id="Grupo_58574" data-name="Grupo 58574" transform="translate(12.762)">
          <rect id="Rectángulo_31319" data-name="Rectángulo 31319" width="7.389" height="36.774" transform="matrix(1, -0.027, 0.027, 1, 3.379, 22.297)" fill="#feb604"/>
          <g id="Grupo_58573" data-name="Grupo 58573">
            <path id="Trazado_131847" data-name="Trazado 131847" d="M190.959,78.279l-7.29.194a.1.1,0,0,1-.1-.109l.349-2.752a.1.1,0,0,1,.094-.085l6.189-.165a.1.1,0,0,1,.1.075l.66,2.842Z" transform="translate(-180.192 -56.068)" fill="none" stroke="#5e5385" stroke-miterlimit="10" stroke-width="1"/>
            <path id="Trazado_131848" data-name="Trazado 131848" d="M190.343,48.145l-6.077-9.47a.174.174,0,0,0-.321.1l.229,8.584a.861.861,0,1,1-.453.007l-.229-8.606a.174.174,0,0,0-.323-.086l-6.012,9.9a.174.174,0,0,0-.01.161L180.8,57a.173.173,0,0,0,.164.1l6.111-.163a.173.173,0,0,0,.158-.114L190.36,48.3A.173.173,0,0,0,190.343,48.145Z" transform="translate(-177.132 -38.589)" fill="none" stroke="#5e5385" stroke-miterlimit="10" stroke-width="1"/>
          </g>
        </g>
        <g id="Grupo_58576" data-name="Grupo 58576" transform="translate(20.101 15.319)">
          <path id="Trazado_131849" data-name="Trazado 131849" d="M215.087,95.184,207.9,93.4l.738-3.012,7.129,1.852-.679,2.942Z" transform="translate(-199.094 -78.53)" fill="#4b0263"/>
          <rect id="Rectángulo_31320" data-name="Rectángulo 31320" width="7.389" height="36.774" transform="matrix(0.971, 0.241, -0.241, 0.971, 8.848, 14.768)" fill="#c1507f"/>
          <g id="Grupo_58575" data-name="Grupo 58575" transform="translate(9.988)">
            <path id="Trazado_131850" data-name="Trazado 131850" d="M216.785,80.368l1.293-5.625-2.021-6.957-4.523,5.346-1.379,5.586Z" transform="translate(-210.155 -67.786)" fill="none" stroke="#12263f" stroke-miterlimit="10" stroke-width="1"/>
            <line id="Línea_1613" data-name="Línea 1613" x2="3.749" y2="0.838" transform="translate(3.286 3.063)" fill="none" stroke="#12263f" stroke-miterlimit="10" stroke-width="1"/>
          </g>
        </g>
        <g id="Grupo_58577" data-name="Grupo 58577" transform="translate(2.758 55.845)">
          <path id="Rectángulo_31321" data-name="Rectángulo 31321" d="M2.255,0H31.822A2.288,2.288,0,0,1,34.11,2.288V31.677A17.365,17.365,0,0,1,16.745,49.042h0A16.745,16.745,0,0,1,0,32.3V2.255A2.255,2.255,0,0,1,2.255,0Z" fill="#7d6eb2"/>
          <rect id="Rectángulo_31322" data-name="Rectángulo 31322" width="34.11" height="4.556" transform="translate(0 5.28)" fill="#fdf6e6" opacity="0.2"/>
          <rect id="Rectángulo_31323" data-name="Rectángulo 31323" width="34.11" height="4.556" transform="translate(0 12.864)" fill="#fdf6e6" opacity="0.2"/>
        </g>
      </g>
      <g id="Grupo_58579" data-name="Grupo 58579" transform="translate(81.799 69.969)">
        <line id="Línea_1614" data-name="Línea 1614" y2="72.795" transform="translate(91.439)" fill="none" stroke="#4b0263" stroke-miterlimit="10" stroke-width="2"/>
        <line id="Línea_1615" data-name="Línea 1615" x1="100.612" transform="translate(0 64.731)" fill="none" stroke="#4b0263" stroke-miterlimit="10" stroke-width="2"/>
      </g>
    </g>
  </g>
</svg>
