<svg xmlns="http://www.w3.org/2000/svg" xmlns:xlink="http://www.w3.org/1999/xlink" width="85" height="85" viewBox="0 0 85 85">
  <defs>
    <clipPath id="clip-path">
      <path id="path9617" d="M0-682.665H85v85H0Z" transform="translate(0 682.665)"/>
    </clipPath>
  </defs>
  <g id="g9609" transform="translate(0 682.665)">
    <path id="path9611" d="M112.536-570.129H36.667V-646h75.869Z" transform="translate(-32.101 -32.101)" fill="#ffd947"/>
    <g id="g9613" transform="translate(0 -682.665)">
      <g id="g9615" transform="translate(0 0)" clip-path="url(#clip-path)">
        <g id="g9621" transform="translate(4.565 4.565)">
          <path id="path9623" d="M-514.786-493.774a2.992,2.992,0,0,0-2.9,2.289.49.49,0,0,1-.48.367h-27.4a.5.5,0,0,1-.415-.225,2.987,2.987,0,0,0-2.5-1.352h-3.154a2.987,2.987,0,0,0-2.5,1.352.5.5,0,0,1-.415.225h-27.4a.493.493,0,0,1-.481-.373,3,3,0,0,0-2.2-2.2.493.493,0,0,1-.372-.481v-27.4a.5.5,0,0,1,.225-.415,2.987,2.987,0,0,0,1.352-2.5v-3.154a2.988,2.988,0,0,0-1.352-2.5.5.5,0,0,1-.225-.415v-27.4a.491.491,0,0,1,.367-.48,2.992,2.992,0,0,0,2.289-2.9V-564H-588v75.869h75.869v-5.645Z" transform="translate(587.999 563.999)" fill="#ffd064"/>
        </g>
        <g id="g9625" transform="translate(1.245 1.245)">
          <path id="path9627" d="M-42.023,0h-5.312A.664.664,0,0,0-48,.664V5.977a.664.664,0,0,0,.664.664h5.313a.664.664,0,0,0,.664-.664V.664A.664.664,0,0,0-42.023,0" transform="translate(48)" fill="#6f6571"/>
        </g>
        <g id="g9629" transform="translate(77.114 1.245)">
          <path id="path9631" d="M-42.023,0h-5.312A.664.664,0,0,0-48,.664V5.977a.664.664,0,0,0,.664.664h5.313a.664.664,0,0,0,.664-.664V.664A.664.664,0,0,0-42.023,0" transform="translate(48)" fill="#6f6571"/>
        </g>
        <g id="g9633" transform="translate(78.193 40.259)">
          <path id="path9635" d="M-26.848,0H-30a.664.664,0,0,0-.664.664V3.818A.664.664,0,0,0-30,4.482h3.154a.664.664,0,0,0,.664-.664V.664A.664.664,0,0,0-26.848,0" transform="translate(30.667)" fill="#6f6571"/>
        </g>
        <g id="g9637" transform="translate(2.324 40.259)">
          <path id="path9639" d="M-26.848,0H-30a.664.664,0,0,0-.664.664V3.818A.664.664,0,0,0-30,4.482h3.154a.664.664,0,0,0,.664-.664V.664A.664.664,0,0,0-26.848,0" transform="translate(30.667)" fill="#6f6571"/>
        </g>
        <g id="g9641" transform="translate(40.259 2.324)">
          <path id="path9643" d="M-26.848,0H-30a.664.664,0,0,0-.664.664V3.818A.664.664,0,0,0-30,4.482h3.154a.664.664,0,0,0,.664-.664V.664A.664.664,0,0,0-26.848,0" transform="translate(30.667)" fill="#6f6571"/>
        </g>
        <g id="g9645" transform="translate(40.259 78.193)">
          <path id="path9647" d="M-26.848,0H-30a.664.664,0,0,0-.664.664V3.818A.664.664,0,0,0-30,4.482h3.154a.664.664,0,0,0,.664-.664V.664A.664.664,0,0,0-26.848,0" transform="translate(30.667)" fill="#6f6571"/>
        </g>
        <g id="g9649" transform="translate(1.245 77.114)">
          <path id="path9651" d="M-42.023,0h-5.312A.664.664,0,0,0-48,.664V5.977a.664.664,0,0,0,.664.664h5.313a.664.664,0,0,0,.664-.664V.664A.664.664,0,0,0-42.023,0" transform="translate(48)" fill="#6f6571"/>
        </g>
        <g id="g9653" transform="translate(77.114 77.114)">
          <path id="path9655" d="M-42.023,0h-5.312A.664.664,0,0,0-48,.664V5.977a.664.664,0,0,0,.664.664h5.313a.664.664,0,0,0,.664-.664V.664A.664.664,0,0,0-42.023,0" transform="translate(48)" fill="#6f6571"/>
        </g>
        <g id="g9657" transform="translate(21.018 57.353)">
          <path id="path9659" d="M-97.807-7.995l-3.926,10.564a2.035,2.035,0,0,1-1.906,1.325h-8.078c1.232,0,1.133-1.456,1.274-1.835l3.942-11.19Z" transform="translate(111.717 9.132)" fill="#a088e2"/>
        </g>
        <g id="g9661" transform="translate(28.947 23.486)">
          <path id="path9663" d="M-95.389-89.377l-4.875,13.991-8.691.68,6.231-22.8,4.239-4.578Z" transform="translate(108.956 102.088)" fill="#a088e2"/>
        </g>
        <g id="g9665" transform="translate(14.028 14.621)">
          <path id="path9667" d="M-110.832-245.429l8.2-23.535a.5.5,0,0,1,.94,0l3.58,10.207,4.675,13.328a.5.5,0,0,1-.47.663h-16.457a.5.5,0,0,1-.47-.662m33.288,19.8-18.52-53.528a2.263,2.263,0,0,0-1.915-1.159c-.089-.012-.325-.019-.418-.019h-7.531a2.035,2.035,0,0,0-1.918,1.359l-18.7,53.316a.814.814,0,0,0,.767,1.082h6.175a2.038,2.038,0,0,0,1.206-.4,2.029,2.029,0,0,0,.7-.929l3.805-10.239a.5.5,0,0,1,.467-.324H-90.87a.5.5,0,0,1,.467.326l3.765,10.232a2.032,2.032,0,0,0,1.908,1.331h6.186a.986.986,0,0,0,.819-.32.935.935,0,0,0,.18-.731" transform="translate(126.595 280.334)" fill="#62529b"/>
        </g>
        <g id="g9669" transform="translate(42.226 14.621)">
          <path id="path9671" d="M-196.395-392.051h-8.078a.791.791,0,0,0,.695-.392.806.806,0,0,0,.073-.691l-18.7-53.316a2.05,2.05,0,0,0-1.918-1.359h8.078a2.035,2.035,0,0,1,1.918,1.359l18.7,53.316a.813.813,0,0,1-.767,1.083" transform="translate(224.326 447.808)" fill="#7d6eb2"/>
        </g>
        <g id="g9673" transform="translate(3.32 6.717)">
          <path id="path9675" d="M-8.755-234.143A1.245,1.245,0,0,1-10-235.388V-267.62a1.245,1.245,0,0,1,1.245-1.245A1.245,1.245,0,0,1-7.51-267.62v32.232A1.245,1.245,0,0,1-8.755-234.143Z" transform="translate(10 268.865)"/>
        </g>
        <g id="g9677" transform="translate(3.32 43.547)">
          <path id="path9679" d="M-8.755-234.515A1.245,1.245,0,0,1-10-235.76v-32.285a1.245,1.245,0,0,1,1.245-1.245,1.245,1.245,0,0,1,1.245,1.245v32.285A1.245,1.245,0,0,1-8.755-234.515Z" transform="translate(10 269.29)"/>
        </g>
        <g id="g9681" transform="translate(6.688 79.189)">
          <path id="path9683" d="M-235.736-7.51h-32.281a1.245,1.245,0,0,1-1.245-1.245A1.245,1.245,0,0,1-268.017-10h32.281a1.245,1.245,0,0,1,1.245,1.245A1.245,1.245,0,0,1-235.736-7.51Z" transform="translate(269.262 10)"/>
        </g>
        <g id="g9685" transform="translate(43.526 79.189)">
          <path id="path9687" d="M-142.75-7.51h-19.057a1.245,1.245,0,0,1-1.245-1.245A1.245,1.245,0,0,1-161.806-10h19.057A1.245,1.245,0,0,1-141.5-8.755,1.245,1.245,0,0,1-142.75-7.51Z" transform="translate(163.052 10)"/>
        </g>
        <g id="g9689" transform="translate(68.403 79.189)">
          <path id="path9691" d="M-60.968-7.51h-7.426a1.245,1.245,0,0,1-1.245-1.245A1.245,1.245,0,0,1-68.393-10h7.426a1.245,1.245,0,0,1,1.245,1.245A1.245,1.245,0,0,1-60.968-7.51Z" transform="translate(69.638 10)"/>
        </g>
        <g id="g9693" transform="translate(79.189 43.516)">
          <path id="path9695" d="M-8.755,24.814A1.245,1.245,0,0,1-10,23.569V-8.755A1.245,1.245,0,0,1-8.755-10,1.245,1.245,0,0,1-7.51-8.755V23.569A1.245,1.245,0,0,1-8.755,24.814Z" transform="translate(10 10)"/>
        </g>
        <g id="g9697" transform="translate(79.189 6.66)">
          <path id="path9699" d="M-8.755,24.832A1.245,1.245,0,0,1-10,23.587V-8.755A1.245,1.245,0,0,1-8.755-10,1.245,1.245,0,0,1-7.51-8.755V23.587A1.245,1.245,0,0,1-8.755,24.832Z" transform="translate(10 10)"/>
        </g>
        <g id="g9701" transform="translate(43.519 3.32)">
          <path id="path9703" d="M23.576-7.51H-8.755A1.245,1.245,0,0,1-10-8.755,1.245,1.245,0,0,1-8.755-10H23.576a1.245,1.245,0,0,1,1.245,1.245A1.245,1.245,0,0,1,23.576-7.51Z" transform="translate(10 10)"/>
        </g>
        <g id="g9705" transform="translate(20.768 3.32)">
          <path id="path9707" d="M9.465-7.51H-8.755A1.245,1.245,0,0,1-10-8.755,1.245,1.245,0,0,1-8.755-10H9.465A1.245,1.245,0,0,1,10.71-8.755,1.245,1.245,0,0,1,9.465-7.51Z" transform="translate(10 10)"/>
        </g>
        <g id="g9709" transform="translate(6.692 3.32)">
          <path id="path9711" d="M-.666-7.51H-8.755A1.245,1.245,0,0,1-10-8.755,1.245,1.245,0,0,1-8.755-10H-.666A1.245,1.245,0,0,1,.579-8.755,1.245,1.245,0,0,1-.666-7.51Z" transform="translate(10 10)"/>
        </g>
        <path id="path9713" d="M1.245-682.665H7.886a1.245,1.245,0,0,1,1.245,1.245v6.641a1.245,1.245,0,0,1-1.245,1.245H1.245A1.245,1.245,0,0,1,0-674.779v-6.641A1.245,1.245,0,0,1,1.245-682.665Zm5.4,2.49H2.49v4.15h4.15Z" transform="translate(0 682.665)"/>
        <path id="path9715" d="M610.577-682.665h6.641a1.245,1.245,0,0,1,1.245,1.245v6.641a1.245,1.245,0,0,1-1.245,1.245h-6.641a1.245,1.245,0,0,1-1.245-1.245v-6.641A1.245,1.245,0,0,1,610.577-682.665Zm5.4,2.49h-4.15v4.15h4.15Z" transform="translate(-533.463 682.665)"/>
        <path id="path9717" d="M619.244-369.332h4.482a1.245,1.245,0,0,1,1.245,1.245v4.482a1.245,1.245,0,0,1-1.245,1.245h-4.482A1.245,1.245,0,0,1,618-363.6v-4.482A1.245,1.245,0,0,1,619.244-369.332Zm3.237,2.49h-1.992v1.992h1.992Z" transform="translate(-541.05 408.346)"/>
        <path id="path9719" d="M9.912-369.332h4.482a1.245,1.245,0,0,1,1.245,1.245v4.482a1.245,1.245,0,0,1-1.245,1.245H9.912A1.245,1.245,0,0,1,8.667-363.6v-4.482A1.245,1.245,0,0,1,9.912-369.332Zm3.237,2.49H11.157v1.992h1.992Z" transform="translate(-7.588 408.346)"/>
        <path id="path9721" d="M314.578-674h4.482a1.245,1.245,0,0,1,1.245,1.245v4.482a1.245,1.245,0,0,1-1.245,1.245h-4.482a1.245,1.245,0,0,1-1.245-1.245v-4.482A1.245,1.245,0,0,1,314.578-674Zm3.237,2.49h-1.992v1.992h1.992Z" transform="translate(-274.319 675.077)"/>
        <path id="path9723" d="M314.578-64.667h4.482a1.245,1.245,0,0,1,1.245,1.245v4.482a1.245,1.245,0,0,1-1.245,1.245h-4.482a1.245,1.245,0,0,1-1.245-1.245v-4.482A1.245,1.245,0,0,1,314.578-64.667Zm3.237,2.49h-1.992v1.992h1.992Z" transform="translate(-274.319 141.615)"/>
        <path id="path9725" d="M1.245-73.333H7.886a1.245,1.245,0,0,1,1.245,1.245v6.641A1.245,1.245,0,0,1,7.886-64.2H1.245A1.245,1.245,0,0,1,0-65.447v-6.641A1.245,1.245,0,0,1,1.245-73.333Zm5.4,2.49H2.49v4.15h4.15Z" transform="translate(0 149.202)"/>
        <path id="path9727" d="M610.577-73.333h6.641a1.245,1.245,0,0,1,1.245,1.245v6.641a1.245,1.245,0,0,1-1.245,1.245h-6.641a1.245,1.245,0,0,1-1.245-1.245v-6.641A1.245,1.245,0,0,1,610.577-73.333Zm5.4,2.49h-4.15v4.15h4.15Z" transform="translate(-533.463 149.202)"/>
        <g id="g9729" transform="translate(12.784 13.376)">
          <path id="path9731" d="M-85.438-237.4h-6.186A3.288,3.288,0,0,1-94.7-239.55l-3.585-9.741H-119.8l-.718,1.931a1.245,1.245,0,0,1-1.6.733,1.245,1.245,0,0,1-.733-1.6l1.019-2.742a1.245,1.245,0,0,1,1.167-.811h23.25a1.245,1.245,0,0,1,1.169.815l3.885,10.558a.79.79,0,0,0,.74.516h5.576l-11.877-33.859a1.245,1.245,0,0,1,.763-1.587,1.245,1.245,0,0,1,1.587.763L-83.5-240.142a2.052,2.052,0,0,1-.186,1.753A2.033,2.033,0,0,1-85.438-237.4Zm-41.062,0h-6.176a2.062,2.062,0,0,1-1.68-.869,2.061,2.061,0,0,1-.262-1.872l18.7-53.315a3.285,3.285,0,0,1,3.093-2.192h7.53a3.259,3.259,0,0,1,.441.029,3.272,3.272,0,0,1,2.652,2.16l4.693,13.38a1.245,1.245,0,0,1-.763,1.587,1.245,1.245,0,0,1-1.587-.763l-4.693-13.378a.79.79,0,0,0-.64-.52l-7.634-.007a.791.791,0,0,0-.744.528l-18.5,52.74h5.566a.788.788,0,0,0,.469-.155.786.786,0,0,0,.271-.36l.869-2.339a1.245,1.245,0,0,1,1.6-.733,1.245,1.245,0,0,1,.733,1.6l-.87,2.34a3.271,3.271,0,0,1-1.13,1.5A3.262,3.262,0,0,1-126.5-237.4Zm26.4-20.191h-17.86a1.245,1.245,0,0,1-1.015-.524,1.245,1.245,0,0,1-.161-1.131l8.9-25.542a1.245,1.245,0,0,1,1.175-.835,1.244,1.244,0,0,1,1.176.833l8.959,25.542a1.245,1.245,0,0,1-.159,1.132A1.245,1.245,0,0,1-100.1-257.593Zm-16.108-2.49h14.352l-7.2-20.524Z" transform="translate(134.734 295.65)"/>
        </g>
        <g id="g9733" transform="translate(19.773 57.245)">
          <path id="path9735" d="M-112.394,4.376h-8.078a1.245,1.245,0,0,1-1.245-1.245,1.245,1.245,0,0,1,1.245-1.245h8.078a.794.794,0,0,0,.74-.515l3.925-10.562a1.245,1.245,0,0,1,1.6-.733,1.245,1.245,0,0,1,.733,1.6L-109.32,2.24A3.3,3.3,0,0,1-112.394,4.376Z" transform="translate(121.717 10.003)"/>
        </g>
        <g id="g9737" transform="translate(36.393 34.952)">
          <path id="path9739" d="M-47.91,6.479a1.243,1.243,0,0,1-.41-.07,1.245,1.245,0,0,1-.766-1.585l4.875-13.991a1.245,1.245,0,0,1,1.585-.766,1.245,1.245,0,0,1,.766,1.585L-46.735,5.643A1.246,1.246,0,0,1-47.91,6.479Z" transform="translate(49.156 10.003)"/>
        </g>
        <g id="g9741" transform="translate(40.981 13.376)">
          <path id="path9743" d="M19.176,48.248H11.1a1.245,1.245,0,1,1,0-2.49h7.469L.067-6.984A.79.79,0,0,0-.677-7.51H-8.755A1.245,1.245,0,0,1-10-8.755,1.245,1.245,0,0,1-8.755-10H-.677A3.285,3.285,0,0,1,2.416-7.81l18.7,53.318a2.058,2.058,0,0,1-1.942,2.74Z" transform="translate(10 10)"/>
        </g>
      </g>
    </g>
  </g>
</svg>
