<svg xmlns="http://www.w3.org/2000/svg" xmlns:xlink="http://www.w3.org/1999/xlink" width="157.698" height="134.073" viewBox="0 0 157.698 134.073">
  <defs>
    <clipPath id="clip-path">
      <rect id="Rectángulo_401460" data-name="Rectángulo 401460" width="143" height="68.74" fill="#7d6eb2"/>
    </clipPath>
  </defs>
  <g id="Grupo_1099749" data-name="Grupo 1099749" transform="matrix(0.848, 0.53, -0.53, 0.848, 36.427, 0)">
    <g id="Grupo_1099748" data-name="Grupo 1099748" transform="translate(0 0)" clip-path="url(#clip-path)">
      <path id="Trazado_873820" data-name="Trazado 873820" d="M134.094,14.256C86.443,10.458,18.877,1.465,8.267.014a1.515,1.515,0,0,0-1.714,1.36C5.957,7.634,3.585,31.336.025,50.8a1.515,1.515,0,0,0,1.329,1.78c10.549,1.137,75.71,8.261,126.682,15.434a1.517,1.517,0,0,0,1.719-1.342c.724-6.784,3.66-34.109,5.725-50.718a1.517,1.517,0,0,0-1.385-1.7" transform="translate(0 0)" fill="#7d6eb2" style="mix-blend-mode: multiply;isolation: isolate"/>
      <path id="Trazado_873821" data-name="Trazado 873821" d="M5.759,11.116c10.707.25,78.854,1.594,126.632.016a1.517,1.517,0,0,1,1.567,1.534c-.185,16.737-.034,44.218.009,51.04a1.515,1.515,0,0,1-1.558,1.526c-51.456-1.4-117-1.16-127.614-1.105a1.513,1.513,0,0,1-1.519-1.618c1.35-19.744,1.044-43.562.933-49.849a1.516,1.516,0,0,1,1.551-1.544" transform="translate(1.032 3.507)" fill="#fff"/>
      <path id="Trazado_873822" data-name="Trazado 873822" d="M37.842,60.278c10.959.046,22.9.133,35.159.283a1.273,1.273,0,0,0,1.288-1.267l.151-44.054a1.269,1.269,0,0,0-1.275-1.275q-5.2.024-10.634.024c-8.531,0-16.82-.043-24.522-.111a1.269,1.269,0,0,0-1.28,1.265L36.579,59a1.268,1.268,0,0,0,1.263,1.275" transform="translate(11.54 4.378)" fill="#c44e4e"/>
      <path id="Trazado_873823" data-name="Trazado 873823" d="M67.2,15.338l-.151,44.145A1.268,1.268,0,0,0,68.3,60.757c11.966.162,24.148.385,35.94.691a1.268,1.268,0,0,0,1.3-1.276c-.05-9.12-.145-30.512-.02-45.438a1.268,1.268,0,0,0-1.309-1.279c-10.6.321-22.562.528-35.748.617A1.272,1.272,0,0,0,67.2,15.338" transform="translate(21.154 4.244)" fill="#9b3b3b"/>
      <path id="Trazado_873824" data-name="Trazado 873824" d="M42.843,13.975c-15.855-.163-28.684-.413-35.081-.551a1.267,1.267,0,0,0-1.3,1.284c.108,8.449.2,27.526-.8,44.359a1.267,1.267,0,0,0,1.271,1.346c4.037-.017,10.559-.037,18.767-.037,5.225,0,10.922.008,16.967.028a1.271,1.271,0,0,0,1.276-1.267L44.1,15.25a1.271,1.271,0,0,0-1.259-1.275" transform="translate(1.788 4.235)" fill="#e87474"/>
      <path id="Trazado_873825" data-name="Trazado 873825" d="M109.078,30.3H95.339a3.1,3.1,0,1,1,0-6.205h11.007a.446.446,0,1,1,0,.892H95.339a2.211,2.211,0,1,0,0,4.421h13.739a3.931,3.931,0,1,0,0-7.863h-8.8a.446.446,0,0,1,0-.892h8.8a4.823,4.823,0,1,1,0,9.646" transform="translate(29.098 6.515)" fill="#f4cd6c"/>
    </g>
  </g>
</svg>
