<svg xmlns="http://www.w3.org/2000/svg" xmlns:xlink="http://www.w3.org/1999/xlink" width="335.559" height="286.725" viewBox="0 0 335.559 286.725">
  <defs>
    <clipPath id="clip-path">
      <path id="Trazado_876086" data-name="Trazado 876086" d="M321.041,180.61A128.219,128.219,0,0,1,193.982,308.955c-.219.006-.444.012-.664.006s-.421.006-.634.006A128.147,128.147,0,0,1,84.128,249.131c-12.484-19.64-31.944,6.111-38.944-46.556,0-31.51-38.835-9.994-20-32.333,2.413-2.858-9.644-30.362-7-33,1.114-1.114-2.312-57.806,0-59.667.136-.107-1.809-43.22-1.667-43.333s61.858.107,62,0c.059-.048,83.607.048,83.667,0,21.846-17.228.514,18.011,30.5,18.011a130.868,130.868,0,0,1,15.2.89c23.991,2.779,1.433-27.642,19.634-13.235.089.071,22.911-5.732,23-5.667.053.047,24.285-12.042,24.333-12,.142.113,69.864,28.226,70,28.333,2.407,1.939-.259,51.562,2,53.667,1.132,1.055,3.576,22.575,4.667,23.667,2.685,2.685-5.443,11.083-3,14,8.772,10.474-41.467-21.276-36.262-8.069a127.647,127.647,0,0,1,8.785,46.771" transform="translate(869.816 6498.091)" fill="#7d6eb2"/>
    </clipPath>
  </defs>
  <g id="Grupo_1100761" data-name="Grupo 1100761" transform="translate(-886.326 -6520.333)">
    <g id="Grupo_1100760" data-name="Grupo 1100760">
      <g id="Grupo_1100759" data-name="Grupo 1100759">
        <path id="Trazado_875841" data-name="Trazado 875841" d="M321.041,180.61A128.219,128.219,0,0,1,193.982,308.955c-.219.006-.444.012-.664.006s-.421.006-.634.006A128.367,128.367,0,0,1,94.514,97.9q3.619-4.287,7.589-8.241,1.672-1.672,3.415-3.272,3.263-3.023,6.734-5.822c.136-.107.273-.219.415-.332s.279-.226.421-.332l.178-.142a128.384,128.384,0,0,1,159.007.142c.089.071.178.142.267.208.053.047.107.083.154.124.142.113.278.225.415.332q3.61,2.908,7.008,6.071c1.132,1.055,2.241,2.122,3.332,3.213q4.028,4.028,7.7,8.412a127.807,127.807,0,0,1,29.891,82.346" transform="translate(869.816 6498.091)" fill="#7d6eb2"/>
        <g id="Enmascarar_grupo_1100083" data-name="Enmascarar grupo 1100083" clip-path="url(#clip-path)">
          <g id="Grupo_1100740" data-name="Grupo 1100740" transform="translate(903.871 6541)">
            <g id="Grupo_1100741" data-name="Grupo 1100741">
              <path id="Trazado_875973" data-name="Trazado 875973" d="M416.259,90.859a30.905,30.905,0,1,1-30.9-30.886,30.9,30.9,0,0,1,30.9,30.886" transform="translate(-132.844 -22.477)" fill="#34b7bf"/>
              <path id="Trazado_875974" data-name="Trazado 875974" d="M411.232,128.063H374.521s5.6-18.792,18.579-18.792,18.132,18.792,18.132,18.792" transform="translate(-140.367 -40.954)" fill="#fff"/>
              <path id="Trazado_875975" data-name="Trazado 875975" d="M408.288,82.967a9.961,9.961,0,1,0-9.961,9.955,9.958,9.958,0,0,0,9.961-9.955" transform="translate(-145.556 -27.364)" fill="#fff"/>
              <path id="Trazado_875976" data-name="Trazado 875976" d="M287.952,275.374a33.658,33.658,0,0,0,14.884,3.588c8.964,0,14.681-2.447,20.507-7.908-13.384-4.85-24.506-2.735-35.391,4.32" transform="translate(-107.922 -100.605)" fill="#ff6238"/>
              <path id="Trazado_875977" data-name="Trazado 875977" d="M302,212.625c.463-2.724,1.9,2.323,2.1-.432L278.079,193.68c-.693,2.622-2.239,1.6-3.162,2.888-6.9-4.777-19.092-26.184-26.181-46.38l-35.462,12.433c6.38,18.177,22.358,56.564,46.689,68.438,10.885-7.055,22.007-9.17,35.391-4.32,1.154-1.082,2.312-2.239,3.5-3.566,5.629-6.286,3.628-2.276,5.241-10.979-.281-.022-6.078,11.552-1.195-1.359a15.013,15.013,0,0,0-.9,1.791" transform="translate(-79.933 -56.289)" fill="#f0b48f"/>
              <path id="Trazado_875978" data-name="Trazado 875978" d="M201.587,371.286c-2.6-35.709-6.2-85.18-6.2-85.18l-88.638-1.851c-6.5,12.057-11.483,56.091-14.283,87.03Z" transform="translate(-34.657 -106.537)" fill="#7d86ba"/>
              <path id="Trazado_875979" data-name="Trazado 875979" d="M107.874,401.419l-.325-.033q.611-6.114,1.212-12.265c.755-7.684,1.536-15.63,2.34-23.36l.325.034c-.8,7.729-1.585,15.675-2.339,23.358q-.6,6.145-1.212,12.266" transform="translate(-40.308 -137.084)" fill="#313440"/>
              <rect id="Rectángulo_401969" data-name="Rectángulo 401969" width="37.762" height="0.326" transform="translate(119.128 264.29) rotate(-82.521)" fill="#313440"/>
              <path id="Trazado_875980" data-name="Trazado 875980" d="M191.153,396.96l-.136-.3,8.533-3.876,5.466-33.3.322.053-5.494,33.471Z" transform="translate(-71.592 -134.733)" fill="#313440"/>
              <path id="Trazado_875981" data-name="Trazado 875981" d="M111.584,389.841c-.66,0-1.032-.038-1.045-.039l.036-.325a24.236,24.236,0,0,0,10.994-2.147c5.652-2.429,13.6-8.085,19.371-21.229l.3.132c-5.818,13.252-13.848,18.955-19.56,21.405a26.158,26.158,0,0,1-10.095,2.2" transform="translate(-41.429 -137.211)" fill="#313440"/>
              <path id="Trazado_875982" data-name="Trazado 875982" d="M255.675,380.166a12.813,12.813,0,0,0-1.826-2.089c-3.922-4.093-13.108-13.678-13.314-24.8l.328-.006c.2,11,9.327,20.518,13.222,24.583,1.279,1.335,1.848,1.938,1.91,2.251Z" transform="translate(-90.151 -132.402)" fill="#313440"/>
              <path id="Trazado_875983" data-name="Trazado 875983" d="M267.647,213.1l-16.756,9.5-3.623-12.672Z" transform="translate(-92.674 -78.682)" fill="#313440"/>
              <path id="Trazado_875984" data-name="Trazado 875984" d="M73.717,216.934c2.888-11.106,9.391-27.1,17.047-40.866L62.281,160.213C54.5,174.16,44.5,194.756,41,213.7c10.677-.815,21.363-.831,32.719,3.239" transform="translate(-15.366 -60.046)" fill="#f0b48f"/>
              <path id="Trazado_875985" data-name="Trazado 875985" d="M96.785,359.148l93.757-9.3-61.164-14.839-31.19,13.9Z" transform="translate(-36.274 -125.56)" fill="#313440"/>
              <path id="Trazado_875986" data-name="Trazado 875986" d="M184.537,100.581c-2.193-.5-3.513-.711-3.513-.711l-19.193-.378c-.578.162-1.128.329-1.692.495,4.562,11.2,9.206,22.406,16.011,33.6,6.088-10.273,6.78-22.309,8.387-33" transform="translate(-60.019 -37.289)" fill="#fcb033"/>
              <path id="Trazado_875987" data-name="Trazado 875987" d="M225.141,166.359s-15.773-32.816-30.469-47.53c-11.319-11.333-28.6-16.275-35.949-17.95-1.607,10.691-2.3,22.728-8.387,33-6.805-11.19-11.449-22.392-16.011-33.6-34.787,10.187-43.061,26.728-43.061,26.728s6.723,46.935,7.094,65.284c.407,20.15-3.211,69.043-3.211,69.043l103.078,2.334c1.527-39.73-2.357-88.872-2.357-88.872,20.248-2.451,29.274-8.442,29.274-8.442" transform="translate(-34.205 -37.585)" fill="#fcb033"/>
              <path id="Trazado_875988" data-name="Trazado 875988" d="M87.332,221.719l3.623-9.391-19.7-5.668-5.137,4.605s9.986,5.649,21.216,10.454" transform="translate(-24.78 -77.454)" fill="#313440"/>
              <path id="Trazado_875989" data-name="Trazado 875989" d="M256.93,205.6a.176.176,0,0,1-.174-.154c-1.311-10.1-2.557-23.126-2.568-23.257a.173.173,0,0,1,.156-.191.035.035,0,0,1,.011,0,.174.174,0,0,1,.179.158c.014.13,1.26,13.152,2.569,23.248a.173.173,0,0,1-.152.194.059.059,0,0,1-.021,0" transform="translate(-95.267 -68.212)" fill="#313440"/>
              <path id="Trazado_875990" data-name="Trazado 875990" d="M256.322,192.923a.176.176,0,0,1-.078-.018.175.175,0,0,1-.081-.234c1.507-3.055,1.68-9.221,1.682-9.282a.178.178,0,0,1,.175-.172h0a.177.177,0,0,1,.173.179c-.008.258-.179,6.308-1.718,9.429a.178.178,0,0,1-.157.1" transform="translate(-96.001 -68.668)" fill="#313440"/>
              <path id="Trazado_875991" data-name="Trazado 875991" d="M252.023,150.159a.176.176,0,0,1-.174-.148c-.407-2.546,3.473-12.352,3.64-12.769a.175.175,0,0,1,.324.131c-.04.1-4.011,10.131-3.617,12.582a.177.177,0,0,1-.145.2.1.1,0,0,1-.028,0" transform="translate(-94.38 -51.396)" fill="#313440"/>
              <path id="Trazado_875992" data-name="Trazado 875992" d="M180.125,312.9a.192.192,0,0,1-.091-.024.177.177,0,0,1-.061-.242c4.29-7.237,18.356-34.864,18.5-35.141a.174.174,0,0,1,.311.158c-.14.279-14.214,27.916-18.508,35.165a.177.177,0,0,1-.15.085" transform="translate(-67.443 -103.965)" fill="#313440"/>
              <path id="Trazado_875993" data-name="Trazado 875993" d="M207.577,304.317a.2.2,0,0,1-.062-.011.175.175,0,0,1-.1-.225l4.6-12.585a.183.183,0,0,1,.226-.1.175.175,0,0,1,.1.226l-4.6,12.585a.177.177,0,0,1-.164.115" transform="translate(-77.732 -109.208)" fill="#313440"/>
              <path id="Trazado_875994" data-name="Trazado 875994" d="M61.568,303.923c5.123-9.727-12.829-22.427-20.677-20.711a28.917,28.917,0,0,0,5.3,11.081,34.6,34.6,0,0,0,14.444,10.858,5.484,5.484,0,0,0,.935-1.229" transform="translate(-15.326 -106.087)" fill="#f0b48f"/>
              <path id="Trazado_875995" data-name="Trazado 875995" d="M87.842,121.261c-16.013,10.605-31.1,29.384-42.929,56.613,0,0,10.247,3.155,17.552,3.113s16.155-.279,23.4,5.883c0,0,8.915-28.658,9.493-29.829s-7.513-35.779-7.513-35.779" transform="translate(-16.833 -45.448)" fill="#fcb033"/>
              <path id="Trazado_875996" data-name="Trazado 875996" d="M107.928,209.67a.19.19,0,0,1-.1-.029c-.016-.011-1.786-1.174-4.3-2.7a.172.172,0,0,1-.058-.239.169.169,0,0,1,.239-.058c2.039,1.237,3.591,2.236,4.116,2.578l8.543-26.893a.172.172,0,0,1,.221-.113.175.175,0,0,1,.113.221l-8.612,27.113a.175.175,0,0,1-.109.113.258.258,0,0,1-.057.009" transform="translate(-38.772 -68.289)" fill="#313440"/>
              <path id="Trazado_875997" data-name="Trazado 875997" d="M110.98,154.595a.177.177,0,0,1-.128-.054c-8.873-9.339-18.381-11.119-18.477-11.135a.178.178,0,0,1-.143-.2.2.2,0,0,1,.205-.143c.1.018,9.718,1.817,18.669,11.238a.179.179,0,0,1-.006.249.174.174,0,0,1-.121.049" transform="translate(-34.567 -53.617)" fill="#313440"/>
              <path id="Trazado_875998" data-name="Trazado 875998" d="M170.857,25.1a89.561,89.561,0,0,0-15.368,2.542,49.676,49.676,0,0,0-9.56,2.843l-3.9-3.314A3.714,3.714,0,0,1,141,26.011a3.569,3.569,0,0,1-.249-1.467c-.043-1.99.267-4.353,2.028-5.281a14.343,14.343,0,0,1,1.606-.58c2.7-1.033,3.876-4.131,4.768-6.88s2.144-5.839,4.884-6.769a7.27,7.27,0,0,1,2.439-.309,6.526,6.526,0,0,1,1.663.2,14.1,14.1,0,0,1,2.4,1.13,10.128,10.128,0,0,0,8.873-.024,31.681,31.681,0,0,0,4.975-3.646A9.538,9.538,0,0,1,179.967,0a8.116,8.116,0,0,1,2.6.478,4.48,4.48,0,0,1,1.563.81c1.2,1.053,1.209,2.947.678,4.451a10.532,10.532,0,0,0-.641,1.969,1.95,1.95,0,0,0,.63,1.87c.573.413,1.365.324,2.019.59a3.241,3.241,0,0,1,1.659,2.5,8.826,8.826,0,0,1-3.068,8.442,14.964,14.964,0,0,1-3.389,1.909,23.13,23.13,0,0,1-4.816,1.621,43.76,43.76,0,0,1-6.34.461" transform="translate(-52.751 0)" fill="#b04526"/>
              <path id="Trazado_875999" data-name="Trazado 875999" d="M196.731,60.221s3.751-4.356,7.2-3.362,4.373,8.235.837,9.882-8.071-.912-8.071-.912Z" transform="translate(-73.721 -21.255)" fill="#dda583"/>
              <path id="Trazado_876000" data-name="Trazado 876000" d="M205.426,66.588a.148.148,0,0,1-.071-.28,2.83,2.83,0,0,0,1.3-3.509,2.873,2.873,0,0,0-1.355-1.884c-.753-.353-1.822-.208-3.576.485a.149.149,0,0,1-.109-.277c1.862-.736,2.966-.873,3.811-.477a3.545,3.545,0,0,1,.068,5.926.144.144,0,0,1-.065.016" transform="translate(-75.527 -22.648)" fill="#313440"/>
              <path id="Trazado_876001" data-name="Trazado 876001" d="M200.409,29.61c1.9,2.605,1.537,8.418.441,13.585s-1.827-9.865-1.827-9.865l-3.641-4.223Z" transform="translate(-73.227 -10.909)" fill="#b04526"/>
              <path id="Trazado_876002" data-name="Trazado 876002" d="M180.9,79.523l.828,9.354s-7.708,4.625-21.915.259l-.865-18.855,12.031,8.231Z" transform="translate(-59.572 -26.341)" fill="#f0b48f"/>
              <path id="Trazado_876003" data-name="Trazado 876003" d="M184.5,86.11l-.294-3.324-9.921-1.011-4.018-2.749-2.5-.038c4.841,7.263,14.348,7.247,16.735,7.121" transform="translate(-62.876 -29.604)" fill="#313440"/>
              <path id="Trazado_876004" data-name="Trazado 876004" d="M183.813,28.352c1.04,2.753-.074,6.929.82,12.654s3.487,17.753-7.559,20.326-20.716-6.558-20.716-6.558L151.5,36.741c-2.255-8.377,3-15.208,11.455-17.171.194-.046.393-.088.593-.128,16.579-3.265,20.261,8.91,20.261,8.91" transform="translate(-56.586 -7.078)" fill="#f0b48f"/>
              <path id="Trazado_876005" data-name="Trazado 876005" d="M149.436,49.6,146.222,36l9.257-2.9s-.309,4.822-.206,10.627,1.136,8.161,1.136,8.161Z" transform="translate(-54.803 -12.404)" fill="#b04526"/>
              <path id="Trazado_876006" data-name="Trazado 876006" d="M154.073,61.006s-3.9-4.219-7.318-3.1-4.075,8.387-.483,9.906,8.033-1.2,8.033-1.2Z" transform="translate(-53.921 -21.631)" fill="#f0b48f"/>
              <path id="Trazado_876007" data-name="Trazado 876007" d="M189.124,60.6a.2.2,0,0,1-.116-.361,4.159,4.159,0,0,0,1.536-3.327,3.189,3.189,0,0,0-1.039-2.056A14.912,14.912,0,0,1,188.02,52.8a.2.2,0,1,1,.341-.2,14.622,14.622,0,0,0,1.449,2.005,3.524,3.524,0,0,1,1.13,2.3,4.511,4.511,0,0,1-1.707,3.659.2.2,0,0,1-.109.035" transform="translate(-70.458 -19.678)" fill="#313440"/>
              <path id="Trazado_876008" data-name="Trazado 876008" d="M177.01,55.513c-.017-.943-.341-1.7-.723-1.694s-.68.777-.663,1.719.341,1.7.723,1.694.68-.777.663-1.719" transform="translate(-65.822 -20.171)" fill="#313440"/>
              <path id="Trazado_876009" data-name="Trazado 876009" d="M197.819,54.349c-.017-.943-.341-1.7-.723-1.694s-.68.777-.663,1.719.341,1.7.723,1.694.68-.777.663-1.719" transform="translate(-73.621 -19.735)" fill="#313440"/>
              <path id="Trazado_876010" data-name="Trazado 876010" d="M148.381,67.608a.148.148,0,0,1-.065-.014,3.544,3.544,0,0,1-.144-5.925c.831-.426,1.939-.327,3.826.341a.148.148,0,1,1-.1.279c-1.776-.63-2.85-.736-3.591-.356a2.874,2.874,0,0,0-1.287,1.932,2.831,2.831,0,0,0,1.421,3.46.148.148,0,0,1-.061.283" transform="translate(-54.936 -23.017)" fill="#313440"/>
              <path id="Trazado_876011" data-name="Trazado 876011" d="M176.4,47.874c-.031.334-.368.541-.672.683a13.309,13.309,0,0,1-4.955,1.23,2.107,2.107,0,0,1-.9-.1,1.172,1.172,0,0,1-.688-1.271,1.529,1.529,0,0,1,.768-.978,4.4,4.4,0,0,1,1.207-.42c1.549-.37,3.266-.68,4.666.079.3.163.6.434.573.772" transform="translate(-63.402 -17.478)" fill="#313440"/>
              <path id="Trazado_876012" data-name="Trazado 876012" d="M197.934,47.52c-.984.135-2.306-.241-3.025-.177-.635.057-1.9.465-2.069-.471a1.677,1.677,0,0,1,1.073-1.372,4.93,4.93,0,0,1,1.394-.305c1.073-.125,2.77-.364,3.582.558a.934.934,0,0,1,.232.83,1.261,1.261,0,0,1-1.187.937" transform="translate(-72.274 -16.892)" fill="#313440"/>
              <path id="Trazado_876013" data-name="Trazado 876013" d="M175.423,60.733c-.093,0-.189,0-.29,0a.148.148,0,1,1,.016-.3,2.715,2.715,0,0,0,2-.587.149.149,0,0,1,.213.207,2.823,2.823,0,0,1-1.943.681" transform="translate(-65.585 -22.412)" fill="#313440"/>
              <path id="Trazado_876014" data-name="Trazado 876014" d="M197.989,60.161a2.983,2.983,0,0,1-1.835-.446.148.148,0,1,1,.183-.233,2.776,2.776,0,0,0,1.647.383.149.149,0,0,1,0,.3" transform="translate(-73.496 -22.281)" fill="#313440"/>
              <path id="Trazado_876015" data-name="Trazado 876015" d="M166.574,80.8a.146.146,0,0,1-.076-.019,28.214,28.214,0,0,1-4.983-3.567.149.149,0,0,1,.216-.2,28.506,28.506,0,0,0,4.915,3.514.149.149,0,0,1,.055.2.147.147,0,0,1-.126.075" transform="translate(-60.519 -28.844)" fill="#313440"/>
              <path id="Trazado_876016" data-name="Trazado 876016" d="M189.946,82.564a.147.147,0,0,1-.108-.044.148.148,0,0,1,0-.21c.063-.062,1.514-1.536.529-2.782a.148.148,0,0,1,.233-.184c1.15,1.453-.535,3.159-.553,3.176a.147.147,0,0,1-.1.043" transform="translate(-71.134 -29.717)" fill="#313440"/>
              <path id="Trazado_876017" data-name="Trazado 876017" d="M183.192,68.669c-2.02-1.336-3.2-3.325-5.745-1.736s1.772,5.9,5.08,5.6,4.744-1.712,4.416-2.988-2.951-.349-3.751-.879" transform="translate(-66.218 -24.865)" fill="#fff"/>
              <path id="Trazado_876018" data-name="Trazado 876018" d="M178.267,25.68a11.286,11.286,0,0,1,3.034,1.862,3.313,3.313,0,0,0,3.353.535c1-2.554-.093-5.409-1.272-7.884a8.235,8.235,0,0,0-1.736-2.652c-1.374-1.247-3.368-1.469-5.219-1.6a159.425,159.425,0,0,0-16.8-.286,3.766,3.766,0,0,0-1.5.264c-.913.436-1.315,1.485-1.864,2.334-1.637,2.533-4.921,3.573-6.685,6.018a6.558,6.558,0,0,0,3.611,10.167c.8.216,1.9.625,1.712,1.435a6.982,6.982,0,0,1,6.055-5.537c2.477-.227,5.015.9,7.414.25,1.837-.5,3.228-1.952,4.7-3.16s3.37-2.26,5.2-1.749" transform="translate(-55.598 -5.83)" fill="#b04526"/>
              <path id="Trazado_876019" data-name="Trazado 876019" d="M160.332,100.284S171.7,110.7,178.984,107.5s6.744-6.592,6.744-6.592l-3.482-.888Z" transform="translate(-60.091 -37.489)" fill="#f0b48f"/>
              <path id="Trazado_876020" data-name="Trazado 876020" d="M38.965,266.843c.044,8.178,1.913,15.581,6.5,21.375a34.836,34.836,0,0,0,12.088,9.839c.772-13.4-7.779-23.282-18.591-31.214" transform="translate(-14.604 -100.01)" fill="#f0b48f"/>
              <path id="Trazado_876021" data-name="Trazado 876021" d="M257.207,223.638a12.169,12.169,0,0,1-16.568-4.557c-.081-.143-.144-.291-.219-.435-12.91,8.03-25.84,16.025-39.251,23.176a57.8,57.8,0,0,0,78.553,21.407l25.085-14.248q-11.213-19.688-22.643-39.518Z" transform="translate(-75.396 -78.505)" fill="#34b7bf"/>
              <path id="Trazado_876022" data-name="Trazado 876022" d="M251.131,270.779a58.063,58.063,0,0,1-50.394-29.038l-.131-.228.232-.124c12.91-6.884,24.9-14.251,39.236-23.167l.234-.146.212.419c.041.085.081.17.129.253a11.914,11.914,0,0,0,16.22,4.461l25.176-14.3.126.219c6.7,11.6,13.894,24.154,22.644,39.519l.126.221-.222.127-25.085,14.249a57.576,57.576,0,0,1-28.505,7.536M201.31,241.714A57.6,57.6,0,0,0,279.385,262.8l24.863-14.122c-8.638-15.166-15.76-27.6-22.39-39.076l-24.736,14.05-.126-.221.126.221A12.424,12.424,0,0,1,240.206,219c-.037-.065-.07-.13-.1-.2-14.152,8.8-26.03,16.094-38.794,22.911" transform="translate(-75.185 -78.297)" fill="#333"/>
              <path id="Trazado_876023" data-name="Trazado 876023" d="M343.393,197.945l-12.677,7.2q11.424,19.78,22.643,39.517l12.549-7.128Z" transform="translate(-123.949 -74.188)" fill="#fff"/>
              <path id="Trazado_876024" data-name="Trazado 876024" d="M353.206,244.766a.253.253,0,0,1-.221-.129c-8.75-15.363-15.945-27.919-22.643-39.515a.255.255,0,0,1,.094-.349l12.678-7.2a.254.254,0,0,1,.347.1l22.515,39.59a.256.256,0,0,1-.1.348l-12.549,7.127a.253.253,0,0,1-.126.033m-22.295-39.677c6.629,11.478,13.753,23.91,22.391,39.076l12.106-6.877-22.264-39.147Z" transform="translate(-123.797 -74.036)" fill="#333"/>
              <path id="Trazado_876025" data-name="Trazado 876025" d="M218.085,126.883a57.728,57.728,0,0,0-21.659,78.649c.046.081.1.158.144.239,13.411-7.151,26.341-15.146,39.251-23.176a12.145,12.145,0,0,1,4.779-16.122l24.763-14.065Q253.8,132.654,242.04,113.277Z" transform="translate(-70.797 -42.455)" fill="#f15a28"/>
              <path id="Trazado_876026" data-name="Trazado 876026" d="M196.31,205.906l-.187-.318c-.028-.045-.056-.09-.081-.136a57.982,57.982,0,0,1,21.755-79l24.171-13.729.129.211c7.6,12.509,15.445,25.676,23.324,39.136l.13.223-.224.128-24.763,14.065a11.843,11.843,0,0,0-4.678,15.783l.108.209-.2.124c-14.343,8.922-26.342,16.294-39.266,23.184Zm21.612-79.229.126.222a57.472,57.472,0,0,0-21.563,78.3l.016.026c12.769-6.819,24.656-14.118,38.825-22.931a12.351,12.351,0,0,1,4.985-16.25l24.538-13.938c-7.79-13.305-15.546-26.32-23.061-38.694L218.048,126.9Z" transform="translate(-70.635 -42.249)" fill="#333"/>
              <path id="Trazado_876027" data-name="Trazado 876027" d="M287.575,100.85,273.9,108.619q11.75,19.342,23.323,39.131l12.871-7.311Z" transform="translate(-102.654 -37.798)" fill="#fff"/>
              <path id="Trazado_876028" data-name="Trazado 876028" d="M297.067,147.852a.255.255,0,0,1-.219-.126c-7.878-13.458-15.724-26.623-23.32-39.128a.255.255,0,0,1,.092-.354l13.678-7.769a.254.254,0,0,1,.348.1l22.515,39.59a.257.257,0,0,1,.024.193.254.254,0,0,1-.119.154l-12.871,7.311a.256.256,0,0,1-.126.033M274.1,108.558c7.514,12.374,15.272,25.39,23.061,38.694l12.431-7.061-22.264-39.147Z" transform="translate(-102.502 -37.644)" fill="#333"/>
              <path id="Trazado_876029" data-name="Trazado 876029" d="M134.6,272.752,116.869,245.4c-18.786,12.113-40.657,18.319-45.363,14.879-.45-2.337.117-6.423,1.449-11.544-11.356-4.069-22.042-4.054-32.719-3.239a70.758,70.758,0,0,0-1.271,13.184C49.776,266.614,58.327,276.5,57.556,289.9a41.362,41.362,0,0,0,18.337,3.9c24.493,0,51.576-16.427,58.7-21.048" transform="translate(-14.603 -91.85)" fill="#f0b48f"/>
              <path id="Trazado_876030" data-name="Trazado 876030" d="M205.786,286.4a3.633,3.633,0,0,1-1.672.411l-22.121.131a3.668,3.668,0,1,1-.042-7.335l22.121-.13a3.667,3.667,0,0,1,1.714,6.923" transform="translate(-66.825 -104.745)" fill="#f0b48f"/>
              <path id="Trazado_876031" data-name="Trazado 876031" d="M211.457,250.87l-.011,0-7.824.98a.246.246,0,0,1-.238-.114l-.491-.807a.241.241,0,0,1,.083-.333.239.239,0,0,1,.333.08l.409.673,7.663-.96a.243.243,0,0,1,.078.479" transform="translate(-76.029 -93.844)" fill="#313440"/>
              <path id="Trazado_876032" data-name="Trazado 876032" d="M214.41,245.837a4.971,4.971,0,0,1-.774.164l-22.09,2.82a4.893,4.893,0,1,1-1.243-9.707l22.09-2.82a4.892,4.892,0,0,1,2.017,9.543" transform="translate(-69.721 -88.546)" fill="#f0b48f"/>
              <path id="Trazado_876033" data-name="Trazado 876033" d="M213.808,275.934a4.971,4.971,0,0,1-.774.164l-22.09,2.82a4.893,4.893,0,1,1-1.243-9.707l22.09-2.82a4.892,4.892,0,0,1,2.017,9.543" transform="translate(-69.496 -99.826)" fill="#f0b48f"/>
              <path id="Trazado_876034" data-name="Trazado 876034" d="M217.355,263.111a5.019,5.019,0,0,1-1.175.2l-26.135,1.177a4.893,4.893,0,1,1-.44-9.775l26.135-1.178a4.892,4.892,0,0,1,1.616,9.576" transform="translate(-69.31 -95.021)" fill="#f0b48f"/>
              <path id="Trazado_876035" data-name="Trazado 876035" d="M153.909,239.81c4.8-4.995,7.4-7.941,8.368-9.816s10.388-10.271,13.806-14.469c3.164-3.886,7.986-3.494,7.182,2.707-.752,5.791-11.152,12.364-9.411,12.257,5.372-.332,7.337-.4,7.337-.4l.6,23.4-2.96,4.543-11.437.435Z" transform="translate(-57.684 -79.833)" fill="#f0b48f"/>
              <path id="Trazado_876036" data-name="Trazado 876036" d="M148.118,256.214s8.764-7.693,12.316-7.654c10.08.11,14.275,1.645,14.275,1.645s10.245,22.517,5.434,24.3c-4.527,1.674-30.064.549-30.064.549Z" transform="translate(-55.513 -93.158)" fill="#f0b48f"/>
              <path id="Trazado_876037" data-name="Trazado 876037" d="M192.325,249.323a.194.194,0,0,1-.029.126.2.2,0,0,1-.276.068l-2.535-1.539a.2.2,0,0,1,.209-.344l2.535,1.539a.2.2,0,0,1,.1.15" transform="translate(-70.982 -92.8)" fill="#313440"/>
              <path id="Trazado_876038" data-name="Trazado 876038" d="M189.711,249.472a.2.2,0,0,0,.339.123l2.133-2.059a.2.2,0,0,0-.279-.29l-2.133,2.059a.2.2,0,0,0-.061.168" transform="translate(-71.102 -92.644)" fill="#313440"/>
              <path id="Trazado_876039" data-name="Trazado 876039" d="M191.608,263.131a.194.194,0,0,1-.029.126.2.2,0,0,1-.276.068l-2.535-1.539a.2.2,0,0,1,.209-.344l2.535,1.539a.2.2,0,0,1,.1.15" transform="translate(-70.713 -97.975)" fill="#313440"/>
              <path id="Trazado_876040" data-name="Trazado 876040" d="M188.994,263.279a.2.2,0,0,0,.339.122l2.133-2.059a.2.2,0,0,0-.279-.29l-2.133,2.059a.2.2,0,0,0-.061.168" transform="translate(-70.833 -97.819)" fill="#313440"/>
              <path id="Trazado_876041" data-name="Trazado 876041" d="M192.793,275.511a.194.194,0,0,1-.029.126.2.2,0,0,1-.276.068l-2.535-1.539a.2.2,0,0,1,.209-.345l2.535,1.539a.2.2,0,0,1,.1.15" transform="translate(-71.157 -102.615)" fill="#313440"/>
              <path id="Trazado_876042" data-name="Trazado 876042" d="M190.179,275.66a.2.2,0,0,0,.34.123l2.133-2.059a.2.2,0,0,0-.279-.29l-2.133,2.059a.2.2,0,0,0-.061.168" transform="translate(-71.277 -102.459)" fill="#313440"/>
              <path id="Trazado_876043" data-name="Trazado 876043" d="M190.633,219.487c-.576-.444-1.207-.974-1.247-1.007a.243.243,0,0,1-.031-.341.229.229,0,0,1,.342-.031c.014.013,1.37,1.15,1.891,1.47a7.028,7.028,0,0,0,1.641-3.544c.012-.313-.051-.519-.2-.571a.237.237,0,0,1-.124-.318.243.243,0,0,1,.319-.125.868.868,0,0,1,.49.8,6.86,6.86,0,0,1-1.872,4.168.405.405,0,0,1-.433.042,8.189,8.189,0,0,1-.772-.547" transform="translate(-70.948 -80.58)" fill="#313440"/>
              <path id="Trazado_876044" data-name="Trazado 876044" d="M225.138,269a.215.215,0,0,1,.01.053.18.18,0,0,1-.171.191l-16.417.761a.187.187,0,0,1-.191-.171.18.18,0,0,1,.171-.191l16.417-.762a.18.18,0,0,1,.181.118" transform="translate(-78.095 -100.775)" fill="#313440"/>
              <path id="Trazado_876045" data-name="Trazado 876045" d="M212.738,282.984a.322.322,0,0,1,.013.061.191.191,0,0,1-.183.186l-6.851.037a.2.2,0,0,1-.186-.183.191.191,0,0,1,.183-.185l6.851-.037a.186.186,0,0,1,.173.121" transform="translate(-77.032 -106.015)" fill="#313440"/>
              <path id="Trazado_876046" data-name="Trazado 876046" d="M229.668,245.741a.2.2,0,0,1-.181-.036.2.2,0,0,1-.027-.276c1.374-1.677-.108-3.7-.456-4.135l-4.615.679c-.725,1.326.308,4.353.319,4.385a.2.2,0,0,1-.12.25l-.009,0a.194.194,0,0,1-.24-.123c-.048-.136-1.144-3.364-.237-4.8a.215.215,0,0,1,.139-.091l4.815-.708a.191.191,0,0,1,.174.067c.022.024,2.259,2.615.533,4.721a.186.186,0,0,1-.1.063" transform="translate(-83.858 -90.283)" fill="#313440"/>
              <path id="Trazado_876047" data-name="Trazado 876047" d="M233.639,263.437a.194.194,0,0,1-.18-.036.2.2,0,0,1-.027-.276c1.374-1.677-.108-3.7-.456-4.135l-4.615.68c-.724,1.325.309,4.353.321,4.385a.2.2,0,0,1-.121.249l-.009,0a.2.2,0,0,1-.241-.123c-.048-.136-1.144-3.364-.236-4.8a.216.216,0,0,1,.138-.091l4.815-.708a.19.19,0,0,1,.174.068c.022.023,2.259,2.615.532,4.72a.181.181,0,0,1-.1.063" transform="translate(-85.346 -96.915)" fill="#313440"/>
              <path id="Trazado_876048" data-name="Trazado 876048" d="M228.835,277.692a.2.2,0,0,1-.173-.062.2.2,0,0,1,.013-.277c1.6-1.464.425-3.677.143-4.158l-4.665.011c-.907,1.208-.319,4.353-.319,4.353a.2.2,0,0,1-.148.263h-.007a.2.2,0,0,1-.223-.156c-.028-.141-.65-3.492.455-4.783a.208.208,0,0,1,.149-.069l4.867-.012a.192.192,0,0,1,.163.093c.018.026,1.86,2.911-.151,4.748a.186.186,0,0,1-.1.049" transform="translate(-83.674 -102.244)" fill="#313440"/>
              <path id="Trazado_876049" data-name="Trazado 876049" d="M218.368,289.028a.2.2,0,0,1-.149-.033.105.105,0,0,1,.02-.177,1.728,1.728,0,0,0,.259-2.654l-4.063.183c-.829.8-.42,2.785-.415,2.805.014.068-.05.136-.143.153h-.009a.157.157,0,0,1-.187-.091c-.019-.089-.452-2.2.552-3.064a.235.235,0,0,1,.132-.05l4.24-.191a.17.17,0,0,1,.139.053c.015.016,1.525,1.784-.286,3.03a.207.207,0,0,1-.092.035" transform="translate(-80.045 -107.157)" fill="#313440"/>
              <path id="Trazado_876050" data-name="Trazado 876050" d="M347.376,272.017l-6.611-11.791a4.812,4.812,0,0,0-6.5-1.489,4.736,4.736,0,0,0-2.626,5.006,5.2,5.2,0,0,0-8.567,3.129,5.166,5.166,0,0,0-4.994,0,4.726,4.726,0,0,0-2.613,5.083,4.628,4.628,0,0,0-4.517-.022,4.083,4.083,0,0,0-2,5.492l5.927,10.57a3.563,3.563,0,0,0,1.1,1.2,4.612,4.612,0,0,0,4.726.134,4.391,4.391,0,0,0,2.423-3.686,4.071,4.071,0,0,0,.56.483,5.145,5.145,0,0,0,5.272.151,4.954,4.954,0,0,0,2.69-3.819,5.158,5.158,0,0,0,4.994.016,4.737,4.737,0,0,0,2.627-5,4.11,4.11,0,0,0,.605.522,5.146,5.146,0,0,0,5.272.15c2.411-1.28,3.411-4.022,2.232-6.126" transform="translate(-115.624 -96.728)" fill="#dda583"/>
              <path id="Trazado_876051" data-name="Trazado 876051" d="M345.207,267.072a.2.2,0,0,1,.354-.13l7.629,13.728a.177.177,0,0,1-.086.236.185.185,0,0,1-.25-.058l-7.63-13.728a.15.15,0,0,1-.017-.047" transform="translate(-129.38 -100.016)" fill="#313440"/>
              <path id="Trazado_876052" data-name="Trazado 876052" d="M331.5,272.076a.184.184,0,0,1,.1-.184.188.188,0,0,1,.254.049l5.06,8.213a.173.173,0,0,1-.078.238.187.187,0,0,1-.254-.049l-5.06-8.213a.156.156,0,0,1-.019-.053" transform="translate(-124.244 -101.892)" fill="#313440"/>
              <path id="Trazado_876053" data-name="Trazado 876053" d="M322.2,285.678a.184.184,0,0,1,.1-.184.188.188,0,0,1,.254.046l5.854,9.243a.169.169,0,0,1-.074.238.187.187,0,0,1-.254-.046l-5.854-9.242a.136.136,0,0,1-.021-.055" transform="translate(-120.758 -106.99)" fill="#313440"/>
              <path id="Trazado_876054" data-name="Trazado 876054" d="M319.338,280.206a.181.181,0,0,1,.087-.179.192.192,0,0,1,.258.034l.893,1.255a.171.171,0,0,1-.061.241.192.192,0,0,1-.258-.034l-.893-1.255a.152.152,0,0,1-.026-.062" transform="translate(-119.684 -104.939)" fill="#313440"/>
              <path id="Trazado_876055" data-name="Trazado 876055" d="M350.156,267.244a.167.167,0,0,1-.037-.036l-2.159-2.837a.157.157,0,0,1-.023-.15,5.674,5.674,0,0,1,2.932-3.029.193.193,0,0,1,.253.076.185.185,0,0,1-.106.241,5.4,5.4,0,0,0-2.677,2.71l2.058,2.7a6.063,6.063,0,0,0,4.88-2.616l-1.75-2.38a.175.175,0,0,1,.06-.249.2.2,0,0,1,.268.032l1.818,2.472a.163.163,0,0,1,0,.188c-.021.031-2.029,3.113-5.424,2.907a.189.189,0,0,1-.094-.031" transform="translate(-130.4 -97.886)" fill="#313440"/>
              <path id="Trazado_876056" data-name="Trazado 876056" d="M336.067,272.775a.178.178,0,0,1-.034-.039l-1.9-3a.159.159,0,0,1-.01-.153,5.79,5.79,0,0,1,3.155-2.835.176.176,0,1,1,.119.328,5.511,5.511,0,0,0-2.877,2.533l1.812,2.859a6.091,6.091,0,0,0,5.05-2.285l-1.534-2.513a.178.178,0,0,1,.08-.246.2.2,0,0,1,.262.051l1.593,2.61a.166.166,0,0,1-.014.189c-.023.03-2.269,2.983-5.612,2.538a.184.184,0,0,1-.091-.038" transform="translate(-125.221 -99.97)" fill="#313440"/>
              <path id="Trazado_876057" data-name="Trazado 876057" d="M323.453,280.028a.179.179,0,0,1-.034-.039l-1.9-3a.159.159,0,0,1-.01-.153A5.79,5.79,0,0,1,324.664,274a.176.176,0,1,1,.119.328,5.51,5.51,0,0,0-2.877,2.533l1.812,2.859a6.091,6.091,0,0,0,5.05-2.285l-1.534-2.513a.178.178,0,0,1,.08-.246.2.2,0,0,1,.262.051l1.593,2.61a.166.166,0,0,1-.014.189c-.023.029-2.269,2.983-5.612,2.538a.185.185,0,0,1-.091-.038" transform="translate(-120.493 -102.689)" fill="#313440"/>
              <path id="Trazado_876058" data-name="Trazado 876058" d="M311.732,288.319a.159.159,0,0,1-.032-.036l-1.8-2.842a.15.15,0,0,1-.009-.144,5.484,5.484,0,0,1,2.988-2.685.167.167,0,1,1,.113.311,5.217,5.217,0,0,0-2.725,2.4l1.716,2.708a5.768,5.768,0,0,0,4.783-2.164l-1.452-2.38a.169.169,0,0,1,.076-.233.185.185,0,0,1,.248.049l1.509,2.471a.158.158,0,0,1-.013.179c-.022.028-2.149,2.826-5.316,2.4a.179.179,0,0,1-.086-.036" transform="translate(-116.139 -105.916)" fill="#313440"/>
              <path id="Trazado_876059" data-name="Trazado 876059" d="M329.1,34.769a22.244,22.244,0,1,1-22.244-22.231A22.237,22.237,0,0,1,329.1,34.769" transform="translate(-106.67 -4.699)" fill="#34b7bf"/>
              <path id="Trazado_876060" data-name="Trazado 876060" d="M325.483,61.547H299.06s4.028-13.526,13.373-13.526,13.051,13.526,13.051,13.526" transform="translate(-112.085 -17.998)" fill="#fff"/>
              <path id="Trazado_876061" data-name="Trazado 876061" d="M323.364,29.089a7.17,7.17,0,1,0-7.17,7.166,7.168,7.168,0,0,0,7.17-7.166" transform="translate(-115.82 -8.217)" fill="#fff"/>
              <path id="Trazado_876062" data-name="Trazado 876062" d="M420.522,199.965a19.106,19.106,0,1,1-19.106-19.094,19.1,19.1,0,0,1,19.106,19.094" transform="translate(-143.286 -67.789)" fill="#34b7bf"/>
              <path id="Trazado_876063" data-name="Trazado 876063" d="M417.414,222.964h-22.7s3.459-11.616,11.486-11.616,11.209,11.616,11.209,11.616" transform="translate(-147.937 -79.211)" fill="#fff"/>
              <path id="Trazado_876064" data-name="Trazado 876064" d="M415.594,195.086a6.158,6.158,0,1,0-6.158,6.155,6.157,6.157,0,0,0,6.158-6.155" transform="translate(-151.145 -70.81)" fill="#fff"/>
              <path id="Trazado_876065" data-name="Trazado 876065" d="M19.457,35.414C9.4,35.414,1.222,27.562,1.222,17.908S9.4.4,19.457.4s18.236,7.852,18.236,17.5S29.512,35.414,19.457,35.414m0-26.931a9.639,9.639,0,0,0-9.818,9.426,9.639,9.639,0,0,0,9.818,9.428,9.641,9.641,0,0,0,9.82-9.428,9.64,9.64,0,0,0-9.82-9.426" transform="translate(-0.458 -0.151)" fill="#33bac1"/>
              <path id="Trazado_876066" data-name="Trazado 876066" d="M23.52,35.436c10.055,0,18.236-7.852,18.236-17.506C41.756,8.524,33.98.849,24.278.463V8.578a9.575,9.575,0,0,1,9.061,9.352,9.641,9.641,0,0,1-9.82,9.428,10.018,10.018,0,0,1-5.643-1.737l-5.814,5.909A18.615,18.615,0,0,0,23.52,35.436" transform="translate(-4.521 -0.174)" fill="#f05923"/>
              <path id="Trazado_876067" data-name="Trazado 876067" d="M31.6.464V8.579a9.6,9.6,0,0,1,8.969,8.435L47.939,11.9A18.2,18.2,0,0,0,31.6.464" transform="translate(-11.844 -0.174)" fill="#fcb036"/>
              <path id="Trazado_876068" data-name="Trazado 876068" d="M35.349,70.21H2.2a.2.2,0,0,1-.2-.2V67.143a.2.2,0,0,1,.2-.2H35.349a.2.2,0,0,1,.2.2V70.01a.2.2,0,0,1-.2.2" transform="translate(-0.751 -25.09)" fill="#7d89bd"/>
              <path id="Trazado_876069" data-name="Trazado 876069" d="M35.349,83.273H2.2a.2.2,0,0,1-.2-.2V80.207a.2.2,0,0,1,.2-.2H35.349a.2.2,0,0,1,.2.2v2.867a.2.2,0,0,1-.2.2" transform="translate(-0.751 -29.986)" fill="#7d89bd"/>
              <path id="Trazado_876070" data-name="Trazado 876070" d="M19.457,132.93c-10.055,0-18.235-7.852-18.235-17.506s8.18-17.5,18.235-17.5,18.236,7.852,18.236,17.5S29.512,132.93,19.457,132.93m0-26.932a9.435,9.435,0,1,0,0,18.854,9.435,9.435,0,1,0,0-18.854" transform="translate(-0.458 -36.7)" fill="#fcb036"/>
              <path id="Trazado_876071" data-name="Trazado 876071" d="M23.52,132.952c10.055,0,18.236-7.852,18.236-17.506,0-9.406-7.776-17.081-17.478-17.467v8.115a9.4,9.4,0,1,1-.758,18.78,10.018,10.018,0,0,1-5.643-1.736l-5.814,5.909a18.615,18.615,0,0,0,11.458,3.905" transform="translate(-4.521 -36.722)" fill="#33bac1"/>
              <path id="Trazado_876072" data-name="Trazado 876072" d="M31.6,97.979v8.115a9.6,9.6,0,0,1,8.969,8.435l7.369-5.117A18.2,18.2,0,0,0,31.6,97.979" transform="translate(-11.844 -36.722)" fill="#f05923"/>
              <path id="Trazado_876073" data-name="Trazado 876073" d="M35.349,167.724H2.2a.2.2,0,0,1-.2-.2v-2.867a.2.2,0,0,1,.2-.2H35.349a.2.2,0,0,1,.2.2v2.867a.2.2,0,0,1-.2.2" transform="translate(-0.751 -61.637)" fill="#7d89bd"/>
              <path id="Trazado_876074" data-name="Trazado 876074" d="M35.349,180.789H2.2a.2.2,0,0,1-.2-.2v-2.867a.2.2,0,0,1,.2-.2H35.349a.2.2,0,0,1,.2.2v2.867a.2.2,0,0,1-.2.2" transform="translate(-0.751 -66.534)" fill="#7d89bd"/>
              <path id="Trazado_876075" data-name="Trazado 876075" d="M27.8,375.284,24.346,358a7.1,7.1,0,0,0-5.493-5.559l-.082-.022L7.9,348.812l11.139-4.053a7.133,7.133,0,0,0,5.358-5.445l3.732-17.537L32.221,339.5a7.07,7.07,0,0,0,5.244,5.307l11.93,3.826-11.843,3.991a7.135,7.135,0,0,0-5.516,5.286Zm-8.587-24.318a8.622,8.622,0,0,1,6.626,6.738l2.109,10.556,2.611-10.713a8.66,8.66,0,0,1,6.647-6.406l7.328-2.474-7.48-2.4a8.559,8.559,0,0,1-6.315-6.428L28.193,328.8l-2.3,10.828a8.661,8.661,0,0,1-6.457,6.6l-6.9,2.515Z" transform="translate(-2.962 -120.599)" fill="#34b7bf"/>
              <path id="Trazado_876076" data-name="Trazado 876076" d="M455.589,20.952l7.534-2.543L455.5,15.961a6.2,6.2,0,0,1-4.575-4.63L448.308,0l-2.379,11.176a6.2,6.2,0,0,1-4.673,4.75l-7.091,2.584,6.931,2.3a6.2,6.2,0,0,1,4.792,4.849l2.191,10.968,2.7-11.067a6.2,6.2,0,0,1,4.811-4.61" transform="translate(-162.721 0)" fill="#fcb033"/>
              <path id="Trazado_876077" data-name="Trazado 876077" d="M358.474,331.469l8.208-2.771-8.308-2.666a6.755,6.755,0,0,1-4.984-5.043l-2.847-12.344-2.591,12.175a6.754,6.754,0,0,1-5.09,5.174l-7.724,2.815,7.549,2.508a6.753,6.753,0,0,1,5.22,5.282l2.387,11.948,2.94-12.056a6.755,6.755,0,0,1,5.241-5.022" transform="translate(-125.606 -115.678)" fill="#e2e2ec"/>
              <path id="Trazado_876078" data-name="Trazado 876078" d="M248.694,424.585h-42.2a.764.764,0,1,1,0-1.527h42.2a.764.764,0,1,1,0,1.527" transform="translate(-77.105 -158.558)" fill="#545e7d"/>
              <path id="Trazado_876079" data-name="Trazado 876079" d="M122.75,424.617h0L.764,424.585a.764.764,0,1,1,0-1.527l121.986.032a.764.764,0,1,1,0,1.527" transform="translate(0 -158.558)" fill="#545e7d"/>
              <path id="Trazado_876081" data-name="Trazado 876081" d="M433.988,176.6a.51.51,0,0,1-.222-.968l19.433-9.349a.51.51,0,0,1,.443.918l-19.433,9.349a.509.509,0,0,1-.221.05" transform="translate(-162.464 -62.302)" fill="#7d86ba"/>
              <path id="Trazado_876082" data-name="Trazado 876082" d="M441.512,187.713a.509.509,0,0,1-.221-.968l12.307-5.92a.509.509,0,1,1,.442.918l-12.307,5.921a.509.509,0,0,1-.221.05" transform="translate(-165.284 -67.753)" fill="#7d86ba"/>
              <path id="Trazado_876083" data-name="Trazado 876083" d="M355.466,19.254a.509.509,0,0,1-.222-.968l19.433-9.349a.51.51,0,0,1,.442.918L355.686,19.2a.508.508,0,0,1-.22.05" transform="translate(-133.034 -3.331)" fill="#7d86ba"/>
              <path id="Trazado_876084" data-name="Trazado 876084" d="M373.542,24.027a.509.509,0,0,1-.221-.968l11.207-5.391a.51.51,0,0,1,.442.918l-11.207,5.391a.509.509,0,0,1-.221.05" transform="translate(-139.809 -6.603)" fill="#7d86ba"/>
            </g>
          </g>
        </g>
      </g>
    </g>
  </g>
</svg>
