<svg xmlns="http://www.w3.org/2000/svg" xmlns:xlink="http://www.w3.org/1999/xlink" width="42.826" height="82.976" viewBox="0 0 42.826 82.976">
  <defs>
    <clipPath id="clip-path">
      <rect id="Rectángulo_401871" data-name="Rectángulo 401871" width="40.605" height="40.605" fill="#7d6eb2"/>
    </clipPath>
    <clipPath id="clip-path-3">
      <rect id="Rectángulo_401866" data-name="Rectángulo 401866" width="23.76" height="17.556" fill="#7d6eb2"/>
    </clipPath>
    <clipPath id="clip-path-4">
      <rect id="Rectángulo_401868" data-name="Rectángulo 401868" width="30.454" height="30.454" fill="#7d6eb2"/>
    </clipPath>
    <clipPath id="clip-path-5">
      <rect id="Rectángulo_401869" data-name="Rectángulo 401869" width="12.024" height="18.469" fill="#7d6eb2"/>
    </clipPath>
    <clipPath id="clip-path-6">
      <rect id="Rectángulo_401871-2" data-name="Rectángulo 401871" width="40.605" height="40.605" fill="none"/>
    </clipPath>
    <clipPath id="clip-path-8">
      <rect id="Rectángulo_401866-2" data-name="Rectángulo 401866" width="23.76" height="17.556" fill="none"/>
    </clipPath>
    <clipPath id="clip-path-9">
      <rect id="Rectángulo_401868-2" data-name="Rectángulo 401868" width="30.454" height="30.454" fill="none"/>
    </clipPath>
    <clipPath id="clip-path-10">
      <rect id="Rectángulo_401869-2" data-name="Rectángulo 401869" width="12.024" height="18.469" fill="none"/>
    </clipPath>
    <clipPath id="clip-path-11">
      <rect id="Rectángulo_401871-3" data-name="Rectángulo 401871" width="25.637" height="25.637" fill="#7d6eb2"/>
    </clipPath>
    <clipPath id="clip-path-13">
      <rect id="Rectángulo_401866-3" data-name="Rectángulo 401866" width="15.001" height="11.085" fill="#7d6eb2"/>
    </clipPath>
    <clipPath id="clip-path-14">
      <rect id="Rectángulo_401868-3" data-name="Rectángulo 401868" width="19.228" height="19.228" fill="#7d6eb2"/>
    </clipPath>
    <clipPath id="clip-path-15">
      <rect id="Rectángulo_401869-3" data-name="Rectángulo 401869" width="7.592" height="11.661" fill="#7d6eb2"/>
    </clipPath>
    <clipPath id="clip-path-16">
      <rect id="Rectángulo_401871-4" data-name="Rectángulo 401871" width="25.637" height="25.637" fill="none"/>
    </clipPath>
    <clipPath id="clip-path-18">
      <rect id="Rectángulo_401866-4" data-name="Rectángulo 401866" width="15.001" height="11.085" fill="none"/>
    </clipPath>
    <clipPath id="clip-path-19">
      <rect id="Rectángulo_401868-4" data-name="Rectángulo 401868" width="19.228" height="19.228" fill="none"/>
    </clipPath>
    <clipPath id="clip-path-20">
      <rect id="Rectángulo_401869-4" data-name="Rectángulo 401869" width="7.592" height="11.661" fill="none"/>
    </clipPath>
  </defs>
  <g id="Grupo_1100757" data-name="Grupo 1100757" transform="translate(11571.819 11885.976)">
    <g id="Grupo_1100651" data-name="Grupo 1100651" transform="translate(-12527.307 -12047.151)">
      <g id="Grupo_1100645" data-name="Grupo 1100645" transform="translate(957.709 164.879)" style="mix-blend-mode: multiply;isolation: isolate">
        <g id="Grupo_1100643" data-name="Grupo 1100643" clip-path="url(#clip-path)">
          <g id="Grupo_1100642" data-name="Grupo 1100642" transform="translate(0 0)">
            <g id="Grupo_1100641" data-name="Grupo 1100641" clip-path="url(#clip-path)">
              <path id="Trazado_875097" data-name="Trazado 875097" d="M40.237,24.127A20.3,20.3,0,1,1,24.127.367a20.3,20.3,0,0,1,16.111,23.76" transform="translate(0 0)" fill="#7d6eb2"/>
              <g id="Grupo_1100631" data-name="Grupo 1100631" transform="translate(0.367 0)" opacity="0.1">
                <g id="Grupo_1100630" data-name="Grupo 1100630">
                  <g id="Grupo_1100629" data-name="Grupo 1100629" clip-path="url(#clip-path-3)">
                    <path id="Trazado_875098" data-name="Trazado 875098" d="M24.255.367A20.3,20.3,0,0,0,.5,16.479s13.888,3.314,18.34-1.681S24.255.367,24.255.367" transform="translate(-0.496 0)" fill="#7d6eb2"/>
                  </g>
                </g>
              </g>
              <path id="Trazado_875099" data-name="Trazado 875099" d="M36.818,24.406A15.431,15.431,0,1,1,24.57,6.344,15.431,15.431,0,0,1,36.818,24.406" transform="translate(-1.615 -1.573)" fill="#7d6eb2"/>
              <path id="Trazado_875101" data-name="Trazado 875101" d="M37.376,25.457A15.224,15.224,0,1,1,25.293,7.637a15.223,15.223,0,0,1,12.083,17.82" transform="translate(-1.867 -1.909)" fill="#7d6eb2"/>
              <g id="Grupo_1100637" data-name="Grupo 1100637" transform="translate(5.331 2.561)" opacity="0.2">
                <g id="Grupo_1100636" data-name="Grupo 1100636">
                  <g id="Grupo_1100635" data-name="Grupo 1100635" clip-path="url(#clip-path-4)">
                    <path id="Trazado_875102" data-name="Trazado 875102" d="M37.376,25.457A15.224,15.224,0,1,1,25.293,7.637a15.223,15.223,0,0,1,12.083,17.82" transform="translate(-7.197 -4.398)" fill="#7d6eb2"/>
                  </g>
                </g>
              </g>
              <path id="Trazado_875103" data-name="Trazado 875103" d="M26.312,23.3l.734-3.825.019,0A7.987,7.987,0,0,1,29,20.4a6.5,6.5,0,0,1,.837.783l.073-.108.855-1.264.2-.29-.544-.847-.356.084a7.284,7.284,0,0,0-2.617-1.332l.4-2.1-.554-.654-.1.528-.9-.173-.41,2.142c-3.011-.283-4.737,1.135-5.108,3.068-.505,2.634,1.619,3.749,3.625,4.665l-.727,3.79a7.411,7.411,0,0,1-3.514-2.167l-1.22,1.75a8.452,8.452,0,0,0,4.342,2.464l-.305,1.589-.742-.13.644.644,1.554.3.407-2.123c3.034.267,4.775-1.127,5.146-3.06.505-2.634-1.661-3.738-3.666-4.653m-1.478-.7c-1.038-.533-1.772-1.107-1.6-2.017.16-.833.86-1.406,2.245-1.357Zm2.212-3.132h0Zm-1.818,9.476.644-3.354c1.075.54,1.826,1.136,1.647,2.065-.156.815-.867,1.347-2.291,1.289" transform="translate(-4.91 -3.804)" fill="#7d6eb2"/>
              <g id="Grupo_1100640" data-name="Grupo 1100640" transform="translate(14.023 10.865)" opacity="0.3">
                <g id="Grupo_1100639" data-name="Grupo 1100639">
                  <g id="Grupo_1100638" data-name="Grupo 1100638" clip-path="url(#clip-path-5)">
                    <path id="Trazado_875104" data-name="Trazado 875104" d="M26.312,23.3l.734-3.825.019,0A7.987,7.987,0,0,1,29,20.4a6.5,6.5,0,0,1,.837.783l.073-.108.855-1.264.2-.29-.544-.847-.356.084a7.284,7.284,0,0,0-2.617-1.332l.4-2.1-.554-.654-.1.528-.9-.173-.41,2.142c-3.011-.283-4.737,1.135-5.108,3.068-.505,2.634,1.619,3.749,3.625,4.665l-.727,3.79a7.411,7.411,0,0,1-3.514-2.167l-1.22,1.75a8.452,8.452,0,0,0,4.342,2.464l-.305,1.589-.742-.13.644.644,1.554.3.407-2.123c3.034.267,4.775-1.127,5.146-3.06.505-2.634-1.661-3.738-3.666-4.653m-1.478-.7c-1.038-.533-1.772-1.107-1.6-2.017.16-.833.86-1.406,2.245-1.357Zm2.212-3.132h0Zm-1.818,9.476.644-3.354c1.075.54,1.826,1.136,1.647,2.065-.156.815-.867,1.347-2.291,1.289" transform="translate(-18.933 -14.669)" fill="#7d6eb2"/>
                  </g>
                </g>
              </g>
              <path id="Trazado_875105" data-name="Trazado 875105" d="M24.1,30.271l-.407,2.123-1.554-.3.4-2.1A8.451,8.451,0,0,1,18.2,27.527l1.221-1.751a7.4,7.4,0,0,0,3.514,2.168l.727-3.791c-2.006-.915-4.131-2.03-3.625-4.665.371-1.934,2.1-3.351,5.109-3.069l.411-2.142,1.554.3-.4,2.1a8.278,8.278,0,0,1,3.627,1.895l-1.145,1.765a7.994,7.994,0,0,0-2.874-1.612l-.734,3.829c2.006.915,4.172,2.019,3.666,4.654-.37,1.934-2.112,3.328-5.147,3.061m0-8.411.647-3.374c-1.386-.05-2.086.524-2.246,1.358-.174.91.561,1.483,1.6,2.016m2.686,5.055c.178-.929-.573-1.524-1.648-2.065L24.5,28.205c1.424.057,2.135-.475,2.292-1.29" transform="translate(-4.72 -3.703)" fill="#7d6eb2"/>
              <path id="Trazado_875106" data-name="Trazado 875106" d="M1.742,29.612a.81.81,0,0,1-.063-.172c-.04-.13-.091-.3-.153-.5a8.16,8.16,0,0,1-.21-.8c-.069-.317-.164-.675-.22-1.079-.033-.2-.067-.413-.1-.633s-.05-.452-.077-.69c-.061-.477-.075-.99-.1-1.53a21.984,21.984,0,0,1,.22-3.5,22.009,22.009,0,0,1,.825-3.413c.184-.508.348-.995.548-1.432.1-.219.18-.436.278-.636l.285-.574c.173-.37.37-.684.528-.966s.31-.518.438-.706l.295-.434a.814.814,0,0,1,.112-.146.942.942,0,0,1-.086.162L3.988,13c-.121.193-.266.43-.415.716s-.341.6-.507.972l-.275.575c-.095.2-.175.416-.268.636-.193.437-.353.921-.531,1.427a22.87,22.87,0,0,0-.808,3.392A22.894,22.894,0,0,0,.954,24.2c.021.535.03,1.046.086,1.52.024.238.037.468.067.687l.093.63c.049.4.136.761.2,1.078s.125.587.184.807.093.377.126.509a.812.812,0,0,1,.034.181" transform="translate(-0.211 -3.214)" fill="#7d6eb2"/>
              <path id="Trazado_875107" data-name="Trazado 875107" d="M21.82,22.51a1.281,1.281,0,0,1-.356-.521,2.386,2.386,0,0,1,.645-2.815,1.283,1.283,0,0,1,.547-.315c.013.023-.2.132-.476.394a2.477,2.477,0,0,0-.618,2.7c.133.356.279.547.258.562" transform="translate(-5.512 -4.89)" fill="#7d6eb2"/>
              <path id="Trazado_875108" data-name="Trazado 875108" d="M28.084,16.392a1.391,1.391,0,0,1,.045-.638,1.387,1.387,0,0,1,.194-.609,1.4,1.4,0,0,1-.045.638,1.394,1.394,0,0,1-.194.609" transform="translate(-7.278 -3.928)" fill="#7d6eb2"/>
              <path id="Trazado_875109" data-name="Trazado 875109" d="M28.669,5.99a3.241,3.241,0,0,1-.484-.113c-.153-.043-.341-.093-.564-.138s-.47-.112-.752-.153-.587-.1-.919-.138-.688-.067-1.062-.1a15.892,15.892,0,0,0-4.845.48c-.361.1-.708.19-1.023.3s-.61.211-.875.315-.5.21-.707.3-.384.173-.526.245a3.213,3.213,0,0,1-.452.206,2.973,2.973,0,0,1,.424-.258c.139-.081.31-.175.517-.27s.436-.218.7-.321.554-.23.875-.336.664-.213,1.027-.318A15.06,15.06,0,0,1,24.9,5.213c.378.032.737.056,1.07.11s.642.1.923.157.532.121.753.176.408.112.559.163a3.18,3.18,0,0,1,.467.17" transform="translate(-4.269 -1.345)" fill="#7d6eb2"/>
              <path id="Trazado_875110" data-name="Trazado 875110" d="M22.654,52.62a1.779,1.779,0,0,1-.374.028c-.241.01-.59.006-1.021-.019a14.671,14.671,0,0,1-6.41-1.928c-.373-.217-.667-.406-.862-.548a1.836,1.836,0,0,1-.3-.23,1.8,1.8,0,0,1,.328.18c.2.127.506.3.883.5a16.4,16.4,0,0,0,6.366,1.915c.427.039.774.06,1.014.067a1.814,1.814,0,0,1,.373.031" transform="translate(-3.55 -12.947)" fill="#7d6eb2"/>
            </g>
          </g>
        </g>
      </g>
      <g id="Grupo_1100644" data-name="Grupo 1100644" transform="translate(955.487 161.176)">
        <g id="Grupo_1100643-2" data-name="Grupo 1100643" clip-path="url(#clip-path-6)">
          <g id="Grupo_1100642-2" data-name="Grupo 1100642" transform="translate(0 0)">
            <g id="Grupo_1100641-2" data-name="Grupo 1100641" clip-path="url(#clip-path-6)">
              <path id="Trazado_875097-2" data-name="Trazado 875097" d="M40.237,24.127A20.3,20.3,0,1,1,24.127.367a20.3,20.3,0,0,1,16.111,23.76" transform="translate(0 0)" fill="#fbcf29"/>
              <g id="Grupo_1100631-2" data-name="Grupo 1100631" transform="translate(0.367 0)" opacity="0.1">
                <g id="Grupo_1100630-2" data-name="Grupo 1100630">
                  <g id="Grupo_1100629-2" data-name="Grupo 1100629" clip-path="url(#clip-path-8)">
                    <path id="Trazado_875098-2" data-name="Trazado 875098" d="M24.255.367A20.3,20.3,0,0,0,.5,16.479s13.888,3.314,18.34-1.681S24.255.367,24.255.367" transform="translate(-0.496 0)" fill="#fff"/>
                  </g>
                </g>
              </g>
              <path id="Trazado_875099-2" data-name="Trazado 875099" d="M36.818,24.406A15.431,15.431,0,1,1,24.57,6.344,15.431,15.431,0,0,1,36.818,24.406" transform="translate(-1.615 -1.573)" fill="#dbb00b"/>
              <path id="Trazado_875101-2" data-name="Trazado 875101" d="M37.376,25.457A15.224,15.224,0,1,1,25.293,7.637a15.223,15.223,0,0,1,12.083,17.82" transform="translate(-1.867 -1.909)" fill="#ffd947"/>
              <g id="Grupo_1100637-2" data-name="Grupo 1100637" transform="translate(5.331 2.561)" opacity="0.2">
                <g id="Grupo_1100636-2" data-name="Grupo 1100636">
                  <g id="Grupo_1100635-2" data-name="Grupo 1100635" clip-path="url(#clip-path-9)">
                    <path id="Trazado_875102-2" data-name="Trazado 875102" d="M37.376,25.457A15.224,15.224,0,1,1,25.293,7.637a15.223,15.223,0,0,1,12.083,17.82" transform="translate(-7.197 -4.398)" fill="#fff"/>
                  </g>
                </g>
              </g>
              <path id="Trazado_875103-2" data-name="Trazado 875103" d="M26.312,23.3l.734-3.825.019,0A7.987,7.987,0,0,1,29,20.4a6.5,6.5,0,0,1,.837.783l.073-.108.855-1.264.2-.29-.544-.847-.356.084a7.284,7.284,0,0,0-2.617-1.332l.4-2.1-.554-.654-.1.528-.9-.173-.41,2.142c-3.011-.283-4.737,1.135-5.108,3.068-.505,2.634,1.619,3.749,3.625,4.665l-.727,3.79a7.411,7.411,0,0,1-3.514-2.167l-1.22,1.75a8.452,8.452,0,0,0,4.342,2.464l-.305,1.589-.742-.13.644.644,1.554.3.407-2.123c3.034.267,4.775-1.127,5.146-3.06.505-2.634-1.661-3.738-3.666-4.653m-1.478-.7c-1.038-.533-1.772-1.107-1.6-2.017.16-.833.86-1.406,2.245-1.357Zm2.212-3.132h0Zm-1.818,9.476.644-3.354c1.075.54,1.826,1.136,1.647,2.065-.156.815-.867,1.347-2.291,1.289" transform="translate(-4.91 -3.804)" fill="#f0cd47"/>
              <g id="Grupo_1100640-2" data-name="Grupo 1100640" transform="translate(14.023 10.865)" opacity="0.3">
                <g id="Grupo_1100639-2" data-name="Grupo 1100639">
                  <g id="Grupo_1100638-2" data-name="Grupo 1100638" clip-path="url(#clip-path-10)">
                    <path id="Trazado_875104-2" data-name="Trazado 875104" d="M26.312,23.3l.734-3.825.019,0A7.987,7.987,0,0,1,29,20.4a6.5,6.5,0,0,1,.837.783l.073-.108.855-1.264.2-.29-.544-.847-.356.084a7.284,7.284,0,0,0-2.617-1.332l.4-2.1-.554-.654-.1.528-.9-.173-.41,2.142c-3.011-.283-4.737,1.135-5.108,3.068-.505,2.634,1.619,3.749,3.625,4.665l-.727,3.79a7.411,7.411,0,0,1-3.514-2.167l-1.22,1.75a8.452,8.452,0,0,0,4.342,2.464l-.305,1.589-.742-.13.644.644,1.554.3.407-2.123c3.034.267,4.775-1.127,5.146-3.06.505-2.634-1.661-3.738-3.666-4.653m-1.478-.7c-1.038-.533-1.772-1.107-1.6-2.017.16-.833.86-1.406,2.245-1.357Zm2.212-3.132h0Zm-1.818,9.476.644-3.354c1.075.54,1.826,1.136,1.647,2.065-.156.815-.867,1.347-2.291,1.289" transform="translate(-18.933 -14.669)"/>
                  </g>
                </g>
              </g>
              <path id="Trazado_875105-2" data-name="Trazado 875105" d="M24.1,30.271l-.407,2.123-1.554-.3.4-2.1A8.451,8.451,0,0,1,18.2,27.527l1.221-1.751a7.4,7.4,0,0,0,3.514,2.168l.727-3.791c-2.006-.915-4.131-2.03-3.625-4.665.371-1.934,2.1-3.351,5.109-3.069l.411-2.142,1.554.3-.4,2.1a8.278,8.278,0,0,1,3.627,1.895l-1.145,1.765a7.994,7.994,0,0,0-2.874-1.612l-.734,3.829c2.006.915,4.172,2.019,3.666,4.654-.37,1.934-2.112,3.328-5.147,3.061m0-8.411.647-3.374c-1.386-.05-2.086.524-2.246,1.358-.174.91.561,1.483,1.6,2.016m2.686,5.055c.178-.929-.573-1.524-1.648-2.065L24.5,28.205c1.424.057,2.135-.475,2.292-1.29" transform="translate(-4.72 -3.703)" fill="#fcc903"/>
              <path id="Trazado_875106-2" data-name="Trazado 875106" d="M1.742,29.612a.81.81,0,0,1-.063-.172c-.04-.13-.091-.3-.153-.5a8.16,8.16,0,0,1-.21-.8c-.069-.317-.164-.675-.22-1.079-.033-.2-.067-.413-.1-.633s-.05-.452-.077-.69c-.061-.477-.075-.99-.1-1.53a21.984,21.984,0,0,1,.22-3.5,22.009,22.009,0,0,1,.825-3.413c.184-.508.348-.995.548-1.432.1-.219.18-.436.278-.636l.285-.574c.173-.37.37-.684.528-.966s.31-.518.438-.706l.295-.434a.814.814,0,0,1,.112-.146.942.942,0,0,1-.086.162L3.988,13c-.121.193-.266.43-.415.716s-.341.6-.507.972l-.275.575c-.095.2-.175.416-.268.636-.193.437-.353.921-.531,1.427a22.87,22.87,0,0,0-.808,3.392A22.894,22.894,0,0,0,.954,24.2c.021.535.03,1.046.086,1.52.024.238.037.468.067.687l.093.63c.049.4.136.761.2,1.078s.125.587.184.807.093.377.126.509a.812.812,0,0,1,.034.181" transform="translate(-0.211 -3.214)" fill="#fff"/>
              <path id="Trazado_875107-2" data-name="Trazado 875107" d="M21.82,22.51a1.281,1.281,0,0,1-.356-.521,2.386,2.386,0,0,1,.645-2.815,1.283,1.283,0,0,1,.547-.315c.013.023-.2.132-.476.394a2.477,2.477,0,0,0-.618,2.7c.133.356.279.547.258.562" transform="translate(-5.512 -4.89)" fill="#fff"/>
              <path id="Trazado_875108-2" data-name="Trazado 875108" d="M28.084,16.392a1.391,1.391,0,0,1,.045-.638,1.387,1.387,0,0,1,.194-.609,1.4,1.4,0,0,1-.045.638,1.394,1.394,0,0,1-.194.609" transform="translate(-7.278 -3.928)" fill="#fff"/>
              <path id="Trazado_875109-2" data-name="Trazado 875109" d="M28.669,5.99a3.241,3.241,0,0,1-.484-.113c-.153-.043-.341-.093-.564-.138s-.47-.112-.752-.153-.587-.1-.919-.138-.688-.067-1.062-.1a15.892,15.892,0,0,0-4.845.48c-.361.1-.708.19-1.023.3s-.61.211-.875.315-.5.21-.707.3-.384.173-.526.245a3.213,3.213,0,0,1-.452.206,2.973,2.973,0,0,1,.424-.258c.139-.081.31-.175.517-.27s.436-.218.7-.321.554-.23.875-.336.664-.213,1.027-.318A15.06,15.06,0,0,1,24.9,5.213c.378.032.737.056,1.07.11s.642.1.923.157.532.121.753.176.408.112.559.163a3.18,3.18,0,0,1,.467.17" transform="translate(-4.269 -1.345)" fill="#fff"/>
              <path id="Trazado_875110-2" data-name="Trazado 875110" d="M22.654,52.62a1.779,1.779,0,0,1-.374.028c-.241.01-.59.006-1.021-.019a14.671,14.671,0,0,1-6.41-1.928c-.373-.217-.667-.406-.862-.548a1.836,1.836,0,0,1-.3-.23,1.8,1.8,0,0,1,.328.18c.2.127.506.3.883.5a16.4,16.4,0,0,0,6.366,1.915c.427.039.774.06,1.014.067a1.814,1.814,0,0,1,.373.031" transform="translate(-3.55 -12.947)" fill="#fff"/>
            </g>
          </g>
        </g>
      </g>
    </g>
    <g id="Grupo_1100652" data-name="Grupo 1100652" transform="translate(-12521.834 -11992.151)">
      <g id="Grupo_1100645-2" data-name="Grupo 1100645" transform="translate(956.89 163.514)" style="mix-blend-mode: multiply;isolation: isolate">
        <g id="Grupo_1100643-3" data-name="Grupo 1100643" clip-path="url(#clip-path-11)">
          <g id="Grupo_1100642-3" data-name="Grupo 1100642" transform="translate(0 0)">
            <g id="Grupo_1100641-3" data-name="Grupo 1100641" clip-path="url(#clip-path-11)">
              <path id="Trazado_875097-3" data-name="Trazado 875097" d="M25.4,15.234a12.816,12.816,0,1,1-10.172-15,12.817,12.817,0,0,1,10.172,15" transform="translate(0 0)" fill="#7d6eb2"/>
              <g id="Grupo_1100631-3" data-name="Grupo 1100631" transform="translate(0.232 0)" opacity="0.1">
                <g id="Grupo_1100630-3" data-name="Grupo 1100630">
                  <g id="Grupo_1100629-3" data-name="Grupo 1100629" clip-path="url(#clip-path-13)">
                    <path id="Trazado_875098-3" data-name="Trazado 875098" d="M15.5.232A12.816,12.816,0,0,0,.5,10.4S9.265,12.5,12.076,9.343,15.5.232,15.5.232" transform="translate(-0.496 0)" fill="#7d6eb2"/>
                  </g>
                </g>
              </g>
              <path id="Trazado_875099-3" data-name="Trazado 875099" d="M25.542,17.645a9.743,9.743,0,1,1-7.733-11.4,9.743,9.743,0,0,1,7.733,11.4" transform="translate(-3.316 -3.229)" fill="#7d6eb2"/>
              <path id="Trazado_875101-3" data-name="Trazado 875101" d="M26.251,18.786A9.612,9.612,0,1,1,18.622,7.535a9.612,9.612,0,0,1,7.629,11.251" transform="translate(-3.831 -3.919)" fill="#7d6eb2"/>
              <g id="Grupo_1100637-3" data-name="Grupo 1100637" transform="translate(3.366 1.617)" opacity="0.2">
                <g id="Grupo_1100636-3" data-name="Grupo 1100636">
                  <g id="Grupo_1100635-3" data-name="Grupo 1100635" clip-path="url(#clip-path-14)">
                    <path id="Trazado_875102-3" data-name="Trazado 875102" d="M26.251,18.786A9.612,9.612,0,1,1,18.622,7.535a9.612,9.612,0,0,1,7.629,11.251" transform="translate(-7.197 -5.49)" fill="#7d6eb2"/>
                  </g>
                </g>
              </g>
              <path id="Trazado_875103-3" data-name="Trazado 875103" d="M23.592,20.12l.463-2.415.012,0a5.043,5.043,0,0,1,1.22.581,4.1,4.1,0,0,1,.528.494l.046-.068.54-.8.124-.183-.344-.535-.225.053A4.6,4.6,0,0,0,24.3,16.41l.255-1.328-.35-.413L24.145,15l-.568-.109-.259,1.352c-1.9-.179-2.991.716-3.225,1.937-.319,1.663,1.022,2.367,2.289,2.945l-.459,2.393A4.679,4.679,0,0,1,19.7,22.153l-.77,1.105a5.336,5.336,0,0,0,2.741,1.556l-.193,1-.469-.082.406.407.981.188.257-1.34c1.915.169,3.015-.712,3.249-1.932.319-1.663-1.048-2.36-2.315-2.938m-.933-.44c-.655-.337-1.119-.7-1.009-1.273.1-.526.543-.888,1.417-.857Zm1.4-1.978h0Zm-1.148,5.983.406-2.118c.679.341,1.153.717,1.04,1.3-.1.514-.548.85-1.446.814" transform="translate(-10.079 -7.809)" fill="#7d6eb2"/>
              <g id="Grupo_1100640-3" data-name="Grupo 1100640" transform="translate(8.854 6.86)" opacity="0.3">
                <g id="Grupo_1100639-3" data-name="Grupo 1100639">
                  <g id="Grupo_1100638-3" data-name="Grupo 1100638" clip-path="url(#clip-path-15)">
                    <path id="Trazado_875104-3" data-name="Trazado 875104" d="M23.592,20.12l.463-2.415.012,0a5.043,5.043,0,0,1,1.22.581,4.1,4.1,0,0,1,.528.494l.046-.068.54-.8.124-.183-.344-.535-.225.053A4.6,4.6,0,0,0,24.3,16.41l.255-1.328-.35-.413L24.145,15l-.568-.109-.259,1.352c-1.9-.179-2.991.716-3.225,1.937-.319,1.663,1.022,2.367,2.289,2.945l-.459,2.393A4.679,4.679,0,0,1,19.7,22.153l-.77,1.105a5.336,5.336,0,0,0,2.741,1.556l-.193,1-.469-.082.406.407.981.188.257-1.34c1.915.169,3.015-.712,3.249-1.932.319-1.663-1.048-2.36-2.315-2.938m-.933-.44c-.655-.337-1.119-.7-1.009-1.273.1-.526.543-.888,1.417-.857Zm1.4-1.978h0Zm-1.148,5.983.406-2.118c.679.341,1.153.717,1.04,1.3-.1.514-.548.85-1.446.814" transform="translate(-18.933 -14.669)" fill="#7d6eb2"/>
                  </g>
                </g>
              </g>
              <path id="Trazado_875105-3" data-name="Trazado 875105" d="M21.924,24.376l-.257,1.341-.981-.188.255-1.329A5.336,5.336,0,0,1,18.2,22.643l.771-1.105a4.674,4.674,0,0,0,2.219,1.369l.459-2.394c-1.266-.578-2.608-1.282-2.289-2.945.234-1.221,1.324-2.116,3.226-1.937l.26-1.352.981.188-.255,1.329a5.227,5.227,0,0,1,2.29,1.2l-.723,1.114a5.047,5.047,0,0,0-1.815-1.018L22.859,19.5c1.266.578,2.634,1.275,2.315,2.938-.234,1.221-1.334,2.1-3.25,1.933m0-5.31.409-2.131c-.875-.031-1.317.331-1.418.858-.11.574.354.936,1.009,1.273m1.7,3.192c.113-.586-.361-.962-1.04-1.3l-.406,2.118c.9.036,1.348-.3,1.447-.815" transform="translate(-9.689 -7.601)" fill="#7d6eb2"/>
              <path id="Trazado_875106-3" data-name="Trazado 875106" d="M1.4,23.264a.511.511,0,0,1-.04-.108l-.1-.317a5.152,5.152,0,0,1-.133-.507c-.043-.2-.1-.426-.139-.681-.021-.128-.043-.261-.065-.4s-.031-.285-.049-.436c-.039-.3-.047-.625-.063-.966a13.88,13.88,0,0,1,.139-2.212,13.9,13.9,0,0,1,.521-2.155c.116-.321.22-.628.346-.9.061-.138.114-.275.175-.4l.18-.362c.109-.233.233-.432.333-.61s.2-.327.277-.446l.186-.274a.514.514,0,0,1,.071-.092.6.6,0,0,1-.054.1l-.171.283c-.077.122-.168.272-.262.452s-.215.38-.32.614l-.173.363c-.06.126-.11.263-.169.4-.122.276-.223.582-.335.9a14.44,14.44,0,0,0-.51,2.142,14.455,14.455,0,0,0-.145,2.2c.014.338.019.66.054.96.015.15.023.3.043.434l.059.4c.031.255.086.481.124.681s.079.371.116.509l.079.321a.513.513,0,0,1,.022.114" transform="translate(-0.432 -6.597)" fill="#7d6eb2"/>
              <path id="Trazado_875107-3" data-name="Trazado 875107" d="M21.611,21.163a.809.809,0,0,1-.225-.329,1.506,1.506,0,0,1,.407-1.777.81.81,0,0,1,.346-.2c.008.014-.128.083-.3.249a1.564,1.564,0,0,0-.39,1.7c.084.224.176.346.163.355" transform="translate(-11.315 -10.039)" fill="#7d6eb2"/>
              <path id="Trazado_875108-3" data-name="Trazado 875108" d="M28.076,15.933a.878.878,0,0,1,.029-.4.876.876,0,0,1,.123-.384.886.886,0,0,1-.029.4.88.88,0,0,1-.123.384" transform="translate(-14.939 -8.063)" fill="#7d6eb2"/>
              <path id="Trazado_875109-3" data-name="Trazado 875109" d="M24.169,5.693a2.046,2.046,0,0,1-.305-.071c-.1-.027-.216-.058-.356-.087s-.3-.071-.475-.1-.37-.065-.58-.087-.434-.043-.671-.06a10.034,10.034,0,0,0-3.059.3c-.228.064-.447.12-.646.191s-.385.133-.552.2-.315.132-.446.188-.242.109-.332.155a2.028,2.028,0,0,1-.285.13,1.877,1.877,0,0,1,.268-.163c.087-.051.2-.11.326-.17s.275-.137.444-.2.35-.145.552-.212.419-.134.649-.2A9.508,9.508,0,0,1,21.787,5.2c.238.02.465.036.676.07s.405.063.583.1.336.077.475.111.258.071.353.1a2.008,2.008,0,0,1,.3.107" transform="translate(-8.764 -2.761)" fill="#7d6eb2"/>
              <path id="Trazado_875110-3" data-name="Trazado 875110" d="M19.35,51.626a1.123,1.123,0,0,1-.236.018c-.152.007-.373,0-.645-.012a9.263,9.263,0,0,1-4.047-1.217c-.235-.137-.421-.256-.544-.346a1.16,1.16,0,0,1-.187-.145,1.135,1.135,0,0,1,.207.114c.129.08.319.189.557.318a10.355,10.355,0,0,0,4.019,1.209c.269.024.489.038.64.042a1.146,1.146,0,0,1,.236.02" transform="translate(-7.288 -26.577)" fill="#7d6eb2"/>
            </g>
          </g>
        </g>
      </g>
      <g id="Grupo_1100644-2" data-name="Grupo 1100644" transform="translate(955.487 161.176)">
        <g id="Grupo_1100643-4" data-name="Grupo 1100643" clip-path="url(#clip-path-16)">
          <g id="Grupo_1100642-4" data-name="Grupo 1100642" transform="translate(0 0)">
            <g id="Grupo_1100641-4" data-name="Grupo 1100641" clip-path="url(#clip-path-16)">
              <path id="Trazado_875097-4" data-name="Trazado 875097" d="M25.4,15.234a12.816,12.816,0,1,1-10.172-15,12.817,12.817,0,0,1,10.172,15" transform="translate(0 0)" fill="#fbcf29"/>
              <g id="Grupo_1100631-4" data-name="Grupo 1100631" transform="translate(0.232 0)" opacity="0.1">
                <g id="Grupo_1100630-4" data-name="Grupo 1100630">
                  <g id="Grupo_1100629-4" data-name="Grupo 1100629" clip-path="url(#clip-path-18)">
                    <path id="Trazado_875098-4" data-name="Trazado 875098" d="M15.5.232A12.816,12.816,0,0,0,.5,10.4S9.265,12.5,12.076,9.343,15.5.232,15.5.232" transform="translate(-0.496 0)" fill="#fff"/>
                  </g>
                </g>
              </g>
              <path id="Trazado_875099-4" data-name="Trazado 875099" d="M25.542,17.645a9.743,9.743,0,1,1-7.733-11.4,9.743,9.743,0,0,1,7.733,11.4" transform="translate(-3.316 -3.229)" fill="#dbb00b"/>
              <path id="Trazado_875101-4" data-name="Trazado 875101" d="M26.251,18.786A9.612,9.612,0,1,1,18.622,7.535a9.612,9.612,0,0,1,7.629,11.251" transform="translate(-3.831 -3.919)" fill="#ffd947"/>
              <g id="Grupo_1100637-4" data-name="Grupo 1100637" transform="translate(3.366 1.617)" opacity="0.2">
                <g id="Grupo_1100636-4" data-name="Grupo 1100636">
                  <g id="Grupo_1100635-4" data-name="Grupo 1100635" clip-path="url(#clip-path-19)">
                    <path id="Trazado_875102-4" data-name="Trazado 875102" d="M26.251,18.786A9.612,9.612,0,1,1,18.622,7.535a9.612,9.612,0,0,1,7.629,11.251" transform="translate(-7.197 -5.49)" fill="#fff"/>
                  </g>
                </g>
              </g>
              <path id="Trazado_875103-4" data-name="Trazado 875103" d="M23.592,20.12l.463-2.415.012,0a5.043,5.043,0,0,1,1.22.581,4.1,4.1,0,0,1,.528.494l.046-.068.54-.8.124-.183-.344-.535-.225.053A4.6,4.6,0,0,0,24.3,16.41l.255-1.328-.35-.413L24.145,15l-.568-.109-.259,1.352c-1.9-.179-2.991.716-3.225,1.937-.319,1.663,1.022,2.367,2.289,2.945l-.459,2.393A4.679,4.679,0,0,1,19.7,22.153l-.77,1.105a5.336,5.336,0,0,0,2.741,1.556l-.193,1-.469-.082.406.407.981.188.257-1.34c1.915.169,3.015-.712,3.249-1.932.319-1.663-1.048-2.36-2.315-2.938m-.933-.44c-.655-.337-1.119-.7-1.009-1.273.1-.526.543-.888,1.417-.857Zm1.4-1.978h0Zm-1.148,5.983.406-2.118c.679.341,1.153.717,1.04,1.3-.1.514-.548.85-1.446.814" transform="translate(-10.079 -7.809)" fill="#f0cd47"/>
              <g id="Grupo_1100640-4" data-name="Grupo 1100640" transform="translate(8.854 6.86)" opacity="0.3">
                <g id="Grupo_1100639-4" data-name="Grupo 1100639">
                  <g id="Grupo_1100638-4" data-name="Grupo 1100638" clip-path="url(#clip-path-20)">
                    <path id="Trazado_875104-4" data-name="Trazado 875104" d="M23.592,20.12l.463-2.415.012,0a5.043,5.043,0,0,1,1.22.581,4.1,4.1,0,0,1,.528.494l.046-.068.54-.8.124-.183-.344-.535-.225.053A4.6,4.6,0,0,0,24.3,16.41l.255-1.328-.35-.413L24.145,15l-.568-.109-.259,1.352c-1.9-.179-2.991.716-3.225,1.937-.319,1.663,1.022,2.367,2.289,2.945l-.459,2.393A4.679,4.679,0,0,1,19.7,22.153l-.77,1.105a5.336,5.336,0,0,0,2.741,1.556l-.193,1-.469-.082.406.407.981.188.257-1.34c1.915.169,3.015-.712,3.249-1.932.319-1.663-1.048-2.36-2.315-2.938m-.933-.44c-.655-.337-1.119-.7-1.009-1.273.1-.526.543-.888,1.417-.857Zm1.4-1.978h0Zm-1.148,5.983.406-2.118c.679.341,1.153.717,1.04,1.3-.1.514-.548.85-1.446.814" transform="translate(-18.933 -14.669)"/>
                  </g>
                </g>
              </g>
              <path id="Trazado_875105-4" data-name="Trazado 875105" d="M21.924,24.376l-.257,1.341-.981-.188.255-1.329A5.336,5.336,0,0,1,18.2,22.643l.771-1.105a4.674,4.674,0,0,0,2.219,1.369l.459-2.394c-1.266-.578-2.608-1.282-2.289-2.945.234-1.221,1.324-2.116,3.226-1.937l.26-1.352.981.188-.255,1.329a5.227,5.227,0,0,1,2.29,1.2l-.723,1.114a5.047,5.047,0,0,0-1.815-1.018L22.859,19.5c1.266.578,2.634,1.275,2.315,2.938-.234,1.221-1.334,2.1-3.25,1.933m0-5.31.409-2.131c-.875-.031-1.317.331-1.418.858-.11.574.354.936,1.009,1.273m1.7,3.192c.113-.586-.361-.962-1.04-1.3l-.406,2.118c.9.036,1.348-.3,1.447-.815" transform="translate(-9.689 -7.601)" fill="#fcc903"/>
              <path id="Trazado_875106-4" data-name="Trazado 875106" d="M1.4,23.264a.511.511,0,0,1-.04-.108l-.1-.317a5.152,5.152,0,0,1-.133-.507c-.043-.2-.1-.426-.139-.681-.021-.128-.043-.261-.065-.4s-.031-.285-.049-.436c-.039-.3-.047-.625-.063-.966a13.88,13.88,0,0,1,.139-2.212,13.9,13.9,0,0,1,.521-2.155c.116-.321.22-.628.346-.9.061-.138.114-.275.175-.4l.18-.362c.109-.233.233-.432.333-.61s.2-.327.277-.446l.186-.274a.514.514,0,0,1,.071-.092.6.6,0,0,1-.054.1l-.171.283c-.077.122-.168.272-.262.452s-.215.38-.32.614l-.173.363c-.06.126-.11.263-.169.4-.122.276-.223.582-.335.9a14.44,14.44,0,0,0-.51,2.142,14.455,14.455,0,0,0-.145,2.2c.014.338.019.66.054.96.015.15.023.3.043.434l.059.4c.031.255.086.481.124.681s.079.371.116.509l.079.321a.513.513,0,0,1,.022.114" transform="translate(-0.432 -6.597)" fill="#fff"/>
              <path id="Trazado_875107-4" data-name="Trazado 875107" d="M21.611,21.163a.809.809,0,0,1-.225-.329,1.506,1.506,0,0,1,.407-1.777.81.81,0,0,1,.346-.2c.008.014-.128.083-.3.249a1.564,1.564,0,0,0-.39,1.7c.084.224.176.346.163.355" transform="translate(-11.315 -10.039)" fill="#fff"/>
              <path id="Trazado_875108-4" data-name="Trazado 875108" d="M28.076,15.933a.878.878,0,0,1,.029-.4.876.876,0,0,1,.123-.384.886.886,0,0,1-.029.4.88.88,0,0,1-.123.384" transform="translate(-14.939 -8.063)" fill="#fff"/>
              <path id="Trazado_875109-4" data-name="Trazado 875109" d="M24.169,5.693a2.046,2.046,0,0,1-.305-.071c-.1-.027-.216-.058-.356-.087s-.3-.071-.475-.1-.37-.065-.58-.087-.434-.043-.671-.06a10.034,10.034,0,0,0-3.059.3c-.228.064-.447.12-.646.191s-.385.133-.552.2-.315.132-.446.188-.242.109-.332.155a2.028,2.028,0,0,1-.285.13,1.877,1.877,0,0,1,.268-.163c.087-.051.2-.11.326-.17s.275-.137.444-.2.35-.145.552-.212.419-.134.649-.2A9.508,9.508,0,0,1,21.787,5.2c.238.02.465.036.676.07s.405.063.583.1.336.077.475.111.258.071.353.1a2.008,2.008,0,0,1,.3.107" transform="translate(-8.764 -2.761)" fill="#fff"/>
              <path id="Trazado_875110-4" data-name="Trazado 875110" d="M19.35,51.626a1.123,1.123,0,0,1-.236.018c-.152.007-.373,0-.645-.012a9.263,9.263,0,0,1-4.047-1.217c-.235-.137-.421-.256-.544-.346a1.16,1.16,0,0,1-.187-.145,1.135,1.135,0,0,1,.207.114c.129.08.319.189.557.318a10.355,10.355,0,0,0,4.019,1.209c.269.024.489.038.64.042a1.146,1.146,0,0,1,.236.02" transform="translate(-7.288 -26.577)" fill="#fff"/>
            </g>
          </g>
        </g>
      </g>
    </g>
  </g>
</svg>
