<svg xmlns="http://www.w3.org/2000/svg" xmlns:xlink="http://www.w3.org/1999/xlink" width="57.823" height="59.824" viewBox="0 0 57.823 59.824">
  <defs>
    <clipPath id="clip-path">
      <rect id="Rectángulo_401871" data-name="Rectángulo 401871" width="54.823" height="54.824" fill="#7d6eb2"/>
    </clipPath>
    <clipPath id="clip-path-2">
      <rect id="Rectángulo_401870" data-name="Rectángulo 401870" width="54.823" height="54.824" transform="translate(0 0)" fill="#7d6eb2"/>
    </clipPath>
    <clipPath id="clip-path-3">
      <rect id="Rectángulo_401866" data-name="Rectángulo 401866" width="32.08" height="23.703" transform="translate(0.496)" fill="#7d6eb2"/>
    </clipPath>
    <clipPath id="clip-path-4">
      <rect id="Rectángulo_401868" data-name="Rectángulo 401868" width="41.118" height="41.118" transform="translate(7.197 7.361)" fill="#7d6eb2"/>
    </clipPath>
    <clipPath id="clip-path-5">
      <rect id="Rectángulo_401869" data-name="Rectángulo 401869" width="16.235" height="24.936" transform="translate(18.933 14.669)" fill="#7d6eb2"/>
    </clipPath>
    <clipPath id="clip-path-6">
      <rect id="Rectángulo_401871-2" data-name="Rectángulo 401871" width="54.823" height="54.824" fill="none"/>
    </clipPath>
    <clipPath id="clip-path-7">
      <rect id="Rectángulo_401870-2" data-name="Rectángulo 401870" width="54.823" height="54.824" transform="translate(0 0)" fill="none"/>
    </clipPath>
    <clipPath id="clip-path-8">
      <rect id="Rectángulo_401866-2" data-name="Rectángulo 401866" width="32.08" height="23.703" transform="translate(0.496)" fill="none"/>
    </clipPath>
    <clipPath id="clip-path-9">
      <rect id="Rectángulo_401868-2" data-name="Rectángulo 401868" width="41.118" height="41.118" transform="translate(7.197 7.361)" fill="none"/>
    </clipPath>
    <clipPath id="clip-path-10">
      <rect id="Rectángulo_401869-2" data-name="Rectángulo 401869" width="16.235" height="24.936" transform="translate(18.933 14.669)" fill="none"/>
    </clipPath>
  </defs>
  <g id="Grupo_1100649" data-name="Grupo 1100649" transform="translate(-955.487 -161.176)">
    <g id="Grupo_1100645" data-name="Grupo 1100645" transform="translate(958.487 166.176)" style="mix-blend-mode: multiply;isolation: isolate">
      <g id="Grupo_1100643" data-name="Grupo 1100643" clip-path="url(#clip-path)">
        <g id="Grupo_1100642" data-name="Grupo 1100642">
          <g id="Grupo_1100641" data-name="Grupo 1100641" clip-path="url(#clip-path-2)">
            <path id="Trazado_875097" data-name="Trazado 875097" d="M54.327,32.576A27.407,27.407,0,1,1,32.575.5a27.408,27.408,0,0,1,21.752,32.08" fill="#7d6eb2"/>
            <g id="Grupo_1100631" data-name="Grupo 1100631" opacity="0.1">
              <g id="Grupo_1100630" data-name="Grupo 1100630">
                <g id="Grupo_1100629" data-name="Grupo 1100629" clip-path="url(#clip-path-3)">
                  <path id="Trazado_875098" data-name="Trazado 875098" d="M32.575.5A27.405,27.405,0,0,0,.5,22.249s18.751,4.474,24.762-2.27S32.575.5,32.575.5" fill="#7d6eb2"/>
                </g>
              </g>
            </g>
            <path id="Trazado_875099" data-name="Trazado 875099" d="M47.529,30.829A20.835,20.835,0,1,1,30.993,6.442,20.834,20.834,0,0,1,47.529,30.829" fill="#7d6eb2"/>
            <path id="Trazado_875101" data-name="Trazado 875101" d="M47.943,31.793A20.555,20.555,0,1,1,31.629,7.733a20.554,20.554,0,0,1,16.314,24.06" fill="#7d6eb2"/>
            <g id="Grupo_1100637" data-name="Grupo 1100637" transform="translate(0 -3.904)" opacity="0.2">
              <g id="Grupo_1100636" data-name="Grupo 1100636">
                <g id="Grupo_1100635" data-name="Grupo 1100635" clip-path="url(#clip-path-4)">
                  <path id="Trazado_875102" data-name="Trazado 875102" d="M47.943,31.793A20.555,20.555,0,1,1,31.629,7.733a20.554,20.554,0,0,1,16.314,24.06" transform="translate(0 4)" fill="#7d6eb2"/>
                </g>
              </g>
            </g>
            <path id="Trazado_875103" data-name="Trazado 875103" d="M28.9,26.325l.991-5.165.025.005a10.784,10.784,0,0,1,2.608,1.242,8.77,8.77,0,0,1,1.13,1.057l.1-.146L34.9,21.611l.265-.392-.735-1.143-.481.114a9.834,9.834,0,0,0-3.534-1.8l.545-2.84-.748-.883-.137.713-1.214-.233-.554,2.892c-4.066-.382-6.4,1.532-6.9,4.142-.682,3.557,2.186,5.062,4.894,6.3L25.325,33.6a10.007,10.007,0,0,1-4.745-2.926l-1.647,2.363A11.411,11.411,0,0,0,24.8,36.362l-.412,2.145-1-.175.869.87,2.1.4.55-2.866c4.1.361,6.447-1.522,6.948-4.132.682-3.557-2.242-5.047-4.95-6.282m-2-.94c-1.4-.72-2.393-1.494-2.158-2.723.216-1.125,1.161-1.9,3.031-1.832Zm2.987-4.229h0ZM27.433,33.95l.869-4.529c1.452.729,2.465,1.534,2.224,2.788-.211,1.1-1.171,1.818-3.093,1.741" fill="#7d6eb2"/>
            <g id="Grupo_1100640" data-name="Grupo 1100640" opacity="0.3">
              <g id="Grupo_1100639" data-name="Grupo 1100639">
                <g id="Grupo_1100638" data-name="Grupo 1100638" clip-path="url(#clip-path-5)">
                  <path id="Trazado_875104" data-name="Trazado 875104" d="M28.9,26.325l.991-5.165.025.005a10.784,10.784,0,0,1,2.608,1.242,8.77,8.77,0,0,1,1.13,1.057l.1-.146L34.9,21.611l.265-.392-.735-1.143-.481.114a9.834,9.834,0,0,0-3.534-1.8l.545-2.84-.748-.883-.137.713-1.214-.233-.554,2.892c-4.066-.382-6.4,1.532-6.9,4.142-.682,3.557,2.186,5.062,4.894,6.3L25.325,33.6a10.007,10.007,0,0,1-4.745-2.926l-1.647,2.363A11.411,11.411,0,0,0,24.8,36.362l-.412,2.145-1-.175.869.87,2.1.4.55-2.866c4.1.361,6.447-1.522,6.948-4.132.682-3.557-2.242-5.047-4.95-6.282m-2-.94c-1.4-.72-2.393-1.494-2.158-2.723.216-1.125,1.161-1.9,3.031-1.832Zm2.987-4.229h0ZM27.433,33.95l.869-4.529c1.452.729,2.465,1.534,2.224,2.788-.211,1.1-1.171,1.818-3.093,1.741" fill="#7d6eb2"/>
                </g>
              </g>
            </g>
            <path id="Trazado_875105" data-name="Trazado 875105" d="M26.165,35.871l-.55,2.867-2.1-.4.545-2.841A11.41,11.41,0,0,1,18.2,32.167L19.847,29.8a10,10,0,0,0,4.745,2.927l.982-5.119c-2.708-1.235-5.577-2.741-4.895-6.3.5-2.611,2.832-4.525,6.9-4.143l.555-2.892,2.1.4-.545,2.841a11.177,11.177,0,0,1,4.9,2.558l-1.546,2.383a10.793,10.793,0,0,0-3.881-2.177l-.991,5.17c2.708,1.236,5.633,2.726,4.95,6.283-.5,2.611-2.852,4.494-6.949,4.133m0-11.356.874-4.556c-1.871-.067-2.816.707-3.032,1.834-.235,1.228.757,2,2.158,2.722m3.626,6.825c.241-1.254-.773-2.058-2.225-2.788l-.869,4.53c1.923.077,2.883-.641,3.094-1.742" fill="#7d6eb2"/>
            <path id="Trazado_875106" data-name="Trazado 875106" d="M2.067,35.642a1.093,1.093,0,0,1-.085-.232c-.054-.176-.123-.4-.207-.678a11.017,11.017,0,0,1-.284-1.085c-.093-.428-.221-.911-.3-1.457-.044-.273-.091-.558-.139-.854s-.067-.61-.1-.932c-.083-.644-.1-1.337-.135-2.066a29.683,29.683,0,0,1,.3-4.73A29.716,29.716,0,0,1,2.227,19c.248-.686.47-1.343.74-1.934.13-.3.243-.589.375-.859s.262-.528.385-.775c.234-.5.5-.923.713-1.3s.418-.7.592-.953l.4-.586a1.1,1.1,0,0,1,.151-.2,1.272,1.272,0,0,1-.116.219l-.365.606c-.164.26-.359.581-.56.967S4.08,15,3.856,15.5c-.119.248-.242.507-.371.777s-.236.562-.362.859c-.261.59-.476,1.244-.717,1.927a30.878,30.878,0,0,0-1.091,4.58A30.911,30.911,0,0,0,1,28.335c.029.723.041,1.412.116,2.052.032.321.05.632.091.928s.086.58.126.851c.066.545.183,1.028.265,1.456s.169.793.249,1.089.126.509.17.687a1.1,1.1,0,0,1,.046.244" fill="#7d6eb2"/>
            <path id="Trazado_875107" data-name="Trazado 875107" d="M22.018,23.789a1.729,1.729,0,0,1-.481-.7,3.221,3.221,0,0,1,.871-3.8,1.732,1.732,0,0,1,.739-.425c.017.031-.274.178-.643.532a3.344,3.344,0,0,0-.834,3.639c.179.48.377.739.348.759" fill="#7d6eb2"/>
            <path id="Trazado_875108" data-name="Trazado 875108" d="M28.091,16.829a1.878,1.878,0,0,1,.061-.861,1.873,1.873,0,0,1,.262-.822,1.9,1.9,0,0,1-.061.861,1.882,1.882,0,0,1-.262.822" fill="#7d6eb2"/>
            <path id="Trazado_875109" data-name="Trazado 875109" d="M32.943,6.271a4.377,4.377,0,0,1-.653-.152c-.207-.058-.461-.125-.761-.186s-.635-.151-1.015-.207-.792-.14-1.241-.186c-.447-.065-.929-.091-1.434-.129a23.566,23.566,0,0,0-3.3.072,23.567,23.567,0,0,0-3.246.576c-.488.136-.956.256-1.381.408-.431.133-.823.285-1.181.425s-.674.283-.954.4-.518.234-.71.331a4.338,4.338,0,0,1-.61.278,4.013,4.013,0,0,1,.573-.348c.187-.109.419-.236.7-.364s.588-.294.949-.433.748-.311,1.181-.453c.426-.16.9-.287,1.387-.429a22.109,22.109,0,0,1,3.274-.6,22.172,22.172,0,0,1,3.326-.056c.51.043.995.076,1.445.149.451.054.867.134,1.246.212s.718.164,1.016.238.551.151.755.22a4.294,4.294,0,0,1,.631.229" fill="#7d6eb2"/>
            <path id="Trazado_875110" data-name="Trazado 875110" d="M25.793,53.565a2.4,2.4,0,0,1-.5.038c-.325.014-.8.008-1.379-.026a19.809,19.809,0,0,1-8.655-2.6c-.5-.293-.9-.548-1.164-.74a2.479,2.479,0,0,1-.4-.31,2.428,2.428,0,0,1,.443.243c.276.171.683.4,1.192.68a22.144,22.144,0,0,0,8.6,2.586c.576.052,1.045.081,1.369.09a2.45,2.45,0,0,1,.5.042" fill="#7d6eb2"/>
          </g>
        </g>
      </g>
    </g>
    <g id="Grupo_1100644" data-name="Grupo 1100644" transform="translate(955.487 161.176)">
      <g id="Grupo_1100643-2" data-name="Grupo 1100643" clip-path="url(#clip-path-6)">
        <g id="Grupo_1100642-2" data-name="Grupo 1100642">
          <g id="Grupo_1100641-2" data-name="Grupo 1100641" clip-path="url(#clip-path-7)">
            <path id="Trazado_875097-2" data-name="Trazado 875097" d="M54.327,32.576A27.407,27.407,0,1,1,32.575.5a27.408,27.408,0,0,1,21.752,32.08" fill="#fbcf29"/>
            <g id="Grupo_1100631-2" data-name="Grupo 1100631" opacity="0.1">
              <g id="Grupo_1100630-2" data-name="Grupo 1100630">
                <g id="Grupo_1100629-2" data-name="Grupo 1100629" clip-path="url(#clip-path-8)">
                  <path id="Trazado_875098-2" data-name="Trazado 875098" d="M32.575.5A27.405,27.405,0,0,0,.5,22.249s18.751,4.474,24.762-2.27S32.575.5,32.575.5" fill="#fff"/>
                </g>
              </g>
            </g>
            <path id="Trazado_875099-2" data-name="Trazado 875099" d="M47.529,30.829A20.835,20.835,0,1,1,30.993,6.442,20.834,20.834,0,0,1,47.529,30.829" fill="#dbb00b"/>
            <path id="Trazado_875101-2" data-name="Trazado 875101" d="M47.943,31.793A20.555,20.555,0,1,1,31.629,7.733a20.554,20.554,0,0,1,16.314,24.06" fill="#ffd947"/>
            <g id="Grupo_1100637-2" data-name="Grupo 1100637" transform="translate(0 -3.904)" opacity="0.2">
              <g id="Grupo_1100636-2" data-name="Grupo 1100636">
                <g id="Grupo_1100635-2" data-name="Grupo 1100635" clip-path="url(#clip-path-9)">
                  <path id="Trazado_875102-2" data-name="Trazado 875102" d="M47.943,31.793A20.555,20.555,0,1,1,31.629,7.733a20.554,20.554,0,0,1,16.314,24.06" transform="translate(0 4)" fill="#fff"/>
                </g>
              </g>
            </g>
            <path id="Trazado_875103-2" data-name="Trazado 875103" d="M28.9,26.325l.991-5.165.025.005a10.784,10.784,0,0,1,2.608,1.242,8.77,8.77,0,0,1,1.13,1.057l.1-.146L34.9,21.611l.265-.392-.735-1.143-.481.114a9.834,9.834,0,0,0-3.534-1.8l.545-2.84-.748-.883-.137.713-1.214-.233-.554,2.892c-4.066-.382-6.4,1.532-6.9,4.142-.682,3.557,2.186,5.062,4.894,6.3L25.325,33.6a10.007,10.007,0,0,1-4.745-2.926l-1.647,2.363A11.411,11.411,0,0,0,24.8,36.362l-.412,2.145-1-.175.869.87,2.1.4.55-2.866c4.1.361,6.447-1.522,6.948-4.132.682-3.557-2.242-5.047-4.95-6.282m-2-.94c-1.4-.72-2.393-1.494-2.158-2.723.216-1.125,1.161-1.9,3.031-1.832Zm2.987-4.229h0ZM27.433,33.95l.869-4.529c1.452.729,2.465,1.534,2.224,2.788-.211,1.1-1.171,1.818-3.093,1.741" fill="#f0cd47"/>
            <g id="Grupo_1100640-2" data-name="Grupo 1100640" opacity="0.3">
              <g id="Grupo_1100639-2" data-name="Grupo 1100639">
                <g id="Grupo_1100638-2" data-name="Grupo 1100638" clip-path="url(#clip-path-10)">
                  <path id="Trazado_875104-2" data-name="Trazado 875104" d="M28.9,26.325l.991-5.165.025.005a10.784,10.784,0,0,1,2.608,1.242,8.77,8.77,0,0,1,1.13,1.057l.1-.146L34.9,21.611l.265-.392-.735-1.143-.481.114a9.834,9.834,0,0,0-3.534-1.8l.545-2.84-.748-.883-.137.713-1.214-.233-.554,2.892c-4.066-.382-6.4,1.532-6.9,4.142-.682,3.557,2.186,5.062,4.894,6.3L25.325,33.6a10.007,10.007,0,0,1-4.745-2.926l-1.647,2.363A11.411,11.411,0,0,0,24.8,36.362l-.412,2.145-1-.175.869.87,2.1.4.55-2.866c4.1.361,6.447-1.522,6.948-4.132.682-3.557-2.242-5.047-4.95-6.282m-2-.94c-1.4-.72-2.393-1.494-2.158-2.723.216-1.125,1.161-1.9,3.031-1.832Zm2.987-4.229h0ZM27.433,33.95l.869-4.529c1.452.729,2.465,1.534,2.224,2.788-.211,1.1-1.171,1.818-3.093,1.741"/>
                </g>
              </g>
            </g>
            <path id="Trazado_875105-2" data-name="Trazado 875105" d="M26.165,35.871l-.55,2.867-2.1-.4.545-2.841A11.41,11.41,0,0,1,18.2,32.167L19.847,29.8a10,10,0,0,0,4.745,2.927l.982-5.119c-2.708-1.235-5.577-2.741-4.895-6.3.5-2.611,2.832-4.525,6.9-4.143l.555-2.892,2.1.4-.545,2.841a11.177,11.177,0,0,1,4.9,2.558l-1.546,2.383a10.793,10.793,0,0,0-3.881-2.177l-.991,5.17c2.708,1.236,5.633,2.726,4.95,6.283-.5,2.611-2.852,4.494-6.949,4.133m0-11.356.874-4.556c-1.871-.067-2.816.707-3.032,1.834-.235,1.228.757,2,2.158,2.722m3.626,6.825c.241-1.254-.773-2.058-2.225-2.788l-.869,4.53c1.923.077,2.883-.641,3.094-1.742" fill="#fcc903"/>
            <path id="Trazado_875106-2" data-name="Trazado 875106" d="M2.067,35.642a1.093,1.093,0,0,1-.085-.232c-.054-.176-.123-.4-.207-.678a11.017,11.017,0,0,1-.284-1.085c-.093-.428-.221-.911-.3-1.457-.044-.273-.091-.558-.139-.854s-.067-.61-.1-.932c-.083-.644-.1-1.337-.135-2.066a29.683,29.683,0,0,1,.3-4.73A29.716,29.716,0,0,1,2.227,19c.248-.686.47-1.343.74-1.934.13-.3.243-.589.375-.859s.262-.528.385-.775c.234-.5.5-.923.713-1.3s.418-.7.592-.953l.4-.586a1.1,1.1,0,0,1,.151-.2,1.272,1.272,0,0,1-.116.219l-.365.606c-.164.26-.359.581-.56.967S4.08,15,3.856,15.5c-.119.248-.242.507-.371.777s-.236.562-.362.859c-.261.59-.476,1.244-.717,1.927a30.878,30.878,0,0,0-1.091,4.58A30.911,30.911,0,0,0,1,28.335c.029.723.041,1.412.116,2.052.032.321.05.632.091.928s.086.58.126.851c.066.545.183,1.028.265,1.456s.169.793.249,1.089.126.509.17.687a1.1,1.1,0,0,1,.046.244" fill="#fff"/>
            <path id="Trazado_875107-2" data-name="Trazado 875107" d="M22.018,23.789a1.729,1.729,0,0,1-.481-.7,3.221,3.221,0,0,1,.871-3.8,1.732,1.732,0,0,1,.739-.425c.017.031-.274.178-.643.532a3.344,3.344,0,0,0-.834,3.639c.179.48.377.739.348.759" fill="#fff"/>
            <path id="Trazado_875108-2" data-name="Trazado 875108" d="M28.091,16.829a1.878,1.878,0,0,1,.061-.861,1.873,1.873,0,0,1,.262-.822,1.9,1.9,0,0,1-.061.861,1.882,1.882,0,0,1-.262.822" fill="#fff"/>
            <path id="Trazado_875109-2" data-name="Trazado 875109" d="M32.943,6.271a4.377,4.377,0,0,1-.653-.152c-.207-.058-.461-.125-.761-.186s-.635-.151-1.015-.207-.792-.14-1.241-.186c-.447-.065-.929-.091-1.434-.129a23.566,23.566,0,0,0-3.3.072,23.567,23.567,0,0,0-3.246.576c-.488.136-.956.256-1.381.408-.431.133-.823.285-1.181.425s-.674.283-.954.4-.518.234-.71.331a4.338,4.338,0,0,1-.61.278,4.013,4.013,0,0,1,.573-.348c.187-.109.419-.236.7-.364s.588-.294.949-.433.748-.311,1.181-.453c.426-.16.9-.287,1.387-.429a22.109,22.109,0,0,1,3.274-.6,22.172,22.172,0,0,1,3.326-.056c.51.043.995.076,1.445.149.451.054.867.134,1.246.212s.718.164,1.016.238.551.151.755.22a4.294,4.294,0,0,1,.631.229" fill="#fff"/>
            <path id="Trazado_875110-2" data-name="Trazado 875110" d="M25.793,53.565a2.4,2.4,0,0,1-.5.038c-.325.014-.8.008-1.379-.026a19.809,19.809,0,0,1-8.655-2.6c-.5-.293-.9-.548-1.164-.74a2.479,2.479,0,0,1-.4-.31,2.428,2.428,0,0,1,.443.243c.276.171.683.4,1.192.68a22.144,22.144,0,0,0,8.6,2.586c.576.052,1.045.081,1.369.09a2.45,2.45,0,0,1,.5.042" fill="#fff"/>
          </g>
        </g>
      </g>
    </g>
  </g>
</svg>
