<svg xmlns="http://www.w3.org/2000/svg" xmlns:xlink="http://www.w3.org/1999/xlink" width="1240" height="409" viewBox="0 0 1240 409">
  <defs>
    <clipPath id="clip-path">
      <rect id="Rectángulo_401771" data-name="Rectángulo 401771" width="1240" height="409" transform="translate(180 4566)" fill="#aee6e6" opacity="0.2"/>
    </clipPath>
    <clipPath id="clip-path-2">
      <rect id="Rectángulo_401770" data-name="Rectángulo 401770" width="50.273" height="97.492" transform="translate(89.383 86.637) rotate(152.705)" fill="none" stroke="#7d6eb2" stroke-width="1"/>
    </clipPath>
  </defs>
  <g id="Grupo_1100581" data-name="Grupo 1100581" transform="translate(-180 -4566)">
    <rect id="Rectángulo_30569" data-name="Rectángulo 30569" width="1240" height="409" transform="translate(180 4566)" fill="#aee6e6" opacity="0.2"/>
    <g id="Enmascarar_grupo_1098688" data-name="Enmascarar grupo 1098688" clip-path="url(#clip-path)">
      <g id="Grupo_1100580" data-name="Grupo 1100580" transform="translate(159.235 4551)">
        <g id="Grupo_1100574" data-name="Grupo 1100574" transform="matrix(0.469, -0.883, 0.883, 0.469, 20.765, 412.386)">
          <g id="Grupo_1100573" data-name="Grupo 1100573" transform="translate(0 0)" clip-path="url(#clip-path-2)">
            <g id="Grupo_1100572" data-name="Grupo 1100572" transform="translate(-35.826 7.987)">
              <circle id="Elipse_11544" data-name="Elipse 11544" cx="46.581" cy="46.581" r="46.581" transform="translate(0 26.653) rotate(-16.624)" fill="none" stroke="#7d6eb2" stroke-miterlimit="10" stroke-width="2"/>
              <circle id="Elipse_11545" data-name="Elipse 11545" cx="41.459" cy="41.459" r="41.459" transform="translate(13.065 95.671) rotate(-85.029)" fill="none" stroke="#7d6eb2" stroke-miterlimit="10" stroke-width="2"/>
              <circle id="Elipse_11546" data-name="Elipse 11546" cx="36.337" cy="36.337" r="36.337" transform="matrix(0.14, -0.99, 0.99, 0.14, 16.882, 88.836)" fill="none" stroke="#7d6eb2" stroke-miterlimit="10" stroke-width="2"/>
              <circle id="Elipse_11547" data-name="Elipse 11547" cx="31.215" cy="31.215" r="31.215" transform="translate(26.745 26.745)" fill="none" stroke="#7d6eb2" stroke-miterlimit="10" stroke-width="2"/>
              <circle id="Elipse_11548" data-name="Elipse 11548" cx="26.093" cy="26.093" r="26.093" transform="translate(29.152 34.9) rotate(-6.323)" fill="none" stroke="#7d6eb2" stroke-miterlimit="10" stroke-width="2"/>
              <path id="Trazado_874964" data-name="Trazado 874964" d="M20.971,0A20.971,20.971,0,1,1,0,20.971,20.971,20.971,0,0,1,20.971,0Z" transform="translate(28.679 62.671) rotate(-54.14)" fill="none" stroke="#7d6eb2" stroke-width="2"/>
              <circle id="Elipse_11549" data-name="Elipse 11549" cx="15.849" cy="15.849" r="15.849" transform="matrix(0.495, -0.869, 0.869, 0.495, 36.346, 63.895)" fill="none" stroke="#7d6eb2" stroke-miterlimit="10" stroke-width="2"/>
              <circle id="Elipse_11550" data-name="Elipse 11550" cx="10.727" cy="10.727" r="10.727" transform="translate(44.132 51.722) rotate(-20.72)" fill="none" stroke="#7d6eb2" stroke-miterlimit="10" stroke-width="2"/>
              <path id="Trazado_874965" data-name="Trazado 874965" d="M.626,8.177a5.605,5.605,0,1,1,7.551,2.41A5.606,5.606,0,0,1,.626,8.177Z" transform="translate(52.354 52.354)" fill="none" stroke="#7d6eb2" stroke-miterlimit="10" stroke-width="2"/>
            </g>
          </g>
        </g>
        <g id="Grupo_1100579" data-name="Grupo 1100579" transform="translate(1175.765 29.144)">
          <g id="Grupo_1100575" data-name="Grupo 1100575" transform="translate(0 0)">
            <path id="Trazado_874966" data-name="Trazado 874966" d="M640.186,391.326c4.705,0,4.705,2.824,9.41,2.824s4.705-2.824,9.41-2.824,4.7,2.824,9.407,2.824,4.7-2.824,9.41-2.824,4.705,2.824,9.411,2.824,4.705-2.824,9.409-2.824,4.705,2.824,9.41,2.824,4.705-2.824,9.411-2.824,4.707,2.824,9.412,2.824,4.706-2.824,9.411-2.824,4.706,2.824,9.412,2.824,4.707-2.824,9.412-2.824,4.7,2.824,9.409,2.824,4.706-2.824,9.411-2.824,4.707,2.824,9.414,2.824,4.706-2.824,9.412-2.824,4.709,2.824,9.419,2.824,4.709-2.824,9.418-2.824" transform="translate(-640.186 -391.326)" fill="none" stroke="#26aab7" stroke-miterlimit="10" stroke-width="2"/>
          </g>
          <g id="Grupo_1100576" data-name="Grupo 1100576" transform="translate(0 12.165)">
            <path id="Trazado_874967" data-name="Trazado 874967" d="M640.186,408.556c4.705,0,4.705,2.824,9.41,2.824s4.705-2.824,9.41-2.824,4.7,2.824,9.407,2.824,4.7-2.824,9.41-2.824,4.705,2.824,9.411,2.824,4.705-2.824,9.409-2.824,4.705,2.824,9.41,2.824,4.705-2.824,9.411-2.824,4.707,2.824,9.412,2.824,4.706-2.824,9.411-2.824,4.706,2.824,9.412,2.824,4.707-2.824,9.412-2.824,4.7,2.824,9.409,2.824,4.706-2.824,9.411-2.824,4.707,2.824,9.414,2.824,4.706-2.824,9.412-2.824,4.709,2.824,9.419,2.824,4.709-2.824,9.418-2.824" transform="translate(-640.186 -408.556)" fill="none" stroke="#26aab7" stroke-miterlimit="10" stroke-width="2"/>
          </g>
          <g id="Grupo_1100577" data-name="Grupo 1100577" transform="translate(0 24.33)">
            <path id="Trazado_874968" data-name="Trazado 874968" d="M640.186,425.786c4.705,0,4.705,2.824,9.41,2.824s4.705-2.824,9.41-2.824,4.7,2.824,9.407,2.824,4.7-2.824,9.41-2.824,4.705,2.824,9.411,2.824,4.705-2.824,9.409-2.824,4.705,2.824,9.41,2.824,4.705-2.824,9.411-2.824,4.707,2.824,9.412,2.824,4.706-2.824,9.411-2.824,4.706,2.824,9.412,2.824,4.707-2.824,9.412-2.824,4.7,2.824,9.409,2.824,4.706-2.824,9.411-2.824,4.707,2.824,9.414,2.824,4.706-2.824,9.412-2.824,4.709,2.824,9.419,2.824,4.709-2.824,9.418-2.824" transform="translate(-640.186 -425.786)" fill="none" stroke="#26aab7" stroke-miterlimit="10" stroke-width="2"/>
          </g>
          <g id="Grupo_1100578" data-name="Grupo 1100578" transform="translate(0 36.496)">
            <path id="Trazado_874969" data-name="Trazado 874969" d="M640.186,443.016c4.705,0,4.705,2.824,9.41,2.824s4.705-2.824,9.41-2.824,4.7,2.824,9.407,2.824,4.7-2.824,9.41-2.824,4.705,2.824,9.411,2.824,4.705-2.824,9.409-2.824,4.705,2.824,9.41,2.824,4.705-2.824,9.411-2.824,4.707,2.824,9.412,2.824,4.706-2.824,9.411-2.824,4.706,2.824,9.412,2.824,4.707-2.824,9.412-2.824,4.7,2.824,9.409,2.824,4.706-2.824,9.411-2.824,4.707,2.824,9.414,2.824,4.706-2.824,9.412-2.824,4.709,2.824,9.419,2.824,4.709-2.824,9.418-2.824" transform="translate(-640.186 -443.016)" fill="none" stroke="#26aab7" stroke-miterlimit="10" stroke-width="2"/>
          </g>
        </g>
        <path id="Trazado_874970" data-name="Trazado 874970" d="M45.44,125.564c-.547,0-7.384-.443-7.384-.99a.99.99,0,1,1,1.98,0C40.036,125.121,45.986,125.564,45.44,125.564Zm-6.394-4.276a.99.99,0,1,1,.99-.99A.99.99,0,0,1,39.046,121.288Zm0-4.276a.99.99,0,1,1,.99-.99A.99.99,0,0,1,39.046,117.012Zm0-4.276a.99.99,0,1,1,.99-.99A.99.99,0,0,1,39.046,112.735Zm0-4.276a.99.99,0,1,1,.99-.99A.99.99,0,0,1,39.046,108.459Zm0-4.276a.99.99,0,1,1,.99-.99A.99.99,0,0,1,39.046,104.182Zm0-4.276a.99.99,0,1,1,.99-.99A.99.99,0,0,1,39.046,99.906Zm0-4.276a.99.99,0,1,1,.99-.99A.99.99,0,0,1,39.046,95.629Zm4.276,42.764a.99.99,0,1,1,.99-.99A.99.99,0,0,1,43.322,138.394Zm0-4.276a.99.99,0,1,1,.99-.99A.99.99,0,0,1,43.322,134.117Zm0-4.276a.99.99,0,1,1,.99-.99A.99.99,0,0,1,43.322,129.841Zm0-4.276a.99.99,0,1,1,.99-.99A.99.99,0,0,1,43.322,125.564Zm0-4.276a.99.99,0,1,1,.99-.99A.99.99,0,0,1,43.322,121.288Zm0-4.276a.99.99,0,1,1,.99-.99A.99.99,0,0,1,43.322,117.012Zm0-4.276a.99.99,0,1,1,.99-.99A.99.99,0,0,1,43.322,112.735Zm0-4.276a.99.99,0,1,1,.99-.99A.99.99,0,0,1,43.322,108.459Zm0-4.276a.99.99,0,1,1,.99-.99A.99.99,0,0,1,43.322,104.182Zm0-4.276a.99.99,0,1,1,.99-.99A.99.99,0,0,1,43.322,99.906Zm0-4.276a.99.99,0,1,1,.99-.99A.99.99,0,0,1,43.322,95.629Zm0-4.276a.99.99,0,1,1,.99-.99A.99.99,0,0,1,43.322,91.353Zm0-4.276a.99.99,0,1,1,.99-.99A.99.99,0,0,1,43.322,87.077Zm0-4.276a.99.99,0,1,1,.99-.99A.99.99,0,0,1,43.322,82.8ZM47.6,146.947a.99.99,0,1,1,.99-.99A.99.99,0,0,1,47.6,146.947Zm0-4.276a.99.99,0,1,1,.99-.99A.99.99,0,0,1,47.6,142.67Zm0-4.276a.99.99,0,1,1,.99-.99A.99.99,0,0,1,47.6,138.394Zm0-4.276a.99.99,0,1,1,.99-.99A.99.99,0,0,1,47.6,134.117Zm0-4.276a.99.99,0,1,1,.99-.99A.99.99,0,0,1,47.6,129.841Zm0-4.276a.99.99,0,1,1,.99-.99A.99.99,0,0,1,47.6,125.564Zm0-4.276a.99.99,0,1,1,.99-.99A.99.99,0,0,1,47.6,121.288Zm0-4.276a.99.99,0,1,1,.99-.99A.99.99,0,0,1,47.6,117.012Zm0-4.276a.99.99,0,1,1,.99-.99A.99.99,0,0,1,47.6,112.735Zm0-4.276a.99.99,0,1,1,.99-.99A.99.99,0,0,1,47.6,108.459Zm0-4.276a.99.99,0,1,1,.99-.99A.99.99,0,0,1,47.6,104.182Zm0-4.276a.99.99,0,1,1,.99-.99A.99.99,0,0,1,47.6,99.906Zm0-4.276a.99.99,0,1,1,.99-.99A.99.99,0,0,1,47.6,95.629Zm0-4.276a.99.99,0,1,1,.99-.99A.99.99,0,0,1,47.6,91.353Zm0-4.276a.99.99,0,1,1,.99-.99A.99.99,0,0,1,47.6,87.077Zm0-4.276a.99.99,0,1,1,.99-.99A.99.99,0,0,1,47.6,82.8Zm0-4.276a.99.99,0,1,1,.99-.99A.99.99,0,0,1,47.6,78.524Zm0-4.276a.99.99,0,1,1,.99-.99A.99.99,0,0,1,47.6,74.247Zm4.276,76.976a.99.99,0,1,1,.99-.99A.99.99,0,0,1,51.875,151.223Zm0-4.276a.99.99,0,1,1,.99-.99A.99.99,0,0,1,51.875,146.947Zm0-4.276a.99.99,0,1,1,.99-.99A.99.99,0,0,1,51.875,142.67Zm0-4.276a.99.99,0,1,1,.99-.99A.99.99,0,0,1,51.875,138.394Zm0-4.276a.99.99,0,1,1,.99-.99A.99.99,0,0,1,51.875,134.117Zm0-4.276a.99.99,0,1,1,.99-.99A.99.99,0,0,1,51.875,129.841Zm0-4.276a.99.99,0,1,1,.99-.99A.99.99,0,0,1,51.875,125.564Zm0-4.276a.99.99,0,1,1,.99-.99A.99.99,0,0,1,51.875,121.288Zm0-4.276a.99.99,0,1,1,.99-.99A.99.99,0,0,1,51.875,117.012Zm0-4.276a.99.99,0,1,1,.99-.99A.99.99,0,0,1,51.875,112.735Zm0-4.276a.99.99,0,1,1,.99-.99A.99.99,0,0,1,51.875,108.459Zm0-4.276a.99.99,0,1,1,.99-.99A.99.99,0,0,1,51.875,104.182Zm0-4.276a.99.99,0,1,1,.99-.99A.99.99,0,0,1,51.875,99.906Zm0-4.276a.99.99,0,1,1,.99-.99A.99.99,0,0,1,51.875,95.629Zm0-4.276a.99.99,0,1,1,.99-.99A.99.99,0,0,1,51.875,91.353Zm0-4.276a.99.99,0,1,1,.99-.99A.99.99,0,0,1,51.875,87.077Zm0-4.276a.99.99,0,1,1,.99-.99A.99.99,0,0,1,51.875,82.8Zm0-4.276a.99.99,0,1,1,.99-.99A.99.99,0,0,1,51.875,78.524Zm0-4.276a.99.99,0,1,1,.99-.99A.99.99,0,0,1,51.875,74.247Zm0-4.276a.99.99,0,1,1,.99-.99A.99.99,0,0,1,51.875,69.971Zm4.276,89.805a.99.99,0,1,1,.99-.99A.99.99,0,0,1,56.152,159.776Zm0-4.276a.99.99,0,1,1,.99-.99A.99.99,0,0,1,56.152,155.5Zm0-4.276a.99.99,0,1,1,.99-.99A.99.99,0,0,1,56.152,151.223Zm0-4.276a.99.99,0,1,1,.99-.99A.99.99,0,0,1,56.152,146.947Zm0-4.276a.99.99,0,1,1,.99-.99A.99.99,0,0,1,56.152,142.67Zm0-4.276a.99.99,0,1,1,.99-.99A.99.99,0,0,1,56.152,138.394Zm0-4.276a.99.99,0,1,1,.99-.99A.99.99,0,0,1,56.152,134.117Zm0-4.276a.99.99,0,1,1,.99-.99A.99.99,0,0,1,56.152,129.841Zm0-4.276a.99.99,0,1,1,.99-.99A.99.99,0,0,1,56.152,125.564Zm0-4.276a.99.99,0,1,1,.99-.99A.99.99,0,0,1,56.152,121.288Zm0-4.276a.99.99,0,1,1,.99-.99A.99.99,0,0,1,56.152,117.012Zm0-4.276a.99.99,0,1,1,.99-.99A.99.99,0,0,1,56.152,112.735Zm0-4.276a.99.99,0,1,1,.99-.99A.99.99,0,0,1,56.152,108.459Zm0-4.276a.99.99,0,1,1,.99-.99A.99.99,0,0,1,56.152,104.182Zm0-4.276a.99.99,0,1,1,.99-.99A.99.99,0,0,1,56.152,99.906Zm0-4.276a.99.99,0,1,1,.99-.99A.99.99,0,0,1,56.152,95.629Zm0-4.276a.99.99,0,1,1,.99-.99A.99.99,0,0,1,56.152,91.353Zm0-4.276a.99.99,0,1,1,.99-.99A.99.99,0,0,1,56.152,87.077Zm0-4.276a.99.99,0,1,1,.99-.99A.99.99,0,0,1,56.152,82.8Zm0-4.276a.99.99,0,1,1,.99-.99A.99.99,0,0,1,56.152,78.524Zm0-4.276a.99.99,0,1,1,.99-.99A.99.99,0,0,1,56.152,74.247Zm0-4.276a.99.99,0,1,1,.99-.99A.99.99,0,0,1,56.152,69.971Zm0-4.276a.99.99,0,1,1,.99-.99A.99.99,0,0,1,56.152,65.694Zm0-4.276a.99.99,0,1,1,.99-.99A.99.99,0,0,1,56.152,61.418Zm4.276,102.634a.99.99,0,1,1,.99-.99A.99.99,0,0,1,60.428,164.052Zm0-4.276a.99.99,0,1,1,.99-.99A.99.99,0,0,1,60.428,159.776Zm0-4.276a.99.99,0,1,1,.99-.99A.99.99,0,0,1,60.428,155.5Zm0-4.276a.99.99,0,1,1,.99-.99A.99.99,0,0,1,60.428,151.223Zm0-4.276a.99.99,0,1,1,.99-.99A.99.99,0,0,1,60.428,146.947Zm0-4.276a.99.99,0,1,1,.99-.99A.99.99,0,0,1,60.428,142.67Zm0-4.276a.99.99,0,1,1,.99-.99A.99.99,0,0,1,60.428,138.394Zm0-4.276a.99.99,0,1,1,.99-.99A.99.99,0,0,1,60.428,134.117Zm0-4.276a.99.99,0,1,1,.99-.99A.99.99,0,0,1,60.428,129.841Zm0-4.276a.99.99,0,1,1,.99-.99A.99.99,0,0,1,60.428,125.564Zm0-4.276a.99.99,0,1,1,.99-.99A.99.99,0,0,1,60.428,121.288Zm0-4.276a.99.99,0,1,1,.99-.99A.99.99,0,0,1,60.428,117.012Zm0-4.276a.99.99,0,1,1,.99-.99A.99.99,0,0,1,60.428,112.735Zm0-4.276a.99.99,0,1,1,.99-.99A.99.99,0,0,1,60.428,108.459Zm0-4.276a.99.99,0,1,1,.99-.99A.99.99,0,0,1,60.428,104.182Zm0-4.276a.99.99,0,1,1,.99-.99A.99.99,0,0,1,60.428,99.906Zm0-4.276a.99.99,0,1,1,.99-.99A.99.99,0,0,1,60.428,95.629Zm0-4.276a.99.99,0,1,1,.99-.99A.99.99,0,0,1,60.428,91.353Zm0-4.276a.99.99,0,1,1,.99-.99A.99.99,0,0,1,60.428,87.077Zm0-4.276a.99.99,0,1,1,.99-.99A.99.99,0,0,1,60.428,82.8Zm0-4.276a.99.99,0,1,1,.99-.99A.99.99,0,0,1,60.428,78.524Zm0-4.276a.99.99,0,1,1,.99-.99A.99.99,0,0,1,60.428,74.247Zm0-4.276a.99.99,0,1,1,.99-.99A.99.99,0,0,1,60.428,69.971Zm0-4.276a.99.99,0,1,1,.99-.99A.99.99,0,0,1,60.428,65.694Zm0-4.276a.99.99,0,1,1,.99-.99A.99.99,0,0,1,60.428,61.418Zm0-4.276a.99.99,0,1,1,.99-.99A.99.99,0,0,1,60.428,57.141ZM64.7,164.052a.99.99,0,1,1,.99-.99A.99.99,0,0,1,64.7,164.052Zm0-4.276a.99.99,0,1,1,.99-.99A.99.99,0,0,1,64.7,159.776Zm0-4.276a.99.99,0,1,1,.99-.99A.99.99,0,0,1,64.7,155.5Zm0-4.276a.99.99,0,1,1,.99-.99A.99.99,0,0,1,64.7,151.223Zm0-4.276a.99.99,0,1,1,.99-.99A.99.99,0,0,1,64.7,146.947Zm0-4.276a.99.99,0,1,1,.99-.99A.99.99,0,0,1,64.7,142.67Zm0-4.276a.99.99,0,1,1,.99-.99A.99.99,0,0,1,64.7,138.394Zm0-4.276a.99.99,0,1,1,.99-.99A.99.99,0,0,1,64.7,134.117Zm0-4.276a.99.99,0,1,1,.99-.99A.99.99,0,0,1,64.7,129.841Zm0-4.276a.99.99,0,1,1,.99-.99A.99.99,0,0,1,64.7,125.564Zm0-4.276a.99.99,0,1,1,.99-.99A.99.99,0,0,1,64.7,121.288Zm0-4.276a.99.99,0,1,1,.99-.99A.99.99,0,0,1,64.7,117.012Zm0-4.276a.99.99,0,1,1,.99-.99A.99.99,0,0,1,64.7,112.735Zm0-4.276a.99.99,0,1,1,.99-.99A.99.99,0,0,1,64.7,108.459Zm0-4.276a.99.99,0,1,1,.99-.99A.99.99,0,0,1,64.7,104.182Zm0-4.276a.99.99,0,1,1,.99-.99A.99.99,0,0,1,64.7,99.906Zm0-4.276a.99.99,0,1,1,.99-.99A.99.99,0,0,1,64.7,95.629Zm0-4.276a.99.99,0,1,1,.99-.99A.99.99,0,0,1,64.7,91.353Zm0-4.276a.99.99,0,1,1,.99-.99A.99.99,0,0,1,64.7,87.077Zm0-4.276a.99.99,0,1,1,.99-.99A.99.99,0,0,1,64.7,82.8Zm0-4.276a.99.99,0,1,1,.99-.99A.99.99,0,0,1,64.7,78.524Zm0-4.276a.99.99,0,1,1,.99-.99A.99.99,0,0,1,64.7,74.247Zm0-4.276a.99.99,0,1,1,.99-.99A.99.99,0,0,1,64.7,69.971Zm0-4.276a.99.99,0,1,1,.99-.99A.99.99,0,0,1,64.7,65.694Zm0-4.276a.99.99,0,1,1,.99-.99A.99.99,0,0,1,64.7,61.418Zm0-4.276a.99.99,0,1,1,.99-.99A.99.99,0,0,1,64.7,57.141Zm4.276,111.187a.99.99,0,1,1,.99-.99A.99.99,0,0,1,68.981,168.329Zm0-4.276a.99.99,0,1,1,.99-.99A.99.99,0,0,1,68.981,164.052Zm0-4.276a.99.99,0,1,1,.99-.99A.99.99,0,0,1,68.981,159.776Zm0-4.276a.99.99,0,1,1,.99-.99A.99.99,0,0,1,68.981,155.5Zm0-4.276a.99.99,0,1,1,.99-.99A.99.99,0,0,1,68.981,151.223Zm0-4.276a.99.99,0,1,1,.99-.99A.99.99,0,0,1,68.981,146.947Zm0-4.276a.99.99,0,1,1,.99-.99A.99.99,0,0,1,68.981,142.67Zm0-4.276a.99.99,0,1,1,.99-.99A.99.99,0,0,1,68.981,138.394Zm0-4.276a.99.99,0,1,1,.99-.99A.99.99,0,0,1,68.981,134.117Zm0-4.276a.99.99,0,1,1,.99-.99A.99.99,0,0,1,68.981,129.841Zm0-4.276a.99.99,0,1,1,.99-.99A.99.99,0,0,1,68.981,125.564Zm0-4.276a.99.99,0,1,1,.99-.99A.99.99,0,0,1,68.981,121.288Zm0-4.276a.99.99,0,1,1,.99-.99A.99.99,0,0,1,68.981,117.012Zm0-4.276a.99.99,0,1,1,.99-.99A.99.99,0,0,1,68.981,112.735Zm0-4.276a.99.99,0,1,1,.99-.99A.99.99,0,0,1,68.981,108.459Zm0-4.276a.99.99,0,1,1,.99-.99A.99.99,0,0,1,68.981,104.182Zm0-4.276a.99.99,0,1,1,.99-.99A.99.99,0,0,1,68.981,99.906Zm0-4.276a.99.99,0,1,1,.99-.99A.99.99,0,0,1,68.981,95.629Zm0-4.276a.99.99,0,1,1,.99-.99A.99.99,0,0,1,68.981,91.353Zm0-4.276a.99.99,0,1,1,.99-.99A.99.99,0,0,1,68.981,87.077Zm0-4.276a.99.99,0,1,1,.99-.99A.99.99,0,0,1,68.981,82.8Zm0-4.276a.99.99,0,1,1,.99-.99A.99.99,0,0,1,68.981,78.524Zm0-4.276a.99.99,0,1,1,.99-.99A.99.99,0,0,1,68.981,74.247Zm0-4.276a.99.99,0,1,1,.99-.99A.99.99,0,0,1,68.981,69.971Zm0-4.276a.99.99,0,1,1,.99-.99A.99.99,0,0,1,68.981,65.694Zm0-4.276a.99.99,0,1,1,.99-.99A.99.99,0,0,1,68.981,61.418Zm0-4.276a.99.99,0,1,1,.99-.99A.99.99,0,0,1,68.981,57.141Zm0-4.276a.99.99,0,1,1,.99-.99A.99.99,0,0,1,68.981,52.865Zm4.276,119.74a.99.99,0,1,1,.99-.99A.99.99,0,0,1,73.257,172.605Zm0-4.276a.99.99,0,1,1,.99-.99A.99.99,0,0,1,73.257,168.329Zm0-4.276a.99.99,0,1,1,.99-.99A.99.99,0,0,1,73.257,164.052Zm0-4.276a.99.99,0,1,1,.99-.99A.99.99,0,0,1,73.257,159.776Zm0-4.276a.99.99,0,1,1,.99-.99A.99.99,0,0,1,73.257,155.5Zm0-4.276a.99.99,0,1,1,.99-.99A.99.99,0,0,1,73.257,151.223Zm0-4.276a.99.99,0,1,1,.99-.99A.99.99,0,0,1,73.257,146.947Zm0-4.276a.99.99,0,1,1,.99-.99A.99.99,0,0,1,73.257,142.67Zm0-4.276a.99.99,0,1,1,.99-.99A.99.99,0,0,1,73.257,138.394Zm0-4.276a.99.99,0,1,1,.99-.99A.99.99,0,0,1,73.257,134.117Zm0-4.276a.99.99,0,1,1,.99-.99A.99.99,0,0,1,73.257,129.841Zm0-4.276a.99.99,0,1,1,.99-.99A.99.99,0,0,1,73.257,125.564Zm0-4.276a.99.99,0,1,1,.99-.99A.99.99,0,0,1,73.257,121.288Zm0-4.276a.99.99,0,1,1,.99-.99A.99.99,0,0,1,73.257,117.012Zm0-4.276a.99.99,0,1,1,.99-.99A.99.99,0,0,1,73.257,112.735Zm0-4.276a.99.99,0,1,1,.99-.99A.99.99,0,0,1,73.257,108.459Zm0-4.276a.99.99,0,1,1,.99-.99A.99.99,0,0,1,73.257,104.182Zm0-4.276a.99.99,0,1,1,.99-.99A.99.99,0,0,1,73.257,99.906Zm0-4.276a.99.99,0,1,1,.99-.99A.99.99,0,0,1,73.257,95.629Zm0-4.276a.99.99,0,1,1,.99-.99A.99.99,0,0,1,73.257,91.353Zm0-4.276a.99.99,0,1,1,.99-.99A.99.99,0,0,1,73.257,87.077Zm0-4.276a.99.99,0,1,1,.99-.99A.99.99,0,0,1,73.257,82.8Zm0-4.276a.99.99,0,1,1,.99-.99A.99.99,0,0,1,73.257,78.524Zm0-4.276a.99.99,0,1,1,.99-.99A.99.99,0,0,1,73.257,74.247Zm0-4.276a.99.99,0,1,1,.99-.99A.99.99,0,0,1,73.257,69.971Zm0-4.276a.99.99,0,1,1,.99-.99A.99.99,0,0,1,73.257,65.694Zm0-4.276a.99.99,0,1,1,.99-.99A.99.99,0,0,1,73.257,61.418Zm0-4.276a.99.99,0,1,1,.99-.99A.99.99,0,0,1,73.257,57.141Zm0-4.276a.99.99,0,1,1,.99-.99A.99.99,0,0,1,73.257,52.865Zm0-4.276a.99.99,0,1,1,.99-.99A.99.99,0,0,1,73.257,48.589Zm4.276,124.017a.99.99,0,1,1,.99-.99A.99.99,0,0,1,77.534,172.605Zm0-4.276a.99.99,0,1,1,.99-.99A.99.99,0,0,1,77.534,168.329Zm0-4.276a.99.99,0,1,1,.99-.99A.99.99,0,0,1,77.534,164.052Zm0-4.276a.99.99,0,1,1,.99-.99A.99.99,0,0,1,77.534,159.776Zm0-4.276a.99.99,0,1,1,.99-.99A.99.99,0,0,1,77.534,155.5Zm0-4.276a.99.99,0,1,1,.99-.99A.99.99,0,0,1,77.534,151.223Zm0-4.276a.99.99,0,1,1,.99-.99A.99.99,0,0,1,77.534,146.947Zm0-4.276a.99.99,0,1,1,.99-.99A.99.99,0,0,1,77.534,142.67Zm0-4.276a.99.99,0,1,1,.99-.99A.99.99,0,0,1,77.534,138.394Zm0-4.276a.99.99,0,1,1,.99-.99A.99.99,0,0,1,77.534,134.117Zm0-4.276a.99.99,0,1,1,.99-.99A.99.99,0,0,1,77.534,129.841Zm0-4.276a.99.99,0,1,1,.99-.99A.99.99,0,0,1,77.534,125.564Zm0-4.276a.99.99,0,1,1,.99-.99A.99.99,0,0,1,77.534,121.288Zm0-4.276a.99.99,0,1,1,.99-.99A.99.99,0,0,1,77.534,117.012Zm0-4.276a.99.99,0,1,1,.99-.99A.99.99,0,0,1,77.534,112.735Zm0-4.276a.99.99,0,1,1,.99-.99A.99.99,0,0,1,77.534,108.459Zm0-4.276a.99.99,0,1,1,.99-.99A.99.99,0,0,1,77.534,104.182Zm0-4.276a.99.99,0,1,1,.99-.99A.99.99,0,0,1,77.534,99.906Zm0-4.276a.99.99,0,1,1,.99-.99A.99.99,0,0,1,77.534,95.629Zm0-4.276a.99.99,0,1,1,.99-.99A.99.99,0,0,1,77.534,91.353Zm0-4.276a.99.99,0,1,1,.99-.99A.99.99,0,0,1,77.534,87.077Zm0-4.276a.99.99,0,1,1,.99-.99A.99.99,0,0,1,77.534,82.8Zm0-4.276a.99.99,0,1,1,.99-.99A.99.99,0,0,1,77.534,78.524Zm0-4.276a.99.99,0,1,1,.99-.99A.99.99,0,0,1,77.534,74.247Zm0-4.276a.99.99,0,1,1,.99-.99A.99.99,0,0,1,77.534,69.971Zm0-4.276a.99.99,0,1,1,.99-.99A.99.99,0,0,1,77.534,65.694Zm0-4.276a.99.99,0,1,1,.99-.99A.99.99,0,0,1,77.534,61.418Zm0-4.276a.99.99,0,1,1,.99-.99A.99.99,0,0,1,77.534,57.141Zm0-4.276a.99.99,0,1,1,.99-.99A.99.99,0,0,1,77.534,52.865Zm0-4.276a.99.99,0,1,1,.99-.99A.99.99,0,0,1,77.534,48.589ZM81.81,176.882a.99.99,0,1,1,.99-.99A.99.99,0,0,1,81.81,176.882Zm0-4.276a.99.99,0,1,1,.99-.99A.99.99,0,0,1,81.81,172.605Zm0-4.276a.99.99,0,1,1,.99-.99A.99.99,0,0,1,81.81,168.329Zm0-4.276a.99.99,0,1,1,.99-.99A.99.99,0,0,1,81.81,164.052Zm0-4.276a.99.99,0,1,1,.99-.99A.99.99,0,0,1,81.81,159.776Zm0-4.276a.99.99,0,1,1,.99-.99A.99.99,0,0,1,81.81,155.5Zm0-4.276a.99.99,0,1,1,.99-.99A.99.99,0,0,1,81.81,151.223Zm0-4.276a.99.99,0,1,1,.99-.99A.99.99,0,0,1,81.81,146.947Zm0-4.276a.99.99,0,1,1,.99-.99A.99.99,0,0,1,81.81,142.67Zm0-4.276a.99.99,0,1,1,.99-.99A.99.99,0,0,1,81.81,138.394Zm0-4.276a.99.99,0,1,1,.99-.99A.99.99,0,0,1,81.81,134.117Zm0-4.276a.99.99,0,1,1,.99-.99A.99.99,0,0,1,81.81,129.841Zm0-4.276a.99.99,0,1,1,.99-.99A.99.99,0,0,1,81.81,125.564Zm0-4.276a.99.99,0,1,1,.99-.99A.99.99,0,0,1,81.81,121.288Zm0-4.276a.99.99,0,1,1,.99-.99A.99.99,0,0,1,81.81,117.012Zm0-4.276a.99.99,0,1,1,.99-.99A.99.99,0,0,1,81.81,112.735Zm0-4.276a.99.99,0,1,1,.99-.99A.99.99,0,0,1,81.81,108.459Zm0-4.276a.99.99,0,1,1,.99-.99A.99.99,0,0,1,81.81,104.182Zm0-4.276a.99.99,0,1,1,.99-.99A.99.99,0,0,1,81.81,99.906Zm0-4.276a.99.99,0,1,1,.99-.99A.99.99,0,0,1,81.81,95.629Zm0-4.276a.99.99,0,1,1,.99-.99A.99.99,0,0,1,81.81,91.353Zm0-4.276a.99.99,0,1,1,.99-.99A.99.99,0,0,1,81.81,87.077Zm0-4.276a.99.99,0,1,1,.99-.99A.99.99,0,0,1,81.81,82.8Zm0-4.276a.99.99,0,1,1,.99-.99A.99.99,0,0,1,81.81,78.524Zm0-4.276a.99.99,0,1,1,.99-.99A.99.99,0,0,1,81.81,74.247Zm0-4.276a.99.99,0,1,1,.99-.99A.99.99,0,0,1,81.81,69.971Zm0-4.276a.99.99,0,1,1,.99-.99A.99.99,0,0,1,81.81,65.694Zm0-4.276a.99.99,0,1,1,.99-.99A.99.99,0,0,1,81.81,61.418Zm0-4.276a.99.99,0,1,1,.99-.99A.99.99,0,0,1,81.81,57.141Zm0-4.276a.99.99,0,1,1,.99-.99A.99.99,0,0,1,81.81,52.865Zm0-4.276a.99.99,0,1,1,.99-.99A.99.99,0,0,1,81.81,48.589Zm0-4.276a.99.99,0,1,1,.99-.99A.99.99,0,0,1,81.81,44.312Zm4.276,132.57a.99.99,0,1,1,.99-.99A.99.99,0,0,1,86.087,176.882Zm0-4.276a.99.99,0,1,1,.99-.99A.99.99,0,0,1,86.087,172.605Zm0-4.276a.99.99,0,1,1,.99-.99A.99.99,0,0,1,86.087,168.329Zm0-4.276a.99.99,0,1,1,.99-.99A.99.99,0,0,1,86.087,164.052Zm0-4.276a.99.99,0,1,1,.99-.99A.99.99,0,0,1,86.087,159.776Zm0-4.276a.99.99,0,1,1,.99-.99A.99.99,0,0,1,86.087,155.5Zm0-4.276a.99.99,0,1,1,.99-.99A.99.99,0,0,1,86.087,151.223Zm0-4.276a.99.99,0,1,1,.99-.99A.99.99,0,0,1,86.087,146.947Zm0-4.276a.99.99,0,1,1,.99-.99A.99.99,0,0,1,86.087,142.67Zm0-4.276a.99.99,0,1,1,.99-.99A.99.99,0,0,1,86.087,138.394Zm0-4.276a.99.99,0,1,1,.99-.99A.99.99,0,0,1,86.087,134.117Zm0-4.276a.99.99,0,1,1,.99-.99A.99.99,0,0,1,86.087,129.841Zm0-4.276a.99.99,0,1,1,.99-.99A.99.99,0,0,1,86.087,125.564Zm0-4.276a.99.99,0,1,1,.99-.99A.99.99,0,0,1,86.087,121.288Zm0-4.276a.99.99,0,1,1,.99-.99A.99.99,0,0,1,86.087,117.012Zm0-4.276a.99.99,0,1,1,.99-.99A.99.99,0,0,1,86.087,112.735Zm0-4.276a.99.99,0,1,1,.99-.99A.99.99,0,0,1,86.087,108.459Zm0-4.276a.99.99,0,1,1,.99-.99A.99.99,0,0,1,86.087,104.182Zm0-4.276a.99.99,0,1,1,.99-.99A.99.99,0,0,1,86.087,99.906Zm0-4.276a.99.99,0,1,1,.99-.99A.99.99,0,0,1,86.087,95.629Zm0-4.276a.99.99,0,1,1,.99-.99A.99.99,0,0,1,86.087,91.353Zm0-4.276a.99.99,0,1,1,.99-.99A.99.99,0,0,1,86.087,87.077Zm0-4.276a.99.99,0,1,1,.99-.99A.99.99,0,0,1,86.087,82.8Zm0-4.276a.99.99,0,1,1,.99-.99A.99.99,0,0,1,86.087,78.524Zm0-4.276a.99.99,0,1,1,.99-.99A.99.99,0,0,1,86.087,74.247Zm0-4.276a.99.99,0,1,1,.99-.99A.99.99,0,0,1,86.087,69.971Zm0-4.276a.99.99,0,1,1,.99-.99A.99.99,0,0,1,86.087,65.694Zm0-4.276a.99.99,0,1,1,.99-.99A.99.99,0,0,1,86.087,61.418Zm0-4.276a.99.99,0,1,1,.99-.99A.99.99,0,0,1,86.087,57.141Zm0-4.276a.99.99,0,1,1,.99-.99A.99.99,0,0,1,86.087,52.865Zm0-4.276a.99.99,0,1,1,.99-.99A.99.99,0,0,1,86.087,48.589Zm0-4.276a.99.99,0,1,1,.99-.99A.99.99,0,0,1,86.087,44.312Zm4.276,132.57a.99.99,0,1,1,.99-.99A.99.99,0,0,1,90.363,176.882Zm0-4.276a.99.99,0,1,1,.99-.99A.99.99,0,0,1,90.363,172.605Zm0-4.276a.99.99,0,1,1,.99-.99A.99.99,0,0,1,90.363,168.329Zm0-4.276a.99.99,0,1,1,.99-.99A.99.99,0,0,1,90.363,164.052Zm0-4.276a.99.99,0,1,1,.99-.99A.99.99,0,0,1,90.363,159.776Zm0-4.276a.99.99,0,1,1,.99-.99A.99.99,0,0,1,90.363,155.5Zm0-4.276a.99.99,0,1,1,.99-.99A.99.99,0,0,1,90.363,151.223Zm0-4.276a.99.99,0,1,1,.99-.99A.99.99,0,0,1,90.363,146.947Zm0-4.276a.99.99,0,1,1,.99-.99A.99.99,0,0,1,90.363,142.67Zm0-4.276a.99.99,0,1,1,.99-.99A.99.99,0,0,1,90.363,138.394Zm0-4.276a.99.99,0,1,1,.99-.99A.99.99,0,0,1,90.363,134.117Zm0-4.276a.99.99,0,1,1,.99-.99A.99.99,0,0,1,90.363,129.841Zm0-4.276a.99.99,0,1,1,.99-.99A.99.99,0,0,1,90.363,125.564Zm0-4.276a.99.99,0,1,1,.99-.99A.99.99,0,0,1,90.363,121.288Zm0-4.276a.99.99,0,1,1,.99-.99A.99.99,0,0,1,90.363,117.012Zm0-4.276a.99.99,0,1,1,.99-.99A.99.99,0,0,1,90.363,112.735Zm0-4.276a.99.99,0,1,1,.99-.99A.99.99,0,0,1,90.363,108.459Zm0-4.276a.99.99,0,1,1,.99-.99A.99.99,0,0,1,90.363,104.182Zm0-4.276a.99.99,0,1,1,.99-.99A.99.99,0,0,1,90.363,99.906Zm0-4.276a.99.99,0,1,1,.99-.99A.99.99,0,0,1,90.363,95.629Zm0-4.276a.99.99,0,1,1,.99-.99A.99.99,0,0,1,90.363,91.353Zm0-4.276a.99.99,0,1,1,.99-.99A.99.99,0,0,1,90.363,87.077Zm0-4.276a.99.99,0,1,1,.99-.99A.99.99,0,0,1,90.363,82.8Zm0-4.276a.99.99,0,1,1,.99-.99A.99.99,0,0,1,90.363,78.524Zm0-4.276a.99.99,0,1,1,.99-.99A.99.99,0,0,1,90.363,74.247Zm0-4.276a.99.99,0,1,1,.99-.99A.99.99,0,0,1,90.363,69.971Zm0-4.276a.99.99,0,1,1,.99-.99A.99.99,0,0,1,90.363,65.694Zm0-4.276a.99.99,0,1,1,.99-.99A.99.99,0,0,1,90.363,61.418Zm0-4.276a.99.99,0,1,1,.99-.99A.99.99,0,0,1,90.363,57.141Zm0-4.276a.99.99,0,1,1,.99-.99A.99.99,0,0,1,90.363,52.865Zm0-4.276a.99.99,0,1,1,.99-.99A.99.99,0,0,1,90.363,48.589Zm0-4.276a.99.99,0,1,1,.99-.99A.99.99,0,0,1,90.363,44.312ZM94.64,181.158a.99.99,0,1,1,.99-.99A.99.99,0,0,1,94.64,181.158Zm0-4.276a.99.99,0,1,1,.99-.99A.99.99,0,0,1,94.64,176.882Zm0-4.276a.99.99,0,1,1,.99-.99A.99.99,0,0,1,94.64,172.605Zm0-4.276a.99.99,0,1,1,.99-.99A.99.99,0,0,1,94.64,168.329Zm0-4.276a.99.99,0,1,1,.99-.99A.99.99,0,0,1,94.64,164.052Zm0-4.276a.99.99,0,1,1,.99-.99A.99.99,0,0,1,94.64,159.776Zm0-4.276a.99.99,0,1,1,.99-.99A.99.99,0,0,1,94.64,155.5Zm0-4.276a.99.99,0,1,1,.99-.99A.99.99,0,0,1,94.64,151.223Zm0-4.276a.99.99,0,1,1,.99-.99A.99.99,0,0,1,94.64,146.947Zm0-4.276a.99.99,0,1,1,.99-.99A.99.99,0,0,1,94.64,142.67Zm0-4.276a.99.99,0,1,1,.99-.99A.99.99,0,0,1,94.64,138.394Zm0-4.276a.99.99,0,1,1,.99-.99A.99.99,0,0,1,94.64,134.117Zm0-4.276a.99.99,0,1,1,.99-.99A.99.99,0,0,1,94.64,129.841Zm0-4.276a.99.99,0,1,1,.99-.99A.99.99,0,0,1,94.64,125.564Zm0-4.276a.99.99,0,1,1,.99-.99A.99.99,0,0,1,94.64,121.288Zm0-4.276a.99.99,0,1,1,.99-.99A.99.99,0,0,1,94.64,117.012Zm0-4.276a.99.99,0,1,1,.99-.99A.99.99,0,0,1,94.64,112.735Zm0-4.276a.99.99,0,1,1,.99-.99A.99.99,0,0,1,94.64,108.459Zm0-4.276a.99.99,0,1,1,.99-.99A.99.99,0,0,1,94.64,104.182Zm0-4.276a.99.99,0,1,1,.99-.99A.99.99,0,0,1,94.64,99.906Zm0-4.276a.99.99,0,1,1,.99-.99A.99.99,0,0,1,94.64,95.629Zm0-4.276a.99.99,0,1,1,.99-.99A.99.99,0,0,1,94.64,91.353Zm0-4.276a.99.99,0,1,1,.99-.99A.99.99,0,0,1,94.64,87.077Zm0-4.276a.99.99,0,1,1,.99-.99A.99.99,0,0,1,94.64,82.8Zm0-4.276a.99.99,0,1,1,.99-.99A.99.99,0,0,1,94.64,78.524Zm0-4.276a.99.99,0,1,1,.99-.99A.99.99,0,0,1,94.64,74.247Zm0-4.276a.99.99,0,1,1,.99-.99A.99.99,0,0,1,94.64,69.971Zm0-4.276a.99.99,0,1,1,.99-.99A.99.99,0,0,1,94.64,65.694Zm0-4.276a.99.99,0,1,1,.99-.99A.99.99,0,0,1,94.64,61.418Zm0-4.276a.99.99,0,1,1,.99-.99A.99.99,0,0,1,94.64,57.141Zm0-4.276a.99.99,0,1,1,.99-.99A.99.99,0,0,1,94.64,52.865Zm0-4.276a.99.99,0,1,1,.99-.99A.99.99,0,0,1,94.64,48.589Zm0-4.276a.99.99,0,1,1,.99-.99A.99.99,0,0,1,94.64,44.312Zm0-4.276a.99.99,0,1,1,.99-.99A.99.99,0,0,1,94.64,40.036Zm4.276,141.122a.99.99,0,1,1,.99-.99A.99.99,0,0,1,98.916,181.158Zm0-4.276a.99.99,0,1,1,.99-.99A.99.99,0,0,1,98.916,176.882Zm0-4.276a.99.99,0,1,1,.99-.99A.99.99,0,0,1,98.916,172.605Zm0-4.276a.99.99,0,1,1,.99-.99A.99.99,0,0,1,98.916,168.329Zm0-4.276a.99.99,0,1,1,.99-.99A.99.99,0,0,1,98.916,164.052Zm0-4.276a.99.99,0,1,1,.99-.99A.99.99,0,0,1,98.916,159.776Zm0-4.276a.99.99,0,1,1,.99-.99A.99.99,0,0,1,98.916,155.5Zm0-4.276a.99.99,0,1,1,.99-.99A.99.99,0,0,1,98.916,151.223Zm0-4.276a.99.99,0,1,1,.99-.99A.99.99,0,0,1,98.916,146.947Zm0-4.276a.99.99,0,1,1,.99-.99A.99.99,0,0,1,98.916,142.67Zm0-4.276a.99.99,0,1,1,.99-.99A.99.99,0,0,1,98.916,138.394Zm0-4.276a.99.99,0,1,1,.99-.99A.99.99,0,0,1,98.916,134.117Zm0-4.276a.99.99,0,1,1,.99-.99A.99.99,0,0,1,98.916,129.841Zm0-4.276a.99.99,0,1,1,.99-.99A.99.99,0,0,1,98.916,125.564Zm0-4.276a.99.99,0,1,1,.99-.99A.99.99,0,0,1,98.916,121.288Zm0-4.276a.99.99,0,1,1,.99-.99A.99.99,0,0,1,98.916,117.012Zm0-4.276a.99.99,0,1,1,.99-.99A.99.99,0,0,1,98.916,112.735Zm0-4.276a.99.99,0,1,1,.99-.99A.99.99,0,0,1,98.916,108.459Zm0-4.276a.99.99,0,1,1,.99-.99A.99.99,0,0,1,98.916,104.182Zm0-4.276a.99.99,0,1,1,.99-.99A.99.99,0,0,1,98.916,99.906Zm0-4.276a.99.99,0,1,1,.99-.99A.99.99,0,0,1,98.916,95.629Zm0-4.276a.99.99,0,1,1,.99-.99A.99.99,0,0,1,98.916,91.353Zm0-4.276a.99.99,0,1,1,.99-.99A.99.99,0,0,1,98.916,87.077Zm0-4.276a.99.99,0,1,1,.99-.99A.99.99,0,0,1,98.916,82.8Zm0-4.276a.99.99,0,1,1,.99-.99A.99.99,0,0,1,98.916,78.524Zm0-4.276a.99.99,0,1,1,.99-.99A.99.99,0,0,1,98.916,74.247Zm0-4.276a.99.99,0,1,1,.99-.99A.99.99,0,0,1,98.916,69.971Zm0-4.276a.99.99,0,1,1,.99-.99A.99.99,0,0,1,98.916,65.694Zm0-4.276a.99.99,0,1,1,.99-.99A.99.99,0,0,1,98.916,61.418Zm0-4.276a.99.99,0,1,1,.99-.99A.99.99,0,0,1,98.916,57.141Zm0-4.276a.99.99,0,1,1,.99-.99A.99.99,0,0,1,98.916,52.865Zm0-4.276a.99.99,0,1,1,.99-.99A.99.99,0,0,1,98.916,48.589Zm0-4.276a.99.99,0,1,1,.99-.99A.99.99,0,0,1,98.916,44.312Zm0-4.276a.99.99,0,1,1,.99-.99A.99.99,0,0,1,98.916,40.036Zm4.276,141.122a.99.99,0,1,1,.99-.99A.99.99,0,0,1,103.192,181.158Zm0-4.276a.99.99,0,1,1,.99-.99A.99.99,0,0,1,103.192,176.882Zm0-4.276a.99.99,0,1,1,.99-.99A.99.99,0,0,1,103.192,172.605Zm0-4.276a.99.99,0,1,1,.99-.99A.99.99,0,0,1,103.192,168.329Zm0-4.276a.99.99,0,1,1,.99-.99A.99.99,0,0,1,103.192,164.052Zm0-4.276a.99.99,0,1,1,.99-.99A.99.99,0,0,1,103.192,159.776Zm0-4.276a.99.99,0,1,1,.99-.99A.99.99,0,0,1,103.192,155.5Zm0-4.276a.99.99,0,1,1,.99-.99A.99.99,0,0,1,103.192,151.223Zm0-4.276a.99.99,0,1,1,.99-.99A.99.99,0,0,1,103.192,146.947Zm0-4.276a.99.99,0,1,1,.99-.99A.99.99,0,0,1,103.192,142.67Zm0-4.276a.99.99,0,1,1,.99-.99A.99.99,0,0,1,103.192,138.394Zm0-4.276a.99.99,0,1,1,.99-.99A.99.99,0,0,1,103.192,134.117Zm0-4.276a.99.99,0,1,1,.99-.99A.99.99,0,0,1,103.192,129.841Zm0-4.276a.99.99,0,1,1,.99-.99A.99.99,0,0,1,103.192,125.564Zm0-4.276a.99.99,0,1,1,.99-.99A.99.99,0,0,1,103.192,121.288Zm0-4.276a.99.99,0,1,1,.99-.99A.99.99,0,0,1,103.192,117.012Zm0-4.276a.99.99,0,1,1,.99-.99A.99.99,0,0,1,103.192,112.735Zm0-4.276a.99.99,0,1,1,.99-.99A.99.99,0,0,1,103.192,108.459Zm0-4.276a.99.99,0,1,1,.99-.99A.99.99,0,0,1,103.192,104.182Zm0-4.276a.99.99,0,1,1,.99-.99A.99.99,0,0,1,103.192,99.906Zm0-4.276a.99.99,0,1,1,.99-.99A.99.99,0,0,1,103.192,95.629Zm0-4.276a.99.99,0,1,1,.99-.99A.99.99,0,0,1,103.192,91.353Zm0-4.276a.99.99,0,1,1,.99-.99A.99.99,0,0,1,103.192,87.077Zm0-4.276a.99.99,0,1,1,.99-.99A.99.99,0,0,1,103.192,82.8Zm0-4.276a.99.99,0,1,1,.99-.99A.99.99,0,0,1,103.192,78.524Zm0-4.276a.99.99,0,1,1,.99-.99A.99.99,0,0,1,103.192,74.247Zm0-4.276a.99.99,0,1,1,.99-.99A.99.99,0,0,1,103.192,69.971Zm0-4.276a.99.99,0,1,1,.99-.99A.99.99,0,0,1,103.192,65.694Zm0-4.276a.99.99,0,1,1,.99-.99A.99.99,0,0,1,103.192,61.418Zm0-4.276a.99.99,0,1,1,.99-.99A.99.99,0,0,1,103.192,57.141Zm0-4.276a.99.99,0,1,1,.99-.99A.99.99,0,0,1,103.192,52.865Zm0-4.276a.99.99,0,1,1,.99-.99A.99.99,0,0,1,103.192,48.589Zm0-4.276a.99.99,0,1,1,.99-.99A.99.99,0,0,1,103.192,44.312Zm0-4.276a.99.99,0,1,1,.99-.99A.99.99,0,0,1,103.192,40.036Zm4.276,141.122a.99.99,0,1,1,.99-.99A.99.99,0,0,1,107.469,181.158Zm0-4.276a.99.99,0,1,1,.99-.99A.99.99,0,0,1,107.469,176.882Zm0-4.276a.99.99,0,1,1,.99-.99A.99.99,0,0,1,107.469,172.605Zm0-4.276a.99.99,0,1,1,.99-.99A.99.99,0,0,1,107.469,168.329Zm0-4.276a.99.99,0,1,1,.99-.99A.99.99,0,0,1,107.469,164.052Zm0-4.276a.99.99,0,1,1,.99-.99A.99.99,0,0,1,107.469,159.776Zm0-4.276a.99.99,0,1,1,.99-.99A.99.99,0,0,1,107.469,155.5Zm0-4.276a.99.99,0,1,1,.99-.99A.99.99,0,0,1,107.469,151.223Zm0-4.276a.99.99,0,1,1,.99-.99A.99.99,0,0,1,107.469,146.947Zm0-4.276a.99.99,0,1,1,.99-.99A.99.99,0,0,1,107.469,142.67Zm0-4.276a.99.99,0,1,1,.99-.99A.99.99,0,0,1,107.469,138.394Zm0-4.276a.99.99,0,1,1,.99-.99A.99.99,0,0,1,107.469,134.117Zm0-4.276a.99.99,0,1,1,.99-.99A.99.99,0,0,1,107.469,129.841Zm0-4.276a.99.99,0,1,1,.99-.99A.99.99,0,0,1,107.469,125.564Zm0-4.276a.99.99,0,1,1,.99-.99A.99.99,0,0,1,107.469,121.288Zm0-4.276a.99.99,0,1,1,.99-.99A.99.99,0,0,1,107.469,117.012Zm0-4.276a.99.99,0,1,1,.99-.99A.99.99,0,0,1,107.469,112.735Zm0-4.276a.99.99,0,1,1,.99-.99A.99.99,0,0,1,107.469,108.459Zm0-4.276a.99.99,0,1,1,.99-.99A.99.99,0,0,1,107.469,104.182Zm0-4.276a.99.99,0,1,1,.99-.99A.99.99,0,0,1,107.469,99.906Zm0-4.276a.99.99,0,1,1,.99-.99A.99.99,0,0,1,107.469,95.629Zm0-4.276a.99.99,0,1,1,.99-.99A.99.99,0,0,1,107.469,91.353Zm0-4.276a.99.99,0,1,1,.99-.99A.99.99,0,0,1,107.469,87.077Zm0-4.276a.99.99,0,1,1,.99-.99A.99.99,0,0,1,107.469,82.8Zm0-4.276a.99.99,0,1,1,.99-.99A.99.99,0,0,1,107.469,78.524Zm0-4.276a.99.99,0,1,1,.99-.99A.99.99,0,0,1,107.469,74.247Zm0-4.276a.99.99,0,1,1,.99-.99A.99.99,0,0,1,107.469,69.971Zm0-4.276a.99.99,0,1,1,.99-.99A.99.99,0,0,1,107.469,65.694Zm0-4.276a.99.99,0,1,1,.99-.99A.99.99,0,0,1,107.469,61.418Zm0-4.276a.99.99,0,1,1,.99-.99A.99.99,0,0,1,107.469,57.141Zm0-4.276a.99.99,0,1,1,.99-.99A.99.99,0,0,1,107.469,52.865Zm0-4.276a.99.99,0,1,1,.99-.99A.99.99,0,0,1,107.469,48.589Zm0-4.276a.99.99,0,1,1,.99-.99A.99.99,0,0,1,107.469,44.312Zm0-4.276a.99.99,0,1,1,.99-.99A.99.99,0,0,1,107.469,40.036Zm4.276,141.122a.99.99,0,1,1,.99-.99A.99.99,0,0,1,111.745,181.158Zm0-4.276a.99.99,0,1,1,.99-.99A.99.99,0,0,1,111.745,176.882Zm0-4.276a.99.99,0,1,1,.99-.99A.99.99,0,0,1,111.745,172.605Zm0-4.276a.99.99,0,1,1,.99-.99A.99.99,0,0,1,111.745,168.329Zm0-4.276a.99.99,0,1,1,.99-.99A.99.99,0,0,1,111.745,164.052Zm0-4.276a.99.99,0,1,1,.99-.99A.99.99,0,0,1,111.745,159.776Zm0-4.276a.99.99,0,1,1,.99-.99A.99.99,0,0,1,111.745,155.5Zm0-4.276a.99.99,0,1,1,.99-.99A.99.99,0,0,1,111.745,151.223Zm0-4.276a.99.99,0,1,1,.99-.99A.99.99,0,0,1,111.745,146.947Zm0-4.276a.99.99,0,1,1,.99-.99A.99.99,0,0,1,111.745,142.67Zm0-4.276a.99.99,0,1,1,.99-.99A.99.99,0,0,1,111.745,138.394Zm0-4.276a.99.99,0,1,1,.99-.99A.99.99,0,0,1,111.745,134.117Zm0-4.276a.99.99,0,1,1,.99-.99A.99.99,0,0,1,111.745,129.841Zm0-4.276a.99.99,0,1,1,.99-.99A.99.99,0,0,1,111.745,125.564Zm0-4.276a.99.99,0,1,1,.99-.99A.99.99,0,0,1,111.745,121.288Zm0-4.276a.99.99,0,1,1,.99-.99A.99.99,0,0,1,111.745,117.012Zm0-4.276a.99.99,0,1,1,.99-.99A.99.99,0,0,1,111.745,112.735Zm0-4.276a.99.99,0,1,1,.99-.99A.99.99,0,0,1,111.745,108.459Zm0-4.276a.99.99,0,1,1,.99-.99A.99.99,0,0,1,111.745,104.182Zm0-4.276a.99.99,0,1,1,.99-.99A.99.99,0,0,1,111.745,99.906Zm0-4.276a.99.99,0,1,1,.99-.99A.99.99,0,0,1,111.745,95.629Zm0-4.276a.99.99,0,1,1,.99-.99A.99.99,0,0,1,111.745,91.353Zm0-4.276a.99.99,0,1,1,.99-.99A.99.99,0,0,1,111.745,87.077Zm0-4.276a.99.99,0,1,1,.99-.99A.99.99,0,0,1,111.745,82.8Zm0-4.276a.99.99,0,1,1,.99-.99A.99.99,0,0,1,111.745,78.524Zm0-4.276a.99.99,0,1,1,.99-.99A.99.99,0,0,1,111.745,74.247Zm0-4.276a.99.99,0,1,1,.99-.99A.99.99,0,0,1,111.745,69.971Zm0-4.276a.99.99,0,1,1,.99-.99A.99.99,0,0,1,111.745,65.694Zm0-4.276a.99.99,0,1,1,.99-.99A.99.99,0,0,1,111.745,61.418Zm0-4.276a.99.99,0,1,1,.99-.99A.99.99,0,0,1,111.745,57.141Zm0-4.276a.99.99,0,1,1,.99-.99A.99.99,0,0,1,111.745,52.865Zm0-4.276a.99.99,0,1,1,.99-.99A.99.99,0,0,1,111.745,48.589Zm0-4.276a.99.99,0,1,1,.99-.99A.99.99,0,0,1,111.745,44.312Zm0-4.276a.99.99,0,1,1,.99-.99A.99.99,0,0,1,111.745,40.036Zm4.276,141.122a.99.99,0,1,1,.99-.99A.99.99,0,0,1,116.022,181.158Zm0-4.276a.99.99,0,1,1,.99-.99A.99.99,0,0,1,116.022,176.882Zm0-4.276a.99.99,0,1,1,.99-.99A.99.99,0,0,1,116.022,172.605Zm0-4.276a.99.99,0,1,1,.99-.99A.99.99,0,0,1,116.022,168.329Zm0-4.276a.99.99,0,1,1,.99-.99A.99.99,0,0,1,116.022,164.052Zm0-4.276a.99.99,0,1,1,.99-.99A.99.99,0,0,1,116.022,159.776Zm0-4.276a.99.99,0,1,1,.99-.99A.99.99,0,0,1,116.022,155.5Zm0-4.276a.99.99,0,1,1,.99-.99A.99.99,0,0,1,116.022,151.223Zm0-4.276a.99.99,0,1,1,.99-.99A.99.99,0,0,1,116.022,146.947Zm0-4.276a.99.99,0,1,1,.99-.99A.99.99,0,0,1,116.022,142.67Zm0-4.276a.99.99,0,1,1,.99-.99A.99.99,0,0,1,116.022,138.394Zm0-4.276a.99.99,0,1,1,.99-.99A.99.99,0,0,1,116.022,134.117Zm0-4.276a.99.99,0,1,1,.99-.99A.99.99,0,0,1,116.022,129.841Zm0-4.276a.99.99,0,1,1,.99-.99A.99.99,0,0,1,116.022,125.564Zm0-4.276a.99.99,0,1,1,.99-.99A.99.99,0,0,1,116.022,121.288Zm0-4.276a.99.99,0,1,1,.99-.99A.99.99,0,0,1,116.022,117.012Zm0-4.276a.99.99,0,1,1,.99-.99A.99.99,0,0,1,116.022,112.735Zm0-4.276a.99.99,0,1,1,.99-.99A.99.99,0,0,1,116.022,108.459Zm0-4.276a.99.99,0,1,1,.99-.99A.99.99,0,0,1,116.022,104.182Zm0-4.276a.99.99,0,1,1,.99-.99A.99.99,0,0,1,116.022,99.906Zm0-4.276a.99.99,0,1,1,.99-.99A.99.99,0,0,1,116.022,95.629Zm0-4.276a.99.99,0,1,1,.99-.99A.99.99,0,0,1,116.022,91.353Zm0-4.276a.99.99,0,1,1,.99-.99A.99.99,0,0,1,116.022,87.077Zm0-4.276a.99.99,0,1,1,.99-.99A.99.99,0,0,1,116.022,82.8Zm0-4.276a.99.99,0,1,1,.99-.99A.99.99,0,0,1,116.022,78.524Zm0-4.276a.99.99,0,1,1,.99-.99A.99.99,0,0,1,116.022,74.247Zm0-4.276a.99.99,0,1,1,.99-.99A.99.99,0,0,1,116.022,69.971Zm0-4.276a.99.99,0,1,1,.99-.99A.99.99,0,0,1,116.022,65.694Zm0-4.276a.99.99,0,1,1,.99-.99A.99.99,0,0,1,116.022,61.418Zm0-4.276a.99.99,0,1,1,.99-.99A.99.99,0,0,1,116.022,57.141Zm0-4.276a.99.99,0,1,1,.99-.99A.99.99,0,0,1,116.022,52.865Zm0-4.276a.99.99,0,1,1,.99-.99A.99.99,0,0,1,116.022,48.589Zm0-4.276a.99.99,0,1,1,.99-.99A.99.99,0,0,1,116.022,44.312Zm0-4.276a.99.99,0,1,1,.99-.99A.99.99,0,0,1,116.022,40.036ZM120.3,181.158a.99.99,0,1,1,.99-.99A.99.99,0,0,1,120.3,181.158Zm0-4.276a.99.99,0,1,1,.99-.99A.99.99,0,0,1,120.3,176.882Zm0-4.276a.99.99,0,1,1,.99-.99A.99.99,0,0,1,120.3,172.605Zm0-4.276a.99.99,0,1,1,.99-.99A.99.99,0,0,1,120.3,168.329Zm0-4.276a.99.99,0,1,1,.99-.99A.99.99,0,0,1,120.3,164.052Zm0-4.276a.99.99,0,1,1,.99-.99A.99.99,0,0,1,120.3,159.776Zm0-4.276a.99.99,0,1,1,.99-.99A.99.99,0,0,1,120.3,155.5Zm0-4.276a.99.99,0,1,1,.99-.99A.99.99,0,0,1,120.3,151.223Zm0-4.276a.99.99,0,1,1,.99-.99A.99.99,0,0,1,120.3,146.947Zm0-4.276a.99.99,0,1,1,.99-.99A.99.99,0,0,1,120.3,142.67Zm0-4.276a.99.99,0,1,1,.99-.99A.99.99,0,0,1,120.3,138.394Zm0-4.276a.99.99,0,1,1,.99-.99A.99.99,0,0,1,120.3,134.117Zm0-4.276a.99.99,0,1,1,.99-.99A.99.99,0,0,1,120.3,129.841Zm0-4.276a.99.99,0,1,1,.99-.99A.99.99,0,0,1,120.3,125.564Zm0-4.276a.99.99,0,1,1,.99-.99A.99.99,0,0,1,120.3,121.288Zm0-4.276a.99.99,0,1,1,.99-.99A.99.99,0,0,1,120.3,117.012Zm0-4.276a.99.99,0,1,1,.99-.99A.99.99,0,0,1,120.3,112.735Zm0-4.276a.99.99,0,1,1,.99-.99A.99.99,0,0,1,120.3,108.459Zm0-4.276a.99.99,0,1,1,.99-.99A.99.99,0,0,1,120.3,104.182Zm0-4.276a.99.99,0,1,1,.99-.99A.99.99,0,0,1,120.3,99.906Zm0-4.276a.99.99,0,1,1,.99-.99A.99.99,0,0,1,120.3,95.629Zm0-4.276a.99.99,0,1,1,.99-.99A.99.99,0,0,1,120.3,91.353Zm0-4.276a.99.99,0,1,1,.99-.99A.99.99,0,0,1,120.3,87.077Zm0-4.276a.99.99,0,1,1,.99-.99A.99.99,0,0,1,120.3,82.8Zm0-4.276a.99.99,0,1,1,.99-.99A.99.99,0,0,1,120.3,78.524Zm0-4.276a.99.99,0,1,1,.99-.99A.99.99,0,0,1,120.3,74.247Zm0-4.276a.99.99,0,1,1,.99-.99A.99.99,0,0,1,120.3,69.971Zm0-4.276a.99.99,0,1,1,.99-.99A.99.99,0,0,1,120.3,65.694Zm0-4.276a.99.99,0,1,1,.99-.99A.99.99,0,0,1,120.3,61.418Zm0-4.276a.99.99,0,1,1,.99-.99A.99.99,0,0,1,120.3,57.141Zm0-4.276a.99.99,0,1,1,.99-.99A.99.99,0,0,1,120.3,52.865Zm0-4.276a.99.99,0,1,1,.99-.99A.99.99,0,0,1,120.3,48.589Zm0-4.276a.99.99,0,1,1,.99-.99A.99.99,0,0,1,120.3,44.312Zm0-4.276a.99.99,0,1,1,.99-.99A.99.99,0,0,1,120.3,40.036Zm4.276,141.122a.99.99,0,1,1,.99-.99A.99.99,0,0,1,124.575,181.158Zm0-4.276a.99.99,0,1,1,.99-.99A.99.99,0,0,1,124.575,176.882Zm0-4.276a.99.99,0,1,1,.99-.99A.99.99,0,0,1,124.575,172.605Zm0-4.276a.99.99,0,1,1,.99-.99A.99.99,0,0,1,124.575,168.329Zm0-4.276a.99.99,0,1,1,.99-.99A.99.99,0,0,1,124.575,164.052Zm0-4.276a.99.99,0,1,1,.99-.99A.99.99,0,0,1,124.575,159.776Zm0-4.276a.99.99,0,1,1,.99-.99A.99.99,0,0,1,124.575,155.5Zm0-4.276a.99.99,0,1,1,.99-.99A.99.99,0,0,1,124.575,151.223Zm0-4.276a.99.99,0,1,1,.99-.99A.99.99,0,0,1,124.575,146.947Zm0-4.276a.99.99,0,1,1,.99-.99A.99.99,0,0,1,124.575,142.67Zm0-4.276a.99.99,0,1,1,.99-.99A.99.99,0,0,1,124.575,138.394Zm0-4.276a.99.99,0,1,1,.99-.99A.99.99,0,0,1,124.575,134.117Zm0-4.276a.99.99,0,1,1,.99-.99A.99.99,0,0,1,124.575,129.841Zm0-4.276a.99.99,0,1,1,.99-.99A.99.99,0,0,1,124.575,125.564Zm0-4.276a.99.99,0,1,1,.99-.99A.99.99,0,0,1,124.575,121.288Zm0-4.276a.99.99,0,1,1,.99-.99A.99.99,0,0,1,124.575,117.012Zm0-4.276a.99.99,0,1,1,.99-.99A.99.99,0,0,1,124.575,112.735Zm0-4.276a.99.99,0,1,1,.99-.99A.99.99,0,0,1,124.575,108.459Zm0-4.276a.99.99,0,1,1,.99-.99A.99.99,0,0,1,124.575,104.182Zm0-4.276a.99.99,0,1,1,.99-.99A.99.99,0,0,1,124.575,99.906Zm0-4.276a.99.99,0,1,1,.99-.99A.99.99,0,0,1,124.575,95.629Zm0-4.276a.99.99,0,1,1,.99-.99A.99.99,0,0,1,124.575,91.353Zm0-4.276a.99.99,0,1,1,.99-.99A.99.99,0,0,1,124.575,87.077Zm0-4.276a.99.99,0,1,1,.99-.99A.99.99,0,0,1,124.575,82.8Zm0-4.276a.99.99,0,1,1,.99-.99A.99.99,0,0,1,124.575,78.524Zm0-4.276a.99.99,0,1,1,.99-.99A.99.99,0,0,1,124.575,74.247Zm0-4.276a.99.99,0,1,1,.99-.99A.99.99,0,0,1,124.575,69.971Zm0-4.276a.99.99,0,1,1,.99-.99A.99.99,0,0,1,124.575,65.694Zm0-4.276a.99.99,0,1,1,.99-.99A.99.99,0,0,1,124.575,61.418Zm0-4.276a.99.99,0,1,1,.99-.99A.99.99,0,0,1,124.575,57.141Zm0-4.276a.99.99,0,1,1,.99-.99A.99.99,0,0,1,124.575,52.865Zm0-4.276a.99.99,0,1,1,.99-.99A.99.99,0,0,1,124.575,48.589Zm0-4.276a.99.99,0,1,1,.99-.99A.99.99,0,0,1,124.575,44.312Zm0-4.276a.99.99,0,1,1,.99-.99A.99.99,0,0,1,124.575,40.036Zm4.276,136.846a.99.99,0,1,1,.99-.99A.99.99,0,0,1,128.851,176.882Zm0-4.276a.99.99,0,1,1,.99-.99A.99.99,0,0,1,128.851,172.605Zm0-4.276a.99.99,0,1,1,.99-.99A.99.99,0,0,1,128.851,168.329Zm0-4.276a.99.99,0,1,1,.99-.99A.99.99,0,0,1,128.851,164.052Zm0-4.276a.99.99,0,1,1,.99-.99A.99.99,0,0,1,128.851,159.776Zm0-4.276a.99.99,0,1,1,.99-.99A.99.99,0,0,1,128.851,155.5Zm0-4.276a.99.99,0,1,1,.99-.99A.99.99,0,0,1,128.851,151.223Zm0-4.276a.99.99,0,1,1,.99-.99A.99.99,0,0,1,128.851,146.947Zm0-4.276a.99.99,0,1,1,.99-.99A.99.99,0,0,1,128.851,142.67Zm0-4.276a.99.99,0,1,1,.99-.99A.99.99,0,0,1,128.851,138.394Zm0-4.276a.99.99,0,1,1,.99-.99A.99.99,0,0,1,128.851,134.117Zm0-4.276a.99.99,0,1,1,.99-.99A.99.99,0,0,1,128.851,129.841Zm0-4.276a.99.99,0,1,1,.99-.99A.99.99,0,0,1,128.851,125.564Zm0-4.276a.99.99,0,1,1,.99-.99A.99.99,0,0,1,128.851,121.288Zm0-4.276a.99.99,0,1,1,.99-.99A.99.99,0,0,1,128.851,117.012Zm0-4.276a.99.99,0,1,1,.99-.99A.99.99,0,0,1,128.851,112.735Zm0-4.276a.99.99,0,1,1,.99-.99A.99.99,0,0,1,128.851,108.459Zm0-4.276a.99.99,0,1,1,.99-.99A.99.99,0,0,1,128.851,104.182Zm0-4.276a.99.99,0,1,1,.99-.99A.99.99,0,0,1,128.851,99.906Zm0-4.276a.99.99,0,1,1,.99-.99A.99.99,0,0,1,128.851,95.629Zm0-4.276a.99.99,0,1,1,.99-.99A.99.99,0,0,1,128.851,91.353Zm0-4.276a.99.99,0,1,1,.99-.99A.99.99,0,0,1,128.851,87.077Zm0-4.276a.99.99,0,1,1,.99-.99A.99.99,0,0,1,128.851,82.8Zm0-4.276a.99.99,0,1,1,.99-.99A.99.99,0,0,1,128.851,78.524Zm0-4.276a.99.99,0,1,1,.99-.99A.99.99,0,0,1,128.851,74.247Zm0-4.276a.99.99,0,1,1,.99-.99A.99.99,0,0,1,128.851,69.971Zm0-4.276a.99.99,0,1,1,.99-.99A.99.99,0,0,1,128.851,65.694Zm0-4.276a.99.99,0,1,1,.99-.99A.99.99,0,0,1,128.851,61.418Zm0-4.276a.99.99,0,1,1,.99-.99A.99.99,0,0,1,128.851,57.141Zm0-4.276a.99.99,0,1,1,.99-.99A.99.99,0,0,1,128.851,52.865Zm0-4.276a.99.99,0,1,1,.99-.99A.99.99,0,0,1,128.851,48.589Zm0-4.276a.99.99,0,1,1,.99-.99A.99.99,0,0,1,128.851,44.312Zm4.276,132.57a.99.99,0,1,1,.99-.99A.99.99,0,0,1,133.127,176.882Zm0-4.276a.99.99,0,1,1,.99-.99A.99.99,0,0,1,133.127,172.605Zm0-4.276a.99.99,0,1,1,.99-.99A.99.99,0,0,1,133.127,168.329Zm0-4.276a.99.99,0,1,1,.99-.99A.99.99,0,0,1,133.127,164.052Zm0-4.276a.99.99,0,1,1,.99-.99A.99.99,0,0,1,133.127,159.776Zm0-4.276a.99.99,0,1,1,.99-.99A.99.99,0,0,1,133.127,155.5Zm0-4.276a.99.99,0,1,1,.99-.99A.99.99,0,0,1,133.127,151.223Zm0-4.276a.99.99,0,1,1,.99-.99A.99.99,0,0,1,133.127,146.947Zm0-4.276a.99.99,0,1,1,.99-.99A.99.99,0,0,1,133.127,142.67Zm0-4.276a.99.99,0,1,1,.99-.99A.99.99,0,0,1,133.127,138.394Zm0-4.276a.99.99,0,1,1,.99-.99A.99.99,0,0,1,133.127,134.117Zm0-4.276a.99.99,0,1,1,.99-.99A.99.99,0,0,1,133.127,129.841Zm0-4.276a.99.99,0,1,1,.99-.99A.99.99,0,0,1,133.127,125.564Zm0-4.276a.99.99,0,1,1,.99-.99A.99.99,0,0,1,133.127,121.288Zm0-4.276a.99.99,0,1,1,.99-.99A.99.99,0,0,1,133.127,117.012Zm0-4.276a.99.99,0,1,1,.99-.99A.99.99,0,0,1,133.127,112.735Zm0-4.276a.99.99,0,1,1,.99-.99A.99.99,0,0,1,133.127,108.459Zm0-4.276a.99.99,0,1,1,.99-.99A.99.99,0,0,1,133.127,104.182Zm0-4.276a.99.99,0,1,1,.99-.99A.99.99,0,0,1,133.127,99.906Zm0-4.276a.99.99,0,1,1,.99-.99A.99.99,0,0,1,133.127,95.629Zm0-4.276a.99.99,0,1,1,.99-.99A.99.99,0,0,1,133.127,91.353Zm0-4.276a.99.99,0,1,1,.99-.99A.99.99,0,0,1,133.127,87.077Zm0-4.276a.99.99,0,1,1,.99-.99A.99.99,0,0,1,133.127,82.8Zm0-4.276a.99.99,0,1,1,.99-.99A.99.99,0,0,1,133.127,78.524Zm0-4.276a.99.99,0,1,1,.99-.99A.99.99,0,0,1,133.127,74.247Zm0-4.276a.99.99,0,1,1,.99-.99A.99.99,0,0,1,133.127,69.971Zm0-4.276a.99.99,0,1,1,.99-.99A.99.99,0,0,1,133.127,65.694Zm0-4.276a.99.99,0,1,1,.99-.99A.99.99,0,0,1,133.127,61.418Zm0-4.276a.99.99,0,1,1,.99-.99A.99.99,0,0,1,133.127,57.141Zm0-4.276a.99.99,0,1,1,.99-.99A.99.99,0,0,1,133.127,52.865Zm0-4.276a.99.99,0,1,1,.99-.99A.99.99,0,0,1,133.127,48.589Zm0-4.276a.99.99,0,1,1,.99-.99A.99.99,0,0,1,133.127,44.312Zm4.276,132.57a.99.99,0,1,1,.99-.99A.99.99,0,0,1,137.4,176.882Zm0-4.276a.99.99,0,1,1,.99-.99A.99.99,0,0,1,137.4,172.605Zm0-4.276a.99.99,0,1,1,.99-.99A.99.99,0,0,1,137.4,168.329Zm0-4.276a.99.99,0,1,1,.99-.99A.99.99,0,0,1,137.4,164.052Zm0-4.276a.99.99,0,1,1,.99-.99A.99.99,0,0,1,137.4,159.776Zm0-4.276a.99.99,0,1,1,.99-.99A.99.99,0,0,1,137.4,155.5Zm0-4.276a.99.99,0,1,1,.99-.99A.99.99,0,0,1,137.4,151.223Zm0-4.276a.99.99,0,1,1,.99-.99A.99.99,0,0,1,137.4,146.947Zm0-4.276a.99.99,0,1,1,.99-.99A.99.99,0,0,1,137.4,142.67Zm0-4.276a.99.99,0,1,1,.99-.99A.99.99,0,0,1,137.4,138.394Zm0-4.276a.99.99,0,1,1,.99-.99A.99.99,0,0,1,137.4,134.117Zm0-4.276a.99.99,0,1,1,.99-.99A.99.99,0,0,1,137.4,129.841Zm0-4.276a.99.99,0,1,1,.99-.99A.99.99,0,0,1,137.4,125.564Zm0-4.276a.99.99,0,1,1,.99-.99A.99.99,0,0,1,137.4,121.288Zm0-4.276a.99.99,0,1,1,.99-.99A.99.99,0,0,1,137.4,117.012Zm0-4.276a.99.99,0,1,1,.99-.99A.99.99,0,0,1,137.4,112.735Zm0-4.276a.99.99,0,1,1,.99-.99A.99.99,0,0,1,137.4,108.459Zm0-4.276a.99.99,0,1,1,.99-.99A.99.99,0,0,1,137.4,104.182Zm0-4.276a.99.99,0,1,1,.99-.99A.99.99,0,0,1,137.4,99.906Zm0-4.276a.99.99,0,1,1,.99-.99A.99.99,0,0,1,137.4,95.629Zm0-4.276a.99.99,0,1,1,.99-.99A.99.99,0,0,1,137.4,91.353Zm0-4.276a.99.99,0,1,1,.99-.99A.99.99,0,0,1,137.4,87.077Zm0-4.276a.99.99,0,1,1,.99-.99A.99.99,0,0,1,137.4,82.8Zm0-4.276a.99.99,0,1,1,.99-.99A.99.99,0,0,1,137.4,78.524Zm0-4.276a.99.99,0,1,1,.99-.99A.99.99,0,0,1,137.4,74.247Zm0-4.276a.99.99,0,1,1,.99-.99A.99.99,0,0,1,137.4,69.971Zm0-4.276a.99.99,0,1,1,.99-.99A.99.99,0,0,1,137.4,65.694Zm0-4.276a.99.99,0,1,1,.99-.99A.99.99,0,0,1,137.4,61.418Zm0-4.276a.99.99,0,1,1,.99-.99A.99.99,0,0,1,137.4,57.141Zm0-4.276a.99.99,0,1,1,.99-.99A.99.99,0,0,1,137.4,52.865Zm0-4.276a.99.99,0,1,1,.99-.99A.99.99,0,0,1,137.4,48.589Zm0-4.276a.99.99,0,1,1,.99-.99A.99.99,0,0,1,137.4,44.312Zm4.276,128.293a.99.99,0,1,1,.99-.99A.99.99,0,0,1,141.68,172.605Zm0-4.276a.99.99,0,1,1,.99-.99A.99.99,0,0,1,141.68,168.329Zm0-4.276a.99.99,0,1,1,.99-.99A.99.99,0,0,1,141.68,164.052Zm0-4.276a.99.99,0,1,1,.99-.99A.99.99,0,0,1,141.68,159.776Zm0-4.276a.99.99,0,1,1,.99-.99A.99.99,0,0,1,141.68,155.5Zm0-4.276a.99.99,0,1,1,.99-.99A.99.99,0,0,1,141.68,151.223Zm0-4.276a.99.99,0,1,1,.99-.99A.99.99,0,0,1,141.68,146.947Zm0-4.276a.99.99,0,1,1,.99-.99A.99.99,0,0,1,141.68,142.67Zm0-4.276a.99.99,0,1,1,.99-.99A.99.99,0,0,1,141.68,138.394Zm0-4.276a.99.99,0,1,1,.99-.99A.99.99,0,0,1,141.68,134.117Zm0-4.276a.99.99,0,1,1,.99-.99A.99.99,0,0,1,141.68,129.841Zm0-4.276a.99.99,0,1,1,.99-.99A.99.99,0,0,1,141.68,125.564Zm0-4.276a.99.99,0,1,1,.99-.99A.99.99,0,0,1,141.68,121.288Zm0-4.276a.99.99,0,1,1,.99-.99A.99.99,0,0,1,141.68,117.012Zm0-4.276a.99.99,0,1,1,.99-.99A.99.99,0,0,1,141.68,112.735Zm0-4.276a.99.99,0,1,1,.99-.99A.99.99,0,0,1,141.68,108.459Zm0-4.276a.99.99,0,1,1,.99-.99A.99.99,0,0,1,141.68,104.182Zm0-4.276a.99.99,0,1,1,.99-.99A.99.99,0,0,1,141.68,99.906Zm0-4.276a.99.99,0,1,1,.99-.99A.99.99,0,0,1,141.68,95.629Zm0-4.276a.99.99,0,1,1,.99-.99A.99.99,0,0,1,141.68,91.353Zm0-4.276a.99.99,0,1,1,.99-.99A.99.99,0,0,1,141.68,87.077Zm0-4.276a.99.99,0,1,1,.99-.99A.99.99,0,0,1,141.68,82.8Zm0-4.276a.99.99,0,1,1,.99-.99A.99.99,0,0,1,141.68,78.524Zm0-4.276a.99.99,0,1,1,.99-.99A.99.99,0,0,1,141.68,74.247Zm0-4.276a.99.99,0,1,1,.99-.99A.99.99,0,0,1,141.68,69.971Zm0-4.276a.99.99,0,1,1,.99-.99A.99.99,0,0,1,141.68,65.694Zm0-4.276a.99.99,0,1,1,.99-.99A.99.99,0,0,1,141.68,61.418Zm0-4.276a.99.99,0,1,1,.99-.99A.99.99,0,0,1,141.68,57.141Zm0-4.276a.99.99,0,1,1,.99-.99A.99.99,0,0,1,141.68,52.865Zm0-4.276a.99.99,0,1,1,.99-.99A.99.99,0,0,1,141.68,48.589Zm4.276,124.017a.99.99,0,1,1,.99-.99A.99.99,0,0,1,145.957,172.605Zm0-4.276a.99.99,0,1,1,.99-.99A.99.99,0,0,1,145.957,168.329Zm0-4.276a.99.99,0,1,1,.99-.99A.99.99,0,0,1,145.957,164.052Zm0-4.276a.99.99,0,1,1,.99-.99A.99.99,0,0,1,145.957,159.776Zm0-4.276a.99.99,0,1,1,.99-.99A.99.99,0,0,1,145.957,155.5Zm0-4.276a.99.99,0,1,1,.99-.99A.99.99,0,0,1,145.957,151.223Zm0-4.276a.99.99,0,1,1,.99-.99A.99.99,0,0,1,145.957,146.947Zm0-4.276a.99.99,0,1,1,.99-.99A.99.99,0,0,1,145.957,142.67Zm0-4.276a.99.99,0,1,1,.99-.99A.99.99,0,0,1,145.957,138.394Zm0-4.276a.99.99,0,1,1,.99-.99A.99.99,0,0,1,145.957,134.117Zm0-4.276a.99.99,0,1,1,.99-.99A.99.99,0,0,1,145.957,129.841Zm0-4.276a.99.99,0,1,1,.99-.99A.99.99,0,0,1,145.957,125.564Zm0-4.276a.99.99,0,1,1,.99-.99A.99.99,0,0,1,145.957,121.288Zm0-4.276a.99.99,0,1,1,.99-.99A.99.99,0,0,1,145.957,117.012Zm0-4.276a.99.99,0,1,1,.99-.99A.99.99,0,0,1,145.957,112.735Zm0-4.276a.99.99,0,1,1,.99-.99A.99.99,0,0,1,145.957,108.459Zm0-4.276a.99.99,0,1,1,.99-.99A.99.99,0,0,1,145.957,104.182Zm0-4.276a.99.99,0,1,1,.99-.99A.99.99,0,0,1,145.957,99.906Zm0-4.276a.99.99,0,1,1,.99-.99A.99.99,0,0,1,145.957,95.629Zm0-4.276a.99.99,0,1,1,.99-.99A.99.99,0,0,1,145.957,91.353Zm0-4.276a.99.99,0,1,1,.99-.99A.99.99,0,0,1,145.957,87.077Zm0-4.276a.99.99,0,1,1,.99-.99A.99.99,0,0,1,145.957,82.8Zm0-4.276a.99.99,0,1,1,.99-.99A.99.99,0,0,1,145.957,78.524Zm0-4.276a.99.99,0,1,1,.99-.99A.99.99,0,0,1,145.957,74.247Zm0-4.276a.99.99,0,1,1,.99-.99A.99.99,0,0,1,145.957,69.971Zm0-4.276a.99.99,0,1,1,.99-.99A.99.99,0,0,1,145.957,65.694Zm0-4.276a.99.99,0,1,1,.99-.99A.99.99,0,0,1,145.957,61.418Zm0-4.276a.99.99,0,1,1,.99-.99A.99.99,0,0,1,145.957,57.141Zm0-4.276a.99.99,0,1,1,.99-.99A.99.99,0,0,1,145.957,52.865Zm0-4.276a.99.99,0,1,1,.99-.99A.99.99,0,0,1,145.957,48.589Zm4.276,119.74a.99.99,0,1,1,.99-.99A.99.99,0,0,1,150.233,168.329Zm0-4.276a.99.99,0,1,1,.99-.99A.99.99,0,0,1,150.233,164.052Zm0-4.276a.99.99,0,1,1,.99-.99A.99.99,0,0,1,150.233,159.776Zm0-4.276a.99.99,0,1,1,.99-.99A.99.99,0,0,1,150.233,155.5Zm0-4.276a.99.99,0,1,1,.99-.99A.99.99,0,0,1,150.233,151.223Zm0-4.276a.99.99,0,1,1,.99-.99A.99.99,0,0,1,150.233,146.947Zm0-4.276a.99.99,0,1,1,.99-.99A.99.99,0,0,1,150.233,142.67Zm0-4.276a.99.99,0,1,1,.99-.99A.99.99,0,0,1,150.233,138.394Zm0-4.276a.99.99,0,1,1,.99-.99A.99.99,0,0,1,150.233,134.117Zm0-4.276a.99.99,0,1,1,.99-.99A.99.99,0,0,1,150.233,129.841Zm0-4.276a.99.99,0,1,1,.99-.99A.99.99,0,0,1,150.233,125.564Zm0-4.276a.99.99,0,1,1,.99-.99A.99.99,0,0,1,150.233,121.288Zm0-4.276a.99.99,0,1,1,.99-.99A.99.99,0,0,1,150.233,117.012Zm0-4.276a.99.99,0,1,1,.99-.99A.99.99,0,0,1,150.233,112.735Zm0-4.276a.99.99,0,1,1,.99-.99A.99.99,0,0,1,150.233,108.459Zm0-4.276a.99.99,0,1,1,.99-.99A.99.99,0,0,1,150.233,104.182Zm0-4.276a.99.99,0,1,1,.99-.99A.99.99,0,0,1,150.233,99.906Zm0-4.276a.99.99,0,1,1,.99-.99A.99.99,0,0,1,150.233,95.629Zm0-4.276a.99.99,0,1,1,.99-.99A.99.99,0,0,1,150.233,91.353Zm0-4.276a.99.99,0,1,1,.99-.99A.99.99,0,0,1,150.233,87.077Zm0-4.276a.99.99,0,1,1,.99-.99A.99.99,0,0,1,150.233,82.8Zm0-4.276a.99.99,0,1,1,.99-.99A.99.99,0,0,1,150.233,78.524Zm0-4.276a.99.99,0,1,1,.99-.99A.99.99,0,0,1,150.233,74.247Zm0-4.276a.99.99,0,1,1,.99-.99A.99.99,0,0,1,150.233,69.971Zm0-4.276a.99.99,0,1,1,.99-.99A.99.99,0,0,1,150.233,65.694Zm0-4.276a.99.99,0,1,1,.99-.99A.99.99,0,0,1,150.233,61.418Zm0-4.276a.99.99,0,1,1,.99-.99A.99.99,0,0,1,150.233,57.141Zm0-4.276a.99.99,0,1,1,.99-.99A.99.99,0,0,1,150.233,52.865Zm4.276,111.187a.99.99,0,1,1,.99-.99A.99.99,0,0,1,154.51,164.052Zm0-4.276a.99.99,0,1,1,.99-.99A.99.99,0,0,1,154.51,159.776Zm0-4.276a.99.99,0,1,1,.99-.99A.99.99,0,0,1,154.51,155.5Zm0-4.276a.99.99,0,1,1,.99-.99A.99.99,0,0,1,154.51,151.223Zm0-4.276a.99.99,0,1,1,.99-.99A.99.99,0,0,1,154.51,146.947Zm0-4.276a.99.99,0,1,1,.99-.99A.99.99,0,0,1,154.51,142.67Zm0-4.276a.99.99,0,1,1,.99-.99A.99.99,0,0,1,154.51,138.394Zm0-4.276a.99.99,0,1,1,.99-.99A.99.99,0,0,1,154.51,134.117Zm0-4.276a.99.99,0,1,1,.99-.99A.99.99,0,0,1,154.51,129.841Zm0-4.276a.99.99,0,1,1,.99-.99A.99.99,0,0,1,154.51,125.564Zm0-4.276a.99.99,0,1,1,.99-.99A.99.99,0,0,1,154.51,121.288Zm0-4.276a.99.99,0,1,1,.99-.99A.99.99,0,0,1,154.51,117.012Zm0-4.276a.99.99,0,1,1,.99-.99A.99.99,0,0,1,154.51,112.735Zm0-4.276a.99.99,0,1,1,.99-.99A.99.99,0,0,1,154.51,108.459Zm0-4.276a.99.99,0,1,1,.99-.99A.99.99,0,0,1,154.51,104.182Zm0-4.276a.99.99,0,1,1,.99-.99A.99.99,0,0,1,154.51,99.906Zm0-4.276a.99.99,0,1,1,.99-.99A.99.99,0,0,1,154.51,95.629Zm0-4.276a.99.99,0,1,1,.99-.99A.99.99,0,0,1,154.51,91.353Zm0-4.276a.99.99,0,1,1,.99-.99A.99.99,0,0,1,154.51,87.077Zm0-4.276a.99.99,0,1,1,.99-.99A.99.99,0,0,1,154.51,82.8Zm0-4.276a.99.99,0,1,1,.99-.99A.99.99,0,0,1,154.51,78.524Zm0-4.276a.99.99,0,1,1,.99-.99A.99.99,0,0,1,154.51,74.247Zm0-4.276a.99.99,0,1,1,.99-.99A.99.99,0,0,1,154.51,69.971Zm0-4.276a.99.99,0,1,1,.99-.99A.99.99,0,0,1,154.51,65.694Zm0-4.276a.99.99,0,1,1,.99-.99A.99.99,0,0,1,154.51,61.418Zm0-4.276a.99.99,0,1,1,.99-.99A.99.99,0,0,1,154.51,57.141Zm4.276,106.911a.99.99,0,1,1,.99-.99A.99.99,0,0,1,158.786,164.052Zm0-4.276a.99.99,0,1,1,.99-.99A.99.99,0,0,1,158.786,159.776Zm0-4.276a.99.99,0,1,1,.99-.99A.99.99,0,0,1,158.786,155.5Zm0-4.276a.99.99,0,1,1,.99-.99A.99.99,0,0,1,158.786,151.223Zm0-4.276a.99.99,0,1,1,.99-.99A.99.99,0,0,1,158.786,146.947Zm0-4.276a.99.99,0,1,1,.99-.99A.99.99,0,0,1,158.786,142.67Zm0-4.276a.99.99,0,1,1,.99-.99A.99.99,0,0,1,158.786,138.394Zm0-4.276a.99.99,0,1,1,.99-.99A.99.99,0,0,1,158.786,134.117Zm0-4.276a.99.99,0,1,1,.99-.99A.99.99,0,0,1,158.786,129.841Zm0-4.276a.99.99,0,1,1,.99-.99A.99.99,0,0,1,158.786,125.564Zm0-4.276a.99.99,0,1,1,.99-.99A.99.99,0,0,1,158.786,121.288Zm0-4.276a.99.99,0,1,1,.99-.99A.99.99,0,0,1,158.786,117.012Zm0-4.276a.99.99,0,1,1,.99-.99A.99.99,0,0,1,158.786,112.735Zm0-4.276a.99.99,0,1,1,.99-.99A.99.99,0,0,1,158.786,108.459Zm0-4.276a.99.99,0,1,1,.99-.99A.99.99,0,0,1,158.786,104.182Zm0-4.276a.99.99,0,1,1,.99-.99A.99.99,0,0,1,158.786,99.906Zm0-4.276a.99.99,0,1,1,.99-.99A.99.99,0,0,1,158.786,95.629Zm0-4.276a.99.99,0,1,1,.99-.99A.99.99,0,0,1,158.786,91.353Zm0-4.276a.99.99,0,1,1,.99-.99A.99.99,0,0,1,158.786,87.077Zm0-4.276a.99.99,0,1,1,.99-.99A.99.99,0,0,1,158.786,82.8Zm0-4.276a.99.99,0,1,1,.99-.99A.99.99,0,0,1,158.786,78.524Zm0-4.276a.99.99,0,1,1,.99-.99A.99.99,0,0,1,158.786,74.247Zm0-4.276a.99.99,0,1,1,.99-.99A.99.99,0,0,1,158.786,69.971Zm0-4.276a.99.99,0,1,1,.99-.99A.99.99,0,0,1,158.786,65.694Zm0-4.276a.99.99,0,1,1,.99-.99A.99.99,0,0,1,158.786,61.418Zm0-4.276a.99.99,0,1,1,.99-.99A.99.99,0,0,1,158.786,57.141Zm4.276,102.634a.99.99,0,1,1,.99-.99A.99.99,0,0,1,163.063,159.776Zm0-4.276a.99.99,0,1,1,.99-.99A.99.99,0,0,1,163.063,155.5Zm0-4.276a.99.99,0,1,1,.99-.99A.99.99,0,0,1,163.063,151.223Zm0-4.276a.99.99,0,1,1,.99-.99A.99.99,0,0,1,163.063,146.947Zm0-4.276a.99.99,0,1,1,.99-.99A.99.99,0,0,1,163.063,142.67Zm0-4.276a.99.99,0,1,1,.99-.99A.99.99,0,0,1,163.063,138.394Zm0-4.276a.99.99,0,1,1,.99-.99A.99.99,0,0,1,163.063,134.117Zm0-4.276a.99.99,0,1,1,.99-.99A.99.99,0,0,1,163.063,129.841Zm0-4.276a.99.99,0,1,1,.99-.99A.99.99,0,0,1,163.063,125.564Zm0-4.276a.99.99,0,1,1,.99-.99A.99.99,0,0,1,163.063,121.288Zm0-4.276a.99.99,0,1,1,.99-.99A.99.99,0,0,1,163.063,117.012Zm0-4.276a.99.99,0,1,1,.99-.99A.99.99,0,0,1,163.063,112.735Zm0-4.276a.99.99,0,1,1,.99-.99A.99.99,0,0,1,163.063,108.459Zm0-4.276a.99.99,0,1,1,.99-.99A.99.99,0,0,1,163.063,104.182Zm0-4.276a.99.99,0,1,1,.99-.99A.99.99,0,0,1,163.063,99.906Zm0-4.276a.99.99,0,1,1,.99-.99A.99.99,0,0,1,163.063,95.629Zm0-4.276a.99.99,0,1,1,.99-.99A.99.99,0,0,1,163.063,91.353Zm0-4.276a.99.99,0,1,1,.99-.99A.99.99,0,0,1,163.063,87.077Zm0-4.276a.99.99,0,1,1,.99-.99A.99.99,0,0,1,163.063,82.8Zm0-4.276a.99.99,0,1,1,.99-.99A.99.99,0,0,1,163.063,78.524Zm0-4.276a.99.99,0,1,1,.99-.99A.99.99,0,0,1,163.063,74.247Zm0-4.276a.99.99,0,1,1,.99-.99A.99.99,0,0,1,163.063,69.971Zm0-4.276a.99.99,0,1,1,.99-.99A.99.99,0,0,1,163.063,65.694Zm0-4.276a.99.99,0,1,1,.99-.99A.99.99,0,0,1,163.063,61.418Zm4.276,89.805a.99.99,0,1,1,.99-.99A.99.99,0,0,1,167.339,151.223Zm0-4.276a.99.99,0,1,1,.99-.99A.99.99,0,0,1,167.339,146.947Zm0-4.276a.99.99,0,1,1,.99-.99A.99.99,0,0,1,167.339,142.67Zm0-4.276a.99.99,0,1,1,.99-.99A.99.99,0,0,1,167.339,138.394Zm0-4.276a.99.99,0,1,1,.99-.99A.99.99,0,0,1,167.339,134.117Zm0-4.276a.99.99,0,1,1,.99-.99A.99.99,0,0,1,167.339,129.841Zm0-4.276a.99.99,0,1,1,.99-.99A.99.99,0,0,1,167.339,125.564Zm0-4.276a.99.99,0,1,1,.99-.99A.99.99,0,0,1,167.339,121.288Zm0-4.276a.99.99,0,1,1,.99-.99A.99.99,0,0,1,167.339,117.012Zm0-4.276a.99.99,0,1,1,.99-.99A.99.99,0,0,1,167.339,112.735Zm0-4.276a.99.99,0,1,1,.99-.99A.99.99,0,0,1,167.339,108.459Zm0-4.276a.99.99,0,1,1,.99-.99A.99.99,0,0,1,167.339,104.182Zm0-4.276a.99.99,0,1,1,.99-.99A.99.99,0,0,1,167.339,99.906Zm0-4.276a.99.99,0,1,1,.99-.99A.99.99,0,0,1,167.339,95.629Zm0-4.276a.99.99,0,1,1,.99-.99A.99.99,0,0,1,167.339,91.353Zm0-4.276a.99.99,0,1,1,.99-.99A.99.99,0,0,1,167.339,87.077Zm0-4.276a.99.99,0,1,1,.99-.99A.99.99,0,0,1,167.339,82.8Zm0-4.276a.99.99,0,1,1,.99-.99A.99.99,0,0,1,167.339,78.524Zm0-4.276a.99.99,0,1,1,.99-.99A.99.99,0,0,1,167.339,74.247Zm0-4.276a.99.99,0,1,1,.99-.99A.99.99,0,0,1,167.339,69.971Zm4.276,76.976a.99.99,0,1,1,.99-.99A.99.99,0,0,1,171.615,146.947Zm0-4.276a.99.99,0,1,1,.99-.99A.99.99,0,0,1,171.615,142.67Zm0-4.276a.99.99,0,1,1,.99-.99A.99.99,0,0,1,171.615,138.394Zm0-4.276a.99.99,0,1,1,.99-.99A.99.99,0,0,1,171.615,134.117Zm0-4.276a.99.99,0,1,1,.99-.99A.99.99,0,0,1,171.615,129.841Zm0-4.276a.99.99,0,1,1,.99-.99A.99.99,0,0,1,171.615,125.564Zm0-4.276a.99.99,0,1,1,.99-.99A.99.99,0,0,1,171.615,121.288Zm0-4.276a.99.99,0,1,1,.99-.99A.99.99,0,0,1,171.615,117.012Zm0-4.276a.99.99,0,1,1,.99-.99A.99.99,0,0,1,171.615,112.735Zm0-4.276a.99.99,0,1,1,.99-.99A.99.99,0,0,1,171.615,108.459Zm0-4.276a.99.99,0,1,1,.99-.99A.99.99,0,0,1,171.615,104.182Zm0-4.276a.99.99,0,1,1,.99-.99A.99.99,0,0,1,171.615,99.906Zm0-4.276a.99.99,0,1,1,.99-.99A.99.99,0,0,1,171.615,95.629Zm0-4.276a.99.99,0,1,1,.99-.99A.99.99,0,0,1,171.615,91.353Zm0-4.276a.99.99,0,1,1,.99-.99A.99.99,0,0,1,171.615,87.077Zm0-4.276a.99.99,0,1,1,.99-.99A.99.99,0,0,1,171.615,82.8Zm0-4.276a.99.99,0,1,1,.99-.99A.99.99,0,0,1,171.615,78.524Zm0-4.276a.99.99,0,1,1,.99-.99A.99.99,0,0,1,171.615,74.247Zm4.276,64.147a.99.99,0,1,1,.99-.99A.99.99,0,0,1,175.892,138.394Zm0-4.276a.99.99,0,1,1,.99-.99A.99.99,0,0,1,175.892,134.117Zm0-4.276a.99.99,0,1,1,.99-.99A.99.99,0,0,1,175.892,129.841Zm0-4.276a.99.99,0,1,1,.99-.99A.99.99,0,0,1,175.892,125.564Zm0-4.276a.99.99,0,1,1,.99-.99A.99.99,0,0,1,175.892,121.288Zm0-4.276a.99.99,0,1,1,.99-.99A.99.99,0,0,1,175.892,117.012Zm0-4.276a.99.99,0,1,1,.99-.99A.99.99,0,0,1,175.892,112.735Zm0-4.276a.99.99,0,1,1,.99-.99A.99.99,0,0,1,175.892,108.459Zm0-4.276a.99.99,0,1,1,.99-.99A.99.99,0,0,1,175.892,104.182Zm0-4.276a.99.99,0,1,1,.99-.99A.99.99,0,0,1,175.892,99.906Zm0-4.276a.99.99,0,1,1,.99-.99A.99.99,0,0,1,175.892,95.629Zm0-4.276a.99.99,0,1,1,.99-.99A.99.99,0,0,1,175.892,91.353Zm0-4.276a.99.99,0,1,1,.99-.99A.99.99,0,0,1,175.892,87.077Zm0-4.276a.99.99,0,1,1,.99-.99A.99.99,0,0,1,175.892,82.8Zm4.276,42.764a.99.99,0,1,1,.99-.99A.99.99,0,0,1,180.168,125.564Zm0-4.276a.99.99,0,1,1,.99-.99A.99.99,0,0,1,180.168,121.288Zm0-4.276a.99.99,0,1,1,.99-.99A.99.99,0,0,1,180.168,117.012Zm0-4.276a.99.99,0,1,1,.99-.99A.99.99,0,0,1,180.168,112.735Zm0-4.276a.99.99,0,1,1,.99-.99A.99.99,0,0,1,180.168,108.459Zm0-4.276a.99.99,0,1,1,.99-.99A.99.99,0,0,1,180.168,104.182Zm0-4.276a.99.99,0,1,1,.99-.99A.99.99,0,0,1,180.168,99.906Zm0-4.276a.99.99,0,1,1,.99-.99A.99.99,0,0,1,180.168,95.629Z" transform="translate(1117.708 289.067)" fill="#26aab7"/>
        <path id="Shape_2" data-name="Shape 2" d="M157.765,0V87.069H0a25.9,25.9,0,0,1,3.292-1.344c5.883-1.942,12.374-2.422,18.055-4.818A32.126,32.126,0,0,0,35.108,69.474c3.508-4.941,6.405-10.115,11.811-13.868C52.86,51.483,60.531,49.468,68,48.142a36.107,36.107,0,0,0,19.11-9.489c2.8-2.758,4.964-5.924,7.714-8.717a22.839,22.839,0,0,1,12.923-6.553c4.536-.758,9.754-.871,13.561-3.332,2.685-1.737,3.8-4.395,4.471-7.065C126.929,8.408,126.866,2.355,132.321,0Z" transform="translate(157.765 87.069) rotate(180)" fill="#7d6eb2"/>
      </g>
    </g>
  </g>
</svg>
