<svg xmlns="http://www.w3.org/2000/svg" xmlns:xlink="http://www.w3.org/1999/xlink" width="67" height="67" viewBox="0 0 67 67">
  <defs>
    <clipPath id="clip-path">
      <rect id="Rectángulo_401862" data-name="Rectángulo 401862" width="67" height="67" transform="translate(1058 3772)" fill="#ffd947" stroke="#707070" stroke-width="1"/>
    </clipPath>
  </defs>
  <g id="Enmascarar_grupo_1100092" data-name="Enmascarar grupo 1100092" transform="translate(-1058 -3772)" clip-path="url(#clip-path)">
    <g id="retorno-de-la-inversion" transform="translate(1056.919 3770.919)">
      <path id="Trazado_876171" data-name="Trazado 876171" d="M35.661,41.992A4.313,4.313,0,0,0,34.581,33.5a2.161,2.161,0,1,1,2.161-2.161H38.9a4.318,4.318,0,0,0-3.242-4.169V24.855H33.5V27.17a4.313,4.313,0,0,0,1.081,8.492,2.161,2.161,0,1,1-2.161,2.161H30.258A4.318,4.318,0,0,0,33.5,41.992v2.315h2.161Z" fill="#ffd947"/>
      <path id="Trazado_876172" data-name="Trazado 876172" d="M34.581,20.532A14.065,14.065,0,0,0,20.532,34.581h2.161A11.9,11.9,0,0,1,34.581,22.694Z" fill="#ffd947"/>
      <path id="Trazado_876173" data-name="Trazado 876173" d="M46.468,34.581A11.9,11.9,0,0,1,34.581,46.468v2.161A14.065,14.065,0,0,0,48.629,34.581Z" fill="#ffd947"/>
      <path id="Trazado_876174" data-name="Trazado 876174" d="M23.342,8.822a27.988,27.988,0,0,0-8.99,6.259l1.555,1.5a25.884,25.884,0,0,1,8.3-5.78Z" fill="#ffd947"/>
      <path id="Trazado_876175" data-name="Trazado 876175" d="M27.839,7.3c-.761.187-1.517.407-2.25.655L26.282,10c.674-.228,1.372-.431,2.073-.605Z" fill="#ffd947"/>
      <path id="Trazado_876176" data-name="Trazado 876176" d="M32.335,6.572c-.738.058-1.495.149-2.248.269l.341,2.134c.7-.112,1.394-.2,2.075-.247Z" fill="#ffd947"/>
      <path id="Trazado_876177" data-name="Trazado 876177" d="M34.581,3.242a31.133,31.133,0,0,1,22.16,9.179,1.112,1.112,0,0,0,1.528,0l2.248-2.248v8.2h-8.2l2.13-2.13a1.079,1.079,0,0,0,0-1.528A27.912,27.912,0,0,0,34.581,6.484V8.645A25.749,25.749,0,0,1,52.14,15.493l-3.194,3.194a1.08,1.08,0,0,0,.764,1.845H61.6a1.08,1.08,0,0,0,1.081-1.081V7.565A1.08,1.08,0,0,0,60.833,6.8l-3.34,3.34A33.5,33.5,0,0,0,1.081,34.581H3.242A31.374,31.374,0,0,1,34.581,3.242Z" fill="#ffd947"/>
      <path id="Trazado_876178" data-name="Trazado 876178" d="M54.81,54.08l-1.555-1.5a25.884,25.884,0,0,1-8.3,5.78l.866,1.98A28,28,0,0,0,54.81,54.08Z" fill="#ffd947"/>
      <path id="Trazado_876179" data-name="Trazado 876179" d="M41.323,61.863c.761-.187,1.517-.407,2.25-.655l-.694-2.048c-.674.228-1.372.431-2.073.605Z" fill="#ffd947"/>
      <path id="Trazado_876180" data-name="Trazado 876180" d="M36.826,62.589c.738-.058,1.495-.149,2.248-.269l-.341-2.134c-.7.112-1.394.2-2.075.247Z" fill="#ffd947"/>
      <path id="Trazado_876181" data-name="Trazado 876181" d="M65.919,34.581a31.339,31.339,0,0,1-53.5,22.16,1.112,1.112,0,0,0-1.528,0L8.645,58.988v-8.2h8.2l-2.13,2.13a1.079,1.079,0,0,0,0,1.528,27.912,27.912,0,0,0,19.868,8.229V60.516a25.749,25.749,0,0,1-17.559-6.848l3.194-3.194a1.08,1.08,0,0,0-.764-1.845H7.565A1.08,1.08,0,0,0,6.484,49.71V61.6a1.08,1.08,0,0,0,1.845.764l3.34-3.34a33.5,33.5,0,0,0,56.412-24.44Z" fill="#ffd947"/>
      <path id="Trazado_876182" data-name="Trazado 876182" d="M52.952,34.581A18.371,18.371,0,1,0,34.581,52.952,18.392,18.392,0,0,0,52.952,34.581ZM34.581,50.79a16.21,16.21,0,1,1,16.21-16.21A16.228,16.228,0,0,1,34.581,50.79Z" fill="#ffd947"/>
    </g>
  </g>
</svg>
