<svg xmlns="http://www.w3.org/2000/svg" xmlns:xlink="http://www.w3.org/1999/xlink" width="67" height="67" viewBox="0 0 67 67">
  <defs>
    <clipPath id="clip-path">
      <rect id="Rectángulo_401861" data-name="Rectángulo 401861" width="67" height="67" transform="translate(638 3772)" fill="#ffd947" stroke="#707070" stroke-width="1"/>
    </clipPath>
  </defs>
  <g id="Enmascarar_grupo_1100091" data-name="Enmascarar grupo 1100091" transform="translate(-638 -3772)" clip-path="url(#clip-path)">
    <path id="ingresos-pasivos" d="M64.382,44.325a5.352,5.352,0,0,0-7.2-2.266l-14.03,7.31c.021-.154.035-.311.04-.47a5.351,5.351,0,0,0-5.1-5.564L25.662,42.8a4.858,4.858,0,0,0-2.555.567L14.9,47.642l-.874-1.679a1.977,1.977,0,0,0-2.662-.838L7.251,47.267a1.977,1.977,0,0,0-.838,2.663l9.429,18.093a1.974,1.974,0,0,0,2.663.838l4.112-2.143a1.976,1.976,0,0,0,.838-2.662l-.874-1.679.769-.4a1.724,1.724,0,0,1,1.227-.022l9.2,1.974a11.591,11.591,0,0,0,2.44.314,5.786,5.786,0,0,0,2.731-.642L62.117,51.524a5.349,5.349,0,0,0,2.266-7.2ZM21.844,65.242l-4.112,2.143a.306.306,0,0,1-.232.019.3.3,0,0,1-.179-.149L7.89,49.161a.311.311,0,0,1,.129-.413L12.131,46.6a.3.3,0,0,1,.138-.033.279.279,0,0,1,.095.015.3.3,0,0,1,.179.149l9.429,18.093a.309.309,0,0,1-.128.413Zm41.3-17.349a3.645,3.645,0,0,1-1.8,2.155L38.173,62.122a5.724,5.724,0,0,1-4.051.177l-9.2-1.974a3.324,3.324,0,0,0-2.349.174l-.769.4L15.67,49.122l8.208-4.277a3.217,3.217,0,0,1,1.713-.381L38.02,45a3.67,3.67,0,0,1-.317,7.334l-8.364-.361a.834.834,0,0,0-.071,1.667L37.632,54a5.3,5.3,0,0,0,3.835-1.4,5.369,5.369,0,0,0,.765-.869l15.72-8.194a3.664,3.664,0,0,1,5.192,4.355ZM36.268,9.6a2.855,2.855,0,0,1,2.2-2.681v-1.2a.834.834,0,1,1,1.668,0V6.892a2.994,2.994,0,0,1,2.142,1.8.834.834,0,0,1-1.56.592,1.432,1.432,0,0,0-1.359-.815A1.319,1.319,0,0,0,37.936,9.6a.81.81,0,0,0,.484.81l1.15.393.038.014,1.407.56a2.238,2.238,0,0,1,1.315,2.209,2.855,2.855,0,0,1-2.2,2.681v1.2a.834.834,0,1,1-1.668,0V16.3a2.994,2.994,0,0,1-2.142-1.8.835.835,0,1,1,1.561-.591,1.432,1.432,0,0,0,1.359.815,1.319,1.319,0,0,0,1.419-1.133c0-.256-.07-.581-.264-.659l-1.389-.553-1.13-.388A2.451,2.451,0,0,1,36.268,9.6Zm15.049,4.764v-1.2a.834.834,0,0,1,1.668,0v1.175a2.994,2.994,0,0,1,2.142,1.8.835.835,0,1,1-1.561.591,1.432,1.432,0,0,0-1.359-.815,1.319,1.319,0,0,0-1.419,1.133.809.809,0,0,0,.484.81l1.15.393.038.014,1.407.56A2.237,2.237,0,0,1,55.18,21.03a2.855,2.855,0,0,1-2.2,2.681v1.2a.834.834,0,1,1-1.668,0V23.738a2.994,2.994,0,0,1-2.142-1.8.835.835,0,1,1,1.561-.591,1.432,1.432,0,0,0,1.359.815,1.319,1.319,0,0,0,1.419-1.133c0-.256-.07-.581-.264-.659l-1.389-.553-1.13-.388a2.451,2.451,0,0,1-1.611-2.39,2.857,2.857,0,0,1,2.2-2.676Zm-27.9,2.681a2.855,2.855,0,0,1,2.2-2.681v-1.2a.834.834,0,1,1,1.668,0v1.175a2.994,2.994,0,0,1,2.142,1.8.835.835,0,0,1-1.561.591,1.432,1.432,0,0,0-1.359-.815,1.319,1.319,0,0,0-1.419,1.133.809.809,0,0,0,.484.81l1.15.393.038.014,1.407.56a2.237,2.237,0,0,1,1.315,2.207,2.855,2.855,0,0,1-2.2,2.681v1.2a.834.834,0,1,1-1.668,0V23.738a2.994,2.994,0,0,1-2.142-1.8.835.835,0,1,1,1.561-.591,1.432,1.432,0,0,0,1.359.815,1.319,1.319,0,0,0,1.419-1.133c0-.256-.07-.581-.264-.659l-1.389-.553-1.13-.388a2.442,2.442,0,0,1-1.61-2.384Zm3.03,11.5a9.508,9.508,0,0,0,9.4-8.094,9.474,9.474,0,0,0,6.9,0A9.509,9.509,0,1,0,48.7,10.177a9.51,9.51,0,0,0-18.808,0,9.51,9.51,0,1,0-3.45,18.371Zm33.548-9.509a7.84,7.84,0,0,1-15.656.616A9.513,9.513,0,0,0,48.8,11.949a7.842,7.842,0,0,1,11.193,7.089ZM39.3,3.753a7.841,7.841,0,1,1-7.841,7.841A7.85,7.85,0,0,1,39.3,3.753ZM26.445,11.2a7.848,7.848,0,0,1,3.353.752,9.508,9.508,0,0,0,4.464,7.705A7.841,7.841,0,1,1,26.445,11.2ZM38.661,41.806a.836.836,0,0,0,1.276,0l7.89-9.354a.834.834,0,0,0-.637-1.372H44.256v-3.5a.835.835,0,0,0-.834-.834H35.176a.835.835,0,0,0-.834.834v3.5H31.407a.834.834,0,0,0-.637,1.372ZM35.176,32.75a.835.835,0,0,0,.834-.834v-3.5h6.578v3.5a.835.835,0,0,0,.834.834H45.4l-6.1,7.226L33.2,32.75Zm-15.7,1.619V32.806H17.917a.834.834,0,0,1,0-1.668h1.562V29.575a.834.834,0,1,1,1.668,0v1.562H22.71a.834.834,0,0,1,0,1.668H21.147v1.562a.834.834,0,0,1-1.668,0Zm7.032,6.539V39.346H24.949a.834.834,0,1,1,0-1.668h1.562V36.115a.834.834,0,0,1,1.668,0v1.562h1.562a.834.834,0,1,1,0,1.668H28.18v1.562a.834.834,0,0,1-1.668,0ZM57.45,34.369V32.806H55.888a.834.834,0,0,1,0-1.668H57.45V29.575a.834.834,0,1,1,1.668,0v1.562h1.562a.834.834,0,0,1,0,1.668H59.118v1.562a.834.834,0,0,1-1.668,0Zm-7.032,6.539V39.346H48.855a.834.834,0,1,1,0-1.668h1.562V36.115a.834.834,0,1,1,1.668,0v1.562h1.562a.834.834,0,0,1,0,1.668H52.086v1.562a.834.834,0,1,1-1.668,0Z" transform="translate(635.913 3769.915)" fill="#ffd947"/>
  </g>
</svg>
