<svg xmlns="http://www.w3.org/2000/svg" width="84.5" height="75" viewBox="0 0 84.5 75">
  <g id="Grupo_1100551" data-name="Grupo 1100551" transform="translate(-180 -953)">
    <path id="_12068" data-name="12068" d="M75.16,71.958c-8.653-1.195-17.793-.9-25.667,2.879C38.574,80.082,31.4,91.972,31.128,104.083s6.034,24.01,15.78,31.2,22.6,9.743,34.519,7.583c12.019-2.178,23.3-9.239,29.569-19.722,4.02-6.722,5.9-15.022,3.678-22.534a30.785,30.785,0,0,0-7.306-12.008A53.978,53.978,0,0,0,75.16,71.958Z" transform="translate(148.881 884.387)" fill="#7d6eb2"/>
    <g id="_003-approved" data-name="003-approved" transform="translate(191.603 953)">
      <path id="Trazado_129895" data-name="Trazado 129895" d="M58.138,24.413A13.7,13.7,0,0,1,55.37,20.79a14.655,14.655,0,0,1-.665-4.714c-.1-2.6-.2-5.293-1.928-7.018S48.361,7.23,45.759,7.13a14.589,14.589,0,0,1-4.715-.665A13.646,13.646,0,0,1,37.421,3.7C35.48,1.879,33.476,0,30.916,0s-4.564,1.879-6.5,3.695A13.746,13.746,0,0,1,20.79,6.462a14.645,14.645,0,0,1-4.715.665c-2.6.1-5.293.2-7.018,1.928s-1.828,4.416-1.928,7.018a14.632,14.632,0,0,1-.665,4.715A13.7,13.7,0,0,1,3.7,24.411C1.879,26.352,0,28.356,0,30.916s1.879,4.564,3.694,6.5a13.71,13.71,0,0,1,2.768,3.623,14.655,14.655,0,0,1,.665,4.714c.1,2.6.2,5.293,1.928,7.018S13.471,54.6,16.073,54.7a14.589,14.589,0,0,1,4.715.665,13.684,13.684,0,0,1,3.623,2.767c1.941,1.819,3.945,3.7,6.505,3.7s4.564-1.879,6.5-3.695a13.746,13.746,0,0,1,3.623-2.767,14.645,14.645,0,0,1,4.715-.665c2.6-.1,5.293-.2,7.018-1.928S54.6,48.361,54.7,45.759a14.618,14.618,0,0,1,.665-4.715,13.651,13.651,0,0,1,2.768-3.623c1.818-1.941,3.7-3.945,3.7-6.505S59.953,26.352,58.138,24.413ZM56.9,36.263A15.043,15.043,0,0,0,53.81,40.4a15.662,15.662,0,0,0-.793,5.3c-.091,2.382-.178,4.631-1.434,5.888s-3.506,1.343-5.888,1.434a15.765,15.765,0,0,0-5.3.792,15.062,15.062,0,0,0-4.134,3.1c-1.7,1.594-3.455,3.237-5.347,3.237S27.269,58.494,25.57,56.9a15.062,15.062,0,0,0-4.134-3.1,15.733,15.733,0,0,0-5.3-.792c-2.382-.091-4.631-.178-5.887-1.434s-1.343-3.506-1.434-5.888a15.77,15.77,0,0,0-.793-5.3A15.041,15.041,0,0,0,4.93,36.263c-1.594-1.7-3.239-3.455-3.239-5.347s1.646-3.648,3.237-5.347a15.043,15.043,0,0,0,3.095-4.134,15.734,15.734,0,0,0,.793-5.3c.091-2.382.178-4.631,1.434-5.888s3.506-1.343,5.888-1.434a15.765,15.765,0,0,0,5.3-.792,15.062,15.062,0,0,0,4.134-3.1c1.7-1.592,3.457-3.238,5.348-3.238s3.649,1.646,5.347,3.237a15.062,15.062,0,0,0,4.134,3.1,15.734,15.734,0,0,0,5.3.792c2.381.091,4.631.178,5.887,1.434s1.343,3.506,1.434,5.888a15.758,15.758,0,0,0,.793,5.3A15.041,15.041,0,0,0,56.9,25.568c1.594,1.7,3.237,3.455,3.237,5.347S58.5,34.564,56.9,36.263Z" fill="#12263f"/>
      <path id="Trazado_129896" data-name="Trazado 129896" d="M59.453,31.191A16.873,16.873,0,0,1,55.935,26.4a17.567,17.567,0,0,1-.956-6.046c-.112-2.9-.3-3.933-.8-4.434s-1.538-.688-4.434-.8a17.576,17.576,0,0,1-6.047-.957,16.862,16.862,0,0,1-4.788-3.518C37,8.855,35.929,8,35.052,8s-1.944.855-3.861,2.651A16.885,16.885,0,0,1,26.4,14.168a17.588,17.588,0,0,1-6.046.956c-2.9.111-3.933.3-4.434.8s-.688,1.538-.8,4.435a17.568,17.568,0,0,1-.956,6.046,16.9,16.9,0,0,1-3.52,4.79C8.854,33.108,8,34.174,8,35.052S8.855,37,10.65,38.912A16.873,16.873,0,0,1,14.168,43.7a17.567,17.567,0,0,1,.956,6.046c.111,2.9.3,3.933.8,4.434s1.538.688,4.434.8a17.576,17.576,0,0,1,6.047.957,16.868,16.868,0,0,1,4.788,3.518c1.916,1.8,2.982,2.65,3.86,2.65s1.944-.855,3.861-2.651A16.879,16.879,0,0,1,43.7,55.935a17.588,17.588,0,0,1,6.046-.956c2.9-.111,3.933-.3,4.434-.8s.688-1.538.8-4.435a17.568,17.568,0,0,1,.956-6.046,16.9,16.9,0,0,1,3.52-4.79c1.794-1.915,2.648-2.981,2.648-3.858S61.248,33.107,59.453,31.191Zm-1.234,6.566a18.182,18.182,0,0,0-3.845,5.3,18.865,18.865,0,0,0-1.084,6.629,15.473,15.473,0,0,1-.322,3.285,15.48,15.48,0,0,1-3.285.322,18.886,18.886,0,0,0-6.629,1.084,18.166,18.166,0,0,0-5.3,3.846A14.638,14.638,0,0,1,35.053,60.4a14.654,14.654,0,0,1-2.705-2.186,18.164,18.164,0,0,0-5.3-3.845,18.863,18.863,0,0,0-6.629-1.084,15.455,15.455,0,0,1-3.285-.323,15.474,15.474,0,0,1-.322-3.285,18.863,18.863,0,0,0-1.084-6.629,18.169,18.169,0,0,0-3.845-5.3A14.586,14.586,0,0,1,9.7,35.052a14.653,14.653,0,0,1,2.186-2.705,18.182,18.182,0,0,0,3.845-5.3,18.865,18.865,0,0,0,1.084-6.629,15.474,15.474,0,0,1,.322-3.285,15.475,15.475,0,0,1,3.285-.322,18.881,18.881,0,0,0,6.628-1.084,18.168,18.168,0,0,0,5.3-3.846A14.638,14.638,0,0,1,35.053,9.7a14.654,14.654,0,0,1,2.705,2.186,18.168,18.168,0,0,0,5.295,3.845,18.867,18.867,0,0,0,6.63,1.084,15.458,15.458,0,0,1,3.285.323,15.474,15.474,0,0,1,.322,3.285,18.863,18.863,0,0,0,1.084,6.629,18.169,18.169,0,0,0,3.845,5.3A14.586,14.586,0,0,1,60.4,35.052,14.653,14.653,0,0,1,58.219,37.757Z" transform="translate(-4.135 -4.135)" fill="#12263f"/>
      <path id="Trazado_129897" data-name="Trazado 129897" d="M57.308,39.913a.846.846,0,0,0-1.2,0L45.823,50.2l-3.816-3.816a.844.844,0,0,0-1.2,0l-5.469,5.465a.846.846,0,0,0,0,1.2l9.881,9.881a.845.845,0,0,0,1.2,0L62.774,46.574a.845.845,0,0,0,0-1.2ZM45.822,61.135l-8.686-8.685,4.27-4.269L45.222,52a.87.87,0,0,0,1.2,0L56.707,41.707l4.27,4.27Z" transform="translate(-18.142 -20.505)" fill="#12263f"/>
    </g>
  </g>
</svg>
