<svg xmlns="http://www.w3.org/2000/svg" width="91.927" height="91.928" viewBox="0 0 91.927 91.928">
  <g id="Grupo_1100767" data-name="Grupo 1100767" transform="translate(-1230 -8652)">
    <g id="Grupo_1100766" data-name="Grupo 1100766">
      <g id="Grupo_1100765" data-name="Grupo 1100765">
        <g id="Grupo_57589" data-name="Grupo 57589" transform="translate(1013 7910.667)">
          <g id="Grupo_42274" data-name="Grupo 42274" transform="translate(142 768.333)">
            <g id="Grupo_18423" data-name="Grupo 18423" transform="translate(75 -27)">
              <g id="Grupo_18421" data-name="Grupo 18421">
                <g id="Grupo_18420" data-name="Grupo 18420">
                  <g id="Grupo_18419" data-name="Grupo 18419">
                    <path id="Trazado_40936" data-name="Trazado 40936" d="M286.55,2191.684a45.964,45.964,0,1,1-45.963-45.962A45.963,45.963,0,0,1,286.55,2191.684Z" transform="translate(-194.623 -2145.721)" fill="#aee6e6"/>
                  </g>
                </g>
              </g>
              <path id="Trazado_40937" data-name="Trazado 40937" d="M286.23,2191.334a45.963,45.963,0,1,0-45.963,45.965A45.782,45.782,0,0,0,286.23,2191.334Z" transform="translate(-194.303 -2145.372)" fill="#aee6e6"/>
              <path id="Trazado_40938" data-name="Trazado 40938" d="M272.56,2188.562a35.084,35.084,0,1,0-35.084,35.084A34.953,34.953,0,0,0,272.56,2188.562Z" transform="translate(-191.373 -2142.446)" fill="#aee6e6" stroke="#31aebb" stroke-miterlimit="10" stroke-width="4"/>
              <g id="Grupo_18422" data-name="Grupo 18422" transform="translate(8.143 25.805)">
                <path id="Trazado_40939" data-name="Trazado 40939" d="M279.682,2164.488a45.969,45.969,0,0,1-79.137,45.773,45.823,45.823,0,0,0,79.137-45.773Z" transform="translate(-200.545 -2164.488)" fill="#aee6e6"/>
              </g>
            </g>
          </g>
        </g>
        <g id="_040-pay_per_click" data-name="040-pay per click" transform="translate(1198.036 8678.664)">
          <path id="Trazado_130931" data-name="Trazado 130931" d="M172,263.491v-.028a7.115,7.115,0,0,0-6.507-7.079,3.823,3.823,0,0,0-3.759-3.154h-3a5.469,5.469,0,0,0-5.463,5.463v3.23a4.084,4.084,0,1,1-8.168,0v-6.56a.69.69,0,1,0-1.38,0v6.56a5.464,5.464,0,0,0,10.928,0v-3.23a4.088,4.088,0,0,1,4.083-4.083h3a2.441,2.441,0,0,1,2.348,1.787,7.116,7.116,0,0,0-6.359,7.067v.024s0,0,0,.007,0,0,0,.007v6.43a7.114,7.114,0,0,0,7.107,7.107h.063A7.114,7.114,0,0,0,172,269.932v-1.387a.69.69,0,0,0-1.38,0v1.387a5.733,5.733,0,0,1-5.726,5.726h-.063a5.733,5.733,0,0,1-5.726-5.726v-5.747H170.62v1.352a.69.69,0,0,0,1.38,0V263.5s0,0,0,0S172,263.493,172,263.491Zm-1.419-.686h-5.029v-5.029A5.736,5.736,0,0,1,170.582,262.8Zm-6.409-5.028V262.8h-5.028A5.736,5.736,0,0,1,164.173,257.776Z" transform="translate(-76.122 -229.931)" fill="#26aab7"/>
          <path id="Trazado_130932" data-name="Trazado 130932" d="M95.281,0H60.574a.69.69,0,0,0-.69.69V20.105a.69.69,0,0,0,.69.69H67.6v1.63a.69.69,0,1,0,1.38,0V20.8h26.3a.69.69,0,0,0,.69-.69V.69A.69.69,0,0,0,95.281,0Zm-.69,19.415H61.264V1.38H94.591Z" fill="#26aab7"/>
          <path id="Trazado_130933" data-name="Trazado 130933" d="M92.379,44.709a1.72,1.72,0,0,1,1.294,1.275.69.69,0,0,0,.672.531h25.2a.69.69,0,0,0,.672-.531,1.72,1.72,0,0,1,1.294-1.275.69.69,0,0,0,.54-.674V34a.69.69,0,0,0-.54-.673,1.721,1.721,0,0,1-1.294-1.276.69.69,0,0,0-.672-.531h-2.708a.69.69,0,1,0,0,1.38h2.215a3.122,3.122,0,0,0,1.618,1.6v9.037a3.121,3.121,0,0,0-1.618,1.6h-8.132a11.464,11.464,0,0,0,1.618-6.118,11.464,11.464,0,0,0-1.618-6.118h2.909a.69.69,0,1,0,0-1.38H94.344a.69.69,0,0,0-.672.531,1.721,1.721,0,0,1-1.294,1.276.69.69,0,0,0-.54.673V44.036a.69.69,0,0,0,.54.674Zm18.775-5.691a9.4,9.4,0,0,1-1.966,6.118H104.7a9.4,9.4,0,0,1-1.966-6.118A9.4,9.4,0,0,1,104.7,32.9h4.489A9.4,9.4,0,0,1,111.154,39.018ZM93.219,34.5a3.122,3.122,0,0,0,1.618-1.6h8.132a11.464,11.464,0,0,0-1.618,6.118,11.464,11.464,0,0,0,1.618,6.118H94.837a3.122,3.122,0,0,0-1.618-1.6V34.5Z" transform="translate(-29.015 -28.62)" fill="#26aab7"/>
          <path id="Trazado_130934" data-name="Trazado 130934" d="M129.193,93.219a2.232,2.232,0,1,0-2.232-2.232A2.235,2.235,0,0,0,129.193,93.219Zm0-3.084a.852.852,0,1,1-.852.852A.853.853,0,0,1,129.193,90.135Z" transform="translate(-60.906 -80.589)" fill="#26aab7"/>
          <path id="Trazado_130935" data-name="Trazado 130935" d="M338.75,93.219a2.232,2.232,0,1,0-2.232-2.232A2.235,2.235,0,0,0,338.75,93.219Zm0-3.084a.852.852,0,1,1-.852.852A.853.853,0,0,1,338.75,90.135Z" transform="translate(-251.182 -80.589)" fill="#26aab7"/>
          <path id="Trazado_130936" data-name="Trazado 130936" d="M230.637,58.68v.883a1.557,1.557,0,0,0,1.079,1.484l2.011.653a.18.18,0,0,1,.125.172v.616a.519.519,0,0,1-.518.518h-.8a.519.519,0,0,1-.518-.518.69.69,0,1,0-1.38,0,1.9,1.9,0,0,0,1.608,1.874v.764a.69.69,0,1,0,1.38,0v-.764a1.9,1.9,0,0,0,1.607-1.874v-.616a1.557,1.557,0,0,0-1.079-1.484l-2.011-.653a.18.18,0,0,1-.125-.172V58.68a.375.375,0,0,1,.375-.375h1.085a.375.375,0,0,1,.375.375.69.69,0,1,0,1.38,0,1.756,1.756,0,0,0-1.607-1.747v-.747a.69.69,0,1,0-1.38,0v.747A1.756,1.756,0,0,0,230.637,58.68Z" transform="translate(-155.043 -50.39)" fill="#26aab7"/>
        </g>
      </g>
    </g>
  </g>
</svg>
