<svg xmlns="http://www.w3.org/2000/svg" width="121.582" height="104" viewBox="0 0 121.582 104">
  <g id="Grupo_1100781" data-name="Grupo 1100781" transform="translate(-1209 -1291)">
    <g id="Grupo_1100780" data-name="Grupo 1100780">
      <g id="Grupo_1100779" data-name="Grupo 1100779">
        <g id="Grupo_1100778" data-name="Grupo 1100778">
          <path id="_12068" data-name="12068" d="M94.486,72.232c-12.45-1.719-25.6-1.3-36.93,4.143-15.711,7.546-26.029,24.655-26.425,42.08s8.682,34.547,22.705,44.9S86.354,177.37,103.5,174.263c17.293-3.134,33.524-13.294,42.545-28.377,5.784-9.672,8.488-21.615,5.292-32.422-1.929-6.523-5.873-12.3-10.512-17.278A77.665,77.665,0,0,0,94.486,72.232Z" transform="translate(1177.881 1219.667)" fill="#7d6eb2"/>
          <g id="_101-mobile_phone" data-name="101-mobile phone" transform="translate(1220.25 1298.5)">
            <path id="Trazado_131006" data-name="Trazado 131006" d="M84.292,78H49.623a4.378,4.378,0,0,1-4.373-4.373V47.662a.523.523,0,1,1,1.046,0V73.627a3.331,3.331,0,0,0,3.327,3.327h34.67a3.331,3.331,0,0,0,3.327-3.327V14.368a3.328,3.328,0,0,0-3.327-3.322H49.623A3.328,3.328,0,0,0,46.3,14.368V27.131a.523.523,0,1,1-1.046,0V14.368A4.375,4.375,0,0,1,49.623,10h34.67a4.375,4.375,0,0,1,4.373,4.368V73.627A4.378,4.378,0,0,1,84.292,78Z" transform="translate(-11.208)" fill="#ffd947"/>
            <path id="Trazado_131007" data-name="Trazado 131007" d="M88.14,25.024H45.773a.523.523,0,1,1,0-1.046H88.142a.523.523,0,1,1,0,1.046Z" transform="translate(-11.208 -6.666)" fill="#ffd947"/>
            <path id="Trazado_131008" data-name="Trazado 131008" d="M88.14,119.266H45.773a.523.523,0,1,1,0-1.046H88.142a.523.523,0,1,1,0,1.046Z" transform="translate(-11.208 -51.613)" fill="#ffd947"/>
            <path id="Trazado_131009" data-name="Trazado 131009" d="M86.625,18.446H78.574a.523.523,0,1,1,0-1.046h8.051a.523.523,0,1,1,0,1.046Z" transform="translate(-26.851 -3.529)" fill="#ffd947"/>
            <path id="Trazado_131010" data-name="Trazado 131010" d="M83.776,129.5a3.261,3.261,0,1,1,3.258-3.263A3.261,3.261,0,0,1,83.776,129.5Zm0-5.475a2.215,2.215,0,1,0,2.212,2.212,2.215,2.215,0,0,0-2.212-2.212Z" transform="translate(-28.025 -53.884)" fill="#ffd947"/>
            <path id="Trazado_131011" data-name="Trazado 131011" d="M44.064,68.066a.523.523,0,0,1-.369-.153L39.1,63.327H25.877A4.132,4.132,0,0,1,21.75,59.2V45.877a4.132,4.132,0,0,1,4.127-4.127H43.662a4.132,4.132,0,0,1,4.127,4.127V59.2a4.11,4.11,0,0,1-3.2,4.022v4.321a.523.523,0,0,1-.523.523ZM25.877,42.8A3.086,3.086,0,0,0,22.8,45.877V59.2a3.086,3.086,0,0,0,3.081,3.081H39.32a.523.523,0,0,1,.369.153l3.852,3.847v-3.5a.523.523,0,0,1,.467-.52A3.064,3.064,0,0,0,46.743,59.2V45.877A3.086,3.086,0,0,0,43.662,42.8Z" transform="translate(0 -15.142)" fill="#ffd947"/>
            <path id="Trazado_131012" data-name="Trazado 131012" d="M36.781,55.971a2.793,2.793,0,1,1,2.581-1.723A2.794,2.794,0,0,1,36.781,55.971Zm0-4.539a1.746,1.746,0,1,0,1.237.511,1.746,1.746,0,0,0-1.237-.511Z" transform="translate(-5.836 -19.26)" fill="#ffd947"/>
            <path id="Trazado_131013" data-name="Trazado 131013" d="M50.624,69.816A2.8,2.8,0,1,1,53.2,68.091,2.794,2.794,0,0,1,50.624,69.816Zm0-4.541a1.747,1.747,0,0,0-1.234,2.982,1.786,1.786,0,0,0,2.468,0,1.744,1.744,0,0,0-1.234-2.982Z" transform="translate(-12.439 -25.863)" fill="#ffd947"/>
            <path id="Trazado_131014" data-name="Trazado 131014" d="M35.661,63.163a.523.523,0,0,1-.37-.893L45.87,51.691a.523.523,0,1,1,.74.74L36.031,63.01A.523.523,0,0,1,35.661,63.163Z" transform="translate(-6.385 -19.81)" fill="#ffd947"/>
          </g>
        </g>
      </g>
    </g>
  </g>
</svg>
