<svg xmlns="http://www.w3.org/2000/svg" width="121.582" height="104" viewBox="0 0 121.582 104">
  <g id="Grupo_1100770" data-name="Grupo 1100770" transform="translate(-273 -1291)">
    <g id="Grupo_1100769" data-name="Grupo 1100769">
      <g id="Grupo_1100768" data-name="Grupo 1100768">
        <path id="_12068" data-name="12068" d="M94.486,72.232c-12.45-1.719-25.6-1.3-36.93,4.143-15.711,7.546-26.029,24.655-26.425,42.08s8.682,34.547,22.705,44.9S86.354,177.37,103.5,174.263c17.293-3.134,33.524-13.294,42.545-28.377,5.784-9.672,8.488-21.615,5.292-32.422-1.929-6.523-5.873-12.3-10.512-17.278A77.665,77.665,0,0,0,94.486,72.232Z" transform="translate(241.881 1219.667)" fill="#7d6eb2"/>
        <g id="_055-rocket" data-name="055-rocket" transform="translate(289.995 1302.566)">
          <path id="Trazado_131039" data-name="Trazado 131039" d="M60.28,58.649a.511.511,0,0,1-.27-.945C88.469,40.043,91.993,15.193,92.384,11.11,88.3,11.5,63.392,15,45.745,43.44a.511.511,0,0,1-.869-.539C55.05,26.506,67.555,18.447,76.254,14.574c9.443-4.2,16.376-4.519,16.666-4.529a.489.489,0,0,1,.382.15.511.511,0,0,1,.149.381c-.011.29-.336,7.212-4.552,16.644C85.015,35.906,76.944,48.4,60.55,58.572a.511.511,0,0,1-.269.077Z" transform="translate(-17.013)" fill="#ffd947"/>
          <path id="Trazado_131040" data-name="Trazado 131040" d="M123.675,26.318a.511.511,0,0,1-.361-.15l-9.583-9.583a.511.511,0,1,1,.723-.723l9.582,9.583a.511.511,0,0,1-.361.872Z" transform="translate(-50.644 -2.772)" fill="#ffd947"/>
          <path id="Trazado_131041" data-name="Trazado 131041" d="M91.778,49.99A9.079,9.079,0,1,1,98.2,47.336,9.079,9.079,0,0,1,91.778,49.99Zm-.008-17.144a8.065,8.065,0,1,0,5.7,2.358,8.065,8.065,0,0,0-5.7-2.358Z" transform="translate(-35.547 -10.653)" fill="#ffd947"/>
          <path id="Trazado_131042" data-name="Trazado 131042" d="M95.4,49.833a5.286,5.286,0,1,1,3.741-1.547A5.286,5.286,0,0,1,95.4,49.833Zm0-9.563a4.273,4.273,0,1,0,3.948,2.637A4.272,4.272,0,0,0,95.4,40.27Z" transform="translate(-39.174 -14.286)" fill="#ffd947"/>
          <path id="Trazado_131043" data-name="Trazado 131043" d="M41.863,91.833a.511.511,0,0,1-.427-.792c.041-.063,4-6.268,1.557-16.507l-3.271,3.271a.511.511,0,0,1-.723,0L24.033,62.835a.511.511,0,0,1,0-.723L27.3,58.842C17.067,56.4,10.859,60.357,10.8,60.4a.511.511,0,0,1-.722-.685c7.574-12.9,15.485-16.819,20.787-17.835a16.321,16.321,0,0,1,9.914.942.511.511,0,1,1-.465.91,15.635,15.635,0,0,0-9.325-.836c-4.864.952-12.04,4.492-19.1,15.8,2.657-1.149,8.413-2.806,16.547-.62a.511.511,0,0,1,.228.855l-3.543,3.543L39.362,76.719l3.543-3.543a.511.511,0,0,1,.855.229c2.184,8.132.528,13.886-.62,16.546,11.308-7.061,14.849-14.237,15.8-19.1a15.629,15.629,0,0,0-.836-9.325.511.511,0,1,1,.91-.465,16.326,16.326,0,0,1,.942,9.914c-1.017,5.3-4.937,13.212-17.835,20.787a.511.511,0,0,1-.258.071Z" transform="translate(0 -15.4)" fill="#ffd947"/>
          <path id="Trazado_131044" data-name="Trazado 131044" d="M23.748,107.847q-1.022,0-2.1-.083a.511.511,0,0,1-.468-.45c-1.7-14.536,10.513-21.226,10.636-21.292a.511.511,0,0,1,.481.9c-.117.062-11.491,6.314-10.148,19.851A20.987,20.987,0,0,0,42.012,96.651a.511.511,0,0,1,.91.467,22,22,0,0,1-19.173,10.728Z" transform="translate(-5.384 -37.121)" fill="#ffd947"/>
          <path id="Trazado_131045" data-name="Trazado 131045" d="M34.966,103.5c-.26,0-.522-.006-.791-.019A.511.511,0,0,1,33.69,103a14.054,14.054,0,0,1,6.449-12.776.511.511,0,0,1,.494.895,12.751,12.751,0,0,0-5.938,11.36,12.874,12.874,0,0,0,11.362-5.94.511.511,0,0,1,.891.5A14.16,14.16,0,0,1,34.966,103.5Z" transform="translate(-11.566 -39.174)" fill="#ffd947"/>
          <path id="Trazado_131046" data-name="Trazado 131046" d="M60.28,89.855a.507.507,0,0,1-.361-.15L44.951,74.737a.511.511,0,1,1,.723-.723L60.643,88.983a.511.511,0,0,1-.361.872Z" transform="translate(-17.014 -31.206)" fill="#ffd947"/>
        </g>
      </g>
    </g>
  </g>
</svg>
