<svg xmlns="http://www.w3.org/2000/svg" width="121.582" height="104" viewBox="0 0 121.582 104">
  <g id="Grupo_1100777" data-name="Grupo 1100777" transform="translate(-897 -1291)">
    <g id="Grupo_1100776" data-name="Grupo 1100776">
      <g id="Grupo_1100775" data-name="Grupo 1100775">
        <path id="_12068" data-name="12068" d="M94.486,72.232c-12.45-1.719-25.6-1.3-36.93,4.143-15.711,7.546-26.029,24.655-26.425,42.08s8.682,34.547,22.705,44.9S86.354,177.37,103.5,174.263c17.293-3.134,33.524-13.294,42.545-28.377,5.784-9.672,8.488-21.615,5.292-32.422-1.929-6.523-5.873-12.3-10.512-17.278A77.665,77.665,0,0,0,94.486,72.232Z" transform="translate(865.881 1219.667)" fill="#7d6eb2"/>
        <g id="_083-order" data-name="083-order" transform="translate(912 1295.305)">
          <path id="Trazado_131015" data-name="Trazado 131015" d="M27.7,30.215H10.542A.542.542,0,0,1,10,29.673V19.809a.542.542,0,0,1,.542-.542H27.7a.542.542,0,0,1,.542.542v9.864A.542.542,0,0,1,27.7,30.215ZM11.083,29.131H27.158V20.35H11.083Z" fill="#ffd947"/>
          <path id="Trazado_131016" data-name="Trazado 131016" d="M38.826,59.945H21.669a.542.542,0,0,1-.542-.542V49.542A.542.542,0,0,1,21.669,49H38.826a.542.542,0,0,1,.542.542V59.4A.542.542,0,0,1,38.826,59.945ZM22.209,58.861H38.284V50.083H22.21Z" transform="translate(-5.1 -13.627)" fill="#ffd947"/>
          <path id="Trazado_131017" data-name="Trazado 131017" d="M27.7,87.845H10.542A.542.542,0,0,1,10,87.3V77.442a.542.542,0,0,1,.542-.542H27.7a.542.542,0,0,1,.542.542V87.3A.542.542,0,0,1,27.7,87.845ZM11.083,86.762H27.158V77.983H11.083Z" transform="translate(0 -26.414)" fill="#ffd947"/>
          <path id="Trazado_131018" data-name="Trazado 131018" d="M105.006,39.319H86.054a.542.542,0,0,1-.542-.542V28.914a.542.542,0,0,1,.542-.542h18.953a.542.542,0,0,1,.542.542v9.864A.542.542,0,0,1,105.006,39.319ZM86.593,38.236h17.871v-8.78H86.6Z" transform="translate(-34.608 -4.173)" fill="#ffd947"/>
          <path id="Trazado_131019" data-name="Trazado 131019" d="M122.5,68.025H103.55a.542.542,0,0,1-.542-.542V57.62a.542.542,0,0,1,.542-.542H122.5a.542.542,0,0,1,.542.542v9.864A.542.542,0,0,1,122.5,68.025Zm-18.413-1.083h17.871v-8.78H104.091Z" transform="translate(-42.626 -17.329)" fill="#ffd947"/>
          <path id="Trazado_131020" data-name="Trazado 131020" d="M122.089,96.948H109.972a.542.542,0,0,1-.542-.542V86.542a.542.542,0,0,1,.542-.542h12.118a.542.542,0,0,1,.542.542v9.864a.542.542,0,0,1-.542.543Zm-11.574-1.083h11.033V87.083H110.513Z" transform="translate(-45.57 -30.584)" fill="#ffd947"/>
          <path id="Trazado_131021" data-name="Trazado 131021" d="M26.38,73.541a.542.542,0,0,1-.356-.95l6.027-5.251a.542.542,0,0,1,.712.817l-6.028,5.248a.538.538,0,0,1-.355.135Z" transform="translate(-7.259 -21.972)" fill="#ffd947"/>
          <path id="Trazado_131022" data-name="Trazado 131022" d="M32.407,44.8a.538.538,0,0,1-.389-.166l-6.028-6.242a.542.542,0,0,1,.779-.752L32.8,43.881a.542.542,0,0,1-.389.921Z" transform="translate(-7.258 -8.346)" fill="#ffd947"/>
          <path id="Trazado_131023" data-name="Trazado 131023" d="M53.341,49.739a.542.542,0,0,1-.289-1L70.771,37.567a.542.542,0,0,1,.577.916L53.631,49.655a.536.536,0,0,1-.29.083Z" transform="translate(-19.615 -8.353)" fill="#ffd947"/>
          <path id="Trazado_131024" data-name="Trazado 131024" d="M113.088,53.35a.542.542,0,0,1-.277-.076l-9.535-5.687a.542.542,0,1,1,.555-.931l9.537,5.688a.542.542,0,0,1-.278,1.007Z" transform="translate(-42.628 -12.518)" fill="#ffd947"/>
          <path id="Trazado_131025" data-name="Trazado 131025" d="M121.156,82.162a.523.523,0,0,1-.115-.012.542.542,0,0,1-.414-.644l1.26-5.8a.542.542,0,1,1,1.058.23l-1.26,5.8a.542.542,0,0,1-.529.427Z" transform="translate(-50.695 -25.663)" fill="#ffd947"/>
          <path id="Trazado_131026" data-name="Trazado 131026" d="M69.16,87.08a4.694,4.694,0,0,1-1.233-.163c-3.657-1-5-4.563-5.221-5.23-1.729-2.248-2.438-4.113-2.1-5.541a2.438,2.438,0,0,1,.784-1.323c-1.107-7.775,4.087-9.086,4.14-9.1,3.772-.985,6.641-.856,8.514.388a4.294,4.294,0,0,1,1.771,2.307,1.632,1.632,0,0,1,.479.41c.7.855.928,2.522.686,4.96a1.246,1.246,0,0,1,.564.32c.637.625.657,1.9.06,3.907a6.664,6.664,0,0,1-2.048,3.025c-.267.875-1.452,4.194-4.426,5.6a4.615,4.615,0,0,1-1.97.44Zm.823-20.918a16.864,16.864,0,0,0-4.194.615c-.191.047-4.419,1.171-3.28,8.207a.542.542,0,0,1-.3.575,1.285,1.285,0,0,0-.559.867c-.163.764.045,2.2,1.969,4.673a.554.554,0,0,1,.092.178c.011.037,1.138,3.678,4.5,4.594a3.56,3.56,0,0,0,2.456-.209c2.9-1.369,3.889-5.061,3.9-5.1a.542.542,0,0,1,.246-.329A5.255,5.255,0,0,0,76.571,77.7c.658-2.21.3-2.727.219-2.808a.294.294,0,0,0-.26-.049.554.554,0,0,1-.5-.113.542.542,0,0,1-.189-.473c.549-4.425-.562-4.892-.573-4.9a.488.488,0,0,1-.444-.455,3.07,3.07,0,0,0-1.4-1.9A6.25,6.25,0,0,0,69.983,66.162Z" transform="translate(-23.155 -20.993)" fill="#ffd947"/>
          <path id="Trazado_131027" data-name="Trazado 131027" d="M61.559,116.972c-9.761,0-15.827-2.438-15.917-2.474a.542.542,0,0,1-.335-.485,12.725,12.725,0,0,1,2.162-6.995,6.805,6.805,0,0,1,2.987-2.562L58.3,100.95a.542.542,0,0,1,.442.989L50.9,105.444a5.722,5.722,0,0,0-2.513,2.156,11.888,11.888,0,0,0-2,6.022c2.154.772,14.568,4.718,31.686-.035a11.914,11.914,0,0,0-2-5.987,5.722,5.722,0,0,0-2.515-2.154l-8.134-3.664a.542.542,0,1,1,.445-.988l8.132,3.663a6.8,6.8,0,0,1,2.986,2.562,12.731,12.731,0,0,1,2.162,6.995.542.542,0,0,1-.393.505,62.867,62.867,0,0,1-17.2,2.452Z" transform="translate(-16.18 -37.343)" fill="#ffd947"/>
        </g>
      </g>
    </g>
  </g>
</svg>
