<svg xmlns="http://www.w3.org/2000/svg" width="121.582" height="104" viewBox="0 0 121.582 104">
  <g id="Grupo_1100774" data-name="Grupo 1100774" transform="translate(-585 -1291)">
    <g id="Grupo_1100773" data-name="Grupo 1100773">
      <g id="Grupo_1100772" data-name="Grupo 1100772">
        <g id="Grupo_1100771" data-name="Grupo 1100771">
          <path id="_12068" data-name="12068" d="M94.486,72.232c-12.45-1.719-25.6-1.3-36.93,4.143-15.711,7.546-26.029,24.655-26.425,42.08s8.682,34.547,22.705,44.9S86.354,177.37,103.5,174.263c17.293-3.134,33.524-13.294,42.545-28.377,5.784-9.672,8.488-21.615,5.292-32.422-1.929-6.523-5.873-12.3-10.512-17.278A77.665,77.665,0,0,0,94.486,72.232Z" transform="translate(553.881 1219.667)" fill="#7d6eb2"/>
          <g id="_093-report" data-name="093-report" transform="translate(594.236 1292.934)">
            <path id="Trazado_131028" data-name="Trazado 131028" d="M80.072,84.89H23.318a.554.554,0,0,1-.554-.554V17.031a.554.554,0,0,1,.554-.554H46.175a.554.554,0,1,1,0,1.108h-22.3v66.2H79.518v-66.2H57.291a.554.554,0,1,1,0-1.108h22.78a.554.554,0,0,1,.554.554V84.336A.554.554,0,0,1,80.072,84.89Z" transform="translate(0 -2.89)" fill="#ffd947"/>
            <path id="Trazado_131029" data-name="Trazado 131029" d="M78.582,84.032H34.575a.554.554,0,0,1-.554-.554V29.448a.554.554,0,0,1,.554-.554h8.351a.554.554,0,0,1,0,1.108h-7.8V82.924h42.9V30H70.5a.554.554,0,0,1,0-1.108h8.086a.554.554,0,0,1,.554.554v54.03A.554.554,0,0,1,78.582,84.032Z" transform="translate(-5.022 -8.43)" fill="#ffd947"/>
            <path id="Trazado_131030" data-name="Trazado 131030" d="M77.223,26.1H49.654a.554.554,0,0,1-.554-.554V17.031a.554.554,0,0,1,.554-.554h8.271a.554.554,0,1,1,0,1.108H50.208v7.4H76.669v-7.4H69.041a.554.554,0,1,1,0-1.108h8.182a.554.554,0,0,1,.554.554v8.513A.554.554,0,0,1,77.223,26.1Z" transform="translate(-11.75 -2.89)" fill="#ffd947"/>
            <path id="Trazado_131031" data-name="Trazado 131031" d="M75.7,18.589H64.587a.554.554,0,0,1-.554-.554V10.554A.554.554,0,0,1,64.587,10H75.7a.554.554,0,0,1,.554.554v7.481A.554.554,0,0,1,75.7,18.589ZM65.141,17.481H75.15V11.108H65.141Z" transform="translate(-18.412)" fill="#ffd947"/>
            <path id="Trazado_131032" data-name="Trazado 131032" d="M64.258,66.063A13.023,13.023,0,1,1,77.281,53.04,13.023,13.023,0,0,1,64.258,66.063Zm0-24.939A11.915,11.915,0,1,0,76.174,53.04,11.915,11.915,0,0,0,64.258,41.125Z" transform="translate(-12.702 -13.392)" fill="#ffd947"/>
            <path id="Trazado_131033" data-name="Trazado 131033" d="M67.5,64.415a.554.554,0,0,1-.391-.162L62.88,60.027a.554.554,0,1,1,.783-.783L67.5,63.078l7.6-7.6a.554.554,0,1,1,.783.783l-7.993,7.993A.554.554,0,0,1,67.5,64.415Z" transform="translate(-17.826 -20.217)" fill="#ffd947"/>
            <path id="Trazado_131034" data-name="Trazado 131034" d="M52.456,102.662H47.095a.554.554,0,1,1,0-1.108h5.361a.554.554,0,1,1,0,1.108Z" transform="translate(-10.608 -40.847)" fill="#ffd947"/>
            <path id="Trazado_131035" data-name="Trazado 131035" d="M97.337,102.662H91.978a.554.554,0,1,1,0-1.108h5.359a.554.554,0,0,1,0,1.108Z" transform="translate(-30.633 -40.847)" fill="#ffd947"/>
            <path id="Trazado_131036" data-name="Trazado 131036" d="M75.075,102.662H67.881a.554.554,0,1,1,0-1.108h7.194a.554.554,0,1,1,0,1.108Z" transform="translate(-19.882 -40.847)" fill="#ffd947"/>
            <path id="Trazado_131037" data-name="Trazado 131037" d="M52.456,115.572H47.095a.554.554,0,0,1,0-1.108h5.361a.554.554,0,1,1,0,1.108Z" transform="translate(-10.608 -46.607)" fill="#ffd947"/>
            <path id="Trazado_131038" data-name="Trazado 131038" d="M75.075,115.572H67.881a.554.554,0,0,1,0-1.108h7.194a.554.554,0,1,1,0,1.108Z" transform="translate(-19.882 -46.607)" fill="#ffd947"/>
          </g>
        </g>
      </g>
    </g>
  </g>
</svg>
