<svg id="Grupo_1100734" data-name="Grupo 1100734" xmlns="http://www.w3.org/2000/svg" xmlns:xlink="http://www.w3.org/1999/xlink" width="190" height="168.264" viewBox="0 0 190 168.264">
  <defs>
    <clipPath id="clip-path">
      <rect id="Rectángulo_401920" data-name="Rectángulo 401920" width="190" height="168.264" fill="none"/>
    </clipPath>
  </defs>
  <g id="Grupo_1100733" data-name="Grupo 1100733" clip-path="url(#clip-path)">
    <path id="Trazado_875470" data-name="Trazado 875470" d="M228,114.481c-1.827,106.951-160.914,106.934-162.725,0C67.1,7.531,226.188,7.547,228,114.481" transform="translate(-50.324 -26.424)" fill="#7d6eb2"/>
    <path id="Trazado_875471" data-name="Trazado 875471" d="M21.063,653.352H10.045a.744.744,0,0,1,0-1.489H21.063a.745.745,0,0,1,0,1.489" transform="translate(-7.171 -502.56)" fill="#2e0f07"/>
    <path id="Trazado_875472" data-name="Trazado 875472" d="M320.421,653.352H309.4a.744.744,0,0,1,0-1.489h11.018a.745.745,0,0,1,0,1.489" transform="translate(-237.963 -502.56)" fill="#2e0f07"/>
    <path id="Trazado_875473" data-name="Trazado 875473" d="M133.673,653.352H89.6a.744.744,0,0,1,0-1.489h44.072a.745.745,0,0,1,0,1.489" transform="translate(-68.505 -502.56)" fill="#2e0f07"/>
    <path id="Trazado_875474" data-name="Trazado 875474" d="M432.743,652.535c-.757-.725-107.263,1.4-107.109-.743-.173-2.145,106.372-.022,107.111-.748a.746.746,0,0,1,0,1.49" transform="translate(-251.051 -501.743)" fill="#2e0f07"/>
    <path id="Trazado_875475" data-name="Trazado 875475" d="M116.721,28.069V21.127h-6.508a14.77,14.77,0,0,0-1.779-4.3l4.6-4.6L108.127,7.32l-4.6,4.6a14.772,14.772,0,0,0-4.3-1.779V3.634H92.287v6.508a14.769,14.769,0,0,0-4.3,1.779l-4.6-4.6L78.48,12.228l4.6,4.6a14.764,14.764,0,0,0-1.779,4.3H74.794v6.942H81.3a14.762,14.762,0,0,0,1.779,4.3l-4.6,4.6,4.908,4.908,4.6-4.6a14.781,14.781,0,0,0,4.3,1.779v6.508h6.942V39.053a14.778,14.778,0,0,0,4.3-1.779l4.6,4.6,4.909-4.908-4.6-4.6a14.768,14.768,0,0,0,1.779-4.3ZM95.758,33.377c-11.54-.2-11.538-17.362,0-17.558,11.539.2,11.537,17.362,0,17.558" transform="translate(-57.663 -2.802)" fill="#93e4e3"/>
    <path id="Trazado_875476" data-name="Trazado 875476" d="M129.127,45.441V38.5h-6.508a14.786,14.786,0,0,0-1.779-4.3l4.6-4.6-3.433-3.433a34.462,34.462,0,0,1-6.535,10.941c6.378,10.054-8.733,19.386-14.887,9.293q-2.77,1.312-5.6,2.447c.158.3.325.6.5.89l-4.6,4.6,4.908,4.908,4.6-4.6a14.783,14.783,0,0,0,4.3,1.779v6.508h6.942V56.426a14.782,14.782,0,0,0,4.3-1.779l4.6,4.6,4.908-4.908-4.6-4.6a14.782,14.782,0,0,0,1.779-4.3Z" transform="translate(-70.069 -20.174)" fill="#4bd2d0"/>
    <path id="Trazado_875477" data-name="Trazado 875477" d="M96.427,43.5c-9.074-.489-7.6,2.475-7.686-6.676a15.5,15.5,0,0,1-3.434-1.421c-6.538,6.435-3.424,5.313-10.155-.715a.744.744,0,0,1,0-1.053l4.194-4.194a15.5,15.5,0,0,1-1.421-3.434c-9.15-.089-6.188,1.389-6.677-7.686a.745.745,0,0,1,.745-.744h5.932a15.509,15.509,0,0,1,1.421-3.434c-6.435-6.538-5.312-3.424.715-10.155a.744.744,0,0,1,1.053,0l4.194,4.194a15.5,15.5,0,0,1,3.434-1.421C88.83-2.384,87.352.577,96.427.089a.745.745,0,0,1,.744.745V6.765A15.486,15.486,0,0,1,100.6,8.187c6.538-6.435,3.425-5.313,10.155.714a.749.749,0,0,1,0,1.053l-4.194,4.194a15.494,15.494,0,0,1,1.421,3.434c9.15.089,6.188-1.389,6.677,7.686a.745.745,0,0,1-.745.744h-5.932a15.505,15.505,0,0,1-1.421,3.434l4.194,4.194a.749.749,0,0,1,0,1.053c-6.723,6.015-3.614,7.158-10.155.715a15.493,15.493,0,0,1-3.434,1.421V42.76a.744.744,0,0,1-.744.744m-6.2-1.489h5.453V36.252a.745.745,0,0,1,.571-.724c6.862-2.021,2.7-3.451,9.072,2.494l3.856-3.856c-5.94-6.366-4.518-2.205-2.493-9.072a.744.744,0,0,1,.724-.571h5.764V19.07h-5.764a.745.745,0,0,1-.724-.571c-2.021-6.862-3.451-2.7,2.494-9.072l-3.856-3.856c-6.366,5.939-2.205,4.518-9.072,2.493a.744.744,0,0,1-.571-.724V1.578H90.229V7.341a.745.745,0,0,1-.571.724c-6.862,2.021-2.7,3.451-9.072-2.493L76.731,9.427c5.939,6.366,4.518,2.205,2.493,9.072a.744.744,0,0,1-.724.571H72.737v5.453H78.5a.744.744,0,0,1,.724.571c2.021,6.862,3.451,2.7-2.493,9.072l3.856,3.856c6.366-5.939,2.205-4.518,9.072-2.493a.744.744,0,0,1,.571.724Zm2.727-10.7c-12.516-.224-12.514-18.824,0-19.047,12.515.225,12.513,18.824,0,19.047m0-17.558c-10.559.19-10.557,15.881,0,16.069,10.559-.189,10.557-15.881,0-16.069" transform="translate(-54.861 -0.001)" fill="#2e0f07"/>
    <path id="Trazado_875478" data-name="Trazado 875478" d="M504.078,88.257v9.428l36.485-.546c1.159-10.295.415-20.856-12.412-21.692h-35.9v.037a12.811,12.811,0,0,1,11.824,12.773" transform="translate(-379.508 -58.167)" fill="#d9e4f1"/>
    <path id="Trazado_875479" data-name="Trazado 875479" d="M521.716,83.78c3.081-5.264,9.052-6.6,14.562-5.424a12.756,12.756,0,0,0-8.127-2.908h-35.9v.037c12.241,1.352,12.316,12.479,11.824,22.2l14.845-.222c-.386-4.752.03-9.484,2.793-13.684" transform="translate(-379.507 -58.167)" fill="#c6d7eb"/>
    <path id="Trazado_875480" data-name="Trazado 875480" d="M501.62,95.924a.749.749,0,0,1-.744-.744V85.752a12.127,12.127,0,0,0-11.136-12.03A.765.765,0,0,1,489.8,72.2h35.9c13.228.842,14.441,11.694,13.154,22.47a.743.743,0,0,1-.732.711s-36.491.544-36.5.546m-6.625-22.238c8.475,4.34,7.439,12.713,7.37,20.739l35.028-.525c1.118-9.644.23-19.44-11.7-20.214h-30.7" transform="translate(-377.05 -55.661)" fill="#2e0f07"/>
    <path id="Trazado_875481" data-name="Trazado 875481" d="M265.266,73.476c-152.632-.164-106.505-16.32-113.818,132.807,127.45,2.4,91.823,3.224,97.227-113.094,0-10.887,5.7-19.713,16.591-19.713" transform="translate(-115.865 -56.196)" fill="#fff"/>
    <path id="Trazado_875482" data-name="Trazado 875482" d="M226.207,205.423H152.852a.744.744,0,0,1-.744-.744V91.586a20.482,20.482,0,0,1,20.459-20.459c.133,1.145,102.511-2.236,94.1,1.487-10.526-.05-15.916,8.812-15.85,18.971v89.222c.273,13.228-11.383,24.891-24.615,24.615m-72.61-1.489c125.847,2.252,90.31,3.8,95.738-112.349.1-8.348,3.011-15.569,10.113-18.969-142.5-.284-98.875-15.428-105.851,131.318" transform="translate(-117.269 -54.591)" fill="#2e0f07"/>
    <path id="Trazado_875483" data-name="Trazado 875483" d="M143.6,528.489V514.925H64.01c-.8,14.676-.314,31.018,18.429,31.992H160.61v-.054a18.43,18.43,0,0,1-17.01-18.375" transform="translate(-49.182 -396.986)" fill="#d9e4f1"/>
    <path id="Trazado_875484" data-name="Trazado 875484" d="M147.477,580.234c-23.5-.652-69.234,6.176-83.062-17.11-1.083,11,7.162,21.026,18.429,20.952h78.172v-.054a18.338,18.338,0,0,1-10.031-3.935c-1.167.063-2.336.114-3.508.146" transform="translate(-49.588 -434.146)" fill="#c6d7eb"/>
    <path id="Trazado_875485" data-name="Trazado 875485" d="M158.048,544.344H79.876c-19.12-.973-20.1-17.589-19.172-32.737-.165-2.134,79.593-.025,80.335-.746a.746.746,0,0,1,.743.746v13.564A17.773,17.773,0,0,0,158.105,542.8a.774.774,0,0,1-.057,1.541M62.192,512.352c-.8,14.042-.171,29.57,17.685,30.5h72.167c-13.389-5.77-11.884-18.416-11.75-30.5Z" transform="translate(-46.62 -393.669)" fill="#2e0f07"/>
    <path id="Trazado_875486" data-name="Trazado 875486" d="M261.017,397.66h-60.47a.744.744,0,1,1,0-1.489h60.47a.745.745,0,0,1,0,1.489" transform="translate(-154.04 -305.432)" fill="#2e0f07"/>
    <path id="Trazado_875487" data-name="Trazado 875487" d="M276.579,435c-.746-.718-76.924,1.389-76.767-.743-.157-2.135,76.021-.028,76.769-.748a.746.746,0,0,1,0,1.49" transform="translate(-154.046 -334.036)" fill="#2e0f07"/>
    <path id="Trazado_875488" data-name="Trazado 875488" d="M261.017,475.274h-60.47a.744.744,0,1,1,0-1.489h60.47a.745.745,0,0,1,0,1.489" transform="translate(-154.04 -365.269)" fill="#2e0f07"/>
    <path id="Trazado_875489" data-name="Trazado 875489" d="M393.6,165.651a17.506,17.506,0,0,0-12.286-5.242l-.232,17.06Z" transform="translate(-293.799 -123.669)" fill="#fad100"/>
    <path id="Trazado_875490" data-name="Trazado 875490" d="M378.576,175.707a.749.749,0,0,1-.744-.754l.232-17.061a.747.747,0,0,1,.754-.734c4.812.157,10.2,2,13.02,6a.746.746,0,0,1-.233.528L379.087,175.5a.745.745,0,0,1-.511.2m.966-17.035-.2,14.541,10.674-10.077a16.686,16.686,0,0,0-10.476-4.464" transform="translate(-291.292 -121.162)" fill="#2e0f07"/>
    <path id="Trazado_875491" data-name="Trazado 875491" d="M294.747,217.286a17.512,17.512,0,0,0-5.538,11.823l17.534.5Z" transform="translate(-222.968 -167.519)" fill="#88acd5"/>
    <path id="Trazado_875492" data-name="Trazado 875492" d="M304.675,227.851c0,.008-17.545-.51-17.555-.5a.745.745,0,0,1-.527-.24c-.531-4.734,2.215-9.585,5.577-12.87a.745.745,0,0,1,1.042.025l12,12.327a.749.749,0,0,1-.533,1.263m-16.73-1.97,14.916.429-10.2-10.477a16.713,16.713,0,0,0-4.721,10.048" transform="translate(-220.9 -165.012)" fill="#2e0f07"/>
    <path id="Trazado_875493" data-name="Trazado 875493" d="M325.616,196.612a17.5,17.5,0,0,0-12.228,4.734l12,12.327Z" transform="translate(-241.609 -151.578)" fill="#ad75f5"/>
    <path id="Trazado_875494" data-name="Trazado 875494" d="M322.878,211.88a.744.744,0,0,1-.534-.225l-12-12.327a.744.744,0,0,1-.211-.537c2.848-3.743,8.11-5.361,12.74-5.464a.8.8,0,0,1,.977.758l-.232,17.06a.748.748,0,0,1-.744.734m-10.921-13.034,10.2,10.483.2-14.5a16.748,16.748,0,0,0-10.4,4.021" transform="translate(-239.104 -149.041)" fill="#2e0f07"/>
    <path id="Trazado_875495" data-name="Trazado 875495" d="M378.28,219.507l-12.518,11.818,12.5,12.84c6.648-6.2,6.659-18.446.022-24.658" transform="translate(-281.988 -169.231)" fill="#13cc89"/>
    <path id="Trazado_875496" data-name="Trazado 875496" d="M375.759,242.4a.744.744,0,0,1-.533-.225l-12.5-12.84a.749.749,0,0,1,.022-1.06L375.27,216.46a.744.744,0,0,1,1.042.019c6.975,6.713,7.165,19.837-.553,25.925m-11.435-13.562,11.427,11.742a16.894,16.894,0,0,0,0-22.531Z" transform="translate(-279.489 -166.726)" fill="#2e0f07"/>
    <path id="Trazado_875497" data-name="Trazado 875497" d="M364.689,289.165a17.512,17.512,0,0,0,12.741-5.219l-12.5-12.84Z" transform="translate(-281.16 -209.012)" fill="#1baae4"/>
    <path id="Trazado_875498" data-name="Trazado 875498" d="M362.428,287.414a.808.808,0,0,1-.99-.758l.246-18.059a.749.749,0,0,1,1.278-.509l12.5,12.84a.744.744,0,0,1,0,1.042,18.177,18.177,0,0,1-13.025,5.444m.72-17-.211,15.5a16.676,16.676,0,0,0,10.933-4.485Z" transform="translate(-278.654 -206.513)" fill="#2e0f07"/>
    <path id="Trazado_875499" data-name="Trazado 875499" d="M289.1,268.9a17.578,17.578,0,0,0,17.288,18.564l.246-18.059Z" transform="translate(-222.86 -207.315)" fill="#ff5b5a"/>
    <path id="Trazado_875500" data-name="Trazado 875500" d="M303.824,285.708c-10.125.067-18.831-9.241-18.031-19.35a.747.747,0,0,1,.765-.7l17.534.5a.744.744,0,0,1,.723.754l-.246,18.059a.749.749,0,0,1-.744.734m-16.571-18.543a16.916,16.916,0,0,0,15.837,17.027l.225-16.565Z" transform="translate(-220.295 -204.809)" fill="#2e0f07"/>
    <path id="Trazado_875501" data-name="Trazado 875501" d="M410.777,164.711a.75.75,0,0,1-.575-1.216l4.726-5.765a.744.744,0,0,1,.576-.273h11.8a.744.744,0,0,1,0,1.489h-11.45c-.317.2-4.617,6.1-5.079,5.765" transform="translate(-316.119 -121.393)" fill="#2e0f07"/>
    <path id="Trazado_875502" data-name="Trazado 875502" d="M265.4,220.455c-.623.446-4.727-7.583-5.051-7.815h-6.434a.745.745,0,0,1,0-1.489c.413.14,7.517-.37,7.5.365l4.625,7.815a.749.749,0,0,1-.64,1.124" transform="translate(-195.198 -162.755)" fill="#2e0f07"/>
    <path id="Trazado_875503" data-name="Trazado 875503" d="M268.708,324.959H258.021a.744.744,0,0,1,0-1.489h10.293l4.563-6.693a.745.745,0,0,1,1.23.839c-.3.191-4.9,7.8-5.4,7.343" transform="translate(-198.35 -243.973)" fill="#2e0f07"/>
    <rect id="Rectángulo_401915" data-name="Rectángulo 401915" width="14.207" height="10.663" transform="translate(45.013 42.92)" fill="#d9e4f1"/>
    <path id="Trazado_875504" data-name="Trazado 875504" d="M208.23,196.293H194.022a.745.745,0,0,1-.744-.744V184.885a.745.745,0,0,1,.744-.744H208.23a.745.745,0,0,1,.744.744v10.663a.745.745,0,0,1-.744.744M194.767,194.8h12.718V185.63H194.767Z" transform="translate(-149.009 -141.965)" fill="#2e0f07"/>
    <rect id="Rectángulo_401916" data-name="Rectángulo 401916" width="14.207" height="10.663" transform="translate(46.886 73.418)" fill="#d9e4f1"/>
    <path id="Trazado_875505" data-name="Trazado 875505" d="M216.406,329.445H202.2a.745.745,0,0,1-.744-.744V318.037a.745.745,0,0,1,.744-.744h14.207a.745.745,0,0,1,.744.744V328.7a.745.745,0,0,1-.744.744m-13.463-1.489h12.718v-9.175H202.943Z" transform="translate(-155.313 -244.62)" fill="#2e0f07"/>
    <rect id="Rectángulo_401917" data-name="Rectángulo 401917" width="14.207" height="10.663" transform="translate(110.242 31.83)" fill="#d9e4f1"/>
    <path id="Trazado_875506" data-name="Trazado 875506" d="M493.022,147.871H478.815a.744.744,0,0,1-.744-.744V136.463a.744.744,0,0,1,.744-.744h14.207a.744.744,0,0,1,.744.744v10.663a.744.744,0,0,1-.744.744m-13.463-1.489h12.718v-9.175H479.56Z" transform="translate(-368.573 -104.634)" fill="#2e0f07"/>
    <path id="Trazado_875507" data-name="Trazado 875507" d="M430.779,291.149h-9.631a.744.744,0,0,1-.526-.218l-6.688-6.688a.744.744,0,0,1,1.053-1.053l6.47,6.47h9.322a.745.745,0,0,1,0,1.489" transform="translate(-318.958 -218.16)" fill="#2e0f07"/>
    <rect id="Rectángulo_401918" data-name="Rectángulo 401918" width="14.207" height="10.663" transform="translate(110.068 66.378)" fill="#d9e4f1"/>
    <path id="Trazado_875508" data-name="Trazado 875508" d="M492.261,298.71H478.054a.744.744,0,0,1-.744-.744V287.3a.744.744,0,0,1,.744-.744h14.207a.744.744,0,0,1,.744.744v10.663a.744.744,0,0,1-.744.744M478.8,297.221h12.718v-9.175H478.8Z" transform="translate(-367.986 -220.924)" fill="#2e0f07"/>
    <path id="Trazado_875509" data-name="Trazado 875509" d="M199.041,154.526c-.085-.064-.055-.306-.06-.411-.058-.449.78-.205,1.011-.264v-3.343a6.948,6.948,0,0,1-.755.43c-.13-.017-.353-.436-.385-.551-.084-.1,1.286-.811,1.328-.868.121-.1.348-.059.5-.068a.25.25,0,0,1,.287.279v4.12c.148.023.847-.057.951.06.084.067.056.313.06.423,0,.192-.078.247-.271.249a24.593,24.593,0,0,1-2.664-.057" transform="translate(-153.304 -115.22)" fill="#2e0f07"/>
    <path id="Trazado_875510" data-name="Trazado 875510" d="M215.338,154.519c-.315-.12-.921-.179-.807-.517.056-.064.211-.443.3-.445.844.482,2.8.722,2.784-.7-.047-2-2.3-.534-2.826-.943a.375.375,0,0,1-.125-.317,16.607,16.607,0,0,1,.2-2.143,18.263,18.263,0,0,1,3.411,0c.108.182.138.73-.211.679H215.61l-.076,1.117c4.326-1.145,3.861,4.4-.2,3.271" transform="translate(-165.384 -115.16)" fill="#2e0f07"/>
    <path id="Trazado_875511" data-name="Trazado 875511" d="M235.365,151.035a1.15,1.15,0,0,1,1.147-1.992,1.15,1.15,0,0,1-1.147,1.992m-.185,3.007c-.014-.117,3.3-4.8,3.335-4.9a.381.381,0,0,1,.087-.1c.064-.072.709-.01.8-.03a.11.11,0,0,1,.083.189c-.088.1-3.286,4.839-3.4,4.919a4.986,4.986,0,0,1-.792.023q-.113,0-.113-.1m1.177-3.584c.538-.535-.292-1.379-.83-.838s.291,1.38.83.838m1.837,3.648a1.146,1.146,0,0,1,1.147-1.984,1.146,1.146,0,0,1-1.147,1.984m.989-.574c.546-.526-.293-1.375-.83-.834s.294,1.363.83.834" transform="translate(-181.023 -114.777)" fill="#2e0f07"/>
    <path id="Trazado_875512" data-name="Trazado 875512" d="M483.114,107.78c-.085-.064-.055-.306-.06-.411-.058-.449.78-.205,1.011-.264v-3.343a6.866,6.866,0,0,1-.755.43c-.13-.017-.353-.436-.385-.551-.084-.1,1.286-.811,1.328-.868.121-.1.348-.06.5-.068a.25.25,0,0,1,.287.279v4.12c.148.023.847-.057.951.06.084.067.056.313.06.423,0,.192-.078.247-.271.249a24.533,24.533,0,0,1-2.664-.057" transform="translate(-372.313 -79.181)" fill="#2e0f07"/>
    <path id="Trazado_875513" data-name="Trazado 875513" d="M499.116,106.882a3.451,3.451,0,0,1,0-3.976,2.858,2.858,0,0,1,3.731,0,3.422,3.422,0,0,1,0,3.969,2.858,2.858,0,0,1-3.731,0m2.72-3.724c-1.959-1.071-3.015,1.44-2.082,2.935Zm.309,3.214a2.808,2.808,0,0,0,.075-2.671l-2.09,2.95a1.673,1.673,0,0,0,2.015-.279" transform="translate(-384.312 -78.804)" fill="#2e0f07"/>
    <path id="Trazado_875514" data-name="Trazado 875514" d="M523.424,104.289a1.15,1.15,0,0,1,1.147-1.992,1.15,1.15,0,0,1-1.147,1.992m-.185,3.007c-.014-.117,3.3-4.8,3.335-4.9a.38.38,0,0,1,.087-.1c.064-.072.709-.01.8-.03a.11.11,0,0,1,.083.189c-.088.1-3.286,4.839-3.4,4.919a4.986,4.986,0,0,1-.792.023q-.113,0-.113-.1m1.177-3.584c.538-.535-.293-1.379-.83-.838s.291,1.38.83.838m1.837,3.648a1.146,1.146,0,0,1,1.147-1.984,1.146,1.146,0,0,1-1.147,1.984m.988-.574c.546-.526-.293-1.375-.83-.834s.294,1.363.83.834" transform="translate(-403.105 -78.738)" fill="#2e0f07"/>
    <path id="Trazado_875515" data-name="Trazado 875515" d="M202.553,287.115c-.251-1.584,1.845-2.047,2.645-2.991.657-1.44-1.394-1.5-2.222-.94-.1.007-.251-.38-.3-.438-.125-.334.443-.393.747-.509,1.6-.523,3.768.561,2.494,2.328-.5.684-2.231,1.089-2.381,2.075h2.445c.2,0,.269.076.272.272,0,.214.03.488-.272.46H202.8a.223.223,0,0,1-.249-.257" transform="translate(-156.144 -217.492)" fill="#2e0f07"/>
    <path id="Trazado_875516" data-name="Trazado 875516" d="M222.13,286.869a3.451,3.451,0,0,1,0-3.976,2.859,2.859,0,0,1,3.731,0,3.422,3.422,0,0,1,0,3.969,2.858,2.858,0,0,1-3.731,0m2.72-3.724c-1.959-1.071-3.015,1.44-2.082,2.935Zm.309,3.214a2.808,2.808,0,0,0,.075-2.671l-2.09,2.95a1.673,1.673,0,0,0,2.015-.279" transform="translate(-170.767 -217.566)" fill="#2e0f07"/>
    <path id="Trazado_875517" data-name="Trazado 875517" d="M246.437,284.276a1.15,1.15,0,0,1,1.147-1.992,1.15,1.15,0,0,1-1.147,1.992m-.185,3.007c-.014-.117,3.3-4.8,3.335-4.9a.382.382,0,0,1,.087-.1c.064-.072.709-.01.8-.03a.11.11,0,0,1,.083.188c-.088.1-3.286,4.839-3.4,4.919a4.988,4.988,0,0,1-.792.023q-.113,0-.113-.1m1.177-3.584c.538-.535-.292-1.379-.83-.838s.291,1.38.83.838m1.837,3.648a1.146,1.146,0,0,1,1.147-1.984,1.146,1.146,0,0,1-1.147,1.984m.988-.574c.546-.526-.293-1.375-.83-.834s.294,1.363.83.834" transform="translate(-189.559 -217.501)" fill="#2e0f07"/>
    <path id="Trazado_875518" data-name="Trazado 875518" d="M480.407,259.281c-.087-.059-.083-.127-.03-.211.054-.066.219-.435.3-.445.765.4,2.567.695,2.6-.558-.058-1.492-2.076-.156-1.871-1.252-.042-.416.672-.209.9-.257,1.61-.171.782-2.339-1.426-1.245-.1.046-.122.064-.189-.03a2.607,2.607,0,0,1-.249-.46,2.955,2.955,0,0,1,2.75-.325,1.335,1.335,0,0,1,.23,2.4,1.376,1.376,0,0,1,.283,2.343c-.678.642-2.674.5-3.293.041" transform="translate(-370.322 -196.063)" fill="#2e0f07"/>
    <path id="Trazado_875519" data-name="Trazado 875519" d="M500.5,259a3.451,3.451,0,0,1,0-3.976,2.858,2.858,0,0,1,3.731,0,3.422,3.422,0,0,1,0,3.969,2.859,2.859,0,0,1-3.731,0m2.72-3.724c-1.959-1.071-3.015,1.44-2.082,2.935Zm.309,3.214a2.808,2.808,0,0,0,.075-2.671l-2.09,2.95a1.673,1.673,0,0,0,2.015-.279" transform="translate(-385.381 -196.081)" fill="#2e0f07"/>
    <path id="Trazado_875520" data-name="Trazado 875520" d="M524.81,256.408a1.15,1.15,0,0,1,1.147-1.992,1.15,1.15,0,0,1-1.147,1.992m-.185,3.007c-.014-.117,3.3-4.8,3.335-4.9a.381.381,0,0,1,.087-.1c.064-.072.709-.01.8-.03a.11.11,0,0,1,.083.189c-.088.1-3.286,4.839-3.4,4.919a4.985,4.985,0,0,1-.792.023q-.113,0-.113-.1m1.177-3.584c.538-.535-.292-1.379-.83-.838s.291,1.38.83.838m1.837,3.648a1.146,1.146,0,0,1,1.147-1.984,1.146,1.146,0,0,1-1.147,1.984m.988-.574c.546-.526-.293-1.375-.83-.834s.294,1.363.83.834" transform="translate(-404.173 -196.016)" fill="#2e0f07"/>
    <path id="Trazado_875521" data-name="Trazado 875521" d="M580.358,504.327a3.735,3.735,0,0,1-2.228-4.789l13.228-36.255a3.735,3.735,0,0,1,7.017,2.56L585.147,502.1a3.735,3.735,0,0,1-4.789,2.228" transform="translate(-445.539 -355.279)" fill="#d9e4f1"/>
    <path id="Trazado_875522" data-name="Trazado 875522" d="M616.71,461.055a3.734,3.734,0,0,0-4.789,2.228l-7.346,20.133a40.161,40.161,0,0,0,7.093,2.351l7.269-19.924a3.735,3.735,0,0,0-2.228-4.789" transform="translate(-466.103 -355.279)" fill="#c6d7eb"/>
    <path id="Trazado_875523" data-name="Trazado 875523" d="M579.122,502.737a4.46,4.46,0,0,1-1.531-.271c-2.523-.693-3.471-4.25-2.669-5.754.277-.757,13.217-36.229,13.236-36.277a4.451,4.451,0,0,1,2.341-2.508,4.5,4.5,0,0,1,6.058,5.623c-.289.784-13.213,36.221-13.244,36.3a4.487,4.487,0,0,1-4.192,2.89m-1.02-1.67a2.994,2.994,0,0,0,3.834-1.784l13.228-36.255a2.99,2.99,0,0,0-5.618-2.05l-13.228,36.255a2.994,2.994,0,0,0,1.784,3.834" transform="translate(-443.028 -352.718)" fill="#2e0f07"/>
    <path id="Trazado_875524" data-name="Trazado 875524" d="M692.624,504.327a3.735,3.735,0,0,0,2.228-4.789l-13.228-36.255a3.735,3.735,0,0,0-7.017,2.56L687.836,502.1a3.735,3.735,0,0,0,4.789,2.228" transform="translate(-519.92 -355.279)" fill="#d9e4f1"/>
    <path id="Trazado_875525" data-name="Trazado 875525" d="M688.768,502.719a4.486,4.486,0,0,1-4.212-2.944L671.328,463.52a4.5,4.5,0,0,1,6.1-5.6,4.451,4.451,0,0,1,2.318,2.526L692.971,496.7a4.479,4.479,0,0,1-4.2,6.015m1.276-.971h0Zm-14.506-42.755a3.012,3.012,0,0,0-2.811,4.017l13.228,36.255a2.99,2.99,0,1,0,5.618-2.05L678.345,460.96a3,3,0,0,0-2.807-1.967" transform="translate(-517.339 -352.7)" fill="#2e0f07"/>
    <path id="Trazado_875526" data-name="Trazado 875526" d="M681.624,463.283a3.735,3.735,0,0,0-7.017,2.56l7.188,19.7a23.106,23.106,0,0,0,7-2.612Z" transform="translate(-519.919 -355.279)" fill="#c6d7eb"/>
    <path id="Trazado_875527" data-name="Trazado 875527" d="M688.768,502.719a4.486,4.486,0,0,1-4.212-2.944L671.328,463.52a4.5,4.5,0,0,1,6.1-5.6,4.451,4.451,0,0,1,2.318,2.526L692.971,496.7a4.479,4.479,0,0,1-4.2,6.015m1.276-.971h0Zm-14.506-42.755a3.012,3.012,0,0,0-2.811,4.017l13.228,36.255a2.99,2.99,0,1,0,5.618-2.05L678.345,460.96a3,3,0,0,0-2.807-1.967" transform="translate(-517.339 -352.7)" fill="#2e0f07"/>
    <path id="Trazado_875528" data-name="Trazado 875528" d="M607.9,354.367c-.6,35.238-53.018,35.232-53.614,0,.6-35.237,53.017-35.231,53.614,0" transform="translate(-427.333 -252.829)" fill="#d9e4f1"/>
    <path id="Trazado_875529" data-name="Trazado 875529" d="M603.07,413.477c-10.2,6.1-21.368,8.439-32.774,9.414,16.667,28.1,60.089,7.062,47.981-23.629-3.509,6.384-9.062,10.63-15.207,14.215" transform="translate(-439.675 -307.815)" fill="#c6d7eb"/>
    <path id="Trazado_875530" data-name="Trazado 875530" d="M584.876,370.248c-2.2,2.636-4.255.956-2.112-1.724,2.2-2.636,4.255-.956,2.112,1.724" transform="translate(-448.59 -283.096)" fill="#fff"/>
    <path id="Trazado_875531" data-name="Trazado 875531" d="M577.552,389.017c-.647,1.43-1.818.889-1.148-.53.647-1.43,1.818-.889,1.148.53" transform="translate(-444.23 -298.859)" fill="#fff"/>
    <path id="Trazado_875532" data-name="Trazado 875532" d="M579.4,378.132c-36.42-1.1-36.41-54.012,0-55.1,36.419,1.1,36.409,54.012,0,55.1m0-53.614c-34.452,1.038-34.443,51.094,0,52.125,34.451-1.038,34.442-51.094,0-52.125" transform="translate(-425.637 -249.042)" fill="#2e0f07"/>
    <path id="Trazado_875533" data-name="Trazado 875533" d="M604.461,395.9c-26.491-.8-26.484-39.287,0-40.081,26.49.8,26.483,39.287,0,40.081m0-34.313c-18.758.336-18.755,28.212,0,28.546,18.757-.336,18.754-28.212,0-28.546" transform="translate(-450.699 -274.325)" fill="#ff5b5a"/>
    <path id="Trazado_875534" data-name="Trazado 875534" d="M601.977,394.142c-27.475-.828-27.468-40.746,0-41.569,27.474.828,27.467,40.746,0,41.569m0-40.081c-25.507.768-25.5,37.828,0,38.592,25.506-.768,25.5-37.828,0-38.592m0,34.313c-19.736-.354-19.733-29.683,0-30.034,19.735.354,19.732,29.683,0,30.034m0-28.546c-17.779.319-17.776,26.741,0,27.057,17.779-.319,17.776-26.741,0-27.057" transform="translate(-448.215 -271.819)" fill="#2e0f07"/>
    <path id="Trazado_875535" data-name="Trazado 875535" d="M638.449,419.869c-13.025-.234-13.023-19.59,0-19.822,13.025.234,13.023,19.59,0,19.822m0-14.055c-5.446.1-5.445,8.19,0,8.287,5.445-.1,5.445-8.19,0-8.287" transform="translate(-484.687 -308.42)" fill="#ff5b5a"/>
    <path id="Trazado_875536" data-name="Trazado 875536" d="M635.979,418.108c-14-.251-14-21.062,0-21.311,14,.251,14,21.062,0,21.311m0-19.822c-12.047.216-12.045,18.119,0,18.333,12.046-.216,12.045-18.119,0-18.333m0,14.055c-6.424-.115-6.423-9.662,0-9.776,6.423.115,6.423,9.662,0,9.776m0-8.287c-4.467.08-4.467,6.719,0,6.8,4.467-.08,4.466-6.719,0-6.8" transform="translate(-482.217 -305.914)" fill="#2e0f07"/>
    <path id="Trazado_875537" data-name="Trazado 875537" d="M668.826,350.224a.75.75,0,0,1-.526-1.271l27.134-27.134a.744.744,0,0,1,1.053,1.053c-.519.221-26.959,27.535-27.661,27.352" transform="translate(-515.064 -247.941)" fill="#2e0f07"/>
    <path id="Trazado_875538" data-name="Trazado 875538" d="M790.5,292.014l-.954-3.745-4.823,4.823.954,3.745,3.745.954,4.823-4.823Z" transform="translate(-604.989 -222.244)" fill="#ff5b5a"/>
    <path id="Trazado_875539" data-name="Trazado 875539" d="M787.091,295.986a.751.751,0,0,1-.184-.023l-3.745-.954a.745.745,0,0,1-.538-.538c0-.54-1.394-4.065-.759-4.455.4-.189,5.023-5.564,5.546-5.015.744.019,1.125,3.39,1.37,3.851.479.249,3.822.625,3.851,1.369a.745.745,0,0,1-.192.724c-.228.111-5.09,5.4-5.349,5.041m-3.133-2.311,2.906.74,3.6-3.6c-3.463-.892-2.754-.194-3.647-3.647l-3.6,3.6Z" transform="translate(-602.658 -219.694)" fill="#2e0f07"/>
    <path id="Trazado_875540" data-name="Trazado 875540" d="M40.361,345.416H8.2a4.687,4.687,0,0,1-4.687-4.687V313.8A4.687,4.687,0,0,1,8.2,309.114h32.16a4.687,4.687,0,0,1,4.687,4.687v26.927a4.687,4.687,0,0,1-4.687,4.687" transform="translate(-2.708 -238.314)" fill="#d9e4f1"/>
    <path id="Trazado_875541" data-name="Trazado 875541" d="M47.668,319.161c-1,6.531-5.662,12.4-9.875,17.56-7.475,8.812-19.308,11.79-30.034,14.611a4.678,4.678,0,0,0,3.715,1.83h32.16a4.687,4.687,0,0,0,4.687-4.687c-.236-1.164.639-29.159-.653-29.314" transform="translate(-5.982 -246.06)" fill="#c6d7eb"/>
    <path id="Trazado_875542" data-name="Trazado 875542" d="M37.855,343.655H5.695a5.438,5.438,0,0,1-5.432-5.431V311.3a5.438,5.438,0,0,1,5.432-5.432h32.16a5.438,5.438,0,0,1,5.432,5.432v26.928a5.438,5.438,0,0,1-5.432,5.431m-32.16-36.3A3.948,3.948,0,0,0,1.752,311.3c.6,41.594-6.984,28.849,36.1,30.871a3.948,3.948,0,0,0,3.943-3.943c-.6-41.594,6.984-28.849-36.1-30.871" transform="translate(-0.203 -235.809)" fill="#2e0f07"/>
    <path id="Trazado_875543" data-name="Trazado 875543" d="M50.668,391.31c-.232-.175-.151-.833-.165-1.121.006-.537.2-.715.74-.72h2.016v-9.112c-2.279,1.217-1.854,1.877-3.024-.062a.386.386,0,0,1,.144-.6l3.394-2.036c.329-.276.949-.162,1.358-.185a.682.682,0,0,1,.781.761v11.231c.4.062,2.308-.156,2.592.165.229.184.153.853.165,1.152-.006.524-.213.672-.74.679-.3-.072-7.2.175-7.261-.154" transform="translate(-38.666 -291.016)" fill="#2e0f07"/>
    <path id="Trazado_875544" data-name="Trazado 875544" d="M94.933,391.4c-.732-.237-2.686-.649-2.2-1.409.153-.175.576-1.207.823-1.214,1.742.989,5.025,1.564,6.685.278,1.215-.8,1.155-3.688.134-4.474a3.751,3.751,0,0,0-2.458-.658,6.868,6.868,0,0,0-2.859.535c-.877.359-2,.034-1.954-1.028l.35-5.307c.036-.517.225-.7.761-.7.238.076,8.781-.178,8.721.164a2,2,0,0,1,0,1.676c-.032.366-6.973.1-7.261.175l-.205,3.044c5.369-1.613,10.309,1.383,7.539,6.963-1.673,2.442-5.353,2.594-8.073,1.954" transform="translate(-71.433 -290.964)" fill="#2e0f07"/>
    <path id="Trazado_875545" data-name="Trazado 875545" d="M44.876,318.766c.014-3.914.822-9.4-4.687-9.652H8.029c-5.492.241-4.711,5.748-4.687,9.653,0,0,41.436,0,41.535,0" transform="translate(-2.537 -238.314)" fill="#fff"/>
    <path id="Trazado_875546" data-name="Trazado 875546" d="M42.341,317.007H.805a.744.744,0,0,1-.744-.744c-.126-4.435-.577-10.113,5.432-10.4h32.16a5.438,5.438,0,0,1,5.431,5.431v4.913a.749.749,0,0,1-.743.8M1.55,315.518H41.6c.006-3.3.709-7.948-3.943-8.165H5.492c-4.635.2-3.959,4.875-3.943,8.165" transform="translate(0 -235.809)" fill="#2e0f07"/>
    <path id="Trazado_875547" data-name="Trazado 875547" d="M35.435,322.668a2.021,2.021,0,0,1-4.042,0,2.021,2.021,0,0,1,4.042,0" transform="translate(-24.203 -247.228)" fill="#fff"/>
    <path id="Trazado_875548" data-name="Trazado 875548" d="M31.042,322.831a2.766,2.766,0,0,1,0-5.531,2.766,2.766,0,0,1,0,5.531m0-4.042a1.277,1.277,0,0,0,0,2.553,1.277,1.277,0,0,0,0-2.553" transform="translate(-21.831 -244.625)" fill="#2e0f07"/>
    <path id="Trazado_875549" data-name="Trazado 875549" d="M88.375,322.668a2.021,2.021,0,0,1-4.042,0,2.021,2.021,0,0,1,4.042,0" transform="translate(-65.017 -247.228)" fill="#fff"/>
    <path id="Trazado_875550" data-name="Trazado 875550" d="M83.981,322.831a2.766,2.766,0,0,1,0-5.531,2.766,2.766,0,0,1,0,5.531m0-4.042a1.277,1.277,0,0,0,0,2.553,1.277,1.277,0,0,0,0-2.553" transform="translate(-62.645 -244.625)" fill="#2e0f07"/>
    <path id="Trazado_875551" data-name="Trazado 875551" d="M141.314,322.668a2.021,2.021,0,0,1-4.042,0,2.021,2.021,0,0,1,4.042,0" transform="translate(-105.831 -247.228)" fill="#fff"/>
    <path id="Trazado_875552" data-name="Trazado 875552" d="M136.921,322.831a2.766,2.766,0,0,1,0-5.531,2.766,2.766,0,0,1,0,5.531m0-4.042a1.277,1.277,0,0,0,0,2.553,1.277,1.277,0,0,0,0-2.553" transform="translate(-103.46 -244.625)" fill="#2e0f07"/>
    <path id="Trazado_875553" data-name="Trazado 875553" d="M23.708,300.194c-7.253-.485-5.621-11.019,1.438-9.288a4.763,4.763,0,0,1,3.1,3.1.745.745,0,0,1-1.419.451,3.28,3.28,0,0,0-6.341.481,3.326,3.326,0,0,0,3.227,3.773.745.745,0,0,1,0,1.489" transform="translate(-14.648 -224.129)" fill="#2e0f07"/>
    <path id="Trazado_875554" data-name="Trazado 875554" d="M75.956,300.194c-7.253-.485-5.621-11.019,1.438-9.288a4.763,4.763,0,0,1,3.1,3.1.745.745,0,0,1-1.419.451,3.28,3.28,0,0,0-6.341.481,3.326,3.326,0,0,0,3.227,3.773.745.745,0,0,1,0,1.489" transform="translate(-54.929 -224.129)" fill="#2e0f07"/>
    <path id="Trazado_875555" data-name="Trazado 875555" d="M129.378,300.194c-7.253-.485-5.621-11.019,1.438-9.288a4.763,4.763,0,0,1,3.1,3.1.745.745,0,0,1-1.419.451,3.28,3.28,0,0,0-6.341.481,3.326,3.326,0,0,0,3.227,3.773.745.745,0,0,1,0,1.489" transform="translate(-96.115 -224.129)" fill="#2e0f07"/>
    <path id="Trazado_875556" data-name="Trazado 875556" d="M411.871,388.069c-6.822,13.716-27.39,3.918-21.04-10.02,6.821-13.716,27.39-3.918,21.04,10.02" transform="translate(-300.389 -286.374)" fill="#78cdef"/>
    <rect id="Rectángulo_401919" data-name="Rectángulo 401919" width="4.691" height="13.943" transform="translate(102.94 107.193) rotate(-19.535)" fill="#d5e2f0"/>
    <path id="Trazado_875557" data-name="Trazado 875557" d="M451.6,474.1c-.809.865-5.077-13.51-5.364-13.636a.749.749,0,0,1,.453-.951l4.421-1.569a.749.749,0,0,1,.951.453l4.663,13.141a.744.744,0,0,1-.03.569c-.178.538-4.618,1.821-5.093,1.993m-3.712-13.433,4.165,11.737,3.018-1.071L450.9,459.6Z" transform="translate(-343.992 -353.026)" fill="#2e0f07"/>
    <path id="Trazado_875558" data-name="Trazado 875558" d="M469.2,523.123h0a3.844,3.844,0,0,0,2.337-4.908l-5.992-16.886L458.3,503.9l5.992,16.886a3.844,3.844,0,0,0,4.909,2.337" transform="translate(-353.334 -386.503)" fill="#617588"/>
    <path id="Trazado_875559" data-name="Trazado 875559" d="M460.638,508.938l5.817,16.4a3.844,3.844,0,0,0,4.437,2.47,3.827,3.827,0,0,1-1.688,1.186,3.9,3.9,0,0,1-4.91-2.342l-5.99-16.881Z" transform="translate(-353.334 -392.37)" fill="#243f5a"/>
    <path id="Trazado_875560" data-name="Trazado 875560" d="M465.415,521.582a4.6,4.6,0,0,1-4.329-3.054l-5.992-16.886a.749.749,0,0,1,.453-.951l7.246-2.571a.744.744,0,0,1,.95.453l5.992,16.886a4.589,4.589,0,0,1-4.32,6.123m1.281-.966h0Zm-9.95-18.771,5.743,16.185a3.1,3.1,0,1,0,5.843-2.073l-5.743-16.184Z" transform="translate(-350.826 -383.997)" fill="#2e0f07"/>
    <path id="Trazado_875561" data-name="Trazado 875561" d="M388,386.06c-17.6-8.77-5.033-35.144,12.863-27.009,17.6,8.77,5.033,35.144-12.863,27.009m10.734-22.541c-11.977-5.442-20.379,12.207-8.606,18.073,11.977,5.442,20.379-12.207,8.606-18.073" transform="translate(-292.609 -275.628)" fill="#fce46e"/>
    <path id="Trazado_875562" data-name="Trazado 875562" d="M397.424,412.333c-10.869.809-16.875-8.494-17-18.3-8.119,16.1,14.93,30,25.416,15.564a20.4,20.4,0,0,1-8.416,2.734" transform="translate(-291.982 -303.785)" fill="#fbda33"/>
    <path id="Trazado_875563" data-name="Trazado 875563" d="M445.781,366.818a24.737,24.737,0,0,1,3.03,6.218c.619-9.182-9.09-17.358-18.135-15.005,5.8.089,11.728,3.859,15.105,8.788" transform="translate(-332.034 -275.712)" fill="#fefce3"/>
    <path id="Trazado_875564" data-name="Trazado 875564" d="M391.916,385.736a15.607,15.607,0,0,1-6.727-1.524c-18.472-9.2-5.284-36.894,13.5-28.353,15.035,6.882,9.494,30.227-6.776,29.878m-6.087-2.868c17.009,7.729,28.941-17.335,12.221-25.666C381.043,349.474,369.11,374.538,385.829,382.868Zm6.095-2.077c-17.43-1.092-11.561-27,4.639-20.464,10.257,4.918,6.727,20.445-4.639,20.464m.031-20.019c-14.3.681-10.742,22.095,3.082,17.99,7.674-2.505,8.243-13.8.886-17.091a9.213,9.213,0,0,0-3.969-.9" transform="translate(-290.114 -273.108)" fill="#2e0f07"/>
    <path id="Trazado_875565" data-name="Trazado 875565" d="M415.664,411.508c-1.95-2.572-3.165-5.2-2.1-8.468.389-1.19-1.27-2.083-1.817-.865-1.59,3.536-.768,8.608,2.7,10.752.825.51,1.772-.686,1.217-1.418" transform="translate(-316.841 -309.612)" fill="#eaf7fd"/>
    <path id="Trazado_875566" data-name="Trazado 875566" d="M461.376,398.261c1.393,1.838,2.262,3.718,1.5,6.051-.278.85.907,1.488,1.3.618,1.136-2.527.549-6.15-1.928-7.682-.589-.364-1.266.49-.869,1.014" transform="translate(-355.611 -306.194)" fill="#eaf7fd"/>
  </g>
</svg>
