<svg xmlns="http://www.w3.org/2000/svg" width="84.5" height="72.281" viewBox="0 0 84.5 72.281">
  <g id="Grupo_1100549" data-name="Grupo 1100549" transform="translate(-180 -830.359)">
    <path id="_12068" data-name="12068" d="M75.16,71.958c-8.653-1.195-17.793-.9-25.667,2.879C38.574,80.082,31.4,91.972,31.128,104.083s6.034,24.01,15.78,31.2,22.6,9.743,34.519,7.583c12.019-2.178,23.3-9.239,29.569-19.722,4.02-6.722,5.9-15.022,3.678-22.534a30.785,30.785,0,0,0-7.306-12.008A53.978,53.978,0,0,0,75.16,71.958Z" transform="translate(148.881 759.027)" fill="#7d6eb2"/>
    <g id="_019-focus" data-name="019-focus" transform="translate(193.994 830.359)">
      <path id="Trazado_129887" data-name="Trazado 129887" d="M.78,22.172H6.128a.78.78,0,0,0,.78-.778V6.908H21.394a.78.78,0,0,0,.78-.78V.78a.78.78,0,0,0-.78-.78H.78A.78.78,0,0,0,0,.78V21.394a.78.78,0,0,0,.78.778ZM1.56,1.56H20.613V5.349H6.127a.78.78,0,0,0-.779.778V20.612H1.56Z" transform="translate(0 0)" fill="#12263f"/>
      <path id="Trazado_129888" data-name="Trazado 129888" d="M99.644,0H79.03a.78.78,0,0,0-.78.78V6.128a.78.78,0,0,0,.78.78H93.516V21.394a.78.78,0,0,0,.78.78h5.349a.78.78,0,0,0,.78-.78V.78a.78.78,0,0,0-.78-.78Zm-.78,20.612H95.076V6.127a.78.78,0,0,0-.78-.78H79.81V1.56H98.864Z" transform="translate(-43.373 0)" fill="#12263f"/>
      <path id="Trazado_129889" data-name="Trazado 129889" d="M21.394,93.516H6.908V79.03a.78.78,0,0,0-.78-.78H.78a.78.78,0,0,0-.78.78V99.642a.78.78,0,0,0,.78.78H21.394a.78.78,0,0,0,.78-.78V94.294A.78.78,0,0,0,21.394,93.516Zm-.78,5.349H1.56V79.809H5.349V94.295a.78.78,0,0,0,.78.78H20.614Z" transform="translate(0 -43.373)" fill="#12263f"/>
      <path id="Trazado_129890" data-name="Trazado 129890" d="M99.644,78.248H94.3a.78.78,0,0,0-.78.781V93.514H79.03a.78.78,0,0,0-.78.78v5.349a.78.78,0,0,0,.78.78H99.644a.78.78,0,0,0,.78-.78V79.029a.78.78,0,0,0-.78-.781Zm-.78,20.612H79.811V95.074H94.3a.78.78,0,0,0,.78-.78V79.809h3.789Z" transform="translate(-43.373 -43.372)" fill="#12263f"/>
      <path id="Trazado_129891" data-name="Trazado 129891" d="M45.069,59.648h0l-1.817-4.224a.78.78,0,0,0-1.433,0L40,59.643l0,.01-.981,2.278a.78.78,0,1,0,1.433.616l.781-1.815h2.6l.78,1.815a.78.78,0,1,0,1.433-.616ZM41.9,59.171l.63-1.465.632,1.465Z" transform="translate(-21.594 -30.459)" fill="#12263f"/>
      <path id="Trazado_129892" data-name="Trazado 129892" d="M62.71,54.951H59.965a.78.78,0,0,0-.78.78v6.507a.78.78,0,0,0,.78.78H62.71a2.566,2.566,0,0,0,2.563-2.563V57.513A2.566,2.566,0,0,0,62.71,54.951Zm1,5.5a1,1,0,0,1-1,1H60.745V56.511H62.71a1,1,0,0,1,1,1Z" transform="translate(-32.806 -30.459)" fill="#12263f"/>
      <path id="Trazado_129893" data-name="Trazado 129893" d="M81.547,56.511a.78.78,0,1,0,0-1.56H77.708a.78.78,0,0,0-.78.78v3.253a.78.78,0,0,0,.78.78h3.059v1.694H77.708a.78.78,0,0,0,0,1.56h3.839a.78.78,0,0,0,.78-.78V58.984a.78.78,0,0,0-.78-.78H78.488V56.511Z" transform="translate(-42.64 -30.459)" fill="#12263f"/>
      <path id="Trazado_129894" data-name="Trazado 129894" d="M52.291,39.748h5.677a.78.78,0,0,0,.78-.78V35.4a.78.78,0,0,0-.78-.78H52.291a15.265,15.265,0,0,0-12.54-12.542V16.4a.78.78,0,0,0-.78-.78H35.4a.78.78,0,0,0-.78.78v5.677a15.265,15.265,0,0,0-12.54,12.54H16.408a.78.78,0,0,0-.78.781v3.566a.78.78,0,0,0,.78.78h5.677a15.265,15.265,0,0,0,12.54,12.539v5.677a.78.78,0,0,0,.78.78h3.566a.78.78,0,0,0,.78-.78V52.288a15.265,15.265,0,0,0,12.54-12.54ZM38.875,50.839a.78.78,0,0,0-.685.774v5.571H36.185V51.613a.78.78,0,0,0-.685-.774A13.712,13.712,0,0,1,23.534,38.873a.78.78,0,0,0-.774-.685H17.188V36.182h5.571a.78.78,0,0,0,.774-.685A13.712,13.712,0,0,1,35.5,23.531a.78.78,0,0,0,.685-.774V17.185h2.006v5.571a.78.78,0,0,0,.685.774A13.712,13.712,0,0,1,50.842,35.5a.78.78,0,0,0,.774.685h5.571v2.006H51.616a.78.78,0,0,0-.774.685A13.712,13.712,0,0,1,38.876,50.839Z" transform="translate(-8.662 -8.661)" fill="#12263f"/>
    </g>
  </g>
</svg>
