<svg xmlns="http://www.w3.org/2000/svg" width="91.927" height="91.928" viewBox="0 0 91.927 91.928">
  <g id="Grupo_1100764" data-name="Grupo 1100764" transform="translate(-1230 -8436.072)">
    <g id="Grupo_1100763" data-name="Grupo 1100763">
      <g id="Grupo_1100762" data-name="Grupo 1100762">
        <g id="Grupo_1100761" data-name="Grupo 1100761">
          <g id="Grupo_57588" data-name="Grupo 57588" transform="translate(1013 7694.739)">
            <g id="Grupo_42274" data-name="Grupo 42274" transform="translate(142 768.333)">
              <g id="Grupo_18423" data-name="Grupo 18423" transform="translate(75 -27)">
                <g id="Grupo_18421" data-name="Grupo 18421">
                  <g id="Grupo_18420" data-name="Grupo 18420">
                    <g id="Grupo_18419" data-name="Grupo 18419">
                      <path id="Trazado_40936" data-name="Trazado 40936" d="M286.55,2191.684a45.964,45.964,0,1,1-45.963-45.962A45.963,45.963,0,0,1,286.55,2191.684Z" transform="translate(-194.623 -2145.721)" fill="#aee6e6"/>
                    </g>
                  </g>
                </g>
                <path id="Trazado_40937" data-name="Trazado 40937" d="M286.23,2191.334a45.963,45.963,0,1,0-45.963,45.965A45.782,45.782,0,0,0,286.23,2191.334Z" transform="translate(-194.303 -2145.372)" fill="#aee6e6"/>
                <path id="Trazado_40938" data-name="Trazado 40938" d="M272.56,2188.562a35.084,35.084,0,1,0-35.084,35.084A34.953,34.953,0,0,0,272.56,2188.562Z" transform="translate(-191.373 -2142.446)" fill="#aee6e6" stroke="#31aebb" stroke-miterlimit="10" stroke-width="4"/>
                <g id="Grupo_18422" data-name="Grupo 18422" transform="translate(8.143 25.805)">
                  <path id="Trazado_40939" data-name="Trazado 40939" d="M279.682,2164.488a45.969,45.969,0,0,1-79.137,45.773,45.823,45.823,0,0,0,79.137-45.773Z" transform="translate(-200.545 -2164.488)" fill="#aee6e6"/>
                </g>
              </g>
            </g>
          </g>
          <g id="_025-startup" data-name="025-startup" transform="translate(1205.416 8456.128)">
            <path id="Trazado_130943" data-name="Trazado 130943" d="M85.166,42.139a5.512,5.512,0,0,0-2.872-4.611,3.483,3.483,0,0,0-3.917.7,3.076,3.076,0,0,1-2.314,1.065,1.225,1.225,0,0,1-.834-.787,5.906,5.906,0,0,1-.4-2.384V34.9h1.283a.7.7,0,0,0,.629-.389L79.252,29.5l5.929,2.541a.7.7,0,0,0,.981-.647V24.852a.7.7,0,0,0-.174-.463l-6.364-7.274v-1.47a14.737,14.737,0,0,0-.461-3.656.7.7,0,0,0-1.363.349,13.331,13.331,0,0,1,.417,3.307v12.24H62.809V15.645a13.252,13.252,0,0,1,.88-4.759c.052-.135,1.685-4.012,1.685-4.012H75.65l1.054,2.5A.7.7,0,0,0,78,8.824L76.765,5.9c0-.008-.008-.015-.012-.023s-.006-.016-.01-.024L75.219,2.876a5.289,5.289,0,0,0-9.413,0L64.282,5.85c0,.008-.007.016-.01.024s-.008.015-.012.023-1.827,4.336-1.884,4.485a14.656,14.656,0,0,0-.973,5.263v1.47l-6.364,7.273a.7.7,0,0,0-.174.463V31.39a.7.7,0,0,0,.981.647L61.773,29.5l2.506,5.011a.7.7,0,0,0,.629.389h1.283v1.227a5.907,5.907,0,0,1-.4,2.385,1.224,1.224,0,0,1-.834.786,3.075,3.075,0,0,1-2.314-1.065,3.483,3.483,0,0,0-3.917-.7,5.512,5.512,0,0,0-2.872,4.611,5.242,5.242,0,0,0-4.549,5.189.7.7,0,0,0,.7.7h37a.7.7,0,0,0,.7-.7,5.242,5.242,0,0,0-4.549-5.189ZM67.058,3.518a3.882,3.882,0,0,1,6.908,0l1,1.948H66.059Zm17.7,21.6v5.207l-5.131-2.2V19.252Zm-28.483,0L61.4,19.252v8.872l-5.131,2.2ZM52.782,46.625A3.833,3.833,0,0,1,56.544,43.5a.7.7,0,0,0,.7-.722,4.284,4.284,0,0,1,2.071-3.973,2.082,2.082,0,0,1,2.386.466,4.234,4.234,0,0,0,3.539,1.4A2.569,2.569,0,0,0,67.073,39.1a7.161,7.161,0,0,0,.526-2.977V34.9h1.463a.7.7,0,0,0,0-1.407H65.343l-2.1-4.2H77.78l-2.1,4.2H72.127a.7.7,0,0,0,0,1.407h1.3v1.227a7.162,7.162,0,0,0,.526,2.976,2.569,2.569,0,0,0,1.829,1.574,4.234,4.234,0,0,0,3.539-1.4,2.082,2.082,0,0,1,2.386-.466,4.284,4.284,0,0,1,2.071,3.973.7.7,0,0,0,.7.722,3.833,3.833,0,0,1,3.762,3.123H52.782Z" transform="translate(0 0)" fill="#26aab7"/>
            <path id="Trazado_130944" data-name="Trazado 130944" d="M203.838,131.855a4.154,4.154,0,0,1-4.016-3.092.7.7,0,0,0-1.361.358,5.561,5.561,0,1,0,.224-3.51.7.7,0,1,0,1.3.529,4.153,4.153,0,1,1,3.849,5.715Z" transform="translate(-133.326 -110.683)" fill="#26aab7"/>
          </g>
        </g>
      </g>
    </g>
  </g>
</svg>
