<svg id="Grupo_1100736" data-name="Grupo 1100736" xmlns="http://www.w3.org/2000/svg" xmlns:xlink="http://www.w3.org/1999/xlink" width="190" height="169.059" viewBox="0 0 190 169.059">
  <defs>
    <clipPath id="clip-path">
      <rect id="Rectángulo_401963" data-name="Rectángulo 401963" width="190" height="169.059" fill="none"/>
    </clipPath>
  </defs>
  <g id="Grupo_1100735" data-name="Grupo 1100735" clip-path="url(#clip-path)">
    <path id="Trazado_875567" data-name="Trazado 875567" d="M227.467,84.53c-1.925,112.715-169.586,112.7-171.494,0,1.925-112.711,169.586-112.693,171.494,0" transform="translate(-42.462 0)" fill="#7d6eb2"/>
    <path id="Trazado_875568" data-name="Trazado 875568" d="M12.4,630.887H.784a.784.784,0,1,1,0-1.569H12.4a.785.785,0,0,1,0,1.569" transform="translate(0 -477.41)" fill="#2e0f07"/>
    <path id="Trazado_875569" data-name="Trazado 875569" d="M311.753,630.887H300.141a.784.784,0,1,1,0-1.569h11.612a.785.785,0,0,1,0,1.569" transform="translate(-227.097 -477.41)" fill="#2e0f07"/>
    <path id="Trazado_875570" data-name="Trazado 875570" d="M126.787,630.887H80.34a.784.784,0,1,1,0-1.569h46.446a.785.785,0,0,1,0,1.569" transform="translate(-60.352 -477.41)" fill="#2e0f07"/>
    <path id="Trazado_875571" data-name="Trazado 875571" d="M429.215,630.083c-.8-.764-113.044,1.475-112.882-.783-.182-2.26,112.1-.023,112.883-.788a.786.786,0,0,1,0,1.571" transform="translate(-239.975 -476.606)" fill="#2e0f07"/>
    <path id="Trazado_875572" data-name="Trazado 875572" d="M79.97,585.461a11.287,11.287,0,0,0,11.287,11.287H228.165a11.287,11.287,0,0,0,11.287-11.287Z" transform="translate(-60.666 -444.14)" fill="#f1f5fa"/>
    <path id="Trazado_875573" data-name="Trazado 875573" d="M227.764,592.353H90.856c-6.234,0-11.287-3.582-11.287-8-.875,6.705,2.744,11.3,11.288,11.555H227.764c8.532-.275,12.164-4.805,11.287-11.555,0,4.419-5.054,8-11.287,8" transform="translate(-60.266 -443.298)" fill="#a0bddd"/>
    <path id="Trazado_875574" data-name="Trazado 875574" d="M225.7,595.067H88.792A12.085,12.085,0,0,1,76.72,583a.784.784,0,0,1,.785-.784H236.987a.784.784,0,0,1,.785.784A12.085,12.085,0,0,1,225.7,595.067M78.318,583.78A10.516,10.516,0,0,0,88.792,593.5H225.7a10.516,10.516,0,0,0,10.474-9.718Z" transform="translate(-58.201 -441.674)" fill="#2e0f07"/>
    <path id="Trazado_875575" data-name="Trazado 875575" d="M245.8,270.395c-145.022-6.124-124.835,31.163-125.733-85.128A13.632,13.632,0,0,1,133.7,171.632c145.022,6.124,124.835-31.162,125.733,85.128A13.632,13.632,0,0,1,245.8,270.395" transform="translate(-90.703 -129.385)" fill="#f1f5fa"/>
    <path id="Trazado_875576" data-name="Trazado 875576" d="M268.553,190.568a11.176,11.176,0,0,1,.7,3.91V270.83a11.205,11.205,0,0,1-11.205,11.206H141.093a11.175,11.175,0,0,1-3.91-.7,13.59,13.59,0,0,0,9.88,4.245h112.1A13.633,13.633,0,0,0,272.8,271.944v-71.5a13.591,13.591,0,0,0-4.245-9.88" transform="translate(-104.069 -144.568)" fill="#a0bddd"/>
    <path id="Trazado_875577" data-name="Trazado 875577" d="M243.32,268.692C99,262.489,117.311,300.171,116.8,182.78A14.432,14.432,0,0,1,131.22,168.36c144.325,6.2,126.01-31.48,126.518,85.912a14.433,14.433,0,0,1-14.417,14.419m-112.1-98.762a12.863,12.863,0,0,0-12.849,12.849c1.211,115.267-20.479,78.275,124.951,84.347a12.867,12.867,0,0,0,12.848-12.851C254.958,139.007,276.648,176,131.22,169.929" transform="translate(-88.226 -126.898)" fill="#2e0f07"/>
    <path id="Trazado_875578" data-name="Trazado 875578" d="M272.891,290.421H161.462a6.047,6.047,0,0,1-6.047-6.047V214.65a6.047,6.047,0,0,1,6.047-6.047H272.891a6.047,6.047,0,0,1,6.047,6.047v69.724a6.047,6.047,0,0,1-6.047,6.047" transform="translate(-117.9 -158.249)" fill="#9bdaf3"/>
    <path id="Trazado_875579" data-name="Trazado 875579" d="M160.256,216.488a3.568,3.568,0,0,1,3.568-3.568H278.685a6.049,6.049,0,0,0-5.794-4.316H161.462a6.047,6.047,0,0,0-6.047,6.047v69.723a6.049,6.049,0,0,0,4.841,5.926Z" transform="translate(-117.9 -158.25)" fill="#36b4e8"/>
    <path id="Trazado_875580" data-name="Trazado 875580" d="M270.425,288.741H159a6.84,6.84,0,0,1-6.832-6.832V212.186A6.839,6.839,0,0,1,159,205.354H270.425a6.839,6.839,0,0,1,6.832,6.832v69.724a6.839,6.839,0,0,1-6.832,6.832M159,206.923a5.269,5.269,0,0,0-5.263,5.263v69.724A5.269,5.269,0,0,0,159,287.172H270.425a5.269,5.269,0,0,0,5.263-5.263V212.186a5.269,5.269,0,0,0-5.263-5.263Z" transform="translate(-115.435 -155.785)" fill="#2e0f07"/>
    <path id="Trazado_875581" data-name="Trazado 875581" d="M365.778,590.034h-33.4c-2.489-.113-2.929-2.2-2.753-4.286h38.9c.183,2.069-.278,4.187-2.753,4.286" transform="translate(-250.036 -444.358)" fill="#8bafd6"/>
    <path id="Trazado_875582" data-name="Trazado 875582" d="M363.37,588.353h-33.4a3.542,3.542,0,0,1-3.538-3.538c.079-.675-.348-2.322.785-2.317h38.9a.785.785,0,0,1,.785.785c.271,2.517-.665,4.99-3.538,5.07m-35.365-4.286c-.173,1.324.48,2.716,1.969,2.717h33.4c1.475,0,2.152-1.394,1.969-2.717Z" transform="translate(-247.628 -441.892)" fill="#2e0f07"/>
    <path id="Trazado_875583" data-name="Trazado 875583" d="M347.227,173.79H296.7a5.483,5.483,0,0,1-5.483-5.483V94.585A5.483,5.483,0,0,1,296.7,89.1h50.525a5.483,5.483,0,0,1,5.483,5.483v73.721a5.483,5.483,0,0,1-5.483,5.483" transform="translate(-220.923 -67.594)" fill="#fff"/>
    <path id="Trazado_875584" data-name="Trazado 875584" d="M344.762,172.109H294.237a6.275,6.275,0,0,1-6.268-6.268V92.12a6.275,6.275,0,0,1,6.268-6.268h50.525a6.275,6.275,0,0,1,6.268,6.268v73.721a6.275,6.275,0,0,1-6.268,6.268M294.237,87.421a4.7,4.7,0,0,0-4.7,4.7v73.721a4.7,4.7,0,0,0,4.7,4.7h50.525a4.7,4.7,0,0,0,4.7-4.7V92.12a4.7,4.7,0,0,0-4.7-4.7Z" transform="translate(-218.458 -65.129)" fill="#2e0f07"/>
    <path id="Trazado_875585" data-name="Trazado 875585" d="M600.995,373.323H564.886a5.092,5.092,0,0,1-5.092-5.092V331.64a5.092,5.092,0,0,1,5.092-5.092h36.109a5.092,5.092,0,0,1,5.092,5.092v36.591a5.092,5.092,0,0,1-5.092,5.092" transform="translate(-424.668 -247.724)" fill="#fff"/>
    <path id="Trazado_875586" data-name="Trazado 875586" d="M598.529,371.642H562.42a5.883,5.883,0,0,1-5.876-5.877V329.174a5.883,5.883,0,0,1,5.876-5.876h36.109a5.883,5.883,0,0,1,5.876,5.876v36.591a5.883,5.883,0,0,1-5.876,5.877M562.42,324.867a4.312,4.312,0,0,0-4.307,4.307v36.591a4.312,4.312,0,0,0,4.307,4.307h36.109a4.312,4.312,0,0,0,4.307-4.307V329.174a4.312,4.312,0,0,0-4.307-4.307Z" transform="translate(-422.203 -245.259)" fill="#2e0f07"/>
    <path id="Trazado_875587" data-name="Trazado 875587" d="M618.143,397.4c-15.928-.286-15.926-23.956,0-24.24,15.927.286,15.925,23.956,0,24.24m0-22.671c-13.866.249-13.864,20.855,0,21.1,13.865-.249,13.863-20.855,0-21.1" transform="translate(-459.871 -283.089)" fill="#b41a23"/>
    <path id="Trazado_875588" data-name="Trazado 875588" d="M627.658,403.987c-11.891-.213-11.889-17.884,0-18.1,11.89.213,11.888,17.884,0,18.1m0-16.527c-9.829.176-9.827,14.783,0,14.958,9.829-.176,9.827-14.783,0-14.958" transform="translate(-469.386 -292.743)" fill="#b41a23"/>
    <path id="Trazado_875589" data-name="Trazado 875589" d="M638.14,411.238c-7.444-.133-7.443-11.2,0-11.328,7.443.133,7.442,11.2,0,11.328m0-9.759c-5.382.1-5.381,8.094,0,8.19,5.381-.1,5.38-8.094,0-8.19" transform="translate(-479.868 -303.378)" fill="#b41a23"/>
    <path id="Trazado_875590" data-name="Trazado 875590" d="M653.219,366.29a.784.784,0,0,1-.784-.784V354.344a.785.785,0,0,1,1.569,0v11.161a.784.784,0,0,1-.785.784" transform="translate(-494.947 -268.216)" fill="#b41a23"/>
    <path id="Trazado_875591" data-name="Trazado 875591" d="M653.219,453.309a.784.784,0,0,1-.784-.784V441.364a.785.785,0,1,1,1.569,0v11.161a.784.784,0,0,1-.785.784" transform="translate(-494.947 -334.23)" fill="#b41a23"/>
    <path id="Trazado_875592" data-name="Trazado 875592" d="M684.771,421.757H673.61a.784.784,0,0,1,0-1.569h11.161a.785.785,0,0,1,0,1.569" transform="translate(-510.416 -318.761)" fill="#b41a23"/>
    <path id="Trazado_875593" data-name="Trazado 875593" d="M597.75,421.757H586.589a.784.784,0,1,1,0-1.569H597.75a.785.785,0,0,1,0,1.569" transform="translate(-444.401 -318.761)" fill="#b41a23"/>
    <rect id="Rectángulo_401921" data-name="Rectángulo 401921" width="21.643" height="22.635" transform="translate(8.422 141.861) rotate(-42.129)" fill="#fff"/>
    <path id="Trazado_875594" data-name="Trazado 875594" d="M86.981,572.236l-7.154-7.91c-2.336,7.427-10.787,10.631-17.444,12.978l8.547,9.45Z" transform="translate(-47.325 -428.106)" fill="#e1f4fb"/>
    <path id="Trazado_875595" data-name="Trazado 875595" d="M47.616,557.476a.783.783,0,0,1-.582-.258L31.851,540.431a.789.789,0,0,1,.056-1.108c.558.092,16.69-16.426,17.159-14.463l15.184,16.787a.784.784,0,0,1-.056,1.108L48.142,557.274a.782.782,0,0,1-.526.2M33.54,539.961l14.131,15.623,14.887-13.465L48.428,526.5Z" transform="translate(-24.01 -398.044)" fill="#2e0f07"/>
    <path id="Trazado_875596" data-name="Trazado 875596" d="M50.074,581.234c-5.317-2.08-13.755-11.576-15.183-16.787l8.179-7.4c1.926,5.058,10.168,14.26,15.183,16.787l-8.179,7.4" transform="translate(-26.469 -422.587)" fill="#1baae4"/>
    <path id="Trazado_875597" data-name="Trazado 875597" d="M49.766,566.818a41.119,41.119,0,0,1-6.7-9.768l-8.179,7.4a33.3,33.3,0,0,0,3.285,6.124,35.184,35.184,0,0,0,12.916-2.383c-.442-.436-.885-.891-1.328-1.37" transform="translate(-26.47 -422.587)" fill="#69c7ed"/>
    <path id="Trazado_875598" data-name="Trazado 875598" d="M47.609,579.562A33.04,33.04,0,0,1,31.7,562.287a.785.785,0,0,1,.2-.878l8.179-7.4a.79.79,0,0,1,1.231.236A40.348,40.348,0,0,0,56.2,570.714a.785.785,0,0,1,.112,1.248l-8.179,7.4a.784.784,0,0,1-.526.2M33.364,562.2a32.4,32.4,0,0,0,14.131,15.623l7.006-6.336a41.914,41.914,0,0,1-14.131-15.623Z" transform="translate(-24.004 -420.13)" fill="#2e0f07"/>
    <path id="Trazado_875599" data-name="Trazado 875599" d="M104.75,462.779s2.081,4.162,9.364,5.723,26.011-19.248,21.329-26.531-15.607-17.167-20.809-14.046-10.925,5.2-11.965,10.925-4.162,16.127,2.081,23.93" transform="translate(-76.594 -324.181)" fill="#ffc2b3"/>
    <path id="Trazado_875600" data-name="Trazado 875600" d="M112.77,467.3c-17.688-3.349-15.481-19.8-13.054-30.662.925-5.083,5.137-7.421,9.6-9.9,7.493-6.961,19.035,4.6,24.61,12.734,1.025,1.6,1.143,3.756.35,6.423-2.808,8.142-12.521,20.163-21.5,21.4m-9.5-6.946c.034.065,2.078,3.863,8.828,5.31,1.766.378,4.679-.884,7.989-3.464,5.388-3.921,15.709-16.324,12.516-21.876-3.436-5.3-13.64-16.427-19.745-13.8-4.619,2.8-10.754,5.084-11.6,10.393-1.3,6.928-3.895,15.85,2.009,23.436" transform="translate(-74.412 -322.106)" fill="#2e0f07"/>
    <path id="Trazado_875601" data-name="Trazado 875601" d="M104.75,462.779s2.081,4.162,9.364,5.723,26.011-19.248,21.329-26.531-15.607-17.167-20.809-14.046-10.925,5.2-11.965,10.925-4.162,16.127,2.081,23.93" transform="translate(-76.594 -324.181)" fill="#ffc2b3"/>
    <path id="Trazado_875602" data-name="Trazado 875602" d="M143.107,442.063c-4.924-7.445-15.862-17.725-21.383-13.707,4.857,5.892,3.284,15.747,3.555,23.063-.119,6.679-8.91,8.586-14.212,9.485,2.256,2.661,1.4,4.992,10.71,7.691,7.283,1.56,26.011-19.248,21.329-26.532" transform="translate(-84.258 -324.273)" fill="#ffa18a"/>
    <path id="Trazado_875603" data-name="Trazado 875603" d="M112.77,467.3c-17.688-3.349-15.481-19.8-13.054-30.662.925-5.083,5.137-7.421,9.6-9.9,7.493-6.961,19.035,4.6,24.61,12.734,1.025,1.6,1.143,3.756.35,6.423-2.808,8.142-12.521,20.163-21.5,21.4m-9.5-6.946c.034.065,2.078,3.863,8.828,5.31,1.766.378,4.679-.884,7.989-3.464,5.388-3.921,15.709-16.324,12.516-21.876-3.436-5.3-13.64-16.427-19.745-13.8-4.619,2.8-10.754,5.084-11.6,10.393-1.3,6.928-3.895,15.85,2.009,23.436" transform="translate(-74.412 -322.106)" fill="#2e0f07"/>
    <path id="Trazado_875604" data-name="Trazado 875604" d="M129.577,417.516c7.565-19.068,26.431-13.433,8.844,1.561" transform="translate(-98.299 -307.53)" fill="#ffc2b3"/>
    <path id="Trazado_875605" data-name="Trazado 875605" d="M135.921,416.953a.79.79,0,0,1-.494-1.394c2.128-1.724,7.543-6.888,7.044-10.036-.152-.96-.881-1.678-2.229-2.2-2.948-1.134-6.129,1.976-8.278,4.783a43.24,43.24,0,0,0-4.178,6.832.785.785,0,0,1-1.419-.669c.1-.872,6.02-10.441,8.85-11.531,3.147-2.381,8.147-1.026,8.8,2.535,1.093,2.922-5.755,10.772-8.1,11.675" transform="translate(-95.799 -304.622)" fill="#2e0f07"/>
    <path id="Trazado_875606" data-name="Trazado 875606" d="M152.328,440.008h0a4.446,4.446,0,0,1-.426-6.273l9.036-10.353a4.446,4.446,0,0,1,6.7,5.847L158.6,439.582a4.446,4.446,0,0,1-6.273.426" transform="translate(-114.404 -320.029)" fill="#ffc2b3"/>
    <path id="Trazado_875607" data-name="Trazado 875607" d="M152.79,439.347a5.228,5.228,0,0,1-3.937-8.667l9.036-10.353c4.61-5.1,12.31,1.617,7.881,6.879l-9.036,10.353a5.221,5.221,0,0,1-3.944,1.789m-2.4-2.47a3.665,3.665,0,0,0,5.166-.351l9.036-10.353a3.661,3.661,0,1,0-5.517-4.815l-9.036,10.353a3.666,3.666,0,0,0,.351,5.166" transform="translate(-111.946 -317.49)" fill="#2e0f07"/>
    <path id="Trazado_875608" data-name="Trazado 875608" d="M177.916,465.6a4.446,4.446,0,0,1-.426-6.273l9.036-10.353a4.446,4.446,0,0,1,6.7,5.847l-9.036,10.353a4.446,4.446,0,0,1-6.273.426" transform="translate(-133.815 -339.441)" fill="#ffc2b3"/>
    <path id="Trazado_875609" data-name="Trazado 875609" d="M178.378,464.935a5.228,5.228,0,0,1-3.937-8.667l9.036-10.353c4.609-5.1,12.31,1.617,7.881,6.879l-9.036,10.353a5.221,5.221,0,0,1-3.944,1.789m9.042-19.241a3.654,3.654,0,0,0-2.761,1.252L175.623,457.3a3.678,3.678,0,0,0,.351,5.166h0a3.665,3.665,0,0,0,5.166-.351l9.036-10.353a3.685,3.685,0,0,0-2.756-6.067" transform="translate(-131.357 -336.901)" fill="#2e0f07"/>
    <path id="Trazado_875610" data-name="Trazado 875610" d="M205,497.4h0a3.82,3.82,0,0,1-.366-5.389l7.763-8.895a3.82,3.82,0,0,1,5.756,5.023l-7.763,8.895A3.819,3.819,0,0,1,205,497.4" transform="translate(-154.527 -365.51)" fill="#ffc2b3"/>
    <path id="Trazado_875611" data-name="Trazado 875611" d="M205.043,496.6a4.626,4.626,0,0,1-4.587-4.293,4.574,4.574,0,0,1,1.125-3.34l7.763-8.895c4.057-4.484,10.837,1.422,6.937,6.055l-7.763,8.895a4.587,4.587,0,0,1-3.475,1.577m7.772-16.533a3.029,3.029,0,0,0-2.289,1.038L202.763,490a3.035,3.035,0,1,0,4.573,3.992L215.1,485.1a3.055,3.055,0,0,0-2.284-5.029" transform="translate(-152.061 -362.98)" fill="#2e0f07"/>
    <path id="Trazado_875612" data-name="Trazado 875612" d="M100.288,421.558s.962-10.222-5.9-12.916c0,0,.639-14.3-4.973-15.138-8.453-1.255-5.144,14.941-5.144,14.941.266,2.057-2.884,18.8,5.389,24.494" transform="translate(-63.449 -298.466)" fill="#ffc2b3"/>
    <path id="Trazado_875613" data-name="Trazado 875613" d="M87.245,431.4c-6.72-2.86-7.053-16.993-6.272-22.95.344-3.273-.34-2.9-.522-7.862-.049-6.05.95-10.659,6.665-10.184,4.73-.056,6.006,11.584,5.657,15.4,4.639,1.554,6.48,9.981,5.877,13.5a.785.785,0,0,1-1.562-.147c.5-3.125-1.016-10.96-5.4-12.113a.786.786,0,0,1-.5-.765,42.878,42.878,0,0,0-.377-7.127c-1-6.946-3.831-8.729-7.093-6.293-2.557,2.718-1.646,10.392-1.085,13.158-.071,6.26-2.2,18.5,5.055,23.948a.789.789,0,0,1-.445,1.431" transform="translate(-61.03 -296.138)" fill="#2e0f07"/>
    <path id="Trazado_875614" data-name="Trazado 875614" d="M103.773,252.74c-55.151-2.212-46.944,11.147-47.41-29.947a4.643,4.643,0,0,1,4.643-4.644c55.151,2.212,46.944-11.147,47.41,29.947a4.643,4.643,0,0,1-4.643,4.644" transform="translate(-42.616 -165.189)" fill="#fff"/>
    <path id="Trazado_875615" data-name="Trazado 875615" d="M101.308,251.053c-54.6-2.266-48.075,11.4-48.194-30.731a5.433,5.433,0,0,1,5.427-5.428c54.6,2.265,48.075-11.4,48.194,30.731a5.433,5.433,0,0,1-5.427,5.428m-42.767-34.59a3.863,3.863,0,0,0-3.859,3.859v25.3a3.863,3.863,0,0,0,3.859,3.859h42.767a3.863,3.863,0,0,0,3.859-3.859v-25.3a3.863,3.863,0,0,0-3.859-3.859Z" transform="translate(-40.151 -162.718)" fill="#2e0f07"/>
    <rect id="Rectángulo_401922" data-name="Rectángulo 401922" width="5.589" height="7.452" transform="translate(19.751 71.078)" fill="#f6eb3a"/>
    <path id="Trazado_875616" data-name="Trazado 875616" d="M85.893,300.875H80.3a.483.483,0,0,1-.483-.483v-7.452a.483.483,0,0,1,.483-.483h5.589a.483.483,0,0,1,.483.483v7.452a.483.483,0,0,1-.483.483m-5.106-.966H85.41v-6.486H80.787Z" transform="translate(-60.553 -221.863)" fill="#2e0f07"/>
    <path id="Trazado_875617" data-name="Trazado 875617" d="M91.881,276.258a.483.483,0,0,1-.483-.483v-5.216a.483.483,0,1,1,.966,0v5.216a.483.483,0,0,1-.483.483" transform="translate(-69.336 -204.884)" fill="#2e0f07"/>
    <path id="Trazado_875618" data-name="Trazado 875618" d="M91.881,330.283a.483.483,0,0,1-.483-.483v-5.216a.483.483,0,1,1,.966,0V329.8a.483.483,0,0,1-.483.483" transform="translate(-69.336 -245.868)" fill="#2e0f07"/>
    <rect id="Rectángulo_401923" data-name="Rectángulo 401923" width="5.589" height="7.452" transform="translate(43.41 71.823)" fill="#f6eb3a"/>
    <path id="Trazado_875619" data-name="Trazado 875619" d="M183.91,303.962h-5.589a.483.483,0,0,1-.483-.483v-7.452a.483.483,0,0,1,.483-.483h5.589a.483.483,0,0,1,.483.483v7.452a.483.483,0,0,1-.483.483M178.8,303h4.623v-6.486H178.8Z" transform="translate(-134.911 -224.205)" fill="#2e0f07"/>
    <path id="Trazado_875620" data-name="Trazado 875620" d="M189.9,279.345a.483.483,0,0,1-.483-.483v-5.216a.483.483,0,1,1,.966,0v5.216a.483.483,0,0,1-.483.483" transform="translate(-143.693 -207.226)" fill="#2e0f07"/>
    <path id="Trazado_875621" data-name="Trazado 875621" d="M189.9,333.37a.483.483,0,0,1-.483-.483v-5.216a.483.483,0,1,1,.966,0v5.216a.483.483,0,0,1-.483.483" transform="translate(-143.693 -248.21)" fill="#2e0f07"/>
    <rect id="Rectángulo_401924" data-name="Rectángulo 401924" width="5.589" height="4.246" transform="translate(34.84 69.215)" fill="#f6eb3a"/>
    <path id="Trazado_875622" data-name="Trazado 875622" d="M148.408,289.952h-5.589a.483.483,0,0,1-.483-.483v-4.246a.483.483,0,0,1,.483-.483h5.589a.483.483,0,0,1,.483.483v4.246a.483.483,0,0,1-.483.483m-5.106-.966h4.623v-3.281H143.3Z" transform="translate(-107.978 -216.008)" fill="#2e0f07"/>
    <path id="Trazado_875623" data-name="Trazado 875623" d="M154.4,268.54a.483.483,0,0,1-.483-.483v-5.216a.483.483,0,0,1,.966,0v5.216a.483.483,0,0,1-.483.483" transform="translate(-116.761 -199.029)" fill="#2e0f07"/>
    <path id="Trazado_875624" data-name="Trazado 875624" d="M154.4,309.285a.483.483,0,0,1-.483-.483v-5.216a.483.483,0,0,1,.966,0V308.8a.483.483,0,0,1-.483.483" transform="translate(-116.761 -229.939)" fill="#2e0f07"/>
    <rect id="Rectángulo_401925" data-name="Rectángulo 401925" width="5.589" height="10.657" transform="translate(26.736 60.886)" fill="#f6eb3a"/>
    <path id="Trazado_875625" data-name="Trazado 875625" d="M114.835,261.859h-5.589a.483.483,0,0,1-.483-.483V250.719a.483.483,0,0,1,.483-.483h5.589a.483.483,0,0,1,.483.483v10.657a.483.483,0,0,1-.483.483m-5.106-.966h4.623V251.2h-4.623Z" transform="translate(-82.509 -189.833)" fill="#2e0f07"/>
    <path id="Trazado_875626" data-name="Trazado 875626" d="M120.823,234.036a.483.483,0,0,1-.483-.483v-5.216a.483.483,0,0,1,.966,0v5.216a.483.483,0,0,1-.483.483" transform="translate(-91.292 -172.854)" fill="#2e0f07"/>
    <path id="Trazado_875627" data-name="Trazado 875627" d="M120.823,301.341a.483.483,0,0,1-.483-.483v-5.216a.483.483,0,1,1,.966,0v5.216a.483.483,0,0,1-.483.483" transform="translate(-91.292 -223.912)" fill="#2e0f07"/>
    <rect id="Rectángulo_401926" data-name="Rectángulo 401926" width="5.589" height="10.657" transform="translate(52.259 66.102)" fill="#f6eb3a"/>
    <path id="Trazado_875628" data-name="Trazado 875628" d="M220.57,283.468h-5.589a.483.483,0,0,1-.483-.483V272.328a.483.483,0,0,1,.483-.483h5.589a.483.483,0,0,1,.483.483v10.658a.483.483,0,0,1-.483.483m-5.106-.966h4.623v-9.692h-4.623Z" transform="translate(-162.722 -206.226)" fill="#2e0f07"/>
    <path id="Trazado_875629" data-name="Trazado 875629" d="M226.558,255.646a.483.483,0,0,1-.483-.483v-5.216a.483.483,0,0,1,.966,0v5.216a.483.483,0,0,1-.483.483" transform="translate(-171.504 -189.247)" fill="#2e0f07"/>
    <path id="Trazado_875630" data-name="Trazado 875630" d="M226.558,322.95a.483.483,0,0,1-.483-.483v-5.216a.483.483,0,1,1,.966,0v5.216a.483.483,0,0,1-.483.483" transform="translate(-171.504 -240.305)" fill="#2e0f07"/>
    <rect id="Rectángulo_401927" data-name="Rectángulo 401927" width="23.699" height="4.736" transform="translate(106.58 138.44)" fill="#fce366"/>
    <rect id="Rectángulo_401928" data-name="Rectángulo 401928" width="22.383" height="0.306" transform="translate(107.22 139.048)" fill="#fff"/>
    <path id="Trazado_875631" data-name="Trazado 875631" d="M468.477,577.56c.051,1.037-3.551,1.037-3.5,0-.051-1.037,3.551-1.037,3.5,0" transform="translate(-352.739 -437.556)" fill="#fff"/>
    <path id="Trazado_875632" data-name="Trazado 875632" d="M453.388,580.738c-6.247-.074-9.826-1.095-11.85-2.109v3.5h23.7v-3.06a34.372,34.372,0,0,1-11.85,1.665" transform="translate(-334.958 -438.957)" fill="#fab938"/>
    <path id="Trazado_875633" data-name="Trazado 875633" d="M462.771,576.578h-23.7a.785.785,0,0,1-.784-.785v-4.736a.785.785,0,0,1,.784-.784h23.7a.785.785,0,0,1,.785.784v4.736a.785.785,0,0,1-.785.785m-22.914-1.569h22.13v-3.167h-22.13Z" transform="translate(-332.492 -432.618)" fill="#2e0f07"/>
    <path id="Trazado_875634" data-name="Trazado 875634" d="M528.582,580.369a.3.3,0,0,1-.3-.3v-2.387a.3.3,0,1,1,.6,0v2.387a.3.3,0,0,1-.3.3" transform="translate(-400.761 -438.009)" fill="#2e0f07"/>
    <path id="Trazado_875635" data-name="Trazado 875635" d="M515.214,580.369a.3.3,0,0,1-.3-.3v-2.387a.3.3,0,1,1,.6,0v2.387a.3.3,0,0,1-.3.3" transform="translate(-390.62 -438.009)" fill="#2e0f07"/>
    <path id="Trazado_875636" data-name="Trazado 875636" d="M501.845,580.369a.3.3,0,0,1-.3-.3v-2.387a.3.3,0,1,1,.6,0v2.387a.3.3,0,0,1-.3.3" transform="translate(-380.478 -438.009)" fill="#2e0f07"/>
    <path id="Trazado_875637" data-name="Trazado 875637" d="M488.476,580.369a.3.3,0,0,1-.3-.3v-2.387a.3.3,0,1,1,.6,0v2.387a.3.3,0,0,1-.3.3" transform="translate(-370.336 -438.009)" fill="#2e0f07"/>
    <path id="Trazado_875638" data-name="Trazado 875638" d="M475.107,580.369a.3.3,0,0,1-.3-.3v-2.387a.3.3,0,1,1,.6,0v2.387a.3.3,0,0,1-.3.3" transform="translate(-360.194 -438.009)" fill="#2e0f07"/>
    <path id="Trazado_875639" data-name="Trazado 875639" d="M461.738,580.369a.3.3,0,0,1-.3-.3v-2.387a.3.3,0,1,1,.6,0v2.387a.3.3,0,0,1-.3.3" transform="translate(-350.053 -438.009)" fill="#2e0f07"/>
    <path id="Trazado_875640" data-name="Trazado 875640" d="M448.37,580.369a.3.3,0,0,1-.3-.3v-2.387a.3.3,0,1,1,.6,0v2.387a.3.3,0,0,1-.3.3" transform="translate(-339.911 -438.009)" fill="#2e0f07"/>
    <rect id="Rectángulo_401929" data-name="Rectángulo 401929" width="23.699" height="4.736" transform="translate(106.58 133.94)" fill="#fce366"/>
    <rect id="Rectángulo_401930" data-name="Rectángulo 401930" width="22.383" height="0.306" transform="translate(107.22 134.548)" fill="#fff"/>
    <path id="Trazado_875641" data-name="Trazado 875641" d="M468.477,558.919c.051,1.037-3.551,1.037-3.5,0-.051-1.037,3.551-1.037,3.5,0" transform="translate(-352.739 -423.415)" fill="#fff"/>
    <path id="Trazado_875642" data-name="Trazado 875642" d="M453.388,562.1c-6.247-.074-9.826-1.095-11.85-2.109v3.5h23.7v-3.06a34.372,34.372,0,0,1-11.85,1.665" transform="translate(-334.958 -424.816)" fill="#fab938"/>
    <path id="Trazado_875643" data-name="Trazado 875643" d="M462.771,557.937h-23.7a.784.784,0,0,1-.784-.784v-4.736a.784.784,0,0,1,.784-.784h23.7a.784.784,0,0,1,.785.784v4.736a.784.784,0,0,1-.785.784m-22.914-1.569h22.13V553.2h-22.13Z" transform="translate(-332.492 -418.477)" fill="#2e0f07"/>
    <path id="Trazado_875644" data-name="Trazado 875644" d="M528.582,561.728a.3.3,0,0,1-.3-.3V559.04a.3.3,0,1,1,.6,0v2.387a.3.3,0,0,1-.3.3" transform="translate(-400.761 -423.867)" fill="#2e0f07"/>
    <path id="Trazado_875645" data-name="Trazado 875645" d="M515.214,561.728a.3.3,0,0,1-.3-.3V559.04a.3.3,0,1,1,.6,0v2.387a.3.3,0,0,1-.3.3" transform="translate(-390.62 -423.867)" fill="#2e0f07"/>
    <path id="Trazado_875646" data-name="Trazado 875646" d="M501.845,561.728a.3.3,0,0,1-.3-.3V559.04a.3.3,0,1,1,.6,0v2.387a.3.3,0,0,1-.3.3" transform="translate(-380.478 -423.867)" fill="#2e0f07"/>
    <path id="Trazado_875647" data-name="Trazado 875647" d="M488.476,561.728a.3.3,0,0,1-.3-.3V559.04a.3.3,0,1,1,.6,0v2.387a.3.3,0,0,1-.3.3" transform="translate(-370.336 -423.867)" fill="#2e0f07"/>
    <path id="Trazado_875648" data-name="Trazado 875648" d="M475.107,561.728a.3.3,0,0,1-.3-.3V559.04a.3.3,0,1,1,.6,0v2.387a.3.3,0,0,1-.3.3" transform="translate(-360.194 -423.867)" fill="#2e0f07"/>
    <path id="Trazado_875649" data-name="Trazado 875649" d="M461.738,561.728a.3.3,0,0,1-.3-.3V559.04a.3.3,0,1,1,.6,0v2.387a.3.3,0,0,1-.3.3" transform="translate(-350.053 -423.867)" fill="#2e0f07"/>
    <path id="Trazado_875650" data-name="Trazado 875650" d="M448.37,561.728a.3.3,0,0,1-.3-.3V559.04a.3.3,0,1,1,.6,0v2.387a.3.3,0,0,1-.3.3" transform="translate(-339.911 -423.867)" fill="#2e0f07"/>
    <rect id="Rectángulo_401931" data-name="Rectángulo 401931" width="23.699" height="4.736" transform="translate(106.58 147.227)" fill="#fce366"/>
    <rect id="Rectángulo_401932" data-name="Rectángulo 401932" width="22.383" height="0.306" transform="translate(107.22 147.836)" fill="#fff"/>
    <path id="Trazado_875651" data-name="Trazado 875651" d="M468.477,613.966c.051,1.037-3.551,1.037-3.5,0-.051-1.037,3.551-1.037,3.5,0" transform="translate(-352.739 -465.174)" fill="#fff"/>
    <path id="Trazado_875652" data-name="Trazado 875652" d="M453.388,617.143c-6.247-.074-9.826-1.095-11.85-2.109v3.5h23.7v-3.06a34.372,34.372,0,0,1-11.85,1.665" transform="translate(-334.958 -466.574)" fill="#fab938"/>
    <path id="Trazado_875653" data-name="Trazado 875653" d="M462.771,612.983h-23.7a.784.784,0,0,1-.784-.784v-4.736a.784.784,0,0,1,.784-.784h23.7a.784.784,0,0,1,.785.784V612.2a.784.784,0,0,1-.785.784m-22.914-1.569h22.13v-3.167h-22.13Z" transform="translate(-332.492 -460.235)" fill="#2e0f07"/>
    <path id="Trazado_875654" data-name="Trazado 875654" d="M528.582,616.774a.3.3,0,0,1-.3-.3v-2.387a.3.3,0,1,1,.6,0v2.387a.3.3,0,0,1-.3.3" transform="translate(-400.761 -465.626)" fill="#2e0f07"/>
    <path id="Trazado_875655" data-name="Trazado 875655" d="M515.214,616.774a.3.3,0,0,1-.3-.3v-2.387a.3.3,0,1,1,.6,0v2.387a.3.3,0,0,1-.3.3" transform="translate(-390.62 -465.626)" fill="#2e0f07"/>
    <path id="Trazado_875656" data-name="Trazado 875656" d="M501.845,616.774a.3.3,0,0,1-.3-.3v-2.387a.3.3,0,1,1,.6,0v2.387a.3.3,0,0,1-.3.3" transform="translate(-380.478 -465.626)" fill="#2e0f07"/>
    <path id="Trazado_875657" data-name="Trazado 875657" d="M488.476,616.774a.3.3,0,0,1-.3-.3v-2.387a.3.3,0,1,1,.6,0v2.387a.3.3,0,0,1-.3.3" transform="translate(-370.336 -465.626)" fill="#2e0f07"/>
    <path id="Trazado_875658" data-name="Trazado 875658" d="M475.107,616.774a.3.3,0,0,1-.3-.3v-2.387a.3.3,0,1,1,.6,0v2.387a.3.3,0,0,1-.3.3" transform="translate(-360.194 -465.626)" fill="#2e0f07"/>
    <path id="Trazado_875659" data-name="Trazado 875659" d="M461.738,616.774a.3.3,0,0,1-.3-.3v-2.387a.3.3,0,1,1,.6,0v2.387a.3.3,0,0,1-.3.3" transform="translate(-350.053 -465.626)" fill="#2e0f07"/>
    <path id="Trazado_875660" data-name="Trazado 875660" d="M448.37,616.774a.3.3,0,0,1-.3-.3v-2.387a.3.3,0,1,1,.6,0v2.387a.3.3,0,0,1-.3.3" transform="translate(-339.911 -465.626)" fill="#2e0f07"/>
    <rect id="Rectángulo_401933" data-name="Rectángulo 401933" width="23.699" height="4.736" transform="translate(106.58 142.728)" fill="#fce366"/>
    <rect id="Rectángulo_401934" data-name="Rectángulo 401934" width="22.383" height="0.306" transform="translate(107.22 143.336)" fill="#fff"/>
    <path id="Trazado_875661" data-name="Trazado 875661" d="M468.477,595.325c.051,1.037-3.551,1.037-3.5,0-.051-1.037,3.551-1.037,3.5,0" transform="translate(-352.739 -451.032)" fill="#fff"/>
    <path id="Trazado_875662" data-name="Trazado 875662" d="M453.388,598.5c-6.247-.074-9.826-1.095-11.85-2.109v3.5h23.7v-3.06a34.371,34.371,0,0,1-11.85,1.665" transform="translate(-334.958 -452.433)" fill="#fab938"/>
    <path id="Trazado_875663" data-name="Trazado 875663" d="M462.771,594.342h-23.7a.785.785,0,0,1-.784-.784v-4.736a.785.785,0,0,1,.784-.785h23.7a.785.785,0,0,1,.785.785v4.736a.785.785,0,0,1-.785.784m-22.914-1.569h22.13v-3.167h-22.13Z" transform="translate(-332.492 -446.094)" fill="#2e0f07"/>
    <path id="Trazado_875664" data-name="Trazado 875664" d="M528.582,598.133a.3.3,0,0,1-.3-.3v-2.387a.3.3,0,0,1,.6,0v2.387a.3.3,0,0,1-.3.3" transform="translate(-400.761 -451.485)" fill="#2e0f07"/>
    <path id="Trazado_875665" data-name="Trazado 875665" d="M515.214,598.133a.3.3,0,0,1-.3-.3v-2.387a.3.3,0,0,1,.6,0v2.387a.3.3,0,0,1-.3.3" transform="translate(-390.62 -451.485)" fill="#2e0f07"/>
    <path id="Trazado_875666" data-name="Trazado 875666" d="M501.845,598.133a.3.3,0,0,1-.3-.3v-2.387a.3.3,0,0,1,.6,0v2.387a.3.3,0,0,1-.3.3" transform="translate(-380.478 -451.485)" fill="#2e0f07"/>
    <path id="Trazado_875667" data-name="Trazado 875667" d="M488.476,598.133a.3.3,0,0,1-.3-.3v-2.387a.3.3,0,0,1,.6,0v2.387a.3.3,0,0,1-.3.3" transform="translate(-370.336 -451.485)" fill="#2e0f07"/>
    <path id="Trazado_875668" data-name="Trazado 875668" d="M475.107,598.133a.3.3,0,0,1-.3-.3v-2.387a.3.3,0,0,1,.6,0v2.387a.3.3,0,0,1-.3.3" transform="translate(-360.194 -451.485)" fill="#2e0f07"/>
    <path id="Trazado_875669" data-name="Trazado 875669" d="M461.738,598.133a.3.3,0,0,1-.3-.3v-2.387a.3.3,0,0,1,.6,0v2.387a.3.3,0,0,1-.3.3" transform="translate(-350.053 -451.485)" fill="#2e0f07"/>
    <path id="Trazado_875670" data-name="Trazado 875670" d="M448.37,598.133a.3.3,0,0,1-.3-.3v-2.387a.3.3,0,0,1,.6,0v2.387a.3.3,0,0,1-.3.3" transform="translate(-339.911 -451.485)" fill="#2e0f07"/>
    <rect id="Rectángulo_401935" data-name="Rectángulo 401935" width="23.699" height="4.199" transform="translate(106.58 129.691)" fill="#fce366"/>
    <rect id="Rectángulo_401936" data-name="Rectángulo 401936" width="22.383" height="0.271" transform="translate(107.22 130.231)" fill="#fff"/>
    <path id="Trazado_875671" data-name="Trazado 875671" d="M468.477,540.862c.054.919-3.555.919-3.5,0-.054-.919,3.555-.919,3.5,0" transform="translate(-352.738 -409.783)" fill="#fff"/>
    <path id="Trazado_875672" data-name="Trazado 875672" d="M453.388,543.677c-6.247-.065-9.826-.971-11.85-1.87v3.106h23.7V542.2a38.441,38.441,0,0,1-11.85,1.476" transform="translate(-334.958 -411.024)" fill="#fab938"/>
    <path id="Trazado_875673" data-name="Trazado 875673" d="M462.771,539.8h-23.7a.784.784,0,0,1-.784-.784v-4.2a.784.784,0,0,1,.784-.784h23.7a.784.784,0,0,1,.785.784v4.2a.784.784,0,0,1-.785.784m-22.914-1.569h22.13V535.6h-22.13Z" transform="translate(-332.492 -405.124)" fill="#2e0f07"/>
    <path id="Trazado_875674" data-name="Trazado 875674" d="M528.582,543.277a.3.3,0,0,1-.3-.3V540.86a.3.3,0,1,1,.6,0v2.116a.3.3,0,0,1-.3.3" transform="translate(-400.761 -410.076)" fill="#2e0f07"/>
    <path id="Trazado_875675" data-name="Trazado 875675" d="M515.214,543.277a.3.3,0,0,1-.3-.3V540.86a.3.3,0,1,1,.6,0v2.116a.3.3,0,0,1-.3.3" transform="translate(-390.62 -410.076)" fill="#2e0f07"/>
    <path id="Trazado_875676" data-name="Trazado 875676" d="M501.845,543.277a.3.3,0,0,1-.3-.3V540.86a.3.3,0,1,1,.6,0v2.116a.3.3,0,0,1-.3.3" transform="translate(-380.478 -410.076)" fill="#2e0f07"/>
    <path id="Trazado_875677" data-name="Trazado 875677" d="M488.476,543.277a.3.3,0,0,1-.3-.3V540.86a.3.3,0,1,1,.6,0v2.116a.3.3,0,0,1-.3.3" transform="translate(-370.336 -410.076)" fill="#2e0f07"/>
    <path id="Trazado_875678" data-name="Trazado 875678" d="M475.107,543.277a.3.3,0,0,1-.3-.3V540.86a.3.3,0,1,1,.6,0v2.116a.3.3,0,0,1-.3.3" transform="translate(-360.194 -410.076)" fill="#2e0f07"/>
    <path id="Trazado_875679" data-name="Trazado 875679" d="M461.738,543.277a.3.3,0,0,1-.3-.3V540.86a.3.3,0,1,1,.6,0v2.116a.3.3,0,0,1-.3.3" transform="translate(-350.053 -410.076)" fill="#2e0f07"/>
    <path id="Trazado_875680" data-name="Trazado 875680" d="M448.37,543.277a.3.3,0,0,1-.3-.3V540.86a.3.3,0,1,1,.6,0v2.116a.3.3,0,0,1-.3.3" transform="translate(-339.911 -410.076)" fill="#2e0f07"/>
    <rect id="Rectángulo_401937" data-name="Rectángulo 401937" width="23.699" height="4.736" transform="translate(106.58 124.857)" fill="#fce366"/>
    <rect id="Rectángulo_401938" data-name="Rectángulo 401938" width="22.383" height="0.306" transform="translate(107.22 125.465)" fill="#fff"/>
    <path id="Trazado_875681" data-name="Trazado 875681" d="M468.477,521.291c.051,1.037-3.551,1.037-3.5,0-.051-1.037,3.551-1.037,3.5,0" transform="translate(-352.739 -394.869)" fill="#fff"/>
    <path id="Trazado_875682" data-name="Trazado 875682" d="M453.388,524.468c-6.247-.074-9.826-1.095-11.85-2.109v3.5h23.7V522.8a34.372,34.372,0,0,1-11.85,1.665" transform="translate(-334.958 -396.27)" fill="#fab938"/>
    <path id="Trazado_875683" data-name="Trazado 875683" d="M462.771,520.309h-23.7a.784.784,0,0,1-.784-.784v-4.736a.784.784,0,0,1,.784-.784h23.7a.784.784,0,0,1,.785.784v4.736a.784.784,0,0,1-.785.784m-22.914-1.569h22.13v-3.167h-22.13Z" transform="translate(-332.492 -389.931)" fill="#2e0f07"/>
    <path id="Trazado_875684" data-name="Trazado 875684" d="M528.582,524.1a.3.3,0,0,1-.3-.3v-2.387a.3.3,0,1,1,.6,0V523.8a.3.3,0,0,1-.3.3" transform="translate(-400.761 -395.321)" fill="#2e0f07"/>
    <path id="Trazado_875685" data-name="Trazado 875685" d="M515.214,524.1a.3.3,0,0,1-.3-.3v-2.387a.3.3,0,1,1,.6,0V523.8a.3.3,0,0,1-.3.3" transform="translate(-390.62 -395.321)" fill="#2e0f07"/>
    <path id="Trazado_875686" data-name="Trazado 875686" d="M501.845,524.1a.3.3,0,0,1-.3-.3v-2.387a.3.3,0,1,1,.6,0V523.8a.3.3,0,0,1-.3.3" transform="translate(-380.478 -395.321)" fill="#2e0f07"/>
    <path id="Trazado_875687" data-name="Trazado 875687" d="M488.476,524.1a.3.3,0,0,1-.3-.3v-2.387a.3.3,0,1,1,.6,0V523.8a.3.3,0,0,1-.3.3" transform="translate(-370.336 -395.321)" fill="#2e0f07"/>
    <path id="Trazado_875688" data-name="Trazado 875688" d="M475.107,524.1a.3.3,0,0,1-.3-.3v-2.387a.3.3,0,1,1,.6,0V523.8a.3.3,0,0,1-.3.3" transform="translate(-360.194 -395.321)" fill="#2e0f07"/>
    <path id="Trazado_875689" data-name="Trazado 875689" d="M461.738,524.1a.3.3,0,0,1-.3-.3v-2.387a.3.3,0,1,1,.6,0V523.8a.3.3,0,0,1-.3.3" transform="translate(-350.053 -395.321)" fill="#2e0f07"/>
    <path id="Trazado_875690" data-name="Trazado 875690" d="M448.37,524.1a.3.3,0,0,1-.3-.3v-2.387a.3.3,0,1,1,.6,0V523.8a.3.3,0,0,1-.3.3" transform="translate(-339.911 -395.321)" fill="#2e0f07"/>
    <rect id="Rectángulo_401939" data-name="Rectángulo 401939" width="23.699" height="4.736" transform="translate(106.58 120.215)" fill="#fce366"/>
    <rect id="Rectángulo_401940" data-name="Rectángulo 401940" width="22.383" height="0.306" transform="translate(107.22 120.823)" fill="#fff"/>
    <path id="Trazado_875691" data-name="Trazado 875691" d="M468.477,502.06c.051,1.037-3.551,1.037-3.5,0-.051-1.037,3.551-1.037,3.5,0" transform="translate(-352.739 -380.28)" fill="#fff"/>
    <path id="Trazado_875692" data-name="Trazado 875692" d="M453.388,505.237c-6.247-.074-9.826-1.095-11.85-2.109v3.5h23.7v-3.06a34.371,34.371,0,0,1-11.85,1.665" transform="translate(-334.958 -381.681)" fill="#fab938"/>
    <path id="Trazado_875693" data-name="Trazado 875693" d="M462.771,501.077h-23.7a.784.784,0,0,1-.784-.784v-4.736a.784.784,0,0,1,.784-.784h23.7a.784.784,0,0,1,.785.784v4.736a.784.784,0,0,1-.785.784m-22.914-1.569h22.13v-3.167h-22.13Z" transform="translate(-332.492 -375.342)" fill="#2e0f07"/>
    <path id="Trazado_875694" data-name="Trazado 875694" d="M528.582,504.868a.3.3,0,0,1-.3-.3V502.18a.3.3,0,1,1,.6,0v2.387a.3.3,0,0,1-.3.3" transform="translate(-400.761 -380.732)" fill="#2e0f07"/>
    <path id="Trazado_875695" data-name="Trazado 875695" d="M515.214,504.868a.3.3,0,0,1-.3-.3V502.18a.3.3,0,1,1,.6,0v2.387a.3.3,0,0,1-.3.3" transform="translate(-390.62 -380.732)" fill="#2e0f07"/>
    <path id="Trazado_875696" data-name="Trazado 875696" d="M501.845,504.868a.3.3,0,0,1-.3-.3V502.18a.3.3,0,0,1,.6,0v2.387a.3.3,0,0,1-.3.3" transform="translate(-380.478 -380.732)" fill="#2e0f07"/>
    <path id="Trazado_875697" data-name="Trazado 875697" d="M488.476,504.868a.3.3,0,0,1-.3-.3V502.18a.3.3,0,0,1,.6,0v2.387a.3.3,0,0,1-.3.3" transform="translate(-370.336 -380.732)" fill="#2e0f07"/>
    <path id="Trazado_875698" data-name="Trazado 875698" d="M475.107,504.868a.3.3,0,0,1-.3-.3V502.18a.3.3,0,0,1,.6,0v2.387a.3.3,0,0,1-.3.3" transform="translate(-360.194 -380.732)" fill="#2e0f07"/>
    <path id="Trazado_875699" data-name="Trazado 875699" d="M461.738,504.868a.3.3,0,0,1-.3-.3V502.18a.3.3,0,0,1,.6,0v2.387a.3.3,0,0,1-.3.3" transform="translate(-350.053 -380.732)" fill="#2e0f07"/>
    <path id="Trazado_875700" data-name="Trazado 875700" d="M448.37,504.868a.3.3,0,0,1-.3-.3V502.18a.3.3,0,1,1,.6,0v2.387a.3.3,0,0,1-.3.3" transform="translate(-339.911 -380.732)" fill="#2e0f07"/>
    <rect id="Rectángulo_401941" data-name="Rectángulo 401941" width="23.699" height="4.736" transform="translate(87.805 138.44)" fill="#fce366"/>
    <rect id="Rectángulo_401942" data-name="Rectángulo 401942" width="22.383" height="0.306" transform="translate(88.444 139.048)" fill="#fff"/>
    <path id="Trazado_875701" data-name="Trazado 875701" d="M390.7,577.56c.051,1.037-3.551,1.037-3.5,0-.051-1.037,3.551-1.037,3.5,0" transform="translate(-293.732 -437.556)" fill="#fff"/>
    <path id="Trazado_875702" data-name="Trazado 875702" d="M375.606,580.738c-6.248-.074-9.826-1.095-11.85-2.109v3.5h23.7v-3.06a34.372,34.372,0,0,1-11.85,1.665" transform="translate(-275.951 -438.957)" fill="#fab938"/>
    <path id="Trazado_875703" data-name="Trazado 875703" d="M384.99,576.578h-23.7a.784.784,0,0,1-.784-.785v-4.736a.784.784,0,0,1,.784-.784h23.7a.785.785,0,0,1,.785.784v4.736a.785.785,0,0,1-.785.785m-22.915-1.569H384.2v-3.167h-22.13Z" transform="translate(-273.485 -432.618)" fill="#2e0f07"/>
    <path id="Trazado_875704" data-name="Trazado 875704" d="M450.8,580.369a.3.3,0,0,1-.3-.3v-2.387a.3.3,0,1,1,.6,0v2.387a.3.3,0,0,1-.3.3" transform="translate(-341.756 -438.009)" fill="#2e0f07"/>
    <path id="Trazado_875705" data-name="Trazado 875705" d="M437.432,580.369a.3.3,0,0,1-.3-.3v-2.387a.3.3,0,1,1,.6,0v2.387a.3.3,0,0,1-.3.3" transform="translate(-331.614 -438.009)" fill="#2e0f07"/>
    <path id="Trazado_875706" data-name="Trazado 875706" d="M424.063,580.369a.3.3,0,0,1-.3-.3v-2.387a.3.3,0,1,1,.6,0v2.387a.3.3,0,0,1-.3.3" transform="translate(-321.472 -438.009)" fill="#2e0f07"/>
    <path id="Trazado_875707" data-name="Trazado 875707" d="M410.694,580.369a.3.3,0,0,1-.3-.3v-2.387a.3.3,0,1,1,.6,0v2.387a.3.3,0,0,1-.3.3" transform="translate(-311.33 -438.009)" fill="#2e0f07"/>
    <path id="Trazado_875708" data-name="Trazado 875708" d="M397.325,580.369a.3.3,0,0,1-.3-.3v-2.387a.3.3,0,1,1,.6,0v2.387a.3.3,0,0,1-.3.3" transform="translate(-301.188 -438.009)" fill="#2e0f07"/>
    <path id="Trazado_875709" data-name="Trazado 875709" d="M383.957,580.369a.3.3,0,0,1-.3-.3v-2.387a.3.3,0,1,1,.6,0v2.387a.3.3,0,0,1-.3.3" transform="translate(-291.047 -438.009)" fill="#2e0f07"/>
    <path id="Trazado_875710" data-name="Trazado 875710" d="M370.588,580.369a.3.3,0,0,1-.3-.3v-2.387a.3.3,0,1,1,.6,0v2.387a.3.3,0,0,1-.3.3" transform="translate(-280.905 -438.009)" fill="#2e0f07"/>
    <rect id="Rectángulo_401943" data-name="Rectángulo 401943" width="23.699" height="4.736" transform="translate(87.805 133.94)" fill="#fce366"/>
    <rect id="Rectángulo_401944" data-name="Rectángulo 401944" width="22.383" height="0.306" transform="translate(88.444 134.548)" fill="#fff"/>
    <path id="Trazado_875711" data-name="Trazado 875711" d="M390.7,558.919c.051,1.037-3.551,1.037-3.5,0-.051-1.037,3.551-1.037,3.5,0" transform="translate(-293.732 -423.415)" fill="#fff"/>
    <path id="Trazado_875712" data-name="Trazado 875712" d="M375.606,562.1c-6.248-.074-9.826-1.095-11.85-2.109v3.5h23.7v-3.06a34.372,34.372,0,0,1-11.85,1.665" transform="translate(-275.951 -424.816)" fill="#fab938"/>
    <path id="Trazado_875713" data-name="Trazado 875713" d="M384.99,557.937h-23.7a.784.784,0,0,1-.784-.784v-4.736a.784.784,0,0,1,.784-.784h23.7a.785.785,0,0,1,.785.784v4.736a.785.785,0,0,1-.785.784m-22.915-1.569H384.2V553.2h-22.13Z" transform="translate(-273.485 -418.477)" fill="#2e0f07"/>
    <path id="Trazado_875714" data-name="Trazado 875714" d="M450.8,561.728a.3.3,0,0,1-.3-.3V559.04a.3.3,0,1,1,.6,0v2.387a.3.3,0,0,1-.3.3" transform="translate(-341.756 -423.867)" fill="#2e0f07"/>
    <path id="Trazado_875715" data-name="Trazado 875715" d="M437.432,561.728a.3.3,0,0,1-.3-.3V559.04a.3.3,0,1,1,.6,0v2.387a.3.3,0,0,1-.3.3" transform="translate(-331.614 -423.867)" fill="#2e0f07"/>
    <path id="Trazado_875716" data-name="Trazado 875716" d="M424.063,561.728a.3.3,0,0,1-.3-.3V559.04a.3.3,0,1,1,.6,0v2.387a.3.3,0,0,1-.3.3" transform="translate(-321.472 -423.867)" fill="#2e0f07"/>
    <path id="Trazado_875717" data-name="Trazado 875717" d="M410.694,561.728a.3.3,0,0,1-.3-.3V559.04a.3.3,0,1,1,.6,0v2.387a.3.3,0,0,1-.3.3" transform="translate(-311.33 -423.867)" fill="#2e0f07"/>
    <path id="Trazado_875718" data-name="Trazado 875718" d="M397.325,561.728a.3.3,0,0,1-.3-.3V559.04a.3.3,0,1,1,.6,0v2.387a.3.3,0,0,1-.3.3" transform="translate(-301.188 -423.867)" fill="#2e0f07"/>
    <path id="Trazado_875719" data-name="Trazado 875719" d="M383.957,561.728a.3.3,0,0,1-.3-.3V559.04a.3.3,0,1,1,.6,0v2.387a.3.3,0,0,1-.3.3" transform="translate(-291.047 -423.867)" fill="#2e0f07"/>
    <path id="Trazado_875720" data-name="Trazado 875720" d="M370.588,561.728a.3.3,0,0,1-.3-.3V559.04a.3.3,0,1,1,.6,0v2.387a.3.3,0,0,1-.3.3" transform="translate(-280.905 -423.867)" fill="#2e0f07"/>
    <rect id="Rectángulo_401945" data-name="Rectángulo 401945" width="23.699" height="4.736" transform="translate(87.805 147.712)" fill="#fce366"/>
    <rect id="Rectángulo_401946" data-name="Rectángulo 401946" width="22.383" height="0.306" transform="translate(88.444 148.32)" fill="#fff"/>
    <path id="Trazado_875721" data-name="Trazado 875721" d="M390.7,615.973c.051,1.037-3.551,1.037-3.5,0-.051-1.037,3.551-1.037,3.5,0" transform="translate(-293.732 -466.696)" fill="#fff"/>
    <path id="Trazado_875722" data-name="Trazado 875722" d="M375.606,619.15c-6.248-.074-9.826-1.095-11.85-2.109v3.5h23.7v-3.06a34.372,34.372,0,0,1-11.85,1.665" transform="translate(-275.951 -468.097)" fill="#fab938"/>
    <path id="Trazado_875723" data-name="Trazado 875723" d="M384.99,614.99h-23.7a.784.784,0,0,1-.784-.784v-4.736a.784.784,0,0,1,.784-.784h23.7a.785.785,0,0,1,.785.784v4.736a.785.785,0,0,1-.785.784m-22.915-1.569H384.2v-3.167h-22.13Z" transform="translate(-273.485 -461.758)" fill="#2e0f07"/>
    <path id="Trazado_875724" data-name="Trazado 875724" d="M450.8,618.781a.3.3,0,0,1-.3-.3v-2.387a.3.3,0,1,1,.6,0v2.387a.3.3,0,0,1-.3.3" transform="translate(-341.756 -467.149)" fill="#2e0f07"/>
    <path id="Trazado_875725" data-name="Trazado 875725" d="M437.432,618.781a.3.3,0,0,1-.3-.3v-2.387a.3.3,0,1,1,.6,0v2.387a.3.3,0,0,1-.3.3" transform="translate(-331.614 -467.149)" fill="#2e0f07"/>
    <path id="Trazado_875726" data-name="Trazado 875726" d="M424.063,618.781a.3.3,0,0,1-.3-.3v-2.387a.3.3,0,1,1,.6,0v2.387a.3.3,0,0,1-.3.3" transform="translate(-321.472 -467.149)" fill="#2e0f07"/>
    <path id="Trazado_875727" data-name="Trazado 875727" d="M410.694,618.781a.3.3,0,0,1-.3-.3v-2.387a.3.3,0,1,1,.6,0v2.387a.3.3,0,0,1-.3.3" transform="translate(-311.33 -467.149)" fill="#2e0f07"/>
    <path id="Trazado_875728" data-name="Trazado 875728" d="M397.325,618.781a.3.3,0,0,1-.3-.3v-2.387a.3.3,0,1,1,.6,0v2.387a.3.3,0,0,1-.3.3" transform="translate(-301.188 -467.149)" fill="#2e0f07"/>
    <path id="Trazado_875729" data-name="Trazado 875729" d="M383.957,618.781a.3.3,0,0,1-.3-.3v-2.387a.3.3,0,1,1,.6,0v2.387a.3.3,0,0,1-.3.3" transform="translate(-291.047 -467.149)" fill="#2e0f07"/>
    <path id="Trazado_875730" data-name="Trazado 875730" d="M370.588,618.781a.3.3,0,0,1-.3-.3v-2.387a.3.3,0,1,1,.6,0v2.387a.3.3,0,0,1-.3.3" transform="translate(-280.905 -467.149)" fill="#2e0f07"/>
    <rect id="Rectángulo_401947" data-name="Rectángulo 401947" width="23.699" height="4.736" transform="translate(87.805 143.212)" fill="#fce366"/>
    <rect id="Rectángulo_401948" data-name="Rectángulo 401948" width="22.383" height="0.306" transform="translate(88.444 143.82)" fill="#fff"/>
    <path id="Trazado_875731" data-name="Trazado 875731" d="M390.7,597.332c.051,1.038-3.551,1.038-3.5,0-.051-1.037,3.551-1.037,3.5,0" transform="translate(-293.732 -452.555)" fill="#fff"/>
    <path id="Trazado_875732" data-name="Trazado 875732" d="M375.606,600.509c-6.248-.074-9.826-1.095-11.85-2.109v3.5h23.7v-3.06a34.372,34.372,0,0,1-11.85,1.665" transform="translate(-275.951 -453.956)" fill="#fab938"/>
    <path id="Trazado_875733" data-name="Trazado 875733" d="M384.99,596.349h-23.7a.784.784,0,0,1-.784-.785v-4.736a.784.784,0,0,1,.784-.784h23.7a.785.785,0,0,1,.785.784v4.736a.785.785,0,0,1-.785.785m-22.915-1.569H384.2v-3.167h-22.13Z" transform="translate(-273.485 -447.617)" fill="#2e0f07"/>
    <path id="Trazado_875734" data-name="Trazado 875734" d="M450.8,600.14a.3.3,0,0,1-.3-.3v-2.387a.3.3,0,1,1,.6,0v2.387a.3.3,0,0,1-.3.3" transform="translate(-341.756 -453.007)" fill="#2e0f07"/>
    <path id="Trazado_875735" data-name="Trazado 875735" d="M437.432,600.14a.3.3,0,0,1-.3-.3v-2.387a.3.3,0,1,1,.6,0v2.387a.3.3,0,0,1-.3.3" transform="translate(-331.614 -453.007)" fill="#2e0f07"/>
    <path id="Trazado_875736" data-name="Trazado 875736" d="M424.063,600.14a.3.3,0,0,1-.3-.3v-2.387a.3.3,0,1,1,.6,0v2.387a.3.3,0,0,1-.3.3" transform="translate(-321.472 -453.007)" fill="#2e0f07"/>
    <path id="Trazado_875737" data-name="Trazado 875737" d="M410.694,600.14a.3.3,0,0,1-.3-.3v-2.387a.3.3,0,1,1,.6,0v2.387a.3.3,0,0,1-.3.3" transform="translate(-311.33 -453.007)" fill="#2e0f07"/>
    <path id="Trazado_875738" data-name="Trazado 875738" d="M397.325,600.14a.3.3,0,0,1-.3-.3v-2.387a.3.3,0,1,1,.6,0v2.387a.3.3,0,0,1-.3.3" transform="translate(-301.188 -453.007)" fill="#2e0f07"/>
    <path id="Trazado_875739" data-name="Trazado 875739" d="M383.957,600.14a.3.3,0,0,1-.3-.3v-2.387a.3.3,0,1,1,.6,0v2.387a.3.3,0,0,1-.3.3" transform="translate(-291.047 -453.007)" fill="#2e0f07"/>
    <path id="Trazado_875740" data-name="Trazado 875740" d="M370.588,600.14a.3.3,0,0,1-.3-.3v-2.387a.3.3,0,1,1,.6,0v2.387a.3.3,0,0,1-.3.3" transform="translate(-280.905 -453.007)" fill="#2e0f07"/>
    <rect id="Rectángulo_401949" data-name="Rectángulo 401949" width="23.699" height="4.199" transform="translate(87.805 129.691)" fill="#fce366"/>
    <rect id="Rectángulo_401950" data-name="Rectángulo 401950" width="22.383" height="0.271" transform="translate(88.444 130.231)" fill="#fff"/>
    <path id="Trazado_875741" data-name="Trazado 875741" d="M390.695,540.862c.054.919-3.555.919-3.5,0-.054-.919,3.555-.919,3.5,0" transform="translate(-293.732 -409.783)" fill="#fff"/>
    <path id="Trazado_875742" data-name="Trazado 875742" d="M375.606,543.677c-6.248-.065-9.826-.971-11.85-1.87v3.106h23.7V542.2a38.441,38.441,0,0,1-11.85,1.476" transform="translate(-275.951 -411.024)" fill="#fab938"/>
    <path id="Trazado_875743" data-name="Trazado 875743" d="M384.99,539.8h-23.7a.784.784,0,0,1-.784-.784v-4.2a.784.784,0,0,1,.784-.784h23.7a.785.785,0,0,1,.785.784v4.2a.785.785,0,0,1-.785.784m-22.915-1.569H384.2V535.6h-22.13Z" transform="translate(-273.485 -405.124)" fill="#2e0f07"/>
    <path id="Trazado_875744" data-name="Trazado 875744" d="M450.8,543.277a.3.3,0,0,1-.3-.3V540.86a.3.3,0,1,1,.6,0v2.116a.3.3,0,0,1-.3.3" transform="translate(-341.756 -410.076)" fill="#2e0f07"/>
    <path id="Trazado_875745" data-name="Trazado 875745" d="M437.432,543.277a.3.3,0,0,1-.3-.3V540.86a.3.3,0,1,1,.6,0v2.116a.3.3,0,0,1-.3.3" transform="translate(-331.614 -410.076)" fill="#2e0f07"/>
    <path id="Trazado_875746" data-name="Trazado 875746" d="M424.063,543.277a.3.3,0,0,1-.3-.3V540.86a.3.3,0,1,1,.6,0v2.116a.3.3,0,0,1-.3.3" transform="translate(-321.472 -410.076)" fill="#2e0f07"/>
    <path id="Trazado_875747" data-name="Trazado 875747" d="M410.694,543.277a.3.3,0,0,1-.3-.3V540.86a.3.3,0,1,1,.6,0v2.116a.3.3,0,0,1-.3.3" transform="translate(-311.33 -410.076)" fill="#2e0f07"/>
    <path id="Trazado_875748" data-name="Trazado 875748" d="M397.325,543.277a.3.3,0,0,1-.3-.3V540.86a.3.3,0,1,1,.6,0v2.116a.3.3,0,0,1-.3.3" transform="translate(-301.188 -410.076)" fill="#2e0f07"/>
    <path id="Trazado_875749" data-name="Trazado 875749" d="M383.957,543.277a.3.3,0,0,1-.3-.3V540.86a.3.3,0,1,1,.6,0v2.116a.3.3,0,0,1-.3.3" transform="translate(-291.047 -410.076)" fill="#2e0f07"/>
    <path id="Trazado_875750" data-name="Trazado 875750" d="M370.588,543.277a.3.3,0,0,1-.3-.3V540.86a.3.3,0,1,1,.6,0v2.116a.3.3,0,0,1-.3.3" transform="translate(-280.905 -410.076)" fill="#2e0f07"/>
    <rect id="Rectángulo_401951" data-name="Rectángulo 401951" width="21.615" height="4.32" transform="translate(68.045 148.382)" fill="#fce366"/>
    <rect id="Rectángulo_401952" data-name="Rectángulo 401952" width="20.415" height="0.279" transform="translate(68.628 148.937)" fill="#fff"/>
    <path id="Trazado_875751" data-name="Trazado 875751" d="M306.465,618.4c.047.946-3.239.946-3.192,0-.047-.946,3.239-.946,3.192,0" transform="translate(-230.067 -468.587)" fill="#fff"/>
    <path id="Trazado_875752" data-name="Trazado 875752" d="M292.7,621.295c-5.7-.067-8.963-1-10.808-1.924v3.2h21.616v-2.791a31.345,31.345,0,0,1-10.808,1.519" transform="translate(-213.848 -469.864)" fill="#fab938"/>
    <path id="Trazado_875753" data-name="Trazado 875753" d="M301.477,617.648H279.862a.647.647,0,0,1-.647-.646v-4.32a.647.647,0,0,1,.647-.647h21.615a.647.647,0,0,1,.647.647V617a.646.646,0,0,1-.647.646m-20.969-1.293h20.322v-3.027H280.508Z" transform="translate(-211.817 -464.299)" fill="#2e0f07"/>
    <path id="Trazado_875754" data-name="Trazado 875754" d="M361.369,621.015a.249.249,0,0,1-.249-.249V618.59a.249.249,0,0,1,.5,0v2.177a.249.249,0,0,1-.249.249" transform="translate(-273.951 -469.083)" fill="#2e0f07"/>
    <path id="Trazado_875755" data-name="Trazado 875755" d="M349.175,621.015a.249.249,0,0,1-.249-.249V618.59a.249.249,0,0,1,.5,0v2.177a.249.249,0,0,1-.249.249" transform="translate(-264.701 -469.083)" fill="#2e0f07"/>
    <path id="Trazado_875756" data-name="Trazado 875756" d="M336.982,621.015a.249.249,0,0,1-.249-.249V618.59a.249.249,0,0,1,.5,0v2.177a.249.249,0,0,1-.249.249" transform="translate(-255.451 -469.083)" fill="#2e0f07"/>
    <path id="Trazado_875757" data-name="Trazado 875757" d="M324.788,621.015a.249.249,0,0,1-.249-.249V618.59a.249.249,0,0,1,.5,0v2.177a.249.249,0,0,1-.249.249" transform="translate(-246.2 -469.083)" fill="#2e0f07"/>
    <path id="Trazado_875758" data-name="Trazado 875758" d="M312.595,621.015a.249.249,0,0,1-.249-.249V618.59a.249.249,0,0,1,.5,0v2.177a.249.249,0,0,1-.249.249" transform="translate(-236.951 -469.083)" fill="#2e0f07"/>
    <path id="Trazado_875759" data-name="Trazado 875759" d="M300.4,621.015a.249.249,0,0,1-.249-.249V618.59a.249.249,0,0,1,.5,0v2.177a.249.249,0,0,1-.249.249" transform="translate(-227.701 -469.083)" fill="#2e0f07"/>
    <path id="Trazado_875760" data-name="Trazado 875760" d="M288.208,621.015a.249.249,0,0,1-.249-.249V618.59a.249.249,0,0,1,.5,0v2.177a.249.249,0,0,1-.249.249" transform="translate(-218.45 -469.083)" fill="#2e0f07"/>
    <rect id="Rectángulo_401953" data-name="Rectángulo 401953" width="21.615" height="4.32" transform="translate(68.937 143.209)" fill="#fce366"/>
    <rect id="Rectángulo_401954" data-name="Rectángulo 401954" width="20.415" height="0.279" transform="translate(69.52 143.764)" fill="#fff"/>
    <path id="Trazado_875761" data-name="Trazado 875761" d="M310.163,596.966c.047.946-3.239.946-3.192,0-.047-.946,3.239-.946,3.192,0" transform="translate(-232.872 -452.329)" fill="#fff"/>
    <path id="Trazado_875762" data-name="Trazado 875762" d="M296.4,599.864c-5.7-.067-8.962-1-10.808-1.924v3.2h21.616v-2.791a31.344,31.344,0,0,1-10.808,1.519" transform="translate(-216.654 -453.607)" fill="#fab938"/>
    <path id="Trazado_875763" data-name="Trazado 875763" d="M305.175,596.218H283.559a.646.646,0,0,1-.646-.646v-4.32a.646.646,0,0,1,.646-.646h21.616a.646.646,0,0,1,.646.646v4.32a.646.646,0,0,1-.646.646m-20.969-1.293h20.323V591.9H284.206Z" transform="translate(-214.622 -448.042)" fill="#2e0f07"/>
    <path id="Trazado_875764" data-name="Trazado 875764" d="M365.067,599.584a.249.249,0,0,1-.249-.249v-2.177a.249.249,0,1,1,.5,0v2.177a.249.249,0,0,1-.249.249" transform="translate(-276.757 -452.825)" fill="#2e0f07"/>
    <path id="Trazado_875765" data-name="Trazado 875765" d="M352.873,599.584a.249.249,0,0,1-.249-.249v-2.177a.249.249,0,1,1,.5,0v2.177a.249.249,0,0,1-.249.249" transform="translate(-267.506 -452.825)" fill="#2e0f07"/>
    <path id="Trazado_875766" data-name="Trazado 875766" d="M340.68,599.584a.249.249,0,0,1-.249-.249v-2.177a.249.249,0,1,1,.5,0v2.177a.249.249,0,0,1-.249.249" transform="translate(-258.256 -452.825)" fill="#2e0f07"/>
    <path id="Trazado_875767" data-name="Trazado 875767" d="M328.487,599.584a.249.249,0,0,1-.249-.249v-2.177a.249.249,0,1,1,.5,0v2.177a.249.249,0,0,1-.249.249" transform="translate(-249.006 -452.825)" fill="#2e0f07"/>
    <path id="Trazado_875768" data-name="Trazado 875768" d="M316.293,599.584a.249.249,0,0,1-.249-.249v-2.177a.249.249,0,1,1,.5,0v2.177a.249.249,0,0,1-.249.249" transform="translate(-239.756 -452.825)" fill="#2e0f07"/>
    <path id="Trazado_875769" data-name="Trazado 875769" d="M304.1,599.584a.249.249,0,0,1-.249-.249v-2.177a.249.249,0,1,1,.5,0v2.177a.249.249,0,0,1-.249.249" transform="translate(-230.506 -452.825)" fill="#2e0f07"/>
    <path id="Trazado_875770" data-name="Trazado 875770" d="M291.906,599.584a.249.249,0,0,1-.249-.249v-2.177a.249.249,0,1,1,.5,0v2.177a.249.249,0,0,1-.249.249" transform="translate(-221.256 -452.825)" fill="#2e0f07"/>
    <rect id="Rectángulo_401955" data-name="Rectángulo 401955" width="21.615" height="4.32" transform="translate(70.723 138.036)" fill="#fce366"/>
    <rect id="Rectángulo_401956" data-name="Rectángulo 401956" width="20.415" height="0.279" transform="translate(71.305 138.591)" fill="#fff"/>
    <path id="Trazado_875771" data-name="Trazado 875771" d="M317.558,575.535c.047.946-3.239.946-3.192,0-.047-.946,3.239-.946,3.192,0" transform="translate(-238.482 -436.071)" fill="#fff"/>
    <path id="Trazado_875772" data-name="Trazado 875772" d="M303.795,578.433c-5.7-.067-8.962-1-10.808-1.924v3.2H314.6v-2.791a31.346,31.346,0,0,1-10.808,1.519" transform="translate(-222.264 -437.349)" fill="#fab938"/>
    <path id="Trazado_875773" data-name="Trazado 875773" d="M312.571,574.787H290.955a.646.646,0,0,1-.646-.646v-4.32a.646.646,0,0,1,.646-.646h21.615a.646.646,0,0,1,.646.646v4.32a.646.646,0,0,1-.646.646M291.6,573.494h20.322v-3.027H291.6Z" transform="translate(-220.233 -431.784)" fill="#2e0f07"/>
    <path id="Trazado_875774" data-name="Trazado 875774" d="M372.463,578.153a.249.249,0,0,1-.249-.249v-2.177a.249.249,0,0,1,.5,0V577.9a.249.249,0,0,1-.249.249" transform="translate(-282.367 -436.567)" fill="#2e0f07"/>
    <path id="Trazado_875775" data-name="Trazado 875775" d="M360.269,578.153a.249.249,0,0,1-.249-.249v-2.177a.249.249,0,0,1,.5,0V577.9a.249.249,0,0,1-.249.249" transform="translate(-273.117 -436.567)" fill="#2e0f07"/>
    <path id="Trazado_875776" data-name="Trazado 875776" d="M348.076,578.153a.249.249,0,0,1-.249-.249v-2.177a.249.249,0,0,1,.5,0V577.9a.249.249,0,0,1-.249.249" transform="translate(-263.867 -436.567)" fill="#2e0f07"/>
    <path id="Trazado_875777" data-name="Trazado 875777" d="M335.883,578.153a.249.249,0,0,1-.249-.249v-2.177a.249.249,0,0,1,.5,0V577.9a.249.249,0,0,1-.249.249" transform="translate(-254.617 -436.567)" fill="#2e0f07"/>
    <path id="Trazado_875778" data-name="Trazado 875778" d="M323.689,578.153a.249.249,0,0,1-.249-.249v-2.177a.249.249,0,0,1,.5,0V577.9a.249.249,0,0,1-.249.249" transform="translate(-245.367 -436.567)" fill="#2e0f07"/>
    <path id="Trazado_875779" data-name="Trazado 875779" d="M311.495,578.153a.249.249,0,0,1-.249-.249v-2.177a.249.249,0,0,1,.5,0V577.9a.249.249,0,0,1-.249.249" transform="translate(-236.116 -436.567)" fill="#2e0f07"/>
    <path id="Trazado_875780" data-name="Trazado 875780" d="M299.3,578.153a.249.249,0,0,1-.249-.249v-2.177a.249.249,0,0,1,.5,0V577.9a.249.249,0,0,1-.249.249" transform="translate(-226.866 -436.567)" fill="#2e0f07"/>
    <rect id="Rectángulo_401957" data-name="Rectángulo 401957" width="21.615" height="4.32" transform="translate(72.508 132.863)" fill="#fce366"/>
    <rect id="Rectángulo_401958" data-name="Rectángulo 401958" width="20.415" height="0.279" transform="translate(73.091 133.418)" fill="#fff"/>
    <path id="Trazado_875781" data-name="Trazado 875781" d="M324.954,554.1c.047.946-3.239.946-3.192,0-.047-.946,3.239-.946,3.192,0" transform="translate(-244.093 -419.813)" fill="#fff"/>
    <path id="Trazado_875782" data-name="Trazado 875782" d="M311.191,557c-5.7-.067-8.962-1-10.808-1.924v3.2H322v-2.791A31.343,31.343,0,0,1,311.191,557" transform="translate(-227.875 -421.091)" fill="#fab938"/>
    <path id="Trazado_875783" data-name="Trazado 875783" d="M319.967,553.356H298.351a.646.646,0,0,1-.646-.646v-4.32a.646.646,0,0,1,.646-.646h21.615a.646.646,0,0,1,.646.646v4.32a.646.646,0,0,1-.646.646M299,552.063H319.32v-3.027H299Z" transform="translate(-225.844 -415.526)" fill="#2e0f07"/>
    <path id="Trazado_875784" data-name="Trazado 875784" d="M379.859,556.722a.249.249,0,0,1-.249-.249V554.3a.249.249,0,1,1,.5,0v2.177a.249.249,0,0,1-.249.249" transform="translate(-287.978 -420.309)" fill="#2e0f07"/>
    <path id="Trazado_875785" data-name="Trazado 875785" d="M367.665,556.722a.249.249,0,0,1-.249-.249V554.3a.249.249,0,1,1,.5,0v2.177a.249.249,0,0,1-.249.249" transform="translate(-278.728 -420.309)" fill="#2e0f07"/>
    <path id="Trazado_875786" data-name="Trazado 875786" d="M355.471,556.722a.249.249,0,0,1-.249-.249V554.3a.249.249,0,1,1,.5,0v2.177a.249.249,0,0,1-.249.249" transform="translate(-269.477 -420.309)" fill="#2e0f07"/>
    <path id="Trazado_875787" data-name="Trazado 875787" d="M343.278,556.722a.249.249,0,0,1-.249-.249V554.3a.249.249,0,1,1,.5,0v2.177a.249.249,0,0,1-.249.249" transform="translate(-260.227 -420.309)" fill="#2e0f07"/>
    <path id="Trazado_875788" data-name="Trazado 875788" d="M331.085,556.722a.249.249,0,0,1-.249-.249V554.3a.249.249,0,1,1,.5,0v2.177a.249.249,0,0,1-.249.249" transform="translate(-250.977 -420.309)" fill="#2e0f07"/>
    <path id="Trazado_875789" data-name="Trazado 875789" d="M318.891,556.722a.249.249,0,0,1-.249-.249V554.3a.249.249,0,1,1,.5,0v2.177a.249.249,0,0,1-.249.249" transform="translate(-241.727 -420.309)" fill="#2e0f07"/>
    <path id="Trazado_875790" data-name="Trazado 875790" d="M306.7,556.722a.249.249,0,0,1-.249-.249V554.3a.249.249,0,1,1,.5,0v2.177a.249.249,0,0,1-.249.249" transform="translate(-232.477 -420.309)" fill="#2e0f07"/>
    <rect id="Rectángulo_401959" data-name="Rectángulo 401959" width="21.615" height="4.32" transform="translate(70.723 128.4)" fill="#fce366"/>
    <rect id="Rectángulo_401960" data-name="Rectángulo 401960" width="20.415" height="0.279" transform="translate(71.305 128.955)" fill="#fff"/>
    <path id="Trazado_875791" data-name="Trazado 875791" d="M317.558,535.614c.047.946-3.239.946-3.192,0-.047-.946,3.239-.946,3.192,0" transform="translate(-238.482 -405.787)" fill="#fff"/>
    <path id="Trazado_875792" data-name="Trazado 875792" d="M303.795,538.512c-5.7-.067-8.962-1-10.808-1.924v3.2H314.6v-2.791a31.343,31.343,0,0,1-10.808,1.519" transform="translate(-222.264 -407.064)" fill="#fab938"/>
    <path id="Trazado_875793" data-name="Trazado 875793" d="M312.571,534.866H290.955a.647.647,0,0,1-.646-.647V529.9a.646.646,0,0,1,.646-.646h21.615a.646.646,0,0,1,.646.646v4.32a.646.646,0,0,1-.646.647M291.6,533.573h20.322v-3.027H291.6Z" transform="translate(-220.233 -401.5)" fill="#2e0f07"/>
    <path id="Trazado_875794" data-name="Trazado 875794" d="M372.463,538.232a.249.249,0,0,1-.249-.249v-2.177a.249.249,0,1,1,.5,0v2.177a.249.249,0,0,1-.249.249" transform="translate(-282.367 -406.283)" fill="#2e0f07"/>
    <path id="Trazado_875795" data-name="Trazado 875795" d="M360.269,538.232a.249.249,0,0,1-.249-.249v-2.177a.249.249,0,1,1,.5,0v2.177a.249.249,0,0,1-.249.249" transform="translate(-273.117 -406.283)" fill="#2e0f07"/>
    <path id="Trazado_875796" data-name="Trazado 875796" d="M348.076,538.232a.249.249,0,0,1-.249-.249v-2.177a.249.249,0,1,1,.5,0v2.177a.249.249,0,0,1-.249.249" transform="translate(-263.867 -406.283)" fill="#2e0f07"/>
    <path id="Trazado_875797" data-name="Trazado 875797" d="M335.883,538.232a.249.249,0,0,1-.249-.249v-2.177a.249.249,0,1,1,.5,0v2.177a.249.249,0,0,1-.249.249" transform="translate(-254.617 -406.283)" fill="#2e0f07"/>
    <path id="Trazado_875798" data-name="Trazado 875798" d="M323.689,538.232a.249.249,0,0,1-.249-.249v-2.177a.249.249,0,1,1,.5,0v2.177a.249.249,0,0,1-.249.249" transform="translate(-245.367 -406.283)" fill="#2e0f07"/>
    <path id="Trazado_875799" data-name="Trazado 875799" d="M311.495,538.232a.249.249,0,0,1-.249-.249v-2.177a.249.249,0,1,1,.5,0v2.177a.249.249,0,0,1-.249.249" transform="translate(-236.116 -406.283)" fill="#2e0f07"/>
    <path id="Trazado_875800" data-name="Trazado 875800" d="M299.3,538.232a.249.249,0,0,1-.249-.249v-2.177a.249.249,0,1,1,.5,0v2.177a.249.249,0,0,1-.249.249" transform="translate(-226.866 -406.283)" fill="#2e0f07"/>
    <rect id="Rectángulo_401961" data-name="Rectángulo 401961" width="21.615" height="4.32" transform="matrix(0.515, -0.857, 0.857, 0.515, 58.621, 150.48)" fill="#fce366"/>
    <rect id="Rectángulo_401962" data-name="Rectángulo 401962" width="20.415" height="0.279" transform="matrix(0.515, -0.857, 0.857, 0.515, 59.397, 150.265)" fill="#fff"/>
    <path id="Trazado_875801" data-name="Trazado 875801" d="M259.855,596.566c.835.447-.855,3.264-1.642,2.737-.835-.447.855-3.264,1.642-2.737" transform="translate(-195.712 -452.515)" fill="#fff"/>
    <path id="Trazado_875802" data-name="Trazado 875802" d="M254.056,559.925c-2.989,4.852-5.468,7.171-7.21,8.278l2.74,1.644,11.121-18.535-2.393-1.436a31.346,31.346,0,0,1-4.259,10.049" transform="translate(-187.261 -417.144)" fill="#fab938"/>
    <path id="Trazado_875803" data-name="Trazado 875803" d="M244.524,565.99c-.073.185-3.906-2.288-4.037-2.315a.647.647,0,0,1-.222-.887l11.121-18.535a.651.651,0,0,1,.887-.222l3.7,2.223a.646.646,0,0,1,.222.887l-11.121,18.535a.648.648,0,0,1-.554.314m-2.817-3.091,2.6,1.557,10.456-17.426-2.6-1.557Z" transform="translate(-182.199 -412.641)" fill="#2e0f07"/>
    <path id="Trazado_875804" data-name="Trazado 875804" d="M289.223,557.567a.247.247,0,0,1-.128-.035l-1.867-1.12a.249.249,0,1,1,.256-.427l1.867,1.12a.25.25,0,0,1-.128.462" transform="translate(-217.804 -421.752)" fill="#2e0f07"/>
    <path id="Trazado_875805" data-name="Trazado 875805" d="M282.949,568.023a.246.246,0,0,1-.128-.036l-1.867-1.12a.249.249,0,1,1,.256-.427l1.867,1.12a.25.25,0,0,1-.128.462" transform="translate(-213.045 -429.684)" fill="#2e0f07"/>
    <path id="Trazado_875806" data-name="Trazado 875806" d="M276.675,578.479a.247.247,0,0,1-.128-.035l-1.867-1.12a.249.249,0,1,1,.256-.427l1.867,1.12a.25.25,0,0,1-.128.462" transform="translate(-208.286 -437.616)" fill="#2e0f07"/>
    <path id="Trazado_875807" data-name="Trazado 875807" d="M270.4,588.934a.247.247,0,0,1-.128-.036l-1.867-1.12a.249.249,0,0,1,.256-.427l1.867,1.12a.25.25,0,0,1-.128.462" transform="translate(-203.527 -445.547)" fill="#2e0f07"/>
    <path id="Trazado_875808" data-name="Trazado 875808" d="M264.128,599.39a.247.247,0,0,1-.128-.035l-1.867-1.12a.249.249,0,0,1,.256-.427l1.867,1.12a.25.25,0,0,1-.128.462" transform="translate(-198.767 -453.479)" fill="#2e0f07"/>
    <path id="Trazado_875809" data-name="Trazado 875809" d="M257.855,609.846a.247.247,0,0,1-.128-.036l-1.867-1.12a.249.249,0,1,1,.256-.427l1.867,1.12a.25.25,0,0,1-.128.462" transform="translate(-194.008 -461.411)" fill="#2e0f07"/>
    <path id="Trazado_875810" data-name="Trazado 875810" d="M251.581,620.3a.247.247,0,0,1-.128-.035l-1.867-1.12a.249.249,0,1,1,.256-.427l1.867,1.12a.25.25,0,0,1-.128.462" transform="translate(-189.249 -469.343)" fill="#2e0f07"/>
    <path id="Trazado_875811" data-name="Trazado 875811" d="M353.74,169.225c-27.918-.841-27.911-41.4,0-42.241,27.918.841,27.911,41.4,0,42.241m0-36.162c-19.768.355-19.765,29.732,0,30.084,19.768-.355,19.765-29.732,0-30.084" transform="translate(-252.47 -96.332)" fill="#ff5b5a"/>
    <path id="Trazado_875812" data-name="Trazado 875812" d="M351.3,167.544c-28.955-.872-28.948-42.942,0-43.81,28.955.872,28.947,42.942,0,43.81m0-42.241c-26.881.81-26.874,39.866,0,40.672,26.881-.81,26.874-39.866,0-40.672m0,36.162c-20.8-.373-20.8-31.283,0-31.653,20.8.373,20.8,31.283,0,31.653m0-30.084c-18.737.336-18.734,28.182,0,28.515,18.737-.336,18.734-28.182,0-28.515" transform="translate(-250.027 -93.867)" fill="#2e0f07"/>
    <path id="Trazado_875813" data-name="Trazado 875813" d="M387.184,192.1c-13.727-.246-13.725-20.646,0-20.89,13.727.246,13.724,20.646,0,20.89m0-14.812c-5.739.1-5.738,8.632,0,8.734,5.739-.1,5.738-8.632,0-8.734" transform="translate(-285.914 -129.882)" fill="#ff5b5a"/>
    <path id="Trazado_875814" data-name="Trazado 875814" d="M384.754,190.418c-14.758-.265-14.756-22.2,0-22.459,14.758.265,14.755,22.2,0,22.459m0-20.89c-12.7.228-12.694,19.1,0,19.321,12.7-.228,12.694-19.1,0-19.321m0,14.812c-6.77-.121-6.769-10.182,0-10.3,6.77.121,6.769,10.182,0,10.3m0-8.734c-4.708.084-4.707,7.081,0,7.165,4.708-.084,4.707-7.081,0-7.165" transform="translate(-283.484 -127.416)" fill="#2e0f07"/>
    <path id="Trazado_875815" data-name="Trazado 875815" d="M420.388,124.87a.79.79,0,0,1-.555-1.339l28.6-28.6a.785.785,0,0,1,1.109,1.11c-.547.233-28.412,29.019-29.151,28.826" transform="translate(-318.318 -71.845)" fill="#2e0f07"/>
    <path id="Trazado_875816" data-name="Trazado 875816" d="M542.332,65.319l-1.006-3.947-5.083,5.083,1.006,3.947,3.947,1.006,5.083-5.083Z" transform="translate(-406.803 -46.558)" fill="#ff5b5a"/>
    <path id="Trazado_875817" data-name="Trazado 875817" d="M538.9,69.684a.79.79,0,0,1-.194-.024l-3.947-1.006a.785.785,0,0,1-.567-.566c0-.57-1.469-4.285-.8-4.7.416-.2,5.294-5.863,5.845-5.285.784.021,1.185,3.573,1.443,4.058.505.262,4.028.659,4.058,1.443a.785.785,0,0,1-.2.763c-.24.117-5.365,5.689-5.638,5.312m-3.3-2.435,3.063.78,3.792-3.792c-3.649-.94-2.9-.2-3.843-3.843l-3.792,3.792Z" transform="translate(-404.509 -44.05)" fill="#2e0f07"/>
    <path id="Trazado_875818" data-name="Trazado 875818" d="M443.952,354.191H424.57a1.249,1.249,0,0,1,0-2.5h19.382a1.249,1.249,0,0,1,0,2.5" transform="translate(-321.138 -266.8)" fill="#bed2e8"/>
    <path id="Trazado_875819" data-name="Trazado 875819" d="M443.952,372.5H424.57a1.249,1.249,0,0,1,0-2.5h19.382a1.249,1.249,0,0,1,0,2.5" transform="translate(-321.138 -280.689)" fill="#bed2e8"/>
    <path id="Trazado_875820" data-name="Trazado 875820" d="M433.694,391.6h-9.125a1.249,1.249,0,0,1,0-2.5h9.125a1.249,1.249,0,0,1,0,2.5" transform="translate(-321.137 -295.181)" fill="#bed2e8"/>
    <path id="Trazado_875821" data-name="Trazado 875821" d="M325.337,324.857a9.3,9.3,0,0,0-9.283,8.767l9.283.267.123-9.032-.123,0" transform="translate(-239.763 -246.442)" fill="#c7a1f8"/>
    <path id="Trazado_875822" data-name="Trazado 875822" d="M323.1,332.036c-.172-.073-10.083-.072-9.861-.52-.642-2.619,1.135-5.525,2.974-7.363.826-1.254,7.467-4.231,7.795-1.923l-.123,9.032a.789.789,0,0,1-.784.774m-8.416-1.811,7.642.22.1-7.416a8.56,8.56,0,0,0-7.743,7.2" transform="translate(-237.526 -243.802)" fill="#2e0f07"/>
    <path id="Trazado_875823" data-name="Trazado 875823" d="M343.421,338.3a9.269,9.269,0,0,0-6.5-2.775l-.123,9.032-9.283-.267a9.309,9.309,0,0,0,9.283,9.83c8.117.184,12.385-10.259,6.627-15.82" transform="translate(-248.441 -254.536)" fill="#ff7271"/>
    <path id="Trazado_875824" data-name="Trazado 875824" d="M334.3,352.441a10.145,10.145,0,0,1-10.066-10.658.782.782,0,0,1,.806-.74l8.487.244.112-8.236a.784.784,0,0,1,.794-.774c13.239.562,13.1,19.78-.133,20.164m-8.509-9.807a8.566,8.566,0,0,0,8.509,8.238c7.378.185,11.374-9.356,6.068-14.485a8.452,8.452,0,0,0-5.172-2.5c-.418,11.819,2.135,8.614-9.406,8.742" transform="translate(-245.946 -252.07)" fill="#2e0f07"/>
    <path id="Trazado_875825" data-name="Trazado 875825" d="M608.627,175.645H574.734a4.94,4.94,0,0,1-4.94-4.94V142.327a4.94,4.94,0,0,1,4.94-4.94h33.893a4.94,4.94,0,0,1,4.94,4.94v28.379a4.94,4.94,0,0,1-4.94,4.94" transform="translate(-432.255 -104.224)" fill="#fcf9c0"/>
    <path id="Trazado_875826" data-name="Trazado 875826" d="M616.1,147.433c-1.05,6.883-5.967,13.069-10.407,18.506-7.877,9.287-20.349,12.426-31.653,15.4a4.931,4.931,0,0,0,3.915,1.929h33.893a4.94,4.94,0,0,0,4.94-4.94c-.249-1.227.674-30.731-.688-30.894" transform="translate(-435.476 -111.845)" fill="#fde985"/>
    <path id="Trazado_875827" data-name="Trazado 875827" d="M606.163,173.964H572.269a5.731,5.731,0,0,1-5.724-5.724V139.861a5.731,5.731,0,0,1,5.724-5.724h33.894a5.731,5.731,0,0,1,5.724,5.724V168.24a5.731,5.731,0,0,1-5.724,5.724m-33.894-38.258a4.16,4.16,0,0,0-4.155,4.155c.633,43.836-7.361,30.4,38.049,32.535a4.161,4.161,0,0,0,4.155-4.156c-.633-43.835,7.36-30.4-38.049-32.534" transform="translate(-429.79 -101.758)" fill="#2e0f07"/>
    <path id="Trazado_875828" data-name="Trazado 875828" d="M608.72,218.681c-.578-.287.427-1.319.542-1.669.189-.3.243-.244.542-.108a7.828,7.828,0,0,0,3.707.867,4.1,4.1,0,0,0,2.612-.683,2.357,2.357,0,0,0-1.919-4.151h-1.821c-.571,0-.8-.215-.8-.78.011-.308-.064-.939.184-1.127.3-.322,1.979-.12,2.4-.174,3.408-.028,3.117-4.757-.737-4.379-3.88-.021-3.226,2.164-4.509-.3-.488-.825,1.354-1.2,2.1-1.453a10.048,10.048,0,0,1,5.69.217c2.976,1,3.5,5.439.661,6.893,2.874.915,3,5.061.813,6.731-1.948,1.844-7.682,1.445-9.462.119" transform="translate(-461.649 -155.073)" fill="#2e0f07"/>
    <path id="Trazado_875829" data-name="Trazado 875829" d="M663.533,217.822c-2.414-2.368-2.414-9.056,0-11.424,2.147-2.645,8.565-2.65,10.719.011,2.429,2.388,2.429,9.015,0,11.4-2.154,2.662-8.572,2.655-10.72.011m7.815-10.7c-1.524-1.094-4.768-.8-5.8.759-1.285,1.457-1.56,6.007-.184,7.674Zm.889,9.235c1.266-1.453,1.535-5.965.217-7.674l-6,8.476c1.579,1.02,4.752.767,5.788-.8" transform="translate(-501.993 -155.071)" fill="#2e0f07"/>
    <path id="Trazado_875830" data-name="Trazado 875830" d="M613.4,147.559c.015-4.125.866-9.9-4.94-10.172H574.564c-5.788.254-4.965,6.058-4.94,10.174,0,0,43.67,0,43.773,0" transform="translate(-432.085 -104.224)" fill="#fff"/>
    <path id="Trazado_875831" data-name="Trazado 875831" d="M610.9,145.88H567.129a.785.785,0,0,1-.785-.785c-.133-4.674-.608-10.658,5.725-10.958h33.893a5.731,5.731,0,0,1,5.724,5.724v5.178a.789.789,0,0,1-.783.84m-42.991-1.569h42.2c.006-3.475.748-8.377-4.155-8.6H572.068c-4.884.216-4.172,5.138-4.155,8.6" transform="translate(-429.589 -101.758)" fill="#2e0f07"/>
    <path id="Trazado_875832" data-name="Trazado 875832" d="M601.933,151.048a2.13,2.13,0,0,1-4.259,0,2.13,2.13,0,0,1,4.259,0" transform="translate(-453.405 -112.995)" fill="#fff"/>
    <path id="Trazado_875833" data-name="Trazado 875833" d="M597.47,151.4a2.915,2.915,0,0,1,0-5.829,2.915,2.915,0,0,1,0,5.829m0-4.26a1.346,1.346,0,0,0,0,2.691,1.346,1.346,0,0,0,0-2.691" transform="translate(-451.071 -110.434)" fill="#2e0f07"/>
    <path id="Trazado_875834" data-name="Trazado 875834" d="M654.872,151.048a2.13,2.13,0,0,1-4.26,0,2.13,2.13,0,0,1,4.26,0" transform="translate(-493.564 -112.995)" fill="#fff"/>
    <path id="Trazado_875835" data-name="Trazado 875835" d="M650.409,151.4a2.915,2.915,0,0,1,0-5.829,2.915,2.915,0,0,1,0,5.829m0-4.26a1.346,1.346,0,0,0,0,2.691,1.346,1.346,0,0,0,0-2.691" transform="translate(-491.232 -110.434)" fill="#2e0f07"/>
    <path id="Trazado_875836" data-name="Trazado 875836" d="M707.812,151.048a2.13,2.13,0,0,1-4.259,0,2.13,2.13,0,0,1,4.259,0" transform="translate(-533.726 -112.995)" fill="#fff"/>
    <path id="Trazado_875837" data-name="Trazado 875837" d="M703.349,151.4a2.915,2.915,0,0,1,0-5.829,2.915,2.915,0,0,1,0,5.829m0-4.26a1.346,1.346,0,0,0,0,2.691,1.346,1.346,0,0,0,0-2.691" transform="translate(-531.393 -110.434)" fill="#2e0f07"/>
    <path id="Trazado_875838" data-name="Trazado 875838" d="M590.243,128.978c-7.644-.511-5.924-11.613,1.516-9.789a5.019,5.019,0,0,1,3.262,3.262.785.785,0,0,1-1.5.475,3.456,3.456,0,0,0-6.683.507,3.506,3.506,0,0,0,3.4,3.977.785.785,0,0,1,0,1.569" transform="translate(-444.003 -90.265)" fill="#2e0f07"/>
    <path id="Trazado_875839" data-name="Trazado 875839" d="M642.491,128.978c-7.644-.511-5.924-11.613,1.516-9.789a5.019,5.019,0,0,1,3.262,3.262.785.785,0,0,1-1.5.475,3.456,3.456,0,0,0-6.683.507,3.506,3.506,0,0,0,3.4,3.977.785.785,0,0,1,0,1.569" transform="translate(-483.639 -90.265)" fill="#2e0f07"/>
    <path id="Trazado_875840" data-name="Trazado 875840" d="M695.913,128.978c-7.644-.511-5.924-11.613,1.516-9.789a5.019,5.019,0,0,1,3.262,3.262.785.785,0,0,1-1.5.475,3.456,3.456,0,0,0-6.683.507,3.506,3.506,0,0,0,3.4,3.977.785.785,0,0,1,0,1.569" transform="translate(-524.166 -90.265)" fill="#2e0f07"/>
  </g>
</svg>
