<svg xmlns="http://www.w3.org/2000/svg" xmlns:xlink="http://www.w3.org/1999/xlink" width="294" height="313.41" viewBox="0 0 294 313.41">
  <defs>
    <clipPath id="clip-path">
      <rect id="Rectángulo_401786" data-name="Rectángulo 401786" width="56.845" height="56.845" transform="matrix(0.973, -0.23, 0.23, 0.973, 0, 13.097)" fill="#7d6eb2" stroke="#263238" stroke-linecap="round" stroke-linejoin="round" stroke-width="1"/>
    </clipPath>
    <clipPath id="clip-path-2">
      <path id="Trazado_874983" data-name="Trazado 874983" d="M268.122,412.437c-13.827,3.274-33.409,6.35-45.219,8.086-6.151.9-10.252,1.435-10.252,1.435-5.235-9.569-14.681-48.213-14.681-48.213l55.314-13.1c.109.472.205.943.308,1.408A381.6,381.6,0,0,0,268.122,412.437Z" transform="translate(-197.97 -360.65)" fill="#fff" stroke="#263238" stroke-linecap="round" stroke-linejoin="round" stroke-width="1"/>
    </clipPath>
    <clipPath id="clip-path-3">
      <path id="Trazado_875001" data-name="Trazado 875001" d="M57.969,121.429l5.6,101.292-2.05,8.332L58.556,223,52.938,121.7a1.271,1.271,0,0,1,1.2-1.367l2.495-.137a1.271,1.271,0,0,1,1.34,1.23Z" transform="translate(-52.934 -120.197)" fill="#7d6eb2" stroke="#263238" stroke-linecap="round" stroke-linejoin="round" stroke-width="1"/>
    </clipPath>
  </defs>
  <g id="Dark_analytics-bro" data-name="Dark analytics-bro" transform="translate(-34.93 -20.732)">
    <g id="freepik--background-simple--inject-13" transform="translate(34.93 20.732)">
      <path id="Trazado_874976" data-name="Trazado 874976" d="M64.886,123.419s-19.055,49.211,7.723,98.763,81.936,75.73,126.082,98.114,89.987,11.482,111.77-25.179S302.368,232.283,302.327,180s7.826-66.12-20.5-110.287S184.044,15.77,131.525,48.53,64.886,123.419,64.886,123.419Z" transform="translate(-42.331 -23.386)" fill="#fff" opacity="0.7"/>
      <path id="Trazado_874977" data-name="Trazado 874977" d="M143.651,23.246C120.413,27.067,98.22,35.487,79.343,50.038,51.88,71.226,36.652,102.851,35.06,137.264,34.014,159.983,39.434,182.135,46,203.705c8.42,27.722,13.861,59.36,31.461,83.084,27.408,36.908,80.371,52.478,124.667,45.875,28.617-4.272,58.855-20.5,67.665-49.894,3.26-10.874,4.846-22.555,10.416-32.609,6.678-12.043,18.782-19.076,27.975-28.884,11.359-12.111,15.932-27.2,18.762-43.162A135.954,135.954,0,0,0,304.263,77.179c-21.3-30.237-52.908-46.477-88.791-52.847-3.937-.683-7.894-1.292-11.865-1.791A209.59,209.59,0,0,0,143.651,23.246Z" transform="translate(-34.93 -20.732)" fill="#7d6eb2"/>
      <path id="Trazado_874978" data-name="Trazado 874978" d="M143.651,23.246C120.413,27.067,98.22,35.487,79.343,50.038,51.88,71.226,36.652,102.851,35.06,137.264,34.014,159.983,39.434,182.135,46,203.705c8.42,27.722,13.861,59.36,31.461,83.084,27.408,36.908,80.371,52.478,124.667,45.875,28.617-4.272,58.855-20.5,67.665-49.894,3.26-10.874,4.846-22.555,10.416-32.609,6.678-12.043,18.782-19.076,27.975-28.884,11.359-12.111,15.932-27.2,18.762-43.162A135.954,135.954,0,0,0,304.263,77.179c-21.3-30.237-52.908-46.477-88.791-52.847-3.937-.683-7.894-1.292-11.865-1.791A209.59,209.59,0,0,0,143.651,23.246Z" transform="translate(-34.93 -20.732)" fill="#fff" opacity="0.7"/>
    </g>
    <g id="freepik--Note--inject-13" transform="translate(146.365 253.056)">
      <path id="Trazado_874979" data-name="Trazado 874979" d="M201.28,377.719,258.5,367.05s12.945,40.845,15.556,46.128l-1.367,3.206.861,5.365L216.686,434.68l-4.559-3.6Z" transform="translate(-199.018 -362.673)" fill="rgba(0,0,0,0.7)" opacity="0.2"/>
      <rect id="Rectángulo_401785" data-name="Rectángulo 401785" width="56.845" height="56.845" transform="matrix(0.973, -0.23, 0.23, 0.973, 0.011, 13.097)" fill="#7d6eb2"/>
      <g id="Grupo_1100599" data-name="Grupo 1100599" transform="translate(0.011 0)" clip-path="url(#clip-path)">
        <path id="Trazado_874980" data-name="Trazado 874980" d="M258.718,382.48l9.179,38.76-52.751,12.487c-6.356-15.9-11.216-35.931-11.216-35.931Z" transform="translate(-199.867 -367.556)" fill="rgba(0,0,0,0.7)" opacity="0.2"/>
      </g>
      <rect id="Rectángulo_401787" data-name="Rectángulo 401787" width="56.845" height="56.845" transform="matrix(0.973, -0.23, 0.23, 0.973, 0.011, 13.097)" fill="none" stroke="#263238" stroke-linecap="round" stroke-linejoin="round" stroke-width="1"/>
      <path id="Trazado_874981" data-name="Trazado 874981" d="M268.122,412.437c-13.827,3.274-33.409,6.35-45.219,8.086-6.151.9-10.252,1.435-10.252,1.435-5.235-9.569-14.681-48.213-14.681-48.213l55.314-13.1c.109.472.205.943.308,1.408A381.6,381.6,0,0,0,268.122,412.437Z" transform="translate(-197.97 -360.647)" fill="#fff"/>
      <g id="Grupo_1100600" data-name="Grupo 1100600" transform="translate(0 0.003)" clip-path="url(#clip-path-2)">
        <path id="Trazado_874982" data-name="Trazado 874982" d="M274.619,413.089c-13.827,3.274-33.409,6.35-45.219,8.086-8.885-5.9-11.011-11.681-10.9-17.2.116-6.548,28.645-.15,34.6-6.637,4.251-4.627,4.1-24.264,7-34.632A380.48,380.48,0,0,0,274.619,413.089Z" transform="translate(-204.466 -361.302)" fill="#7d6eb2" opacity="0.4"/>
      </g>
      <path id="Trazado_874984" data-name="Trazado 874984" d="M268.122,412.437c-13.827,3.274-33.409,6.35-45.219,8.086-6.151.9-10.252,1.435-10.252,1.435-5.235-9.569-14.681-48.213-14.681-48.213l55.314-13.1c.109.472.205.943.308,1.408A381.6,381.6,0,0,0,268.122,412.437Z" transform="translate(-197.97 -360.647)" fill="none" stroke="#263238" stroke-linecap="round" stroke-linejoin="round" stroke-width="1"/>
      <path id="Trazado_874985" data-name="Trazado 874985" d="M211.65,387.91a9.691,9.691,0,0,1,2.659-2.167l.82,2.105,2.864-1.039c.957-.349,2.05-.8,2.385-1.75.526,1.251,2.344,1.039,3.636.629a199.955,199.955,0,0,1,27.339-6.719" transform="translate(-202.3 -366.445)" fill="none" stroke="#263238" stroke-linecap="round" stroke-linejoin="round" stroke-width="1"/>
      <path id="Trazado_874986" data-name="Trazado 874986" d="M213.556,398.825c-.595-.308-.1-1.367.567-1.326s1.1.779,1.155,1.449a1.415,1.415,0,0,0,1.23-1.114l.95.684a1.039,1.039,0,1,1,1.791-1.046c-.068-.779.232-1.9.991-1.722a2.01,2.01,0,0,1,.636.417,1.722,1.722,0,0,0,2.57-1.066c.745.848,2.05.731,3.192.54l9.951-1.7c.1-.629.41-1.435,1.039-1.367.362.055.6.4.916.595a2.16,2.16,0,0,0,1.524.055,87.277,87.277,0,0,0,13.157-3.957" transform="translate(-202.819 -369.706)" fill="none" stroke="#263238" stroke-linecap="round" stroke-linejoin="round" stroke-width="1"/>
      <path id="Trazado_874987" data-name="Trazado 874987" d="M218.7,411.357a8.886,8.886,0,0,0,3.916-.54,2.283,2.283,0,0,1,.649-2.768l1.2.772a63.987,63.987,0,0,0,14.353-1.982c2.1-.533,4.176-1.182,6.247-1.832l11.8-3.677" transform="translate(-204.531 -373.523)" fill="none" stroke="#263238" stroke-linecap="round" stroke-linejoin="round" stroke-width="1"/>
    </g>
    <g id="freepik--Glasses--inject-13" transform="translate(160.292 37.964)">
      <path id="Trazado_874988" data-name="Trazado 874988" d="M312.341,56.583l-1.1.068a2.132,2.132,0,0,1-2.3-1.558c-1.681-6.117-7.833-9.555-14.934-9.111-6.411.4-13.171,4.443-17.087,10.034a5.939,5.939,0,0,1-4.326,2.645L267.121,59a3.5,3.5,0,0,1-3.561-2.16c-2.208-5.215-7.805-8.489-14.223-8.092a23.079,23.079,0,0,0-18.126,11.161,3.7,3.7,0,0,1-2.85,1.88l-1.1.068a1.2,1.2,0,0,0-1.053.984l-.431,2.734a.684.684,0,0,0,.533.861l1.326.4a2.31,2.31,0,0,1,1.64,2.44c-.465,8.755,5.714,15.187,14.51,14.647,8.482-.526,16.554-7.375,19.192-15.816a4.347,4.347,0,0,1,2.98-2.843,15.583,15.583,0,0,1,5.769-.41,2.467,2.467,0,0,1,2.18,2.536c0,8.3,6.035,14.292,14.531,13.765,8.81-.533,17.162-7.84,19.5-16.725a4.1,4.1,0,0,1,2.454-2.734l1.483-.567a1.23,1.23,0,0,0,.813-.943l.437-2.734a.683.683,0,0,0-.786-.875ZM244.163,81.619c-8.2.506-13.745-5.933-12.419-14.353s9.063-15.72,17.244-16.192,13.745,5.933,12.412,14.353S252.345,81.113,244.163,81.619ZM263.841,63.65q.048-.683.041-1.415a.82.82,0,0,1,.725-.779l9.787-.6a.492.492,0,0,1,.5.683c-.15.472-.287.943-.41,1.422A17.667,17.667,0,0,0,263.841,63.65Zm24.961,15.2c-8.2.506-13.745-5.933-12.412-14.353s9.056-15.72,17.237-16.192,13.745,5.933,12.419,14.353S297,78.345,288.8,78.851Z" transform="translate(-220.691 -45.944)" fill="rgba(0,0,0,0.7)" opacity="0.2"/>
      <path id="Trazado_874989" data-name="Trazado 874989" d="M305.371,64l-62.716,8.325a10.69,10.69,0,0,0-7.4,4.531L226.08,90.212a1,1,0,0,0,.465,1.49h0a2.925,2.925,0,0,0,3.465-1.08l8.489-12.3a6.439,6.439,0,0,1,4.408-2.734L305.6,66.7Z" transform="translate(-220.741 -51.659)" fill="#263238"/>
      <path id="Trazado_874990" data-name="Trazado 874990" d="M218.38,71.235l63.249-1.046a10.683,10.683,0,0,1,7.983,3.417l11.059,11.852A.991.991,0,0,1,300.432,87h0a2.925,2.925,0,0,1-3.588-.547L286.626,75.514a6.452,6.452,0,0,0-4.784-2.05l-63.318.478Z" transform="translate(-218.358 -53.618)" fill="#263238"/>
      <path id="Trazado_874991" data-name="Trazado 874991" d="M272.525,77.578c.779.144.745,5.468-1.018,7.265s-3.568-2.577-3.11-4.149S270.085,77.114,272.525,77.578Z" transform="translate(-234.166 -55.935)" fill="#7d6eb2" stroke="#263238" stroke-linecap="round" stroke-linejoin="round" stroke-width="1"/>
      <path id="Trazado_874992" data-name="Trazado 874992" d="M290.412,76.529c-.752.246-.061,5.468,1.907,7.088s3.226-3,2.577-4.5S292.771,75.77,290.412,76.529Z" transform="translate(-241.063 -55.569)" fill="#7d6eb2" stroke="#263238" stroke-linecap="round" stroke-linejoin="round" stroke-width="1"/>
      <path id="Trazado_874993" data-name="Trazado 874993" d="M231.01,57.084c3.308-2.83,10.314-7.648,17.982-3.062s10.314,9.569,8.742,16.315-6.4,15.768-17.771,14.2S220.737,65.874,231.01,57.084Z" transform="translate(-220.845 -47.901)" fill="#7d6eb2" opacity="0.5"/>
      <path id="Trazado_874994" data-name="Trazado 874994" d="M296.437,53.891c3.308-2.83,10.307-7.655,17.976-3.069s10.321,9.569,8.742,16.315-6.4,15.768-17.771,14.2S286.158,62.647,296.437,53.891Z" transform="translate(-241.552 -46.888)" fill="#7d6eb2" opacity="0.5"/>
      <path id="Trazado_874995" data-name="Trazado 874995" d="M304.283,57.831l-1.1.068a2.809,2.809,0,0,1-2.679-1.51c-3.048-5.933-10.027-9.254-17.142-8.817a18.454,18.454,0,0,0-15.1,9.774,4.62,4.62,0,0,1-3.8,2.577l-5.468.335a4.607,4.607,0,0,1-4.1-2.085,18.454,18.454,0,0,0-16.2-7.833c-7.115.444-13.629,4.6-15.918,10.867a2.809,2.809,0,0,1-2.474,1.825l-1.1.068a.909.909,0,0,0-.848.964l.164,2.672a.916.916,0,0,0,.731.834l1.435.383a3,3,0,0,1,2.214,2.365,17.087,17.087,0,0,0,33.9-1.2,3.2,3.2,0,0,1,2.4-2.734,15.515,15.515,0,0,1,5.755-.41,3.233,3.233,0,0,1,2.734,2.461,17.087,17.087,0,0,0,33.812-2.994,2.987,2.987,0,0,1,1.886-2.618l1.367-.56a.916.916,0,0,0,.622-.916l-.171-2.672a.9.9,0,0,0-.916-.848ZM240.665,82.252a14.859,14.859,0,1,1,13.909-15.72A14.859,14.859,0,0,1,240.665,82.252Zm15.993-17.47c-.075-.465-.164-.923-.273-1.367a.615.615,0,0,1,.567-.759l9.787-.608a.615.615,0,0,1,.683.683c-.048.451-.082.916-.1,1.367a17.572,17.572,0,0,0-10.642.683Zm28.665,14.7a14.009,14.009,0,1,1,.02,0Z" transform="translate(-218.347 -46.447)" fill="#757575" stroke="#263238" stroke-linecap="round" stroke-linejoin="round" stroke-width="1"/>
      <path id="Trazado_874996" data-name="Trazado 874996" d="M233.616,79.921S228.148,72.683,232,64.276a12.617,12.617,0,0,1,15.481-6.835l-8.4,14.709a51.213,51.213,0,0,1,3.452-10.437S235.113,69.232,233.616,79.921Z" transform="translate(-222.234 -49.372)" fill="#fff" opacity="0.4"/>
      <path id="Trazado_874997" data-name="Trazado 874997" d="M298.8,75.283s-5.468-7.231-1.613-15.638a12.6,12.6,0,0,1,15.474-6.835l-8.427,14.681a33.2,33.2,0,0,1,3.486-10.423S300.286,64.579,298.8,75.283Z" transform="translate(-242.865 -47.905)" fill="#fff" opacity="0.4"/>
    </g>
    <g id="freepik--Pen--inject-13" transform="translate(47.236 88.715)">
      <path id="Trazado_874998" data-name="Trazado 874998" d="M62.935,225.663l1.982,8.906,2.262-10.081-5.946-100.7H57.18Z" transform="translate(-54.278 -121.334)" fill="rgba(0,0,0,0.7)" opacity="0.2"/>
      <path id="Trazado_874999" data-name="Trazado 874999" d="M57.969,121.429l5.6,101.292-2.05,8.332L58.556,223,52.938,121.7a1.271,1.271,0,0,1,1.2-1.367l2.495-.137a1.271,1.271,0,0,1,1.34,1.23Z" transform="translate(-52.934 -120.197)" fill="#7d6eb2"/>
      <g id="Grupo_1100601" data-name="Grupo 1100601" transform="translate(0)" clip-path="url(#clip-path-3)">
        <path id="Trazado_875000" data-name="Trazado 875000" d="M61.509,231.117l-2.966-8.051-5.6-101.3a1.271,1.271,0,0,1,1.2-1.367h.349l5.646,102.037Z" transform="translate(-52.934 -120.261)" fill="rgba(0,0,0,0.7)" opacity="0.2"/>
      </g>
      <path id="Trazado_875002" data-name="Trazado 875002" d="M57.969,121.429l5.6,101.292-2.05,8.332L58.556,223,52.938,121.7a1.271,1.271,0,0,1,1.2-1.367l2.495-.137a1.271,1.271,0,0,1,1.34,1.23Z" transform="translate(-52.934 -120.197)" fill="none" stroke="#263238" stroke-linecap="round" stroke-linejoin="round" stroke-width="1"/>
      <path id="Trazado_875003" data-name="Trazado 875003" d="M55.34,123l5.468,99.44a.861.861,0,0,0,.909.813h.6" transform="translate(-53.696 -121.084)" fill="#7d6eb2" stroke="#263238" stroke-linecap="round" stroke-linejoin="round" stroke-width="1"/>
    </g>
    <g id="freepik--Device--inject-13" transform="translate(71.55 75.942)">
      <path id="Trazado_875004" data-name="Trazado 875004" d="M91.674,238.814,110.2,117.749a14.2,14.2,0,0,1,16.185-11.886L304.3,133.1A14.2,14.2,0,0,1,316.2,149.278L297.661,270.343a14.189,14.189,0,0,1-16.178,11.9L103.559,255A14.2,14.2,0,0,1,91.674,238.814Z" transform="translate(-89.458 -102.835)" fill="rgba(0,0,0,0.7)" opacity="0.2"/>
      <path id="Trazado_875005" data-name="Trazado 875005" d="M.677,0h9.3a.683.683,0,0,1,.683.683V4.607H0V.683A.683.683,0,0,1,.677,0Z" transform="translate(16.392 20.138) rotate(-81.3)" fill="#7d6eb2" stroke="#263238" stroke-linecap="round" stroke-linejoin="round" stroke-width="1"/>
      <path id="Trazado_875006" data-name="Trazado 875006" d="M.677,0h9.3a.683.683,0,0,1,.683.683V4.607H0V.683A.683.683,0,0,1,.677,0Z" transform="translate(39.915 0) rotate(8.7)" fill="#7d6eb2" stroke="#263238" stroke-linecap="round" stroke-linejoin="round" stroke-width="1"/>
      <path id="Trazado_875007" data-name="Trazado 875007" d="M.677,0h9.3a.683.683,0,0,1,.683.683V4.607H0V.683A.684.684,0,0,1,.677,0Z" transform="translate(52.447 1.914) rotate(8.7)" fill="#7d6eb2" stroke="#263238" stroke-linecap="round" stroke-linejoin="round" stroke-width="1"/>
      <path id="Trazado_875008" data-name="Trazado 875008" d="M88.674,234.814,107.2,113.749a14.2,14.2,0,0,1,16.185-11.886L301.3,129.1A14.2,14.2,0,0,1,313.2,145.278L294.661,266.343a14.189,14.189,0,0,1-16.178,11.9L100.559,251A14.2,14.2,0,0,1,88.674,234.814Z" transform="translate(-88.508 -101.569)" fill="#7d6eb2" stroke="#263238" stroke-linecap="round" stroke-linejoin="round" stroke-width="1"/>
      <path id="Trazado_875009" data-name="Trazado 875009" d="M279.885,277.433,101.045,250.06a12.139,12.139,0,0,1-10.17-13.84l18.673-121.995a12.145,12.145,0,0,1,13.841-10.17l178.847,27.373a12.159,12.159,0,0,1,10.17,13.847L293.732,267.263a12.145,12.145,0,0,1-13.847,10.17Z" transform="translate(-89.213 -102.27)" fill="#757575" stroke="#263238" stroke-linecap="round" stroke-linejoin="round" stroke-width="1"/>
      <path id="Trazado_875010" data-name="Trazado 875010" d="M108.371,208.55a.683.683,0,1,1-.122-.52.683.683,0,0,1,.122.52Z" transform="translate(-94.366 -135.137)" fill="#999" stroke="#263238" stroke-linecap="round" stroke-linejoin="round" stroke-width="1"/>
      <path id="Trazado_875011" data-name="Trazado 875011" d="M107.288,217.55a1.333,1.333,0,1,1-1.124-1.452,1.333,1.333,0,0,1,1.124,1.452Z" transform="translate(-93.618 -137.774)" fill="#263238"/>
      <path id="Trazado_875012" data-name="Trazado 875012" d="M110.718,195.078a1.333,1.333,0,1,1-.454-1.294,1.333,1.333,0,0,1,.454,1.294Z" transform="translate(-94.703 -130.619)" fill="#263238"/>
      <path id="Trazado_875013" data-name="Trazado 875013" d="M106.106,224a.971.971,0,1,1-.177-.722A.971.971,0,0,1,106.106,224Z" transform="translate(-93.468 -139.926)" fill="#263238"/>
      <path id="Trazado_875014" data-name="Trazado 875014" d="M310.024,145.28l-19.09,124.749a6,6,0,0,1-6.835,5.024L134.273,252.122l-3.247-.465-12.214-1.873-5.912-.9-8.544-1.326-1.866-.287a6,6,0,0,1-5.024-6.835l19.1-124.79a5.987,5.987,0,0,1,6.835-5.017l55.929,8.557,8.462,1.3,8.086,1.237,10.389,1.586,3.759.574,95,14.538A6,6,0,0,1,310.024,145.28Z" transform="translate(-91.322 -104.373)" fill="#263238"/>
      <g id="Grupo_1100602" data-name="Grupo 1100602" transform="translate(13.352 92.505)" opacity="0.1">
        <path id="Trazado_875015" data-name="Trazado 875015" d="M172.944,290.949l-63.564-9.726a1.579,1.579,0,0,1-1.319-1.8l6.309-41.234a1.586,1.586,0,0,1,1.8-1.319l63.564,9.726a1.572,1.572,0,0,1,1.319,1.8l-6.309,41.234a1.579,1.579,0,0,1-1.8,1.319Zm-56.831-53.53a1.025,1.025,0,0,0-1.169.861l-6.309,41.228a1.025,1.025,0,0,0,.861,1.169l63.53,9.726a1.025,1.025,0,0,0,1.169-.861l6.315-41.228a1.039,1.039,0,0,0-.861-1.176Z" transform="translate(-108.043 -236.853)" fill="#fff"/>
      </g>
      <path id="Trazado_875016" data-name="Trazado 875016" d="M147.9,269.7l14.23,8.072A16.8,16.8,0,0,0,161.078,260Z" transform="translate(-107.307 -151.674)" fill="#7d6eb2" opacity="0.4"/>
      <path id="Trazado_875017" data-name="Trazado 875017" d="M148.1,266.264l12.713-9.343a16.772,16.772,0,0,0-6.582-5.2l-2.508,5.946Z" transform="translate(-107.37 -149.054)" fill="#7d6eb2" opacity="0.6"/>
      <path id="Trazado_875018" data-name="Trazado 875018" d="M150.251,250l-2.2,14.353,5.659-13.417a16.9,16.9,0,0,0-3.458-.936Z" transform="translate(-107.354 -148.509)" fill="#7d6eb2"/>
      <path id="Trazado_875019" data-name="Trazado 875019" d="M139.139,266.272l2.508-16.4a16.779,16.779,0,0,0-17.969,22.555Z" transform="translate(-99.298 -148.419)" fill="#fff" opacity="0.1"/>
      <path id="Trazado_875020" data-name="Trazado 875020" d="M137.436,290.964a16.793,16.793,0,0,0,17.005-8.072l-14.483-8.2-15.488,6.117A16.779,16.779,0,0,0,137.436,290.964Z" transform="translate(-99.891 -156.324)" fill="#7d6eb2" opacity="0.2"/>
      <rect id="Rectángulo_401788" data-name="Rectángulo 401788" width="2.768" height="2.768" rx="0.63" transform="translate(64.159 107.798) rotate(8.7)" fill="#7d6eb2"/>
      <path id="Trazado_875021" data-name="Trazado 875021" d="M196.811,262.671l-8.236-1.264a.318.318,0,1,1,.1-.629l8.2,1.264a.314.314,0,0,1,.267.362A.328.328,0,0,1,196.811,262.671Z" transform="translate(-120.096 -151.919)" fill="#7d6eb2"/>
      <path id="Trazado_875022" data-name="Trazado 875022" d="M193.985,264.3l-5.721-.875a.314.314,0,0,1-.267-.362.321.321,0,0,1,.362-.267l5.721.875a.318.318,0,1,1-.1.629Z" transform="translate(-119.997 -152.559)" fill="#7d6eb2"/>
      <rect id="Rectángulo_401789" data-name="Rectángulo 401789" width="2.768" height="2.768" rx="0.63" transform="translate(63.223 113.922) rotate(8.7)" fill="#7d6eb2" opacity="0.6"/>
      <path id="Trazado_875023" data-name="Trazado 875023" d="M195.438,271.625l-8.243-1.258a.328.328,0,0,1-.267-.362.321.321,0,0,1,.362-.267L195.534,271a.315.315,0,0,1-.1.622Z" transform="translate(-119.66 -154.756)" fill="#7d6eb2"/>
      <path id="Trazado_875024" data-name="Trazado 875024" d="M192.628,273.244l-5.734-.875a.321.321,0,0,1,.1-.629l5.721.875a.317.317,0,0,1-.082.629Z" transform="translate(-119.577 -155.39)" fill="#7d6eb2"/>
      <rect id="Rectángulo_401790" data-name="Rectángulo 401790" width="2.772" height="2.772" rx="0.631" transform="translate(62.711 120.177) rotate(8.616)" fill="#7d6eb2" opacity="0.4"/>
      <path id="Trazado_875025" data-name="Trazado 875025" d="M194.1,280.586l-8.2-1.258a.321.321,0,0,1,.1-.629l8.2,1.258a.318.318,0,1,1-.1.629Z" transform="translate(-119.26 -157.593)" fill="#7d6eb2"/>
      <path id="Trazado_875026" data-name="Trazado 875026" d="M191.245,282.2l-5.721-.875a.321.321,0,0,1,.1-.629l5.721.875a.321.321,0,0,1-.1.629Z" transform="translate(-119.143 -158.226)" fill="#7d6eb2"/>
      <rect id="Rectángulo_401791" data-name="Rectángulo 401791" width="2.768" height="2.768" rx="0.63" transform="translate(61.351 126.169) rotate(8.7)" fill="#7d6eb2" opacity="0.2"/>
      <path id="Trazado_875027" data-name="Trazado 875027" d="M192.707,289.544l-8.2-1.258a.321.321,0,0,1-.267-.362.314.314,0,0,1,.362-.267l8.236,1.258a.322.322,0,1,1-.13.629Z" transform="translate(-118.808 -160.428)" fill="#7d6eb2"/>
      <path id="Trazado_875028" data-name="Trazado 875028" d="M189.875,291.162l-5.721-.875a.318.318,0,1,1,.1-.629l5.721.875a.321.321,0,0,1,.267.362.314.314,0,0,1-.362.267Z" transform="translate(-118.697 -161.061)" fill="#7d6eb2"/>
      <rect id="Rectángulo_401792" data-name="Rectángulo 401792" width="2.768" height="2.768" rx="0.63" transform="translate(60.415 132.3) rotate(8.7)" fill="#fff" opacity="0.1"/>
      <path id="Trazado_875029" data-name="Trazado 875029" d="M191.337,298.5l-8.2-1.258a.321.321,0,0,1-.267-.362.314.314,0,0,1,.362-.267l8.236,1.258a.322.322,0,1,1-.13.629Z" transform="translate(-118.374 -163.264)" fill="#7d6eb2"/>
      <path id="Trazado_875030" data-name="Trazado 875030" d="M188.505,300.121l-5.728-.875a.314.314,0,0,1-.26-.362.308.308,0,0,1,.362-.267l5.721.875a.321.321,0,1,1-.1.629Z" transform="translate(-118.263 -163.896)" fill="#7d6eb2"/>
      <g id="Grupo_1100603" data-name="Grupo 1100603" transform="translate(86.525 103.694)" opacity="0.1">
        <path id="Trazado_875031" data-name="Trazado 875031" d="M326.549,269.05,223.234,253.242a1.586,1.586,0,0,0-1.8,1.319l-.437,2.843-.082.547-.588,3.834-.082.547-.588,3.828-.082.54-.588,3.834-.082.54-.588,3.834-.082.547-.588,3.827-.082.547-.588,3.828-.082.547-.588,3.828-.082.547-.588,3.828-.082.547-.431,2.843a1.579,1.579,0,0,0,1.319,1.8l103.295,15.809a1.579,1.579,0,0,0,1.791-1.326l.437-2.843.082-.547.588-3.828.082-.547.588-3.834.082-.54.588-3.827.082-.547.588-3.827.082-.547.588-3.834.082-.54.588-3.834.082-.54.588-3.828.082-.547.588-3.834.082-.547.437-2.843A1.579,1.579,0,0,0,326.549,269.05ZM321.013,312a1.032,1.032,0,0,1-1.169.861L216.557,297.053a1.039,1.039,0,0,1-.868-1.176l.437-2.843,105.318,16.123Zm.519-3.417L216.208,292.467l.588-3.834,105.318,16.123Zm.683-4.374L216.878,288.12l.588-3.834L322.783,300.4Zm.684-4.374L217.575,283.711l.588-3.828L323.48,296Zm.683-4.374L218.258,279.337l.588-3.828,105.318,16.123Zm.683-4.374L218.942,274.963l.588-3.834,105.318,16.123Zm.684-4.381L219.625,270.588l.588-3.827,105.318,16.116Zm.683-4.374L220.227,266.241l.588-3.827L326.132,278.53Zm.684-4.367-105.42-16.1.588-3.834L326.8,274.156Zm-104.648-20.5.437-2.836a1.025,1.025,0,0,1,1.169-.861L326.44,269.6a1.025,1.025,0,0,1,.854,1.169l-.437,2.843Z" transform="translate(-215.102 -253.223)" fill="#fff"/>
      </g>
      <g id="Grupo_1100604" data-name="Grupo 1100604" transform="translate(21.059 18.974)" opacity="0.1">
        <path id="Trazado_875032" data-name="Trazado 875032" d="M307.264,156.233,131.254,129.29a1.8,1.8,0,0,0-2.05,1.511l-9.863,64.432a1.8,1.8,0,0,0,1.5,2.05l176.017,26.943a1.8,1.8,0,0,0,2.05-1.5l9.863-64.439a1.8,1.8,0,0,0-1.51-2.05Zm-143.531,9.261,12.221,1.866-1.066,6.944-12.241-1.873Zm-1.606,6.835-12.268-1.839,1.066-6.951,12.241,1.873Zm14.387-4.873,12.248,1.873L187.7,176.28l-12.241-1.873ZM240,176.615l-12.241-1.873,1.059-6.951,12.248,1.873Zm1.606-6.835,12.248,1.873-1.066,6.951-12.241-1.873Zm-39.512,1.627,12.248,1.873-1.066,6.951L201.01,178.3Zm-1.606,6.835-12.241-1.873,1.039-6.958,12.248,1.873Zm14.394-4.907,12.214,1.866-1.066,6.951-12.241-1.873Zm12.788,1.955,12.248,1.873-1.066,6.951-12.241-1.873Zm-.458-.629-12.241-1.873,1.059-6.951,12.248,1.88Zm-12.788-1.955-12.241-1.873,1.059-6.951,12.234,1.866Zm-12.808-1.927L189.37,168.9l1.059-7.006,12.248,1.873Zm-12.795-2-12.241-1.873,1.059-6.951,12.248,1.873Zm-1.23,8.045-1.059,6.937-12.241-1.873,1.066-6.951Zm.547.082,12.241,1.873-1.066,6.951-12.241-1.873Zm12.788,1.955,12.241,1.873-1.066,6.951-12.234-1.873Zm12.788,1.955,12.241,1.88-1.066,6.944-12.241-1.873ZM226.5,182.78l12.241,1.873-1.066,6.951-12.241-1.873Zm12.788,1.955,12.241,1.873-1.066,6.951-12.241-1.873Zm.082-.54,1.059-6.951,12.248,1.873-1.066,6.951Zm13.847-5,12.248,1.873-1.066,6.951-12.241-1.873ZM266,181.153l12.248,1.88-1.066,6.944L264.943,188.1Zm.089-.54,1.059-6.951,12.255,1.9-1.053,6.924Zm-.547-.082-12.241-1.88,1.059-6.951,12.248,1.88Zm-11.113-9.371,1.066-6.951,12.241,1.873-1,6.951Zm-.54-.082L241.65,169.2l1.059-6.944,12.241,1.873ZM241.1,169.117l-12.248-1.873,1.066-6.951,12.241,1.873Zm-12.788-1.955-12.227-1.852,1.066-6.951,12.241,1.873ZM215.527,165.2l-12.221-1.873,1.059-6.951,12.241,1.88Zm-12.767-1.941-12.241-1.873,1.032-6.965,12.3,1.873ZM189.972,161.3l-12.248-1.873,1.066-6.951,12.241,1.893ZM177.2,159.329l-12.241-1.873,1.059-6.951,12.241,1.88Zm-.082.547-1.066,6.951-12.241-1.873L164.867,158Zm-13.854,5-12.241-1.88,1.059-6.951,12.248,1.88Zm-12.788-1.962-12.234-1.873,1.059-6.951,12.248,1.873Zm-.082.547-1.066,6.951-12.241-1.873,1.066-6.951Zm-1.148,7.518-1.066,6.951-12.241-1.873L137,169.1Zm.547.089,12.241,1.873-1.066,6.951-12.241-1.88Zm12.788,1.955,12.227,1.859-1.066,6.951-12.262-1.886Zm11.079,9.377-1.066,6.951-12.241-1.88,1.066-6.951Zm.547.082,12.241,1.873-1.046,6.93-12.248-1.873Zm12.788,1.955,12.241,1.873-1.066,6.951-12.241-1.873Zm12.761,1.927,12.3,1.873-1.066,6.951-12.275-1.852Zm12.788,1.955,12.241,1.873-1.066,6.951-12.241-1.873Zm12.788,1.955,12.241,1.88-1.066,6.944-12.241-1.873Zm12.788,1.962,12.241,1.873-1.066,6.951-12.241-1.873Zm12.788,1.955,12.269,1.88-1.066,6.951-12.241-1.873Zm.082-.547,1.066-6.944,12.269,1.852-1.066,6.951Zm13.854-4.989,12.241,1.873-1.066,6.951L263.774,195.6Zm12.829,1.948,12.241,1.873-1.066,6.951L276.6,197.55Zm.082-.54,1.059-6.951,12.248,1.873-1.087,6.985Zm1.148-7.518,1.059-6.951,12.248,1.873-1.08,6.985Zm1.141-7.518,1.046-6.9L293.328,170l-1.053,6.93Zm-.54-.089-12.248-1.873,1.066-6.951,12.227,1.934Zm-11.1-9.364,1.066-6.9,12.227,1.852-1.059,6.951Zm-.54-.089-12.248-1.873,1.066-6.951,12.241,1.88Zm-12.788-1.955-12.262-1.818,1.066-6.951,12.241,1.873Zm-12.788-1.955L230.037,159.7l1.066-6.951,12.241,1.873ZM229.5,159.61l-12.262-1.818,1.066-6.951,12.241,1.873Zm-12.788-1.955-12.248-1.873,1.053-6.876,12.241,1.873Zm-12.8-1.914-12.248-1.88,1.066-6.944,12.241,1.873Zm-12.788-1.962-12.248-1.873,1.059-6.937,12.248,1.886Zm-12.788-1.955-12.248-1.873L167.15,143l12.241,1.873Zm-12.754-1.948L153.275,148l1.066-6.951,12.241,1.88Zm-.089.547-1.059,6.951L152.189,155.5l1.059-6.951Zm-13.847,5L139.4,153.54l1.059-6.944,12.241,1.873Zm-12.788-1.962-12.241-1.873,1.059-6.951,12.248,1.873Zm-.082.547-1.066,6.951-12.241-1.873,1.059-6.951Zm-1.148,7.518-1.066,6.951L124.316,166.6l1.066-6.951Zm-1.148,7.518-1.066,6.951-12.241-1.873,1.066-6.951Zm-1.148,7.518-1.059,6.944-12.248-1.873,1.066-6.951Zm.547.082,12.241,1.873-1.059,6.951-12.248-1.873Zm12.788,1.955,12.241,1.873-1.066,6.951L147.6,185.548Zm11.093,9.371-1.059,6.951-12.255-1.941,1.066-6.951Zm.547.082,12.241,1.873-1.059,6.951L159.235,195Zm12.754,1.866,12.241,1.88-1.059,6.944-12.248-1.873Zm12.788,1.962,12.241,1.873-1.066,6.972-12.248-1.873Zm12.788,1.955,12.241,1.873-1.059,6.951-12.248-1.873Zm12.788,1.962,12.255,1.893-1.059,6.951-12.248-1.88Zm12.788,1.955,12.241,1.873-1.059,6.951L223.141,204.7ZM237,199.7l12.241,1.873-1.059,6.951-12.248-1.873Zm12.788,1.962,12.241,1.921-1.059,6.951-12.248-1.873Zm12.788,1.955,12.241,1.873-1.059,6.978L261.5,210.6Zm.082-.547,1.066-6.951L275.96,198l-1.066,6.951Zm13.854-4.955,12.241,1.873-1.066,6.951-12.241-1.873Zm12.781,1.941,12.241,1.873-1.066,6.951L288.229,207Zm.082-.54,1.066-6.951,12.241,1.873-1.087,6.951ZM290.519,192l1.059-6.951,12.248,1.873-1.066,6.951Zm1.148-7.518,1.039-6.869,12.3,1.839-1.059,6.951Zm1.141-7.518,1.073-6.869,12.241,1.873-1.059,6.951Zm1.148-7.518,1.073-6.869,12.241,1.873-1.059,6.951Zm-.54-.082-12.248-1.873,1.066-6.951,12.241,1.873Zm-11.1-9.371,1.066-6.944,12.241,1.873-1.066,6.951Zm-.547-.082-12.241-1.873,1.066-6.951,12.241,1.873Zm-12.788-1.955-12.241-1.873,1.107-6.862,12.241,1.873ZM256.194,156l-12.241-1.88,1.066-6.944,12.241,1.873Zm-12.788-1.962-12.214-1.784,1.066-6.951,12.241,1.873Zm-12.788-1.955-12.234-1.811,1.066-6.951,12.241,1.873Zm-12.788-1.962-12.241-1.873,1.073-6.862,12.227,1.88Zm-12.781-1.955L192.8,146.3l1.066-6.951,12.241,1.873Zm-12.788-1.955-12.248-1.88,1.066-6.944,12.248,1.948Zm-12.795-1.962-12.241-1.873,1.087-6.862,12.241,1.873ZM166.685,142.3l-12.248-1.873,1.066-6.951,12.241,1.873ZM153.9,140.342l-12.241-1.791,1.066-6.944,12.241,1.873Zm-.089.54-1.059,6.951L140.5,145.96l1.066-6.951Zm-13.847,5-12.241-1.757,1.066-6.951,12.241,1.873ZM121.9,182.11l12.234,1.873-1.059,6.951-12.248-1.873Zm12.788,1.955,12.241,1.873-1.059,6.951-12.248-1.873Zm11.066,9.371-1.059,6.951-12.241-1.873,1.059-6.951Zm.547.082,12.268,1.866-1.059,6.951-12.241-1.873Zm12.788,1.962,12.241,1.873-1.059,6.951-12.214-1.88Zm12.815,1.955,12.241,1.873-1.059,6.951-12.248-1.873Zm12.808,1.955,12.241,1.88-1.059,6.944-12.262-1.893ZM197.5,201.35l12.241,1.873-1.107,6.951L196.4,208.3Zm12.788,1.955,12.241,1.873-1.059,6.951-12.248-1.873Zm12.788,1.955,12.214,1.88-1.059,6.944-12.248-1.873Zm12.788,1.962,12.241,1.873-1.059,6.951L234.8,214.172Zm12.788,1.955,12.241,1.873L259.837,218,247.6,216.127Zm12.788,1.962,12.241,1.873-1.08,6.978-12.248-1.88Zm12.788,1.955,12.241,1.873-1.059,6.951-12.248-1.873Zm.082-.547,1.066-6.951,12.241,1.88-1.066,6.944Zm13.854-4.989,12.241,1.873-1.059,6.951-12.268-1.859ZM308.248,158.2l-.9,5.741-12.241-1.873,1.066-6.951,11,1.681a1.251,1.251,0,0,1,1.046,1.4ZM131.226,129.837l11,1.681-1.059,6.951-12.3-1.866.875-5.714a1.251,1.251,0,0,1,1.428-1.053Zm-11.291,65.478.875-5.714,12.241,1.88-1.059,6.944-11.066-1.675a1.258,1.258,0,0,1-1.046-1.435Zm177.008,28.371L285.932,222,287,215.047l12.241,1.873-.875,5.721a1.251,1.251,0,0,1-1.422,1.046Z" transform="translate(-119.32 -129.27)" fill="#fff"/>
      </g>
      <path id="Trazado_875033" data-name="Trazado 875033" d="M301.71,214.534l-3.089,20.149a1.2,1.2,0,0,1-1.367,1L121.141,208.731a1.2,1.2,0,0,1-1-1.367l.41-2.693s8.277-6.671,13.458-5.878c6.117.936,7.218,4.408,12.685,5.229s11.455-11.824,16.4-11.072c2.672.41,3.356,2.467,4.661,4.354a7.088,7.088,0,0,0,5.058,3.185l.205.034c6.7,1.025,15.761-34.529,24.974-33.122,4.1.622,5.721,8.468,6.944,17.135,1.551,10.936,2.426,23.238,6.7,23.86,7.641,1.169,10.252-14.353,17.347-13.239,4.463.683,6.09,8.954,9.849,15.508,2.221,3.875,5.194,7.156,9.951,7.881a12.152,12.152,0,0,0,9.466-1.921c4.409-3.083,6.377-8.345,11.886-7.518,3.267.5,4.456,3.014,5.673,5.386,1.059,2.05,2.139,4.033,4.655,4.415,2.959.458,5.468-3.78,8.154-7.518,2.194-3.089,4.484-5.864,7.2-5.468s4.429,3.766,5.256,6.151A21.455,21.455,0,0,1,301.71,214.534Z" transform="translate(-98.517 -122.352)" fill="#7d6eb2" opacity="0.5"/>
      <path id="Trazado_875034" data-name="Trazado 875034" d="M305.948,193.979l-7.327,47.844a1.2,1.2,0,0,1-1.367,1L121.141,215.864a1.2,1.2,0,0,1-1-1.367l.41-2.693c7.313,1.121,11.216-4.354,16.123-3.6s7.45,4.176,12.043,4.88,11.681-10.047,16.7-9.275a9.22,9.22,0,0,1,2.29.642c1.934.807,3.267,2.105,5.058,3.185a12.3,12.3,0,0,0,4.607,1.654c5.885.9,17.661-20.4,24.489-19.356a5.167,5.167,0,0,1,3.028,1.75c4.033,4.395,5.071,15.385,10.758,16.253,6.9,1.059,10.587-10.157,17.278-9.138s8.66,12.556,16.4,13.738,16.144-19.978,24.188-18.748,10.341,12.1,17.333,13.171C298.532,208.134,305.948,193.979,305.948,193.979Z" transform="translate(-98.517 -129.485)" fill="#7d6eb2" opacity="0.5"/>
      <path id="Trazado_875035" data-name="Trazado 875035" d="M302.53,225.342l-3.923,25.6a1.2,1.2,0,0,1-1.367,1l-176.1-26.957a1.2,1.2,0,0,1-1-1.367l.2-1.319c.253-.239,4.4-4.156,8.612-3.513,4.354.683,4.367,4.566,10.437,5.468s7.84-3.875,16.451-2.556,8.585,7.341,17.49,8.708,10.744-5.857,17.087-4.887,5.9,4.654,9.494,5.2,5.687-5.085,10.109-4.408,7.805,9.945,12.788,10.71c3.5.533,9.685-6.4,16-10.116,2.666-1.572,5.365-2.57,7.881-2.18,5.2.793,8.236,4.853,11.537,8.14,2.05,2.05,4.258,3.827,7.142,4.272,4.1.629,7.252-3.1,10.416-6.384,2.57-2.672,5.16-5.051,8.311-4.572a12.836,12.836,0,0,1,4.5,1.449c2.734,1.531,3.452,3.6,6.719,4.1C299.243,232.354,302.53,225.342,302.53,225.342Z" transform="translate(-98.517 -138.607)" fill="#7d6eb2"/>
      <path id="Trazado_875036" data-name="Trazado 875036" d="M147.008,124.036l-9.459-1.449a1.681,1.681,0,0,1-1.408-1.921h0a1.688,1.688,0,0,1,1.921-1.415l9.453,1.449a1.7,1.7,0,0,1,1.415,1.921h0a1.7,1.7,0,0,1-1.921,1.415Z" transform="translate(-103.579 -107.119)" fill="#7d6eb2"/>
      <path id="Trazado_875037" data-name="Trazado 875037" d="M158.891,123.154h.15L168.5,124.6a1.018,1.018,0,0,1,.683.4,1.032,1.032,0,0,1,.185.745,1.018,1.018,0,0,1-.991.854h-.157l-9.453-1.449a.977.977,0,0,1-.684-.4,1,1,0,0,1,.807-1.593m0-.683a1.681,1.681,0,0,0-.253,3.349l9.453,1.449a1.66,1.66,0,0,0,.26,0,1.688,1.688,0,0,0,.253-3.356l-9.459-1.442a1.578,1.578,0,0,0-.253,0Z" transform="translate(-110.24 -108.145)" fill="#7d6eb2"/>
      <path id="Trazado_875038" data-name="Trazado 875038" d="M179.972,126.384h.144l9.453,1.449a1,1,0,0,1-.15,2h-.15l-9.459-1.449a1.011,1.011,0,0,1-.683-.4.991.991,0,0,1-.178-.745,1,1,0,0,1,.984-.848m0-.683a1.681,1.681,0,0,0-.253,3.349l9.459,1.449a1.579,1.579,0,0,0,.253,0,1.688,1.688,0,0,0,.253-3.356l-9.453-1.442a1.658,1.658,0,0,0-.26,0Z" transform="translate(-116.9 -109.167)" fill="#7d6eb2"/>
      <path id="Trazado_875039" data-name="Trazado 875039" d="M394.383,160.131l.116-.738-.547-.13a1.29,1.29,0,0,0-.089-.355l.424-.369-.437-.6-.485.294a1.553,1.553,0,0,0-.308-.191l.034-.56-.738-.109-.13.547a1.443,1.443,0,0,0-.349.082l-.376-.424-.6.444.294.478a1.313,1.313,0,0,0-.184.314l-.56-.041-.116.738.547.137a1.244,1.244,0,0,0,.089.349l-.424.369.444.6.478-.294a1.778,1.778,0,0,0,.308.191l-.034.56.738.109.13-.54a2.051,2.051,0,0,0,.355-.089l.369.424.6-.444-.294-.478a1.411,1.411,0,0,0,.185-.308Zm-2.1.178a.868.868,0,1,1,.991-.725A.868.868,0,0,1,392.285,160.309Z" transform="translate(-184.041 -119.19)" fill="#7d6eb2"/>
      <rect id="Rectángulo_401793" data-name="Rectángulo 401793" width="2.037" height="14.626" transform="translate(102.024 121.964) rotate(8.7)" fill="#7d6eb2" opacity="0.2"/>
      <rect id="Rectángulo_401794" data-name="Rectángulo 401794" width="2.037" height="6.883" transform="translate(101.692 124.137) rotate(8.7)" fill="#7d6eb2"/>
      <rect id="Rectángulo_401795" data-name="Rectángulo 401795" width="2.037" height="14.626" transform="translate(96.948 124.914) rotate(8.7)" fill="#7d6eb2" opacity="0.2"/>
      <rect id="Rectángulo_401796" data-name="Rectángulo 401796" width="6.889" height="2.037" transform="translate(95.304 135.534) rotate(-81.3)" fill="#7d6eb2"/>
      <rect id="Rectángulo_401797" data-name="Rectángulo 401797" width="2.039" height="14.646" transform="translate(93.308 121.544) rotate(8.616)" fill="#7d6eb2" opacity="0.2"/>
      <rect id="Rectángulo_401798" data-name="Rectángulo 401798" width="2.037" height="6.889" transform="translate(92.003 126.89) rotate(8.7)" fill="#7d6eb2"/>
      <rect id="Rectángulo_401799" data-name="Rectángulo 401799" width="2.037" height="14.626" transform="translate(106.116 125.508) rotate(8.7)" fill="#7d6eb2" opacity="0.2"/>
      <rect id="Rectángulo_401800" data-name="Rectángulo 401800" width="2.037" height="6.889" transform="translate(105.791 127.681) rotate(8.7)" fill="#7d6eb2"/>
      <rect id="Rectángulo_401801" data-name="Rectángulo 401801" width="2.037" height="14.626" transform="translate(111.293 121.925) rotate(8.7)" fill="#7d6eb2" opacity="0.2"/>
      <rect id="Rectángulo_401802" data-name="Rectángulo 401802" width="2.037" height="6.889" transform="translate(111.043 123.555) rotate(8.7)" fill="#7d6eb2"/>
      <rect id="Rectángulo_401803" data-name="Rectángulo 401803" width="2.037" height="14.626" transform="translate(115.254 126.348) rotate(8.7)" fill="#7d6eb2" opacity="0.2"/>
      <rect id="Rectángulo_401804" data-name="Rectángulo 401804" width="2.037" height="6.889" transform="translate(115.166 126.895) rotate(8.7)" fill="#7d6eb2"/>
      <rect id="Rectángulo_401805" data-name="Rectángulo 401805" width="2.037" height="14.626" transform="translate(120.93 119.48) rotate(8.7)" fill="#7d6eb2" opacity="0.2"/>
      <rect id="Rectángulo_401806" data-name="Rectángulo 401806" width="2.037" height="6.883" transform="translate(120.855 120.028) rotate(8.7)" fill="#7d6eb2"/>
      <rect id="Rectángulo_401807" data-name="Rectángulo 401807" width="2.037" height="14.626" transform="translate(124.066 129.28) rotate(8.7)" fill="#7d6eb2" opacity="0.2"/>
      <rect id="Rectángulo_401808" data-name="Rectángulo 401808" width="2.037" height="6.889" transform="translate(123.734 131.459) rotate(8.7)" fill="#7d6eb2"/>
      <rect id="Rectángulo_401809" data-name="Rectángulo 401809" width="2.037" height="14.626" transform="translate(128.465 130.817) rotate(8.7)" fill="#7d6eb2" opacity="0.2"/>
      <rect id="Rectángulo_401810" data-name="Rectángulo 401810" width="2.037" height="6.889" transform="translate(127.63 136.265) rotate(8.7)" fill="#7d6eb2"/>
      <rect id="Rectángulo_401811" data-name="Rectángulo 401811" width="2.037" height="14.626" transform="translate(134.388 122.423) rotate(8.7)" fill="#7d6eb2" opacity="0.2"/>
      <rect id="Rectángulo_401812" data-name="Rectángulo 401812" width="2.037" height="6.883" transform="translate(133.465 128.421) rotate(8.7)" fill="#7d6eb2"/>
      <rect id="Rectángulo_401813" data-name="Rectángulo 401813" width="2.037" height="14.626" transform="translate(137.935 129.482) rotate(8.7)" fill="#7d6eb2" opacity="0.2"/>
      <rect id="Rectángulo_401814" data-name="Rectángulo 401814" width="2.037" height="6.883" transform="translate(137.514 132.21) rotate(8.7)" fill="#7d6eb2"/>
      <rect id="Rectángulo_401815" data-name="Rectángulo 401815" width="2.037" height="14.626" transform="translate(143.038 126.401) rotate(8.7)" fill="#7d6eb2" opacity="0.2"/>
      <rect id="Rectángulo_401816" data-name="Rectángulo 401816" width="2.039" height="6.898" transform="translate(143.261 128.624) rotate(8.616)" fill="#7d6eb2"/>
      <rect id="Rectángulo_401817" data-name="Rectángulo 401817" width="2.037" height="14.626" transform="translate(148.561 120.598) rotate(8.7)" fill="#7d6eb2" opacity="0.2"/>
      <rect id="Rectángulo_401818" data-name="Rectángulo 401818" width="2.037" height="6.889" transform="translate(148.554 120.603) rotate(8.7)" fill="#7d6eb2"/>
      <rect id="Rectángulo_401819" data-name="Rectángulo 401819" width="2.037" height="14.626" transform="translate(151.689 130.45) rotate(8.7)" fill="#7d6eb2" opacity="0.2"/>
      <rect id="Rectángulo_401820" data-name="Rectángulo 401820" width="2.037" height="6.889" transform="translate(151.432 132.088) rotate(8.7)" fill="#7d6eb2"/>
      <rect id="Rectángulo_401821" data-name="Rectángulo 401821" width="2.037" height="14.626" transform="translate(155.236 137.503) rotate(8.7)" fill="#7d6eb2" opacity="0.2"/>
      <rect id="Rectángulo_401822" data-name="Rectángulo 401822" width="2.037" height="6.889" transform="translate(154.986 139.133) rotate(8.7)" fill="#7d6eb2"/>
      <rect id="Rectángulo_401823" data-name="Rectángulo 401823" width="2.037" height="14.626" transform="translate(160.932 130.543) rotate(8.7)" fill="#7d6eb2" opacity="0.2"/>
      <rect id="Rectángulo_401824" data-name="Rectángulo 401824" width="2.037" height="6.889" transform="translate(160.105 135.979) rotate(8.7)" fill="#7d6eb2"/>
      <rect id="Rectángulo_401825" data-name="Rectángulo 401825" width="2.037" height="14.626" transform="translate(166.714 123.063) rotate(8.7)" fill="#7d6eb2" opacity="0.2"/>
      <rect id="Rectángulo_401826" data-name="Rectángulo 401826" width="2.037" height="6.889" transform="translate(165.71 129.594) rotate(8.7)" fill="#7d6eb2"/>
      <rect id="Rectángulo_401827" data-name="Rectángulo 401827" width="2.037" height="14.626" transform="translate(169.99 131.924) rotate(8.7)" fill="#7d6eb2" opacity="0.2"/>
      <rect id="Rectángulo_401828" data-name="Rectángulo 401828" width="2.039" height="6.898" transform="translate(170.268 134.115) rotate(8.616)" fill="#7d6eb2"/>
      <rect id="Rectángulo_401829" data-name="Rectángulo 401829" width="2.037" height="14.626" transform="translate(174.141 135.025) rotate(8.7)" fill="#7d6eb2" opacity="0.2"/>
      <rect id="Rectángulo_401830" data-name="Rectángulo 401830" width="2.037" height="6.889" transform="translate(173.232 141.017) rotate(8.7)" fill="#7d6eb2"/>
      <rect id="Rectángulo_401831" data-name="Rectángulo 401831" width="2.037" height="14.626" transform="translate(179.361 131.204) rotate(8.7)" fill="#7d6eb2" opacity="0.2"/>
      <rect id="Rectángulo_401832" data-name="Rectángulo 401832" width="2.037" height="6.889" transform="translate(179.361 131.21) rotate(8.7)" fill="#7d6eb2"/>
      <rect id="Rectángulo_401833" data-name="Rectángulo 401833" width="2.037" height="14.626" transform="translate(183.198 136.407) rotate(8.7)" fill="#7d6eb2" opacity="0.2"/>
      <rect id="Rectángulo_401834" data-name="Rectángulo 401834" width="2.037" height="6.889" transform="translate(183.029 137.495) rotate(8.7)" fill="#7d6eb2"/>
      <rect id="Rectángulo_401835" data-name="Rectángulo 401835" width="2.037" height="14.626" transform="translate(188.029 135.148) rotate(8.7)" fill="#7d6eb2" opacity="0.2"/>
      <rect id="Rectángulo_401836" data-name="Rectángulo 401836" width="2.037" height="6.889" transform="translate(187.941 135.695) rotate(8.7)" fill="#7d6eb2"/>
      <rect id="Rectángulo_401837" data-name="Rectángulo 401837" width="2.037" height="14.626" transform="translate(192.262 137.701) rotate(8.7)" fill="#7d6eb2" opacity="0.2"/>
      <rect id="Rectángulo_401838" data-name="Rectángulo 401838" width="2.039" height="6.898" transform="translate(191.839 144.782) rotate(8.616)" fill="#7d6eb2"/>
      <rect id="Rectángulo_401839" data-name="Rectángulo 401839" width="38.357" height="1.189" transform="translate(83.259 152.288) rotate(8.7)" fill="#999" stroke="#263238" stroke-linecap="round" stroke-linejoin="round" stroke-width="1"/>
    </g>
    <g id="freepik--right-hand--inject-13" transform="translate(211.43 139.458)">
      <path id="Trazado_875040" data-name="Trazado 875040" d="M298.648,211.88s-5.14,2.85-1.866,10.573,23.184,20.422,22.78,26.874c0,0-20.443-12.74-26.123-5.386,0,0,15.44,14.975,17.046,26.239s6.835,16.26,18.919,22.685,38.357,40.325,38.357,40.325l-3.93-56.934-38.275-43.2-18.919-10.785Z" transform="translate(-293.253 -199.96)" fill="rgba(0,0,0,0.7)" opacity="0.2"/>
      <path id="Trazado_875041" data-name="Trazado 875041" d="M402.41,313.024l-33.7,22.131h-.055a.164.164,0,0,1-.144-.1c-.15-.4-15.037-40.182-18.625-43.285a14.66,14.66,0,0,1-4.251-6.794h0v-.055c-.13-.437-.191-.725-.205-.8a24.777,24.777,0,0,0-8.8-9.883,45.92,45.92,0,0,0-7.956-3.828c-4.238-1.716-8.6-3.486-11.681-6.76a14.346,14.346,0,0,1-1.442-1.8c-4.9-7.177-12.467-15.1-14.989-16.725s-7.163-1.408-7.2-1.408a.15.15,0,0,1-.164-.123,4.3,4.3,0,0,1,1.107-3.479,6.835,6.835,0,0,1,5.215-2.392,19.906,19.906,0,0,1,11.968,4.627c2.707,2.577,8.967,4.47,9.685,4.689,1.018-.6,3.417.683,4.3,1.237-1.046-3.725-.622-5.16-.458-5.523-2.242-2.9-13.916-11.5-20.115-15.816h0c-1.709-1.2-2.994-2.05-3.554-2.385-2.891-1.7-5.283-7.026-4.819-10.744a3.418,3.418,0,0,1,1.367-2.584,3.294,3.294,0,0,1,1.948-.5,4.276,4.276,0,0,1,.827.1.279.279,0,0,1,.075.048c.055.075,5.857,6.958,7.867,8.038.984.526,6.22,3.171,11.2,5.632l2.242,1.107a55.151,55.151,0,0,1,.342-6.486c.191-.848,1.545-2.05,3.083-2.734a3.708,3.708,0,0,1,3.028-.28c.376.212,1.264.759,2.495,1.524l2.05,1.271a7.985,7.985,0,0,1,1.586-1.784,9.168,9.168,0,0,1,4.361-.472,71.135,71.135,0,0,1,6.7,4.019l1.292.813c.157-.294.526-.909.875-1.046a7.805,7.805,0,0,1,4.613-.246c1.012.369,4.484,2.932,7.846,5.413,1.845,1.367,3.616,2.672,4.784,3.458a.164.164,0,0,1,.1.068c.335.226.615.4.827.526,2.474,1.415,8.557,33.32,8.619,33.641.4,2.139,1.845,4.347,3.376,6.684a35.345,35.345,0,0,1,4.217,7.867c1.948,5.693,6.384,14.025,12.884,24.209q.882,1.367,1.818,2.809C398.705,307.57,400.578,310.345,402.41,313.024Z" transform="translate(-293.167 -199.594)" fill="#fff"/>
      <path id="Trazado_875042" data-name="Trazado 875042" d="M327.322,251.921c-1.305,1.032-10.779.055-11.94,3.24-.683,1.88-.178,4.723,1.6,8.475a14.358,14.358,0,0,1-1.442-1.8c-4.9-7.177-12.467-15.1-14.989-16.725s-7.142-1.394-7.183-1.394a.15.15,0,0,1-.164-.123,4.3,4.3,0,0,1,1.107-3.479,6.835,6.835,0,0,1,5.215-2.392,19.906,19.906,0,0,1,11.968,4.627c2.707,2.577,8.967,4.47,9.685,4.689,1.018-.6,3.417.683,4.3,1.237-1.046-3.725-.622-5.16-.458-5.523-2.242-2.9-13.916-11.5-20.115-15.816h0c-1.709-1.2-2.994-2.05-3.554-2.385-2.891-1.7-5.283-7.026-4.819-10.744a3.418,3.418,0,0,1,1.367-2.584,3.294,3.294,0,0,1,1.948-.5,4.374,4.374,0,0,0-1.285.779c-1.9,1.62,2.631,10.17,5.181,12.535,2.666,2.467,14.654,8.591,18.96,12.241,2.365,2,5.468,5.037,5.468,5.037C326.277,244.546,328.594,250.909,327.322,251.921Z" transform="translate(-293.167 -199.594)" fill="#7d6eb2" opacity="0.4"/>
      <path id="Trazado_875043" data-name="Trazado 875043" d="M407.54,194.5v-.048a.041.041,0,0,1,0,.048Z" transform="translate(-329.368 -194.44)" fill="#7d6eb2"/>
      <path id="Trazado_875044" data-name="Trazado 875044" d="M407.47,304.47c-5.078-4.832-12.638-12.357-14.052-15.659-2.16-5.058-3.6-9.726-6.288-13.13s-8.133-39.676-9.7-39.779,1.968,14.353,2.153,15.091c-.15-.458-2.105-6.616-3.978-13.635-1.941-7.293-3.9-7.689-3.9-7.689-2.6.519-2.618,2.372-3.951,2.344s-5.905-3.274-5.905-3.274c-4.436.642-21.079-10.075-21.079-10.075-3.786.513-4.675,3.821-1.442,6.924s8.065,6.862,8.065,6.862c-3.117,1.517-14.558-4.9-14.558-4.9l-.683-.615,2.242,1.107a55.151,55.151,0,0,1,.342-6.486c.191-.848,1.545-2.05,3.083-2.734a3.708,3.708,0,0,1,3.028-.28c.376.212,1.264.759,2.495,1.524l2.05,1.271a7.984,7.984,0,0,1,1.586-1.784,9.168,9.168,0,0,1,4.361-.472,71.135,71.135,0,0,1,6.7,4.019l1.292.813c.157-.294.526-.909.875-1.046a7.805,7.805,0,0,1,4.613-.246c1.012.369,4.484,2.932,7.846,5.413,1.845,1.367,3.616,2.672,4.784,3.458a.164.164,0,0,1,.1.068c.335.226.615.4.827.526,2.474,1.415,8.557,33.32,8.619,33.641.4,2.139,1.845,4.347,3.376,6.684a35.34,35.34,0,0,1,4.217,7.881C396.534,285.955,400.97,294.286,407.47,304.47Z" transform="translate(-305.506 -201.996)" fill="#7d6eb2" opacity="0.4"/>
      <path id="Trazado_875045" data-name="Trazado 875045" d="M368.711,335.081s-15.037-40.189-18.666-43.346a14.469,14.469,0,0,1-4.429-7.628,24.823,24.823,0,0,0-8.885-9.965c-6.486-4.272-16.294-5.379-21.038-12.3s-12.344-15.037-15.037-16.773-7.279-1.422-7.279-1.422c-.472-2.693,2.529-5.693,6.151-5.693a19.85,19.85,0,0,1,11.865,4.586c2.85,2.693,9.808,4.743,9.808,4.743,1.107-.793,4.531,1.408,4.531,1.408-1.367-4.627-.54-5.878-.54-5.878-2.686-3.636-21.079-16.725-23.765-18.31s-5.222-6.8-4.75-10.6a3.055,3.055,0,0,1,3.957-2.843s5.851,6.958,7.908,8.065,18.194,9.179,20.566,10.122a4.456,4.456,0,0,0,4.1-.314" transform="translate(-293.218 -199.657)" fill="none" stroke="#263238" stroke-linecap="round" stroke-linejoin="round" stroke-width="1"/>
      <path id="Trazado_875046" data-name="Trazado 875046" d="M335.65,228.37a54.335,54.335,0,0,1,.342-6.691c.342-1.428,4.149-3.889,5.885-2.946s14.558,9.377,17.9,9.753" transform="translate(-306.613 -202.063)" fill="none" stroke="#263238" stroke-linecap="round" stroke-linejoin="round" stroke-width="1"/>
      <path id="Trazado_875047" data-name="Trazado 875047" d="M351.59,221.872a4.643,4.643,0,0,1,5.857-2.324c1.9.683,13.1,8.407,14.989,8.885" transform="translate(-311.659 -202.352)" fill="none" stroke="#263238" stroke-linecap="round" stroke-linejoin="round" stroke-width="1"/>
      <path id="Trazado_875048" data-name="Trazado 875048" d="M372,226.079s.485-.971.875-1.128a7.58,7.58,0,0,1,4.5-.239c1.743.636,11.312,8.2,13.526,9.453s7.758,29.267,8.544,33.538,5.543,8.544,7.593,14.558,6.965,15.187,14.715,27.052c1.367,2.05,2.789,4.217,4.217,6.309" transform="translate(-318.119 -203.948)" fill="none" stroke="#263238" stroke-linecap="round" stroke-linejoin="round" stroke-width="1"/>
      <path id="Trazado_875049" data-name="Trazado 875049" d="M349.92,246.881s.683-3.206,2.611-4.627,4.511.834,6.4,1.066" transform="translate(-311.13 -209.426)" fill="none" stroke="#263238" stroke-linecap="round" stroke-linejoin="round" stroke-width="1"/>
      <path id="Trazado_875050" data-name="Trazado 875050" d="M368.84,239.613s1.066-3.684,2.966-4.511,4.825,1.661,6.09,1.777" transform="translate(-317.119 -207.257)" fill="none" stroke="#263238" stroke-linecap="round" stroke-linejoin="round" stroke-width="1"/>
      <path id="Trazado_875051" data-name="Trazado 875051" d="M387.07,236.277s1.422-1.367,2.016-1.367,3.082,2.6,3.622,2.782,1.182-.8,2.105-.813" transform="translate(-322.889 -207.25)" fill="none" stroke="#263238" stroke-linecap="round" stroke-linejoin="round" stroke-width="1"/>
      <path id="Trazado_875052" data-name="Trazado 875052" d="M380.74,231.994a4.9,4.9,0,0,1,2.959.731" transform="translate(-320.885 -206.322)" fill="none" stroke="#263238" stroke-linecap="round" stroke-linejoin="round" stroke-width="1"/>
      <path id="Trazado_875053" data-name="Trazado 875053" d="M339.72,255.867s-.943-2.433-.472-3.677" transform="translate(-307.711 -212.719)" fill="none" stroke="#263238" stroke-linecap="round" stroke-linejoin="round" stroke-width="1"/>
      <path id="Trazado_875054" data-name="Trazado 875054" d="M342.71,231.45a5.294,5.294,0,0,1,1.189,2.379c.062,1.059,2.734,2.344,2.734,2.344" transform="translate(-308.848 -206.155)" fill="none" stroke="#263238" stroke-linecap="round" stroke-linejoin="round" stroke-width="1"/>
      <path id="Trazado_875055" data-name="Trazado 875055" d="M369.18,232.516s1.552-.554,2.379,0" transform="translate(-317.226 -206.414)" fill="none" stroke="#263238" stroke-linecap="round" stroke-linejoin="round" stroke-width="1"/>
      <path id="Trazado_875056" data-name="Trazado 875056" d="M339.995,260.361a4.784,4.784,0,0,1,1.839-4.1" transform="translate(-307.985 -214.007)" fill="none" stroke="#263238" stroke-linecap="round" stroke-linejoin="round" stroke-width="1"/>
      <path id="Trazado_875057" data-name="Trazado 875057" d="M339.993,266.17s-1.763,1.517-1.763,2.467" transform="translate(-307.43 -217.144)" fill="none" stroke="#263238" stroke-linecap="round" stroke-linejoin="round" stroke-width="1"/>
      <path id="Trazado_875058" data-name="Trazado 875058" d="M328.93,262.26c2.091.779,3.827,4.033,5.092,4.586" transform="translate(-304.486 -215.907)" fill="none" stroke="#263238" stroke-linecap="round" stroke-linejoin="round" stroke-width="1"/>
      <path id="Trazado_875059" data-name="Trazado 875059" d="M366,247.1c1.264,1.818,4.1,15.037,6.958,19.219" transform="translate(-316.22 -211.108)" fill="none" stroke="#263238" stroke-linecap="round" stroke-linejoin="round" stroke-width="1"/>
      <path id="Trazado_875060" data-name="Trazado 875060" d="M381.52,241.64c.239.157,1.9,5.3,1.9,5.3" transform="translate(-321.132 -209.38)" fill="none" stroke="#263238" stroke-linecap="round" stroke-linejoin="round" stroke-width="1"/>
      <path id="Trazado_875061" data-name="Trazado 875061" d="M412.59,289.29a30.552,30.552,0,0,0,2.255,7.628" transform="translate(-330.966 -224.462)" fill="none" stroke="#263238" stroke-linecap="round" stroke-linejoin="round" stroke-width="1"/>
      <path id="Trazado_875062" data-name="Trazado 875062" d="M369.1,315.392c-.212-.868-1.128-6.561-2.255-8.462" transform="translate(-316.486 -230.045)" fill="none" stroke="#263238" stroke-linecap="round" stroke-linejoin="round" stroke-width="1"/>
    </g>
    <g id="freepik--left-hand--inject-13" transform="translate(40.76 192.05)">
      <path id="Trazado_875063" data-name="Trazado 875063" d="M89.89,394.377S112.13,364.475,128.9,359s17.6-12.9,16.916-26.765-.178-27.831-4.784-29.5,5.523-19.766.683-26.936l-31.734,49.853Z" transform="translate(-58.156 -272.784)" fill="rgba(0,0,0,0.7)" opacity="0.2"/>
      <path id="Trazado_875064" data-name="Trazado 875064" d="M69.8,401.312l-.335-.109.478.267Zm54.063-91.73c-2.734-1.278-8.161-7.272-8.837-8.024,3.417-5.755,6.794-11.3,7.963-12.638,2.426-2.734,5.386-10.71,4.183-14.565-1.1-3.54-4.7-2.973-5.194-2.877h-.055a.123.123,0,0,0-.089.062c-.075.13-7.409,12.494-9.685,15.453-1.087,1.408-3.588,4.613-6.151,7.826l-.759-.116a13.15,13.15,0,0,0-4.784.137l-.157.055a16.506,16.506,0,0,0-2.344,1.244l-.54-.226a18.547,18.547,0,0,0-4.374-1.367c-1.292-.068-5.844,2.05-8.564,3.759a18.345,18.345,0,0,0-5.789-.786c-2.085.089-6.336,1.818-9.753,3.206-1.517.615-2.83,1.148-3.6,1.367l-.683.205c-2.05.608-3.158.95-4.579,3.793-1.476,2.953-3.069,13.964-3.834,19.254l-.1.718a77.6,77.6,0,0,0-.2,9.48c.075,5.331.15,10.84-.642,12.986a33.84,33.84,0,0,1-4.21,7.6c-.226.321-.431.622-.622.909a23.437,23.437,0,0,0-2.536,5.338c-.574,1.517-1.292,3.185-1.989,4.709-1.285,2.823-2.481,5.153-2.481,5.153S67.689,398.968,69.8,401.312a2.907,2.907,0,0,0,.349.109c.082-.137,4.552-7.778,9.289-15.317,4.1-6.507,8.359-12.938,10.184-14.415a16.9,16.9,0,0,0,5.235-8.147c.984-3.165,7.265-7.067,13.342-10.84,6.719-4.169,13.67-8.482,13.9-12.05.13-1.845.554-4.9,1.046-8.448,1.333-9.61,2.987-21.578.718-22.623Zm-11.51,15.365-2.987,2.9c-.424-2.392-3.329-5.57-3.786-6.056a25.008,25.008,0,0,0,.444-3.486c.109-1.333.226-2.734.554-2.959a70.055,70.055,0,0,0,4.3-6.835c.205,2.891,2.734,6.076,3.076,6.534Z" transform="translate(-43.46 -271.387)" fill="#fff"/>
      <path id="Trazado_875065" data-name="Trazado 875065" d="M78.067,326.814c-.882,7.874-8.6,27.408-8.6,27.408L68.1,334.544s-6.008,26.7-7.655,27.667-4.538,6.069-6.151,10.122c-1.087,2.734-4.784,4.593-7.115,5.529.683-1.524,1.415-3.192,1.989-4.709a23.437,23.437,0,0,1,2.536-5.338c.191-.287.4-.588.622-.909a33.839,33.839,0,0,0,4.21-7.6c.793-2.16.683-7.669.642-12.986a77.43,77.43,0,0,1,.2-9.48l.1-.718c.765-5.29,2.358-16.3,3.834-19.254,1.422-2.843,2.543-3.185,4.579-3.793l.683-.205c.765-.239,2.05-.772,3.6-1.367,3.417-1.367,7.669-3.117,9.753-3.206a18.345,18.345,0,0,1,5.755.8c2.734-1.716,7.272-3.827,8.564-3.759a18.545,18.545,0,0,1,4.374,1.367,124.092,124.092,0,0,0-12.173,7.969C77.814,316.548,78.067,326.814,78.067,326.814Z" transform="translate(-44.637 -282.133)" fill="#7d6eb2" opacity="0.4"/>
      <path id="Trazado_875066" data-name="Trazado 875066" d="M114.75,316.342a76.071,76.071,0,0,1,6.937-4.272c2.214-1.039,2.925-5.181,1.367-6.35a.437.437,0,0,0-.2-.082l.157-.055a13.15,13.15,0,0,1,4.784-.137c-2.864,4.3-5.106,7.593-5.7,8.3C120.129,316.144,114.75,316.342,114.75,316.342Z" transform="translate(-66.025 -282.118)" fill="#7d6eb2" opacity="0.4"/>
      <path id="Trazado_875067" data-name="Trazado 875067" d="M131.28,360.93l1.046.451C131.69,363.917,131.28,360.93,131.28,360.93Z" transform="translate(-71.257 -299.729)" fill="#7d6eb2" opacity="0.4"/>
      <path id="Trazado_875068" data-name="Trazado 875068" d="M140.526,309.582c-2.734-1.278-8.161-7.272-8.837-8.024,3.417-5.755,6.794-11.3,7.963-12.638,2.426-2.734,5.386-10.71,4.183-14.565-1.1-3.54-4.7-2.973-5.194-2.877v.15s3.9.485,3.889,6.117-10.122,16.793-10.122,16.793S122,314.052,121.32,313.758s-2.208,13.041-2.208,13.041,2.9,2.467,2.208,5.789q-.055.246-.1.451l4.456,1.921s4.47-3.137,6.739,1.476-21.817,21.1-23.71,23.539c0,0-.267,9.193-3.78,10.546-2.276.875-6.288,9.569-8.824,15.59,4.1-6.507,8.359-12.938,10.184-14.415a16.9,16.9,0,0,0,5.235-8.147c.984-3.165,7.265-7.067,13.342-10.84,6.719-4.169,13.67-8.482,13.9-12.05.13-1.845.554-4.9,1.046-8.448C141.141,322.6,142.8,310.628,140.526,309.582Zm-11.51,15.365-2.987,2.9c-.424-2.392-3.329-5.57-3.786-6.056a25.01,25.01,0,0,0,.444-3.486c.109-1.333.226-2.734.554-2.959a70.046,70.046,0,0,0,4.3-6.835c.205,2.891,2.734,6.076,3.076,6.534Z" transform="translate(-60.122 -271.387)" fill="#7d6eb2" opacity="0.4"/>
      <path id="Trazado_875069" data-name="Trazado 875069" d="M118.46,305.853a9.22,9.22,0,0,0,4.846-2.768c2.05-2.3,10.389-12.925,12.7-15.925s9.692-15.467,9.692-15.467,3.923-.923,5.078,2.775-1.613,11.537-4.156,14.421-15.467,25.74-16.4,26.43-.226,7.163-2.05,8.544" transform="translate(-67.199 -271.452)" fill="none" stroke="#263238" stroke-linecap="round" stroke-linejoin="round" stroke-width="1"/>
      <path id="Trazado_875070" data-name="Trazado 875070" d="M134.11,338.824s3.616,3.786,3.848,6.322l3.226-3.158,1.62-10s-3.192-3.841-3.1-7" transform="translate(-72.152 -288.354)" fill="none" stroke="#263238" stroke-linecap="round" stroke-linejoin="round" stroke-width="1"/>
      <path id="Trazado_875071" data-name="Trazado 875071" d="M127.15,315.56s5.953,6.753,8.954,8.14-1.367,24.236-1.845,30.928-25.159,16.144-27.237,22.849a16.643,16.643,0,0,1-5.194,8.079C97.821,388.8,82.32,415.335,82.32,415.335" transform="translate(-55.76 -285.369)" fill="none" stroke="#263238" stroke-linecap="round" stroke-linejoin="round" stroke-width="1"/>
      <path id="Trazado_875072" data-name="Trazado 875072" d="M123.844,305.786s-3.52-.649-5.6,0-10.867,6.889-12.918,8.031-5.078,1.367-5.769,2.768" transform="translate(-61.217 -282.184)" fill="none" stroke="#263238" stroke-linecap="round" stroke-linejoin="round" stroke-width="1"/>
      <path id="Trazado_875073" data-name="Trazado 875073" d="M113.546,307.112a23.943,23.943,0,0,0-4.921-1.613c-1.367-.068-6.924,2.549-9.459,4.395a20.272,20.272,0,0,1-6.466,3.158" transform="translate(-59.045 -282.184)" fill="none" stroke="#263238" stroke-linecap="round" stroke-linejoin="round" stroke-width="1"/>
      <path id="Trazado_875074" data-name="Trazado 875074" d="M84.517,310.621a17.969,17.969,0,0,0-5.762-.813c-3.007.13-10.854,3.821-13.314,4.593s-3.616.841-5.153,3.923-3.233,15.153-3.923,19.923.54,18.734-.848,22.507a39.461,39.461,0,0,1-4.819,8.557c-2.631,3.91-2.338,6.835-7.129,15.119" transform="translate(-43.495 -283.547)" fill="none" stroke="#263238" stroke-linecap="round" stroke-linejoin="round" stroke-width="1"/>
      <path id="Trazado_875075" data-name="Trazado 875075" d="M93.431,323.24c-3,2.659-2.447,7.737-2.05,9.241S89.938,340,89.33,343.211" transform="translate(-57.979 -287.8)" fill="none" stroke="#263238" stroke-linecap="round" stroke-linejoin="round" stroke-width="1"/>
      <path id="Trazado_875076" data-name="Trazado 875076" d="M119.718,327c-5.468.116-7.163,3.807-7.518,6.233" transform="translate(-65.217 -288.99)" fill="none" stroke="#263238" stroke-linecap="round" stroke-linejoin="round" stroke-width="1"/>
      <path id="Trazado_875077" data-name="Trazado 875077" d="M86.372,319c-1.62-.116-5.775,2.426-6.582,6.582" transform="translate(-54.959 -286.456)" fill="none" stroke="#263238" stroke-linecap="round" stroke-linejoin="round" stroke-width="1"/>
      <path id="Trazado_875078" data-name="Trazado 875078" d="M146.83,334.056s.807-2.3,1.613-2.536" transform="translate(-76.179 -290.42)" fill="none" stroke="#263238" stroke-linecap="round" stroke-linejoin="round" stroke-width="1"/>
      <path id="Trazado_875079" data-name="Trazado 875079" d="M143.636,349.86a29.988,29.988,0,0,1-1.476,3.964c-.683,1.367,0,3.547,0,3.547" transform="translate(-74.604 -296.225)" fill="none" stroke="#263238" stroke-linecap="round" stroke-linejoin="round" stroke-width="1"/>
      <path id="Trazado_875080" data-name="Trazado 875080" d="M138.268,354.48c-.116,2.31-2.659,4.784-3.178,4.354" transform="translate(-72.463 -297.688)" fill="none" stroke="#263238" stroke-linecap="round" stroke-linejoin="round" stroke-width="1"/>
      <path id="Trazado_875081" data-name="Trazado 875081" d="M105.766,348.74c-.082,2.543-4.7,21.12-4.7,21.12" transform="translate(-61.695 -295.871)" fill="none" stroke="#263238" stroke-linecap="round" stroke-linejoin="round" stroke-width="1"/>
    </g>
  </g>
</svg>
