<svg xmlns="http://www.w3.org/2000/svg" xmlns:xlink="http://www.w3.org/1999/xlink" width="78.5" height="74.688" viewBox="0 0 78.5 74.688">
  <defs>
    <clipPath id="clip-path">
      <rect id="Rectángulo_401465" data-name="Rectángulo 401465" width="63" height="64" transform="translate(248.013 6626.875)" fill="#fff" stroke="#707070" stroke-width="1"/>
    </clipPath>
  </defs>
  <g id="Grupo_1099773" data-name="Grupo 1099773" transform="translate(-240.263 -6626.875)">
    <path id="_12068" data-name="12068" d="M72.033,71.913c-8.038-1.11-16.53-.839-23.844,2.675C38.045,79.46,31.382,90.507,31.127,101.757s5.606,22.305,14.66,28.988,21,9.051,32.068,7.045c11.165-2.023,21.645-8.583,27.469-18.322,3.735-6.245,5.48-13.956,3.417-20.934a28.6,28.6,0,0,0-6.787-11.156A50.145,50.145,0,0,0,72.033,71.913Z" transform="translate(209.144 6563.081)" fill="#26aab7"/>
    <g id="Enmascarar_grupo_1098716" data-name="Enmascarar grupo 1098716" clip-path="url(#clip-path)">
      <g id="salir" transform="translate(247.513 6626.875)">
        <g id="Grupo_1099798" data-name="Grupo 1099798">
          <g id="Grupo_1099797" data-name="Grupo 1099797">
            <path id="Trazado_873936" data-name="Trazado 873936" d="M8.059,52.4l-.536.125v9.911a.625.625,0,0,0,.625.625H12.68a.625.625,0,0,0,.625-.625V52.4Z" fill="#bd80e1"/>
            <path id="Trazado_873937" data-name="Trazado 873937" d="M10.513,59.375A.625.625,0,0,1,9.888,60H7.523v2.438a.625.625,0,0,0,.625.625H12.68a.625.625,0,0,0,.625-.625V52.526H10.513Z" fill="#af66da"/>
            <path id="Trazado_873938" data-name="Trazado 873938" d="M44.506,52.4H39.26V62.437a.625.625,0,0,0,.625.625h4.532a.625.625,0,0,0,.625-.625V52.526Z" fill="#bd80e1"/>
            <path id="Trazado_873939" data-name="Trazado 873939" d="M42.25,59.375a.625.625,0,0,1-.625.625H39.26v2.438a.625.625,0,0,0,.625.625h4.532a.625.625,0,0,0,.625-.625V52.526H42.25Z" fill="#af66da"/>
            <path id="Trazado_873940" data-name="Trazado 873940" d="M44.569,21l-.7-1.414a1.794,1.794,0,0,0-2.187-.906l-1.493.507a1.574,1.574,0,0,1-.505.085,1.549,1.549,0,0,1-1.252-.653,1.523,1.523,0,0,1-.2-1.392l.507-1.493a1.8,1.8,0,0,0-.906-2.187l-1.414-.7a1.545,1.545,0,0,1,0-2.772l1.414-.7a1.8,1.8,0,0,0,.906-2.187L38.47,6.4H10.023a2.5,2.5,0,0,0-2.5,2.5V52.526H45.042V21.565A1.553,1.553,0,0,1,44.569,21Z" fill="#fff0ad"/>
            <path id="Trazado_873941" data-name="Trazado 873941" d="M44.569,21l-.7-1.414a1.794,1.794,0,0,0-2.187-.906l-1.493.507a1.594,1.594,0,0,1-.317.072V44.878a1.25,1.25,0,0,1-1.25,1.25h-.65v.552a.642.642,0,0,1-.643.643h-22.1a.642.642,0,0,1-.642-.643v-.552H7.523v6.4H45.042V21.565A1.553,1.553,0,0,1,44.569,21Z" fill="#ffe177"/>
            <path id="Trazado_873942" data-name="Trazado 873942" d="M37.332,47.322h-22.1a.642.642,0,0,1-.642-.643V42.825a.642.642,0,0,1,.642-.643h22.1a.642.642,0,0,1,.643.643V46.68A.642.642,0,0,1,37.332,47.322Z" fill="#05e39c"/>
            <path id="Trazado_873943" data-name="Trazado 873943" d="M37.332,42.183H34.01v1.925a.642.642,0,0,1-.643.643H14.59v1.93a.642.642,0,0,0,.642.643h22.1a.642.642,0,0,0,.643-.643V42.825A.643.643,0,0,0,37.332,42.183Z" fill="#0ed290"/>
            <g id="Grupo_1099795" data-name="Grupo 1099795">
              <g id="Grupo_1099791" data-name="Grupo 1099791">
                <path id="Trazado_873944" data-name="Trazado 873944" d="M27.844,32.208l-.737.6a1.311,1.311,0,0,1-1.651,0l-.737-.6H16.7v1.027A4.194,4.194,0,0,0,20.9,37.429H31.668a4.194,4.194,0,0,0,4.194-4.193V32.208Z" fill="#feb237"/>
              </g>
              <g id="Grupo_1099792" data-name="Grupo 1099792">
                <path id="Trazado_873945" data-name="Trazado 873945" d="M30.625,32.208v5.22h1.043a4.194,4.194,0,0,0,4.194-4.193V32.208H30.625Z" fill="#eca026"/>
              </g>
              <g id="Grupo_1099793" data-name="Grupo 1099793">
                <path id="Trazado_873946" data-name="Trazado 873946" d="M20.392,28.72H15.36a.642.642,0,0,0-.642.642v2.344a.642.642,0,0,0,.642.642h9.508Z" fill="#c96e59"/>
                <path id="Trazado_873947" data-name="Trazado 873947" d="M37.2,28.72H32.173L27.7,32.349H37.2a.642.642,0,0,0,.643-.642V29.362A.643.643,0,0,0,37.2,28.72Z" fill="#c96e59"/>
              </g>
              <g id="Grupo_1099794" data-name="Grupo 1099794">
                <path id="Trazado_873948" data-name="Trazado 873948" d="M22.67,30.566H14.718v1.14a.642.642,0,0,0,.642.642h9.508Z" fill="#bb5d4c"/>
                <path id="Trazado_873949" data-name="Trazado 873949" d="M37.2,28.72H34.312v1.2a.642.642,0,0,1-.643.642H29.894l-2.2,1.782H37.2a.642.642,0,0,0,.643-.642V29.362A.642.642,0,0,0,37.2,28.72Z" fill="#bb5d4c"/>
              </g>
              <path id="Trazado_873950" data-name="Trazado 873950" d="M25.368,32.914a1.451,1.451,0,0,0,1.828,0l5.175-4.194H20.193Z" fill="#ffe177"/>
              <path id="Trazado_873951" data-name="Trazado 873951" d="M28.686,28.72,24.44,32.161l.929.753a1.451,1.451,0,0,0,1.828,0l5.175-4.194H28.686Z" fill="#ffd15b"/>
              <path id="Trazado_873952" data-name="Trazado 873952" d="M16.9,24.506H35.669c.065,0,.129,0,.193.01v-.15a9.58,9.58,0,0,0-9.58-9.58h0a9.58,9.58,0,0,0-9.58,9.58v.15C16.766,24.509,16.83,24.506,16.9,24.506Z" fill="#feb237"/>
              <path id="Trazado_873953" data-name="Trazado 873953" d="M28.008,14.944A9.568,9.568,0,0,1,30.646,19.5a1.876,1.876,0,0,1-1.82,2.33H17.044a9.586,9.586,0,0,0-.342,2.536v.15c.063-.006.128-.01.193-.01H35.669c.065,0,.129,0,.193.01v-.15A9.58,9.58,0,0,0,28.008,14.944Z" fill="#eca026"/>
            </g>
            <g id="Grupo_1099796" data-name="Grupo 1099796">
              <path id="Trazado_873954" data-name="Trazado 873954" d="M47.453,1.869l.7,1.414a1.67,1.67,0,0,0,2.035.843l1.493-.506A1.67,1.67,0,0,1,53.8,5.737L53.289,7.23a1.67,1.67,0,0,0,.843,2.035l1.414.7a1.67,1.67,0,0,1,0,3l-1.414.7a1.67,1.67,0,0,0-.843,2.035l.507,1.493A1.67,1.67,0,0,1,51.677,19.3l-1.493-.507a1.67,1.67,0,0,0-2.035.843l-.7,1.414a1.67,1.67,0,0,1-3,0l-.7-1.414a1.67,1.67,0,0,0-2.035-.843l-1.493.507a1.67,1.67,0,0,1-2.118-2.118l.507-1.493a1.67,1.67,0,0,0-.843-2.035l-1.414-.7a1.67,1.67,0,0,1,0-3l1.414-.7A1.67,1.67,0,0,0,38.62,7.23l-.507-1.493a1.67,1.67,0,0,1,2.118-2.118l1.493.506a1.67,1.67,0,0,0,2.035-.843l.7-1.414A1.67,1.67,0,0,1,47.453,1.869Z" fill="#fe76a8"/>
              <path id="Trazado_873955" data-name="Trazado 873955" d="M55.546,9.962l-1.414-.7a1.67,1.67,0,0,1-.843-2.035L53.8,5.737a1.67,1.67,0,0,0-2.118-2.118l-1.493.506a1.661,1.661,0,0,1-.331.075A8.751,8.751,0,0,1,38.625,15.673c0,.006,0,.012-.005.017l-.507,1.493A1.67,1.67,0,0,0,40.232,19.3l1.493-.507a1.67,1.67,0,0,1,2.035.843l.7,1.414a1.67,1.67,0,0,0,3,0l.7-1.414a1.67,1.67,0,0,1,2.035-.843l1.493.507A1.67,1.67,0,0,0,53.8,17.183l-.507-1.493a1.67,1.67,0,0,1,.843-2.035l1.414-.7A1.67,1.67,0,0,0,55.546,9.962Z" fill="#fe5694"/>
            </g>
          </g>
          <path id="Trazado_873956" data-name="Trazado 873956" d="M35.669,24.365H16.9a2.177,2.177,0,0,0-2.177,2.177h0A2.177,2.177,0,0,0,16.9,28.72H35.669a2.177,2.177,0,0,0,2.177-2.177h0A2.177,2.177,0,0,0,35.669,24.365Z" fill="#05e39c"/>
          <path id="Trazado_873957" data-name="Trazado 873957" d="M35.669,24.365H33.875A2.176,2.176,0,0,1,31.7,26.479H14.721c0,.021,0,.042,0,.063A2.177,2.177,0,0,0,16.9,28.72H35.669a2.177,2.177,0,1,0,0-4.354Z" fill="#0ed290"/>
        </g>
        <g id="Grupo_1099802" data-name="Grupo 1099802">
          <path id="Trazado_873958" data-name="Trazado 873958" d="M7.523,52.526v9.911a.625.625,0,0,0,.625.625H12.68a.625.625,0,0,0,.625-.625V52.526Z" fill="none" stroke="#000" stroke-linecap="round" stroke-linejoin="round" stroke-miterlimit="10" stroke-width="1.875"/>
          <path id="Trazado_873959" data-name="Trazado 873959" d="M39.26,59.75v2.687a.625.625,0,0,0,.625.625h4.532a.625.625,0,0,0,.625-.625V52.526H39.26v2.849" fill="none" stroke="#000" stroke-linecap="round" stroke-linejoin="round" stroke-miterlimit="10" stroke-width="1.875"/>
          <path id="Trazado_873960" data-name="Trazado 873960" d="M38.338,6.4H10.023a2.5,2.5,0,0,0-2.5,2.5v8.227" fill="none" stroke="#000" stroke-linecap="round" stroke-linejoin="round" stroke-miterlimit="10" stroke-width="1.875"/>
          <path id="Trazado_873961" data-name="Trazado 873961" d="M7.523,21.5V52.526H45.042V21.715" fill="none" stroke="#000" stroke-linecap="round" stroke-linejoin="round" stroke-miterlimit="10" stroke-width="1.875"/>
          <path id="Trazado_873962" data-name="Trazado 873962" d="M16.7,32.349v.887A4.194,4.194,0,0,0,20.9,37.429H24" fill="none" stroke="#000" stroke-linecap="round" stroke-linejoin="round" stroke-miterlimit="10" stroke-width="1.875"/>
          <path id="Trazado_873963" data-name="Trazado 873963" d="M28.375,37.429h3.293a4.194,4.194,0,0,0,4.194-4.193v-.887" fill="none" stroke="#000" stroke-linecap="round" stroke-linejoin="round" stroke-miterlimit="10" stroke-width="1.875"/>
          <g id="Grupo_1099799" data-name="Grupo 1099799">
            <path id="Trazado_873964" data-name="Trazado 873964" d="M20.193,28.72H15.36a.642.642,0,0,0-.642.642v2.344a.642.642,0,0,0,.642.642h9.31Z" fill="none" stroke="#000" stroke-linecap="round" stroke-linejoin="round" stroke-miterlimit="10" stroke-width="1.875"/>
            <path id="Trazado_873965" data-name="Trazado 873965" d="M37.2,28.72H32.371l-4.477,3.629H37.2a.642.642,0,0,0,.643-.642V29.362A.643.643,0,0,0,37.2,28.72Z" fill="none" stroke="#000" stroke-linecap="round" stroke-linejoin="round" stroke-miterlimit="10" stroke-width="1.875"/>
          </g>
          <path id="Trazado_873966" data-name="Trazado 873966" d="M35.862,24.375v-.01a9.58,9.58,0,0,0-19.159,0v.01" fill="none" stroke="#000" stroke-linecap="round" stroke-linejoin="round" stroke-miterlimit="10" stroke-width="1.875"/>
          <line id="Línea_1578" data-name="Línea 1578" x2="0.28" transform="translate(26.142 17.969)" fill="none" stroke="#000" stroke-linecap="round" stroke-linejoin="round" stroke-miterlimit="10" stroke-width="1.875"/>
          <g id="Grupo_1099800" data-name="Grupo 1099800">
            <line id="Línea_1579" data-name="Línea 1579" x2="0.28" transform="translate(22.427 19.791)" fill="none" stroke="#000" stroke-linecap="round" stroke-linejoin="round" stroke-miterlimit="10" stroke-width="1.875"/>
            <line id="Línea_1580" data-name="Línea 1580" x2="0.28" transform="translate(29.856 19.791)" fill="none" stroke="#000" stroke-linecap="round" stroke-linejoin="round" stroke-miterlimit="10" stroke-width="1.875"/>
          </g>
          <g id="Grupo_1099801" data-name="Grupo 1099801">
            <line id="Línea_1581" data-name="Línea 1581" x2="6.681" transform="translate(42.614 11.46)" fill="none" stroke="#000" stroke-linecap="round" stroke-linejoin="round" stroke-miterlimit="10" stroke-width="1.875"/>
            <line id="Línea_1582" data-name="Línea 1582" x2="6.681" transform="translate(42.614 14.672)" fill="none" stroke="#000" stroke-linecap="round" stroke-linejoin="round" stroke-miterlimit="10" stroke-width="1.875"/>
            <line id="Línea_1583" data-name="Línea 1583" x2="3.469" transform="translate(42.614 8.248)" fill="none" stroke="#000" stroke-linecap="round" stroke-linejoin="round" stroke-miterlimit="10" stroke-width="1.875"/>
          </g>
          <path id="Trazado_873967" data-name="Trazado 873967" d="M37.332,47.322h-22.1a.642.642,0,0,1-.642-.643V42.825a.642.642,0,0,1,.642-.643h22.1a.642.642,0,0,1,.643.643V46.68A.642.642,0,0,1,37.332,47.322Z" fill="none" stroke="#000" stroke-linecap="round" stroke-linejoin="round" stroke-miterlimit="10" stroke-width="1.875"/>
          <path id="Trazado_873968" data-name="Trazado 873968" d="M47.453,1.869l.7,1.414a1.67,1.67,0,0,0,2.035.843l1.493-.506A1.67,1.67,0,0,1,53.8,5.737L53.289,7.23a1.67,1.67,0,0,0,.843,2.035l1.414.7a1.67,1.67,0,0,1,0,3l-1.414.7a1.67,1.67,0,0,0-.843,2.035l.507,1.493A1.67,1.67,0,0,1,51.677,19.3l-1.493-.507a1.67,1.67,0,0,0-2.035.843l-.7,1.414a1.67,1.67,0,0,1-3,0l-.7-1.414a1.67,1.67,0,0,0-2.035-.843l-1.493.507a1.67,1.67,0,0,1-2.118-2.118l.507-1.493a1.67,1.67,0,0,0-.843-2.035l-1.414-.7a1.67,1.67,0,0,1,0-3l1.414-.7A1.67,1.67,0,0,0,38.62,7.23l-.507-1.493a1.67,1.67,0,0,1,2.118-2.118l1.493.506a1.67,1.67,0,0,0,2.035-.843l.7-1.414A1.67,1.67,0,0,1,47.453,1.869Z" fill="none" stroke="#000" stroke-linecap="round" stroke-linejoin="round" stroke-miterlimit="10" stroke-width="1.875"/>
          <path id="Trazado_873969" data-name="Trazado 873969" d="M25.368,32.914a1.451,1.451,0,0,0,1.828,0l5.175-4.194H20.193Z" fill="none" stroke="#000" stroke-linecap="round" stroke-linejoin="round" stroke-miterlimit="10" stroke-width="1.875"/>
          <path id="Trazado_873970" data-name="Trazado 873970" d="M35.669,24.365H16.9a2.177,2.177,0,0,0-2.177,2.177h0A2.177,2.177,0,0,0,16.9,28.72H35.669a2.177,2.177,0,0,0,2.177-2.177h0A2.177,2.177,0,0,0,35.669,24.365Z" fill="none" stroke="#000" stroke-linecap="round" stroke-linejoin="round" stroke-miterlimit="10" stroke-width="1.875"/>
        </g>
      </g>
    </g>
  </g>
</svg>
