<svg xmlns="http://www.w3.org/2000/svg" xmlns:xlink="http://www.w3.org/1999/xlink" width="157.636" height="133.933" viewBox="0 0 157.636 133.933">
  <defs>
    <clipPath id="clip-path">
      <rect id="Rectángulo_401473" data-name="Rectángulo 401473" width="144.743" height="94.693" fill="none" style="mix-blend-mode: multiply;isolation: isolate"/>
    </clipPath>
  </defs>
  <g id="Grupo_1099831" data-name="Grupo 1099831" transform="translate(-881.505 -1970.535)">
    <path id="_12068" data-name="12068" d="M103.949,72.366C89.64,70.39,74.525,70.874,61.5,77.128,43.447,85.8,31.588,105.464,31.133,125.491s9.978,39.705,26.1,51.6S94.6,193.2,114.312,189.632c19.875-3.6,38.53-15.279,48.9-32.614,6.648-11.116,9.755-24.842,6.082-37.264-2.217-7.5-6.75-14.14-12.082-19.858A89.263,89.263,0,0,0,103.949,72.366Z" transform="translate(855.019 1913.606)" fill="#ffd947"/>
    <g id="Grupo_1099547" data-name="Grupo 1099547" transform="translate(830.641 2232.499) rotate(-90)">
      <path id="Trazado_873104" data-name="Trazado 873104" d="M149.557,395.548a1.582,1.582,0,1,0-.106-2.456A1.573,1.573,0,0,0,149.557,395.548Z" transform="translate(13.93 -213.31)" fill="#fff"/>
      <path id="Trazado_873105" data-name="Trazado 873105" d="M417.219,416a1.582,1.582,0,1,0-.105-2.456A1.573,1.573,0,0,0,417.219,416Z" transform="translate(-222.435 -227.035)" fill="#ffd947"/>
      <path id="Trazado_873106" data-name="Trazado 873106" d="M303.26,44.546a1.582,1.582,0,1,0-.106-2.456A1.573,1.573,0,0,0,303.26,44.546Z" transform="translate(-52.901 9.151)" fill="#7d6eb2"/>
      <path id="Trazado_873109" data-name="Trazado 873109" d="M339.452,404.413a3.448,3.448,0,1,0-1.687-4.918A3.468,3.468,0,0,0,339.452,404.413Z" transform="translate(-82.207 -231.255)" fill="#7d6eb2"/>
      <path id="Trazado_873110" data-name="Trazado 873110" d="M390.262,440.006a3.448,3.448,0,1,0-1.687-4.918A3.468,3.468,0,0,0,390.262,440.006Z" transform="translate(-181.42 -237.38)" fill="#ffd947"/>
      <path id="Trazado_873111" data-name="Trazado 873111" d="M176.115,56.142a3.448,3.448,0,1,0-1.687-4.918A3.468,3.468,0,0,0,176.115,56.142Z" transform="translate(-32.569 42.202)" fill="#ffd947"/>
      <path id="Trazado_873113" data-name="Trazado 873113" d="M321.56,66.974a3.448,3.448,0,1,0-1.687-4.918A3.468,3.468,0,0,0,321.56,66.974Z" transform="translate(-76.565 -0.895)" fill="#ffd947"/>
      <circle id="Elipse_11485" data-name="Elipse 11485" cx="1.689" cy="1.689" r="1.689" transform="translate(149.167 187.566)" fill="none" stroke="#26aab7" stroke-linecap="round" stroke-linejoin="round" stroke-width="1.5"/>
    </g>
    <g id="Grupo_1099815" data-name="Grupo 1099815" transform="translate(894.398 1993.482)">
      <g id="Grupo_1099814" data-name="Grupo 1099814" clip-path="url(#clip-path)">
        <path id="Trazado_874001" data-name="Trazado 874001" d="M158.828,111.595l15.2-11.587h-23.47l-.853,14.545-17-9.532a80.943,80.943,0,0,0-1.941-18.511C121.7,48.938,84.717,59.033,59.174,58.868c-3.242-.021-6.671.016-9.448,1.974-2.376,1.675-3.941,4.535-5.277,7.381a96.074,96.074,0,0,0-8.832,36.332c-.391,8.819.758,18.572,6.336,24.521,3.125,3.333,7.252,5.031,11.308,6.432a122.308,122.308,0,0,0,61.466,4.879c5.488-.981,11.45-2.721,14.678-8.005a20.224,20.224,0,0,0,2.517-7.936l27.578,3.494Z" transform="translate(-29.286 -47.58)" fill="#c7c9cb" style="mix-blend-mode: multiply;isolation: isolate"/>
        <path id="Trazado_874002" data-name="Trazado 874002" d="M123.28,53.841l15.2-11.587H115.01L114.157,56.8l-17-9.532a80.944,80.944,0,0,0-1.941-18.511C86.148-8.816,49.169,1.279,23.626,1.115c-3.242-.021-6.671.016-9.448,1.974C11.8,4.764,10.237,7.624,8.9,10.469A96.071,96.071,0,0,0,.069,46.8C-.322,55.621.827,65.374,6.4,71.323c3.125,3.333,7.252,5.031,11.308,6.432a122.306,122.306,0,0,0,61.466,4.879c5.488-.981,11.45-2.721,14.678-8a20.221,20.221,0,0,0,2.517-7.936l27.578,3.495Z" transform="translate(0 0)" fill="#2caf9a"/>
        <path id="Trazado_874003" data-name="Trazado 874003" d="M119.17,155.109l7.654-1.549q-.09,1.372-.089,3.893,0,6.017.4,10.573a23.7,23.7,0,0,0,.664,4.2l3.008-17.254,7.61-1.416a220.079,220.079,0,0,0-6.017,30.747l-6.99,1.947q-.045-.088-.575-1.549l-2.3-6.548a19.613,19.613,0,0,1-.664-2.035q-.929,5.221-1.46,10.131l-7.078,2.124Z" transform="translate(-93.366 -126.51)" fill="#fff"/>
        <path id="Trazado_874004" data-name="Trazado 874004" d="M249.909,142.51q4.689,0,6.636,5.22a16.688,16.688,0,0,1,1.017,5.928,27.233,27.233,0,0,1-.929,6.725A31.876,31.876,0,0,1,250.97,171.8q-4.911,6.371-10.4,6.371-4.735,0-6.725-5.22a16.124,16.124,0,0,1-.973-5.752,26.729,26.729,0,0,1,.973-6.813,32.2,32.2,0,0,1,5.618-11.458q4.911-6.415,10.441-6.415m-1.593,10.971q-2.434,0-4.955,3.982a21.509,21.509,0,0,0-2.831,6.15,11.977,11.977,0,0,0-.4,2.875,4.72,4.72,0,0,0,.885,2.965,3.409,3.409,0,0,0,2.831,1.283,5.634,5.634,0,0,0,4.468-2.61,13.259,13.259,0,0,0,2.3-4.911,16.451,16.451,0,0,0,.354-6.547q-.531-3.185-2.654-3.186" transform="translate(-191.854 -117.406)" fill="#fff"/>
        <path id="Trazado_874005" data-name="Trazado 874005" d="M361.482,169.273a4.264,4.264,0,0,1,2.743.442,2.33,2.33,0,0,1,1.416,2.212,4.736,4.736,0,0,1-2.168,3.716,7.434,7.434,0,0,1-3.672,1.593,4.611,4.611,0,0,1-2.743-.354,2.335,2.335,0,0,1-1.371-2.212,4.9,4.9,0,0,1,2.079-3.761,7.286,7.286,0,0,1,3.716-1.637m5-27.518,9.246,1.549q-3.672,6.593-5.4,10.308a87.364,87.364,0,0,0-4.159,11.016l-6.149-.265Z" transform="translate(-293.031 -116.784)" fill="#fff"/>
      </g>
    </g>
  </g>
</svg>
