<svg id="Grupo_1099671" data-name="Grupo 1099671" xmlns="http://www.w3.org/2000/svg" xmlns:xlink="http://www.w3.org/1999/xlink" width="189.647" height="424.938" viewBox="0 0 189.647 424.938">
  <defs>
    <clipPath id="clip-path">
      <rect id="Rectángulo_401440" data-name="Rectángulo 401440" width="189.647" height="424.938" fill="none"/>
    </clipPath>
    <clipPath id="clip-path-5">
      <rect id="Rectángulo_401430" data-name="Rectángulo 401430" width="7.026" height="8.684" fill="none"/>
    </clipPath>
    <clipPath id="clip-path-6">
      <rect id="Rectángulo_401431" data-name="Rectángulo 401431" width="31.868" height="15.743" fill="none"/>
    </clipPath>
    <clipPath id="clip-path-7">
      <rect id="Rectángulo_401432" data-name="Rectángulo 401432" width="6.847" height="9.143" fill="none"/>
    </clipPath>
    <clipPath id="clip-path-8">
      <rect id="Rectángulo_401433" data-name="Rectángulo 401433" width="29.724" height="19.575" fill="none"/>
    </clipPath>
    <clipPath id="clip-path-9">
      <rect id="Rectángulo_401434" data-name="Rectángulo 401434" width="18.736" height="13.376" fill="none"/>
    </clipPath>
    <clipPath id="clip-path-10">
      <rect id="Rectángulo_401435" data-name="Rectángulo 401435" width="3.14" height="3.384" fill="none"/>
    </clipPath>
    <clipPath id="clip-path-11">
      <rect id="Rectángulo_401436" data-name="Rectángulo 401436" width="3.695" height="3.811" fill="none"/>
    </clipPath>
    <clipPath id="clip-path-12">
      <rect id="Rectángulo_401437" data-name="Rectángulo 401437" width="18.98" height="16.347" fill="none"/>
    </clipPath>
    <clipPath id="clip-path-13">
      <rect id="Rectángulo_401438" data-name="Rectángulo 401438" width="42.117" height="45.276" fill="none"/>
    </clipPath>
  </defs>
  <g id="Grupo_1099670" data-name="Grupo 1099670" clip-path="url(#clip-path)">
    <rect id="Rectángulo_401423" data-name="Rectángulo 401423" width="89.149" height="63.891" transform="matrix(0.004, -1, 1, 0.004, 4.712, 141.282)" fill="#f5f5f5"/>
    <g id="Grupo_1099638" data-name="Grupo 1099638">
      <g id="Grupo_1099637" data-name="Grupo 1099637" clip-path="url(#clip-path)">
        <path id="Trazado_873670" data-name="Trazado 873670" d="M18.765,112.425a1.708,1.708,0,0,1,.248-.013l.7-.013,2.712-.027,10.182-.05-.147.147c-.023-4.5-.051-10.079-.084-16.467v-.2l.2,0,9.963-.178.227,0,0,.227c.1,5.082.217,10.68.337,16.578l-.251-.248,14.2.1-.267.272c-.127-4.822-.258-9.847-.393-14.977-.1-3.878-.2-7.7-.294-11.426l.1.2L36.4,71.072l.312-.012L18.459,87.587l.062-.144c.091,7.682.163,13.9.214,18.228.018,2.145.031,3.82.039,4.987,0,.555,0,.988,0,1.308a4.409,4.409,0,0,1-.011.459,3.231,3.231,0,0,1-.027-.421c-.01-.311-.025-.734-.043-1.273l-.132-4.944c-.1-4.354-.243-10.611-.419-18.339l0-.085.064-.059L36.387,70.7l.15-.137.162.124L56.535,85.92l.1.077,0,.127c.1,3.731.2,7.548.3,11.426.132,5.13.261,10.155.385,14.977l.006.274-.274,0-14.2-.12-.247,0,0-.247c-.1-5.9-.2-11.5-.285-16.579l.23.223-9.964.131.2-.2c-.013,6.388-.025,11.963-.034,16.467v.148H32.61L22.343,112.5l-2.679-.043-.679-.017a1.18,1.18,0,0,1-.22-.015" transform="translate(0.602 2.341)" fill="#263238"/>
        <path id="Trazado_873671" data-name="Trazado 873671" d="M8.6,53.2s.331-.011,1-.011l2.957.01,11.348.079,41.247.373h.214v.215c.013,22.673.031,51.029.05,81.735v.268l-.268,0-.422,0-55.953.339H8.524v-.247c0-24.42,0-45.134,0-59.762.013-7.273.024-13.027.031-16.987.009-1.951.017-3.454.021-4.49.005-.495.009-.874.012-1.148,0-.256.013-.379.013-.379s.01.143.015.408c0,.281.009.669.017,1.175.009,1.049.022,2.568.039,4.541.023,3.972.057,9.746.1,17.042.059,14.587.144,35.246.242,59.6l-.247-.246,55.952-.383.423,0-.268.269c.021-30.706.04-59.062.056-81.735l.214.216-41.108-.6-11.4-.189-3-.06C8.964,53.219,8.6,53.2,8.6,53.2" transform="translate(0.283 1.765)" fill="#263238"/>
        <path id="Trazado_873672" data-name="Trazado 873672" d="M55.779,47.492l13.45,13.349,2.359-3.049L58.051,45.663Z" transform="translate(1.851 1.515)" fill="#455a64"/>
        <path id="Trazado_873673" data-name="Trazado 873673" d="M0,129.256,13.45,142.6l2.359-3.049L2.272,127.426Z" transform="translate(0 4.228)" fill="#455a64"/>
        <path id="Trazado_873674" data-name="Trazado 873674" d="M63.993,128.97a24.079,24.079,0,0,1-3.612.218c-2.232.066-5.316.12-8.721.147-3.181.025-6.08.021-8.239-.005l.2-.208c.023,1.265.031,2.29.023,3a4.063,4.063,0,0,1-.07,1.1,4.18,4.18,0,0,1-.152-1.1c-.06-.707-.128-1.73-.2-2.991l-.011-.2.21-.006c2.157-.06,5.056-.108,8.238-.133,3.405-.026,6.489-.02,8.722.011a24,24,0,0,1,3.615.162" transform="translate(1.434 4.273)" fill="#263238"/>
        <rect id="Rectángulo_401424" data-name="Rectángulo 401424" width="44.703" height="62.374" transform="translate(105.636 77.461) rotate(-11.868)" fill="#ebebeb"/>
        <path id="Trazado_873675" data-name="Trazado 873675" d="M120.739,115.424a1.022,1.022,0,0,1,.17-.051l.482-.118,1.854-.427,6.942-1.546-.113.173c-.682-3.083-1.523-6.89-2.486-11.249l-.043-.2.2-.046,6.789-1.587.22-.052.053.221c.817,3.463,1.717,7.276,2.666,11.292l-.3-.19,9.727-2.018-.2.322-2.464-10.189c-.635-2.638-1.262-5.235-1.874-7.774l.145.178-15.786-7.553.3-.077L116.938,98.508l.031-.153c1.17,5.224,2.117,9.46,2.782,12.43.317,1.455.566,2.6.745,3.416l.188.9a2.191,2.191,0,0,1,.055.322,1.453,1.453,0,0,1-.085-.277l-.22-.859c-.2-.8-.475-1.925-.828-3.354-.719-2.985-1.743-7.243-3.008-12.494l-.02-.083.051-.071,9.994-14.034.119-.166.185.088,15.8,7.511.115.055.03.124c.614,2.537,1.241,5.135,1.878,7.773l2.456,10.19.064.268-.269.055-9.732,1.994-.242.05-.056-.241c-.931-4.02-1.814-7.837-2.616-11.3l.273.169-6.8,1.543.154-.243c.918,4.369,1.721,8.185,2.371,11.275l.031.145-.144.029-7.058,1.405-1.837.351a4.783,4.783,0,0,1-.614.1" transform="translate(3.868 2.79)" fill="#263238"/>
        <path id="Trazado_873676" data-name="Trazado 873676" d="M105.186,76.563s.219-.06.672-.159l2.017-.432,7.765-1.623,28.287-5.824.209-.043.045.211C147.517,84.2,151.687,103.6,156.2,124.6l.057.261-.261.058-.288.063-38.234,8.42-.242.053-.052-.242C113.62,116.5,110.6,102.324,108.46,92.3c-1.045-4.965-1.873-8.9-2.445-11.621-.274-1.324-.486-2.35-.634-3.071-.065-.33-.116-.587-.154-.783a1.577,1.577,0,0,1-.041-.258,2.624,2.624,0,0,1,.075.28c.048.2.11.466.188.8.165.728.4,1.768.7,3.106.605,2.728,1.481,6.672,2.586,11.649,2.187,9.976,5.28,24.082,8.926,40.709l-.293-.189,38.222-8.464.288-.064-.2.319C151.2,103.7,147.065,84.3,143.759,68.782l.254.167-28.2,5.574-7.835,1.524-2.067.393c-.47.087-.725.123-.725.123" transform="translate(3.49 2.272)" fill="#263238"/>
        <path id="Trazado_873677" data-name="Trazado 873677" d="M136.62,65.5l11.157,7.163,1.167-2.432-11.038-6.316Z" transform="translate(4.533 2.121)" fill="#455a64"/>
        <path id="Trazado_873678" data-name="Trazado 873678" d="M110.434,129.609l11.157,7.163,1.167-2.432-11.038-6.316Z" transform="translate(3.664 4.248)" fill="#455a64"/>
        <path id="Trazado_873679" data-name="Trazado 873679" d="M154.184,120.124a11.855,11.855,0,0,1-2.427.735c-1.514.386-3.614.883-5.94,1.4-2.173.482-4.159.9-5.642,1.183l.15-.244a14.194,14.194,0,0,1,.51,2.829,14.272,14.272,0,0,1-.9-2.731l-.055-.192.2-.052c1.465-.37,3.439-.836,5.612-1.318,2.326-.517,4.439-.956,5.975-1.247a11.867,11.867,0,0,1,2.509-.363" transform="translate(4.641 3.985)" fill="#263238"/>
        <rect id="Rectángulo_401425" data-name="Rectángulo 401425" width="38.425" height="53.615" transform="translate(110.865 39.908) rotate(-80.565)" fill="#ebebeb"/>
        <path id="Trazado_873680" data-name="Trazado 873680" d="M126.192,34.232a3.372,3.372,0,0,1,.466.036l1.29.148,4.784.6-.164.124c.277-2.14.618-4.766,1.007-7.767l.026-.2.2.024,4.707.556.224.027-.026.226c-.28,2.4-.589,5.049-.913,7.834l-.214-.28,6.683.968-.3.232c.255-2.28.521-4.657.792-7.082.207-1.833.411-3.638.61-5.4l.075.217-8.324-8.5.311.031-9.7,6.568.082-.134c-.477,3.579-.865,6.49-1.142,8.566q-.209,1.478-.334,2.36a8.1,8.1,0,0,1-.144.848,5.746,5.746,0,0,1,.055-.786q.088-.873.236-2.33c.23-2.109.554-5.067.952-8.7l.009-.084.072-.05,9.636-6.658.167-.116.144.146,8.357,8.467.089.09-.014.127c-.2,1.764-.4,3.569-.605,5.4-.274,2.425-.542,4.8-.8,7.08l-.031.273-.271-.04-6.68-.991-.245-.037.03-.244c.342-2.782.667-5.425.963-7.827l.2.252-4.7-.6.227-.175c-.434,3-.814,5.615-1.124,7.751l-.021.148-.144-.023-4.846-.77L126.6,34.32a2.111,2.111,0,0,1-.406-.088" transform="translate(4.187 0.514)" fill="#263238"/>
        <path id="Trazado_873681" data-name="Trazado 873681" d="M109.289,37.77s.018-.192.079-.585q.1-.631.28-1.748c.261-1.573.637-3.838,1.117-6.724,1-5.875,2.423-14.272,4.155-24.484l.036-.211.212.035L163.7,11.878l.263.042-.041.264-.039.251c-1.854,11.853-3.615,23.119-5.2,33.247l-.039.246-.244-.04-35.5-5.812L112.832,38.4l-2.652-.456-.674-.122a1.185,1.185,0,0,1-.217-.05,1.885,1.885,0,0,1,.25.026l.706.1,2.711.4L123.1,39.857l35.38,5.546-.282.2c1.57-10.129,3.317-21.4,5.155-33.254l.039-.251.222.307L115.1,4.48l.248-.177c-1.817,10.14-3.311,18.478-4.356,24.312-.53,2.9-.945,5.173-1.235,6.753-.143.759-.254,1.351-.335,1.78-.079.4-.132.622-.132.622" transform="translate(3.626 0.133)" fill="#263238"/>
        <path id="Trazado_873682" data-name="Trazado 873682" d="M110.44,8.392l9.22-6.7L118.078,0l-8.506,6.868Z" transform="translate(3.636 0)" fill="#455a64"/>
        <path id="Trazado_873683" data-name="Trazado 873683" d="M153.6,49.384l9.22-6.7-1.582-1.693-8.506,6.868Z" transform="translate(5.068 1.36)" fill="#455a64"/>
        <path id="Trazado_873684" data-name="Trazado 873684" d="M159.607,11.5a51.387,51.387,0,0,1-.866,7.373c-.292,1.891-.584,3.61-.824,4.887l-.173-.229a10.553,10.553,0,0,1,2.421.5,10.628,10.628,0,0,1-2.47-.106l-.2-.019.026-.21c.155-1.289.4-3.017.687-4.908a51.4,51.4,0,0,1,1.4-7.291" transform="translate(5.226 0.381)" fill="#263238"/>
      </g>
    </g>
    <g id="Grupo_1099640" data-name="Grupo 1099640">
      <g id="Grupo_1099639" data-name="Grupo 1099639" clip-path="url(#clip-path)">
        <path id="Trazado_873685" data-name="Trazado 873685" d="M17.683,219.959c-.182,1.018,0,160.72,0,160.72H10.595V219.959Z" transform="translate(0.352 7.298)" fill="#455a64"/>
        <path id="Trazado_873686" data-name="Trazado 873686" d="M136.439,233.549c-.182,1.018,0,146.393,0,146.393h-7.088V233.549Z" transform="translate(4.292 7.749)" fill="#455a64"/>
        <path id="Trazado_873687" data-name="Trazado 873687" d="M170.947,207.732c-.182,1.018,0,173.067,0,173.067h-7.088V207.732Z" transform="translate(5.437 6.892)" fill="#455a64"/>
        <path id="Trazado_873688" data-name="Trazado 873688" d="M168.445,161.9c.574-.958,0,51.981,0,51.981l-6.535,1.005,1.551-52.346Z" transform="translate(5.372 5.371)" fill="#455a64"/>
        <path id="Trazado_873689" data-name="Trazado 873689" d="M136.624,240.114c-.488,1.47,52.7-97.316,52.7-97.316l-.979-4.459L59.017,130.867,9.811,224.444Z" transform="translate(0.326 4.342)" fill="#263238"/>
        <path id="Trazado_873690" data-name="Trazado 873690" d="M136.153,236.751c-.129-2.48,52.251-98.617,52.251-98.617L56.368,126.017l-48.4,94.746Z" transform="translate(0.264 4.181)" fill="#455a64"/>
        <path id="Trazado_873691" data-name="Trazado 873691" d="M73.419,209.67l45.524,4.751,29.183-73.729-65.469-8.06-32.806,74.1Z" transform="translate(1.654 4.401)" fill="#f5f5f5"/>
        <path id="Trazado_873692" data-name="Trazado 873692" d="M113.931,150.868a6.828,6.828,0,0,1,1.08.289,10.872,10.872,0,0,1,2.853,1.468,12.485,12.485,0,0,1,3.459,3.713,11.274,11.274,0,0,1,1.67,6.487,12.731,12.731,0,0,1-3,7.535,10.4,10.4,0,0,1-3.624,2.805c-1.431.667-2.963,1.154-4.508,1.7-.772.272-1.55.553-2.318.871-.384.158-.764.332-1.141.514l-.555.29a2.515,2.515,0,0,0-.432.368,8.921,8.921,0,0,0-1.447,2.06c-.4.74-.62,1.609-1.048,2.433a4.792,4.792,0,0,1-1.847,2.128,4.975,4.975,0,0,1-2.831.4l-5.581-.653c-.943-.123-1.877-.26-2.808-.443a5.788,5.788,0,0,1-2.664-1.15,1.649,1.649,0,0,1-.562-1.461,5.136,5.136,0,0,1,.511-1.353c.408-.823.845-1.613,1.277-2.4s.854-1.556,1.276-2.324l.3-.578.147-.288a.563.563,0,0,0,.055-.221,4.227,4.227,0,0,0-.173-1.192c-.423-1.641-1.005-3.238-1.33-4.87a12.545,12.545,0,0,1,1.869-9.079,15.689,15.689,0,0,1,5.949-5.545,19.18,19.18,0,0,1,6.382-2.116,21.1,21.1,0,0,1,5.077.005c1.383.153,2.447.34,3.168.462l.817.155a1.132,1.132,0,0,1,.276.071,1.113,1.113,0,0,1-.284-.018l-.826-.1c-.725-.086-1.793-.241-3.172-.36a21.56,21.56,0,0,0-5.014.084,19.1,19.1,0,0,0-6.245,2.154,15.369,15.369,0,0,0-5.75,5.445,12.108,12.108,0,0,0-1.763,8.743c.321,1.589.9,3.163,1.343,4.847a4.575,4.575,0,0,1,.189,1.363,1.126,1.126,0,0,1-.105.406l-.149.293-.3.586-1.274,2.334c-.429.782-.864,1.57-1.26,2.374a4.871,4.871,0,0,0-.462,1.192,1.109,1.109,0,0,0,.4,1,5.325,5.325,0,0,0,2.406,1.015c.905.178,1.835.315,2.77.437l5.559.653a4.471,4.471,0,0,0,2.53-.333,4.28,4.28,0,0,0,1.63-1.9c.4-.759.623-1.627,1.056-2.435a9.367,9.367,0,0,1,1.545-2.18,2.879,2.879,0,0,1,.549-.457l.579-.3c.39-.186.78-.363,1.173-.523.785-.321,1.573-.6,2.349-.872,1.55-.54,3.078-1.02,4.471-1.66a9.945,9.945,0,0,0,3.484-2.666,12.37,12.37,0,0,0,2.96-7.265,11.012,11.012,0,0,0-1.548-6.314,12.511,12.511,0,0,0-3.323-3.7,11.588,11.588,0,0,0-2.768-1.536c-.678-.264-1.05-.364-1.042-.391" transform="translate(2.94 4.98)" fill="#26aab7"/>
        <path id="Trazado_873693" data-name="Trazado 873693" d="M105.1,179.689a7.686,7.686,0,0,1-.532,1.359c-.371.861-.928,2.1-1.564,3.641-.316.773-.649,1.623-.978,2.549a7.262,7.262,0,0,1-1.553,2.823,6.491,6.491,0,0,1-3.214,1.554,14.052,14.052,0,0,1-7.5-.431,8.567,8.567,0,0,1-3.122-1.7,3.824,3.824,0,0,1-1.3-2.973,6.83,6.83,0,0,1,.961-2.638c.757-1.405,1.389-2.579,1.881-3.494a7.634,7.634,0,0,1,.754-1.249,7.509,7.509,0,0,1-.568,1.344l-1.729,3.573a6.619,6.619,0,0,0-.854,2.489,3.384,3.384,0,0,0,1.19,2.585,8.2,8.2,0,0,0,2.953,1.568,13.822,13.822,0,0,0,7.222.414,6.066,6.066,0,0,0,2.981-1.394,6.942,6.942,0,0,0,1.481-2.623c.349-.924.707-1.775,1.048-2.543.684-1.535,1.295-2.747,1.724-3.581a7.562,7.562,0,0,1,.721-1.269" transform="translate(2.831 5.943)" fill="#26aab7"/>
        <path id="Trazado_873694" data-name="Trazado 873694" d="M103.122,184.213a10.944,10.944,0,0,1-2.434.065c-1.5-.028-3.564-.1-5.845-.22s-4.345-.254-5.837-.38a11.043,11.043,0,0,1-2.415-.314,10.818,10.818,0,0,1,2.427-.065c1.5.027,3.568.1,5.852.221s4.351.253,5.845.38a10.77,10.77,0,0,1,2.407.313" transform="translate(2.873 6.081)" fill="#26aab7"/>
        <path id="Trazado_873695" data-name="Trazado 873695" d="M101.559,187.385a58.5,58.5,0,0,1-7.927.251,58.839,58.839,0,0,1-7.927-.287,58.5,58.5,0,0,1,7.928-.251,58.647,58.647,0,0,1,7.926.287" transform="translate(2.844 6.208)" fill="#26aab7"/>
        <path id="Trazado_873696" data-name="Trazado 873696" d="M95.145,191.221c.06.019-.076.531-.712,1.027a4.225,4.225,0,0,1-2.917.716,4.593,4.593,0,0,1-1.646-.357,1.823,1.823,0,0,1-.992-1.039,1.273,1.273,0,0,1,.018-.967c.105-.21.223-.275.247-.254a1.7,1.7,0,0,0,.087,1.076c.26.634,1.214.968,2.322,1.005a4.534,4.534,0,0,0,2.667-.493c.61-.355.854-.757.927-.713" transform="translate(2.946 6.315)" fill="#26aab7"/>
        <path id="Trazado_873697" data-name="Trazado 873697" d="M97.363,182.7a6.4,6.4,0,0,1,.6-1.2c.482-.843,1.089-1.906,1.813-3.174l2.746-4.671a6.3,6.3,0,0,0,1.212-2.761,2.117,2.117,0,0,0-2.022-1.911,3.754,3.754,0,0,0-2.856,1.226,16.719,16.719,0,0,0-1.895,2.505c-1.121,1.692-2.029,3.281-2.747,4.641s-1.242,2.489-1.6,3.271a7.086,7.086,0,0,1-.6,1.2,5.94,5.94,0,0,1,.4-1.283c.3-.811.781-1.969,1.457-3.363a46.546,46.546,0,0,1,2.671-4.739,16.531,16.531,0,0,1,1.938-2.608,4.251,4.251,0,0,1,3.269-1.39,2.635,2.635,0,0,1,2.508,2.438,3.425,3.425,0,0,1-.5,1.674c-.27.483-.549.913-.812,1.352l-2.846,4.611-1.959,3.086a6.423,6.423,0,0,1-.781,1.093" transform="translate(3.053 5.589)" fill="#26aab7"/>
        <path id="Trazado_873698" data-name="Trazado 873698" d="M99.606,162.669a19.735,19.735,0,0,1,.614,6.464,19.742,19.742,0,0,1-.614-6.464" transform="translate(3.302 5.397)" fill="#26aab7"/>
        <path id="Trazado_873699" data-name="Trazado 873699" d="M99.143,162.106c.06.048.026.2.127.356.114.175.269.242.435.083s.1-.32-.076-.436-.309-.071-.355-.131c-.056-.042.092-.282.464-.233a.684.684,0,0,1,.515.379.744.744,0,0,1-.974.963.687.687,0,0,1-.373-.52c-.044-.372.2-.518.239-.461" transform="translate(3.281 5.366)" fill="#26aab7"/>
        <path id="Trazado_873700" data-name="Trazado 873700" d="M110.082,165.206a12.841,12.841,0,0,1-3.16,2.615,12.858,12.858,0,0,1-3.6,1.962,20.375,20.375,0,0,1,3.3-2.407,20.355,20.355,0,0,1,3.462-2.17" transform="translate(3.428 5.481)" fill="#26aab7"/>
        <path id="Trazado_873701" data-name="Trazado 873701" d="M110.188,164.437c-.053-.043.164-.313.62-.187a.748.748,0,0,1,.512.621.845.845,0,0,1-.474.882.865.865,0,0,1-.979-.2.7.7,0,0,1-.106-.82.472.472,0,0,1,.5-.23c.132.034.165.112.147.139-.028.049-.262.059-.306.257a.333.333,0,0,0,.119.306.407.407,0,0,0,.4.061.383.383,0,0,0,.2-.347.369.369,0,0,0-.173-.317c-.216-.15-.43-.1-.466-.161" transform="translate(3.639 5.449)" fill="#26aab7"/>
        <path id="Trazado_873702" data-name="Trazado 873702" d="M110.425,164.608a26.744,26.744,0,0,1-5.286-.844,26.731,26.731,0,0,1-5.175-1.371,26.772,26.772,0,0,1,5.287.844,26.761,26.761,0,0,1,5.174,1.371" transform="translate(3.317 5.387)" fill="#26aab7"/>
        <path id="Trazado_873703" data-name="Trazado 873703" d="M78.24,176.76c.058.138-.823.637-1.968,1.119a4.949,4.949,0,0,1-2.177.623c-.058-.138.823-.639,1.968-1.12a4.956,4.956,0,0,1,2.177-.622" transform="translate(2.458 5.864)" fill="#263238"/>
        <path id="Trazado_873704" data-name="Trazado 873704" d="M90.62,145.852c.136.06-4.5,10.895-10.362,24.2S69.54,194.09,69.4,194.03s4.5-10.892,10.363-24.2,10.717-24.039,10.854-23.979" transform="translate(2.303 4.839)" fill="#263238"/>
        <path id="Trazado_873705" data-name="Trazado 873705" d="M111.529,147.469c.136.06-4.75,11.454-10.911,25.446s-11.27,25.292-11.405,25.232S93.961,186.7,100.125,172.7s11.268-25.289,11.4-25.229" transform="translate(2.96 4.893)" fill="#263238"/>
        <path id="Trazado_873706" data-name="Trazado 873706" d="M105.412,194.475c-.019.148-8.419-.783-18.763-2.078s-18.716-2.466-18.7-2.614,8.418.782,18.765,2.08,18.714,2.465,18.7,2.612" transform="translate(2.255 6.296)" fill="#263238"/>
        <path id="Trazado_873707" data-name="Trazado 873707" d="M111.029,182.028a7.844,7.844,0,0,1-1.485-.081l-4.025-.417c-3.4-.377-8.082-.933-13.253-1.581s-9.852-1.265-13.235-1.738l-4-.588a7.779,7.779,0,0,1-1.459-.288,7.955,7.955,0,0,1,1.485.081l4.024.418c3.4.376,8.083.933,13.256,1.581s9.849,1.265,13.233,1.737l4,.588a7.886,7.886,0,0,1,1.459.288" transform="translate(2.441 5.883)" fill="#263238"/>
        <path id="Trazado_873708" data-name="Trazado 873708" d="M124.937,152.161a7.842,7.842,0,0,1-1.485-.081l-4.025-.417c-3.4-.377-8.082-.933-13.253-1.581s-9.852-1.265-13.235-1.738l-4-.588a7.775,7.775,0,0,1-1.459-.288,7.956,7.956,0,0,1,1.485.081l4.024.418c3.4.376,8.083.933,13.256,1.581s9.849,1.265,13.233,1.737l4,.588a7.883,7.883,0,0,1,1.459.288" transform="translate(2.902 4.892)" fill="#263238"/>
        <path id="Trazado_873709" data-name="Trazado 873709" d="M91.249,146.557c.073.129-.628.665-1.565,1.2s-1.758.86-1.832.73.627-.665,1.565-1.2,1.758-.86,1.832-.73" transform="translate(2.915 4.862)" fill="#263238"/>
        <path id="Trazado_873710" data-name="Trazado 873710" d="M72.992,189.062a6.659,6.659,0,0,1-2.31,1.279,6.643,6.643,0,0,1-2.521.783,6.7,6.7,0,0,1,2.31-1.278,6.655,6.655,0,0,1,2.521-.784" transform="translate(2.261 6.272)" fill="#263238"/>
        <path id="Trazado_873711" data-name="Trazado 873711" d="M91.6,193.693a7.082,7.082,0,0,1,.259-1.716l.191.3c-.477-.048-1.035-.115-1.629-.2l.3-.186-.006.02c-.187.6-.374,1.154-.544,1.62l-.189-.3a6.878,6.878,0,0,1,1.623.463c.061.072-.581.1-1.688,0l-.26-.024.071-.275c.126-.48.287-1.045.474-1.643l.006-.02.068-.219.227.032c.593.087,1.148.18,1.619.27l.276.053-.085.245c-.374,1.077-.667,1.672-.709,1.585" transform="translate(2.975 6.354)" fill="#263238"/>
        <path id="Trazado_873712" data-name="Trazado 873712" d="M132.552,237.612l52.7-31.34H149.657Z" transform="translate(4.398 6.844)" fill="#263238"/>
        <path id="Trazado_873713" data-name="Trazado 873713" d="M134.637,136.691l11.509,14.134,2.2-4.257L139.294,135.3Z" transform="translate(4.467 4.489)" fill="#263238"/>
        <path id="Trazado_873714" data-name="Trazado 873714" d="M185.057,206.473v-5.561l-32.216-.684L138.339,227Z" transform="translate(4.59 6.643)" fill="#263238"/>
      </g>
    </g>
    <rect id="Rectángulo_401428" data-name="Rectángulo 401428" width="5.665" height="101.322" transform="translate(44.357 323.617)" fill="#455a64"/>
    <g id="Grupo_1099669" data-name="Grupo 1099669">
      <g id="Grupo_1099668" data-name="Grupo 1099668" clip-path="url(#clip-path)">
        <path id="Trazado_873715" data-name="Trazado 873715" d="M91.532,305.99c0,7.463-18.7,13.512-41.764,13.512S8,313.452,8,305.99c0-2.337-1.081-7.252.458-11.933,2.572-7.821,25.465-1.579,41.307-1.579,17.006,0,38.448-3.141,41.162,4.431,1.215,3.391.6,7.121.6,9.081" transform="translate(0.253 9.626)" fill="#263238"/>
        <path id="Trazado_873716" data-name="Trazado 873716" d="M91.52,296.3c0,7.463-18.7,13.512-41.764,13.512S7.992,303.767,7.992,296.3s18.7-13.512,41.764-13.512S91.52,288.841,91.52,296.3" transform="translate(0.265 9.383)" fill="#455a64"/>
        <path id="Trazado_873717" data-name="Trazado 873717" d="M48.311,361.974s31.654-2.161,33.1,41.965H76.291s2.582-36.215-27.98-37.253v-3.918" transform="translate(1.603 12.01)" fill="#455a64"/>
        <path id="Trazado_873718" data-name="Trazado 873718" d="M45.721,361.974s-31.654-2.161-33.1,41.965h5.123s-2.582-36.215,27.98-37.253v-3.918" transform="translate(0.419 12.01)" fill="#455a64"/>
        <rect id="Rectángulo_401429" data-name="Rectángulo 401429" width="49.995" height="5.78" transform="translate(71.316 154.759) rotate(-7.475)" fill="#ffd947"/>
        <path id="Trazado_873719" data-name="Trazado 873719" d="M84.513,361.226l4.819-10.076L70.516,342,63.311,356.67l1.13.642c5.051,2.812,25.883,13.943,29.865,14.578,4.443.708-9.794-10.663-9.794-10.663" transform="translate(2.101 11.348)" fill="#ffd947"/>
        <g id="Grupo_1099643" data-name="Grupo 1099643" transform="translate(65.562 362.502)" opacity="0.3">
          <g id="Grupo_1099642" data-name="Grupo 1099642">
            <g id="Grupo_1099641" data-name="Grupo 1099641" clip-path="url(#clip-path-5)">
              <path id="Trazado_873720" data-name="Trazado 873720" d="M70.2,359.545a7.255,7.255,0,0,0-.45-5.178,7.049,7.049,0,0,0-3.733-3.506l-2.56,5.256Z" transform="translate(-63.457 -350.861)" fill="#fff"/>
            </g>
          </g>
        </g>
        <g id="Grupo_1099646" data-name="Grupo 1099646" transform="translate(65.412 367.612)" opacity="0.3">
          <g id="Grupo_1099645" data-name="Grupo 1099645">
            <g id="Grupo_1099644" data-name="Grupo 1099644" clip-path="url(#clip-path-6)">
              <path id="Trazado_873721" data-name="Trazado 873721" d="M91.334,366.6s4.817,4.34,3.67,4.923-22.622-9.873-31.692-15.315l.235-.4,24.945,12.409s1.724-2.1,2.842-1.613" transform="translate(-63.311 -355.806)" fill="#fff"/>
            </g>
          </g>
        </g>
        <path id="Trazado_873722" data-name="Trazado 873722" d="M63.258,355.656a1.818,1.818,0,0,0,.306.192l.9.508,3.346,1.812c2.837,1.509,6.784,3.543,11.19,5.694s8.442,4.009,11.377,5.316l3.488,1.522.956.4a1.966,1.966,0,0,0,.34.123,1.925,1.925,0,0,0-.319-.169l-.936-.441-3.454-1.6c-2.916-1.348-6.934-3.232-11.34-5.381s-8.362-4.156-11.218-5.625l-3.384-1.74-.924-.466a1.987,1.987,0,0,0-.331-.148" transform="translate(2.099 11.8)" fill="#263238"/>
        <path id="Trazado_873723" data-name="Trazado 873723" d="M87.54,368.165a5.519,5.519,0,0,1,3.236-2.062,3.377,3.377,0,0,0-3.236,2.062" transform="translate(2.904 12.146)" fill="#263238"/>
        <path id="Trazado_873724" data-name="Trazado 873724" d="M83.5,362.793c.037.06.46-.134.944-.433s.848-.589.811-.649-.459.134-.944.433-.847.589-.811.649" transform="translate(2.77 12.001)" fill="#263238"/>
        <path id="Trazado_873725" data-name="Trazado 873725" d="M82.4,361.277c.02.067.413.013.878-.12s.828-.3.809-.363-.412-.014-.878.119-.828.3-.809.364" transform="translate(2.734 11.97)" fill="#263238"/>
        <path id="Trazado_873726" data-name="Trazado 873726" d="M82.306,359.089c-.031.063.381.333.921.6a2.455,2.455,0,0,0,1.034.375c.031-.062-.381-.332-.921-.6a2.458,2.458,0,0,0-1.034-.376" transform="translate(2.731 11.914)" fill="#263238"/>
        <path id="Trazado_873727" data-name="Trazado 873727" d="M82.576,357.721c-.049.046.324.495.94.851a2.116,2.116,0,0,0,1.2.4,6.755,6.755,0,0,0-1.076-.618,6.731,6.731,0,0,0-1.068-.633" transform="translate(2.74 11.869)" fill="#263238"/>
        <path id="Trazado_873728" data-name="Trazado 873728" d="M84.886,361.495a3.87,3.87,0,0,0,1.212.581,7.946,7.946,0,0,0,1.426.343,3.884,3.884,0,0,0,.883.055.724.724,0,0,0,.482-.229.527.527,0,0,0,.052-.572,2.464,2.464,0,0,0-3.056-.686,2.393,2.393,0,0,0-.787.615c-.149.183-.2.3-.19.311a3.8,3.8,0,0,1,1.053-.764,2.426,2.426,0,0,1,1.359-.167,2.082,2.082,0,0,1,1.393.8c.123.236-.062.426-.337.448a4,4,0,0,1-.821-.04,9.245,9.245,0,0,1-1.4-.282c-.786-.224-1.248-.447-1.266-.41" transform="translate(2.816 11.969)" fill="#263238"/>
        <path id="Trazado_873729" data-name="Trazado 873729" d="M85.186,361.771a1.324,1.324,0,0,0,.548-.772,2.193,2.193,0,0,0,.1-1.043,1.346,1.346,0,0,0-.707-1.106.535.535,0,0,0-.644.376,1.485,1.485,0,0,0-.058.641,4.072,4.072,0,0,0,.215,1.009,1.933,1.933,0,0,0,.454.826c.035-.019-.135-.334-.282-.879a4.717,4.717,0,0,1-.153-.971c-.041-.337.068-.85.4-.757.317.118.479.569.547.9a2.213,2.213,0,0,1-.04.953,4.979,4.979,0,0,1-.377.824" transform="translate(2.801 11.906)" fill="#263238"/>
        <path id="Trazado_873730" data-name="Trazado 873730" d="M66.055,350.856c-.017.044.564.211,1.365.725a6.552,6.552,0,0,1,3.015,6.325c-.105.946-.342,1.5-.3,1.517a1.2,1.2,0,0,0,.185-.379,5.515,5.515,0,0,0,.289-1.114,6.358,6.358,0,0,0-3.1-6.5,5.5,5.5,0,0,0-1.048-.477,1.237,1.237,0,0,0-.411-.1" transform="translate(2.192 11.641)" fill="#263238"/>
        <path id="Trazado_873731" data-name="Trazado 873731" d="M71.755,344.2a73.185,73.185,0,0,0-3.862,7.682,36.26,36.26,0,0,0,2.045-3.784,36.457,36.457,0,0,0,1.817-3.9" transform="translate(2.253 11.42)" fill="#263238"/>
        <path id="Trazado_873732" data-name="Trazado 873732" d="M73.139,358.607a11.853,11.853,0,0,0,2.613,1.61,11.917,11.917,0,0,0,2.858,1.119c.026-.069-1.239-.592-2.744-1.346s-2.687-1.444-2.727-1.382" transform="translate(2.427 11.898)" fill="#263238"/>
        <path id="Trazado_873733" data-name="Trazado 873733" d="M69.576,356.864c-.069.024-.026.309-.039.652s-.065.626,0,.654.242-.25.251-.647-.152-.685-.214-.659" transform="translate(2.306 11.841)" fill="#263238"/>
        <path id="Trazado_873734" data-name="Trazado 873734" d="M69.045,354.536c-.066.023-.04.277.058.569s.232.51.3.488.04-.277-.058-.569-.232-.51-.3-.488" transform="translate(2.29 11.763)" fill="#263238"/>
        <path id="Trazado_873735" data-name="Trazado 873735" d="M67.492,352.835c-.018.07.234.19.462.422s.356.475.427.457.039-.354-.248-.636-.631-.309-.641-.242" transform="translate(2.239 11.706)" fill="#263238"/>
        <path id="Trazado_873736" data-name="Trazado 873736" d="M66.3,351.807c-.052.048.009.2.136.334s.271.208.322.16-.01-.2-.136-.333-.271-.209-.322-.161" transform="translate(2.199 11.672)" fill="#263238"/>
        <path id="Trazado_873737" data-name="Trazado 873737" d="M85.021,371.464l6.051-9.386L73.563,350.63l-9,13.638,1.039.78c4.657,3.427,23.917,17.1,27.787,18.23,4.317,1.263-8.37-11.814-8.37-11.814" transform="translate(2.142 11.634)" fill="#ffd947"/>
        <g id="Grupo_1099649" data-name="Grupo 1099649" transform="translate(66.888 370.773)" opacity="0.3">
          <g id="Grupo_1099648" data-name="Grupo 1099648">
            <g id="Grupo_1099647" data-name="Grupo 1099647" clip-path="url(#clip-path-7)">
              <path id="Trazado_873738" data-name="Trazado 873738" d="M71,368.009a7.259,7.259,0,0,0,.207-5.194,7.047,7.047,0,0,0-3.261-3.949l-3.2,4.891Z" transform="translate(-64.74 -358.866)" fill="#fff"/>
            </g>
          </g>
        </g>
        <g id="Grupo_1099652" data-name="Grupo 1099652" transform="translate(66.706 375.53)" opacity="0.3">
          <g id="Grupo_1099651" data-name="Grupo 1099651">
            <g id="Grupo_1099650" data-name="Grupo 1099650" clip-path="url(#clip-path-8)">
              <path id="Trazado_873739" data-name="Trazado 873739" d="M91.051,377.688s4.231,4.913,3.019,5.347-21.2-12.649-29.506-19.191l.284-.373,23.179,15.458s1.975-1.865,3.023-1.241" transform="translate(-64.564 -363.47)" fill="#fff"/>
            </g>
          </g>
        </g>
        <path id="Trazado_873740" data-name="Trazado 873740" d="M64.58,363.285a1.89,1.89,0,0,0,.28.229l.83.618,3.091,2.22c2.624,1.855,6.283,4.37,10.382,7.06s7.869,5.043,10.616,6.709l3.268,1.95.9.516a2.026,2.026,0,0,0,.321.164,2.021,2.021,0,0,0-.3-.209l-.873-.555-3.225-2.019c-2.722-1.7-6.471-4.08-10.57-6.768s-7.771-5.178-10.42-7l-3.137-2.153-.858-.579a1.909,1.909,0,0,0-.309-.188" transform="translate(2.143 12.054)" fill="#263238"/>
        <path id="Trazado_873741" data-name="Trazado 873741" d="M87.1,378.747a8.548,8.548,0,0,1,1.588-1.129,8.622,8.622,0,0,1,1.882-.508,3.382,3.382,0,0,0-3.47,1.638" transform="translate(2.89 12.51)" fill="#263238"/>
        <path id="Trazado_873742" data-name="Trazado 873742" d="M83.759,372.912c.029.064.473-.075.992-.31s.915-.477.886-.541-.473.075-.992.31-.915.477-.886.541" transform="translate(2.779 12.344)" fill="#263238"/>
        <path id="Trazado_873743" data-name="Trazado 873743" d="M82.862,371.271c.01.069.407.066.886-.008s.859-.189.848-.258-.408-.065-.886.008-.859.189-.848.258" transform="translate(2.749 12.308)" fill="#263238"/>
        <path id="Trazado_873744" data-name="Trazado 873744" d="M83.042,369.094c-.039.059.336.378.837.714s.939.562.978.5-.336-.378-.837-.715-.939-.561-.978-.5" transform="translate(2.755 12.246)" fill="#263238"/>
        <path id="Trazado_873745" data-name="Trazado 873745" d="M83.482,367.772c-.054.039.26.532.824.963a2.129,2.129,0,0,0,1.145.55c.03-.067-.456-.337-.99-.75s-.923-.809-.979-.763" transform="translate(2.77 12.202)" fill="#263238"/>
        <path id="Trazado_873746" data-name="Trazado 873746" d="M85.3,371.8a3.881,3.881,0,0,0,1.129.729,7.914,7.914,0,0,0,1.37.52,3.953,3.953,0,0,0,.871.166.727.727,0,0,0,.506-.167.527.527,0,0,0,.124-.561,2.465,2.465,0,0,0-2.946-1.066,2.388,2.388,0,0,0-.858.51c-.172.163-.24.275-.228.284a3.8,3.8,0,0,1,1.141-.624,2.433,2.433,0,0,1,1.369.005,2.084,2.084,0,0,1,1.281.969c.092.249-.116.413-.392.4a4.052,4.052,0,0,1-.809-.144,9.191,9.191,0,0,1-1.356-.458c-.751-.321-1.181-.6-1.2-.566" transform="translate(2.829 12.319)" fill="#263238"/>
        <path id="Trazado_873747" data-name="Trazado 873747" d="M85.565,372.116c.008.023.362-.156.641-.7a2.2,2.2,0,0,0,.231-1.023,1.351,1.351,0,0,0-.561-1.186.535.535,0,0,0-.687.292,1.473,1.473,0,0,0-.137.628,4.033,4.033,0,0,0,.086,1.028,1.938,1.938,0,0,0,.345.876c.037-.014-.092-.348-.168-.907a4.682,4.682,0,0,1-.03-.984c0-.339.176-.835.491-.7.3.158.4.626.429.963a2.194,2.194,0,0,1-.161.939,4.858,4.858,0,0,1-.477.771" transform="translate(2.822 12.249)" fill="#263238"/>
        <path id="Trazado_873748" data-name="Trazado 873748" d="M67.96,358.876c-.022.042.533.28,1.263.892a6.554,6.554,0,0,1,2.192,6.656c-.224.925-.528,1.445-.486,1.467a1.222,1.222,0,0,0,.231-.353,5.5,5.5,0,0,0,.428-1.068,6.359,6.359,0,0,0-2.253-6.841,5.525,5.525,0,0,0-.979-.606,1.2,1.2,0,0,0-.4-.146" transform="translate(2.255 11.907)" fill="#263238"/>
        <path id="Trazado_873749" data-name="Trazado 873749" d="M74.485,352.976a36.593,36.593,0,0,0-2.505,3.5,36.589,36.589,0,0,0-2.295,3.638,36.593,36.593,0,0,0,2.505-3.5,36.592,36.592,0,0,0,2.295-3.638" transform="translate(2.312 11.712)" fill="#263238"/>
        <path id="Trazado_873750" data-name="Trazado 873750" d="M74.009,367.459a17.193,17.193,0,0,0,5.083,3.4c.034-.065-1.154-.744-2.553-1.682s-2.484-1.772-2.53-1.715" transform="translate(2.456 12.192)" fill="#263238"/>
        <path id="Trazado_873751" data-name="Trazado 873751" d="M70.7,365.28c-.07.014-.065.3-.12.643s-.144.613-.081.648.271-.217.331-.61-.065-.7-.13-.681" transform="translate(2.338 12.12)" fill="#263238"/>
        <path id="Trazado_873752" data-name="Trazado 873752" d="M70.462,362.9c-.068.013-.075.27-.014.572s.166.535.235.522.075-.27.014-.572-.166-.535-.235-.522" transform="translate(2.336 12.041)" fill="#263238"/>
        <path id="Trazado_873753" data-name="Trazado 873753" d="M69.135,361.021c-.027.067.208.218.4.476s.293.518.366.507.084-.347-.166-.663-.587-.386-.6-.32" transform="translate(2.294 11.978)" fill="#263238"/>
        <path id="Trazado_873754" data-name="Trazado 873754" d="M68.082,359.85c-.057.04-.015.2.093.348s.243.241.3.2.016-.2-.093-.348-.243-.241-.3-.2" transform="translate(2.258 11.939)" fill="#263238"/>
        <g id="Grupo_1099655" data-name="Grupo 1099655" transform="translate(71.025 367.358)" opacity="0.2">
          <g id="Grupo_1099654" data-name="Grupo 1099654">
            <g id="Grupo_1099653" data-name="Grupo 1099653" clip-path="url(#clip-path-9)">
              <path id="Trazado_873755" data-name="Trazado 873755" d="M68.744,357.56l17.663,11.376,1.072-1.663L69.817,355.561Z" transform="translate(-68.744 -355.561)"/>
            </g>
          </g>
        </g>
        <path id="Trazado_873756" data-name="Trazado 873756" d="M86.935,282.277,66.286,350.133,84.6,357.247l26.53-60.927Z" transform="translate(2.199 9.366)" fill="#263238"/>
        <path id="Trazado_873757" data-name="Trazado 873757" d="M44.909,300.137s71.681-17.863,73.638-18.723c0,0,7.992-23.153-8.779-31.92-15.96-8.343-69,19.9-69,19.9Z" transform="translate(1.353 8.227)" fill="#263238"/>
        <path id="Trazado_873758" data-name="Trazado 873758" d="M23.119,294.981c8.184,1.252,17.4,4.125,22.753,4.614,14.482,1.321,21.356-4.6,33.385-1.378.063-8.778-.589-25.057-.589-25.057l-66.923-8.876s1.223,23.324,11.374,30.7" transform="translate(0.39 8.769)" fill="#263238"/>
        <path id="Trazado_873759" data-name="Trazado 873759" d="M143.144,293.845l-.041-.01c1.935-3.6,3.368-7.871,2.561-11.953-1.6-8.116-11.31-9-21.451-10.222-22.776-2.745-52.346-6.646-52.346-6.646l5.541,33.178,26.973,1.958L67.5,357.043,93.8,374.678l47.914-78.489c.294-.46.587-.937.873-1.43Z" transform="translate(2.24 8.793)" fill="#263238"/>
        <path id="Trazado_873760" data-name="Trazado 873760" d="M121.894,271.378a12,12,0,0,1-1.844-.059c-1.186-.069-2.9-.211-5.012-.411-4.227-.4-10.05-1.1-16.468-1.941s-12.23-1.6-16.442-2.1l-4.989-.581a12.12,12.12,0,0,1-1.826-.268,12.021,12.021,0,0,1,1.845.059c1.185.069,2.9.211,5.01.411,4.228.4,10.051,1.1,16.471,1.941s12.228,1.6,16.44,2.1l4.989.581a12.126,12.126,0,0,1,1.826.268" transform="translate(2.499 8.826)" fill="#455a64"/>
        <path id="Trazado_873761" data-name="Trazado 873761" d="M104.13,268.113c.077.129-.144.4-.435.68s-.579.481-.7.4-.007-.465.334-.787.73-.416.8-.289" transform="translate(3.416 8.894)" fill="#455a64"/>
        <path id="Trazado_873762" data-name="Trazado 873762" d="M105.579,296.139a3.318,3.318,0,0,1-.347.591l-1.082,1.636-4.027,5.979c-3.4,5.049-8.045,12.054-13.043,19.879s-9.4,14.995-12.546,20.2l-3.729,6.169-1.028,1.67a3.254,3.254,0,0,1-.39.563,3.261,3.261,0,0,1,.3-.618c.242-.442.555-1.013.941-1.72.824-1.49,2.048-3.629,3.582-6.258,3.069-5.259,7.419-12.462,12.42-20.3s9.7-14.809,13.182-19.805c1.74-2.5,3.166-4.509,4.17-5.884l1.164-1.578a3.235,3.235,0,0,1,.436-.529" transform="translate(2.302 9.826)" fill="#455a64"/>
        <path id="Trazado_873763" data-name="Trazado 873763" d="M103.224,299.024a24.494,24.494,0,0,1-3.6,0c-2.219-.067-5.285-.172-8.669-.371s-6.446-.5-8.65-.788c-1.1-.146-1.992-.279-2.6-.391a3.43,3.43,0,0,1-.943-.224,27.086,27.086,0,0,1,3.588.237c2.21.193,5.262.431,8.642.629s6.441.365,8.656.528a23.031,23.031,0,0,1,3.579.381" transform="translate(2.613 9.862)" fill="#455a64"/>
        <path id="Trazado_873764" data-name="Trazado 873764" d="M122.422,171.768s1.2-1.6,2.573-.566,7.423,5.917,7.423,5.917l4.139,11.2-5.881,10.733L120.525,194.7a47.875,47.875,0,0,1,2.211-7.357s-6.81-5.268-4.691-7.343c0,0,.566-1.018,3.452,1.37l2.886,2.388s-5.058-7.066-4.745-8.669c0-.017,0,.015,0,0a1.987,1.987,0,0,1,2.506-1.756Z" transform="translate(3.903 5.669)" fill="#ffbe9d"/>
        <path id="Trazado_873765" data-name="Trazado 873765" d="M116.093,174.443l4.192,1.063,18.182,16.073a1.6,1.6,0,0,1-2.109,2.415l-18.12-15.628Z" transform="translate(3.852 5.788)" fill="#e8505b"/>
        <g id="Grupo_1099658" data-name="Grupo 1099658" transform="translate(139.893 196.936)" opacity="0.4">
          <g id="Grupo_1099657" data-name="Grupo 1099657">
            <g id="Grupo_1099656" data-name="Grupo 1099656" clip-path="url(#clip-path-10)">
              <path id="Trazado_873766" data-name="Trazado 873766" d="M135.4,193.135l2-2.522.68.68a1.583,1.583,0,0,1-2.186,2.29Z" transform="translate(-135.4 -190.612)" fill="#fff"/>
            </g>
          </g>
        </g>
        <g id="Grupo_1099661" data-name="Grupo 1099661" transform="translate(120.638 180.57)" opacity="0.4">
          <g id="Grupo_1099660" data-name="Grupo 1099660">
            <g id="Grupo_1099659" data-name="Grupo 1099659" clip-path="url(#clip-path-11)">
              <path id="Trazado_873767" data-name="Trazado 873767" d="M116.763,175.6l.7-.824,2.854.724a.948.948,0,0,1,0,.964c-.274.364-.811.066-.811.066a1.126,1.126,0,0,1-.005,1.035c-.254.369-.894.208-.894.208a.54.54,0,0,1-.073.814l-.263-.227Z" transform="translate(-116.764 -174.771)" fill="#fff"/>
            </g>
          </g>
        </g>
        <g id="Grupo_1099664" data-name="Grupo 1099664" transform="translate(122.427 182.324)" opacity="0.4">
          <g id="Grupo_1099663" data-name="Grupo 1099663">
            <g id="Grupo_1099662" data-name="Grupo 1099662" clip-path="url(#clip-path-12)">
              <path id="Trazado_873768" data-name="Trazado 873768" d="M119.395,176.469l18.08,15.151-.946,1.2-18.033-15.1a.859.859,0,0,0,.917-.3.945.945,0,0,0-.018-.947" transform="translate(-118.495 -176.469)"/>
            </g>
          </g>
        </g>
        <path id="Trazado_873769" data-name="Trazado 873769" d="M121.051,191.464a40.351,40.351,0,0,0,1.933-5.037c.227-1.244-1.947-9.379,1.31-10.022l1.055.49,2.7,13.077-5.4,5.2Z" transform="translate(4.016 5.853)" fill="#ffbe9d"/>
        <path id="Trazado_873770" data-name="Trazado 873770" d="M128.711,182.269c-.086.019-.268-.757-.829-1.892a10.621,10.621,0,0,0-3.025-3.79,12.148,12.148,0,0,1-2.177-1.777,2.955,2.955,0,0,1-.8-2.225,1.942,1.942,0,0,1,.8-1.381c.326-.214.554-.2.557-.174.014.044-.183.1-.427.338a1.861,1.861,0,0,0-.552,1.252,2.665,2.665,0,0,0,.795,1.865,13.735,13.735,0,0,0,2.124,1.671,9.646,9.646,0,0,1,3.051,4.067,4.534,4.534,0,0,1,.481,2.047" transform="translate(4.043 5.674)" fill="#eb996e"/>
        <path id="Trazado_873771" data-name="Trazado 873771" d="M127.414,187.934a5.4,5.4,0,0,1-.267-1.033c-.151-.666-.44-1.608-.759-2.8a16.219,16.219,0,0,1-.392-1.993c-.092-.725-.137-1.494-.259-2.28a7.359,7.359,0,0,0-.268-1.172,6.748,6.748,0,0,0-.458-1.127.347.347,0,0,0-.337-.17,1.729,1.729,0,0,0-.539.184,2.163,2.163,0,0,0-.854.867,4.807,4.807,0,0,0-.577,2.489,12,12,0,0,0,.307,2.472,9.911,9.911,0,0,1,.263,2.338,5.285,5.285,0,0,1-.548,2,8.023,8.023,0,0,0-.947,2.681,6.6,6.6,0,0,0,.054,1.041,1.628,1.628,0,0,1-.263-1.05,7.289,7.289,0,0,1,.808-2.822,5.054,5.054,0,0,0,.45-1.864,9.912,9.912,0,0,0-.3-2.223,11.96,11.96,0,0,1-.348-2.567,5.25,5.25,0,0,1,.643-2.77,3.627,3.627,0,0,1,.453-.6,1.921,1.921,0,0,1,.622-.468,2.147,2.147,0,0,1,.745-.236.89.89,0,0,1,.8.395,6.383,6.383,0,0,1,.518,1.275,7.744,7.744,0,0,1,.27,1.257c.113.82.142,1.593.212,2.3a17.385,17.385,0,0,0,.319,1.956c.268,1.189.506,2.165.594,2.851a3.3,3.3,0,0,1,.061,1.071" transform="translate(4.034 5.867)" fill="#eb996e"/>
        <path id="Trazado_873772" data-name="Trazado 873772" d="M29.792,178.913l27.877-26.985,14.24,10.68L42.848,197.2Z" transform="translate(0.988 5.041)" fill="#7d6eb2"/>
        <g id="Grupo_1099667" data-name="Grupo 1099667" transform="translate(24.77 148.74)" opacity="0.4">
          <g id="Grupo_1099666" data-name="Grupo 1099666">
            <g id="Grupo_1099665" data-name="Grupo 1099665" clip-path="url(#clip-path-13)">
              <path id="Trazado_873773" data-name="Trazado 873773" d="M29.792,178.913l27.877-26.985,14.24,10.68L42.848,197.2Z" transform="translate(-21.792 -142.929)"/>
            </g>
          </g>
        </g>
        <path id="Trazado_873774" data-name="Trazado 873774" d="M73.563,149.437l12.631-1.657c-.921-.781-3.929-2.816-11.407-4.115-9.408-1.633-17.364,9.047-17.364,9.047l11.552,8.744,4.307-4.3s6.676-.973,10.321-1.811a3.193,3.193,0,0,0,2.1-1.674l-.18.024c-5.424-.424-10.284-1.887-11.957-4.261" transform="translate(1.905 4.761)" fill="#ffbe9d"/>
        <path id="Trazado_873775" data-name="Trazado 873775" d="M78.152,152.375a8.927,8.927,0,0,1-5.929-4.529c.13-.094,1.158,1.249,2.8,2.487,1.624,1.253,3.19,1.892,3.134,2.043" transform="translate(2.396 4.905)" fill="#eb996e"/>
        <path id="Trazado_873776" data-name="Trazado 873776" d="M28.918,122.888l-.151,49.3,21.15,1.008.612-11.991s7.512,1.492,9.45-5.485c1.238-4.456.929-38.9.929-38.9Z" transform="translate(0.954 3.876)" fill="#ffbe9d"/>
        <path id="Trazado_873777" data-name="Trazado 873777" d="M60.047,109.431c-6.435,2.084-7.988,2.779-10.872,3.011-2.767.222-22.476.239-24.263,11.286l-.13,1.352v-.051c0,.051-4.226-1.7-3.116,5.938.579,3.988,2.213,7.667,3.733,12.046,1.041,6.488-2.661,8.107-5.7,10.254-.749.528-1.659,1.194-1.534,2.1.115.827,1.045,1.264,1.867,1.4a6.946,6.946,0,0,0,5.088-1.179,27.671,27.671,0,0,1-1.447,2.767c-.413.959-.365,2.3.552,2.795a2.4,2.4,0,0,0,1.686.076,8.547,8.547,0,0,0,4.426-2.656,1.878,1.878,0,0,0,.714,2.394,4.531,4.531,0,0,0,2.653.577c4.18-.07,9.221,0,13.076-4.285,3.561-3.959,4.411-6.5,4.788-12,0,0-4.2-.683-3.713-4.063.677-4.677,4.25-4.8,6.913-2.713l3.064-8.213s7.764-5.095,8.209-8.337.443-14.588-5.989-12.5" transform="translate(0.602 3.622)" fill="#263238"/>
        <path id="Trazado_873778" data-name="Trazado 873778" d="M86.016,232.847c-6.362-7.791-12.266-14.775-12.266-14.775.273,10.182,1.327,19.012,1.327,19.012L78.1,268.607a9.253,9.253,0,0,1-7.061,9.872c-19.764,4.774-42.892,6.125-55.855-2.767A12.548,12.548,0,0,1,9.82,265.344V238.45l-3.4-36.1c-.331-5.567.353-12.939,1.538-16.922a23.533,23.533,0,0,1,21.228-16.77c7.141-.4,15.153-1,22.32-1.121A37.665,37.665,0,0,1,74.922,175.2c10.559,8.015,18.529,26.421,25.99,38.151L121.34,188.71,138.228,199.5l-23.073,34.055a19.2,19.2,0,0,1-29.139-.7" transform="translate(0.21 5.559)" fill="#7d6eb2"/>
        <path id="Trazado_873779" data-name="Trazado 873779" d="M21.223,191.945a22.836,22.836,0,0,1,1.522-4.7,22.742,22.742,0,0,1,2.025-4.509,22.923,22.923,0,0,1-1.523,4.7,22.883,22.883,0,0,1-2.024,4.509" transform="translate(0.704 6.063)" fill="#263238"/>
        <path id="Trazado_873780" data-name="Trazado 873780" d="M44.129,203.24a13.781,13.781,0,0,1-2.576-2.832,13.8,13.8,0,0,1-2.153-3.166,13.782,13.782,0,0,1,2.576,2.832,13.778,13.778,0,0,1,2.153,3.166" transform="translate(1.307 6.544)" fill="#263238"/>
        <path id="Trazado_873781" data-name="Trazado 873781" d="M57.483,184.435a10.178,10.178,0,0,1-3.037,1.254,10.187,10.187,0,0,1-3.2.742,10.224,10.224,0,0,1,3.038-1.254,10.213,10.213,0,0,1,3.2-.742" transform="translate(1.7 6.118)" fill="#263238"/>
        <path id="Trazado_873782" data-name="Trazado 873782" d="M23.512,216.32a14.835,14.835,0,0,1,1.406-3.716,14.8,14.8,0,0,1,1.895-3.493,14.864,14.864,0,0,1-1.406,3.717,14.832,14.832,0,0,1-1.895,3.492" transform="translate(0.779 6.938)" fill="#263238"/>
        <path id="Trazado_873783" data-name="Trazado 873783" d="M22.387,235.877a16.767,16.767,0,0,1-2.6-3.332,16.876,16.876,0,0,1-2.161-3.637,16.716,16.716,0,0,1,2.606,3.332,16.817,16.817,0,0,1,2.16,3.637" transform="translate(0.584 7.595)" fill="#263238"/>
        <path id="Trazado_873784" data-name="Trazado 873784" d="M53.252,228.435a23.338,23.338,0,0,1-4.543,2.059,23.288,23.288,0,0,1-4.738,1.558,23.3,23.3,0,0,1,4.543-2.059,23.265,23.265,0,0,1,4.738-1.558" transform="translate(1.459 7.579)" fill="#263238"/>
        <path id="Trazado_873785" data-name="Trazado 873785" d="M35.323,224.489a10.1,10.1,0,0,1,0-6.487,19.69,19.69,0,0,1,0,3.244,19.675,19.675,0,0,1,0,3.243" transform="translate(1.154 7.233)" fill="#263238"/>
        <path id="Trazado_873786" data-name="Trazado 873786" d="M62.244,217.842A27.693,27.693,0,0,1,59.1,207.4c.153-.028.7,2.35,1.567,5.224s1.718,5.16,1.575,5.221" transform="translate(1.96 6.881)" fill="#263238"/>
        <path id="Trazado_873787" data-name="Trazado 873787" d="M81.188,200.674a31.668,31.668,0,0,1-3.73-.853,32.051,32.051,0,0,1-3.746-.779,8.962,8.962,0,0,1,3.861.253,9.025,9.025,0,0,1,3.615,1.379" transform="translate(2.446 6.601)" fill="#263238"/>
        <path id="Trazado_873788" data-name="Trazado 873788" d="M89.914,213.726a15.563,15.563,0,0,1-3.8,1.47,15.6,15.6,0,0,1-3.958.958,15.539,15.539,0,0,1,3.8-1.471,15.625,15.625,0,0,1,3.958-.957" transform="translate(2.726 7.09)" fill="#263238"/>
        <path id="Trazado_873789" data-name="Trazado 873789" d="M97.887,230.372a15.833,15.833,0,0,1,.668-9.245c.154.04-.313,2.068-.489,4.611-.191,2.541-.022,4.615-.18,4.634" transform="translate(3.234 7.337)" fill="#263238"/>
        <path id="Trazado_873790" data-name="Trazado 873790" d="M113.221,217.218c-.12.1-1.284-1.1-2.913-2.348s-3.089-2.07-3.02-2.212a11.527,11.527,0,0,1,5.933,4.56" transform="translate(3.56 7.055)" fill="#263238"/>
        <path id="Trazado_873791" data-name="Trazado 873791" d="M122.994,200.631a19.767,19.767,0,0,1-3.859,2.482,19.789,19.789,0,0,1-4.123,2.013,19.742,19.742,0,0,1,3.859-2.482,19.76,19.76,0,0,1,4.123-2.013" transform="translate(3.816 6.656)" fill="#263238"/>
        <path id="Trazado_873792" data-name="Trazado 873792" d="M62.1,250.408a41.732,41.732,0,0,1,2.928-9,21.039,21.039,0,0,1-1.209,4.585,21.06,21.06,0,0,1-1.719,4.419" transform="translate(2.06 8.01)" fill="#263238"/>
        <path id="Trazado_873793" data-name="Trazado 873793" d="M38.129,254.557a19.931,19.931,0,0,1-2.9-3.6c-.984-1.381-1.8-2.619-2.191-3.305l-.506-.886.7.7c.3.3.445.479.414.518s-.24-.072-.587-.308l.2-.183c.522.592,1.426,1.769,2.409,3.15a20.139,20.139,0,0,1,2.458,3.911" transform="translate(1.08 8.188)" fill="#263238"/>
        <path id="Trazado_873794" data-name="Trazado 873794" d="M50.111,253.007a24.088,24.088,0,0,1,1.149,4.942,24.04,24.04,0,0,1,.618,5.035,47.913,47.913,0,0,1-1.767-9.976" transform="translate(1.661 8.395)" fill="#263238"/>
        <path id="Trazado_873795" data-name="Trazado 873795" d="M24.4,263.084a14.829,14.829,0,0,1-2.938-2.682,14.843,14.843,0,0,1-2.551-3.056,14.937,14.937,0,0,1,2.939,2.684,14.879,14.879,0,0,1,2.55,3.054" transform="translate(0.627 8.538)" fill="#263238"/>
        <path id="Trazado_873796" data-name="Trazado 873796" d="M44.715,272.927a12.375,12.375,0,0,1-3.617.27,12.376,12.376,0,0,1-3.618-.268,12.367,12.367,0,0,1,3.617-.27,12.38,12.38,0,0,1,3.618.268" transform="translate(1.244 9.047)" fill="#263238"/>
        <path id="Trazado_873797" data-name="Trazado 873797" d="M69.033,262.365a18.392,18.392,0,0,1-3.24,3.024A18.358,18.358,0,0,1,62.21,268a18.482,18.482,0,0,1,3.24-3.024,18.414,18.414,0,0,1,3.583-2.61" transform="translate(2.064 8.705)" fill="#263238"/>
      </g>
    </g>
  </g>
</svg>
