<svg xmlns="http://www.w3.org/2000/svg" xmlns:xlink="http://www.w3.org/1999/xlink" width="78.501" height="70.127" viewBox="0 0 78.501 70.127">
  <defs>
    <clipPath id="clip-path">
      <rect id="Rectángulo_401461" data-name="Rectángulo 401461" width="55" height="55" transform="translate(265 858)" fill="#fff" stroke="#707070" stroke-width="1"/>
    </clipPath>
  </defs>
  <g id="Grupo_1099752" data-name="Grupo 1099752" transform="translate(-255 -858)">
    <path id="_12068" data-name="12068" d="M72.033,71.913c-8.038-1.11-16.53-.839-23.844,2.675C38.045,79.46,31.382,90.507,31.127,101.757s5.606,22.305,14.66,28.988,21,9.051,32.068,7.045c11.165-2.023,21.645-8.583,27.469-18.322,3.735-6.245,5.48-13.956,3.417-20.934a28.6,28.6,0,0,0-6.787-11.156A50.145,50.145,0,0,0,72.033,71.913Z" transform="translate(223.881 789.646)" fill="#26aab7"/>
    <g id="Enmascarar_grupo_1098711" data-name="Enmascarar grupo 1098711" clip-path="url(#clip-path)">
      <g id="editor-de-texto" transform="translate(265 858)">
        <g id="Grupo_1099769" data-name="Grupo 1099769">
          <path id="Trazado_873848" data-name="Trazado 873848" d="M1.431,47.978H6.4a.628.628,0,0,1,.624.627v4.963A.628.628,0,0,1,6.4,54.2H1.431a.628.628,0,0,1-.624-.627V48.605a.628.628,0,0,1,.624-.627Zm0-23.584H6.4a.625.625,0,0,1,.624.624v4.963a.628.628,0,0,1-.624.627H1.431a.628.628,0,0,1-.624-.627V25.018a.625.625,0,0,1,.624-.624Zm0-23.587H6.4a.625.625,0,0,1,.624.624V6.4a.625.625,0,0,1-.624.624H1.431A.625.625,0,0,1,.807,6.4V1.431A.625.625,0,0,1,1.431.807Zm23.587,0h4.964a.628.628,0,0,1,.627.624V6.4a.628.628,0,0,1-.627.624H25.018a.625.625,0,0,1-.624-.624V1.431a.625.625,0,0,1,.624-.624Zm23.587,0h4.964a.628.628,0,0,1,.627.624V6.4a.628.628,0,0,1-.627.624H48.605a.628.628,0,0,1-.627-.624V1.431a.628.628,0,0,1,.627-.624Zm0,23.587h4.964a.628.628,0,0,1,.627.624v4.963a.63.63,0,0,1-.627.627H48.605a.63.63,0,0,1-.627-.627V25.018A.628.628,0,0,1,48.605,24.394Zm0,23.584h4.964a.63.63,0,0,1,.627.627v4.963a.63.63,0,0,1-.627.627H48.605a.63.63,0,0,1-.627-.627V48.605A.63.63,0,0,1,48.605,47.978Zm-23.587,0h4.964a.63.63,0,0,1,.627.627v4.963a.63.63,0,0,1-.627.627H25.018a.628.628,0,0,1-.624-.627V48.605a.628.628,0,0,1,.624-.627Z" fill="#95d6a4" fill-rule="evenodd"/>
          <path id="Trazado_873849" data-name="Trazado 873849" d="M15.152,11.794H38.009a.63.63,0,0,1,.627.627v4.964a.63.63,0,0,1-.627.627H30.314a.561.561,0,0,0-.624.624V41.657a.628.628,0,0,1-.627.624H24.1a.628.628,0,0,1-.627-.624V18.636c0-.481-.2-.624-.624-.624H15.152a.63.63,0,0,1-.627-.627V12.421a.63.63,0,0,1,.627-.627Z" fill="#90d8f9" fill-rule="evenodd"/>
          <path id="Trazado_873850" data-name="Trazado 873850" d="M34.881,11.794h3.127a.63.63,0,0,1,.627.627v4.964a.63.63,0,0,1-.627.627H34.881a.628.628,0,0,0,.624-.627V12.421A.628.628,0,0,0,34.881,11.794Zm-4.568,6.218a.561.561,0,0,0-.624.624V41.657a.628.628,0,0,1-.627.624H25.935a.625.625,0,0,0,.624-.624V18.636a.562.562,0,0,1,.627-.624Z" fill="#6bbef6" fill-rule="evenodd"/>
          <path id="Trazado_873851" data-name="Trazado 873851" d="M27.1,22.308H43.7a.628.628,0,0,1,.627.624v3.353a.63.63,0,0,1-.627.627H38.328a.551.551,0,0,0-.624.624v14.12a.628.628,0,0,1-.627.624H33.724a.625.625,0,0,1-.624-.624V27.537a.571.571,0,0,0-.627-.624H27.1a.63.63,0,0,1-.627-.627V22.932a.628.628,0,0,1,.627-.624Z" fill="#fc7070" fill-rule="evenodd"/>
          <path id="Trazado_873852" data-name="Trazado 873852" d="M40.576,22.308H43.7a.628.628,0,0,1,.627.624v3.353a.63.63,0,0,1-.627.627H40.576a.63.63,0,0,0,.627-.627V22.932A.628.628,0,0,0,40.576,22.308Zm-2.247,4.6a.551.551,0,0,0-.624.624v14.12a.628.628,0,0,1-.627.624H33.949a.625.625,0,0,0,.624-.624V27.537a.553.553,0,0,1,.627-.624Z" fill="#d15a63" fill-rule="evenodd"/>
        </g>
        <path id="Trazado_873853" data-name="Trazado 873853" d="M47.978,47.174h2.305V31.413H47.978a.8.8,0,0,1-.8-.8V24.394a.8.8,0,0,1,.8-.807h2.305V7.829H47.978a.806.806,0,0,1-.8-.807V4.72H31.413v2.3a.806.806,0,0,1-.8.807H24.394a.807.807,0,0,1-.807-.807V4.72H7.829v2.3a.808.808,0,0,1-.807.807H4.72V23.587h2.3a.806.806,0,0,1,.807.807v6.215a.806.806,0,0,1-.807.8H4.72V47.174h2.3a.806.806,0,0,1,.807.8v2.3H23.587v-2.3a.8.8,0,0,1,.807-.8h6.215a.8.8,0,0,1,.8.8v2.3H47.174v-2.3a.8.8,0,0,1,.8-.8ZM10.387,27.716a.805.805,0,1,1,0-1.611H20.11a.805.805,0,0,1,0,1.611Zm0,7.686a.805.805,0,1,1,0-1.611H20.11a.805.805,0,0,1,0,1.611Zm0,7.686a.805.805,0,1,1,0-1.611H20.11a.805.805,0,0,1,0,1.611Zm0-11.529a.805.805,0,1,1,0-1.611H20.11a.805.805,0,0,1,0,1.611Zm0,7.686a.805.805,0,1,1,0-1.611H20.11a.805.805,0,0,1,0,1.611ZM33.575,21.5a.805.805,0,1,1,0,1.611h-6.3v2.993H33.1a.8.8,0,0,1,.8.807V41.477H36.9V26.912a.8.8,0,0,1,.807-.807h5.819V23.112h-6.3a.805.805,0,1,1,0-1.611h7.1a.806.806,0,0,1,.8.807v4.6a.8.8,0,0,1-.8.8H38.508V42.281a.806.806,0,0,1-.8.807H33.1a.808.808,0,0,1-.807-.807V27.716h-1.8V42.281a.806.806,0,0,1-.8.807H23.471a.806.806,0,0,1-.8-.807V18.816H14.525a.806.806,0,0,1-.807-.8V11.794a.806.806,0,0,1,.807-.8H24.757a.805.805,0,0,1,0,1.611H15.332v4.6h8.139a.806.806,0,0,1,.807.807V41.477h4.6V27.716H26.471a.8.8,0,0,1-.8-.8v-4.6a.806.806,0,0,1,.8-.807h2.412v-3.49a.8.8,0,0,1,.807-.807h8.139V12.6H28.4a.805.805,0,0,1,0-1.611H38.636a.8.8,0,0,1,.8.8v6.218a.8.8,0,0,1-.8.8H30.494V21.5h3.081ZM51.894,47.174h2.3a.8.8,0,0,1,.8.8V54.2a.8.8,0,0,1-.8.8H47.978a.8.8,0,0,1-.8-.8v-2.3H31.413v2.3a.8.8,0,0,1-.8.8H24.394a.8.8,0,0,1-.807-.8v-2.3H7.829v2.3a.806.806,0,0,1-.807.8H.807A.805.805,0,0,1,0,54.2V47.978a.806.806,0,0,1,.807-.8h2.3V31.413H.807a.806.806,0,0,1-.807-.8V24.394a.806.806,0,0,1,.807-.807h2.3V7.829H.807A.808.808,0,0,1,0,7.022V.807A.808.808,0,0,1,.807,0H7.022a.808.808,0,0,1,.807.807v2.3H23.587V.807A.806.806,0,0,1,24.394,0h6.215a.806.806,0,0,1,.8.807v2.3H47.174V.807a.806.806,0,0,1,.8-.807H54.2a.806.806,0,0,1,.8.807V7.022a.806.806,0,0,1-.8.807h-2.3V23.587h2.3a.8.8,0,0,1,.8.807v6.215a.8.8,0,0,1-.8.8h-2.3V47.174Zm1.5,1.611h-4.6v4.6h4.6ZM6.215,1.611h-4.6v4.6h4.6Zm23.587,0H25.2v4.6h4.6Zm23.587,0h-4.6v4.6h4.6Zm0,23.587h-4.6v4.6h4.6Zm-47.174,0h-4.6v4.6h4.6Zm0,23.587h-4.6v4.6h4.6Zm23.587,0H25.2v4.6h4.6Z"/>
      </g>
    </g>
  </g>
</svg>
