<svg xmlns="http://www.w3.org/2000/svg" xmlns:xlink="http://www.w3.org/1999/xlink" width="78.501" height="70.127" viewBox="0 0 78.501 70.127">
  <defs>
    <clipPath id="clip-path">
      <rect id="Rectángulo_401461" data-name="Rectángulo 401461" width="55" height="55" transform="translate(265 858)" fill="#fff" stroke="#707070" stroke-width="1"/>
    </clipPath>
  </defs>
  <g id="Grupo_1099754" data-name="Grupo 1099754" transform="translate(-255 -858)">
    <path id="_12068" data-name="12068" d="M72.033,71.913c-8.038-1.11-16.53-.839-23.844,2.675C38.045,79.46,31.382,90.507,31.127,101.757s5.606,22.305,14.66,28.988,21,9.051,32.068,7.045c11.165-2.023,21.645-8.583,27.469-18.322,3.735-6.245,5.48-13.956,3.417-20.934a28.6,28.6,0,0,0-6.787-11.156A50.145,50.145,0,0,0,72.033,71.913Z" transform="translate(223.881 789.646)" fill="#26aab7"/>
    <g id="Enmascarar_grupo_1098713" data-name="Enmascarar grupo 1098713" clip-path="url(#clip-path)">
      <g id="Communicate" transform="translate(265 858)">
        <rect id="Rectángulo_401462" data-name="Rectángulo 401462" width="23.065" height="24.839" rx="1.774" transform="translate(31.048 2.661)" fill="#9bc9ff"/>
        <rect id="Rectángulo_401463" data-name="Rectángulo 401463" width="23.065" height="24.839" rx="1.774" transform="translate(2.661 2.661)" fill="#57a4ff"/>
        <path id="Trazado_873866" data-name="Trazado 873866" d="M9.143,5.55H11.8v6.209H9.143Z" transform="translate(-3.052 9.942) rotate(-45)" fill="#ff7956"/>
        <path id="Trazado_873867" data-name="Trazado 873867" fill="#57a4ff"/>
        <path id="Trazado_873868" data-name="Trazado 873868" d="M11.729,11.792,7.338,7.4Z" fill="#57a4ff"/>
        <path id="Trazado_873869" data-name="Trazado 873869" d="M21.353,21.416l-4.391-4.391Z" fill="#57a4ff"/>
        <rect id="Rectángulo_401464" data-name="Rectángulo 401464" width="23.065" height="23.065" rx="1.774" transform="translate(2.661 31.048)" fill="#57a4ff"/>
        <path id="Trazado_873870" data-name="Trazado 873870" d="M12.214,42.59l.011-.009-.011.009L13.6,43.823a.887.887,0,0,0,1.187,0l1.387-1.231-.011-.011.011.009,6-5.331H6.21Z" fill="#ffb655"/>
        <path id="Trazado_873871" data-name="Trazado 873871" d="M6.21,37.258V47.9l6-5.314Z" fill="#ff9811"/>
        <path id="Trazado_873872" data-name="Trazado 873872" d="M4.435,27.5H23.952a1.774,1.774,0,0,0,1.774-1.774V6.21A21.29,21.29,0,0,1,4.435,27.5Z" fill="#2488ff"/>
        <path id="Trazado_873873" data-name="Trazado 873873" d="M18.765,15.173h2.661v6.209H18.765Z" transform="translate(-7.039 19.567) rotate(-45)" fill="#ff7956"/>
        <path id="Trazado_873874" data-name="Trazado 873874" d="M11.944,17.025l-.215-.215a3.548,3.548,0,0,1,0-5.018L7.338,7.4a7.1,7.1,0,0,0,0,10.037l3.979,3.979a7.1,7.1,0,0,0,10.037,0l-4.391-4.391a3.548,3.548,0,0,1-5.018,0Z" fill="#ffcd00"/>
        <path id="Trazado_873875" data-name="Trazado 873875" d="M4.435,54.113H23.952a1.774,1.774,0,0,0,1.774-1.774V32.823A21.29,21.29,0,0,1,4.435,54.113Z" fill="#2488ff"/>
        <path id="Trazado_873876" data-name="Trazado 873876" d="M22.177,47.9V37.258l-6,5.331Z" fill="#ff9811"/>
        <path id="Trazado_873877" data-name="Trazado 873877" d="M14.787,43.823a.887.887,0,0,1-1.187,0L12.214,42.59l-6,5.314H22.177l-6-5.314Z" fill="#ffa733"/>
        <path id="Trazado_873878" data-name="Trazado 873878" d="M32.823,27.5H52.339a1.774,1.774,0,0,0,1.774-1.774V6.21A21.29,21.29,0,0,1,32.823,27.5Z" fill="#57a4ff"/>
        <path id="Trazado_873879" data-name="Trazado 873879" d="M41.17,24.475a1.741,1.741,0,0,0-1.408-.516,1.841,1.841,0,0,0-1.617,1.866V43.468l-2.759-5.846a1.774,1.774,0,0,0-2.173-1.26l-.816.22a.887.887,0,0,0-.615,1.126l3.7,10.754L38.09,51.54l.055,2.573H50.565V51.452l1.774-2.661V37.258a1.774,1.774,0,1,0-3.548,0V35.484a1.774,1.774,0,0,0-3.548,0V33.71a1.774,1.774,0,1,0-3.548,0V25.726a1.734,1.734,0,0,0-.523-1.251Z" fill="#ffbcab"/>
        <g id="Grupo_1099771" data-name="Grupo 1099771">
          <path id="Trazado_873880" data-name="Trazado 873880" d="M23.863,18.908l-4.39-4.391a.887.887,0,0,0-1.254,0L16.336,16.4a2.661,2.661,0,0,1-3.764,0l-.215-.215a2.661,2.661,0,0,1,0-3.764l1.882-1.882a.887.887,0,0,0,0-1.254L9.847,4.892a.887.887,0,0,0-1.254,0L6.711,6.774a7.993,7.993,0,0,0,0,11.291l3.979,3.979a7.993,7.993,0,0,0,11.291,0l1.882-1.882A.887.887,0,0,0,23.863,18.908ZM18.845,16.4l3.136,3.137-.627.627-3.136-3.137ZM9.22,6.774,12.356,9.91l-.627.628L8.592,7.4ZM11.944,20.79,7.965,16.81A6.22,6.22,0,0,1,7.382,8.7l3.155,3.155a4.443,4.443,0,0,0,.565,5.582l.215.215a4.446,4.446,0,0,0,5.583.565l3.155,3.155a6.221,6.221,0,0,1-8.11-.583Z" fill="#231f20"/>
          <path id="Trazado_873881" data-name="Trazado 873881" d="M23.952,28.387H4.435a2.661,2.661,0,0,1-2.661-2.661V4.435A2.661,2.661,0,0,1,4.435,1.774H23.952a2.661,2.661,0,0,1,2.661,2.661v21.29A2.661,2.661,0,0,1,23.952,28.387ZM4.435,3.548a.887.887,0,0,0-.887.887v21.29a.887.887,0,0,0,.887.887H23.952a.887.887,0,0,0,.887-.887V4.435a.887.887,0,0,0-.887-.887Z" fill="#231f20"/>
          <path id="Trazado_873882" data-name="Trazado 873882" d="M23.952,55H4.435a2.661,2.661,0,0,1-2.661-2.661V32.823a2.661,2.661,0,0,1,2.661-2.661H23.952a2.661,2.661,0,0,1,2.661,2.661V52.339A2.661,2.661,0,0,1,23.952,55ZM4.435,31.935a.887.887,0,0,0-.887.887V52.339a.887.887,0,0,0,.887.887H23.952a.887.887,0,0,0,.887-.887V32.823a.887.887,0,0,0-.887-.887Z" fill="#231f20"/>
          <path id="Trazado_873883" data-name="Trazado 873883" d="M22.177,36.371H6.21a.887.887,0,0,0-.887.887V47.9a.887.887,0,0,0,.887.887H22.177a.887.887,0,0,0,.887-.887V37.258A.887.887,0,0,0,22.177,36.371Zm-7.984,6.786L8.545,38.145h11.3Zm-3.312-.569L7.1,45.934v-6.7Zm1.336,1.186.8.71a1.768,1.768,0,0,0,2.369,0l.8-.71,3.653,3.237H8.551Zm5.3-1.186,3.775-3.357v6.7Z" fill="#231f20"/>
          <path id="Trazado_873884" data-name="Trazado 873884" d="M52.339,1.774H32.823a2.661,2.661,0,0,0-2.661,2.661v21.29a2.661,2.661,0,0,0,2.661,2.661h4.435V39.51l-1.038-2.2a2.628,2.628,0,0,0-1.214-1.536,2.667,2.667,0,0,0-2.023-.266l-.817.22A1.774,1.774,0,0,0,30.943,38l3.7,10.755a.876.876,0,0,0,.161.284l2.4,2.839.048,2.254a.887.887,0,0,0,.887.868H50.565a.887.887,0,0,0,.887-.887v-2.4l1.625-2.438a.892.892,0,0,0,.149-.49V37.258a2.6,2.6,0,0,0-.775-1.87,2.713,2.713,0,0,0-2.865-.605,2.543,2.543,0,0,0-.683-1.169,2.715,2.715,0,0,0-2.865-.605,2.543,2.543,0,0,0-.683-1.169,2.708,2.708,0,0,0-2.773-.64V28.387h9.758A2.661,2.661,0,0,0,55,25.726V4.435a2.661,2.661,0,0,0-2.661-2.661ZM43.468,32.823a.864.864,0,0,1,.632.271.849.849,0,0,1,.255.616v6.21a.887.887,0,0,0,1.774,0V35.484a.887.887,0,0,1,.887-.887.864.864,0,0,1,.632.271.849.849,0,0,1,.255.616v4.435a.887.887,0,0,0,1.774,0V37.258a.887.887,0,0,1,.887-.887.864.864,0,0,1,.632.271.849.849,0,0,1,.255.616V48.524l-1.625,2.438a.892.892,0,0,0-.149.49v1.774H39.014l-.036-1.7a.887.887,0,0,0-.209-.555l-2.5-2.95-3.642-10.58.811-.218a.9.9,0,0,1,.681.089.869.869,0,0,1,.41.532c.013.052,2.815,6,2.815,6a.887.887,0,0,0,1.689-.37V25.825a.96.96,0,0,1,.8-.986.864.864,0,0,1,.714.266.849.849,0,0,1,.255.621V39.919a.887.887,0,0,0,1.774,0V33.71a.887.887,0,0,1,.887-.887Zm9.758-7.1a.887.887,0,0,1-.887.887H42.581v-.887a2.6,2.6,0,0,0-.775-1.87,2.631,2.631,0,0,0-2.117-.782,2.73,2.73,0,0,0-2.43,2.751v.788H32.823a.887.887,0,0,1-.887-.887V4.435a.887.887,0,0,1,.887-.887H52.339a.887.887,0,0,1,.887.887Z" fill="#231f20"/>
          <path id="Trazado_873885" data-name="Trazado 873885" d="M42.581,7.1a7.1,7.1,0,1,0,0,14.194h3.548a.887.887,0,1,0,0-1.774H42.581A5.323,5.323,0,1,1,47.9,14.194v.887a.887.887,0,0,1-1.774,0v-.887a3.578,3.578,0,1,0-1.141,2.59,2.65,2.65,0,0,0,4.689-1.7v-.887a7.1,7.1,0,0,0-7.1-7.1Zm0,8.871a1.774,1.774,0,1,1,1.774-1.774A1.774,1.774,0,0,1,42.581,15.968Z" fill="#231f20"/>
        </g>
      </g>
    </g>
  </g>
</svg>
