<svg xmlns="http://www.w3.org/2000/svg" width="820" height="338.75" viewBox="0 0 820 338.75">
  <g id="Grupo_1100756" data-name="Grupo 1100756" transform="translate(-390 -398)">
    <path id="Trazado_876205" data-name="Trazado 876205" d="M34,0H366a34,34,0,0,1,0,68H34A34,34,0,0,1,34,0Z" transform="translate(600.333 398)" fill="#7d6eb2"/>
    <path id="Trazado_876206" data-name="Trazado 876206" d="M10,0H285a10,10,0,0,1,10,10V33a10,10,0,0,1-10,10H10A10,10,0,0,1,0,33V10A10,10,0,0,1,10,0Z" transform="translate(390 528)" fill="#26aab7"/>
    <path id="Trazado_876207" data-name="Trazado 876207" d="M10,0H285a10,10,0,0,1,10,10V33a10,10,0,0,1-10,10H10A10,10,0,0,1,0,33V10A10,10,0,0,1,10,0Z" transform="translate(915 528)" fill="#26aab7"/>
    <path id="Trazado_876208" data-name="Trazado 876208" d="M-114.341-4.824V0h-3.428V-14.219h5.674a6.608,6.608,0,0,1,2.886.6,4.526,4.526,0,0,1,1.943,1.709,4.667,4.667,0,0,1,.688,2.515,4.114,4.114,0,0,1-1.489,3.325,6.179,6.179,0,0,1-4.087,1.245Zm0-2.646h2.246a2.118,2.118,0,0,0,1.519-.5,1.85,1.85,0,0,0,.522-1.406,2.287,2.287,0,0,0-.537-1.592,1.9,1.9,0,0,0-1.465-.605h-2.285Zm15.83-.117-1.084-.078a1.947,1.947,0,0,0-1.992.977V0h-3.291V-10.566h3.086l.107,1.357a2.548,2.548,0,0,1,2.314-1.553,3.209,3.209,0,0,1,.918.117ZM-92.4.2a5.432,5.432,0,0,1-3.936-1.45,5.008,5.008,0,0,1-1.5-3.774V-5.3a6.489,6.489,0,0,1,.6-2.861,4.395,4.395,0,0,1,1.753-1.919,5.292,5.292,0,0,1,2.734-.679A4.574,4.574,0,0,1-89.233-9.38a5.43,5.43,0,0,1,1.289,3.853v1.279h-6.543a2.372,2.372,0,0,0,.771,1.4,2.3,2.3,0,0,0,1.543.508,2.958,2.958,0,0,0,2.441-1.094l1.5,1.777A4.2,4.2,0,0,1-89.971-.308,5.891,5.891,0,0,1-92.4.2Zm-.371-8.418q-1.445,0-1.719,1.914h3.32v-.254a1.63,1.63,0,0,0-.4-1.226A1.593,1.593,0,0,0-92.769-8.223Zm15.352,3.613,1.758-5.957h3.525L-76.44,1.768l-.186.449a3.272,3.272,0,0,1-3.242,2.051,5.158,5.158,0,0,1-1.357-.195V1.729h.43a2.251,2.251,0,0,0,1.06-.2A1.216,1.216,0,0,0-79.194.81l.264-.7L-82.6-10.566h3.516Zm14.7-.215V0h-3.428V-14.219h5.674a6.608,6.608,0,0,1,2.886.6,4.526,4.526,0,0,1,1.943,1.709,4.667,4.667,0,0,1,.688,2.515,4.114,4.114,0,0,1-1.489,3.325,6.179,6.179,0,0,1-4.087,1.245Zm0-2.646h2.246a2.118,2.118,0,0,0,1.519-.5,1.85,1.85,0,0,0,.522-1.406,2.287,2.287,0,0,0-.537-1.592,1.9,1.9,0,0,0-1.465-.605H-62.72Zm8.9,2.09A6.236,6.236,0,0,1-53.208-8.2a4.4,4.4,0,0,1,1.768-1.9,5.323,5.323,0,0,1,2.705-.664A4.858,4.858,0,0,1-45-9.292a5.64,5.64,0,0,1,1.367,4v.117A5.472,5.472,0,0,1-45-1.255,4.871,4.871,0,0,1-48.716.2a4.927,4.927,0,0,1-3.623-1.353,5.29,5.29,0,0,1-1.475-3.667Zm3.291.205a3.932,3.932,0,0,0,.459,2.148,1.529,1.529,0,0,0,1.357.684q1.758,0,1.8-2.705v-.332q0-2.842-1.816-2.842-1.65,0-1.787,2.451Zm13.887,2.207a.76.76,0,0,0-.439-.674,6.685,6.685,0,0,0-1.67-.527,7.615,7.615,0,0,1-2.031-.718,3.4,3.4,0,0,1-1.221-1.079,2.577,2.577,0,0,1-.42-1.455,2.92,2.92,0,0,1,1.2-2.4,4.948,4.948,0,0,1,3.145-.942,5.482,5.482,0,0,1,3.359.947,2.962,2.962,0,0,1,1.27,2.49h-3.3q0-1.27-1.338-1.27a1.326,1.326,0,0,0-.869.288.892.892,0,0,0-.352.718.819.819,0,0,0,.43.713,4.06,4.06,0,0,0,1.372.449,11.857,11.857,0,0,1,1.655.42,3.007,3.007,0,0,1,2.383,2.939A2.767,2.767,0,0,1-34.756-.713,5.632,5.632,0,0,1-38.081.2,5.747,5.747,0,0,1-40.5-.293a4.05,4.05,0,0,1-1.66-1.328,3.007,3.007,0,0,1-.6-1.768h3.076a1.272,1.272,0,0,0,.488,1.069,2.009,2.009,0,0,0,1.2.337,1.58,1.58,0,0,0,1.011-.273A.875.875,0,0,0-36.646-2.969ZM-28.1-13.193v2.627h1.738v2.285H-28.1v4.834a1.234,1.234,0,0,0,.215.83,1.152,1.152,0,0,0,.85.234,4.828,4.828,0,0,0,.82-.059V-.088A6.074,6.074,0,0,1-28.071.2a3.448,3.448,0,0,1-2.51-.8,3.282,3.282,0,0,1-.811-2.432V-8.281h-1.348v-2.285h1.348v-2.627ZM-19.956.2a5.432,5.432,0,0,1-3.936-1.45,5.008,5.008,0,0,1-1.5-3.774V-5.3a6.489,6.489,0,0,1,.6-2.861,4.395,4.395,0,0,1,1.753-1.919,5.292,5.292,0,0,1,2.734-.679A4.574,4.574,0,0,1-16.792-9.38,5.43,5.43,0,0,1-15.5-5.527v1.279h-6.543a2.372,2.372,0,0,0,.771,1.4,2.3,2.3,0,0,0,1.543.508A2.958,2.958,0,0,0-17.29-3.437l1.5,1.777A4.2,4.2,0,0,1-17.529-.308,5.891,5.891,0,0,1-19.956.2Zm-.371-8.418q-1.445,0-1.719,1.914h3.32v-.254a1.63,1.63,0,0,0-.4-1.226A1.593,1.593,0,0,0-20.327-8.223Zm11.68,5.254a.76.76,0,0,0-.439-.674,6.685,6.685,0,0,0-1.67-.527,7.615,7.615,0,0,1-2.031-.718,3.4,3.4,0,0,1-1.221-1.079,2.577,2.577,0,0,1-.42-1.455,2.92,2.92,0,0,1,1.2-2.4,4.948,4.948,0,0,1,3.145-.942,5.482,5.482,0,0,1,3.359.947,2.962,2.962,0,0,1,1.27,2.49h-3.3q0-1.27-1.338-1.27a1.326,1.326,0,0,0-.869.288.892.892,0,0,0-.352.718.819.819,0,0,0,.43.713,4.06,4.06,0,0,0,1.372.449,11.857,11.857,0,0,1,1.655.42A3.007,3.007,0,0,1-5.474-3.066,2.767,2.767,0,0,1-6.758-.713,5.632,5.632,0,0,1-10.083.2,5.747,5.747,0,0,1-12.5-.293a4.05,4.05,0,0,1-1.66-1.328,3.007,3.007,0,0,1-.6-1.768h3.076A1.272,1.272,0,0,0-11.2-2.319a2.009,2.009,0,0,0,1.2.337,1.58,1.58,0,0,0,1.011-.273A.875.875,0,0,0-8.647-2.969ZM-.1-13.193v2.627H1.636v2.285H-.1v4.834a1.234,1.234,0,0,0,.215.83,1.152,1.152,0,0,0,.85.234,4.828,4.828,0,0,0,.82-.059V-.088A6.074,6.074,0,0,1-.073.2a3.448,3.448,0,0,1-2.51-.8,3.282,3.282,0,0,1-.811-2.432V-8.281H-4.741v-2.285h1.348v-2.627ZM7.5-5.361A6.455,6.455,0,0,1,8.579-9.316a3.568,3.568,0,0,1,3.027-1.445,3.035,3.035,0,0,1,2.383,1.113V-15h3.3V0H14.331l-.166-1.133A3.116,3.116,0,0,1,11.587.2,3.562,3.562,0,0,1,8.6-1.25,6.659,6.659,0,0,1,7.5-5.361Zm3.291.205q0,2.813,1.641,2.813a1.62,1.62,0,0,0,1.563-.918V-7.285a1.576,1.576,0,0,0-1.543-.937q-1.523,0-1.65,2.461ZM24.272.2a5.432,5.432,0,0,1-3.936-1.45,5.008,5.008,0,0,1-1.5-3.774V-5.3a6.489,6.489,0,0,1,.6-2.861,4.395,4.395,0,0,1,1.753-1.919,5.292,5.292,0,0,1,2.734-.679A4.574,4.574,0,0,1,27.437-9.38a5.43,5.43,0,0,1,1.289,3.853v1.279H22.183a2.372,2.372,0,0,0,.771,1.4,2.3,2.3,0,0,0,1.543.508,2.958,2.958,0,0,0,2.441-1.094l1.5,1.777A4.2,4.2,0,0,1,26.7-.308,5.891,5.891,0,0,1,24.272.2ZM23.9-8.223q-1.445,0-1.719,1.914H25.5v-.254a1.63,1.63,0,0,0-.4-1.226A1.593,1.593,0,0,0,23.9-8.223ZM46.685-4.814a5.193,5.193,0,0,1-.8,2.622A4.833,4.833,0,0,1,43.828-.43,7,7,0,0,1,40.806.2a5.584,5.584,0,0,1-4.414-1.826A7.54,7.54,0,0,1,34.78-6.787v-.7a8.607,8.607,0,0,1,.728-3.657A5.513,5.513,0,0,1,37.6-13.569a5.844,5.844,0,0,1,3.164-.854,6.129,6.129,0,0,1,4.16,1.362,5.383,5.383,0,0,1,1.787,3.755H43.3a2.547,2.547,0,0,0-.654-1.865,2.691,2.691,0,0,0-1.875-.566,2.048,2.048,0,0,0-1.875.957,6.151,6.151,0,0,0-.625,3.057v1.006a6.806,6.806,0,0,0,.571,3.252,2.091,2.091,0,0,0,1.968.977,2.632,2.632,0,0,0,1.807-.557,2.363,2.363,0,0,0,.664-1.768ZM54.106,0a3.716,3.716,0,0,1-.312-.947A3.06,3.06,0,0,1,51.255.2a3.749,3.749,0,0,1-2.539-.9,2.875,2.875,0,0,1-1.045-2.271,2.955,2.955,0,0,1,1.27-2.6,6.468,6.468,0,0,1,3.691-.879h1.016v-.559q0-1.462-1.26-1.462a1.03,1.03,0,0,0-1.172,1.158H47.925a2.95,2.95,0,0,1,1.3-2.487,5.479,5.479,0,0,1,3.325-.956,4.8,4.8,0,0,1,3.193.986,3.429,3.429,0,0,1,1.2,2.705v4.678A4.79,4.79,0,0,0,57.4-.166V0ZM52.046-2.148a1.836,1.836,0,0,0,1.021-.264,1.653,1.653,0,0,0,.581-.6V-4.7H52.69q-1.719,0-1.719,1.543a.942.942,0,0,0,.3.728A1.1,1.1,0,0,0,52.046-2.148Zm9.834-8.418.107,1.24A3.633,3.633,0,0,1,65-10.762,2.675,2.675,0,0,1,67.71-9.17a3.517,3.517,0,0,1,3.105-1.592q3.213,0,3.3,3.887V0h-3.3V-6.67a2.014,2.014,0,0,0-.273-1.182,1.164,1.164,0,0,0-1-.371,1.559,1.559,0,0,0-1.455.869l.01.137V0H64.8V-6.65a2.117,2.117,0,0,0-.264-1.2,1.161,1.161,0,0,0-1.006-.371,1.578,1.578,0,0,0-1.445.869V0H58.794V-10.566ZM85.806-5.205A6.372,6.372,0,0,1,84.7-1.274,3.554,3.554,0,0,1,81.7.2,3.046,3.046,0,0,1,79.312-.869V4.063H76.021V-10.566H79.1l.1.977a3.046,3.046,0,0,1,2.49-1.172,3.582,3.582,0,0,1,3.037,1.44,6.45,6.45,0,0,1,1.084,3.96ZM82.515-5.41q0-2.812-1.641-2.812a1.549,1.549,0,0,0-1.562.84v4.16a1.6,1.6,0,0,0,1.582.879q1.572,0,1.621-2.715ZM93.208,0A3.716,3.716,0,0,1,92.9-.947,3.06,3.06,0,0,1,90.356.2a3.749,3.749,0,0,1-2.539-.9,2.875,2.875,0,0,1-1.045-2.271,2.955,2.955,0,0,1,1.27-2.6,6.468,6.468,0,0,1,3.691-.879h1.016v-.559q0-1.462-1.26-1.462a1.03,1.03,0,0,0-1.172,1.158H87.026a2.95,2.95,0,0,1,1.3-2.487,5.479,5.479,0,0,1,3.325-.956,4.8,4.8,0,0,1,3.193.986,3.429,3.429,0,0,1,1.2,2.705v4.678A4.79,4.79,0,0,0,96.5-.166V0ZM91.147-2.148a1.836,1.836,0,0,0,1.021-.264,1.653,1.653,0,0,0,.581-.6V-4.7h-.957q-1.719,0-1.719,1.543a.942.942,0,0,0,.3.728A1.1,1.1,0,0,0,91.147-2.148Zm9.746-8.418L101-9.326a3.583,3.583,0,0,1,3.018-1.436,3.015,3.015,0,0,1,2.466.986,4.7,4.7,0,0,1,.845,2.969V0h-3.3V-6.67a1.783,1.783,0,0,0-.322-1.177,1.491,1.491,0,0,0-1.172-.376,1.569,1.569,0,0,0-1.436.762V0H97.808V-10.566Zm5.459-4.355a2.847,2.847,0,0,1-.649,1.89,2.015,2.015,0,0,1-1.606.776,3.169,3.169,0,0,1-1.436-.41,2.994,2.994,0,0,0-1.279-.41.733.733,0,0,0-.532.215.892.892,0,0,0-.22.664l-1.826-.1a2.863,2.863,0,0,1,.649-1.875,1.992,1.992,0,0,1,1.6-.791,3.3,3.3,0,0,1,1.279.361,7.856,7.856,0,0,0,1,.41,1.934,1.934,0,0,0,.444.049.746.746,0,0,0,.537-.217.9.9,0,0,0,.225-.671ZM115.1,0a3.716,3.716,0,0,1-.312-.947A3.06,3.06,0,0,1,112.251.2a3.749,3.749,0,0,1-2.539-.9,2.875,2.875,0,0,1-1.045-2.271,2.955,2.955,0,0,1,1.27-2.6,6.468,6.468,0,0,1,3.691-.879h1.016v-.559q0-1.462-1.26-1.462a1.03,1.03,0,0,0-1.172,1.158h-3.291a2.95,2.95,0,0,1,1.3-2.487,5.479,5.479,0,0,1,3.325-.956,4.8,4.8,0,0,1,3.193.986,3.429,3.429,0,0,1,1.2,2.705v4.678a4.79,4.79,0,0,0,.449,2.227V0Zm-2.061-2.148a1.836,1.836,0,0,0,1.021-.264,1.653,1.653,0,0,0,.581-.6V-4.7h-.957q-1.719,0-1.719,1.543a.942.942,0,0,0,.3.728A1.1,1.1,0,0,0,113.042-2.148Z" transform="translate(800.333 438)" fill="#fff"/>
    <path id="Trazado_876209" data-name="Trazado 876209" d="M-125.68-11.375l2.922,8.25,2.906-8.25h3.078V0h-2.352V-3.109l.234-5.367L-121.961,0h-1.609l-3.062-8.469.234,5.359V0h-2.344V-11.375Zm14.7,11.531a4.15,4.15,0,0,1-3.027-1.141,4.054,4.054,0,0,1-1.168-3.039v-.219a5.106,5.106,0,0,1,.492-2.277,3.612,3.612,0,0,1,1.395-1.547,3.914,3.914,0,0,1,2.059-.543,3.508,3.508,0,0,1,2.73,1.094,4.444,4.444,0,0,1,1,3.1v.922h-5.383a2.1,2.1,0,0,0,.66,1.328,2,2,0,0,0,1.395.5,2.437,2.437,0,0,0,2.039-.945l1.109,1.242a3.389,3.389,0,0,1-1.375,1.121A4.511,4.511,0,0,1-110.984.156Zm-.258-6.945a1.411,1.411,0,0,0-1.09.455,2.357,2.357,0,0,0-.535,1.3h3.141v-.181a1.681,1.681,0,0,0-.406-1.165A1.456,1.456,0,0,0-111.242-6.789Zm4.664,2.5a5.094,5.094,0,0,1,.887-3.148,2.877,2.877,0,0,1,2.426-1.172,2.589,2.589,0,0,1,2.039.922V-12h2.266V0H-101l-.109-.9A2.657,2.657,0,0,1-103.281.156a2.869,2.869,0,0,1-2.395-1.176A5.258,5.258,0,0,1-106.578-4.289Zm2.258.161a3.355,3.355,0,0,0,.414,1.829,1.348,1.348,0,0,0,1.2.636,1.51,1.51,0,0,0,1.477-.887V-5.9a1.489,1.489,0,0,0-1.461-.887Q-104.32-6.789-104.32-4.128ZM-94.828,0h-2.266V-8.453h2.266Zm-2.4-10.641a1.112,1.112,0,0,1,.34-.836,1.277,1.277,0,0,1,.926-.328,1.28,1.28,0,0,1,.922.328,1.105,1.105,0,0,1,.344.836,1.108,1.108,0,0,1-.348.844,1.283,1.283,0,0,1-.918.328,1.283,1.283,0,0,1-.918-.328A1.108,1.108,0,0,1-97.227-10.641Zm7.773,8.977a1.481,1.481,0,0,0,1.016-.344,1.2,1.2,0,0,0,.406-.914h2.117a2.9,2.9,0,0,1-.469,1.574A3.093,3.093,0,0,1-87.645-.238a3.949,3.949,0,0,1-1.77.395A3.67,3.67,0,0,1-92.273-1,4.56,4.56,0,0,1-93.32-4.18v-.148a4.508,4.508,0,0,1,1.039-3.117A3.627,3.627,0,0,1-89.43-8.609a3.555,3.555,0,0,1,2.543.9,3.2,3.2,0,0,1,.973,2.4h-2.117a1.551,1.551,0,0,0-.406-1.072,1.354,1.354,0,0,0-1.031-.412,1.36,1.36,0,0,0-1.191.575,3.333,3.333,0,0,0-.4,1.866v.235a3.375,3.375,0,0,0,.4,1.878A1.377,1.377,0,0,0-89.453-1.664ZM-82.242,0h-2.266V-8.453h2.266Zm-2.4-10.641a1.112,1.112,0,0,1,.34-.836,1.277,1.277,0,0,1,.926-.328,1.28,1.28,0,0,1,.922.328,1.105,1.105,0,0,1,.344.836,1.108,1.108,0,0,1-.348.844,1.283,1.283,0,0,1-.918.328,1.283,1.283,0,0,1-.918-.328A1.108,1.108,0,0,1-84.641-10.641ZM-80.734-4.3a5.013,5.013,0,0,1,.484-2.242A3.546,3.546,0,0,1-78.855-8.07a4.069,4.069,0,0,1,2.113-.539,3.849,3.849,0,0,1,2.793,1.047,4.2,4.2,0,0,1,1.207,2.844l.016.578A4.418,4.418,0,0,1-73.812-1.02,3.775,3.775,0,0,1-76.727.156a3.793,3.793,0,0,1-2.918-1.172A4.5,4.5,0,0,1-80.734-4.2Zm2.258.16A3.16,3.16,0,0,0-78.023-2.3a1.5,1.5,0,0,0,1.3.638,1.5,1.5,0,0,0,1.281-.63,3.457,3.457,0,0,0,.461-2.015,3.128,3.128,0,0,0-.461-1.831,1.5,1.5,0,0,0-1.3-.649,1.474,1.474,0,0,0-1.281.646A3.516,3.516,0,0,0-78.477-4.144ZM-76.3-12h2.461L-76-9.578h-1.836Zm7.039,3.547.07.977a2.951,2.951,0,0,1,2.43-1.133,2.453,2.453,0,0,1,2,.789,3.682,3.682,0,0,1,.672,2.359V0h-2.258V-5.419a1.47,1.47,0,0,0-.312-1.045A1.4,1.4,0,0,0-67.7-6.789a1.553,1.553,0,0,0-1.43.814V0h-2.258V-8.453Zm10.516,4.164a5.094,5.094,0,0,1,.887-3.148A2.877,2.877,0,0,1-55.43-8.609a2.589,2.589,0,0,1,2.039.922V-12h2.266V0h-2.039l-.109-.9A2.657,2.657,0,0,1-55.445.156,2.869,2.869,0,0,1-57.84-1.02,5.258,5.258,0,0,1-58.742-4.289Zm2.258.161A3.355,3.355,0,0,0-56.07-2.3a1.348,1.348,0,0,0,1.2.636,1.51,1.51,0,0,0,1.477-.887V-5.9a1.489,1.489,0,0,0-1.461-.887Q-56.484-6.789-56.484-4.128Zm11,4.285A4.15,4.15,0,0,1-48.512-.984,4.054,4.054,0,0,1-49.68-4.023v-.219a5.106,5.106,0,0,1,.492-2.277,3.612,3.612,0,0,1,1.395-1.547,3.914,3.914,0,0,1,2.059-.543A3.508,3.508,0,0,1-43-7.516a4.444,4.444,0,0,1,1,3.1v.922h-5.383a2.1,2.1,0,0,0,.66,1.328,2,2,0,0,0,1.395.5A2.437,2.437,0,0,0-43.3-2.609l1.109,1.242A3.389,3.389,0,0,1-43.562-.246,4.511,4.511,0,0,1-45.484.156Zm-.258-6.945a1.411,1.411,0,0,0-1.09.455,2.357,2.357,0,0,0-.535,1.3h3.141v-.181a1.681,1.681,0,0,0-.406-1.165A1.456,1.456,0,0,0-45.742-6.789ZM-34.359,0h-2.266V-12h2.266ZM-27.6,0a2.507,2.507,0,0,1-.227-.758,2.732,2.732,0,0,1-2.133.914A3,3,0,0,1-32.02-.562a2.312,2.312,0,0,1-.816-1.812,2.389,2.389,0,0,1,1-2.062,4.915,4.915,0,0,1,2.879-.727h1.039v-.484a1.393,1.393,0,0,0-.3-.937,1.183,1.183,0,0,0-.949-.352,1.345,1.345,0,0,0-.895.273.929.929,0,0,0-.324.75h-2.258A2.268,2.268,0,0,1-32.2-7.273a3,3,0,0,1,1.281-.98,4.669,4.669,0,0,1,1.859-.355,3.689,3.689,0,0,1,2.48.785,2.747,2.747,0,0,1,.918,2.207v3.664a4.041,4.041,0,0,0,.336,1.82V0Zm-1.867-1.57a1.945,1.945,0,0,0,.922-.223,1.462,1.462,0,0,0,.625-.6V-3.844h-.844q-1.7,0-1.8,1.172l-.008.133a.9.9,0,0,0,.3.7A1.153,1.153,0,0,0-29.469-1.57Zm13.047-.094a1.481,1.481,0,0,0,1.016-.344A1.2,1.2,0,0,0-15-2.922h2.117a2.9,2.9,0,0,1-.469,1.574A3.093,3.093,0,0,1-14.613-.238a3.949,3.949,0,0,1-1.77.395A3.67,3.67,0,0,1-19.242-1,4.56,4.56,0,0,1-20.289-4.18v-.148A4.508,4.508,0,0,1-19.25-7.445,3.627,3.627,0,0,1-16.4-8.609a3.555,3.555,0,0,1,2.543.9,3.2,3.2,0,0,1,.973,2.4H-15a1.551,1.551,0,0,0-.406-1.072,1.354,1.354,0,0,0-1.031-.412,1.36,1.36,0,0,0-1.191.575,3.333,3.333,0,0,0-.4,1.866v.235a3.375,3.375,0,0,0,.4,1.878A1.377,1.377,0,0,0-16.422-1.664ZM-6.7,0a2.507,2.507,0,0,1-.227-.758A2.732,2.732,0,0,1-9.055.156a3,3,0,0,1-2.059-.719,2.312,2.312,0,0,1-.816-1.812,2.389,2.389,0,0,1,1-2.062,4.915,4.915,0,0,1,2.879-.727h1.039v-.484a1.393,1.393,0,0,0-.3-.937,1.183,1.183,0,0,0-.949-.352,1.345,1.345,0,0,0-.895.273.929.929,0,0,0-.324.75h-2.258a2.268,2.268,0,0,1,.453-1.359,3,3,0,0,1,1.281-.98,4.669,4.669,0,0,1,1.859-.355,3.689,3.689,0,0,1,2.48.785A2.747,2.747,0,0,1-4.75-5.617v3.664a4.041,4.041,0,0,0,.336,1.82V0ZM-8.562-1.57a1.945,1.945,0,0,0,.922-.223,1.462,1.462,0,0,0,.625-.6V-3.844h-.844q-1.7,0-1.8,1.172l-.008.133a.9.9,0,0,0,.3.7A1.153,1.153,0,0,0-8.562-1.57ZM-.9-8.453l.07.945a2.971,2.971,0,0,1,2.43-1.1A2.255,2.255,0,0,1,3.844-7.32,2.9,2.9,0,0,1,6.383-8.609a2.521,2.521,0,0,1,2.047.8A3.681,3.681,0,0,1,9.1-5.4V0H6.836V-5.4a1.616,1.616,0,0,0-.281-1.053,1.245,1.245,0,0,0-.992-.333,1.409,1.409,0,0,0-1.406.971L4.164,0H1.906V-5.4A1.6,1.6,0,0,0,1.617-6.46a1.257,1.257,0,0,0-.984-.329,1.463,1.463,0,0,0-1.391.8V0H-3.016V-8.453Zm19.344,4.3a5.07,5.07,0,0,1-.887,3.129A2.843,2.843,0,0,1,15.164.156a2.633,2.633,0,0,1-2.07-.891V3.25H10.836v-11.7H12.93l.078.828a2.654,2.654,0,0,1,2.141-.984,2.862,2.862,0,0,1,2.43,1.156,5.207,5.207,0,0,1,.867,3.188Zm-2.258-.172a3.345,3.345,0,0,0-.418-1.826,1.36,1.36,0,0,0-1.215-.643,1.478,1.478,0,0,0-1.461.815V-2.5a1.5,1.5,0,0,0,1.477.839Q16.188-1.664,16.188-4.321ZM24.742,0a2.507,2.507,0,0,1-.227-.758,2.732,2.732,0,0,1-2.133.914,3,3,0,0,1-2.059-.719,2.312,2.312,0,0,1-.816-1.812,2.389,2.389,0,0,1,1-2.062,4.915,4.915,0,0,1,2.879-.727h1.039v-.484a1.393,1.393,0,0,0-.3-.937,1.183,1.183,0,0,0-.949-.352,1.345,1.345,0,0,0-.895.273.929.929,0,0,0-.324.75H19.7a2.268,2.268,0,0,1,.453-1.359,3,3,0,0,1,1.281-.98,4.669,4.669,0,0,1,1.859-.355,3.689,3.689,0,0,1,2.48.785,2.747,2.747,0,0,1,.918,2.207v3.664a4.041,4.041,0,0,0,.336,1.82V0ZM22.875-1.57a1.945,1.945,0,0,0,.922-.223,1.462,1.462,0,0,0,.625-.6V-3.844h-.844q-1.7,0-1.8,1.172l-.008.133a.9.9,0,0,0,.3.7A1.153,1.153,0,0,0,22.875-1.57ZM30.5-8.453l.07.977A2.951,2.951,0,0,1,33-8.609a2.453,2.453,0,0,1,2,.789,3.682,3.682,0,0,1,.672,2.359V0H33.414V-5.419A1.47,1.47,0,0,0,33.1-6.464a1.4,1.4,0,0,0-1.039-.325,1.553,1.553,0,0,0-1.43.814V0H28.375V-8.453ZM34.984-11.9a2.187,2.187,0,0,1-.516,1.48,1.6,1.6,0,0,1-1.258.6,1.908,1.908,0,0,1-.527-.066,3.539,3.539,0,0,1-.637-.285,3.435,3.435,0,0,0-.586-.27,1.432,1.432,0,0,0-.391-.051.627.627,0,0,0-.465.2.759.759,0,0,0-.191.555L29.1-9.82a2.22,2.22,0,0,1,.512-1.477,1.578,1.578,0,0,1,1.254-.609,1.614,1.614,0,0,1,.441.059,4.86,4.86,0,0,1,.676.285,4.392,4.392,0,0,0,.648.273,1.48,1.48,0,0,0,.375.047.659.659,0,0,0,.473-.191.728.728,0,0,0,.2-.551ZM42.281,0a2.507,2.507,0,0,1-.227-.758,2.732,2.732,0,0,1-2.133.914,3,3,0,0,1-2.059-.719,2.312,2.312,0,0,1-.816-1.812,2.389,2.389,0,0,1,1-2.062,4.915,4.915,0,0,1,2.879-.727h1.039v-.484a1.393,1.393,0,0,0-.3-.937,1.183,1.183,0,0,0-.949-.352,1.345,1.345,0,0,0-.895.273.929.929,0,0,0-.324.75H37.234a2.268,2.268,0,0,1,.453-1.359,3,3,0,0,1,1.281-.98,4.669,4.669,0,0,1,1.859-.355,3.689,3.689,0,0,1,2.48.785,2.747,2.747,0,0,1,.918,2.207v3.664a4.041,4.041,0,0,0,.336,1.82V0ZM40.414-1.57a1.945,1.945,0,0,0,.922-.223,1.462,1.462,0,0,0,.625-.6V-3.844h-.844q-1.7,0-1.8,1.172l-.008.133a.9.9,0,0,0,.3.7A1.153,1.153,0,0,0,40.414-1.57ZM57.555-4.148a5.07,5.07,0,0,1-.887,3.129A2.843,2.843,0,0,1,54.273.156,2.633,2.633,0,0,1,52.2-.734V3.25H49.945v-11.7h2.094l.078.828a2.654,2.654,0,0,1,2.141-.984,2.862,2.862,0,0,1,2.43,1.156,5.207,5.207,0,0,1,.867,3.188ZM55.3-4.321a3.345,3.345,0,0,0-.418-1.826,1.36,1.36,0,0,0-1.215-.643,1.478,1.478,0,0,0-1.461.815V-2.5a1.5,1.5,0,0,0,1.477.839Q55.3-1.664,55.3-4.321ZM64.016-.859A2.831,2.831,0,0,1,61.7.156a2.67,2.67,0,0,1-2.074-.781,3.335,3.335,0,0,1-.73-2.289V-8.453h2.258v5.467q0,1.322,1.2,1.322a1.63,1.63,0,0,0,1.578-.8V-8.453H66.2V0H64.078ZM75.523-4.148A5.119,5.119,0,0,1,74.656-.98,2.872,2.872,0,0,1,72.234.156,2.639,2.639,0,0,1,70.039-.9l-.1.9H67.906V-12h2.258v4.3a2.571,2.571,0,0,1,2.055-.914,2.9,2.9,0,0,1,2.426,1.137,5.126,5.126,0,0,1,.879,3.2Zm-2.258-.172A3.381,3.381,0,0,0,72.859-6.2a1.372,1.372,0,0,0-1.211-.592,1.489,1.489,0,0,0-1.484.885v3.346a1.509,1.509,0,0,0,1.5.893A1.4,1.4,0,0,0,73.1-2.745,5.6,5.6,0,0,0,73.266-4.321ZM79.3,0H77.031V-12H79.3Zm4.242,0H81.273V-8.453h2.266Zm-2.4-10.641a1.112,1.112,0,0,1,.34-.836,1.277,1.277,0,0,1,.926-.328,1.28,1.28,0,0,1,.922.328,1.105,1.105,0,0,1,.344.836,1.108,1.108,0,0,1-.348.844,1.283,1.283,0,0,1-.918.328,1.283,1.283,0,0,1-.918-.328A1.108,1.108,0,0,1,81.141-10.641Zm7.773,8.977a1.481,1.481,0,0,0,1.016-.344,1.2,1.2,0,0,0,.406-.914h2.117a2.9,2.9,0,0,1-.469,1.574A3.093,3.093,0,0,1,90.723-.238a3.949,3.949,0,0,1-1.77.395A3.67,3.67,0,0,1,86.094-1,4.56,4.56,0,0,1,85.047-4.18v-.148a4.508,4.508,0,0,1,1.039-3.117,3.627,3.627,0,0,1,2.852-1.164,3.555,3.555,0,0,1,2.543.9,3.2,3.2,0,0,1,.973,2.4H90.336a1.551,1.551,0,0,0-.406-1.072A1.354,1.354,0,0,0,88.9-6.789a1.36,1.36,0,0,0-1.191.575,3.333,3.333,0,0,0-.4,1.866v.235a3.375,3.375,0,0,0,.4,1.878A1.377,1.377,0,0,0,88.914-1.664ZM96.125,0H93.859V-8.453h2.266Zm-2.4-10.641a1.112,1.112,0,0,1,.34-.836,1.277,1.277,0,0,1,.926-.328,1.28,1.28,0,0,1,.922.328,1.105,1.105,0,0,1,.344.836,1.108,1.108,0,0,1-.348.844,1.283,1.283,0,0,1-.918.328,1.283,1.283,0,0,1-.918-.328A1.108,1.108,0,0,1,93.727-10.641Zm6.961.109v2.078h1.445V-6.8h-1.445v4.219a1.007,1.007,0,0,0,.18.672.9.9,0,0,0,.688.2,3.6,3.6,0,0,0,.664-.055V-.047a4.648,4.648,0,0,1-1.367.2,2.156,2.156,0,0,1-2.422-2.4V-6.8H97.2V-8.453H98.43v-2.078ZM108.289,0a2.507,2.507,0,0,1-.227-.758,2.732,2.732,0,0,1-2.133.914,3,3,0,0,1-2.059-.719,2.312,2.312,0,0,1-.816-1.812,2.389,2.389,0,0,1,1-2.062,4.915,4.915,0,0,1,2.879-.727h1.039v-.484a1.393,1.393,0,0,0-.3-.937,1.183,1.183,0,0,0-.949-.352,1.345,1.345,0,0,0-.895.273.929.929,0,0,0-.324.75h-2.258a2.268,2.268,0,0,1,.453-1.359,3,3,0,0,1,1.281-.98,4.669,4.669,0,0,1,1.859-.355,3.689,3.689,0,0,1,2.48.785,2.747,2.747,0,0,1,.918,2.207v3.664a4.041,4.041,0,0,0,.336,1.82V0Zm-1.867-1.57a1.945,1.945,0,0,0,.922-.223,1.462,1.462,0,0,0,.625-.6V-3.844h-.844q-1.7,0-1.8,1.172l-.008.133a.9.9,0,0,0,.3.7A1.153,1.153,0,0,0,106.422-1.57Zm10.3-4.766a6.134,6.134,0,0,0-.812-.062,1.654,1.654,0,0,0-1.68.867V0h-2.258V-8.453H114.1l.063,1.008a2.092,2.092,0,0,1,1.883-1.164,2.366,2.366,0,0,1,.7.1ZM120.188,0h-2.266V-8.453h2.266Zm-2.4-10.641a1.112,1.112,0,0,1,.34-.836,1.277,1.277,0,0,1,.926-.328,1.28,1.28,0,0,1,.922.328,1.105,1.105,0,0,1,.344.836,1.108,1.108,0,0,1-.348.844,1.283,1.283,0,0,1-.918.328,1.283,1.283,0,0,1-.918-.328A1.108,1.108,0,0,1,117.789-10.641ZM126.945,0a2.507,2.507,0,0,1-.227-.758,2.732,2.732,0,0,1-2.133.914,3,3,0,0,1-2.059-.719,2.312,2.312,0,0,1-.816-1.812,2.389,2.389,0,0,1,1-2.062,4.915,4.915,0,0,1,2.879-.727h1.039v-.484a1.393,1.393,0,0,0-.3-.937,1.183,1.183,0,0,0-.949-.352,1.345,1.345,0,0,0-.895.273.929.929,0,0,0-.324.75H121.9a2.268,2.268,0,0,1,.453-1.359,3,3,0,0,1,1.281-.98,4.669,4.669,0,0,1,1.859-.355,3.689,3.689,0,0,1,2.48.785,2.747,2.747,0,0,1,.918,2.207v3.664a4.041,4.041,0,0,0,.336,1.82V0Zm-1.867-1.57A1.945,1.945,0,0,0,126-1.793a1.462,1.462,0,0,0,.625-.6V-3.844h-.844q-1.7,0-1.8,1.172l-.008.133a.9.9,0,0,0,.3.7A1.153,1.153,0,0,0,125.078-1.57Z" transform="translate(538 555)" fill="#12263f"/>
    <path id="Trazado_876210" data-name="Trazado 876210" d="M-7.734-4.164H-9.6V0h-2.344V-11.375h4.227a4.778,4.778,0,0,1,3.109.9A3.1,3.1,0,0,1-3.516-7.937,3.5,3.5,0,0,1-4.02-6,3.437,3.437,0,0,1-5.547-4.758L-3.086-.109V0H-5.6ZM-9.6-6.062h1.891a1.936,1.936,0,0,0,1.367-.449A1.606,1.606,0,0,0-5.859-7.75a1.719,1.719,0,0,0-.457-1.266,1.9,1.9,0,0,0-1.4-.461H-9.6ZM7.609-5.43a6.867,6.867,0,0,1-.594,2.945,4.472,4.472,0,0,1-1.7,1.953A4.7,4.7,0,0,1,2.781.156,4.732,4.732,0,0,1,.258-.523,4.515,4.515,0,0,1-1.461-2.465a6.67,6.67,0,0,1-.617-2.9V-5.93a6.831,6.831,0,0,1,.605-2.957A4.508,4.508,0,0,1,.238-10.848a4.706,4.706,0,0,1,2.527-.684,4.706,4.706,0,0,1,2.527.684A4.508,4.508,0,0,1,7-8.887a6.811,6.811,0,0,1,.605,2.949ZM5.234-5.945a4.787,4.787,0,0,0-.641-2.719,2.088,2.088,0,0,0-1.828-.93,2.088,2.088,0,0,0-1.82.918A4.732,4.732,0,0,0,.3-5.984v.555a4.847,4.847,0,0,0,.641,2.7,2.082,2.082,0,0,0,1.844.961,2.064,2.064,0,0,0,1.813-.926,4.819,4.819,0,0,0,.641-2.7ZM11.8,0H9.461V-11.375H11.8Z" transform="translate(1063 555)" fill="#12263f"/>
    <path id="Trazado_874028" data-name="Trazado 874028" d="M-12431-9552v-33h526.166v33" transform="translate(12968.498 10080)" fill="none" stroke="#7d6eb2" stroke-width="2"/>
    <path id="Trazado_876211" data-name="Trazado 876211" d="M0,0V29" transform="translate(800.833 466.5)" fill="none" stroke="#7d6eb2" stroke-width="2"/>
    <path id="Trazado_874960" data-name="Trazado 874960" d="M-12241.333-9484v148.5H-12208" transform="translate(12695.167 10055)" fill="none" stroke="#7d6eb2" stroke-width="2"/>
    <path id="Trazado_874963" data-name="Trazado 874963" d="M-12241.333-9484v148.5H-12208" transform="translate(13210 10055)" fill="none" stroke="#7d6eb2" stroke-width="2"/>
    <path id="Trazado_876212" data-name="Trazado 876212" d="M34,0H0" transform="translate(453.833 623.5)" fill="none" stroke="#7d6eb2" stroke-width="2"/>
    <path id="Trazado_876213" data-name="Trazado 876213" d="M34,0H0" transform="translate(968.667 623.5)" fill="none" stroke="#7d6eb2" stroke-width="2"/>
    <path id="Trazado_876214" data-name="Trazado 876214" d="M34,0H0" transform="translate(968.667 671.5)" fill="none" stroke="#7d6eb2" stroke-width="2"/>
    <path id="Trazado_876215" data-name="Trazado 876215" d="M10,0H187.5a10,10,0,0,1,10,10V51.5a10,10,0,0,1-10,10H10a10,10,0,0,1-10-10V10A10,10,0,0,1,10,0Z" transform="translate(487.167 606.25)" fill="#aee6e6"/>
    <path id="Trazado_876216" data-name="Trazado 876216" d="M10,0H144a10,10,0,0,1,10,10V24.5a10,10,0,0,1-10,10H10a10,10,0,0,1-10-10V10A10,10,0,0,1,10,0Z" transform="translate(1002.333 606.25)" fill="#aee6e6"/>
    <path id="Trazado_876217" data-name="Trazado 876217" d="M10,0H144a10,10,0,0,1,10,10V24.5a10,10,0,0,1-10,10H10a10,10,0,0,1-10-10V10A10,10,0,0,1,10,0Z" transform="translate(1002.333 654.25)" fill="#aee6e6"/>
    <path id="Trazado_876218" data-name="Trazado 876218" d="M10,0H187.5a10,10,0,0,1,10,10V24.5a10,10,0,0,1-10,10H10a10,10,0,0,1-10-10V10A10,10,0,0,1,10,0Z" transform="translate(487.167 702.25)" fill="#aee6e6"/>
    <path id="Trazado_876219" data-name="Trazado 876219" d="M10,0H144a10,10,0,0,1,10,10V24.5a10,10,0,0,1-10,10H10a10,10,0,0,1-10-10V10A10,10,0,0,1,10,0Z" transform="translate(1002.333 702.25)" fill="#aee6e6"/>
    <path id="Trazado_876220" data-name="Trazado 876220" d="M5.2,9.969a4.848,4.848,0,0,1-.242,1.681A3.266,3.266,0,0,1,4.1,12.87a9.105,9.105,0,0,0-.844.86,2.244,2.244,0,0,0-.336.571,1.725,1.725,0,0,0-.113.634,1.075,1.075,0,0,0,1.2,1.229,1.3,1.3,0,0,0,.957-.352,1.378,1.378,0,0,0,.371-.987H7.594a3.016,3.016,0,0,1-.961,2.342,3.753,3.753,0,0,1-2.586.841,3.841,3.841,0,0,1-2.586-.794A2.825,2.825,0,0,1,.539,14.95a3.486,3.486,0,0,1,1.2-2.44l.758-.727a2,2,0,0,0,.543-.735A3.223,3.223,0,0,0,3.2,9.969Zm.281-2.387a1.119,1.119,0,0,1-.359.857,1.277,1.277,0,0,1-.906.335,1.277,1.277,0,0,1-.906-.335,1.119,1.119,0,0,1-.359-.857A1.137,1.137,0,0,1,3.3,6.725a1.268,1.268,0,0,1,.918-.335,1.268,1.268,0,0,1,.918.335A1.137,1.137,0,0,1,5.484,7.582ZM18.3,9.57a6.853,6.853,0,0,1-.516,2.77,4.754,4.754,0,0,1-1.43,1.887l1.891,1.484-1.492,1.32-2.422-1.945a5.126,5.126,0,0,1-.859.07,4.732,4.732,0,0,1-2.523-.68,4.515,4.515,0,0,1-1.719-1.941,6.67,6.67,0,0,1-.617-2.9V9.07a6.831,6.831,0,0,1,.605-2.957,4.508,4.508,0,0,1,1.711-1.961,4.706,4.706,0,0,1,2.527-.684,4.706,4.706,0,0,1,2.527.684A4.508,4.508,0,0,1,17.7,6.113,6.811,6.811,0,0,1,18.3,9.063ZM15.93,9.055a4.787,4.787,0,0,0-.641-2.719,2.088,2.088,0,0,0-1.828-.93,2.088,2.088,0,0,0-1.82.918,4.732,4.732,0,0,0-.648,2.691V9.57a4.847,4.847,0,0,0,.641,2.7,2.082,2.082,0,0,0,1.844.961,2.064,2.064,0,0,0,1.813-.926,4.819,4.819,0,0,0,.641-2.7Zm9.008,5.086a2.831,2.831,0,0,1-2.312,1.016,2.67,2.67,0,0,1-2.074-.781,3.335,3.335,0,0,1-.73-2.289V6.547h2.258v5.467q0,1.322,1.2,1.322a1.63,1.63,0,0,0,1.578-.8V6.547h2.266V15H25Zm7.781,1.016a4.15,4.15,0,0,1-3.027-1.141,4.054,4.054,0,0,1-1.168-3.039v-.219a5.106,5.106,0,0,1,.492-2.277A3.612,3.612,0,0,1,30.41,6.934a3.914,3.914,0,0,1,2.059-.543A3.508,3.508,0,0,1,35.2,7.484a4.444,4.444,0,0,1,1,3.1v.922H30.813a2.1,2.1,0,0,0,.66,1.328,2,2,0,0,0,1.395.5,2.437,2.437,0,0,0,2.039-.945l1.109,1.242a3.389,3.389,0,0,1-1.375,1.121A4.511,4.511,0,0,1,32.719,15.156Zm-.258-6.945a1.411,1.411,0,0,0-1.09.455,2.357,2.357,0,0,0-.535,1.3h3.141V9.788a1.681,1.681,0,0,0-.406-1.165A1.456,1.456,0,0,0,32.461,8.211ZM32.664,3h2.461L32.961,5.422H31.125Zm13.375,9.664a.727.727,0,0,0-.41-.652,4.659,4.659,0,0,0-1.316-.426Q41.3,10.953,41.3,9.023a2.323,2.323,0,0,1,.934-1.879,3.766,3.766,0,0,1,2.441-.754,4.053,4.053,0,0,1,2.574.758,2.388,2.388,0,0,1,.965,1.969H45.953a1.092,1.092,0,0,0-.312-.8A1.322,1.322,0,0,0,44.664,8a1.351,1.351,0,0,0-.883.258.814.814,0,0,0-.312.656.7.7,0,0,0,.355.605,3.657,3.657,0,0,0,1.2.4,9.8,9.8,0,0,1,1.422.379,2.336,2.336,0,0,1,1.789,2.273,2.2,2.2,0,0,1-.992,1.871,4.28,4.28,0,0,1-2.562.715,4.47,4.47,0,0,1-1.887-.379A3.166,3.166,0,0,1,41.5,13.738a2.414,2.414,0,0,1-.469-1.426h2.141a1.179,1.179,0,0,0,.445.922,1.766,1.766,0,0,0,1.109.32,1.635,1.635,0,0,0,.98-.246A.766.766,0,0,0,46.039,12.664Zm7.539,2.492a4.15,4.15,0,0,1-3.027-1.141,4.054,4.054,0,0,1-1.168-3.039v-.219a5.106,5.106,0,0,1,.492-2.277A3.612,3.612,0,0,1,51.27,6.934a3.914,3.914,0,0,1,2.059-.543,3.508,3.508,0,0,1,2.73,1.094,4.444,4.444,0,0,1,1,3.1v.922H51.672a2.1,2.1,0,0,0,.66,1.328,2,2,0,0,0,1.395.5,2.437,2.437,0,0,0,2.039-.945l1.109,1.242A3.389,3.389,0,0,1,55.5,14.754,4.511,4.511,0,0,1,53.578,15.156ZM53.32,8.211a1.411,1.411,0,0,0-1.09.455,2.357,2.357,0,0,0-.535,1.3h3.141V9.788a1.681,1.681,0,0,0-.406-1.165A1.456,1.456,0,0,0,53.32,8.211Zm13.75.453a6.134,6.134,0,0,0-.812-.062,1.654,1.654,0,0,0-1.68.867V15H62.32V6.547h2.133l.063,1.008A2.092,2.092,0,0,1,66.4,6.391a2.366,2.366,0,0,1,.7.1ZM71.9,15.156a4.15,4.15,0,0,1-3.027-1.141A4.054,4.054,0,0,1,67.7,10.977v-.219A5.106,5.106,0,0,1,68.2,8.48,3.612,3.612,0,0,1,69.59,6.934a3.914,3.914,0,0,1,2.059-.543,3.508,3.508,0,0,1,2.73,1.094,4.444,4.444,0,0,1,1,3.1v.922H69.992a2.1,2.1,0,0,0,.66,1.328,2,2,0,0,0,1.395.5,2.437,2.437,0,0,0,2.039-.945L75.2,13.633a3.389,3.389,0,0,1-1.375,1.121A4.511,4.511,0,0,1,71.9,15.156Zm-.258-6.945a1.411,1.411,0,0,0-1.09.455,2.357,2.357,0,0,0-.535,1.3h3.141V9.788a1.681,1.681,0,0,0-.406-1.165A1.456,1.456,0,0,0,71.641,8.211ZM76.3,10.7a5.053,5.053,0,0,1,.887-3.148,2.9,2.9,0,0,1,2.434-1.156A2.6,2.6,0,0,1,81.789,7.43l.148-.883h1.984v11.7H81.656V14.273a2.6,2.6,0,0,1-2.047.883A2.878,2.878,0,0,1,77.2,13.984,5.3,5.3,0,0,1,76.3,10.7Zm2.258.16a3.315,3.315,0,0,0,.426,1.847,1.363,1.363,0,0,0,1.2.634,1.518,1.518,0,0,0,1.469-.829v-3.5a1.506,1.506,0,0,0-1.453-.8,1.38,1.38,0,0,0-1.211.634A3.661,3.661,0,0,0,78.563,10.856Zm12.2,3.285a2.831,2.831,0,0,1-2.312,1.016,2.67,2.67,0,0,1-2.074-.781,3.335,3.335,0,0,1-.73-2.289V6.547H87.9v5.467q0,1.322,1.2,1.322a1.63,1.63,0,0,0,1.578-.8V6.547h2.266V15H90.82ZM97.031,15H94.766V6.547h2.266Zm-2.4-10.641a1.112,1.112,0,0,1,.34-.836,1.465,1.465,0,0,1,1.848,0,1.105,1.105,0,0,1,.344.836,1.108,1.108,0,0,1-.348.844,1.448,1.448,0,0,1-1.836,0A1.108,1.108,0,0,1,94.633,4.359Zm8.148,10.8a4.15,4.15,0,0,1-3.027-1.141,4.054,4.054,0,0,1-1.168-3.039v-.219a5.106,5.106,0,0,1,.492-2.277,3.612,3.612,0,0,1,1.395-1.547,3.914,3.914,0,0,1,2.059-.543,3.508,3.508,0,0,1,2.73,1.094,4.444,4.444,0,0,1,1,3.1v.922h-5.383a2.1,2.1,0,0,0,.66,1.328,2,2,0,0,0,1.395.5,2.437,2.437,0,0,0,2.039-.945l1.109,1.242a3.389,3.389,0,0,1-1.375,1.121A4.511,4.511,0,0,1,102.781,15.156Zm-.258-6.945a1.411,1.411,0,0,0-1.09.455,2.357,2.357,0,0,0-.535,1.3h3.141V9.788a1.681,1.681,0,0,0-.406-1.165A1.456,1.456,0,0,0,102.523,8.211Zm9.766.453a6.134,6.134,0,0,0-.812-.062,1.654,1.654,0,0,0-1.68.867V15h-2.258V6.547h2.133l.063,1.008a2.092,2.092,0,0,1,1.883-1.164,2.366,2.366,0,0,1,.7.1Zm4.828,6.492a4.15,4.15,0,0,1-3.027-1.141,4.054,4.054,0,0,1-1.168-3.039v-.219a5.106,5.106,0,0,1,.492-2.277,3.612,3.612,0,0,1,1.395-1.547,3.914,3.914,0,0,1,2.059-.543,3.508,3.508,0,0,1,2.73,1.094,4.444,4.444,0,0,1,1,3.1v.922h-5.383a2.1,2.1,0,0,0,.66,1.328,2,2,0,0,0,1.395.5,2.437,2.437,0,0,0,2.039-.945l1.109,1.242a3.389,3.389,0,0,1-1.375,1.121A4.511,4.511,0,0,1,117.117,15.156Zm-.258-6.945a1.411,1.411,0,0,0-1.09.455,2.357,2.357,0,0,0-.535,1.3h3.141V9.788a1.681,1.681,0,0,0-.406-1.165A1.456,1.456,0,0,0,116.859,8.211Zm16.609,2.641a5.07,5.07,0,0,1-.887,3.129,2.843,2.843,0,0,1-2.395,1.176,2.633,2.633,0,0,1-2.07-.891V18.25h-2.258V6.547h2.094l.078.828a2.654,2.654,0,0,1,2.141-.984,2.862,2.862,0,0,1,2.43,1.156,5.207,5.207,0,0,1,.867,3.188Zm-2.258-.172a3.345,3.345,0,0,0-.418-1.826,1.36,1.36,0,0,0-1.215-.643,1.478,1.478,0,0,0-1.461.815V12.5a1.5,1.5,0,0,0,1.477.839Q131.211,13.336,131.211,10.679ZM139.766,15a2.507,2.507,0,0,1-.227-.758,2.732,2.732,0,0,1-2.133.914,3,3,0,0,1-2.059-.719,2.312,2.312,0,0,1-.816-1.812,2.389,2.389,0,0,1,1-2.062,4.915,4.915,0,0,1,2.879-.727h1.039V9.352a1.393,1.393,0,0,0-.3-.937,1.183,1.183,0,0,0-.949-.352,1.345,1.345,0,0,0-.895.273.929.929,0,0,0-.324.75h-2.258a2.268,2.268,0,0,1,.453-1.359,3,3,0,0,1,1.281-.98,4.669,4.669,0,0,1,1.859-.355,3.689,3.689,0,0,1,2.48.785,2.747,2.747,0,0,1,.918,2.207v3.664a4.041,4.041,0,0,0,.336,1.82V15ZM137.9,13.43a1.945,1.945,0,0,0,.922-.223,1.462,1.462,0,0,0,.625-.6V11.156H138.6q-1.7,0-1.8,1.172l-.008.133a.9.9,0,0,0,.3.7A1.153,1.153,0,0,0,137.9,13.43Zm10.3-4.766a6.134,6.134,0,0,0-.812-.062,1.654,1.654,0,0,0-1.68.867V15h-2.258V6.547h2.133l.063,1.008a2.092,2.092,0,0,1,1.883-1.164,2.366,2.366,0,0,1,.7.1ZM153.945,15a2.507,2.507,0,0,1-.227-.758,2.732,2.732,0,0,1-2.133.914,3,3,0,0,1-2.059-.719,2.312,2.312,0,0,1-.816-1.812,2.389,2.389,0,0,1,1-2.062,4.915,4.915,0,0,1,2.879-.727h1.039V9.352a1.393,1.393,0,0,0-.3-.937,1.183,1.183,0,0,0-.949-.352,1.345,1.345,0,0,0-.895.273.929.929,0,0,0-.324.75H148.9a2.268,2.268,0,0,1,.453-1.359,3,3,0,0,1,1.281-.98,4.669,4.669,0,0,1,1.859-.355,3.689,3.689,0,0,1,2.48.785,2.747,2.747,0,0,1,.918,2.207v3.664a4.041,4.041,0,0,0,.336,1.82V15Zm-1.867-1.57a1.945,1.945,0,0,0,.922-.223,1.462,1.462,0,0,0,.625-.6V11.156h-.844q-1.7,0-1.8,1.172l-.008.133a.9.9,0,0,0,.3.7A1.153,1.153,0,0,0,152.078,13.43ZM2.984,30.547l.07.945a2.971,2.971,0,0,1,2.43-1.1A2.255,2.255,0,0,1,7.727,31.68a2.9,2.9,0,0,1,2.539-1.289,2.521,2.521,0,0,1,2.047.8,3.681,3.681,0,0,1,.672,2.41V39H10.719V33.6a1.616,1.616,0,0,0-.281-1.053,1.245,1.245,0,0,0-.992-.333,1.409,1.409,0,0,0-1.406.971L8.047,39H5.789V33.6A1.6,1.6,0,0,0,5.5,32.54a1.257,1.257,0,0,0-.984-.329,1.463,1.463,0,0,0-1.391.8V39H.867V30.547Zm15.625,8.609a4.15,4.15,0,0,1-3.027-1.141,4.054,4.054,0,0,1-1.168-3.039v-.219a5.106,5.106,0,0,1,.492-2.277A3.612,3.612,0,0,1,16.3,30.934a3.914,3.914,0,0,1,2.059-.543,3.508,3.508,0,0,1,2.73,1.094,4.444,4.444,0,0,1,1,3.1v.922H16.7a2.1,2.1,0,0,0,.66,1.328,2,2,0,0,0,1.395.5,2.437,2.437,0,0,0,2.039-.945l1.109,1.242a3.389,3.389,0,0,1-1.375,1.121A4.511,4.511,0,0,1,18.609,39.156Zm-.258-6.945a1.411,1.411,0,0,0-1.09.455,2.357,2.357,0,0,0-.535,1.3h3.141v-.181a1.681,1.681,0,0,0-.406-1.165A1.456,1.456,0,0,0,18.352,32.211Zm4.664,2.5a5.094,5.094,0,0,1,.887-3.148,2.877,2.877,0,0,1,2.426-1.172,2.589,2.589,0,0,1,2.039.922V27h2.266V39H28.594l-.109-.9a2.657,2.657,0,0,1-2.172,1.055,2.869,2.869,0,0,1-2.395-1.176A5.258,5.258,0,0,1,23.016,34.711Zm2.258.161a3.355,3.355,0,0,0,.414,1.829,1.348,1.348,0,0,0,1.2.636,1.51,1.51,0,0,0,1.477-.887V33.1a1.489,1.489,0,0,0-1.461-.887Q25.273,32.211,25.273,34.872ZM34.766,39H32.5V30.547h2.266Zm-2.4-10.641a1.112,1.112,0,0,1,.34-.836,1.465,1.465,0,0,1,1.848,0,1.193,1.193,0,0,1,0,1.68,1.448,1.448,0,0,1-1.836,0A1.108,1.108,0,0,1,32.367,28.359Zm9.008,4.3a6.134,6.134,0,0,0-.812-.062,1.654,1.654,0,0,0-1.68.867V39H36.625V30.547h2.133l.063,1.008A2.092,2.092,0,0,1,40.7,30.391a2.366,2.366,0,0,1,.7.1ZM48.828,39H46.563V27h2.266Zm6.758,0a2.507,2.507,0,0,1-.227-.758,2.732,2.732,0,0,1-2.133.914,3,3,0,0,1-2.059-.719,2.312,2.312,0,0,1-.816-1.812,2.389,2.389,0,0,1,1-2.062,4.915,4.915,0,0,1,2.879-.727h1.039v-.484a1.393,1.393,0,0,0-.3-.937,1.183,1.183,0,0,0-.949-.352,1.345,1.345,0,0,0-.895.273.929.929,0,0,0-.324.75H50.539a2.268,2.268,0,0,1,.453-1.359,3,3,0,0,1,1.281-.98,4.669,4.669,0,0,1,1.859-.355,3.689,3.689,0,0,1,2.48.785,2.747,2.747,0,0,1,.918,2.207v3.664a4.041,4.041,0,0,0,.336,1.82V39Zm-1.867-1.57a1.945,1.945,0,0,0,.922-.223,1.462,1.462,0,0,0,.625-.6V35.156h-.844q-1.7,0-1.8,1.172l-.008.133a.9.9,0,0,0,.3.7A1.153,1.153,0,0,0,53.719,37.43Zm13.047-.094a1.481,1.481,0,0,0,1.016-.344,1.2,1.2,0,0,0,.406-.914H70.3a2.9,2.9,0,0,1-.469,1.574,3.093,3.093,0,0,1-1.262,1.109,3.949,3.949,0,0,1-1.77.395A3.67,3.67,0,0,1,63.945,38,4.56,4.56,0,0,1,62.9,34.82v-.148a4.508,4.508,0,0,1,1.039-3.117,3.627,3.627,0,0,1,2.852-1.164,3.555,3.555,0,0,1,2.543.9,3.2,3.2,0,0,1,.973,2.4H68.188a1.551,1.551,0,0,0-.406-1.072,1.51,1.51,0,0,0-2.223.163,3.333,3.333,0,0,0-.4,1.866v.235a3.375,3.375,0,0,0,.4,1.878A1.377,1.377,0,0,0,66.766,37.336ZM76.492,39a2.507,2.507,0,0,1-.227-.758,2.732,2.732,0,0,1-2.133.914,3,3,0,0,1-2.059-.719,2.312,2.312,0,0,1-.816-1.812,2.389,2.389,0,0,1,1-2.062,4.915,4.915,0,0,1,2.879-.727h1.039v-.484a1.393,1.393,0,0,0-.3-.937,1.183,1.183,0,0,0-.949-.352,1.345,1.345,0,0,0-.895.273.929.929,0,0,0-.324.75H71.445a2.268,2.268,0,0,1,.453-1.359,3,3,0,0,1,1.281-.98,4.669,4.669,0,0,1,1.859-.355,3.689,3.689,0,0,1,2.48.785,2.747,2.747,0,0,1,.918,2.207v3.664a4.041,4.041,0,0,0,.336,1.82V39Zm-1.867-1.57a1.945,1.945,0,0,0,.922-.223,1.462,1.462,0,0,0,.625-.6V35.156h-.844q-1.7,0-1.8,1.172l-.008.133a.9.9,0,0,0,.3.7A1.153,1.153,0,0,0,74.625,37.43Zm7.664-6.883.07.945a2.971,2.971,0,0,1,2.43-1.1,2.255,2.255,0,0,1,2.242,1.289,2.9,2.9,0,0,1,2.539-1.289,2.521,2.521,0,0,1,2.047.8,3.681,3.681,0,0,1,.672,2.41V39H90.023V33.6a1.616,1.616,0,0,0-.281-1.053,1.245,1.245,0,0,0-.992-.333,1.409,1.409,0,0,0-1.406.971L87.352,39H85.094V33.6A1.6,1.6,0,0,0,84.8,32.54a1.257,1.257,0,0,0-.984-.329,1.463,1.463,0,0,0-1.391.8V39H80.172V30.547Zm19.344,4.3a5.07,5.07,0,0,1-.887,3.129,2.843,2.843,0,0,1-2.395,1.176,2.633,2.633,0,0,1-2.07-.891V42.25H94.023v-11.7h2.094l.078.828a2.654,2.654,0,0,1,2.141-.984,2.862,2.862,0,0,1,2.43,1.156,5.207,5.207,0,0,1,.867,3.188Zm-2.258-.172a3.345,3.345,0,0,0-.418-1.826,1.36,1.36,0,0,0-1.215-.643,1.478,1.478,0,0,0-1.461.815V36.5a1.5,1.5,0,0,0,1.477.839Q99.375,37.336,99.375,34.679ZM107.93,39a2.507,2.507,0,0,1-.227-.758,2.732,2.732,0,0,1-2.133.914,3,3,0,0,1-2.059-.719,2.312,2.312,0,0,1-.816-1.812,2.389,2.389,0,0,1,1-2.062,4.915,4.915,0,0,1,2.879-.727h1.039v-.484a1.393,1.393,0,0,0-.3-.937,1.183,1.183,0,0,0-.949-.352,1.345,1.345,0,0,0-.895.273.929.929,0,0,0-.324.75h-2.258a2.268,2.268,0,0,1,.453-1.359,3,3,0,0,1,1.281-.98,4.669,4.669,0,0,1,1.859-.355,3.689,3.689,0,0,1,2.48.785,2.747,2.747,0,0,1,.918,2.207v3.664a4.041,4.041,0,0,0,.336,1.82V39Zm-1.867-1.57a1.945,1.945,0,0,0,.922-.223,1.462,1.462,0,0,0,.625-.6V35.156h-.844q-1.7,0-1.8,1.172l-.008.133a.9.9,0,0,0,.3.7A1.153,1.153,0,0,0,106.063,37.43Zm7.625-6.883.07.977a2.951,2.951,0,0,1,2.43-1.133,2.453,2.453,0,0,1,2,.789,3.682,3.682,0,0,1,.672,2.359V39H116.6V33.581a1.47,1.47,0,0,0-.312-1.045,1.4,1.4,0,0,0-1.039-.325,1.553,1.553,0,0,0-1.43.814V39h-2.258V30.547Zm4.484-3.445a2.187,2.187,0,0,1-.516,1.48,1.6,1.6,0,0,1-1.258.6,1.908,1.908,0,0,1-.527-.066,3.539,3.539,0,0,1-.637-.285,3.435,3.435,0,0,0-.586-.27,1.432,1.432,0,0,0-.391-.051.627.627,0,0,0-.465.2.759.759,0,0,0-.191.555l-1.312-.078A2.22,2.22,0,0,1,112.8,27.7a1.578,1.578,0,0,1,1.254-.609,1.614,1.614,0,0,1,.441.059,4.861,4.861,0,0,1,.676.285,4.392,4.392,0,0,0,.648.273,1.48,1.48,0,0,0,.375.047.659.659,0,0,0,.473-.191.728.728,0,0,0,.2-.551Zm7.3,11.9a2.507,2.507,0,0,1-.227-.758,2.732,2.732,0,0,1-2.133.914,3,3,0,0,1-2.059-.719,2.312,2.312,0,0,1-.816-1.812,2.389,2.389,0,0,1,1-2.062,4.915,4.915,0,0,1,2.879-.727h1.039v-.484a1.393,1.393,0,0,0-.3-.937,1.183,1.183,0,0,0-.949-.352,1.345,1.345,0,0,0-.895.273.929.929,0,0,0-.324.75h-2.258a2.268,2.268,0,0,1,.453-1.359,3,3,0,0,1,1.281-.98,4.669,4.669,0,0,1,1.859-.355,3.689,3.689,0,0,1,2.48.785,2.747,2.747,0,0,1,.918,2.207v3.664a4.041,4.041,0,0,0,.336,1.82V39ZM123.6,37.43a1.945,1.945,0,0,0,.922-.223,1.462,1.462,0,0,0,.625-.6V35.156H124.3q-1.7,0-1.8,1.172l-.008.133a.9.9,0,0,0,.3.7A1.153,1.153,0,0,0,123.6,37.43Zm7.391-1.914a4.7,4.7,0,0,1,.266-1.744,3.578,3.578,0,0,1,.973-1.279,4.973,4.973,0,0,0,.941-1.025,1.609,1.609,0,0,0,.234-.833q0-1.323-1.219-1.323a1.235,1.235,0,0,0-.926.356,1.4,1.4,0,0,0-.363.983h-2.266a3.013,3.013,0,0,1,.965-2.338,4.456,4.456,0,0,1,5.16-.043,2.851,2.851,0,0,1,.914,2.264,2.756,2.756,0,0,1-.3,1.255,5.171,5.171,0,0,1-1.039,1.31l-.633.6a2.145,2.145,0,0,0-.68,1.337l-.031.477Zm-.227,2.395a1.137,1.137,0,0,1,.355-.86,1.392,1.392,0,0,1,1.82,0,1.215,1.215,0,0,1,.008,1.709,1.426,1.426,0,0,1-1.836,0A1.128,1.128,0,0,1,130.766,37.91Z" transform="translate(505.917 614)" fill="#12263f"/>
    <path id="Trazado_876221" data-name="Trazado 876221" d="M5.2-5.031A4.848,4.848,0,0,1,4.961-3.35,3.266,3.266,0,0,1,4.1-2.13a9.105,9.105,0,0,0-.844.86A2.244,2.244,0,0,0,2.918-.7,1.725,1.725,0,0,0,2.8-.064a1.075,1.075,0,0,0,1.2,1.229A1.3,1.3,0,0,0,4.965.812a1.378,1.378,0,0,0,.371-.987H7.594a3.016,3.016,0,0,1-.961,2.342,3.753,3.753,0,0,1-2.586.841,3.841,3.841,0,0,1-2.586-.794A2.825,2.825,0,0,1,.539-.05a3.486,3.486,0,0,1,1.2-2.44l.758-.727a2,2,0,0,0,.543-.735A3.223,3.223,0,0,0,3.2-5.031Zm.281-2.387a1.119,1.119,0,0,1-.359.857,1.277,1.277,0,0,1-.906.335,1.277,1.277,0,0,1-.906-.335,1.119,1.119,0,0,1-.359-.857A1.137,1.137,0,0,1,3.3-8.275a1.268,1.268,0,0,1,.918-.335,1.268,1.268,0,0,1,.918.335A1.137,1.137,0,0,1,5.484-7.418ZM18.3-5.43a6.853,6.853,0,0,1-.516,2.77,4.754,4.754,0,0,1-1.43,1.887L18.25.711l-1.492,1.32L14.336.086a5.126,5.126,0,0,1-.859.07,4.732,4.732,0,0,1-2.523-.68A4.515,4.515,0,0,1,9.234-2.465a6.67,6.67,0,0,1-.617-2.9V-5.93a6.831,6.831,0,0,1,.605-2.957,4.508,4.508,0,0,1,1.711-1.961,4.706,4.706,0,0,1,2.527-.684,4.706,4.706,0,0,1,2.527.684A4.508,4.508,0,0,1,17.7-8.887,6.811,6.811,0,0,1,18.3-5.937ZM15.93-5.945a4.787,4.787,0,0,0-.641-2.719,2.088,2.088,0,0,0-1.828-.93,2.088,2.088,0,0,0-1.82.918,4.732,4.732,0,0,0-.648,2.691v.555a4.847,4.847,0,0,0,.641,2.7,2.082,2.082,0,0,0,1.844.961,2.064,2.064,0,0,0,1.813-.926,4.819,4.819,0,0,0,.641-2.7ZM24.938-.859A2.831,2.831,0,0,1,22.625.156a2.67,2.67,0,0,1-2.074-.781,3.335,3.335,0,0,1-.73-2.289V-8.453h2.258v5.467q0,1.322,1.2,1.322a1.63,1.63,0,0,0,1.578-.8V-8.453h2.266V0H25ZM32.719.156A4.15,4.15,0,0,1,29.691-.984a4.054,4.054,0,0,1-1.168-3.039v-.219a5.106,5.106,0,0,1,.492-2.277A3.612,3.612,0,0,1,30.41-8.066a3.914,3.914,0,0,1,2.059-.543A3.508,3.508,0,0,1,35.2-7.516a4.444,4.444,0,0,1,1,3.1v.922H30.813a2.1,2.1,0,0,0,.66,1.328,2,2,0,0,0,1.395.5,2.437,2.437,0,0,0,2.039-.945l1.109,1.242A3.389,3.389,0,0,1,34.641-.246,4.511,4.511,0,0,1,32.719.156Zm-.258-6.945a1.411,1.411,0,0,0-1.09.455,2.357,2.357,0,0,0-.535,1.3h3.141v-.181a1.681,1.681,0,0,0-.406-1.165A1.456,1.456,0,0,0,32.461-6.789Zm.2-5.211h2.461L32.961-9.578H31.125ZM45.352.156A4.15,4.15,0,0,1,42.324-.984a4.054,4.054,0,0,1-1.168-3.039v-.219a5.106,5.106,0,0,1,.492-2.277,3.612,3.612,0,0,1,1.395-1.547A3.914,3.914,0,0,1,45.1-8.609a3.508,3.508,0,0,1,2.73,1.094,4.444,4.444,0,0,1,1,3.1v.922H43.445a2.1,2.1,0,0,0,.66,1.328,2,2,0,0,0,1.395.5,2.437,2.437,0,0,0,2.039-.945l1.109,1.242A3.389,3.389,0,0,1,47.273-.246,4.511,4.511,0,0,1,45.352.156Zm-.258-6.945A1.411,1.411,0,0,0,44-6.334a2.357,2.357,0,0,0-.535,1.3h3.141v-.181A1.681,1.681,0,0,0,46.2-6.377,1.456,1.456,0,0,0,45.094-6.789Zm9.594,4.453a.727.727,0,0,0-.41-.652,4.659,4.659,0,0,0-1.316-.426q-3.016-.633-3.016-2.562a2.323,2.323,0,0,1,.934-1.879,3.766,3.766,0,0,1,2.441-.754,4.053,4.053,0,0,1,2.574.758,2.388,2.388,0,0,1,.965,1.969H54.6a1.092,1.092,0,0,0-.312-.8A1.322,1.322,0,0,0,53.313-7a1.351,1.351,0,0,0-.883.258.814.814,0,0,0-.312.656.7.7,0,0,0,.355.605,3.657,3.657,0,0,0,1.2.4,9.8,9.8,0,0,1,1.422.379A2.336,2.336,0,0,1,56.883-2.43a2.2,2.2,0,0,1-.992,1.871,4.28,4.28,0,0,1-2.562.715,4.47,4.47,0,0,1-1.887-.379,3.166,3.166,0,0,1-1.293-1.039,2.414,2.414,0,0,1-.469-1.426H51.82a1.179,1.179,0,0,0,.445.922,1.766,1.766,0,0,0,1.109.32,1.635,1.635,0,0,0,.98-.246A.766.766,0,0,0,54.688-2.336ZM66.211.156A4.15,4.15,0,0,1,63.184-.984a4.054,4.054,0,0,1-1.168-3.039v-.219a5.106,5.106,0,0,1,.492-2.277A3.612,3.612,0,0,1,63.9-8.066a3.914,3.914,0,0,1,2.059-.543,3.508,3.508,0,0,1,2.73,1.094,4.444,4.444,0,0,1,1,3.1v.922H64.3a2.1,2.1,0,0,0,.66,1.328,2,2,0,0,0,1.395.5A2.437,2.437,0,0,0,68.4-2.609l1.109,1.242A3.389,3.389,0,0,1,68.133-.246,4.511,4.511,0,0,1,66.211.156Zm-.258-6.945a1.411,1.411,0,0,0-1.09.455,2.357,2.357,0,0,0-.535,1.3h3.141v-.181a1.681,1.681,0,0,0-.406-1.165A1.456,1.456,0,0,0,65.953-6.789ZM73.352,0H71.086V-12h2.266Zm10.2-4.164H81.688V0H79.344V-11.375H83.57a4.778,4.778,0,0,1,3.109.9,3.1,3.1,0,0,1,1.094,2.539A3.5,3.5,0,0,1,87.27-6a3.437,3.437,0,0,1-1.527,1.238L88.2-.109V0H85.688Zm-1.867-1.9h1.891a1.936,1.936,0,0,0,1.367-.449A1.606,1.606,0,0,0,85.43-7.75a1.719,1.719,0,0,0-.457-1.266,1.9,1.9,0,0,0-1.4-.461H81.688ZM98.9-5.43A6.867,6.867,0,0,1,98.3-2.484a4.472,4.472,0,0,1-1.7,1.953A4.7,4.7,0,0,1,94.07.156a4.732,4.732,0,0,1-2.523-.68,4.515,4.515,0,0,1-1.719-1.941,6.67,6.67,0,0,1-.617-2.9V-5.93a6.831,6.831,0,0,1,.605-2.957,4.508,4.508,0,0,1,1.711-1.961,4.706,4.706,0,0,1,2.527-.684,4.706,4.706,0,0,1,2.527.684,4.508,4.508,0,0,1,1.711,1.961A6.811,6.811,0,0,1,98.9-5.937Zm-2.375-.516a4.787,4.787,0,0,0-.641-2.719,2.088,2.088,0,0,0-1.828-.93,2.088,2.088,0,0,0-1.82.918,4.732,4.732,0,0,0-.648,2.691v.555a4.847,4.847,0,0,0,.641,2.7,2.082,2.082,0,0,0,1.844.961,2.064,2.064,0,0,0,1.813-.926,4.819,4.819,0,0,0,.641-2.7ZM103.094,0H100.75V-11.375h2.344Zm3.867-3.484a4.7,4.7,0,0,1,.266-1.744,3.578,3.578,0,0,1,.973-1.279,4.973,4.973,0,0,0,.941-1.025,1.609,1.609,0,0,0,.234-.833q0-1.323-1.219-1.323a1.235,1.235,0,0,0-.926.356,1.4,1.4,0,0,0-.363.983H104.6a3.013,3.013,0,0,1,.965-2.338,3.756,3.756,0,0,1,2.59-.845,3.772,3.772,0,0,1,2.57.8,2.851,2.851,0,0,1,.914,2.264,2.756,2.756,0,0,1-.3,1.255A5.171,5.171,0,0,1,110.3-5.9l-.633.6a2.145,2.145,0,0,0-.68,1.337l-.031.477Zm-.227,2.395a1.137,1.137,0,0,1,.355-.86,1.266,1.266,0,0,1,.91-.339,1.266,1.266,0,0,1,.91.339,1.137,1.137,0,0,1,.355.86,1.128,1.128,0,0,1-.348.849A1.268,1.268,0,0,1,108,.094a1.268,1.268,0,0,1-.918-.335A1.128,1.128,0,0,1,106.734-1.09Z" transform="translate(1014.333 629)" fill="#12263f"/>
    <path id="Trazado_876222" data-name="Trazado 876222" d="M3.508,0H1.164V-11.375H3.508Zm4.1-8.453.07.977a2.951,2.951,0,0,1,2.43-1.133,2.453,2.453,0,0,1,2,.789,3.682,3.682,0,0,1,.672,2.359V0H10.523V-5.419a1.47,1.47,0,0,0-.312-1.045,1.4,1.4,0,0,0-1.039-.325,1.553,1.553,0,0,0-1.43.814V0H5.484V-8.453Zm6.531,4.164a5.094,5.094,0,0,1,.887-3.148,2.877,2.877,0,0,1,2.426-1.172,2.589,2.589,0,0,1,2.039.922V-12h2.266V0H19.719l-.109-.9A2.657,2.657,0,0,1,17.438.156,2.869,2.869,0,0,1,15.043-1.02,5.258,5.258,0,0,1,14.141-4.289Zm2.258.161A3.355,3.355,0,0,0,16.813-2.3a1.348,1.348,0,0,0,1.2.636,1.51,1.51,0,0,0,1.477-.887V-5.9a1.489,1.489,0,0,0-1.461-.887Q16.4-6.789,16.4-4.128ZM25.891,0H23.625V-8.453h2.266Zm-2.4-10.641a1.112,1.112,0,0,1,.34-.836,1.277,1.277,0,0,1,.926-.328,1.28,1.28,0,0,1,.922.328,1.105,1.105,0,0,1,.344.836,1.108,1.108,0,0,1-.348.844,1.283,1.283,0,0,1-.918.328A1.283,1.283,0,0,1,23.84-9.8,1.108,1.108,0,0,1,23.492-10.641Zm7.773,8.977a1.481,1.481,0,0,0,1.016-.344,1.2,1.2,0,0,0,.406-.914H34.8a2.9,2.9,0,0,1-.469,1.574A3.093,3.093,0,0,1,33.074-.238,3.949,3.949,0,0,1,31.3.156,3.67,3.67,0,0,1,28.445-1,4.56,4.56,0,0,1,27.4-4.18v-.148a4.508,4.508,0,0,1,1.039-3.117,3.627,3.627,0,0,1,2.852-1.164,3.555,3.555,0,0,1,2.543.9A3.2,3.2,0,0,1,34.8-5.3H32.688a1.551,1.551,0,0,0-.406-1.072,1.354,1.354,0,0,0-1.031-.412,1.36,1.36,0,0,0-1.191.575,3.333,3.333,0,0,0-.4,1.866v.235a3.375,3.375,0,0,0,.4,1.878A1.377,1.377,0,0,0,31.266-1.664ZM40.992,0a2.507,2.507,0,0,1-.227-.758,2.732,2.732,0,0,1-2.133.914,3,3,0,0,1-2.059-.719,2.312,2.312,0,0,1-.816-1.812,2.389,2.389,0,0,1,1-2.062,4.915,4.915,0,0,1,2.879-.727h1.039v-.484a1.393,1.393,0,0,0-.3-.937,1.183,1.183,0,0,0-.949-.352,1.345,1.345,0,0,0-.895.273.929.929,0,0,0-.324.75H35.945A2.268,2.268,0,0,1,36.4-7.273a3,3,0,0,1,1.281-.98,4.669,4.669,0,0,1,1.859-.355,3.689,3.689,0,0,1,2.48.785,2.747,2.747,0,0,1,.918,2.207v3.664a4.041,4.041,0,0,0,.336,1.82V0ZM39.125-1.57a1.945,1.945,0,0,0,.922-.223,1.462,1.462,0,0,0,.625-.6V-3.844h-.844q-1.7,0-1.8,1.172l-.008.133a.9.9,0,0,0,.3.7A1.153,1.153,0,0,0,39.125-1.57Zm5.2-2.719a5.094,5.094,0,0,1,.887-3.148,2.877,2.877,0,0,1,2.426-1.172,2.589,2.589,0,0,1,2.039.922V-12h2.266V0H49.9l-.109-.9A2.657,2.657,0,0,1,47.617.156,2.869,2.869,0,0,1,45.223-1.02,5.258,5.258,0,0,1,44.32-4.289Zm2.258.161A3.355,3.355,0,0,0,46.992-2.3a1.348,1.348,0,0,0,1.2.636,1.51,1.51,0,0,0,1.477-.887V-5.9a1.489,1.489,0,0,0-1.461-.887Q46.578-6.789,46.578-4.128ZM53.336-4.3a5.013,5.013,0,0,1,.484-2.242A3.546,3.546,0,0,1,55.215-8.07a4.069,4.069,0,0,1,2.113-.539,3.849,3.849,0,0,1,2.793,1.047,4.2,4.2,0,0,1,1.207,2.844l.016.578A4.418,4.418,0,0,1,60.258-1.02,3.775,3.775,0,0,1,57.344.156a3.793,3.793,0,0,1-2.918-1.172A4.5,4.5,0,0,1,53.336-4.2Zm2.258.16A3.16,3.16,0,0,0,56.047-2.3a1.5,1.5,0,0,0,1.3.638,1.5,1.5,0,0,0,1.281-.63,3.457,3.457,0,0,0,.461-2.015,3.128,3.128,0,0,0-.461-1.831,1.5,1.5,0,0,0-1.3-.649,1.474,1.474,0,0,0-1.281.646A3.516,3.516,0,0,0,55.594-4.144ZM67.484-6.336a6.134,6.134,0,0,0-.812-.062,1.654,1.654,0,0,0-1.68.867V0H62.734V-8.453h2.133l.063,1.008a2.092,2.092,0,0,1,1.883-1.164,2.366,2.366,0,0,1,.7.1ZM72.313.156A4.15,4.15,0,0,1,69.285-.984a4.054,4.054,0,0,1-1.168-3.039v-.219a5.106,5.106,0,0,1,.492-2.277A3.612,3.612,0,0,1,70-8.066a3.914,3.914,0,0,1,2.059-.543,3.508,3.508,0,0,1,2.73,1.094,4.444,4.444,0,0,1,1,3.1v.922H70.406a2.1,2.1,0,0,0,.66,1.328,2,2,0,0,0,1.395.5A2.437,2.437,0,0,0,74.5-2.609l1.109,1.242A3.389,3.389,0,0,1,74.234-.246,4.511,4.511,0,0,1,72.313.156Zm-.258-6.945a1.411,1.411,0,0,0-1.09.455,2.357,2.357,0,0,0-.535,1.3H73.57v-.181a1.681,1.681,0,0,0-.406-1.165A1.456,1.456,0,0,0,72.055-6.789Zm9.594,4.453a.727.727,0,0,0-.41-.652,4.659,4.659,0,0,0-1.316-.426q-3.016-.633-3.016-2.562a2.323,2.323,0,0,1,.934-1.879,3.766,3.766,0,0,1,2.441-.754,4.053,4.053,0,0,1,2.574.758,2.388,2.388,0,0,1,.965,1.969H81.563a1.092,1.092,0,0,0-.312-.8A1.322,1.322,0,0,0,80.273-7a1.351,1.351,0,0,0-.883.258.814.814,0,0,0-.312.656.7.7,0,0,0,.355.605,3.657,3.657,0,0,0,1.2.4,9.8,9.8,0,0,1,1.422.379A2.336,2.336,0,0,1,83.844-2.43a2.2,2.2,0,0,1-.992,1.871,4.28,4.28,0,0,1-2.562.715A4.47,4.47,0,0,1,78.4-.223a3.166,3.166,0,0,1-1.293-1.039,2.414,2.414,0,0,1-.469-1.426h2.141a1.179,1.179,0,0,0,.445.922,1.766,1.766,0,0,0,1.109.32,1.635,1.635,0,0,0,.98-.246A.766.766,0,0,0,81.648-2.336ZM92.992-4.562,91.773-3.25V0H89.43V-11.375h2.344v5.156L92.8-7.633l2.9-3.742h2.883L94.547-6.32,98.7,0H95.914Zm8.938.555V0H99.586V-11.375h4.438a5.134,5.134,0,0,1,2.254.469,3.454,3.454,0,0,1,1.5,1.332,3.714,3.714,0,0,1,.523,1.965,3.266,3.266,0,0,1-1.145,2.637,4.767,4.767,0,0,1-3.168.965Zm0-1.9h2.094a2.059,2.059,0,0,0,1.418-.437,1.591,1.591,0,0,0,.488-1.25,1.876,1.876,0,0,0-.492-1.352,1.839,1.839,0,0,0-1.359-.531H101.93ZM112.4,0h-2.344V-11.375H112.4Z" transform="translate(1019.667 677)" fill="#12263f"/>
    <path id="Trazado_876223" data-name="Trazado 876223" d="M3.359-4.008V0H1.016V-11.375H5.453a5.134,5.134,0,0,1,2.254.469A3.454,3.454,0,0,1,9.2-9.574a3.714,3.714,0,0,1,.523,1.965A3.266,3.266,0,0,1,8.582-4.973a4.767,4.767,0,0,1-3.168.965Zm0-1.9H5.453a2.059,2.059,0,0,0,1.418-.437,1.591,1.591,0,0,0,.488-1.25,1.876,1.876,0,0,0-.492-1.352,1.839,1.839,0,0,0-1.359-.531H3.359Zm12.578-.43a6.134,6.134,0,0,0-.812-.062,1.654,1.654,0,0,0-1.68.867V0H11.188V-8.453H13.32l.063,1.008a2.092,2.092,0,0,1,1.883-1.164,2.366,2.366,0,0,1,.7.1ZM20.766.156A4.15,4.15,0,0,1,17.738-.984,4.054,4.054,0,0,1,16.57-4.023v-.219a5.106,5.106,0,0,1,.492-2.277,3.612,3.612,0,0,1,1.395-1.547,3.914,3.914,0,0,1,2.059-.543,3.508,3.508,0,0,1,2.73,1.094,4.444,4.444,0,0,1,1,3.1v.922H18.859a2.1,2.1,0,0,0,.66,1.328,2,2,0,0,0,1.395.5,2.437,2.437,0,0,0,2.039-.945l1.109,1.242A3.389,3.389,0,0,1,22.688-.246,4.511,4.511,0,0,1,20.766.156Zm-.258-6.945a1.411,1.411,0,0,0-1.09.455,2.357,2.357,0,0,0-.535,1.3h3.141v-.181a1.681,1.681,0,0,0-.406-1.165A1.456,1.456,0,0,0,20.508-6.789Zm7.719-3.742v2.078h1.445V-6.8H28.227v4.219a1.007,1.007,0,0,0,.18.672.9.9,0,0,0,.688.2,3.6,3.6,0,0,0,.664-.055V-.047a4.648,4.648,0,0,1-1.367.2,2.156,2.156,0,0,1-2.422-2.4V-6.8H24.734V-8.453h1.234v-2.078ZM34.82.156A4.15,4.15,0,0,1,31.793-.984a4.054,4.054,0,0,1-1.168-3.039v-.219a5.106,5.106,0,0,1,.492-2.277,3.612,3.612,0,0,1,1.395-1.547,3.914,3.914,0,0,1,2.059-.543A3.508,3.508,0,0,1,37.3-7.516a4.444,4.444,0,0,1,1,3.1v.922H32.914a2.1,2.1,0,0,0,.66,1.328,2,2,0,0,0,1.395.5,2.437,2.437,0,0,0,2.039-.945l1.109,1.242A3.389,3.389,0,0,1,36.742-.246,4.511,4.511,0,0,1,34.82.156Zm-.258-6.945a1.411,1.411,0,0,0-1.09.455,2.357,2.357,0,0,0-.535,1.3h3.141v-.181a1.681,1.681,0,0,0-.406-1.165A1.456,1.456,0,0,0,34.563-6.789Zm9.594,4.453a.727.727,0,0,0-.41-.652,4.659,4.659,0,0,0-1.316-.426q-3.016-.633-3.016-2.562a2.323,2.323,0,0,1,.934-1.879,3.766,3.766,0,0,1,2.441-.754,4.053,4.053,0,0,1,2.574.758,2.388,2.388,0,0,1,.965,1.969H44.07a1.092,1.092,0,0,0-.312-.8A1.322,1.322,0,0,0,42.781-7a1.351,1.351,0,0,0-.883.258.814.814,0,0,0-.312.656.7.7,0,0,0,.355.605,3.657,3.657,0,0,0,1.2.4,9.8,9.8,0,0,1,1.422.379A2.336,2.336,0,0,1,46.352-2.43a2.2,2.2,0,0,1-.992,1.871A4.28,4.28,0,0,1,42.8.156,4.47,4.47,0,0,1,40.91-.223a3.166,3.166,0,0,1-1.293-1.039,2.414,2.414,0,0,1-.469-1.426h2.141a1.179,1.179,0,0,0,.445.922,1.766,1.766,0,0,0,1.109.32,1.635,1.635,0,0,0,.98-.246A.766.766,0,0,0,44.156-2.336Zm6.352-8.2v2.078h1.445V-6.8H50.508v4.219a1.007,1.007,0,0,0,.18.672.9.9,0,0,0,.688.2,3.6,3.6,0,0,0,.664-.055V-.047a4.648,4.648,0,0,1-1.367.2,2.156,2.156,0,0,1-2.422-2.4V-6.8H47.016V-8.453H48.25v-2.078ZM60.352-3.2l1.563-5.258h2.422l-3.4,9.766-.187.445a2.577,2.577,0,0,1-2.5,1.656,3.552,3.552,0,0,1-1-.148V1.555l.344.008a1.857,1.857,0,0,0,.957-.2,1.283,1.283,0,0,0,.5-.648l.266-.7L56.352-8.453h2.43ZM76.82-4.148a5.07,5.07,0,0,1-.887,3.129A2.843,2.843,0,0,1,73.539.156a2.633,2.633,0,0,1-2.07-.891V3.25H69.211v-11.7H71.3l.078.828a2.654,2.654,0,0,1,2.141-.984,2.862,2.862,0,0,1,2.43,1.156,5.207,5.207,0,0,1,.867,3.188Zm-2.258-.172a3.345,3.345,0,0,0-.418-1.826,1.36,1.36,0,0,0-1.215-.643,1.478,1.478,0,0,0-1.461.815V-2.5a1.5,1.5,0,0,0,1.477.839Q74.563-1.664,74.563-4.321Zm3.3.016a5.013,5.013,0,0,1,.484-2.242A3.546,3.546,0,0,1,79.746-8.07a4.069,4.069,0,0,1,2.113-.539,3.849,3.849,0,0,1,2.793,1.047,4.2,4.2,0,0,1,1.207,2.844l.016.578A4.418,4.418,0,0,1,84.789-1.02,3.775,3.775,0,0,1,81.875.156a3.793,3.793,0,0,1-2.918-1.172A4.5,4.5,0,0,1,77.867-4.2Zm2.258.16A3.16,3.16,0,0,0,80.578-2.3a1.5,1.5,0,0,0,1.3.638,1.5,1.5,0,0,0,1.281-.63,3.457,3.457,0,0,0,.461-2.015,3.128,3.128,0,0,0-.461-1.831,1.5,1.5,0,0,0-1.3-.649,1.474,1.474,0,0,0-1.281.646A3.516,3.516,0,0,0,80.125-4.144ZM91.844-2.336a.727.727,0,0,0-.41-.652,4.659,4.659,0,0,0-1.316-.426Q87.1-4.047,87.1-5.977a2.323,2.323,0,0,1,.934-1.879,3.766,3.766,0,0,1,2.441-.754,4.053,4.053,0,0,1,2.574.758,2.388,2.388,0,0,1,.965,1.969H91.758a1.092,1.092,0,0,0-.312-.8A1.322,1.322,0,0,0,90.469-7a1.351,1.351,0,0,0-.883.258.814.814,0,0,0-.312.656.7.7,0,0,0,.355.605,3.657,3.657,0,0,0,1.2.4A9.8,9.8,0,0,1,92.25-4.7,2.336,2.336,0,0,1,94.039-2.43a2.2,2.2,0,0,1-.992,1.871,4.28,4.28,0,0,1-2.562.715A4.47,4.47,0,0,1,88.6-.223,3.166,3.166,0,0,1,87.3-1.262a2.414,2.414,0,0,1-.469-1.426h2.141a1.179,1.179,0,0,0,.445.922,1.766,1.766,0,0,0,1.109.32,1.635,1.635,0,0,0,.98-.246A.766.766,0,0,0,91.844-2.336Zm6.352-8.2v2.078h1.445V-6.8H98.2v4.219a1.007,1.007,0,0,0,.18.672.9.9,0,0,0,.688.2,3.6,3.6,0,0,0,.664-.055V-.047a4.648,4.648,0,0,1-1.367.2,2.156,2.156,0,0,1-2.422-2.4V-6.8H94.7V-8.453h1.234v-2.078ZM104.789.156a4.15,4.15,0,0,1-3.027-1.141,4.054,4.054,0,0,1-1.168-3.039v-.219a5.106,5.106,0,0,1,.492-2.277,3.612,3.612,0,0,1,1.395-1.547,3.914,3.914,0,0,1,2.059-.543,3.508,3.508,0,0,1,2.73,1.094,4.444,4.444,0,0,1,1,3.1v.922h-5.383a2.1,2.1,0,0,0,.66,1.328,2,2,0,0,0,1.395.5,2.437,2.437,0,0,0,2.039-.945l1.109,1.242a3.389,3.389,0,0,1-1.375,1.121A4.511,4.511,0,0,1,104.789.156Zm-.258-6.945a1.411,1.411,0,0,0-1.09.455,2.357,2.357,0,0,0-.535,1.3h3.141v-.181a1.681,1.681,0,0,0-.406-1.165A1.456,1.456,0,0,0,104.531-6.789Zm9.594,4.453a.727.727,0,0,0-.41-.652,4.659,4.659,0,0,0-1.316-.426q-3.016-.633-3.016-2.562a2.323,2.323,0,0,1,.934-1.879,3.766,3.766,0,0,1,2.441-.754,4.053,4.053,0,0,1,2.574.758,2.388,2.388,0,0,1,.965,1.969h-2.258a1.092,1.092,0,0,0-.312-.8A1.322,1.322,0,0,0,112.75-7a1.351,1.351,0,0,0-.883.258.814.814,0,0,0-.312.656.7.7,0,0,0,.355.605,3.657,3.657,0,0,0,1.2.4,9.8,9.8,0,0,1,1.422.379A2.336,2.336,0,0,1,116.32-2.43a2.2,2.2,0,0,1-.992,1.871,4.28,4.28,0,0,1-2.562.715,4.47,4.47,0,0,1-1.887-.379,3.166,3.166,0,0,1-1.293-1.039,2.414,2.414,0,0,1-.469-1.426h2.141a1.179,1.179,0,0,0,.445.922,1.766,1.766,0,0,0,1.109.32,1.635,1.635,0,0,0,.98-.246A.766.766,0,0,0,114.125-2.336Zm6.352-8.2v2.078h1.445V-6.8h-1.445v4.219a1.007,1.007,0,0,0,.18.672.9.9,0,0,0,.688.2,3.6,3.6,0,0,0,.664-.055V-.047a4.648,4.648,0,0,1-1.367.2,2.156,2.156,0,0,1-2.422-2.4V-6.8h-1.234V-8.453h1.234v-2.078Z" transform="translate(524.917 725)" fill="#12263f"/>
    <path id="Trazado_876224" data-name="Trazado 876224" d="M-42.77-3.789A4.025,4.025,0,0,1-44.125-.9,4.76,4.76,0,0,1-47.348.156a4.28,4.28,0,0,1-3.441-1.473,6.038,6.038,0,0,1-1.254-4.043v-.7a6.819,6.819,0,0,1,.578-2.891,4.332,4.332,0,0,1,1.652-1.918,4.629,4.629,0,0,1,2.5-.668,4.637,4.637,0,0,1,3.172,1.055,4.326,4.326,0,0,1,1.391,2.961H-45.1a2.376,2.376,0,0,0-.613-1.6,2.271,2.271,0,0,0-1.605-.5,1.991,1.991,0,0,0-1.754.84,4.707,4.707,0,0,0-.6,2.605V-5.3a5.038,5.038,0,0,0,.559,2.7,1.954,1.954,0,0,0,1.762.852,2.314,2.314,0,0,0,1.621-.5,2.241,2.241,0,0,0,.613-1.535ZM-36.48,0a2.507,2.507,0,0,1-.227-.758A2.732,2.732,0,0,1-38.84.156,3,3,0,0,1-40.9-.562a2.312,2.312,0,0,1-.816-1.812,2.389,2.389,0,0,1,1-2.062,4.915,4.915,0,0,1,2.879-.727H-36.8v-.484a1.393,1.393,0,0,0-.3-.937,1.183,1.183,0,0,0-.949-.352,1.345,1.345,0,0,0-.895.273.929.929,0,0,0-.324.75h-2.258a2.268,2.268,0,0,1,.453-1.359,3,3,0,0,1,1.281-.98,4.669,4.669,0,0,1,1.859-.355,3.689,3.689,0,0,1,2.48.785,2.747,2.747,0,0,1,.918,2.207v3.664A4.041,4.041,0,0,0-34.2-.133V0Zm-1.867-1.57a1.945,1.945,0,0,0,.922-.223,1.462,1.462,0,0,0,.625-.6V-3.844h-.844q-1.7,0-1.8,1.172l-.008.133a.9.9,0,0,0,.3.7A1.153,1.153,0,0,0-38.348-1.57ZM-37.488-12h2.461l-2.164,2.422h-1.836Zm7.07,12h-2.266V-12h2.266Zm5.375-1.664a1.481,1.481,0,0,0,1.016-.344,1.2,1.2,0,0,0,.406-.914H-21.5a2.9,2.9,0,0,1-.469,1.574A3.093,3.093,0,0,1-23.234-.238,3.949,3.949,0,0,1-25,.156,3.67,3.67,0,0,1-27.863-1,4.56,4.56,0,0,1-28.91-4.18v-.148a4.508,4.508,0,0,1,1.039-3.117A3.627,3.627,0,0,1-25.02-8.609a3.555,3.555,0,0,1,2.543.9A3.2,3.2,0,0,1-21.5-5.3h-2.117a1.551,1.551,0,0,0-.406-1.072,1.354,1.354,0,0,0-1.031-.412,1.36,1.36,0,0,0-1.191.575,3.333,3.333,0,0,0-.4,1.866v.235a3.375,3.375,0,0,0,.4,1.878A1.377,1.377,0,0,0-25.043-1.664Zm9.891.8A2.831,2.831,0,0,1-17.465.156a2.67,2.67,0,0,1-2.074-.781,3.335,3.335,0,0,1-.73-2.289V-8.453h2.258v5.467q0,1.322,1.2,1.322a1.63,1.63,0,0,0,1.578-.8V-8.453h2.266V0H-15.09ZM-8.879,0h-2.266V-12h2.266Zm1.508-4.3a5.013,5.013,0,0,1,.484-2.242A3.546,3.546,0,0,1-5.492-8.07a4.069,4.069,0,0,1,2.113-.539A3.849,3.849,0,0,1-.586-7.562,4.2,4.2,0,0,1,.621-4.719l.016.578A4.418,4.418,0,0,1-.449-1.02,3.775,3.775,0,0,1-3.363.156,3.793,3.793,0,0,1-6.281-1.016,4.5,4.5,0,0,1-7.371-4.2Zm2.258.16A3.16,3.16,0,0,0-4.66-2.3a1.5,1.5,0,0,0,1.3.638,1.5,1.5,0,0,0,1.281-.63,3.457,3.457,0,0,0,.461-2.015A3.128,3.128,0,0,0-2.082-6.14a1.5,1.5,0,0,0-1.3-.649,1.474,1.474,0,0,0-1.281.646A3.516,3.516,0,0,0-5.113-4.144ZM5.66-4.289a5.094,5.094,0,0,1,.887-3.148A2.877,2.877,0,0,1,8.973-8.609a2.589,2.589,0,0,1,2.039.922V-12h2.266V0H11.238l-.109-.9A2.657,2.657,0,0,1,8.957.156,2.869,2.869,0,0,1,6.563-1.02,5.258,5.258,0,0,1,5.66-4.289Zm2.258.161A3.355,3.355,0,0,0,8.332-2.3a1.348,1.348,0,0,0,1.2.636,1.51,1.51,0,0,0,1.477-.887V-5.9a1.489,1.489,0,0,0-1.461-.887Q7.918-6.789,7.918-4.128Zm11,4.285A4.15,4.15,0,0,1,15.891-.984a4.054,4.054,0,0,1-1.168-3.039v-.219a5.106,5.106,0,0,1,.492-2.277,3.612,3.612,0,0,1,1.395-1.547,3.914,3.914,0,0,1,2.059-.543A3.508,3.508,0,0,1,21.4-7.516a4.444,4.444,0,0,1,1,3.1v.922H17.012a2.1,2.1,0,0,0,.66,1.328,2,2,0,0,0,1.395.5,2.437,2.437,0,0,0,2.039-.945l1.109,1.242A3.389,3.389,0,0,1,20.84-.246,4.511,4.511,0,0,1,18.918.156ZM18.66-6.789a1.411,1.411,0,0,0-1.09.455,2.357,2.357,0,0,0-.535,1.3h3.141v-.181a1.681,1.681,0,0,0-.406-1.165A1.456,1.456,0,0,0,18.66-6.789ZM32.02-4.164H30.152V0H27.809V-11.375h4.227a4.778,4.778,0,0,1,3.109.9,3.1,3.1,0,0,1,1.094,2.539A3.5,3.5,0,0,1,35.734-6a3.437,3.437,0,0,1-1.527,1.238L36.668-.109V0H34.152Zm-1.867-1.9h1.891a1.936,1.936,0,0,0,1.367-.449,1.606,1.606,0,0,0,.484-1.238,1.719,1.719,0,0,0-.457-1.266,1.9,1.9,0,0,0-1.4-.461H30.152Zm17.211.633a6.867,6.867,0,0,1-.594,2.945,4.472,4.472,0,0,1-1.7,1.953,4.7,4.7,0,0,1-2.535.688,4.732,4.732,0,0,1-2.523-.68,4.515,4.515,0,0,1-1.719-1.941,6.67,6.67,0,0,1-.617-2.9V-5.93a6.831,6.831,0,0,1,.605-2.957,4.508,4.508,0,0,1,1.711-1.961,4.706,4.706,0,0,1,2.527-.684,4.706,4.706,0,0,1,2.527.684,4.508,4.508,0,0,1,1.711,1.961,6.811,6.811,0,0,1,.605,2.949Zm-2.375-.516a4.787,4.787,0,0,0-.641-2.719,2.088,2.088,0,0,0-1.828-.93,2.088,2.088,0,0,0-1.82.918,4.732,4.732,0,0,0-.648,2.691v.555a4.847,4.847,0,0,0,.641,2.7,2.082,2.082,0,0,0,1.844.961,2.064,2.064,0,0,0,1.813-.926,4.819,4.819,0,0,0,.641-2.7ZM51.559,0H49.215V-11.375h2.344Z" transform="translate(1079.333 725)" fill="#12263f"/>
  </g>
</svg>
