<svg xmlns="http://www.w3.org/2000/svg" xmlns:xlink="http://www.w3.org/1999/xlink" width="121.582" height="125.001" viewBox="0 0 121.582 125.001">
  <defs>
    <clipPath id="clip-path">
      <rect id="Rectángulo_401897" data-name="Rectángulo 401897" width="115" height="115" transform="translate(-6582 -9553)" fill="#fff" stroke="#707070" stroke-width="1"/>
    </clipPath>
  </defs>
  <g id="Grupo_1100777" data-name="Grupo 1100777" transform="translate(6585 9553)">
    <g id="Grupo_1100776" data-name="Grupo 1100776">
      <g id="Grupo_1100775" data-name="Grupo 1100775">
        <path id="_12068" data-name="12068" d="M94.486,72.232c-12.45-1.719-25.6-1.3-36.93,4.143-15.711,7.546-26.029,24.655-26.425,42.08s8.682,34.547,22.705,44.9S86.354,177.37,103.5,174.263c17.293-3.134,33.524-13.294,42.545-28.377,5.784-9.672,8.488-21.615,5.292-32.422-1.929-6.523-5.873-12.3-10.512-17.278A77.665,77.665,0,0,0,94.486,72.232Z" transform="translate(-6616.119 -9603.332)" fill="#7d6eb2"/>
        <g id="Enmascarar_grupo_1100081" data-name="Enmascarar grupo 1100081" clip-path="url(#clip-path)">
          <g id="Layer_26" data-name="Layer 26" transform="translate(-6583.855 -9554.854)">
            <rect id="Rectángulo_401910" data-name="Rectángulo 401910" width="70.484" height="14.839" rx="7.419" transform="translate(44.516 51.935)" fill="#f3a845"/>
            <path id="Trazado_875368" data-name="Trazado 875368" d="M74.194,51.935,59.355,66.774H72.339L87.177,51.935Z" fill="#eecc61"/>
            <path id="Trazado_875369" data-name="Trazado 875369" d="M44.516,59.355A7.406,7.406,0,0,0,47.7,65.441L61.21,51.935H51.935a7.419,7.419,0,0,0-7.419,7.419Z" fill="#eecc61"/>
            <rect id="Rectángulo_401911" data-name="Rectángulo 401911" width="70.484" height="14.839" rx="7.419" transform="translate(44.516 90.887)" fill="#aa2b24"/>
            <path id="Trazado_875370" data-name="Trazado 875370" d="M61.21,90.887,47.7,104.392a7.377,7.377,0,0,0,4.231,1.334h7.419L74.194,90.887Z" fill="#d24034"/>
            <circle id="Elipse_11613" data-name="Elipse 11613" cx="16.694" cy="16.694" r="16.694" transform="translate(3.71 3.71)" fill="#2763bb"/>
            <circle id="Elipse_11614" data-name="Elipse 11614" cx="5.565" cy="5.565" r="5.565" transform="translate(14.839 11.129)" fill="#fddfb1"/>
            <path id="Trazado_875371" data-name="Trazado 875371" d="M20.4,22.258a9.274,9.274,0,0,0-9.274,9.274v2.749a16.682,16.682,0,0,0,18.548,0V31.532A9.274,9.274,0,0,0,20.4,22.258Z" fill="#559b38"/>
            <path id="Trazado_875372" data-name="Trazado 875372" d="M25.968,27.823V24.156a9.232,9.232,0,0,0-14.839,7.377H22.258A3.71,3.71,0,0,0,25.968,27.823Z" fill="#6bc148"/>
            <circle id="Elipse_11615" data-name="Elipse 11615" cx="16.694" cy="16.694" r="16.694" transform="translate(3.71 42.661)" fill="#2763bb"/>
            <circle id="Elipse_11616" data-name="Elipse 11616" cx="5.565" cy="5.565" r="5.565" transform="translate(14.839 50.081)" fill="#fddfb1"/>
            <path id="Trazado_875373" data-name="Trazado 875373" d="M20.4,61.21a9.274,9.274,0,0,0-9.274,9.274v2.749a16.682,16.682,0,0,0,18.548,0V70.484A9.274,9.274,0,0,0,20.4,61.21Z" fill="#f3a845"/>
            <path id="Trazado_875374" data-name="Trazado 875374" d="M25.968,66.774V63.107a9.232,9.232,0,0,0-14.839,7.377H22.258A3.71,3.71,0,0,0,25.968,66.774Z" fill="#eecc61"/>
            <circle id="Elipse_11617" data-name="Elipse 11617" cx="16.694" cy="16.694" r="16.694" transform="translate(3.71 81.613)" fill="#2763bb"/>
            <circle id="Elipse_11618" data-name="Elipse 11618" cx="5.565" cy="5.565" r="5.565" transform="translate(14.839 89.032)" fill="#fddfb1"/>
            <path id="Trazado_875375" data-name="Trazado 875375" d="M20.4,100.161a9.274,9.274,0,0,0-9.274,9.274v2.749a16.682,16.682,0,0,0,18.548,0v-2.749A9.274,9.274,0,0,0,20.4,100.161Z" fill="#aa2b24"/>
            <path id="Trazado_875376" data-name="Trazado 875376" d="M25.968,105.726v-3.667a9.232,9.232,0,0,0-14.839,7.377H22.258A3.71,3.71,0,0,0,25.968,105.726Z" fill="#d24034"/>
            <rect id="Rectángulo_401912" data-name="Rectángulo 401912" width="70.484" height="14.839" rx="7.419" transform="translate(44.516 12.984)" fill="#559b38"/>
            <g id="Grupo_1100730" data-name="Grupo 1100730">
              <path id="Trazado_875377" data-name="Trazado 875377" d="M61.21,12.984,47.7,26.489a7.377,7.377,0,0,0,4.231,1.334h7.419L74.194,12.984Z" fill="#6bc148"/>
              <path id="Trazado_875378" data-name="Trazado 875378" d="M87.177,12.984,72.339,27.823H85.323l14.839-14.839Z" fill="#6bc148"/>
              <path id="Trazado_875379" data-name="Trazado 875379" d="M115,20.4a7.406,7.406,0,0,0-3.188-6.086L98.306,27.823h9.274A7.419,7.419,0,0,0,115,20.4Z" fill="#6bc148"/>
            </g>
            <path id="Trazado_875380" data-name="Trazado 875380" d="M20.4,1.855A18.548,18.548,0,1,0,38.952,20.4,18.548,18.548,0,0,0,20.4,1.855Zm-7.419,31.38v-1.7a7.419,7.419,0,1,1,14.839,0v1.7a14.718,14.718,0,0,1-14.839,0Zm3.71-16.541A3.71,3.71,0,1,1,20.4,20.4,3.71,3.71,0,0,1,16.694,16.694ZM31.456,30.269a11.146,11.146,0,0,0-5.687-8.48,7.419,7.419,0,1,0-10.732,0,11.146,11.146,0,0,0-5.687,8.48,14.839,14.839,0,1,1,22.106,0Z"/>
            <path id="Trazado_875381" data-name="Trazado 875381" d="M20.4,40.806A18.548,18.548,0,1,0,38.952,59.355,18.548,18.548,0,0,0,20.4,40.806Zm-7.419,31.38v-1.7a7.419,7.419,0,0,1,14.839,0v1.7a14.718,14.718,0,0,1-14.839,0Zm3.71-16.541a3.71,3.71,0,1,1,3.71,3.71A3.71,3.71,0,0,1,16.694,55.645ZM31.456,69.221a11.146,11.146,0,0,0-5.687-8.48,7.419,7.419,0,1,0-10.732,0,11.146,11.146,0,0,0-5.687,8.48,14.839,14.839,0,1,1,22.106,0Z"/>
            <path id="Trazado_875382" data-name="Trazado 875382" d="M20.4,79.758A18.548,18.548,0,1,0,38.952,98.306,18.548,18.548,0,0,0,20.4,79.758Zm-7.419,31.38v-1.7a7.419,7.419,0,1,1,14.839,0v1.7A14.718,14.718,0,0,1,12.984,111.138ZM16.694,94.6a3.71,3.71,0,1,1,3.71,3.71A3.71,3.71,0,0,1,16.694,94.6Zm14.763,13.576a11.146,11.146,0,0,0-5.687-8.48,7.419,7.419,0,1,0-10.732,0,11.146,11.146,0,0,0-5.687,8.48,14.839,14.839,0,1,1,22.106,0Z"/>
            <path id="Trazado_875383" data-name="Trazado 875383" d="M51.935,29.677h55.645a9.274,9.274,0,1,0,0-18.548H51.935a9.274,9.274,0,1,0,0,18.548Zm-.987-3.81L61.978,14.839h7.738L58.587,25.968H51.935a5.579,5.579,0,0,1-.987-.1Zm20.622.1H63.832L74.961,14.839H82.7ZM87.945,14.839h7.738L84.555,25.968H76.816Zm19.635,11.129h-4.8l9.078-9.078a5.534,5.534,0,0,1-4.281,9.078Zm.987-11.029L97.539,25.968H89.8l11.129-11.129h6.651a5.579,5.579,0,0,1,.987.1Zm-56.632-.1h4.8l-9.078,9.078a5.534,5.534,0,0,1,4.281-9.078Z"/>
            <path id="Trazado_875384" data-name="Trazado 875384" d="M107.581,50.081H51.935a9.274,9.274,0,1,0,0,18.548h55.645a9.274,9.274,0,1,0,0-18.548ZM82.7,53.79,71.571,64.919H63.832L74.961,53.79Zm-30.764,0h4.8l-9.078,9.078a5.534,5.534,0,0,1,4.281-9.078Zm-.987,11.029L61.978,53.79h7.738L58.587,64.919H51.935a5.58,5.58,0,0,1-.987-.1Zm56.632.1H76.816L87.945,53.79h19.635a5.565,5.565,0,1,1,0,11.129Z"/>
            <path id="Trazado_875385" data-name="Trazado 875385" d="M107.581,89.032H51.935a9.274,9.274,0,1,0,0,18.548h55.645a9.274,9.274,0,1,0,0-18.548Zm-55.645,3.71h4.8l-9.078,9.078a5.534,5.534,0,0,1,4.281-9.078Zm-.987,11.029L61.978,92.742h7.738L58.587,103.871H51.935a5.579,5.579,0,0,1-.987-.1Zm56.632.1H63.832L74.961,92.742h32.619a5.565,5.565,0,1,1,0,11.129Z"/>
          </g>
        </g>
      </g>
    </g>
  </g>
</svg>
