<svg xmlns="http://www.w3.org/2000/svg" xmlns:xlink="http://www.w3.org/1999/xlink" width="121.582" height="126.001" viewBox="0 0 121.582 126.001">
  <defs>
    <clipPath id="clip-path">
      <rect id="Rectángulo_401891" data-name="Rectángulo 401891" width="115" height="115" transform="translate(-6582 -10409)" fill="#fff" stroke="#707070" stroke-width="1"/>
    </clipPath>
  </defs>
  <g id="Grupo_1100759" data-name="Grupo 1100759" transform="translate(6585 10409)">
    <g id="Grupo_1100758" data-name="Grupo 1100758">
      <g id="Grupo_1100757" data-name="Grupo 1100757">
        <g id="Grupo_1100756" data-name="Grupo 1100756">
          <path id="_12068" data-name="12068" d="M94.486,72.232c-12.45-1.719-25.6-1.3-36.93,4.143-15.711,7.546-26.029,24.655-26.425,42.08s8.682,34.547,22.705,44.9S86.354,177.37,103.5,174.263c17.293-3.134,33.524-13.294,42.545-28.377,5.784-9.672,8.488-21.615,5.292-32.422-1.929-6.523-5.873-12.3-10.512-17.278A77.665,77.665,0,0,0,94.486,72.232Z" transform="translate(-6616.119 -10458.332)" fill="#7d6eb2"/>
          <g id="Enmascarar_grupo_1100075" data-name="Enmascarar grupo 1100075" clip-path="url(#clip-path)">
            <g id="medicion" transform="translate(-6582 -10409)">
              <rect id="Rectángulo_401898" data-name="Rectángulo 401898" width="20.42" height="19.133" transform="translate(13.485 93.555)" fill="#fd4755"/>
              <rect id="Rectángulo_401899" data-name="Rectángulo 401899" width="20.414" height="38.272" transform="translate(43.48 74.416)" fill="#99e6fc"/>
              <rect id="Rectángulo_401900" data-name="Rectángulo 401900" width="20.42" height="58.537" transform="translate(73.469 54.151)" fill="#9be69d"/>
              <line id="Línea_1627" data-name="Línea 1627" x2="8.453" transform="translate(104.144 36.144)" fill="none" stroke="#000" stroke-linecap="round" stroke-linejoin="round" stroke-miterlimit="10" stroke-width="3.369"/>
              <path id="Trazado_875228" data-name="Trazado 875228" d="M40,27.675A5.049,5.049,0,0,0,45.007,32.7H57.673a5.028,5.028,0,1,0,0-10.056H48.515l-5.381.371A5.052,5.052,0,0,0,40,27.675Z" fill="#ffcebf" fill-rule="evenodd"/>
              <path id="Trazado_875229" data-name="Trazado 875229" d="M45.007,32.7a5.028,5.028,0,1,0,0,10.056H56.1a5.028,5.028,0,1,0,0-10.056h-11.1Z" fill="#ffcebf" fill-rule="evenodd"/>
              <path id="Trazado_875230" data-name="Trazado 875230" d="M50.5,42.759h-3.54a4.462,4.462,0,1,0,0,8.924h5.7a4.481,4.481,0,0,0,.571-8.924H50.5Z" fill="#ffcebf" fill-rule="evenodd"/>
              <path id="Trazado_875231" data-name="Trazado 875231" d="M45.007,42.759a5.028,5.028,0,1,1,0-10.056,5.027,5.027,0,0,1-1.873-9.685,5.5,5.5,0,0,0,7.857-4.945V11.453L51,8.817c0-4.989-3.5-6.761-6.753-6.755l-11.48.006c-5.567.006-14.18,3.972-19.99,14.706L8.938,28.724l3.835,16.209c8.517,4.759,9.453,6.774,17.207,6.749H46.957a4.462,4.462,0,1,1,0-8.924Z" fill="#ffdfcf" fill-rule="evenodd"/>
              <path id="Trazado_875232" data-name="Trazado 875232" d="M73.341,22.647a5.028,5.028,0,1,0,0-10.056H50.991v5.482a5.5,5.5,0,0,1-2.476,4.574Z" fill="#ffcebf" fill-rule="evenodd"/>
              <path id="Trazado_875233" data-name="Trazado 875233" d="M73.341,22.647a5.028,5.028,0,0,0,.045-10.056c1.911,3.41-.417,6.019-3.617,6.019h-18.8a5.5,5.5,0,0,1-2.45,4.036Z" fill="#ffb09e" fill-rule="evenodd"/>
              <path id="Trazado_875234" data-name="Trazado 875234" d="M40.177,26.351A5.021,5.021,0,0,0,45.007,32.7H57.673a5.027,5.027,0,0,0,4.861-6.358c-.59,2.13-2.552,2.149-4.861,2.149H45.039c-2.264,0-4.259.026-4.862-2.143Z" fill="#ffb09e" fill-rule="evenodd"/>
              <path id="Trazado_875235" data-name="Trazado 875235" d="M45.007,39a5.07,5.07,0,0,1-4.675-3.147,4.966,4.966,0,0,0-.366,1.881,5.048,5.048,0,0,0,5.041,5.028H56.1a5.048,5.048,0,0,0,5.041-5.028,4.97,4.97,0,0,0-.372-1.881A5.055,5.055,0,0,1,56.1,39Z" fill="#ffb09e" fill-rule="evenodd"/>
              <line id="Línea_1628" data-name="Línea 1628" x2="9.184" transform="translate(48.515 22.647)" fill="none" stroke="#000" stroke-linecap="round" stroke-linejoin="round" stroke-miterlimit="10" stroke-width="3.369"/>
              <path id="Trazado_875236" data-name="Trazado 875236" d="M25.837,46.891a19.977,19.977,0,0,1-2.687-1.375l-10.377-6.25-1.584,1.663,1.584,4c8.517,4.759,9.453,6.774,17.207,6.749H46.957a4.48,4.48,0,0,1-4.38-3.582,4.367,4.367,0,0,1-.09-.876,2.833,2.833,0,0,1,.013-.333H25.837Z" fill="#ffcebf" fill-rule="evenodd"/>
              <path id="Trazado_875237" data-name="Trazado 875237" d="M12.773,44.934c8.517,4.759,9.453,6.774,17.207,6.749H46.957" fill="none" stroke="#000" stroke-linecap="round" stroke-linejoin="round" stroke-miterlimit="10" stroke-width="3.369"/>
              <path id="Trazado_875238" data-name="Trazado 875238" d="M35.688,12.9c-.366,2.412-4.31,4.043-6.445,3.928-5.086-.269-4.239,5.328,0,4.587,5.086.269,10.755-5,10.755-9.966v6.621a5.5,5.5,0,0,0,5.073,5.463c0-.2-.449-1.062-.442-1.292a8.464,8.464,0,0,1-.314-2.469V12.591c0-6.179-7.453-7.452-8.626.314Z" fill="#ffcebf" fill-rule="evenodd"/>
              <path id="Trazado_875239" data-name="Trazado 875239" d="M12.773,44.934V15.009a1.969,1.969,0,0,0-1.962-1.964H1.685V46.891h9.126a1.968,1.968,0,0,0,1.963-1.957Z" fill="#99e6fc" fill-rule="evenodd"/>
              <path id="Trazado_875240" data-name="Trazado 875240" d="M10.811,38.952H1.685v7.938h9.126a1.968,1.968,0,0,0,1.962-1.957V36.995a1.968,1.968,0,0,1-1.962,1.957Z" fill="#62dbfb" fill-rule="evenodd"/>
              <path id="Trazado_875241" data-name="Trazado 875241" d="M57.673,22.647H73.341a5.028,5.028,0,1,0,0-10.056H50.99" fill="none" stroke="#000" stroke-linecap="round" stroke-linejoin="round" stroke-miterlimit="10" stroke-width="3.369"/>
              <path id="Trazado_875242" data-name="Trazado 875242" d="M45.007,32.7a5.028,5.028,0,1,0,0,10.056H56.1a5.028,5.028,0,1,0,0-10.056Z" fill="none" stroke="#000" stroke-linecap="round" stroke-linejoin="round" stroke-miterlimit="10" stroke-width="3.369"/>
              <path id="Trazado_875243" data-name="Trazado 875243" d="M43.134,23.018A5.027,5.027,0,0,0,45.007,32.7m11.1,0h1.571a5.028,5.028,0,1,0,0-10.056" fill="none" stroke="#000" stroke-linecap="round" stroke-linejoin="round" stroke-miterlimit="10" stroke-width="3.369"/>
              <path id="Trazado_875244" data-name="Trazado 875244" d="M12.773,16.775C18.584,6.041,27.2,2.075,32.764,2.069l11.48-.006C47.5,2.056,51,3.828,51,8.817l-.007,3.774v5.482a5.5,5.5,0,0,1-10.992,0V11.453c0,4.97-5.669,10.235-10.755,9.966" fill="none" stroke="#000" stroke-linecap="round" stroke-linejoin="round" stroke-miterlimit="10" stroke-width="3.369"/>
              <path id="Trazado_875245" data-name="Trazado 875245" d="M1.685,46.891h9.126a1.968,1.968,0,0,0,1.962-1.957V34.1m0-7.817V15.009a1.969,1.969,0,0,0-1.962-1.964H1.685" fill="none" stroke="#000" stroke-linecap="round" stroke-linejoin="round" stroke-miterlimit="10" stroke-width="3.369"/>
              <path id="Trazado_875246" data-name="Trazado 875246" d="M5.109,112.938H113.315V7.205" fill="none" stroke="#000" stroke-linecap="round" stroke-linejoin="round" stroke-miterlimit="10" stroke-width="3.369"/>
              <line id="Línea_1629" data-name="Línea 1629" x2="8.453" transform="translate(104.144 17.012)" fill="none" stroke="#000" stroke-linecap="round" stroke-linejoin="round" stroke-miterlimit="10" stroke-width="3.369"/>
              <line id="Línea_1630" data-name="Línea 1630" x2="8.453" transform="translate(104.144 55.284)" fill="none" stroke="#000" stroke-linecap="round" stroke-linejoin="round" stroke-miterlimit="10" stroke-width="3.369"/>
              <line id="Línea_1631" data-name="Línea 1631" x2="8.453" transform="translate(104.144 74.416)" fill="none" stroke="#000" stroke-linecap="round" stroke-linejoin="round" stroke-miterlimit="10" stroke-width="3.369"/>
              <line id="Línea_1632" data-name="Línea 1632" x2="8.453" transform="translate(104.144 93.555)" fill="none" stroke="#000" stroke-linecap="round" stroke-linejoin="round" stroke-miterlimit="10" stroke-width="3.369"/>
              <rect id="Rectángulo_401901" data-name="Rectángulo 401901" width="7.824" height="58.537" transform="translate(86.065 54.151)" fill="#6fd7a3"/>
              <rect id="Rectángulo_401902" data-name="Rectángulo 401902" width="7.818" height="38.272" transform="translate(56.076 74.416)" fill="#62dbfb"/>
              <rect id="Rectángulo_401903" data-name="Rectángulo 401903" width="7.818" height="19.133" transform="translate(26.087 93.555)" fill="#e94444"/>
              <rect id="Rectángulo_401904" data-name="Rectángulo 401904" width="20.42" height="19.133" transform="translate(13.485 93.555)" fill="none" stroke="#000" stroke-linecap="round" stroke-linejoin="round" stroke-miterlimit="10" stroke-width="3.369"/>
              <rect id="Rectángulo_401905" data-name="Rectángulo 401905" width="20.414" height="38.272" transform="translate(43.48 74.416)" fill="none" stroke="#000" stroke-linecap="round" stroke-linejoin="round" stroke-miterlimit="10" stroke-width="3.369"/>
              <path id="Trazado_875247" data-name="Trazado 875247" d="M73.469,79.009V54.151h20.42v58.537H73.469V86.826" fill="none" stroke="#000" stroke-linecap="round" stroke-linejoin="round" stroke-miterlimit="10" stroke-width="3.369"/>
              <path id="Trazado_875248" data-name="Trazado 875248" d="M51.619,48.612h-4.9A4.2,4.2,0,0,1,42.6,46.239a3.644,3.644,0,0,0-.1.652,2.833,2.833,0,0,0-.013.333,4.367,4.367,0,0,0,.09.876,4.48,4.48,0,0,0,4.38,3.582h5.7a4.509,4.509,0,0,0,4.47-4.5,4.441,4.441,0,0,0-.346-1.727,4.212,4.212,0,0,1-4.361,3.154h-.8Z" fill="#ffb09e" fill-rule="evenodd"/>
              <path id="Trazado_875249" data-name="Trazado 875249" d="M46.956,42.759a4.462,4.462,0,1,0,0,8.924h5.7a4.481,4.481,0,0,0,.571-8.924" fill="none" stroke="#000" stroke-linecap="round" stroke-linejoin="round" stroke-miterlimit="10" stroke-width="3.369"/>
            </g>
          </g>
        </g>
      </g>
    </g>
  </g>
</svg>
