<svg xmlns="http://www.w3.org/2000/svg" xmlns:xlink="http://www.w3.org/1999/xlink" width="121.582" height="104" viewBox="0 0 121.582 104">
  <defs>
    <clipPath id="clip-path">
      <rect id="Rectángulo_401851" data-name="Rectángulo 401851" width="93" height="93" transform="translate(-1198 -8638)" fill="#fff" stroke="#707070" stroke-width="1"/>
    </clipPath>
  </defs>
  <g id="Grupo_1100792" data-name="Grupo 1100792" transform="translate(1212 8032)">
    <g id="Grupo_1100791" data-name="Grupo 1100791">
      <path id="_12068" data-name="12068" d="M94.486,72.232c-12.45-1.719-25.6-1.3-36.93,4.143-15.711,7.546-26.029,24.655-26.425,42.08s8.682,34.547,22.705,44.9S86.354,177.37,103.5,174.263c17.293-3.134,33.524-13.294,42.545-28.377,5.784-9.672,8.488-21.615,5.292-32.422-1.929-6.523-5.873-12.3-10.512-17.278A77.665,77.665,0,0,0,94.486,72.232Z" transform="translate(-1243.119 -8103.332)" fill="#7d6eb2"/>
      <g id="Enmascarar_grupo_1100088" data-name="Enmascarar grupo 1100088" transform="translate(0 606)" clip-path="url(#clip-path)">
        <g id="interaccion_2_" data-name="interaccion (2)" transform="translate(-1198 -8638.007)">
          <g id="Grupo_1100749" data-name="Grupo 1100749">
            <path id="Trazado_876120" data-name="Trazado 876120" d="M22.384,47.5A21.181,21.181,0,0,1,41.764,77.547a2.552,2.552,0,0,0-.151,1.732L44.3,89.3a1.191,1.191,0,0,1-1.459,1.459L32.567,88.009a2.549,2.549,0,0,0-1.668.123A21.175,21.175,0,1,1,22.384,47.5Z" fill="#ffa4d1"/>
            <path id="Trazado_876121" data-name="Trazado 876121" d="M44.3,89.3,41.613,79.279a2.55,2.55,0,0,1,.151-1.732,21.155,21.155,0,0,0-8.816-27.282A22.934,22.934,0,0,1,15.1,87.6c-.755,0-1.5-.038-2.237-.109a21.13,21.13,0,0,0,18.036.637,2.549,2.549,0,0,1,1.668-.123l10.273,2.753A1.191,1.191,0,0,0,44.3,89.3Z" fill="#ff7bba"/>
            <path id="Trazado_876122" data-name="Trazado 876122" d="M23.076,6.977A17.078,17.078,0,0,1,38.7,31.2a2.056,2.056,0,0,0-.122,1.4l2.166,8.082a.96.96,0,0,1-1.176,1.176l-8.283-2.219a2.055,2.055,0,0,0-1.345.1A17.073,17.073,0,1,1,23.076,6.977Z" fill="#00d1fd"/>
            <path id="Trazado_876123" data-name="Trazado 876123" d="M40.745,40.679,38.579,32.6a2.058,2.058,0,0,1,.122-1.4,17.064,17.064,0,0,0-8.27-22.6A18.225,18.225,0,0,1,17.018,39.163a18.423,18.423,0,0,1-1.918-.1,17.035,17.035,0,0,0,14.84.671,2.055,2.055,0,0,1,1.345-.1l8.283,2.219A.96.96,0,0,0,40.745,40.679Z" fill="#00c1fc"/>
            <path id="Trazado_876124" data-name="Trazado 876124" d="M64.4,2.2A15.527,15.527,0,0,0,50.192,24.22a1.87,1.87,0,0,1,.111,1.269l-1.969,7.348A.873.873,0,0,0,49.4,33.907l7.531-2.018a1.868,1.868,0,0,1,1.223.09A15.522,15.522,0,1,0,64.4,2.2Z" fill="#00d8a2"/>
            <path id="Trazado_876125" data-name="Trazado 876125" d="M73.852,5.493A15.529,15.529,0,0,1,55.983,27.657a11.742,11.742,0,0,0-6.145-.019l-.119.032-1.385,5.167A.873.873,0,0,0,49.4,33.907l7.531-2.018a1.868,1.868,0,0,1,1.223.09,15.523,15.523,0,0,0,15.7-26.487Z" fill="#00c4a4"/>
            <path id="Trazado_876126" data-name="Trazado 876126" d="M17.768,65.031s1.668,0,3.626-3.191c.8-1.3,1.39-2.273,1.812-2.972a1.489,1.489,0,0,1,2.2-.394l.5.4A3.6,3.6,0,0,1,27.27,61.69v1.988a.991.991,0,0,0,.991.991h3.814a3.167,3.167,0,0,1,3.047,4.03l-1.76,6.213a3.167,3.167,0,0,1-3.047,2.3H17.768Z" fill="#f7ebeb"/>
            <path id="Trazado_876127" data-name="Trazado 876127" d="M16.048,78.769H12.89a1.72,1.72,0,0,1-1.72-1.72V64.517a1.72,1.72,0,0,1,1.72-1.72h3.158a1.72,1.72,0,0,1,1.72,1.72V77.049A1.72,1.72,0,0,1,16.048,78.769Z" fill="#00a8ff"/>
            <path id="Trazado_876128" data-name="Trazado 876128" d="M32.075,64.669H29.61a3.479,3.479,0,0,1,1.03,3.508l-1.76,6.594a3.2,3.2,0,0,1-3.047,2.445h4.481a3.167,3.167,0,0,0,3.047-2.3l1.76-6.213A3.167,3.167,0,0,0,32.075,64.669Z" fill="#f2e1e1"/>
            <path id="Trazado_876129" data-name="Trazado 876129" d="M27.361,17.655a5.185,5.185,0,0,0-4.015,1.9.34.34,0,0,1-.526,0,5.2,5.2,0,0,0-9.212,3.3c0,2.871,2.391,4.528,4.5,6.019,1.49,1.056,3.02,2.06,4.572,3.024a.772.772,0,0,0,.813,0c1.525-.939,6.86-4.285,7.883-5.738a5.745,5.745,0,0,0,1.187-3.307A5.2,5.2,0,0,0,27.361,17.655Z" fill="#ff7bba"/>
            <path id="Trazado_876130" data-name="Trazado 876130" d="M71.537,38.963A20.252,20.252,0,0,0,53.008,67.689a2.439,2.439,0,0,1,.144,1.656l-2.568,9.584a1.139,1.139,0,0,0,1.395,1.395L61.8,77.692a2.436,2.436,0,0,1,1.595.117,20.246,20.246,0,1,0,8.141-38.846Z" fill="#ffd250"/>
            <path id="Trazado_876131" data-name="Trazado 876131" d="M83.868,43.262a20.256,20.256,0,0,1-23.307,28.91,15.315,15.315,0,0,0-8.015-.024l-.156.042-1.806,6.74a1.139,1.139,0,0,0,1.395,1.395L61.8,77.692a2.436,2.436,0,0,1,1.595.117A20.247,20.247,0,0,0,83.868,43.262Z" fill="#ffc433"/>
            <path id="Trazado_876132" data-name="Trazado 876132" d="M79.347,63.682a15.736,15.736,0,0,0-.716-5.777,15.339,15.339,0,0,0-8.515-9.7L70.1,48.2a.572.572,0,0,0-.7.849c2.723,4.039,1.1,8.767-1.283,9.059-1.455.179-1.95-.929-2.1-1.982A.573.573,0,0,0,64.97,55.9,12.764,12.764,0,0,0,62.9,64.606c.531,4.066,4.009,6.572,8.22,6.572,3.152,0,5.914-1.223,7.3-4.035A9.594,9.594,0,0,0,79.347,63.682Z" fill="#ff7bba"/>
          </g>
          <g id="Grupo_1100750" data-name="Grupo 1100750">
            <path id="Trazado_876133" data-name="Trazado 876133" d="M22.384,47.5A21.181,21.181,0,0,1,41.764,77.547a2.552,2.552,0,0,0-.151,1.732L44.3,89.3a1.191,1.191,0,0,1-1.459,1.459L32.567,88.009a2.549,2.549,0,0,0-1.668.123A21.175,21.175,0,1,1,22.384,47.5Z" fill="none" stroke="#000" stroke-linecap="round" stroke-linejoin="round" stroke-miterlimit="10" stroke-width="2.725"/>
            <path id="Trazado_876134" data-name="Trazado 876134" d="M64.4,2.2A15.527,15.527,0,0,0,50.192,24.22a1.87,1.87,0,0,1,.111,1.269l-1.969,7.348A.873.873,0,0,0,49.4,33.907l7.531-2.018a1.868,1.868,0,0,1,1.223.09A15.522,15.522,0,1,0,64.4,2.2Z" fill="none" stroke="#000" stroke-linecap="round" stroke-linejoin="round" stroke-miterlimit="10" stroke-width="2.725"/>
            <path id="Trazado_876135" data-name="Trazado 876135" d="M16.313,8.421A17.079,17.079,0,0,1,38.7,31.2a2.056,2.056,0,0,0-.122,1.4l2.166,8.082a.96.96,0,0,1-1.176,1.176l-8.283-2.219a2.055,2.055,0,0,0-1.345.1A17.073,17.073,0,0,1,11.122,11.981" fill="none" stroke="#000" stroke-linecap="round" stroke-linejoin="round" stroke-miterlimit="10" stroke-width="2.725"/>
            <path id="Trazado_876136" data-name="Trazado 876136" d="M17.768,65.031s1.668,0,3.626-3.191c.8-1.3,1.39-2.273,1.812-2.972a1.489,1.489,0,0,1,2.2-.394l.5.4A3.6,3.6,0,0,1,27.27,61.69v1.988a.991.991,0,0,0,.991.991h3.814a3.167,3.167,0,0,1,3.047,4.03l-1.76,6.213a3.167,3.167,0,0,1-3.047,2.3H17.768Z" fill="none" stroke="#000" stroke-linecap="round" stroke-linejoin="round" stroke-miterlimit="10" stroke-width="2.725"/>
            <path id="Trazado_876137" data-name="Trazado 876137" d="M16.048,78.769H12.89a1.72,1.72,0,0,1-1.72-1.72V64.517a1.72,1.72,0,0,1,1.72-1.72h3.158a1.72,1.72,0,0,1,1.72,1.72V77.049A1.72,1.72,0,0,1,16.048,78.769Z" fill="none" stroke="#000" stroke-linecap="round" stroke-linejoin="round" stroke-miterlimit="10" stroke-width="2.725"/>
            <path id="Trazado_876138" data-name="Trazado 876138" d="M27.361,17.655a5.185,5.185,0,0,0-4.015,1.9.34.34,0,0,1-.526,0,5.2,5.2,0,0,0-9.212,3.3c0,2.871,2.391,4.528,4.5,6.019,1.49,1.056,3.02,2.06,4.572,3.024a.772.772,0,0,0,.813,0c1.525-.939,6.86-4.285,7.883-5.738a5.745,5.745,0,0,0,1.187-3.307A5.2,5.2,0,0,0,27.361,17.655Z" fill="none" stroke="#000" stroke-linecap="round" stroke-linejoin="round" stroke-miterlimit="10" stroke-width="2.725"/>
            <line id="Línea_1657" data-name="Línea 1657" transform="translate(58.704 17.82)" fill="none" stroke="#000" stroke-linecap="round" stroke-linejoin="round" stroke-miterlimit="10" stroke-width="2.725"/>
            <line id="Línea_1658" data-name="Línea 1658" transform="translate(64.746 17.82)" fill="none" stroke="#000" stroke-linecap="round" stroke-linejoin="round" stroke-miterlimit="10" stroke-width="2.725"/>
            <line id="Línea_1659" data-name="Línea 1659" transform="translate(70.788 17.82)" fill="none" stroke="#000" stroke-linecap="round" stroke-linejoin="round" stroke-miterlimit="10" stroke-width="2.725"/>
            <path id="Trazado_876139" data-name="Trazado 876139" d="M91.015,64.175A20.232,20.232,0,0,0,71.537,38.963a20.252,20.252,0,0,0-18.53,28.726,2.439,2.439,0,0,1,.144,1.656l-2.568,9.584a1.139,1.139,0,0,0,1.395,1.395L61.8,77.692a2.436,2.436,0,0,1,1.595.117,20.218,20.218,0,0,0,24.316-6.663" fill="none" stroke="#000" stroke-linecap="round" stroke-linejoin="round" stroke-miterlimit="10" stroke-width="2.725"/>
            <path id="Trazado_876140" data-name="Trazado 876140" d="M79.347,63.682a15.736,15.736,0,0,0-.716-5.777,15.339,15.339,0,0,0-8.515-9.7L70.1,48.2a.572.572,0,0,0-.7.849c2.723,4.039,1.1,8.767-1.283,9.059-1.455.179-1.95-.929-2.1-1.982A.573.573,0,0,0,64.97,55.9,12.764,12.764,0,0,0,62.9,64.606c.531,4.066,4.009,6.572,8.22,6.572,3.152,0,5.914-1.223,7.3-4.035A9.594,9.594,0,0,0,79.347,63.682Z" fill="none" stroke="#000" stroke-linecap="round" stroke-linejoin="round" stroke-miterlimit="10" stroke-width="2.725"/>
          </g>
        </g>
      </g>
    </g>
  </g>
</svg>
