<svg xmlns="http://www.w3.org/2000/svg" xmlns:xlink="http://www.w3.org/1999/xlink" width="121.582" height="125.001" viewBox="0 0 121.582 125.001">
  <defs>
    <clipPath id="clip-path">
      <rect id="Rectángulo_401736" data-name="Rectángulo 401736" width="114" height="114" transform="translate(726 1313)" fill="#fff" stroke="#707070" stroke-width="1"/>
    </clipPath>
  </defs>
  <g id="Grupo_1100763" data-name="Grupo 1100763" transform="translate(-712 -1292)">
    <g id="Grupo_1100762" data-name="Grupo 1100762">
      <g id="Grupo_1100761" data-name="Grupo 1100761">
        <g id="Grupo_1100760" data-name="Grupo 1100760">
          <g id="Grupo_1100759" data-name="Grupo 1100759">
            <g id="Grupo_1100758" data-name="Grupo 1100758">
              <g id="Grupo_1100757" data-name="Grupo 1100757">
                <g id="Grupo_1100756" data-name="Grupo 1100756">
                  <path id="_12068" data-name="12068" d="M94.486,72.232c-12.45-1.719-25.6-1.3-36.93,4.143-15.711,7.546-26.029,24.655-26.425,42.08s8.682,34.547,22.705,44.9S86.354,177.37,103.5,174.263c17.293-3.134,33.524-13.294,42.545-28.377,5.784-9.672,8.488-21.615,5.292-32.422-1.929-6.523-5.873-12.3-10.512-17.278A77.665,77.665,0,0,0,94.486,72.232Z" transform="translate(680.881 1241.668)" fill="#7d6eb2"/>
                  <g id="Enmascarar_grupo_1100073" data-name="Enmascarar grupo 1100073" transform="translate(-10 -21)" clip-path="url(#clip-path)">
                    <g id="publico-objetivo_1_" data-name="publico-objetivo (1)" transform="translate(726 1313.95)">
                      <path id="Trazado_875190" data-name="Trazado 875190" d="M19.85,76.941l-7.6,5.373-7.6-5.373,7.6-5.373Z" transform="translate(-2.752 10.46)" fill="#ffc119"/>
                      <path id="Trazado_875191" data-name="Trazado 875191" d="M74.351,74.6V46.329a7.617,7.617,0,0,0-5.757-7.372L59.151,36.6V32.8a6.865,6.865,0,0,0,3.8-6.156V15.7a9.5,9.5,0,0,0-19,0V26.644a6.865,6.865,0,0,0,3.8,6.156v3.8l-9.443,2.356a7.617,7.617,0,0,0-5.757,7.372V74.6Z" transform="translate(3.548 -4.3)" fill="#ffc119"/>
                      <path id="Trazado_875192" data-name="Trazado 875192" d="M10.85,76.8V61.829a7.617,7.617,0,0,1,5.757-7.372L26.05,52.1V48.3a6.865,6.865,0,0,1-3.8-6.156V31.2a9.5,9.5,0,1,1,19,0V42.145a6.865,6.865,0,0,1-3.8,6.156v3.8l9.443,2.356a7.617,7.617,0,0,1,5.757,7.372V76.8Z" transform="translate(-1.352 -0.8)" fill="#3890ce"/>
                      <path id="Trazado_875193" data-name="Trazado 875193" d="M96.052,76.8V61.829a7.617,7.617,0,0,0-5.757-7.372L80.851,52.1V48.3a6.865,6.865,0,0,0,3.8-6.156V31.2a9.5,9.5,0,0,0-19,0V42.145a6.865,6.865,0,0,0,3.8,6.156v3.8l-9.443,2.356a7.617,7.617,0,0,0-5.757,7.372V76.8Z" transform="translate(8.448 -0.8)" fill="#3890ce"/>
                      <circle id="Elipse_11606" data-name="Elipse 11606" cx="22.8" cy="22.8" r="22.8" transform="translate(34.199 64.601)" fill="#ef5249"/>
                      <circle id="Elipse_11607" data-name="Elipse 11607" cx="15.2" cy="15.2" r="15.2" transform="translate(41.799 72.201)" fill="#d7e6eb"/>
                      <circle id="Elipse_11608" data-name="Elipse 11608" cx="7.6" cy="7.6" r="7.6" transform="translate(49.399 79.801)" fill="#ef5249"/>
                      <path id="Trazado_875194" data-name="Trazado 875194" d="M98.4,82.7H83.2L77.5,77l5.7-5.7H98.4Z" transform="translate(13.698 10.4)" fill="#ffc119"/>
                      <path id="Trazado_875195" data-name="Trazado 875195" d="M51.351,72a5.7,5.7,0,0,1,3.769,1.425l2.514-2.85a9.5,9.5,0,1,0,0,14.25l-2.514-2.85A5.7,5.7,0,1,1,51.351,72Z" transform="translate(5.648 9.7)"/>
                      <path id="Trazado_875196" data-name="Trazado 875196" d="M65.083,74.114l3.523-1.425a17.1,17.1,0,1,0,0,12.825l-3.523-1.425a13.3,13.3,0,1,1,0-9.975Z" transform="translate(4.249 8.3)"/>
                      <path id="Trazado_875197" data-name="Trazado 875197" d="M104.7,69.751H89.5a1.9,1.9,0,0,0-1.343.556l-5.144,5.144H49.6v3.8H83.015l5.143,5.143a1.9,1.9,0,0,0,1.343.557h15.2a1.9,1.9,0,0,0,1.9-1.9v-11.4A1.9,1.9,0,0,0,104.7,69.751Zm-1.9,11.4H90.288l-3.8-3.8,3.8-3.8H102.8Z" transform="translate(7.398 10.05)"/>
                      <path id="Trazado_875198" data-name="Trazado 875198" d="M15.5,57.351h3.8v11.4H15.5Z" transform="translate(-0.302 7.25)"/>
                      <path id="Trazado_875199" data-name="Trazado 875199" d="M108.1,80.651V65.679a9.5,9.5,0,0,0-7.2-9.215l-8-2V53.236a8.715,8.715,0,0,0,3.8-7.241V35.051a11.4,11.4,0,0,0-22.8,0v2.316l-7.6-1.9V34.232a8.721,8.721,0,0,0,3.8-7.22V16.05a11.4,11.4,0,1,0-22.8,0V27a8.721,8.721,0,0,0,3.8,7.23v1.235l-7.6,1.9V35.051a11.4,11.4,0,0,0-22.8,0V45.995a8.715,8.715,0,0,0,3.8,7.241v1.231l-8.009,2A9.5,9.5,0,0,0,9.3,65.679V80.651h3.8V65.679a5.7,5.7,0,0,1,4.317-5.527L26.86,57.8a1.9,1.9,0,0,0,1.44-1.845v-3.8a1.9,1.9,0,0,0-1.056-1.71A4.94,4.94,0,0,1,24.5,45.995V35.051a7.6,7.6,0,0,1,15.2,0V45.995a4.94,4.94,0,0,1-2.744,4.446,1.9,1.9,0,0,0-1.056,1.71v3.8a1.9,1.9,0,0,0,1.44,1.845l9.437,2.354A5.729,5.729,0,0,1,51.1,65.506l3.8-.11a9.55,9.55,0,0,0-7.194-8.93l-8.007-2V53.236a8.715,8.715,0,0,0,3.8-7.241V41.361c.177-.063.334-.161.517-.207l9.443-2.36a1.9,1.9,0,0,0,1.44-1.843v-3.8a1.9,1.9,0,0,0-1.051-1.7A4.94,4.94,0,0,1,51.1,27V16.05a7.6,7.6,0,0,1,15.2,0V27a4.94,4.94,0,0,1-2.749,4.448,1.9,1.9,0,0,0-1.051,1.7v3.8a1.9,1.9,0,0,0,1.44,1.843l9.441,2.36c.177.044.348.108.519.169v4.672a8.715,8.715,0,0,0,3.8,7.241v1.231l-8.009,2A9.548,9.548,0,0,0,62.5,65.4l3.8.11a5.727,5.727,0,0,1,4.313-5.354L80.057,57.8A1.9,1.9,0,0,0,81.5,55.951v-3.8a1.9,1.9,0,0,0-1.056-1.71A4.94,4.94,0,0,1,77.7,45.995V35.051a7.6,7.6,0,0,1,15.2,0V45.995a4.94,4.94,0,0,1-2.744,4.446,1.9,1.9,0,0,0-1.056,1.71v3.8a1.9,1.9,0,0,0,1.44,1.845l9.437,2.354a5.7,5.7,0,0,1,4.323,5.529V80.651Z" transform="translate(-1.702 -4.65)"/>
                      <path id="Trazado_875200" data-name="Trazado 875200" d="M80.6,57.351h3.8v11.4H80.6Z" transform="translate(14.398 7.25)"/>
                      <path id="Trazado_875201" data-name="Trazado 875201" d="M3.9,82.052l7.6,5.375a1.9,1.9,0,0,0,2.193,0L20.8,82.4H35.5a24.691,24.691,0,0,0,48.527,4.273l-3.682-.95a20.9,20.9,0,1,1,0-10.45l3.682-.95A24.691,24.691,0,0,0,35.5,78.6H20.8L13.7,73.576a1.9,1.9,0,0,0-2.193,0L3.9,78.951a1.9,1.9,0,0,0,0,3.1Zm8.7-4.59,4.309,3.04L12.6,83.542,8.291,80.5Z" transform="translate(-3.102 6.9)"/>
                    </g>
                  </g>
                </g>
              </g>
            </g>
          </g>
        </g>
      </g>
    </g>
  </g>
</svg>
