<svg xmlns="http://www.w3.org/2000/svg" xmlns:xlink="http://www.w3.org/1999/xlink" width="121.582" height="104" viewBox="0 0 121.582 104">
  <defs>
    <clipPath id="clip-path">
      <rect id="Rectángulo_401855" data-name="Rectángulo 401855" width="93" height="93" transform="translate(-829 -8638)" fill="#fff" stroke="#707070" stroke-width="1"/>
    </clipPath>
  </defs>
  <g id="Grupo_1100795" data-name="Grupo 1100795" transform="translate(843 8032)">
    <g id="Grupo_1100794" data-name="Grupo 1100794">
      <g id="Grupo_1100793" data-name="Grupo 1100793">
        <path id="_12068" data-name="12068" d="M94.486,72.232c-12.45-1.719-25.6-1.3-36.93,4.143-15.711,7.546-26.029,24.655-26.425,42.08s8.682,34.547,22.705,44.9S86.354,177.37,103.5,174.263c17.293-3.134,33.524-13.294,42.545-28.377,5.784-9.672,8.488-21.615,5.292-32.422-1.929-6.523-5.873-12.3-10.512-17.278A77.665,77.665,0,0,0,94.486,72.232Z" transform="translate(-874.119 -8103.332)" fill="#7d6eb2"/>
        <g id="Enmascarar_grupo_1100087" data-name="Enmascarar grupo 1100087" transform="translate(0 606)" clip-path="url(#clip-path)">
          <g id="interaccion_1_" data-name="interaccion (1)" transform="translate(-829 -8638)">
            <g id="Grupo_1100747" data-name="Grupo 1100747">
              <path id="Trazado_876103" data-name="Trazado 876103" d="M51.648,90.466c.757-.55-.876-5.59-.659-6.259.152-.468,2.746-4.571,2.746-4.571a24.233,24.233,0,0,1-3.9-.554c-.584-.424-2.155-5.478-3.228-5.478s-2.644,5.053-3.228,5.478-5.876.357-6.207,1.377,3.989,4.076,4.212,4.762A24.25,24.25,0,0,1,40.7,89.1s4.7-1.2,5.2-1.2c.7,0,4.992,3.111,5.749,2.561Z" fill="#f8e883"/>
              <path id="Trazado_876104" data-name="Trazado 876104" d="M53.735,79.636c-1.171,1.291-3.331,2.931-3.487,3.411-.223.686,1.476,5.7.608,6.329s-5.109-2.534-5.831-2.534c-.5,0-2.732,1.548-4.322,2.263-.206,1.156-.291,2.183.071,2.446.867.63,5.109-2.534,5.831-2.534s4.963,3.165,5.831,2.534-.832-5.642-.608-6.329,4.544-3.743,4.212-4.762c-.138-.426-1.141-.662-2.3-.823Z" fill="#ffd064"/>
              <path id="Trazado_876105" data-name="Trazado 876105" d="M31.961,35.878a8.338,8.338,0,0,0-2.528-5.965c-2.562-1.757-6.306-2.835-11.243-2.835C7.9,27.078,2.783,31.75,2.783,37.512a8.754,8.754,0,0,0,1.439,4.875c2.861,2.861,7.4,3.925,12.333,3.925,10.286,0,15.407-4.672,15.407-10.435Z" fill="#fbfeff"/>
              <path id="Trazado_876106" data-name="Trazado 876106" d="M33.6,37.512a9,9,0,0,0-4.163-7.6,8.754,8.754,0,0,1,1.439,4.875c0,5.763-5.12,10.435-15.407,10.435-4.937,0-8.681-1.078-11.243-2.835a11.7,11.7,0,0,0,6.322,4.466v5a1.55,1.55,0,0,0,2.646,1.1l5-5C28.476,47.947,33.6,43.275,33.6,37.512Z" fill="#d3effd"/>
              <path id="Trazado_876107" data-name="Trazado 876107" d="M71.846,62.874a5.175,5.175,0,0,0-1.783-3.941,14.337,14.337,0,0,0-7.178-1.6c-7.074,0-10.6,3.213-10.6,7.176a6.057,6.057,0,0,0,.693,2.851c1.977,1.977,5.213,2.69,8.268,2.69C68.325,70.051,71.846,66.838,71.846,62.874Z" fill="#fbfeff"/>
              <path id="Trazado_876108" data-name="Trazado 876108" d="M70.063,58.933a6.057,6.057,0,0,1,.693,2.851c0,3.963-3.521,7.176-10.6,7.176a14.337,14.337,0,0,1-7.178-1.6,7.747,7.747,0,0,0,4.644,3.572v3.436a1.066,1.066,0,0,0,1.82.754l3.438-3.438c7.074,0,10.6-3.213,10.6-7.176A6.307,6.307,0,0,0,70.063,58.933Z" fill="#d3effd"/>
              <path id="Trazado_876109" data-name="Trazado 876109" d="M20.172,12.549a11.132,11.132,0,0,0,2.034,6.428A10.81,10.81,0,0,0,29.724,22.1,11.187,11.187,0,0,0,40.911,10.914,9.53,9.53,0,0,0,37.787,3.4a11.184,11.184,0,0,0-17.615,9.153Z" fill="#f8e883"/>
              <path id="Trazado_876110" data-name="Trazado 876110" d="M28.634,21.011a11.132,11.132,0,0,1-6.428-2.034A11.185,11.185,0,1,0,37.787,3.4a11.184,11.184,0,0,1-9.153,17.615Z" fill="#ffd064"/>
              <path id="Trazado_876111" data-name="Trazado 876111" d="M39.141,36a16.485,16.485,0,0,0,3.566,10.265,15.06,15.06,0,0,0,11.355,4.656A16.556,16.556,0,0,0,70.618,34.367a15.81,15.81,0,0,0-4.656-11.355A16.556,16.556,0,0,0,39.141,36Z" fill="#f8e883"/>
              <path id="Trazado_876112" data-name="Trazado 876112" d="M52.973,49.833a16.485,16.485,0,0,1-10.265-3.566A16.556,16.556,0,1,0,65.962,23.012a16.556,16.556,0,0,1-12.99,26.821Z" fill="#ffd064"/>
              <path id="Trazado_876113" data-name="Trazado 876113" d="M54.463,2.67a3.906,3.906,0,0,0-6.822,2.6c0,2.165,1.235,4.184,4.107,6.521.139.094,1.413.8,1.553.7,4.659-3.162,6.9-5.6,6.9-8.312a4.518,4.518,0,0,0-1.37-2.536A3.9,3.9,0,0,0,54.463,2.67Z" fill="#e279b3"/>
              <path id="Trazado_876114" data-name="Trazado 876114" d="M52.208,11.788a.412.412,0,0,1-.461,0c.723.588,1.548,1.2,2.484,1.832a.413.413,0,0,0,.463,0c4.659-3.162,6.591-5.643,6.591-8.352a3.9,3.9,0,0,0-2.459-3.626,3.891,3.891,0,0,1,.28,1.447c0,2.71-2.238,5.538-6.9,8.7Z" fill="#de5791"/>
              <path id="Trazado_876115" data-name="Trazado 876115" d="M28.5,90.965c3.076-2.087,4.379-3.874,4.379-5.663a2.488,2.488,0,0,0-.91-1.661,2.567,2.567,0,0,0-2.782.715,2.579,2.579,0,0,0-4.5,1.715c0,1.357.735,2.627,2.431,4.072A8.07,8.07,0,0,0,28.5,90.965Z" fill="#e279b3"/>
              <path id="Trazado_876116" data-name="Trazado 876116" d="M31.969,83.642a2.276,2.276,0,0,1,.088.614c0,1.789-1.562,3.8-4.638,5.888a.272.272,0,0,1-.3,0,22.17,22.17,0,0,0,1.92,1.442.272.272,0,0,0,.306,0c3.076-2.087,4.352-3.726,4.352-5.515a2.577,2.577,0,0,0-1.722-2.43Z" fill="#de5791"/>
              <path id="Trazado_876117" data-name="Trazado 876117" d="M32.318,55.005a7.792,7.792,0,0,0-13.611,5.183c0,4.716,2.935,9.086,9.857,14.313.278.187,1.911,1.155,2.189.967,9.294-6.307,13.541-11.51,13.541-16.915a7.709,7.709,0,0,0-2.181-5.066,7.791,7.791,0,0,0-9.795,1.518Z" fill="#e279b3"/>
              <path id="Trazado_876118" data-name="Trazado 876118" d="M29.485,74.5a.823.823,0,0,1-.921,0q1.517,1.146,3.292,2.35a.823.823,0,0,0,.923,0c9.294-6.307,13.149-11.258,13.149-16.663a7.788,7.788,0,0,0-3.816-6.7A7.755,7.755,0,0,1,43.2,57.464C43.2,62.869,38.779,68.192,29.485,74.5Z" fill="#de5791"/>
            </g>
            <g id="Grupo_1100748" data-name="Grupo 1100748">
              <path id="Trazado_876119" data-name="Trazado 876119" d="M52.142,93c-1.064,0-2.422-.75-4.265-1.825-.413-.241-.941-.549-1.271-.717-.33.168-.859.476-1.271.717-2.543,1.483-4.163,2.348-5.36,1.477s-.875-2.677-.251-5.554c.1-.467.231-1.065.289-1.431-.262-.262-.718-.669-1.075-.988-2.2-1.96-3.519-3.234-3.061-4.641s2.276-1.66,5.2-1.955c.476-.048,1.084-.109,1.45-.167.168-.33.415-.89.607-1.327,1.186-2.694,1.988-4.346,3.468-4.346s2.282,1.651,3.468,4.346c.193.438.439,1,.608,1.327.366.058.974.12,1.45.168,2.929.3,4.747.548,5.2,1.955s-.865,2.681-3.061,4.641c-.357.318-.813.726-1.075.988.058.366.187.964.289,1.431.624,2.877.946,4.684-.251,5.554A1.8,1.8,0,0,1,52.142,93ZM46.6,87.654c.617,0,1.219.337,2.644,1.168.5.29,1.339.781,2.011,1.111-.106-.741-.313-1.693-.435-2.256-.35-1.612-.484-2.289-.293-2.876s.7-1.055,1.927-2.154c.43-.384,1.156-1.032,1.678-1.569-.738-.128-1.707-.226-2.28-.284-1.641-.165-2.327-.247-2.825-.609s-.788-.989-1.453-2.5c-.232-.527-.624-1.419-.974-2.081-.35.662-.742,1.553-.974,2.081-.664,1.509-.954,2.136-1.453,2.5s-1.184.444-2.825.609c-.573.058-1.542.155-2.28.284.521.537,1.248,1.186,1.678,1.57,1.23,1.1,1.737,1.567,1.927,2.153s.056,1.264-.294,2.875c-.122.563-.329,1.515-.435,2.256.672-.33,1.514-.82,2.011-1.111,1.425-.831,2.028-1.168,2.644-1.168ZM29.187,93a1.631,1.631,0,0,1-.918-.284c-3.468-2.354-4.948-4.34-4.948-6.641a3.94,3.94,0,0,1,5.867-3.438,3.94,3.94,0,0,1,5.867,3.438c0,2.3-1.48,4.288-4.949,6.641a1.631,1.631,0,0,1-.918.284Zm-1.925-8.142a1.218,1.218,0,0,0-1.217,1.217c0,.8.373,1.966,3.142,3.96,2.769-1.994,3.142-3.159,3.142-3.96a1.218,1.218,0,0,0-1.217-1.217,1.2,1.2,0,0,0-.909.408,1.363,1.363,0,0,1-2.034,0A1.2,1.2,0,0,0,27.261,84.855Zm5.056-6.5a2.18,2.18,0,0,1-1.227-.379c-9.635-6.539-13.746-11.859-13.746-17.79a9.153,9.153,0,0,1,14.973-7.067A9.154,9.154,0,0,1,47.29,60.188a13.239,13.239,0,0,1-2.342,7.392,1.362,1.362,0,0,1-2.281-1.489,10.6,10.6,0,0,0,1.9-5.9,6.43,6.43,0,0,0-11.232-4.277,1.363,1.363,0,0,1-2.034,0,6.43,6.43,0,0,0-11.231,4.277c0,4.862,3.668,9.458,12.248,15.329a56.157,56.157,0,0,0,6.911-5.431A1.362,1.362,0,0,1,41.1,72.064a59.825,59.825,0,0,1-7.558,5.914A2.179,2.179,0,0,1,32.318,78.358ZM58.7,76.8a2.432,2.432,0,0,1-2.431-2.43V71.875c-3.362-1.424-5.337-4.121-5.337-7.366,0-3.939,3.132-8.538,11.957-8.538s11.957,4.6,11.957,8.538c0,3.853-3,8.337-11.387,8.532l-3.046,3.046A2.421,2.421,0,0,1,58.7,76.8Zm4.19-18.1c-5.695,0-9.233,2.228-9.233,5.814,0,2.37,1.563,4.192,4.4,5.13a1.362,1.362,0,0,1,.935,1.294v2.722l2.933-2.933a1.361,1.361,0,0,1,.963-.4c5.695,0,9.233-2.228,9.233-5.814S68.581,58.7,62.886,58.7ZM83.117,74.252a1.362,1.362,0,0,1-1.362-1.362V17.605L76.98,22.38a1.362,1.362,0,1,1-1.927-1.926l7.1-7.1a1.362,1.362,0,0,1,1.927,0l7.1,7.1a1.362,1.362,0,1,1-1.927,1.926l-4.775-4.775V72.89a1.363,1.363,0,0,1-1.363,1.362ZM12.1,54.764A2.917,2.917,0,0,1,9.182,51.85V47.809c-4.947-1.94-7.761-5.649-7.761-10.3,0-4.935,3.169-8.812,8.7-10.637a1.362,1.362,0,1,1,.854,2.587c-4.4,1.453-6.825,4.312-6.825,8.05s2.424,6.593,6.826,8.047a1.362,1.362,0,0,1,.935,1.294v5a.188.188,0,0,0,.321.133l5-5a1.362,1.362,0,0,1,.963-.4c4.554,0,8.272-.965,10.753-2.791a7.639,7.639,0,0,0,0-12.562c-2.481-1.826-6.2-2.791-10.753-2.791-.8,0-1.576.03-2.319.088a1.362,1.362,0,0,1-.213-2.716c.814-.064,1.666-.1,2.532-.1,5.139,0,9.415,1.148,12.368,3.321a10.362,10.362,0,0,1,0,16.951c-2.843,2.092-6.913,3.235-11.8,3.317L14.153,53.91A2.906,2.906,0,0,1,12.1,54.764Zm43.6-.844a17.918,17.918,0,0,1,0-35.836,1.362,1.362,0,1,1,0,2.724,15.176,15.176,0,1,0,4.789.77,1.362,1.362,0,1,1,.858-2.586A17.921,17.921,0,0,1,55.7,53.92Zm0-8.881a11.779,11.779,0,0,1-9.237-4.766,1.362,1.362,0,1,1,2.132-1.7,8.621,8.621,0,0,0,14.211,0,1.362,1.362,0,1,1,2.132,1.7A11.78,11.78,0,0,1,55.7,45.039Zm3.735-10.117A1.362,1.362,0,0,1,58.07,33.56V30.386a1.362,1.362,0,0,1,2.724,0V33.56A1.362,1.362,0,0,1,59.433,34.922Zm-7.471,0A1.362,1.362,0,0,1,50.6,33.56V30.386a1.362,1.362,0,0,1,2.724,0V33.56A1.362,1.362,0,0,1,51.962,34.922ZM31.359,25.1A12.549,12.549,0,1,1,43.908,12.549,12.563,12.563,0,0,1,31.359,25.1Zm0-22.373a9.824,9.824,0,1,0,9.824,9.824,9.836,9.836,0,0,0-9.824-9.824Zm0,16.373a8.392,8.392,0,0,1-6.587-3.387,1.362,1.362,0,1,1,2.132-1.7,5.727,5.727,0,0,0,4.455,2.359,5.727,5.727,0,0,0,4.455-2.359,1.362,1.362,0,1,1,2.132,1.7A8.391,8.391,0,0,1,31.359,19.1Zm23.1-4.041a1.77,1.77,0,0,1-1-.308c-5.038-3.419-7.188-6.254-7.188-9.48A5.267,5.267,0,0,1,54.463.882a5.267,5.267,0,0,1,8.185,4.387c0,3.225-2.15,6.061-7.188,9.48h0a1.773,1.773,0,0,1-1,.308ZM51.546,2.724A2.547,2.547,0,0,0,49,5.268c0,2.117,1.64,4.186,5.46,6.858,3.82-2.671,5.46-4.74,5.46-6.858a2.544,2.544,0,0,0-4.443-1.692,1.363,1.363,0,0,1-2.034,0,2.546,2.546,0,0,0-1.9-.852ZM33.883,12.261A1.362,1.362,0,0,1,32.52,10.9V8.754a1.362,1.362,0,1,1,2.724,0V10.9A1.362,1.362,0,0,1,33.883,12.261Zm-5.048,0A1.362,1.362,0,0,1,27.473,10.9V8.754a1.362,1.362,0,1,1,2.724,0V10.9A1.362,1.362,0,0,1,28.835,12.261Z"/>
            </g>
          </g>
        </g>
      </g>
    </g>
  </g>
</svg>
