<svg xmlns="http://www.w3.org/2000/svg" xmlns:xlink="http://www.w3.org/1999/xlink" width="121.582" height="126.001" viewBox="0 0 121.582 126.001">
  <defs>
    <clipPath id="clip-path">
      <rect id="Rectángulo_401893" data-name="Rectángulo 401893" width="115" height="115" transform="translate(-5862 -10409)" fill="#fff" stroke="#707070" stroke-width="1"/>
    </clipPath>
  </defs>
  <g id="Grupo_1100765" data-name="Grupo 1100765" transform="translate(5865 10409)">
    <g id="Grupo_1100764" data-name="Grupo 1100764">
      <path id="_12068" data-name="12068" d="M94.486,72.232c-12.45-1.719-25.6-1.3-36.93,4.143-15.711,7.546-26.029,24.655-26.425,42.08s8.682,34.547,22.705,44.9S86.354,177.37,103.5,174.263c17.293-3.134,33.524-13.294,42.545-28.377,5.784-9.672,8.488-21.615,5.292-32.422-1.929-6.523-5.873-12.3-10.512-17.278A77.665,77.665,0,0,0,94.486,72.232Z" transform="translate(-5896.119 -10458.332)" fill="#7d6eb2"/>
      <g id="Enmascarar_grupo_1100077" data-name="Enmascarar grupo 1100077" clip-path="url(#clip-path)">
        <g id="datos" transform="translate(-5863.855 -10410.854)">
          <g id="Grupo_1100701" data-name="Grupo 1100701">
            <path id="Trazado_875262" data-name="Trazado 875262" d="M35.242,31.532A14.84,14.84,0,0,1,9.909,42.026L20.4,31.532Z" fill="#ffda44"/>
            <path id="Trazado_875263" data-name="Trazado 875263" d="M20.4,16.694V31.532L9.909,42.026A14.84,14.84,0,0,1,20.4,16.694Z" fill="#83d8f4"/>
            <path id="Trazado_875264" data-name="Trazado 875264" d="M35.242,31.532H20.4V16.694A14.839,14.839,0,0,1,35.242,31.532Z" fill="#ab2300"/>
            <g id="Grupo_1100699" data-name="Grupo 1100699">
              <circle id="Elipse_11609" data-name="Elipse 11609" cx="20.403" cy="20.403" r="20.403" transform="translate(66.774 63.065)" fill="#ff9811"/>
              <circle id="Elipse_11610" data-name="Elipse 11610" cx="14.839" cy="14.839" r="14.839" transform="translate(72.339 68.629)" fill="#ffda44"/>
            </g>
            <path id="Trazado_875265" data-name="Trazado 875265" d="M74.194,7.419h7.419v37.1H74.194Z" fill="#91cc04"/>
            <path id="Trazado_875266" data-name="Trazado 875266" d="M87.177,25.968H94.6V44.516H87.177Z" fill="#83d8f4"/>
            <path id="Trazado_875267" data-name="Trazado 875267" d="M100.161,18.548h7.419V44.516h-7.419Z" fill="#ff9811"/>
            <path id="Trazado_875268" data-name="Trazado 875268" d="M48.226,25.968h7.419V44.516H48.226Z" fill="#83d8f4"/>
            <path id="Trazado_875269" data-name="Trazado 875269" d="M61.21,18.548h7.419V44.516H61.21Z" fill="#ff9811"/>
            <path id="Trazado_875270" data-name="Trazado 875270" d="M3.71,68.629H59.355V115H3.71Z" fill="#ffeb99"/>
            <path id="Trazado_875271" data-name="Trazado 875271" d="M9.274,76.048H53.79v9.274H9.274Z" fill="#ff9811"/>
            <g id="Grupo_1100700" data-name="Grupo 1100700">
              <path id="Trazado_875272" data-name="Trazado 875272" d="M3.71,3.71h9.274V9.274H3.71Z" fill="#ab2300"/>
              <path id="Trazado_875273" data-name="Trazado 875273" d="M105.726,109.435H115V115h-9.274Z" transform="translate(220.726 224.435) rotate(180)" fill="#ab2300"/>
            </g>
          </g>
          <g id="Grupo_1100702" data-name="Grupo 1100702">
            <path id="Trazado_875274" data-name="Trazado 875274" d="M20.4,14.839A16.681,16.681,0,0,0,8.456,43.174a1.792,1.792,0,0,0,.306.306A16.688,16.688,0,1,0,20.4,14.839Zm1.855,3.844A13.009,13.009,0,0,1,33.253,29.677H22.258ZM7.419,31.532A13,13,0,0,1,18.548,18.683V30.765L10.009,39.3a12.916,12.916,0,0,1-2.59-7.772ZM20.4,44.516a12.916,12.916,0,0,1-7.772-2.59l8.539-8.539H33.253A13,13,0,0,1,20.4,44.516Z"/>
            <path id="Trazado_875275" data-name="Trazado 875275" d="M87.177,61.21A22.247,22.247,0,0,0,68.6,95.712L61.21,103.1V68.629a1.855,1.855,0,0,0-1.855-1.855h-4.8L63.832,57.5H81.613a1.855,1.855,0,0,0,0-3.71H63.065a1.857,1.857,0,0,0-1.312.543L49.313,66.774H3.71a1.855,1.855,0,0,0-1.855,1.855V115a1.855,1.855,0,0,0,1.855,1.855H59.355A1.855,1.855,0,0,0,61.21,115v-6.652l9.7-9.7A22.253,22.253,0,1,0,87.177,61.21ZM57.5,107.578v5.567H5.565V70.484H57.5Zm29.677-5.562a18.548,18.548,0,1,1,18.548-18.548,18.548,18.548,0,0,1-18.548,18.548Z"/>
            <path id="Trazado_875276" data-name="Trazado 875276" d="M87.177,66.774a16.694,16.694,0,1,0,16.694,16.694A16.694,16.694,0,0,0,87.177,66.774Zm0,29.677a12.984,12.984,0,1,1,12.984-12.984A12.984,12.984,0,0,1,87.177,96.452Z"/>
            <path id="Trazado_875277" data-name="Trazado 875277" d="M92.742,83.468v5.565a1.855,1.855,0,0,1-1.855,1.855H89.032a1.855,1.855,0,0,1-3.71,0H83.468a1.855,1.855,0,0,1,0-3.71h5.565V85.323H83.468a1.855,1.855,0,0,1-1.855-1.855V77.9a1.855,1.855,0,0,1,1.855-1.855h1.855a1.855,1.855,0,0,1,3.71,0h1.855a1.855,1.855,0,0,1,0,3.71H85.323v1.855h5.565A1.855,1.855,0,0,1,92.742,83.468Z"/>
            <path id="Trazado_875278" data-name="Trazado 875278" d="M74.194,46.371h7.419a1.855,1.855,0,0,0,1.855-1.855V7.419a1.855,1.855,0,0,0-1.855-1.855H74.194a1.855,1.855,0,0,0-1.855,1.855v37.1A1.855,1.855,0,0,0,74.194,46.371Zm1.855-37.1h3.71V42.661h-3.71Z"/>
            <path id="Trazado_875279" data-name="Trazado 875279" d="M87.177,46.371H94.6a1.855,1.855,0,0,0,1.855-1.855V25.968A1.855,1.855,0,0,0,94.6,24.113H87.177a1.855,1.855,0,0,0-1.855,1.855V44.516A1.855,1.855,0,0,0,87.177,46.371Zm1.855-18.548h3.71V42.661h-3.71Z"/>
            <path id="Trazado_875280" data-name="Trazado 875280" d="M100.161,46.371h7.419a1.855,1.855,0,0,0,1.855-1.855V18.548a1.855,1.855,0,0,0-1.855-1.855h-7.419a1.855,1.855,0,0,0-1.855,1.855V44.516A1.855,1.855,0,0,0,100.161,46.371ZM102.016,20.4h3.71V42.661h-3.71Z"/>
            <path id="Trazado_875281" data-name="Trazado 875281" d="M48.226,46.371h7.419A1.855,1.855,0,0,0,57.5,44.516V25.968a1.855,1.855,0,0,0-1.855-1.855H48.226a1.855,1.855,0,0,0-1.855,1.855V44.516A1.855,1.855,0,0,0,48.226,46.371Zm1.855-18.548h3.71V42.661h-3.71Z"/>
            <path id="Trazado_875282" data-name="Trazado 875282" d="M61.21,46.371h7.419a1.855,1.855,0,0,0,1.855-1.855V18.548a1.855,1.855,0,0,0-1.855-1.855H61.21a1.855,1.855,0,0,0-1.855,1.855V44.516A1.855,1.855,0,0,0,61.21,46.371ZM63.065,20.4h3.71V42.661h-3.71Z"/>
            <path id="Trazado_875283" data-name="Trazado 875283" d="M42.661,51.935H115a1.855,1.855,0,1,0,0-3.71H44.516V3.71a1.855,1.855,0,1,0-3.71,0V50.081A1.855,1.855,0,0,0,42.661,51.935Z"/>
            <path id="Trazado_875284" data-name="Trazado 875284" d="M53.79,74.194H9.274a1.855,1.855,0,0,0-1.855,1.855v9.274a1.855,1.855,0,0,0,1.855,1.855H53.79a1.855,1.855,0,0,0,1.855-1.855V76.048A1.855,1.855,0,0,0,53.79,74.194Zm-1.855,9.274H11.129V77.9H51.935Z"/>
            <path id="Trazado_875285" data-name="Trazado 875285" d="M53.79,89.032H9.274a1.855,1.855,0,0,0,0,3.71H53.79a1.855,1.855,0,1,0,0-3.71Z"/>
            <path id="Trazado_875286" data-name="Trazado 875286" d="M53.79,94.6H9.274a1.855,1.855,0,1,0,0,3.71H53.79a1.855,1.855,0,1,0,0-3.71Z"/>
            <path id="Trazado_875287" data-name="Trazado 875287" d="M53.79,100.161H9.274a1.855,1.855,0,0,0,0,3.71H53.79a1.855,1.855,0,1,0,0-3.71Z"/>
            <path id="Trazado_875288" data-name="Trazado 875288" d="M27.823,105.726H9.274a1.855,1.855,0,0,0,0,3.71H27.823a1.855,1.855,0,1,0,0-3.71Z"/>
            <path id="Trazado_875289" data-name="Trazado 875289" d="M35.242,105.726H33.387a1.855,1.855,0,0,0,0,3.71h1.855a1.855,1.855,0,1,0,0-3.71Z"/>
            <path id="Trazado_875290" data-name="Trazado 875290" d="M87.177,53.79a1.855,1.855,0,1,0,0,3.71h1.855a1.855,1.855,0,1,0,0-3.71Z"/>
            <path id="Trazado_875291" data-name="Trazado 875291" d="M27.823,50.081H9.274a1.855,1.855,0,1,0,0,3.71h17.78l8.731,8.731A1.855,1.855,0,0,0,38.408,59.9l-9.274-9.274a1.855,1.855,0,0,0-1.312-.543Z"/>
            <path id="Trazado_875292" data-name="Trazado 875292" d="M3.71,11.129h9.274a1.855,1.855,0,0,0,1.855-1.855V3.71a1.855,1.855,0,0,0-1.855-1.855H3.71A1.855,1.855,0,0,0,1.855,3.71V9.274A1.855,1.855,0,0,0,3.71,11.129ZM5.565,5.565h5.565V7.419H5.565Z"/>
            <path id="Trazado_875293" data-name="Trazado 875293" d="M18.548,5.565H35.242a1.855,1.855,0,1,0,0-3.71H18.548a1.855,1.855,0,1,0,0,3.71Z"/>
            <path id="Trazado_875294" data-name="Trazado 875294" d="M18.548,11.129h5.565a1.855,1.855,0,1,0,0-3.71H18.548a1.855,1.855,0,1,0,0,3.71Z"/>
            <path id="Trazado_875295" data-name="Trazado 875295" d="M115,107.581h-9.274a1.855,1.855,0,0,0-1.855,1.855V115a1.855,1.855,0,0,0,1.855,1.855H115A1.855,1.855,0,0,0,116.855,115v-5.565A1.855,1.855,0,0,0,115,107.581Zm-1.855,5.565h-5.565V111.29h5.565Z"/>
            <path id="Trazado_875296" data-name="Trazado 875296" d="M100.161,113.145H83.468a1.855,1.855,0,0,0,0,3.71h16.694a1.855,1.855,0,0,0,0-3.71Z"/>
            <path id="Trazado_875297" data-name="Trazado 875297" d="M100.161,107.581H94.6a1.855,1.855,0,1,0,0,3.71h5.565a1.855,1.855,0,0,0,0-3.71Z"/>
          </g>
        </g>
      </g>
    </g>
  </g>
</svg>
