<svg xmlns="http://www.w3.org/2000/svg" xmlns:xlink="http://www.w3.org/1999/xlink" width="121.582" height="125.001" viewBox="0 0 121.582 125.001">
  <defs>
    <clipPath id="clip-path">
      <rect id="Rectángulo_401895" data-name="Rectángulo 401895" width="115" height="115" transform="translate(-6221 -9980)" fill="#fff" stroke="#707070" stroke-width="1"/>
    </clipPath>
  </defs>
  <g id="Grupo_1100771" data-name="Grupo 1100771" transform="translate(6225 9980)">
    <g id="Grupo_1100770" data-name="Grupo 1100770">
      <g id="Grupo_1100769" data-name="Grupo 1100769">
        <path id="_12068" data-name="12068" d="M94.486,72.232c-12.45-1.719-25.6-1.3-36.93,4.143-15.711,7.546-26.029,24.655-26.425,42.08s8.682,34.547,22.705,44.9S86.354,177.37,103.5,174.263c17.293-3.134,33.524-13.294,42.545-28.377,5.784-9.672,8.488-21.615,5.292-32.422-1.929-6.523-5.873-12.3-10.512-17.278A77.665,77.665,0,0,0,94.486,72.232Z" transform="translate(-6256.119 -10030.332)" fill="#7d6eb2"/>
        <g id="Enmascarar_grupo_1100079" data-name="Enmascarar grupo 1100079" clip-path="url(#clip-path)">
          <g id="lista-de-verificacion" transform="translate(-6214.846 -9980)">
            <g id="Grupo_1100723" data-name="Grupo 1100723">
              <path id="Trazado_875326" data-name="Trazado 875326" d="M98.515,101.039H25.24V4.178a2.493,2.493,0,0,1,2.493-2.493H98.515a2.493,2.493,0,0,1,2.493,2.493V98.546a2.494,2.494,0,0,1-2.493,2.493Z" fill="#6fd7a3"/>
              <path id="Trazado_875327" data-name="Trazado 875327" d="M98.515,1.685H93.422a2.493,2.493,0,0,1,2.493,2.493V98.546a2.493,2.493,0,0,1-2.493,2.493h5.093a2.493,2.493,0,0,0,2.493-2.493V4.178a2.494,2.494,0,0,0-2.493-2.493Z" fill="#3ec3a4"/>
              <path id="Trazado_875328" data-name="Trazado 875328" d="M82.027,17.435l-4.582-3.474H16.485a2.493,2.493,0,0,0-2.493,2.493v94.368a2.493,2.493,0,0,0,2.493,2.493H87.266a2.493,2.493,0,0,0,2.493-2.493V26.646l-6.009-1.533Z" fill="#faf7f8"/>
              <g id="Grupo_1100715" data-name="Grupo 1100715">
                <path id="Trazado_875329" data-name="Trazado 875329" fill="#dedbee"/>
                <path id="Trazado_875330" data-name="Trazado 875330" d="M84.643,110.822a2.493,2.493,0,0,1-2.493,2.493h5.117a2.493,2.493,0,0,0,2.493-2.493V26.646L84.643,25.34Z" fill="#dedbee"/>
              </g>
              <path id="Trazado_875331" data-name="Trazado 875331" d="M77.445,13.961c1.984,3.871,1.249,7.845-.809,11.869a1.741,1.741,0,0,0,1.183,2.506c4.9,1.014,9,.66,11.941-1.69V24.309A10.348,10.348,0,0,0,79.411,13.961Z" fill="#d2cfe9"/>
              <circle id="Elipse_11611" data-name="Elipse 11611" cx="13.975" cy="13.975" r="13.975" transform="translate(37.9 22.518)" fill="#ffea76"/>
              <path id="Trazado_875332" data-name="Trazado 875332" d="M51.876,22.518a14.039,14.039,0,0,0-2.832.287,13.978,13.978,0,0,1,0,27.375,13.976,13.976,0,1,0,2.832-27.662Z" fill="#ffe54c"/>
              <g id="Grupo_1100722" data-name="Grupo 1100722">
                <g id="Grupo_1100717" data-name="Grupo 1100717">
                  <g id="Grupo_1100716" data-name="Grupo 1100716">
                    <path id="Trazado_875333" data-name="Trazado 875333" d="M32.885,66.008H25.68a1.987,1.987,0,0,1-1.987-1.987V56.816a1.987,1.987,0,0,1,1.987-1.987h7.205a1.987,1.987,0,0,1,1.987,1.987v7.205A1.987,1.987,0,0,1,32.885,66.008Z" fill="#6fd7a3"/>
                  </g>
                </g>
                <g id="Grupo_1100719" data-name="Grupo 1100719">
                  <g id="Grupo_1100718" data-name="Grupo 1100718">
                    <path id="Trazado_875334" data-name="Trazado 875334" d="M32.885,85.563H25.68a1.987,1.987,0,0,1-1.987-1.987V76.371a1.987,1.987,0,0,1,1.987-1.987h7.205a1.987,1.987,0,0,1,1.987,1.987v7.205A1.987,1.987,0,0,1,32.885,85.563Z" fill="#6fd7a3"/>
                  </g>
                </g>
                <g id="Grupo_1100721" data-name="Grupo 1100721">
                  <g id="Grupo_1100720" data-name="Grupo 1100720">
                    <path id="Trazado_875335" data-name="Trazado 875335" d="M32.885,105.118H25.68a1.987,1.987,0,0,1-1.987-1.987V95.926A1.987,1.987,0,0,1,25.68,93.94h7.205a1.987,1.987,0,0,1,1.987,1.987v7.205A1.987,1.987,0,0,1,32.885,105.118Z" fill="#6fd7a3"/>
                  </g>
                </g>
              </g>
            </g>
            <g id="Grupo_1100724" data-name="Grupo 1100724">
              <path id="Trazado_875336" data-name="Trazado 875336" d="M101.008,10.584A1.684,1.684,0,0,0,102.693,8.9V4.178A4.183,4.183,0,0,0,98.515,0H27.734a4.183,4.183,0,0,0-4.178,4.178v8.1H16.485a4.183,4.183,0,0,0-4.178,4.178v94.368A4.183,4.183,0,0,0,16.485,115h8.858a1.685,1.685,0,1,0,0-3.369H16.485a.81.81,0,0,1-.809-.809V16.454a.81.81,0,0,1,.809-.809H76.356c1.048,2.74.65,5.762-1.219,9.418A3.418,3.418,0,0,0,75.1,28.12a3.382,3.382,0,0,0,2.382,1.865,25.424,25.424,0,0,0,5.128.575,14.236,14.236,0,0,0,5.469-.988v81.249a.81.81,0,0,1-.809.809H31.857a1.685,1.685,0,0,0,0,3.369H87.266a4.183,4.183,0,0,0,4.178-4.178v-8.1h7.07a4.183,4.183,0,0,0,4.178-4.178V15.413a1.685,1.685,0,1,0-3.369,0V98.546a.81.81,0,0,1-.809.809h-7.07V24.309A12.047,12.047,0,0,0,79.411,12.276H26.925v-8.1a.81.81,0,0,1,.809-.809H98.515a.81.81,0,0,1,.809.809V8.9a1.684,1.684,0,0,0,1.684,1.684ZM88.075,24.309v1.475c-2.334,1.5-5.589,1.8-9.915.9-.013,0-.018,0-.027-.022a.069.069,0,0,1,0-.067c2.058-4.024,2.643-7.627,1.762-10.938A8.675,8.675,0,0,1,88.075,24.309Z"/>
              <path id="Trazado_875337" data-name="Trazado 875337" d="M51.791,40.586a2.9,2.9,0,0,1-2.141-.553,1.685,1.685,0,1,0-1.844,2.82,6.026,6.026,0,0,0,2.312.991v.126a1.685,1.685,0,0,0,3.369,0v-.317a4.917,4.917,0,0,0,3.155-3.807,4.423,4.423,0,0,0-3-5.009,11.294,11.294,0,0,1-2.818-1.3.637.637,0,0,1-.05-.472.878.878,0,0,1,.557-.695,4.246,4.246,0,0,1,2.74.285,1.685,1.685,0,0,0,1.532-3,7.733,7.733,0,0,0-2.114-.672,1.684,1.684,0,0,0-3.369.031v.211a4.225,4.225,0,0,0-2.656,3.216,3.809,3.809,0,0,0,1.282,3.748,13.671,13.671,0,0,0,3.775,1.823,1.058,1.058,0,0,1,.8,1.273,1.529,1.529,0,0,1-1.529,1.3Z"/>
              <path id="Trazado_875338" data-name="Trazado 875338" d="M40.441,28.285a1.685,1.685,0,0,0-2.288.663,15.664,15.664,0,1,0,4.909-5.4,1.685,1.685,0,1,0,1.9,2.783A12.286,12.286,0,1,1,41.1,30.574a1.685,1.685,0,0,0-.663-2.289Z"/>
              <path id="Trazado_875339" data-name="Trazado 875339" d="M35.991,51.472l-1.578,2.006a3.65,3.65,0,0,0-1.529-.334H25.68a3.675,3.675,0,0,0-3.671,3.671v7.205a3.675,3.675,0,0,0,3.671,3.671h7.205a3.676,3.676,0,0,0,3.671-3.671V56.816a3.666,3.666,0,0,0-.042-.559l2.125-2.7a1.685,1.685,0,0,0-2.648-2.083Zm-2.8,12.549a.3.3,0,0,1-.3.3H25.68a.3.3,0,0,1-.3-.3V56.816a.3.3,0,0,1,.3-.3h6.346L30.1,58.967l-.922-.648a1.685,1.685,0,1,0-1.936,2.757l2.228,1.565a1.685,1.685,0,0,0,2.292-.337l1.429-1.817Z"/>
              <path id="Trazado_875340" data-name="Trazado 875340" d="M80.058,58.734H41.651a1.685,1.685,0,0,0,0,3.369H80.058a1.685,1.685,0,0,0,0-3.369Z"/>
              <path id="Trazado_875341" data-name="Trazado 875341" d="M22.008,83.576a3.675,3.675,0,0,0,3.671,3.671h7.205a3.676,3.676,0,0,0,3.671-3.671V76.371a3.666,3.666,0,0,0-.042-.559l2.125-2.7a1.684,1.684,0,0,0-2.648-2.083l-1.578,2.006a3.65,3.65,0,0,0-1.528-.334H25.68a3.675,3.675,0,0,0-3.671,3.671Zm3.369-7.205a.3.3,0,0,1,.3-.3h6.346L30.1,78.522l-.922-.648a1.685,1.685,0,1,0-1.936,2.757L29.466,82.2a1.685,1.685,0,0,0,2.292-.337l1.429-1.817v3.534a.3.3,0,0,1-.3.3H25.68a.3.3,0,0,1-.3-.3Z"/>
              <path id="Trazado_875342" data-name="Trazado 875342" d="M80.058,78.289H41.651a1.685,1.685,0,0,0,0,3.369H80.058a1.685,1.685,0,0,0,0-3.369Z"/>
              <path id="Trazado_875343" data-name="Trazado 875343" d="M22.008,103.131A3.675,3.675,0,0,0,25.68,106.8h7.205a3.676,3.676,0,0,0,3.671-3.671V95.926a3.666,3.666,0,0,0-.042-.559l2.125-2.7a1.684,1.684,0,0,0-2.648-2.083l-1.578,2.006a3.65,3.65,0,0,0-1.528-.334H25.68a3.675,3.675,0,0,0-3.671,3.671Zm3.369-7.205a.3.3,0,0,1,.3-.3h6.346L30.1,98.077l-.922-.648a1.685,1.685,0,0,0-1.936,2.757l2.228,1.565a1.685,1.685,0,0,0,2.292-.337L33.187,99.6v3.534a.3.3,0,0,1-.3.3H25.68a.3.3,0,0,1-.3-.3Z"/>
              <path id="Trazado_875344" data-name="Trazado 875344" d="M80.058,97.844H41.651a1.685,1.685,0,1,0,0,3.369H80.058a1.685,1.685,0,0,0,0-3.369Z"/>
            </g>
          </g>
        </g>
      </g>
    </g>
  </g>
</svg>
