<svg xmlns="http://www.w3.org/2000/svg" xmlns:xlink="http://www.w3.org/1999/xlink" width="121.582" height="125.001" viewBox="0 0 121.582 125.001">
  <defs>
    <clipPath id="clip-path">
      <rect id="Rectángulo_401894" data-name="Rectángulo 401894" width="115" height="115" transform="translate(-5862 -9980)" fill="#fff" stroke="#707070" stroke-width="1"/>
    </clipPath>
  </defs>
  <g id="Grupo_1100774" data-name="Grupo 1100774" transform="translate(5865 9980)">
    <g id="Grupo_1100773" data-name="Grupo 1100773">
      <g id="Grupo_1100772" data-name="Grupo 1100772">
        <path id="_12068" data-name="12068" d="M94.486,72.232c-12.45-1.719-25.6-1.3-36.93,4.143-15.711,7.546-26.029,24.655-26.425,42.08s8.682,34.547,22.705,44.9S86.354,177.37,103.5,174.263c17.293-3.134,33.524-13.294,42.545-28.377,5.784-9.672,8.488-21.615,5.292-32.422-1.929-6.523-5.873-12.3-10.512-17.278A77.665,77.665,0,0,0,94.486,72.232Z" transform="translate(-5896.119 -10030.332)" fill="#7d6eb2"/>
        <g id="Enmascarar_grupo_1100080" data-name="Enmascarar grupo 1100080" clip-path="url(#clip-path)">
          <g id="calificacion" transform="translate(-5863.716 -9981.724)">
            <g id="Grupo_1100729" data-name="Grupo 1100729">
              <g id="Grupo_1100725" data-name="Grupo 1100725">
                <path id="Trazado_875345" data-name="Trazado 875345" d="M76.876,10.966a3.955,3.955,0,0,1,3.948,3.948V87.558a3.956,3.956,0,0,1-3.948,3.948h-60.8a3.956,3.956,0,0,1-3.948-3.948V14.914a3.955,3.955,0,0,1,3.948-3.948Z" fill="#837683" fill-rule="evenodd"/>
                <path id="Trazado_875346" data-name="Trazado 875346" d="M71.781,91.506h5.095a3.956,3.956,0,0,0,3.948-3.948V14.914a3.956,3.956,0,0,0-3.948-3.948H71.781Z" fill="#685e68" fill-rule="evenodd"/>
                <path id="Trazado_875347" data-name="Trazado 875347" d="M73.557,16.459H19.4a1.779,1.779,0,0,0-1.775,1.775v66A1.779,1.779,0,0,0,19.4,86.014h54.16a1.779,1.779,0,0,0,1.775-1.775v-66A1.779,1.779,0,0,0,73.557,16.459Z" fill="#eceff1" fill-rule="evenodd"/>
                <path id="Trazado_875348" data-name="Trazado 875348" d="M71.781,86.014h1.776q.084,0,.166-.008a1.779,1.779,0,0,0,1.609-1.768v-66a1.779,1.779,0,0,0-1.609-1.768q-.082-.008-.166-.008H71.781Z" fill="#d1d1d6" fill-rule="evenodd"/>
                <path id="Trazado_875349" data-name="Trazado 875349" d="M33.052,8.58H38.68A1.744,1.744,0,0,0,40.31,7.507a6.714,6.714,0,0,1,12.333,0A1.743,1.743,0,0,0,54.274,8.58H59.9a1.779,1.779,0,0,1,1.775,1.775V17.07A1.779,1.779,0,0,1,59.9,18.845H33.052a1.779,1.779,0,0,1-1.775-1.775V10.355A1.779,1.779,0,0,1,33.052,8.58Z" fill="#e3a76f" fill-rule="evenodd"/>
                <path id="Trazado_875350" data-name="Trazado 875350" d="M58.126,17.069H31.277a1.779,1.779,0,0,0,1.775,1.775H59.9a1.779,1.779,0,0,0,1.775-1.775V10.355A1.779,1.779,0,0,0,59.9,8.58v6.714a1.778,1.778,0,0,1-1.776,1.775Z" fill="#c48958" fill-rule="evenodd"/>
                <path id="Trazado_875351" data-name="Trazado 875351" d="M26.512,25.324h9.941a1.3,1.3,0,0,1,1.3,1.3v9.941a1.3,1.3,0,0,1-1.3,1.3H26.512a1.3,1.3,0,0,1-1.3-1.3V26.622a1.3,1.3,0,0,1,1.3-1.3Z" fill="#8ac9fe" fill-rule="evenodd"/>
                <path id="Trazado_875352" data-name="Trazado 875352" d="M35.136,25.324h1.317a1.3,1.3,0,0,1,1.3,1.3v9.941a1.3,1.3,0,0,1-1.3,1.3H35.136a1.3,1.3,0,0,0,1.3-1.3V26.622a1.3,1.3,0,0,0-1.3-1.3Z" fill="#60b7ff" fill-rule="evenodd"/>
                <path id="Trazado_875353" data-name="Trazado 875353" d="M26.512,45.437h9.941a1.3,1.3,0,0,1,1.3,1.3v9.941a1.3,1.3,0,0,1-1.3,1.3H26.512a1.3,1.3,0,0,1-1.3-1.3V46.734A1.3,1.3,0,0,1,26.512,45.437Z" fill="#ffe177" fill-rule="evenodd"/>
                <path id="Trazado_875354" data-name="Trazado 875354" d="M35.136,45.437h1.317a1.3,1.3,0,0,1,1.3,1.3v9.941a1.3,1.3,0,0,1-1.3,1.3H35.136a1.3,1.3,0,0,0,1.3-1.3V46.734A1.3,1.3,0,0,0,35.136,45.437Z" fill="#ffd064" fill-rule="evenodd"/>
                <path id="Trazado_875355" data-name="Trazado 875355" d="M26.512,65.549h9.941a1.3,1.3,0,0,1,1.3,1.3v9.941a1.3,1.3,0,0,1-1.3,1.3H26.512a1.3,1.3,0,0,1-1.3-1.3V66.846A1.3,1.3,0,0,1,26.512,65.549Z" fill="#6cf5c2" fill-rule="evenodd"/>
                <path id="Trazado_875356" data-name="Trazado 875356" d="M33.819,65.549h2.634a1.3,1.3,0,0,1,1.3,1.3v9.941a1.3,1.3,0,0,1-1.3,1.3H33.819a1.3,1.3,0,0,0,1.3-1.3V66.846a1.3,1.3,0,0,0-1.3-1.3Z" fill="#00e499" fill-rule="evenodd"/>
              </g>
              <g id="Grupo_1100726" data-name="Grupo 1100726">
                <circle id="Elipse_11612" data-name="Elipse 11612" cx="23.806" cy="23.806" r="23.806" transform="translate(40.695 83.058) rotate(-45)" fill="#8ac9fe"/>
                <path id="Trazado_875357" data-name="Trazado 875357" d="M74.378,59.25c-.361,0-.72.009-1.077.025a23.808,23.808,0,0,1,0,47.567c.357.016.716.025,1.077.025a23.809,23.809,0,1,0,0-47.618Z" fill="#60b7ff" fill-rule="evenodd"/>
              </g>
              <g id="Grupo_1100728" data-name="Grupo 1100728">
                <path id="Trazado_875358" data-name="Trazado 875358" d="M81.752,77.944q-.016,15.936,0,15.911h5.3a.838.838,0,0,0,.836-.836V78.78a.838.838,0,0,0-.836-.836Z" fill="#d1d1d6" fill-rule="evenodd"/>
                <path id="Trazado_875359" data-name="Trazado 875359" d="M87.884,93.019a.838.838,0,0,1-.836.836h-5.3V77.944h.836V93.019Z" fill="#b1b1b5" fill-rule="evenodd"/>
                <path id="Trazado_875360" data-name="Trazado 875360" d="M68.541,95.45c6.167,1.062,9.752,1.838,13.337-1.6V77.944c-2.826-2.122-6.557-3.941-6.557-7.955v-4.83a5.81,5.81,0,0,0-5.793,5.793V74.7a5.574,5.574,0,0,0,1.607,2.949C62.163,79.954,65.982,95.56,68.541,95.45Z" fill="#f6dccd" fill-rule="evenodd"/>
                <path id="Trazado_875361" data-name="Trazado 875361" d="M80.47,94.991a10.079,10.079,0,0,0,1.407-1.136V77.944c-2.826-2.122-6.557-3.941-6.557-7.955v-4.83a5.775,5.775,0,0,0-4.047,1.658,5.746,5.746,0,0,1,2.965-.822v4.83c0,4.014,3.731,5.833,6.557,7.955V94.691Q80.633,94.847,80.47,94.991Z" fill="#f1cbbc" fill-rule="evenodd"/>
                <path id="Trazado_875362" data-name="Trazado 875362" d="M67.84,95.56H64.124a2.3,2.3,0,1,1,0-4.6H62.751a2.3,2.3,0,0,1,0-4.6H61.136a2.3,2.3,0,1,1,0-4.6h.97a2.3,2.3,0,0,1,0-4.6H67.84a2.3,2.3,0,1,1,0,4.6h.97a2.3,2.3,0,1,1,0,4.6h-.97a2.3,2.3,0,1,1,0,4.6,2.3,2.3,0,0,1,0,4.6Z" fill="#f6dccd" fill-rule="evenodd"/>
                <g id="Grupo_1100727" data-name="Grupo 1100727">
                  <path id="Trazado_875363" data-name="Trazado 875363" d="M67.84,95.56H64.124a2.309,2.309,0,0,1-2.3-2.3h8.32A2.308,2.308,0,0,1,67.84,95.56Z" fill="#f1cbbc" fill-rule="evenodd"/>
                  <path id="Trazado_875364" data-name="Trazado 875364" d="M64.124,90.957H62.751a2.308,2.308,0,0,1-2.3-2.3h9.693a2.309,2.309,0,0,1-2.3,2.3Z" fill="#f1cbbc" fill-rule="evenodd"/>
                  <path id="Trazado_875365" data-name="Trazado 875365" d="M62.751,86.353H61.136a2.309,2.309,0,0,1-2.3-2.3H71.111a2.309,2.309,0,0,1-2.3,2.3H62.751Z" fill="#f1cbbc" fill-rule="evenodd"/>
                  <path id="Trazado_875366" data-name="Trazado 875366" d="M62.105,81.749a2.308,2.308,0,0,1-2.3-2.3H70.142a2.309,2.309,0,0,1-2.3,2.3Z" fill="#f1cbbc" fill-rule="evenodd"/>
                </g>
              </g>
            </g>
            <path id="Trazado_875367" data-name="Trazado 875367" d="M86.626,79.667H83.008C83,86.615,83,90.288,83,92.132h3.622ZM79.559,93.089c0-.071,0-.146,0-.226q0-1,0-2.987,0-3.755.008-11.056c-.2-.141-.4-.282-.6-.427-2.6-1.83-5.828-4.109-5.828-8.4V67.266a4.073,4.073,0,0,0-2.345,3.685v3.6a4.058,4.058,0,0,0,1.1,1.875,1.727,1.727,0,0,1,.2,2.192,2.867,2.867,0,0,0-.605,2.277,5.681,5.681,0,0,0,2.877,3.081,1.724,1.724,0,1,1-1.718,2.989c-.293-.169-.633-.381-.993-.632a4.02,4.02,0,0,1-.6.688,4.024,4.024,0,0,1-.379,3.932,4,4,0,0,1,.724,2.3,3.954,3.954,0,0,1-.127.988c3.854.621,6.058.677,8.286-1.158Zm-12.184.748a.583.583,0,0,0,.578-.578.587.587,0,0,0-.578-.579h-.007l-.764,0-2.943,0h0a.587.587,0,0,0-.577.579.587.587,0,0,0,.577.578Zm-5.089-4.6h1.372l2.95,0,.767,0a.578.578,0,0,0,0-1.157H62.285a.578.578,0,0,0,0,1.157Zm-1.616-4.6h7.675a.578.578,0,0,0,0-1.157H60.669a.578.578,0,0,0,0,1.157Zm.392-5.182a.587.587,0,0,0,.577.579h5.736a.576.576,0,0,0,.408-.986.58.58,0,0,0-.408-.171H61.639A.586.586,0,0,0,61.062,79.447Zm29.011-1.5V93.855a1.723,1.723,0,0,1-1.723,1.723h-6.4a9.95,9.95,0,0,1-6.922,2.487,39.543,39.543,0,0,1-6.49-.786l-.4-.069a4.044,4.044,0,0,1-.763.073H63.657a4.027,4.027,0,0,1-3.781-5.406,4.028,4.028,0,0,1-1.42-4.466,4.022,4.022,0,0,1-.5-6.334,4.026,4.026,0,0,1,3.68-5.656h5.736c.025,0,.052,0,.075,0-.039-.165-.073-.331-.094-.493a1.639,1.639,0,0,1-.017-.234V70.951a7.524,7.524,0,0,1,7.517-7.516,1.723,1.723,0,0,1,1.724,1.724v4.83c0,2.339,1.651,3.671,4.367,5.586.3.21.6.427.9.645h6.5a1.723,1.723,0,0,1,1.723,1.723Zm6.39,5.115A22.085,22.085,0,1,1,74.379,60.973,22.108,22.108,0,0,1,96.463,83.059ZM49.745,89.783c-.182-.671-.341-1.354-.469-2.045H17.621A1.723,1.723,0,0,1,15.9,86.014V16.459a1.723,1.723,0,0,1,1.724-1.724H29.553V12.69H16.078a2.227,2.227,0,0,0-2.226,2.225V87.558a2.227,2.227,0,0,0,2.226,2.225ZM31.277,20.569h30.4A1.723,1.723,0,0,0,63.4,18.845v-.663H73.608V57.539a25.563,25.563,0,0,0-24.763,25.52c0,.413.011.823.03,1.232H19.344V18.182H29.553v.663a1.724,1.724,0,0,0,1.724,1.724ZM33,17.121V10.3h6.953a1.726,1.726,0,0,0,1.676-1.319,4.988,4.988,0,0,1,9.7,0A1.725,1.725,0,0,0,53,10.3h6.951v6.818ZM63.4,12.69v2.045H75.332a1.724,1.724,0,0,1,1.724,1.724V57.667c.692.072,1.372.172,2.047.3V14.915a2.227,2.227,0,0,0-2.226-2.225ZM99.911,83.059a25.531,25.531,0,0,1-48.95,10.171H16.078A5.68,5.68,0,0,1,10.4,87.558V14.915a5.679,5.679,0,0,1,5.673-5.672H29.553V8.58a1.724,1.724,0,0,1,1.724-1.724h7.436a8.44,8.44,0,0,1,15.53,0h7.434A1.723,1.723,0,0,1,63.4,8.58v.662H76.877a5.678,5.678,0,0,1,5.672,5.672V58.866A25.58,25.58,0,0,1,99.911,83.059ZM35.211,27.7a1.724,1.724,0,0,1,.257,2.424L32.359,33.97a1.726,1.726,0,0,1-1.25.637c-.029,0-.06,0-.09,0A1.719,1.719,0,0,1,29.8,34.1l-2.181-2.179a1.724,1.724,0,0,1,2.439-2.438l.825.825,1.9-2.356a1.725,1.725,0,0,1,2.425-.256Zm-8.273,7.807V26.419h9.089v9.089Zm-.425-12.536h9.941a3.024,3.024,0,0,1,3.021,3.021v9.941a3.024,3.024,0,0,1-3.021,3.022H26.513a3.024,3.024,0,0,1-3.023-3.022V25.993a3.024,3.024,0,0,1,3.023-3.021Zm19.158,6.139a1.723,1.723,0,1,1,0-3.447h22.07a1.723,1.723,0,1,1,0,3.447Zm0,7.153a1.724,1.724,0,0,1,0-3.448H67.739a1.724,1.724,0,0,1,0,3.448ZM29.8,54.846l-2.181-2.179a1.724,1.724,0,0,1,2.439-2.438l.825.825,1.9-2.355a1.724,1.724,0,0,1,2.681,2.168l-3.109,3.844a1.731,1.731,0,0,1-1.25.638l-.09,0a1.717,1.717,0,0,1-1.219-.5Zm6.228-7.686v9.09H26.938V47.16Zm3.448-.426v9.941A3.025,3.025,0,0,1,36.454,59.7H26.513a3.025,3.025,0,0,1-3.023-3.022V46.734a3.025,3.025,0,0,1,3.023-3.021h9.941a3.025,3.025,0,0,1,3.021,3.021ZM29.8,74.958l-2.181-2.179a1.724,1.724,0,0,1,2.439-2.438l.825.824,1.9-2.355a1.724,1.724,0,1,1,2.681,2.168l-3.109,3.844a1.731,1.731,0,0,1-1.25.638l-.09,0a1.715,1.715,0,0,1-1.219-.5Zm6.228-7.685v9.089H26.938V67.273Zm3.448-.427v9.942a3.024,3.024,0,0,1-3.021,3.021H26.513a3.024,3.024,0,0,1-3.023-3.021V66.846a3.024,3.024,0,0,1,3.023-3.021h9.941A3.024,3.024,0,0,1,39.475,66.846Zm6.2-16.994a1.724,1.724,0,0,1,0-3.448h22.07a1.724,1.724,0,1,1,0,3.448Zm0,7.152a1.724,1.724,0,0,1,0-3.448H67.739a1.724,1.724,0,0,1,0,3.448ZM48.253,8.949a1.776,1.776,0,1,0-1.776,1.776A1.78,1.78,0,0,0,48.253,8.949Z" fill="#242222" fill-rule="evenodd"/>
          </g>
        </g>
      </g>
    </g>
  </g>
</svg>
