<svg xmlns="http://www.w3.org/2000/svg" xmlns:xlink="http://www.w3.org/1999/xlink" width="121.582" height="126.001" viewBox="0 0 121.582 126.001">
  <defs>
    <clipPath id="clip-path">
      <rect id="Rectángulo_401737" data-name="Rectángulo 401737" width="115" height="115" transform="translate(1085 1291)" fill="#fff" stroke="#707070" stroke-width="1"/>
    </clipPath>
  </defs>
  <g id="Grupo_1100766" data-name="Grupo 1100766" transform="translate(-1081 -1291)">
    <g id="Grupo_1100765" data-name="Grupo 1100765">
      <g id="Grupo_1100764" data-name="Grupo 1100764">
        <path id="_12068" data-name="12068" d="M94.486,72.232c-12.45-1.719-25.6-1.3-36.93,4.143-15.711,7.546-26.029,24.655-26.425,42.08s8.682,34.547,22.705,44.9S86.354,177.37,103.5,174.263c17.293-3.134,33.524-13.294,42.545-28.377,5.784-9.672,8.488-21.615,5.292-32.422-1.929-6.523-5.873-12.3-10.512-17.278A77.665,77.665,0,0,0,94.486,72.232Z" transform="translate(1049.881 1241.668)" fill="#7d6eb2"/>
        <g id="Enmascarar_grupo_1100074" data-name="Enmascarar grupo 1100074" clip-path="url(#clip-path)">
          <g id="Blogger-Influencer-Love-Feedback-Heart" transform="translate(1081.167 1287.167)">
            <path id="Trazado_875202" data-name="Trazado 875202" d="M116.917,21.083V109.25a7.667,7.667,0,0,1-7.667,7.667H13.417A7.667,7.667,0,0,1,5.75,109.25V21.083Z" fill="#5aaae7"/>
            <path id="Trazado_875203" data-name="Trazado 875203" d="M116.917,13.417v7.667H5.75V13.417A7.667,7.667,0,0,1,13.417,5.75H109.25A7.667,7.667,0,0,1,116.917,13.417Z" fill="#ff5023"/>
            <g id="Grupo_1100695" data-name="Grupo 1100695">
              <path id="Trazado_875204" data-name="Trazado 875204" d="M104.535,49.143a3.818,3.818,0,0,1,0,5.4L97.75,61.333l-6.785-6.785a3.833,3.833,0,0,1,5.424-5.4l1.361,1.342,1.361-1.342a3.833,3.833,0,0,1,5.424,0Z" fill="#3d9ae2"/>
              <path id="Trazado_875205" data-name="Trazado 875205" d="M71.952,33.81a3.818,3.818,0,0,1,0,5.4L65.167,46l-6.785-6.785a3.833,3.833,0,0,1,5.424-5.4l1.361,1.342,1.361-1.342a3.833,3.833,0,0,1,5.424,0Z" fill="#3d9ae2"/>
              <path id="Trazado_875206" data-name="Trazado 875206" d="M39.368,49.143a3.818,3.818,0,0,1,0,5.4l-6.785,6.785L25.8,54.548a3.833,3.833,0,0,1,5.424-5.4l1.361,1.342,1.361-1.342a3.833,3.833,0,0,1,5.424,0Z" fill="#3d9ae2"/>
            </g>
            <path id="Trazado_875207" data-name="Trazado 875207" d="M100.7,45.31a3.818,3.818,0,0,1,0,5.4L93.917,57.5l-6.785-6.785a3.833,3.833,0,0,1,5.424-5.4l1.361,1.342,1.361-1.342a3.833,3.833,0,0,1,5.424,0Z" fill="#ff5023"/>
            <path id="Trazado_875208" data-name="Trazado 875208" d="M91.962,116.917H38.372a15.283,15.283,0,0,1,10.062-13.244l9.066-3.316,1.917-.69V92.613a13.313,13.313,0,0,1-7.513-10.2h-2.07a3.833,3.833,0,1,1,0-7.667H51.75V67.083a13.417,13.417,0,0,1,26.833,0V74.75H80.5a3.833,3.833,0,1,1,0,7.667H78.43a13.325,13.325,0,0,1-7.513,10.2v7.053l1.917.69,9.066,3.316a15.283,15.283,0,0,1,10.063,13.244Z" fill="#3d9ae2"/>
            <path id="Trazado_875209" data-name="Trazado 875209" d="M78.583,116.917H69V96.523l9.066,3.316a15.287,15.287,0,0,1,10.1,14.394v2.683Z" fill="#1e81ce"/>
            <path id="Trazado_875210" data-name="Trazado 875210" d="M74.75,63.25A8.138,8.138,0,0,0,69,61.333c-6.382,0-8.951,3.833-15.333,3.833a8.138,8.138,0,0,1-5.75-1.917,13.417,13.417,0,1,1,26.833,0Z" fill="#57565c"/>
            <path id="Trazado_875211" data-name="Trazado 875211" d="M69,115v1.917H53.667V96.523l1.917-.69a5.75,5.75,0,1,0,11.5,0l1.917.69Z" fill="#e6e7e8"/>
            <path id="Trazado_875212" data-name="Trazado 875212" d="M68.118,29.977a3.818,3.818,0,0,1,0,5.405l-6.785,6.785-6.785-6.785a3.833,3.833,0,0,1,5.424-5.4l1.361,1.342,1.361-1.342a3.833,3.833,0,0,1,5.424,0Z" fill="#ff5023"/>
            <path id="Trazado_875213" data-name="Trazado 875213" d="M44.083,116.917H34.5v-2.683A15.287,15.287,0,0,1,44.6,99.839l9.066-3.316v20.393Z" fill="#1e81ce"/>
            <path id="Trazado_875214" data-name="Trazado 875214" d="M35.535,45.31a3.818,3.818,0,0,1,0,5.4L28.75,57.5l-6.785-6.785a3.833,3.833,0,0,1,5.424-5.4l1.361,1.342,1.361-1.342a3.833,3.833,0,0,1,5.424,0Z" fill="#ff5023"/>
            <path id="Trazado_875215" data-name="Trazado 875215" d="M49.833,70.917v7.667H46a3.833,3.833,0,1,1,0-7.667Z" fill="#ffb655"/>
            <path id="Trazado_875216" data-name="Trazado 875216" d="M80.5,74.75a3.845,3.845,0,0,1-3.833,3.833H72.833V70.917h3.833A3.845,3.845,0,0,1,80.5,74.75Z" fill="#ffb655"/>
            <path id="Trazado_875217" data-name="Trazado 875217" d="M67.083,88.167v7.667a5.75,5.75,0,1,1-11.5,0V88.167Z" fill="#ffc477"/>
            <path id="Trazado_875218" data-name="Trazado 875218" d="M74.75,63.25V76.667a10.491,10.491,0,0,1-.153,1.917,13.4,13.4,0,0,1-26.527,0,10.492,10.492,0,0,1-.153-1.917V63.25a8.138,8.138,0,0,0,5.75,1.917c6.382,0,8.951-3.833,15.333-3.833a8.138,8.138,0,0,1,5.75,1.917Z" fill="#ffc477"/>
            <path id="Trazado_875219" data-name="Trazado 875219" d="M109.25,3.833H13.417a9.583,9.583,0,0,0-9.583,9.583V109.25a9.583,9.583,0,0,0,9.583,9.583H109.25a9.583,9.583,0,0,0,9.583-9.583V13.417a9.583,9.583,0,0,0-9.583-9.583ZM51.75,115H46v-5.75H42.167V115h-5.75v-.767a13.474,13.474,0,0,1,8.836-12.612l6.5-2.358Zm15.333,0h-11.5V100.855a7.573,7.573,0,0,0,11.5,0ZM53.667,67.083a19.86,19.86,0,0,0,8.414-2.07A16.525,16.525,0,0,1,69,63.25a6.193,6.193,0,0,1,3.833.977V76.667a11.5,11.5,0,0,1-23,0V66.508a11.538,11.538,0,0,0,3.833.575Zm-3.776-4.792a11.49,11.49,0,0,1,22.425-2.453A12.255,12.255,0,0,0,69,59.417a19.86,19.86,0,0,0-8.414,2.07,16.526,16.526,0,0,1-6.919,1.763,6.133,6.133,0,0,1-3.776-.958ZM65.167,91.5v4.332a3.833,3.833,0,0,1-7.667,0V91.5A14.992,14.992,0,0,0,65.167,91.5ZM86.25,115H80.5v-5.75H76.667V115h-5.75V99.264l6.5,2.357a13.474,13.474,0,0,1,8.836,12.612ZM115,109.25a5.767,5.767,0,0,1-5.75,5.75H90.083v-.767a17.269,17.269,0,0,0-11.347-16.2L69,94.492V89.93a15.448,15.448,0,0,0,7.168-9.43h.5a5.75,5.75,0,0,0,0-11.5V63.25A15.333,15.333,0,1,0,46,63.25V69a5.75,5.75,0,0,0,0,11.5h.5a15.448,15.448,0,0,0,7.168,9.43v4.562L43.93,98.037a17.269,17.269,0,0,0-11.347,16.2V115H13.417a5.767,5.767,0,0,1-5.75-5.75V23H115ZM76.667,76.667V72.833a1.917,1.917,0,1,1,0,3.833ZM46,72.833v3.833a1.917,1.917,0,1,1,0-3.833Zm69-53.667H7.667v-5.75a5.767,5.767,0,0,1,5.75-5.75H109.25a5.767,5.767,0,0,1,5.75,5.75Z"/>
            <path id="Trazado_875220" data-name="Trazado 875220" d="M15.333,11.5h3.833v3.833H15.333Z"/>
            <path id="Trazado_875221" data-name="Trazado 875221" d="M23,11.5h3.833v3.833H23Z"/>
            <path id="Trazado_875222" data-name="Trazado 875222" d="M30.667,11.5H34.5v3.833H30.667Z"/>
            <path id="Trazado_875223" data-name="Trazado 875223" d="M53.667,69H57.5v3.833H53.667Z"/>
            <path id="Trazado_875224" data-name="Trazado 875224" d="M65.167,69H69v3.833H65.167Z"/>
            <path id="Trazado_875225" data-name="Trazado 875225" d="M61.333,28.614a5.888,5.888,0,0,0-8.13,0,5.75,5.75,0,0,0,0,8.13l6.775,6.777a1.917,1.917,0,0,0,2.71,0l6.775-6.775a5.75,5.75,0,0,0,0-8.13A5.886,5.886,0,0,0,61.333,28.614Zm5.42,5.42-5.42,5.42-5.42-5.42a1.917,1.917,0,1,1,2.71-2.71l1.355,1.355a1.917,1.917,0,0,0,2.71,0l1.355-1.355a1.961,1.961,0,0,1,2.71,0,1.917,1.917,0,0,1,0,2.708Z"/>
            <path id="Trazado_875226" data-name="Trazado 875226" d="M93.917,43.947a5.888,5.888,0,0,0-8.13,0,5.75,5.75,0,0,0,0,8.131l6.775,6.777a1.917,1.917,0,0,0,2.71,0l6.775-6.775a5.75,5.75,0,0,0,0-8.13A5.886,5.886,0,0,0,93.917,43.947Zm5.42,5.42-5.42,5.42-5.42-5.42a1.917,1.917,0,1,1,2.71-2.71l1.355,1.355a1.917,1.917,0,0,0,2.71,0l1.355-1.355a1.961,1.961,0,0,1,2.71,0,1.917,1.917,0,0,1,0,2.708Z"/>
            <path id="Trazado_875227" data-name="Trazado 875227" d="M28.75,43.947a5.888,5.888,0,0,0-8.13,0,5.75,5.75,0,0,0,0,8.131l6.775,6.777a1.917,1.917,0,0,0,2.71,0L36.88,52.08a5.75,5.75,0,0,0,0-8.13,5.886,5.886,0,0,0-8.13,0Zm5.42,5.42-5.42,5.42-5.42-5.42a1.917,1.917,0,1,1,2.71-2.71l1.355,1.355a1.917,1.917,0,0,0,2.71,0l1.355-1.355a1.961,1.961,0,0,1,2.71,0,1.917,1.917,0,0,1,0,2.708Z"/>
          </g>
        </g>
      </g>
    </g>
  </g>
</svg>
