<svg xmlns="http://www.w3.org/2000/svg" xmlns:xlink="http://www.w3.org/1999/xlink" width="121.582" height="104" viewBox="0 0 121.582 104">
  <defs>
    <clipPath id="clip-path">
      <rect id="Rectángulo_401850" data-name="Rectángulo 401850" width="93" height="93" transform="translate(-1567 -8638)" fill="#fff" stroke="#707070" stroke-width="1"/>
    </clipPath>
  </defs>
  <g id="Grupo_1100790" data-name="Grupo 1100790" transform="translate(1581 8032)">
    <g id="Grupo_1100789" data-name="Grupo 1100789">
      <path id="_12068" data-name="12068" d="M94.486,72.232c-12.45-1.719-25.6-1.3-36.93,4.143-15.711,7.546-26.029,24.655-26.425,42.08s8.682,34.547,22.705,44.9S86.354,177.37,103.5,174.263c17.293-3.134,33.524-13.294,42.545-28.377,5.784-9.672,8.488-21.615,5.292-32.422-1.929-6.523-5.873-12.3-10.512-17.278A77.665,77.665,0,0,0,94.486,72.232Z" transform="translate(-1612.119 -8103.332)" fill="#7d6eb2"/>
      <g id="Enmascarar_grupo_1100086" data-name="Enmascarar grupo 1100086" transform="translate(0 606)" clip-path="url(#clip-path)">
        <g id="partido" transform="translate(-1567 -8638)">
          <g id="Grupo_1100745" data-name="Grupo 1100745">
            <path id="Trazado_876087" data-name="Trazado 876087" d="M46.487,41.7H87.73a3.908,3.908,0,0,1,3.908,3.908V84.8a3.908,3.908,0,0,1-3.908,3.908H46.487Z" fill="#fd8087"/>
            <path id="Trazado_876088" data-name="Trazado 876088" d="M87.73,41.7H80.39A3.908,3.908,0,0,1,84.3,45.608V84.8a3.908,3.908,0,0,1-3.908,3.908h7.34A3.908,3.908,0,0,0,91.638,84.8V45.608A3.908,3.908,0,0,0,87.73,41.7Z" fill="#fe646f"/>
            <path id="Trazado_876089" data-name="Trazado 876089" d="M53.432,58.988a6.251,6.251,0,0,0-6.107,3.089h-.839V41.7H5.27a3.908,3.908,0,0,0-3.908,3.908V84.8A3.908,3.908,0,0,0,5.27,88.707H46.487V68.33h.839a6.253,6.253,0,1,0,6.107-9.342Z" fill="#60b7ff"/>
            <g id="Grupo_1100743" data-name="Grupo 1100743">
              <path id="Trazado_876090" data-name="Trazado 876090" d="M14.155,67.939v9.77h19.54v-9.77a5.862,5.862,0,0,0-5.862-5.862H20.017A5.862,5.862,0,0,0,14.155,67.939Z" fill="#d8ecfe"/>
              <circle id="Elipse_11619" data-name="Elipse 11619" cx="4.69" cy="4.69" r="4.69" transform="translate(19.235 52.698)" fill="#fed2a4"/>
              <circle id="Elipse_11620" data-name="Elipse 11620" cx="4.69" cy="4.69" r="4.69" transform="translate(19.235 52.698)" fill="#fed2a4"/>
            </g>
            <g id="Grupo_1100744" data-name="Grupo 1100744">
              <path id="Trazado_876091" data-name="Trazado 876091" d="M64.758,67.939v9.77H84.3v-9.77a5.862,5.862,0,0,0-5.862-5.862H70.62A5.862,5.862,0,0,0,64.758,67.939Z" fill="#d8ecfe"/>
              <circle id="Elipse_11621" data-name="Elipse 11621" cx="4.69" cy="4.69" r="4.69" transform="translate(69.839 52.698)" fill="#fed2a4"/>
              <circle id="Elipse_11622" data-name="Elipse 11622" cx="4.69" cy="4.69" r="4.69" transform="translate(69.839 52.698)" fill="#fed2a4"/>
            </g>
            <path id="Trazado_876092" data-name="Trazado 876092" d="M58.977,64.76a6.252,6.252,0,0,0-11.652-2.682h-.839V41.7H39.569V88.707h6.918V68.33h.839A6.253,6.253,0,0,0,58.977,64.76Z" fill="#26a6fe"/>
          </g>
          <g id="Grupo_1100746" data-name="Grupo 1100746">
            <path id="Trazado_876093" data-name="Trazado 876093" d="M42.962,31.816H30.9a3.67,3.67,0,0,1-3.67-3.67V7.963a3.67,3.67,0,0,1,3.67-3.67H62.1a3.67,3.67,0,0,1,3.67,3.67V28.146a3.67,3.67,0,0,1-3.67,3.67H50.038a1.1,1.1,0,0,0-.927.508l-1.684,2.631a1.1,1.1,0,0,1-1.855,0l-1.684-2.631A1.1,1.1,0,0,0,42.962,31.816Z" fill="#d8ecfe"/>
            <path id="Trazado_876094" data-name="Trazado 876094" d="M62.1,4.293H56.225a3.67,3.67,0,0,1,3.67,3.67V28.146a3.67,3.67,0,0,1-3.67,3.67H62.1a3.67,3.67,0,0,0,3.67-3.67V7.963A3.67,3.67,0,0,0,62.1,4.293Z" fill="#c4e2ff"/>
            <path id="Trazado_876095" data-name="Trazado 876095" d="M55.152,11.473a5.519,5.519,0,0,0-6.624-1A5.154,5.154,0,0,0,46.5,12.468a5.155,5.155,0,0,0-2.027-1.992,5.519,5.519,0,0,0-6.624,1,5.43,5.43,0,0,0,.12,7.556l6.4,6.4a3.016,3.016,0,0,0,4.266,0l6.4-6.4A5.43,5.43,0,0,0,55.152,11.473Z" fill="#fd8087"/>
            <path id="Trazado_876096" data-name="Trazado 876096" d="M55.152,11.473a5.277,5.277,0,0,0-2.215-1.4,5.429,5.429,0,0,1-1.317,5.543l-6.4,6.4a3.017,3.017,0,0,1-4.266,0l3.412,3.412a3.016,3.016,0,0,0,4.266,0l6.4-6.4A5.43,5.43,0,0,0,55.152,11.473Z" fill="#fe646f"/>
          </g>
          <path id="Trazado_876097" data-name="Trazado 876097" d="M14.155,67.939v9.77h19.54v-9.77a5.862,5.862,0,0,0-5.862-5.862H20.017A5.862,5.862,0,0,0,14.155,67.939Z" fill="none" stroke="#000" stroke-linecap="round" stroke-linejoin="round" stroke-miterlimit="10" stroke-width="2.725"/>
          <circle id="Elipse_11623" data-name="Elipse 11623" cx="4.69" cy="4.69" r="4.69" transform="translate(19.235 52.698)" fill="none" stroke="#000" stroke-linecap="round" stroke-linejoin="round" stroke-miterlimit="10" stroke-width="2.725"/>
          <path id="Trazado_876098" data-name="Trazado 876098" d="M64.758,67.939v9.77H84.3v-9.77a5.862,5.862,0,0,0-5.862-5.862H70.62A5.862,5.862,0,0,0,64.758,67.939Z" fill="none" stroke="#000" stroke-linecap="round" stroke-linejoin="round" stroke-miterlimit="10" stroke-width="2.725"/>
          <circle id="Elipse_11624" data-name="Elipse 11624" cx="4.69" cy="4.69" r="4.69" transform="translate(69.839 52.698)" fill="none" stroke="#000" stroke-linecap="round" stroke-linejoin="round" stroke-miterlimit="10" stroke-width="2.725"/>
          <path id="Trazado_876099" data-name="Trazado 876099" d="M19.436,41.7H46.487V62.078h.837a6.252,6.252,0,1,1,0,6.252h-.837V88.708H5.271A3.909,3.909,0,0,1,1.362,84.8V45.608A3.907,3.907,0,0,1,5.271,41.7h7.807" fill="none" stroke="#000" stroke-linecap="round" stroke-linejoin="round" stroke-miterlimit="10" stroke-width="2.725"/>
          <line id="Línea_1656" data-name="Línea 1656" x1="21.684" transform="translate(46.487 88.708)" fill="none" stroke="#000" stroke-linecap="round" stroke-linejoin="round" stroke-miterlimit="10" stroke-width="2.725"/>
          <path id="Trazado_876100" data-name="Trazado 876100" d="M46.487,41.7H87.729a3.907,3.907,0,0,1,3.909,3.907V84.8a3.909,3.909,0,0,1-3.909,3.909h-13.2" fill="none" stroke="#000" stroke-linecap="round" stroke-linejoin="round" stroke-miterlimit="10" stroke-width="2.725"/>
          <path id="Trazado_876101" data-name="Trazado 876101" d="M65.767,21.372v6.775A3.671,3.671,0,0,1,62.1,31.816H50.038a1.1,1.1,0,0,0-.928.507l-1.684,2.632a1.1,1.1,0,0,1-1.853,0L43.89,32.323a1.1,1.1,0,0,0-.928-.507H30.9a3.671,3.671,0,0,1-3.671-3.669V7.963A3.671,3.671,0,0,1,30.9,4.292H62.1a3.671,3.671,0,0,1,3.671,3.671v7.051" fill="none" stroke="#000" stroke-linecap="round" stroke-linejoin="round" stroke-miterlimit="10" stroke-width="2.725"/>
          <path id="Trazado_876102" data-name="Trazado 876102" d="M55.152,11.473a5.519,5.519,0,0,0-6.624-1A5.154,5.154,0,0,0,46.5,12.468a5.155,5.155,0,0,0-2.027-1.992,5.519,5.519,0,0,0-6.624,1,5.43,5.43,0,0,0,.12,7.556l6.4,6.4a3.016,3.016,0,0,0,4.266,0l6.4-6.4A5.43,5.43,0,0,0,55.152,11.473Z" fill="none" stroke="#000" stroke-linecap="round" stroke-linejoin="round" stroke-miterlimit="10" stroke-width="2.725"/>
        </g>
      </g>
    </g>
  </g>
</svg>
