<svg xmlns="http://www.w3.org/2000/svg" xmlns:xlink="http://www.w3.org/1999/xlink" width="121.582" height="126.001" viewBox="0 0 121.582 126.001">
  <defs>
    <clipPath id="clip-path">
      <rect id="Rectángulo_401892" data-name="Rectángulo 401892" width="115" height="115" transform="translate(-6221 -10409)" fill="#fff" stroke="#707070" stroke-width="1"/>
    </clipPath>
  </defs>
  <g id="Grupo_1100763" data-name="Grupo 1100763" transform="translate(6225 10409)">
    <g id="Grupo_1100762" data-name="Grupo 1100762">
      <g id="Grupo_1100761" data-name="Grupo 1100761">
        <g id="Grupo_1100760" data-name="Grupo 1100760">
          <path id="_12068" data-name="12068" d="M94.486,72.232c-12.45-1.719-25.6-1.3-36.93,4.143-15.711,7.546-26.029,24.655-26.425,42.08s8.682,34.547,22.705,44.9S86.354,177.37,103.5,174.263c17.293-3.134,33.524-13.294,42.545-28.377,5.784-9.672,8.488-21.615,5.292-32.422-1.929-6.523-5.873-12.3-10.512-17.278A77.665,77.665,0,0,0,94.486,72.232Z" transform="translate(-6256.119 -10458.332)" fill="#7d6eb2"/>
          <g id="Enmascarar_grupo_1100076" data-name="Enmascarar grupo 1100076" clip-path="url(#clip-path)">
            <g id="kpi" transform="translate(-6221 -10409)">
              <path id="Trazado_875250" data-name="Trazado 875250" d="M102.575,105.254H2.246a50.166,50.166,0,0,1,100.329,0Z" fill="#ff7e96"/>
              <path id="Trazado_875251" data-name="Trazado 875251" d="M88.888,105.254H15.664a36.612,36.612,0,0,1,73.224,0Z" fill="#fff"/>
              <path id="Trazado_875252" data-name="Trazado 875252" d="M88.888,105.254H15.664a36.612,36.612,0,0,1,73.224,0Z" fill="none" stroke="#000" stroke-linecap="round" stroke-linejoin="round" stroke-miterlimit="10" stroke-width="4.492"/>
              <path id="Trazado_875253" data-name="Trazado 875253" d="M104.287,9.746H60.13a8.467,8.467,0,0,0-8.467,8.467V36.837A8.467,8.467,0,0,0,60.13,45.3H76.956v7.535L85.069,45.3h19.219a8.467,8.467,0,0,0,8.467-8.467V18.213A8.467,8.467,0,0,0,104.287,9.746Z" fill="#ffce62"/>
              <path id="Trazado_875254" data-name="Trazado 875254" d="M104.287,9.746H60.13a8.467,8.467,0,0,0-8.467,8.467V36.837A8.467,8.467,0,0,0,60.13,45.3H76.956v7.535L85.069,45.3h19.219a8.467,8.467,0,0,0,8.467-8.467V18.213A8.467,8.467,0,0,0,104.287,9.746Z" fill="none" stroke="#000" stroke-linecap="round" stroke-linejoin="round" stroke-miterlimit="10" stroke-width="4.492"/>
              <path id="Trazado_875255" data-name="Trazado 875255" d="M10.666,77.894a49.926,49.926,0,0,0-8.42,27.359H102.575a50.173,50.173,0,0,0-78.113-41.2" fill="none" stroke="#000" stroke-linecap="round" stroke-linejoin="round" stroke-miterlimit="10" stroke-width="4.492"/>
              <path id="Trazado_875256" data-name="Trazado 875256" d="M60.6,100.933a8.289,8.289,0,0,1-1.21,4.32H45.163a8.322,8.322,0,1,1,15.435-4.32Z" fill="#bdd3dd"/>
              <path id="Trazado_875257" data-name="Trazado 875257" d="M64.076,83.347l-3.5,18.208c.017-.205.024-.412.024-.622a8.324,8.324,0,0,0-14.286-5.8L58.62,80.721a3.131,3.131,0,0,1,5.456,2.627Z" fill="#868eaf"/>
              <path id="Trazado_875258" data-name="Trazado 875258" d="M60.6,100.933a8.289,8.289,0,0,1-1.21,4.32H45.163a8.322,8.322,0,1,1,15.435-4.32Z" fill="none" stroke="#000" stroke-linecap="round" stroke-linejoin="round" stroke-miterlimit="10" stroke-width="4.492"/>
              <path id="Trazado_875259" data-name="Trazado 875259" d="M64.076,83.347l-3.5,18.208c.017-.205.024-.412.024-.622a8.324,8.324,0,0,0-14.286-5.8L58.62,80.721a3.131,3.131,0,0,1,5.456,2.627Z" fill="none" stroke="#000" stroke-linecap="round" stroke-linejoin="round" stroke-miterlimit="10" stroke-width="4.492"/>
              <line id="Línea_1633" data-name="Línea 1633" y1="13.09" transform="translate(52.278 55.553)" fill="none" stroke="#000" stroke-linecap="round" stroke-linejoin="round" stroke-miterlimit="10" stroke-width="4.492"/>
              <line id="Línea_1634" data-name="Línea 1634" y1="13.09" transform="translate(52.278 55.553)" fill="none" stroke="#000" stroke-linecap="round" stroke-linejoin="round" stroke-miterlimit="10" stroke-width="4.492"/>
              <line id="Línea_1635" data-name="Línea 1635" y1="13.09" transform="translate(52.278 55.553)" fill="none" stroke="#000" stroke-linecap="round" stroke-linejoin="round" stroke-miterlimit="10" stroke-width="4.492"/>
              <line id="Línea_1636" data-name="Línea 1636" y1="4.863" x2="12.603" transform="translate(86.119 86.401)" fill="none" stroke="#000" stroke-linecap="round" stroke-linejoin="round" stroke-miterlimit="10" stroke-width="4.492"/>
              <g id="Grupo_1100696" data-name="Grupo 1100696">
                <line id="Línea_1637" data-name="Línea 1637" y2="16.757" transform="translate(65.69 19.187)" fill="none" stroke="#000" stroke-linecap="round" stroke-linejoin="round" stroke-miterlimit="10" stroke-width="4.492"/>
                <path id="Trazado_875260" data-name="Trazado 875260" d="M74.7,19.4l-8.477,7.792L75.3,35.943" fill="none" stroke="#000" stroke-linecap="round" stroke-linejoin="round" stroke-miterlimit="10" stroke-width="4.492"/>
              </g>
              <g id="Grupo_1100697" data-name="Grupo 1100697">
                <line id="Línea_1638" data-name="Línea 1638" y2="16.757" transform="translate(99.82 19.187)" fill="none" stroke="#000" stroke-linecap="round" stroke-linejoin="round" stroke-miterlimit="10" stroke-width="4.492"/>
              </g>
              <g id="Grupo_1100698" data-name="Grupo 1100698">
                <line id="Línea_1639" data-name="Línea 1639" y2="16.757" transform="translate(82.684 19.187)" fill="none" stroke="#000" stroke-linecap="round" stroke-linejoin="round" stroke-miterlimit="10" stroke-width="4.492"/>
                <path id="Trazado_875261" data-name="Trazado 875261" d="M92.171,23.916a4.809,4.809,0,0,1-4.821,4.729c-1.3,0-4.633.021-4.633.021s-.021-3.433-.021-4.75c0-1.081-.012-4.729-.012-4.729H87.35A4.809,4.809,0,0,1,92.171,23.916Z" fill="none" stroke="#000" stroke-linecap="round" stroke-linejoin="round" stroke-miterlimit="10" stroke-width="4.492"/>
              </g>
              <line id="Línea_1640" data-name="Línea 1640" transform="translate(16.897 70.288)" fill="none" stroke="#000" stroke-linecap="round" stroke-linejoin="round" stroke-miterlimit="10" stroke-width="4.492"/>
            </g>
          </g>
        </g>
      </g>
    </g>
  </g>
</svg>
