<svg xmlns="http://www.w3.org/2000/svg" width="85" height="85" viewBox="0 0 85 85">
  <g id="Grupo_1100561" data-name="Grupo 1100561" transform="translate(-727 -3531.3)">
    <circle id="Elipse_4374" data-name="Elipse 4374" cx="42.5" cy="42.5" r="42.5" transform="translate(727 3531.3)" fill="#7d6eb2"/>
    <g id="Grupo_56972" data-name="Grupo 56972" transform="translate(740.069 3541.029)">
      <path id="Trazado_130398" data-name="Trazado 130398" d="M1631.523,4530.163a9.666,9.666,0,0,0-9.048,6.182h-2.6v-18.111a.882.882,0,1,0-1.765,0v18.108h-8.828v-26.21h8.828v4.256a.882.882,0,0,0,1.765,0v-5.139a.882.882,0,0,0-.882-.882h-5.8V4503.4h6.1a.882.882,0,0,0,.686-1.437l-1.905-2.355,1.905-2.355a.883.883,0,0,0-.686-1.438h-6.983a.882.882,0,0,0-.882.883v11.672H1608.4a.882.882,0,0,0-.882.882v6.179h-9.711a.882.882,0,0,0-.882.883v5.038h-9.711a.882.882,0,0,0-.882.882v4.608a.882.882,0,1,0,1.765,0v-3.726h8.828v13.229H1588.1v-5.658a.882.882,0,1,0-1.765,0v5.658h-1.8a3.531,3.531,0,1,0,0,7.061h1.8v1.736a3.53,3.53,0,0,0,7.061,0V4543.4h1.81v3.632a3.531,3.531,0,0,0,7.062,0V4543.4h20.207a9.724,9.724,0,0,0,6.933,5.947.882.882,0,1,0,.382-1.722,7.957,7.957,0,0,1-5.843-5.354.886.886,0,0,0-.849-.638l-.066,0h-21.647a.882.882,0,0,0-.882.882v4.515a1.766,1.766,0,0,1-3.533,0v-4.515a.882.882,0,0,0-.882-.882h-3.575a.882.882,0,0,0-.882.882v2.619a1.766,1.766,0,0,1-3.532,0v-2.619a.882.882,0,0,0-.882-.882h-2.687a1.766,1.766,0,0,1,0-3.532l38.554,0h.015a.882.882,0,0,0,.841-.618,7.946,7.946,0,0,1,15.527,2.38,7.993,7.993,0,0,1-6.213,7.757.882.882,0,1,0,.383,1.722,9.71,9.71,0,0,0-2.115-19.187Zm-15.265-30,1.192,1.473H1613.2v-4.056h4.253l-1.192,1.473A.883.883,0,0,0,1616.257,4500.16Zm-17.564,17.032h8.828v19.149h-8.828Z" transform="translate(-1581.001 -4495.812)" fill="#ffd947"/>
      <path id="Trazado_130399" data-name="Trazado 130399" d="M1898.528,4765.241a4.665,4.665,0,1,0-4.665,4.666A4.671,4.671,0,0,0,1898.528,4765.241Zm-4.665,2.9a2.9,2.9,0,1,1,2.9-2.9A2.9,2.9,0,0,1,1893.862,4768.142Z" transform="translate(-1843.34 -4721.181)" fill="#ffd947"/>
    </g>
  </g>
</svg>
