<svg xmlns="http://www.w3.org/2000/svg" width="85" height="85" viewBox="0 0 85 85">
  <g id="Grupo_1100559" data-name="Grupo 1100559" transform="translate(-579 -3298.3)">
    <circle id="Elipse_4369" data-name="Elipse 4369" cx="42.5" cy="42.5" r="42.5" transform="translate(579 3298.3)" fill="#7d6eb2"/>
    <g id="Grupo_56961" data-name="Grupo 56961" transform="translate(593.352 3312.27)">
      <path id="Trazado_130370" data-name="Trazado 130370" d="M1892.492,2971.35a7.424,7.424,0,0,0-4.4-6.284,5.177,5.177,0,1,0-5.995,0,2.622,2.622,0,1,1-4.969,1.536,7.423,7.423,0,0,0-2.243-1.54,5.177,5.177,0,1,0-6,0,2.622,2.622,0,1,1-4.969,1.536,7.423,7.423,0,0,0-2.243-1.54,5.177,5.177,0,1,0-6,0,7.476,7.476,0,0,0-3.606,3.408,7.444,7.444,0,0,0-3.606-3.411,5.177,5.177,0,1,0-6,0,7.428,7.428,0,0,0-4.4,6.281.8.8,0,0,0,.341.707,28.2,28.2,0,0,1,18.41,2.069.8.8,0,1,0,.237-1.577,10.79,10.79,0,0,1-4.142-1.544,5.822,5.822,0,0,1,11.521,0,10.788,10.788,0,0,1-4.142,1.544.8.8,0,0,0,.117,1.586.836.836,0,0,0,.12-.009,9.531,9.531,0,0,1,11.351.138,12.386,12.386,0,0,1,13.208,0,12.309,12.309,0,0,0,7.059-2.208.8.8,0,0,0,.341-.707Zm-47.021-14.082a3.583,3.583,0,1,1-3.583,3.582A3.587,3.587,0,0,1,1845.47,2957.269Zm0,15.4a10.721,10.721,0,0,1-5.761-1.665,5.822,5.822,0,0,1,11.521,0A10.723,10.723,0,0,1,1845.47,2972.671Zm13.207-15.4a3.583,3.583,0,1,1-3.583,3.582A3.587,3.587,0,0,1,1858.678,2957.269Zm26.415,0a3.583,3.583,0,1,1-3.582,3.582A3.587,3.587,0,0,1,1885.093,2957.269Zm-13.208,0a3.583,3.583,0,1,1-3.582,3.582A3.587,3.587,0,0,1,1871.885,2957.269Zm0,15.4a10.722,10.722,0,0,1-5.76-1.665,5.822,5.822,0,0,1,11.521,0A10.724,10.724,0,0,1,1871.885,2972.671Zm13.208,0a10.721,10.721,0,0,1-5.76-1.665,5.822,5.822,0,0,1,11.521,0A10.723,10.723,0,0,1,1885.093,2972.671Z" transform="translate(-1838.069 -2922.228)" fill="#ffd947"/>
      <path id="Trazado_130371" data-name="Trazado 130371" d="M1900.31,2783.226h1.865v3.02a.8.8,0,0,0,1.232.668l5.67-3.688h12.192l5.6,3.686a.8.8,0,0,0,1.236-.658l.03-3.028h1.25a4,4,0,0,0,3.993-3.993v-.4a.8.8,0,0,0-1.594,0v.4a2.4,2.4,0,0,1-2.4,2.4h-2.039a.8.8,0,0,0-.8.79l-.024,2.356-4.581-3.014a.794.794,0,0,0-.438-.132h-12.668a.794.794,0,0,0-.434.129l-4.637,3.016v-2.348a.8.8,0,0,0-.8-.8h-2.663a2.4,2.4,0,0,1-2.4-2.4v-15.611a2.4,2.4,0,0,1,2.4-2.4h1.771a.8.8,0,1,0,0-1.594h-1.771a4,4,0,0,0-3.993,3.992v15.611a4,4,0,0,0,3.993,3.993Z" transform="translate(-1887.59 -2755.56)" fill="#ffd947"/>
      <path id="Trazado_130372" data-name="Trazado 130372" d="M1952.965,2756.43h4.868a.8.8,0,0,0,.8-.8v-.941a3.646,3.646,0,0,1,1.865.708,2.856,2.856,0,0,0,1.727.59h8.93a50.41,50.41,0,0,1,3.691-9.122,2.46,2.46,0,0,1,.564-3.33,2.465,2.465,0,0,0-2.462-2.462h-4.984a10.646,10.646,0,0,0,.385-2.943h8.522a2.4,2.4,0,0,1,2.4,2.4v11.742a.8.8,0,0,0,1.594,0v-11.742a4,4,0,0,0-3.993-3.993h-8.641a15.968,15.968,0,0,0-.555-2.471,2.251,2.251,0,0,0-2.168-1.6,2.269,2.269,0,0,0-2.265,2.386,6.413,6.413,0,0,1-.109,1.684h-10.093a.8.8,0,1,0,0,1.594h9.376a10.532,10.532,0,0,1-2.233,1.992c-.492.367-1.019.761-1.55,1.215v-.008a.8.8,0,0,0-.8-.8h-4.868a.8.8,0,0,0-.8.8v14.3a.8.8,0,0,0,.8.8Zm8.169-15.028c2-1.494,3.892-2.9,3.7-6.63a.674.674,0,0,1,.673-.709.674.674,0,0,1,.643.47,10.306,10.306,0,0,1-.033,7.05.8.8,0,0,0,.742,1.088h6.089a.868.868,0,1,1,0,1.735h-2.071a.8.8,0,0,0,0,1.594h1.508a.868.868,0,1,1,0,1.735h-1.508a.8.8,0,1,0,0,1.594h.954a.868.868,0,0,1,0,1.736h-1.508a.8.8,0,1,0,0,1.594h.832a.868.868,0,1,1,0,1.735h-8.93a1.252,1.252,0,0,1-.757-.261,5.405,5.405,0,0,0-2.836-1.049v-9.547a17.539,17.539,0,0,1,2.5-2.136Zm-7.372.727h3.273v12.707h-3.273Z" transform="translate(-1935.071 -2732.468)" fill="#ffd947"/>
    </g>
  </g>
</svg>
