<svg xmlns="http://www.w3.org/2000/svg" width="85" height="85" viewBox="0 0 85 85">
  <g id="Grupo_1100563" data-name="Grupo 1100563" transform="translate(-1203 -3298.3)">
    <circle id="Elipse_4372" data-name="Elipse 4372" cx="42.5" cy="42.5" r="42.5" transform="translate(1203 3298.3)" fill="#7d6eb2"/>
    <g id="Grupo_56968" data-name="Grupo 56968" transform="translate(1221.738 3322.694)">
      <path id="Trazado_130387" data-name="Trazado 130387" d="M1780.911,3733.4h-3.556a.7.7,0,1,0,0,1.4h3.556a2.1,2.1,0,0,1,2.1,2.1v21.667H1751.7a.7.7,0,1,0,0,1.4h31.311v1.165a2.1,2.1,0,0,1-2.1,2.1h-40.724a2.1,2.1,0,0,1-2.1-2.1v-1.165h10.56a.7.7,0,1,0,0-1.4h-10.56v-21.667a2.1,2.1,0,0,1,2.1-2.1h34.123a.7.7,0,1,0,0-1.4h-34.123a3.5,3.5,0,0,0-3.495,3.494v24.23a3.5,3.5,0,0,0,3.495,3.495h14.072v4.193H1748.9a2.1,2.1,0,0,0,0,4.194h23.3a2.1,2.1,0,1,0,0-4.194h-5.358v-.513a.7.7,0,0,0-1.4,0v.513h-9.785v-4.193h9.785v.635a.7.7,0,0,0,1.4,0v-.635h14.072a3.5,3.5,0,0,0,3.495-3.495v-24.23A3.5,3.5,0,0,0,1780.911,3733.4Zm-14.771,36.81h6.057a.7.7,0,1,1,0,1.4h-23.3a.7.7,0,0,1,0-1.4h17.24Z" transform="translate(-1736.692 -3733.398)" fill="#ffd947"/>
      <path id="Trazado_130388" data-name="Trazado 130388" d="M1805.348,3767.493h-3.728a.7.7,0,0,0,0,1.4h2.04l-8.49,8.49a2.557,2.557,0,0,0-2.81.04l-1.524-1.524a2.563,2.563,0,1,0-4.674-.072l-4.154,4.154a2.562,2.562,0,1,0,.977,1l4.065-4.065a2.553,2.553,0,0,0,2.867.042l1.54,1.54a2.562,2.562,0,1,0,4.644-.069l8.547-8.547v2.041a.7.7,0,1,0,1.4,0v-3.728a.7.7,0,0,0-.7-.7Zm-24.615,15.873a1.165,1.165,0,1,1,1.165-1.165A1.166,1.166,0,0,1,1780.733,3783.365Zm6.616-8.553a1.165,1.165,0,1,1,1.165,1.165A1.166,1.166,0,0,1,1787.35,3774.812Zm6.446,5.9a1.165,1.165,0,1,1,1.165-1.165A1.166,1.166,0,0,1,1793.8,3780.708Z" transform="translate(-1771.971 -3762.397)" fill="#ffd947"/>
      <g id="Grupo_56965" data-name="Grupo 56965" transform="translate(29.928 14.91)">
        <path id="Trazado_130389" data-name="Trazado 130389" d="M1947.827,3834.563h-10.189a.7.7,0,0,1,0-1.4h10.189a.7.7,0,1,1,0,1.4Z" transform="translate(-1936.939 -3833.165)" fill="#ffd947"/>
      </g>
      <g id="Grupo_56966" data-name="Grupo 56966" transform="translate(29.928 17.955)">
        <path id="Trazado_130390" data-name="Trazado 130390" d="M1947.827,3854.931h-10.189a.7.7,0,1,1,0-1.4h10.189a.7.7,0,1,1,0,1.4Z" transform="translate(-1936.939 -3853.533)" fill="#ffd947"/>
      </g>
      <g id="Grupo_56967" data-name="Grupo 56967" transform="translate(29.928 20.999)">
        <path id="Trazado_130391" data-name="Trazado 130391" d="M1944.534,3875.3h-6.9a.7.7,0,1,1,0-1.4h6.9a.7.7,0,1,1,0,1.4Z" transform="translate(-1936.939 -3873.902)" fill="#ffd947"/>
      </g>
    </g>
  </g>
</svg>
